<?xml version="1.0" encoding="UTF-8" standalone="no"?><svg xmlns="http://www.w3.org/2000/svg" xmlns:xlink="http://www.w3.org/1999/xlink" contentScriptType="application/ecmascript" contentStyleType="text/css" height="1132px" preserveAspectRatio="none" style="width:784px;height:1132px;" version="1.1" viewBox="0 0 784 1132" width="784px" zoomAndPan="magnify"><defs><filter height="300%" id="flo8ntbvuviqi" width="300%" x="-1" y="-1"><feGaussianBlur result="blurOut" stdDeviation="2.0"/><feColorMatrix in="blurOut" result="blurOut2" type="matrix" values="0 0 0 0 0 0 0 0 0 0 0 0 0 0 0 0 0 0 .4 0"/><feOffset dx="4.0" dy="4.0" in="blurOut2" result="blurOut3"/><feBlend in="SourceGraphic" in2="blurOut3" mode="normal"/></filter></defs><g><!--cluster javax.swing--><polygon fill="#FFFFFF" filter="url(#flo8ntbvuviqi)" points="22,231.5,110,231.5,117,255.1094,380,255.1094,380,912.5,22,912.5,22,231.5" style="stroke: #000000; stroke-width: 1.5;"/><line style="stroke: #000000; stroke-width: 1.5;" x1="22" x2="117" y1="255.1094" y2="255.1094"/><text fill="#000000" font-family="sans-serif" font-size="14" font-weight="bold" lengthAdjust="spacingAndGlyphs" textLength="82" x="26" y="248.0332">javax.swing</text><!--cluster java.awt--><polygon fill="#FFFFFF" filter="url(#flo8ntbvuviqi)" points="404,24,467,24,474,47.6094,762,47.6094,762,1120,404,1120,404,24" style="stroke: #000000; stroke-width: 1.5;"/><line style="stroke: #000000; stroke-width: 1.5;" x1="404" x2="474" y1="47.6094" y2="47.6094"/><text fill="#000000" font-family="sans-serif" font-size="14" font-weight="bold" lengthAdjust="spacingAndGlyphs" textLength="57" x="408" y="40.5332">java.awt</text><!--class javax.swing.JFrame--><rect fill="#FEFECE" filter="url(#flo8ntbvuviqi)" height="629.1094" id="javax.swing.JFrame" style="stroke: #A80036; stroke-width: 1.5;" width="325" x="38.5" y="267.5"/><ellipse cx="175.75" cy="283.5" fill="#ADD1B2" rx="11" ry="11" style="stroke: #A80036; stroke-width: 1.0;"/><path d="M178.5156,279.375 Q178.6719,279.1563 178.8594,279.0469 Q179.0469,278.9375 179.2656,278.9375 Q179.6406,278.9375 179.875,279.1953 Q180.1094,279.4531 180.1094,280.0625 L180.1094,281.5156 Q180.1094,282.125 179.875,282.3906 Q179.6406,282.6563 179.2656,282.6563 Q178.9219,282.6563 178.7188,282.4531 Q178.5156,282.2656 178.4063,281.75 Q178.3594,281.3906 178.1719,281.2031 Q177.8438,280.8281 177.2344,280.6094 Q176.625,280.3906 176,280.3906 Q175.2344,280.3906 174.6016,280.7188 Q173.9688,281.0469 173.4766,281.7969 Q172.9844,282.5469 172.9844,283.5781 L172.9844,284.6719 Q172.9844,285.9063 173.875,286.7266 Q174.7656,287.5469 176.3594,287.5469 Q177.2969,287.5469 177.9531,287.2969 Q178.3438,287.1406 178.7656,286.7031 Q179.0313,286.4375 179.1797,286.3594 Q179.3281,286.2813 179.5313,286.2813 Q179.8594,286.2813 180.1172,286.5391 Q180.375,286.7969 180.375,287.1406 Q180.375,287.4844 180.0313,287.8906 Q179.5313,288.4688 178.7344,288.7969 Q177.6563,289.25 176.3594,289.25 Q174.8438,289.25 173.6406,288.625 Q172.6563,288.125 171.9688,287.0547 Q171.2813,285.9844 171.2813,284.7031 L171.2813,283.5469 Q171.2813,282.2188 171.8984,281.0703 Q172.5156,279.9219 173.6094,279.3047 Q174.7031,278.6875 175.9375,278.6875 Q176.6719,278.6875 177.3203,278.8516 Q177.9688,279.0156 178.5156,279.375 Z "/><text fill="#000000" font-family="sans-serif" font-size="12" lengthAdjust="spacingAndGlyphs" textLength="42" x="196.25" y="288.4102">JFrame</text><line style="stroke: #A80036; stroke-width: 1.5;" x1="39.5" x2="362.5" y1="299.5" y2="299.5"/><ellipse cx="49.5" cy="311.918" fill="none" rx="3" ry="3" style="stroke: #038048; stroke-width: 1.0;"/><text fill="#000000" font-family="sans-serif" font-size="11" lengthAdjust="spacingAndGlyphs" text-decoration="underline" textLength="96" x="58.5" y="314.9189">int EXIT_ON_CLOSE</text><line style="stroke: #000000; stroke-width: 1.0;" x1="58.5" x2="154.5" y1="316.9189" y2="316.9189"/><rect fill="none" height="6" style="stroke: #C82930; stroke-width: 1.0;" width="6" x="46.5" y="322.7539"/><text fill="#000000" font-family="sans-serif" font-size="11" lengthAdjust="spacingAndGlyphs" text-decoration="underline" textLength="245" x="58.5" y="328.7549">java.lang.Object defaultLookAndFeelDecoratedKey</text><line style="stroke: #000000; stroke-width: 1.0;" x1="58.5" x2="303.5" y1="330.7549" y2="330.7549"/><rect fill="none" height="6" style="stroke: #C82930; stroke-width: 1.0;" width="6" x="46.5" y="336.5898"/><text fill="#000000" font-family="sans-serif" font-size="11" lengthAdjust="spacingAndGlyphs" textLength="121" x="58.5" y="342.5908">int defaultCloseOperation</text><rect fill="none" height="6" style="stroke: #C82930; stroke-width: 1.0;" width="6" x="46.5" y="350.4258"/><text fill="#000000" font-family="sans-serif" font-size="11" lengthAdjust="spacingAndGlyphs" textLength="220" x="58.5" y="356.4268">javax.swing.TransferHandler transferHandler</text><polygon fill="none" points="49.5,362.2617,53.5,366.2617,49.5,370.2617,45.5,366.2617" style="stroke: #B38D22; stroke-width: 1.0;"/><text fill="#000000" font-family="sans-serif" font-size="11" lengthAdjust="spacingAndGlyphs" textLength="159" x="58.5" y="370.2627">javax.swing.JRootPane rootPane</text><polygon fill="none" points="49.5,376.0977,53.5,380.0977,49.5,384.0977,45.5,380.0977" style="stroke: #B38D22; stroke-width: 1.0;"/><text fill="#000000" font-family="sans-serif" font-size="11" lengthAdjust="spacingAndGlyphs" textLength="166" x="58.5" y="384.0986">boolean rootPaneCheckingEnabled</text><polygon fill="none" points="49.5,389.9336,53.5,393.9336,49.5,397.9336,45.5,393.9336" style="stroke: #B38D22; stroke-width: 1.0;"/><text fill="#000000" font-family="sans-serif" font-size="11" lengthAdjust="spacingAndGlyphs" textLength="274" x="58.5" y="397.9346">javax.accessibility.AccessibleContext accessibleContext</text><line style="stroke: #A80036; stroke-width: 1.5;" x1="39.5" x2="362.5" y1="404.3516" y2="404.3516"/><ellipse cx="49.5" cy="416.7695" fill="#84BE84" rx="3" ry="3" style="stroke: #038048; stroke-width: 1.0;"/><text fill="#000000" font-family="sans-serif" font-size="11" lengthAdjust="spacingAndGlyphs" textLength="56" x="58.5" y="419.7705">void &lt;init&gt;()</text><ellipse cx="49.5" cy="430.6055" fill="#84BE84" rx="3" ry="3" style="stroke: #038048; stroke-width: 1.0;"/><text fill="#000000" font-family="sans-serif" font-size="11" lengthAdjust="spacingAndGlyphs" textLength="209" x="58.5" y="433.6064">void &lt;init&gt;(java.awt.GraphicsConfiguration)</text><ellipse cx="49.5" cy="444.4414" fill="#84BE84" rx="3" ry="3" style="stroke: #038048; stroke-width: 1.0;"/><text fill="#000000" font-family="sans-serif" font-size="11" lengthAdjust="spacingAndGlyphs" textLength="130" x="58.5" y="447.4424">void &lt;init&gt;(java.lang.String)</text><ellipse cx="49.5" cy="458.2773" fill="#84BE84" rx="3" ry="3" style="stroke: #038048; stroke-width: 1.0;"/><text fill="#000000" font-family="sans-serif" font-size="11" lengthAdjust="spacingAndGlyphs" textLength="286" x="58.5" y="461.2783">void &lt;init&gt;(java.lang.String,java.awt.GraphicsConfiguration)</text><polygon fill="#FFFF44" points="49.5,467.1133,53.5,471.1133,49.5,475.1133,45.5,471.1133" style="stroke: #B38D22; stroke-width: 1.0;"/><text fill="#000000" font-family="sans-serif" font-size="11" lengthAdjust="spacingAndGlyphs" textLength="72" x="58.5" y="475.1143">void frameInit()</text><polygon fill="#FFFF44" points="49.5,480.9492,53.5,484.9492,49.5,488.9492,45.5,484.9492" style="stroke: #B38D22; stroke-width: 1.0;"/><text fill="#000000" font-family="sans-serif" font-size="11" lengthAdjust="spacingAndGlyphs" textLength="201" x="58.5" y="488.9502">javax.swing.JRootPane createRootPane()</text><polygon fill="#FFFF44" points="49.5,494.7852,53.5,498.7852,49.5,502.7852,45.5,498.7852" style="stroke: #B38D22; stroke-width: 1.0;"/><text fill="#000000" font-family="sans-serif" font-size="11" lengthAdjust="spacingAndGlyphs" textLength="280" x="58.5" y="502.7861">void processWindowEvent(java.awt.event.WindowEvent)</text><ellipse cx="49.5" cy="513.6211" fill="#84BE84" rx="3" ry="3" style="stroke: #038048; stroke-width: 1.0;"/><text fill="#000000" font-family="sans-serif" font-size="11" lengthAdjust="spacingAndGlyphs" textLength="165" x="58.5" y="516.6221">void setDefaultCloseOperation(int)</text><ellipse cx="49.5" cy="527.457" fill="#84BE84" rx="3" ry="3" style="stroke: #038048; stroke-width: 1.0;"/><text fill="#000000" font-family="sans-serif" font-size="11" lengthAdjust="spacingAndGlyphs" textLength="145" x="58.5" y="530.458">int getDefaultCloseOperation()</text><ellipse cx="49.5" cy="541.293" fill="#84BE84" rx="3" ry="3" style="stroke: #038048; stroke-width: 1.0;"/><text fill="#000000" font-family="sans-serif" font-size="11" lengthAdjust="spacingAndGlyphs" textLength="266" x="58.5" y="544.2939">void setTransferHandler(javax.swing.TransferHandler)</text><ellipse cx="49.5" cy="555.1289" fill="#84BE84" rx="3" ry="3" style="stroke: #038048; stroke-width: 1.0;"/><text fill="#000000" font-family="sans-serif" font-size="11" lengthAdjust="spacingAndGlyphs" textLength="246" x="58.5" y="558.1299">javax.swing.TransferHandler getTransferHandler()</text><ellipse cx="49.5" cy="568.9648" fill="#84BE84" rx="3" ry="3" style="stroke: #038048; stroke-width: 1.0;"/><text fill="#000000" font-family="sans-serif" font-size="11" lengthAdjust="spacingAndGlyphs" textLength="153" x="58.5" y="571.9658">void update(java.awt.Graphics)</text><ellipse cx="49.5" cy="582.8008" fill="#84BE84" rx="3" ry="3" style="stroke: #038048; stroke-width: 1.0;"/><text fill="#000000" font-family="sans-serif" font-size="11" lengthAdjust="spacingAndGlyphs" textLength="204" x="58.5" y="585.8018">void setJMenuBar(javax.swing.JMenuBar)</text><ellipse cx="49.5" cy="596.6367" fill="#84BE84" rx="3" ry="3" style="stroke: #038048; stroke-width: 1.0;"/><text fill="#000000" font-family="sans-serif" font-size="11" lengthAdjust="spacingAndGlyphs" textLength="184" x="58.5" y="599.6377">javax.swing.JMenuBar getJMenuBar()</text><polygon fill="#FFFF44" points="49.5,605.4727,53.5,609.4727,49.5,613.4727,45.5,609.4727" style="stroke: #B38D22; stroke-width: 1.0;"/><text fill="#000000" font-family="sans-serif" font-size="11" lengthAdjust="spacingAndGlyphs" textLength="185" x="58.5" y="613.4736">boolean isRootPaneCheckingEnabled()</text><polygon fill="#FFFF44" points="49.5,619.3086,53.5,623.3086,49.5,627.3086,45.5,623.3086" style="stroke: #B38D22; stroke-width: 1.0;"/><text fill="#000000" font-family="sans-serif" font-size="11" lengthAdjust="spacingAndGlyphs" textLength="212" x="58.5" y="627.3096">void setRootPaneCheckingEnabled(boolean)</text><polygon fill="#FFFF44" points="49.5,633.1445,53.5,637.1445,49.5,641.1445,45.5,637.1445" style="stroke: #B38D22; stroke-width: 1.0;"/><text fill="#000000" font-family="sans-serif" font-size="11" lengthAdjust="spacingAndGlyphs" textLength="260" x="58.5" y="641.1455">void addImpl(java.awt.Component,java.lang.Object,int)</text><ellipse cx="49.5" cy="651.9805" fill="#84BE84" rx="3" ry="3" style="stroke: #038048; stroke-width: 1.0;"/><text fill="#000000" font-family="sans-serif" font-size="11" lengthAdjust="spacingAndGlyphs" textLength="166" x="58.5" y="654.9814">void remove(java.awt.Component)</text><ellipse cx="49.5" cy="665.8164" fill="#84BE84" rx="3" ry="3" style="stroke: #038048; stroke-width: 1.0;"/><text fill="#000000" font-family="sans-serif" font-size="11" lengthAdjust="spacingAndGlyphs" textLength="199" x="58.5" y="668.8174">void setLayout(java.awt.LayoutManager)</text><ellipse cx="49.5" cy="679.6523" fill="#84BE84" rx="3" ry="3" style="stroke: #038048; stroke-width: 1.0;"/><text fill="#000000" font-family="sans-serif" font-size="11" lengthAdjust="spacingAndGlyphs" textLength="185" x="58.5" y="682.6533">javax.swing.JRootPane getRootPane()</text><polygon fill="#FFFF44" points="49.5,688.4883,53.5,692.4883,49.5,696.4883,45.5,692.4883" style="stroke: #B38D22; stroke-width: 1.0;"/><text fill="#000000" font-family="sans-serif" font-size="11" lengthAdjust="spacingAndGlyphs" textLength="205" x="58.5" y="696.4893">void setRootPane(javax.swing.JRootPane)</text><ellipse cx="49.5" cy="707.3242" fill="#84BE84" rx="3" ry="3" style="stroke: #038048; stroke-width: 1.0;"/><text fill="#000000" font-family="sans-serif" font-size="11" lengthAdjust="spacingAndGlyphs" textLength="167" x="58.5" y="710.3252">void setIconImage(java.awt.Image)</text><ellipse cx="49.5" cy="721.1602" fill="#84BE84" rx="3" ry="3" style="stroke: #038048; stroke-width: 1.0;"/><text fill="#000000" font-family="sans-serif" font-size="11" lengthAdjust="spacingAndGlyphs" textLength="178" x="58.5" y="724.1611">java.awt.Container getContentPane()</text><ellipse cx="49.5" cy="734.9961" fill="#84BE84" rx="3" ry="3" style="stroke: #038048; stroke-width: 1.0;"/><text fill="#000000" font-family="sans-serif" font-size="11" lengthAdjust="spacingAndGlyphs" textLength="198" x="58.5" y="737.9971">void setContentPane(java.awt.Container)</text><ellipse cx="49.5" cy="748.832" fill="#84BE84" rx="3" ry="3" style="stroke: #038048; stroke-width: 1.0;"/><text fill="#000000" font-family="sans-serif" font-size="11" lengthAdjust="spacingAndGlyphs" textLength="221" x="58.5" y="751.833">javax.swing.JLayeredPane getLayeredPane()</text><ellipse cx="49.5" cy="762.668" fill="#84BE84" rx="3" ry="3" style="stroke: #038048; stroke-width: 1.0;"/><text fill="#000000" font-family="sans-serif" font-size="11" lengthAdjust="spacingAndGlyphs" textLength="241" x="58.5" y="765.6689">void setLayeredPane(javax.swing.JLayeredPane)</text><ellipse cx="49.5" cy="776.5039" fill="#84BE84" rx="3" ry="3" style="stroke: #038048; stroke-width: 1.0;"/><text fill="#000000" font-family="sans-serif" font-size="11" lengthAdjust="spacingAndGlyphs" textLength="177" x="58.5" y="779.5049">java.awt.Component getGlassPane()</text><ellipse cx="49.5" cy="790.3398" fill="#84BE84" rx="3" ry="3" style="stroke: #038048; stroke-width: 1.0;"/><text fill="#000000" font-family="sans-serif" font-size="11" lengthAdjust="spacingAndGlyphs" textLength="197" x="58.5" y="793.3408">void setGlassPane(java.awt.Component)</text><ellipse cx="49.5" cy="804.1758" fill="#84BE84" rx="3" ry="3" style="stroke: #038048; stroke-width: 1.0;"/><text fill="#000000" font-family="sans-serif" font-size="11" lengthAdjust="spacingAndGlyphs" textLength="159" x="58.5" y="807.1768">java.awt.Graphics getGraphics()</text><ellipse cx="49.5" cy="818.0117" fill="#84BE84" rx="3" ry="3" style="stroke: #038048; stroke-width: 1.0;"/><text fill="#000000" font-family="sans-serif" font-size="11" lengthAdjust="spacingAndGlyphs" textLength="140" x="58.5" y="821.0127">void repaint(long,int,int,int,int)</text><ellipse cx="49.5" cy="831.8477" fill="#84BE84" rx="3" ry="3" style="stroke: #038048; stroke-width: 1.0;"/><text fill="#000000" font-family="sans-serif" font-size="11" lengthAdjust="spacingAndGlyphs" text-decoration="underline" textLength="231" x="58.5" y="834.8486">void setDefaultLookAndFeelDecorated(boolean)</text><line style="stroke: #000000; stroke-width: 1.0;" x1="58.5" x2="289.5" y1="836.8486" y2="836.8486"/><ellipse cx="49.5" cy="845.6836" fill="#84BE84" rx="3" ry="3" style="stroke: #038048; stroke-width: 1.0;"/><text fill="#000000" font-family="sans-serif" font-size="11" lengthAdjust="spacingAndGlyphs" text-decoration="underline" textLength="204" x="58.5" y="848.6846">boolean isDefaultLookAndFeelDecorated()</text><line style="stroke: #000000; stroke-width: 1.0;" x1="58.5" x2="262.5" y1="850.6846" y2="850.6846"/><polygon fill="#FFFF44" points="49.5,854.5195,53.5,858.5195,49.5,862.5195,45.5,858.5195" style="stroke: #B38D22; stroke-width: 1.0;"/><text fill="#000000" font-family="sans-serif" font-size="11" lengthAdjust="spacingAndGlyphs" textLength="143" x="58.5" y="862.5205">java.lang.String paramString()</text><ellipse cx="49.5" cy="873.3555" fill="#84BE84" rx="3" ry="3" style="stroke: #038048; stroke-width: 1.0;"/><text fill="#000000" font-family="sans-serif" font-size="11" lengthAdjust="spacingAndGlyphs" textLength="299" x="58.5" y="876.3564">javax.accessibility.AccessibleContext getAccessibleContext()</text><rect fill="#F24D5C" height="6" style="stroke: #C82930; stroke-width: 1.0;" width="6" x="46.5" y="884.1914"/><text fill="#000000" font-family="sans-serif" font-size="11" lengthAdjust="spacingAndGlyphs" text-decoration="underline" textLength="64" x="58.5" y="890.1924">void &lt;clinit&gt;()</text><line style="stroke: #000000; stroke-width: 1.0;" x1="58.5" x2="122.5" y1="892.1924" y2="892.1924"/><!--class java.awt.Frame--><rect fill="#FEFECE" filter="url(#flo8ntbvuviqi)" height="1044.1875" id="java.awt.Frame" style="stroke: #A80036; stroke-width: 1.5;" width="325" x="420.5" y="60"/><ellipse cx="560.75" cy="76" fill="#ADD1B2" rx="11" ry="11" style="stroke: #A80036; stroke-width: 1.0;"/><path d="M563.5156,71.875 Q563.6719,71.6563 563.8594,71.5469 Q564.0469,71.4375 564.2656,71.4375 Q564.6406,71.4375 564.875,71.6953 Q565.1094,71.9531 565.1094,72.5625 L565.1094,74.0156 Q565.1094,74.625 564.875,74.8906 Q564.6406,75.1563 564.2656,75.1563 Q563.9219,75.1563 563.7188,74.9531 Q563.5156,74.7656 563.4063,74.25 Q563.3594,73.8906 563.1719,73.7031 Q562.8438,73.3281 562.2344,73.1094 Q561.625,72.8906 561,72.8906 Q560.2344,72.8906 559.6016,73.2188 Q558.9688,73.5469 558.4766,74.2969 Q557.9844,75.0469 557.9844,76.0781 L557.9844,77.1719 Q557.9844,78.4063 558.875,79.2266 Q559.7656,80.0469 561.3594,80.0469 Q562.2969,80.0469 562.9531,79.7969 Q563.3438,79.6406 563.7656,79.2031 Q564.0313,78.9375 564.1797,78.8594 Q564.3281,78.7813 564.5313,78.7813 Q564.8594,78.7813 565.1172,79.0391 Q565.375,79.2969 565.375,79.6406 Q565.375,79.9844 565.0313,80.3906 Q564.5313,80.9688 563.7344,81.2969 Q562.6563,81.75 561.3594,81.75 Q559.8438,81.75 558.6406,81.125 Q557.6563,80.625 556.9688,79.5547 Q556.2813,78.4844 556.2813,77.2031 L556.2813,76.0469 Q556.2813,74.7188 556.8984,73.5703 Q557.5156,72.4219 558.6094,71.8047 Q559.7031,71.1875 560.9375,71.1875 Q561.6719,71.1875 562.3203,71.3516 Q562.9688,71.5156 563.5156,71.875 Z "/><text fill="#000000" font-family="sans-serif" font-size="12" lengthAdjust="spacingAndGlyphs" textLength="36" x="581.25" y="80.9102">Frame</text><line style="stroke: #A80036; stroke-width: 1.5;" x1="421.5" x2="744.5" y1="92" y2="92"/><ellipse cx="431.5" cy="104.418" fill="none" rx="3" ry="3" style="stroke: #038048; stroke-width: 1.0;"/><text fill="#000000" font-family="sans-serif" font-size="11" lengthAdjust="spacingAndGlyphs" text-decoration="underline" textLength="109" x="440.5" y="107.4189">int DEFAULT_CURSOR</text><line style="stroke: #000000; stroke-width: 1.0;" x1="440.5" x2="549.5" y1="109.4189" y2="109.4189"/><ellipse cx="431.5" cy="118.2539" fill="none" rx="3" ry="3" style="stroke: #038048; stroke-width: 1.0;"/><text fill="#000000" font-family="sans-serif" font-size="11" lengthAdjust="spacingAndGlyphs" text-decoration="underline" textLength="123" x="440.5" y="121.2549">int CROSSHAIR_CURSOR</text><line style="stroke: #000000; stroke-width: 1.0;" x1="440.5" x2="563.5" y1="123.2549" y2="123.2549"/><ellipse cx="431.5" cy="132.0898" fill="none" rx="3" ry="3" style="stroke: #038048; stroke-width: 1.0;"/><text fill="#000000" font-family="sans-serif" font-size="11" lengthAdjust="spacingAndGlyphs" text-decoration="underline" textLength="88" x="440.5" y="135.0908">int TEXT_CURSOR</text><line style="stroke: #000000; stroke-width: 1.0;" x1="440.5" x2="528.5" y1="137.0908" y2="137.0908"/><ellipse cx="431.5" cy="145.9258" fill="none" rx="3" ry="3" style="stroke: #038048; stroke-width: 1.0;"/><text fill="#000000" font-family="sans-serif" font-size="11" lengthAdjust="spacingAndGlyphs" text-decoration="underline" textLength="89" x="440.5" y="148.9268">int WAIT_CURSOR</text><line style="stroke: #000000; stroke-width: 1.0;" x1="440.5" x2="529.5" y1="150.9268" y2="150.9268"/><ellipse cx="431.5" cy="159.7617" fill="none" rx="3" ry="3" style="stroke: #038048; stroke-width: 1.0;"/><text fill="#000000" font-family="sans-serif" font-size="11" lengthAdjust="spacingAndGlyphs" text-decoration="underline" textLength="121" x="440.5" y="162.7627">int SW_RESIZE_CURSOR</text><line style="stroke: #000000; stroke-width: 1.0;" x1="440.5" x2="561.5" y1="164.7627" y2="164.7627"/><ellipse cx="431.5" cy="173.5977" fill="none" rx="3" ry="3" style="stroke: #038048; stroke-width: 1.0;"/><text fill="#000000" font-family="sans-serif" font-size="11" lengthAdjust="spacingAndGlyphs" text-decoration="underline" textLength="117" x="440.5" y="176.5986">int SE_RESIZE_CURSOR</text><line style="stroke: #000000; stroke-width: 1.0;" x1="440.5" x2="557.5" y1="178.5986" y2="178.5986"/><ellipse cx="431.5" cy="187.4336" fill="none" rx="3" ry="3" style="stroke: #038048; stroke-width: 1.0;"/><text fill="#000000" font-family="sans-serif" font-size="11" lengthAdjust="spacingAndGlyphs" text-decoration="underline" textLength="121" x="440.5" y="190.4346">int NW_RESIZE_CURSOR</text><line style="stroke: #000000; stroke-width: 1.0;" x1="440.5" x2="561.5" y1="192.4346" y2="192.4346"/><ellipse cx="431.5" cy="201.2695" fill="none" rx="3" ry="3" style="stroke: #038048; stroke-width: 1.0;"/><text fill="#000000" font-family="sans-serif" font-size="11" lengthAdjust="spacingAndGlyphs" text-decoration="underline" textLength="117" x="440.5" y="204.2705">int NE_RESIZE_CURSOR</text><line style="stroke: #000000; stroke-width: 1.0;" x1="440.5" x2="557.5" y1="206.2705" y2="206.2705"/><ellipse cx="431.5" cy="215.1055" fill="none" rx="3" ry="3" style="stroke: #038048; stroke-width: 1.0;"/><text fill="#000000" font-family="sans-serif" font-size="11" lengthAdjust="spacingAndGlyphs" text-decoration="underline" textLength="111" x="440.5" y="218.1064">int N_RESIZE_CURSOR</text><line style="stroke: #000000; stroke-width: 1.0;" x1="440.5" x2="551.5" y1="220.1064" y2="220.1064"/><ellipse cx="431.5" cy="228.9414" fill="none" rx="3" ry="3" style="stroke: #038048; stroke-width: 1.0;"/><text fill="#000000" font-family="sans-serif" font-size="11" lengthAdjust="spacingAndGlyphs" text-decoration="underline" textLength="111" x="440.5" y="231.9424">int S_RESIZE_CURSOR</text><line style="stroke: #000000; stroke-width: 1.0;" x1="440.5" x2="551.5" y1="233.9424" y2="233.9424"/><ellipse cx="431.5" cy="242.7773" fill="none" rx="3" ry="3" style="stroke: #038048; stroke-width: 1.0;"/><text fill="#000000" font-family="sans-serif" font-size="11" lengthAdjust="spacingAndGlyphs" text-decoration="underline" textLength="114" x="440.5" y="245.7783">int W_RESIZE_CURSOR</text><line style="stroke: #000000; stroke-width: 1.0;" x1="440.5" x2="554.5" y1="247.7783" y2="247.7783"/><ellipse cx="431.5" cy="256.6133" fill="none" rx="3" ry="3" style="stroke: #038048; stroke-width: 1.0;"/><text fill="#000000" font-family="sans-serif" font-size="11" lengthAdjust="spacingAndGlyphs" text-decoration="underline" textLength="110" x="440.5" y="259.6143">int E_RESIZE_CURSOR</text><line style="stroke: #000000; stroke-width: 1.0;" x1="440.5" x2="550.5" y1="261.6143" y2="261.6143"/><ellipse cx="431.5" cy="270.4492" fill="none" rx="3" ry="3" style="stroke: #038048; stroke-width: 1.0;"/><text fill="#000000" font-family="sans-serif" font-size="11" lengthAdjust="spacingAndGlyphs" text-decoration="underline" textLength="92" x="440.5" y="273.4502">int HAND_CURSOR</text><line style="stroke: #000000; stroke-width: 1.0;" x1="440.5" x2="532.5" y1="275.4502" y2="275.4502"/><ellipse cx="431.5" cy="284.2852" fill="none" rx="3" ry="3" style="stroke: #038048; stroke-width: 1.0;"/><text fill="#000000" font-family="sans-serif" font-size="11" lengthAdjust="spacingAndGlyphs" text-decoration="underline" textLength="93" x="440.5" y="287.2861">int MOVE_CURSOR</text><line style="stroke: #000000; stroke-width: 1.0;" x1="440.5" x2="533.5" y1="289.2861" y2="289.2861"/><ellipse cx="431.5" cy="298.1211" fill="none" rx="3" ry="3" style="stroke: #038048; stroke-width: 1.0;"/><text fill="#000000" font-family="sans-serif" font-size="11" lengthAdjust="spacingAndGlyphs" text-decoration="underline" textLength="58" x="440.5" y="301.1221">int NORMAL</text><line style="stroke: #000000; stroke-width: 1.0;" x1="440.5" x2="498.5" y1="303.1221" y2="303.1221"/><ellipse cx="431.5" cy="311.957" fill="none" rx="3" ry="3" style="stroke: #038048; stroke-width: 1.0;"/><text fill="#000000" font-family="sans-serif" font-size="11" lengthAdjust="spacingAndGlyphs" text-decoration="underline" textLength="61" x="440.5" y="314.958">int ICONIFIED</text><line style="stroke: #000000; stroke-width: 1.0;" x1="440.5" x2="501.5" y1="316.958" y2="316.958"/><ellipse cx="431.5" cy="325.793" fill="none" rx="3" ry="3" style="stroke: #038048; stroke-width: 1.0;"/><text fill="#000000" font-family="sans-serif" font-size="11" lengthAdjust="spacingAndGlyphs" text-decoration="underline" textLength="106" x="440.5" y="328.7939">int MAXIMIZED_HORIZ</text><line style="stroke: #000000; stroke-width: 1.0;" x1="440.5" x2="546.5" y1="330.7939" y2="330.7939"/><ellipse cx="431.5" cy="339.6289" fill="none" rx="3" ry="3" style="stroke: #038048; stroke-width: 1.0;"/><text fill="#000000" font-family="sans-serif" font-size="11" lengthAdjust="spacingAndGlyphs" text-decoration="underline" textLength="102" x="440.5" y="342.6299">int MAXIMIZED_VERT</text><line style="stroke: #000000; stroke-width: 1.0;" x1="440.5" x2="542.5" y1="344.6299" y2="344.6299"/><ellipse cx="431.5" cy="353.4648" fill="none" rx="3" ry="3" style="stroke: #038048; stroke-width: 1.0;"/><text fill="#000000" font-family="sans-serif" font-size="11" lengthAdjust="spacingAndGlyphs" text-decoration="underline" textLength="103" x="440.5" y="356.4658">int MAXIMIZED_BOTH</text><line style="stroke: #000000; stroke-width: 1.0;" x1="440.5" x2="543.5" y1="358.4658" y2="358.4658"/><rect fill="none" height="6" style="stroke: #C82930; stroke-width: 1.0;" width="6" x="428.5" y="364.3008"/><text fill="#000000" font-family="sans-serif" font-size="11" lengthAdjust="spacingAndGlyphs" textLength="183" x="440.5" y="370.3018">java.awt.Rectangle maximizedBounds</text><rect fill="none" height="6" style="stroke: #C82930; stroke-width: 1.0;" width="6" x="428.5" y="378.1367"/><text fill="#000000" font-family="sans-serif" font-size="11" lengthAdjust="spacingAndGlyphs" textLength="93" x="440.5" y="384.1377">java.lang.String title</text><rect fill="none" height="6" style="stroke: #C82930; stroke-width: 1.0;" width="6" x="428.5" y="391.9727"/><text fill="#000000" font-family="sans-serif" font-size="11" lengthAdjust="spacingAndGlyphs" textLength="134" x="440.5" y="397.9736">java.awt.MenuBar menuBar</text><rect fill="none" height="6" style="stroke: #C82930; stroke-width: 1.0;" width="6" x="428.5" y="405.8086"/><text fill="#000000" font-family="sans-serif" font-size="11" lengthAdjust="spacingAndGlyphs" textLength="85" x="440.5" y="411.8096">boolean resizable</text><rect fill="none" height="6" style="stroke: #C82930; stroke-width: 1.0;" width="6" x="428.5" y="419.6445"/><text fill="#000000" font-family="sans-serif" font-size="11" lengthAdjust="spacingAndGlyphs" textLength="102" x="440.5" y="425.6455">boolean undecorated</text><rect fill="none" height="6" style="stroke: #C82930; stroke-width: 1.0;" width="6" x="428.5" y="433.4805"/><text fill="#000000" font-family="sans-serif" font-size="11" lengthAdjust="spacingAndGlyphs" textLength="116" x="440.5" y="439.4814">boolean mbManagement</text><rect fill="none" height="6" style="stroke: #C82930; stroke-width: 1.0;" width="6" x="428.5" y="447.3164"/><text fill="#000000" font-family="sans-serif" font-size="11" lengthAdjust="spacingAndGlyphs" textLength="38" x="440.5" y="453.3174">int state</text><rect fill="none" height="6" style="stroke: #C82930; stroke-width: 1.0;" width="6" x="428.5" y="461.1523"/><text fill="#000000" font-family="sans-serif" font-size="11" lengthAdjust="spacingAndGlyphs" textLength="252" x="440.5" y="467.1533">java.util.Vector&lt;java.awt.Window&gt; ownedWindows</text><rect fill="none" height="6" style="stroke: #C82930; stroke-width: 1.0;" width="6" x="428.5" y="474.9883"/><text fill="#000000" font-family="sans-serif" font-size="11" lengthAdjust="spacingAndGlyphs" text-decoration="underline" textLength="101" x="440.5" y="480.9893">java.lang.String base</text><line style="stroke: #000000; stroke-width: 1.0;" x1="440.5" x2="541.5" y1="482.9893" y2="482.9893"/><rect fill="none" height="6" style="stroke: #C82930; stroke-width: 1.0;" width="6" x="428.5" y="488.8242"/><text fill="#000000" font-family="sans-serif" font-size="11" lengthAdjust="spacingAndGlyphs" text-decoration="underline" textLength="78" x="440.5" y="494.8252">int nameCounter</text><line style="stroke: #000000; stroke-width: 1.0;" x1="440.5" x2="518.5" y1="496.8252" y2="496.8252"/><rect fill="none" height="6" style="stroke: #C82930; stroke-width: 1.0;" width="6" x="428.5" y="502.6602"/><text fill="#000000" font-family="sans-serif" font-size="11" lengthAdjust="spacingAndGlyphs" text-decoration="underline" textLength="103" x="440.5" y="508.6611">long serialVersionUID</text><line style="stroke: #000000; stroke-width: 1.0;" x1="440.5" x2="543.5" y1="510.6611" y2="510.6611"/><rect fill="none" height="6" style="stroke: #C82930; stroke-width: 1.0;" width="6" x="428.5" y="516.4961"/><text fill="#000000" font-family="sans-serif" font-size="11" lengthAdjust="spacingAndGlyphs" textLength="149" x="440.5" y="522.4971">int frameSerializedDataVersion</text><line style="stroke: #A80036; stroke-width: 1.5;" x1="421.5" x2="744.5" y1="528.9141" y2="528.9141"/><ellipse cx="431.5" cy="541.332" fill="#84BE84" rx="3" ry="3" style="stroke: #038048; stroke-width: 1.0;"/><text fill="#000000" font-family="sans-serif" font-size="11" lengthAdjust="spacingAndGlyphs" textLength="56" x="440.5" y="544.333">void &lt;init&gt;()</text><ellipse cx="431.5" cy="555.168" fill="#84BE84" rx="3" ry="3" style="stroke: #038048; stroke-width: 1.0;"/><text fill="#000000" font-family="sans-serif" font-size="11" lengthAdjust="spacingAndGlyphs" textLength="209" x="440.5" y="558.1689">void &lt;init&gt;(java.awt.GraphicsConfiguration)</text><ellipse cx="431.5" cy="569.0039" fill="#84BE84" rx="3" ry="3" style="stroke: #038048; stroke-width: 1.0;"/><text fill="#000000" font-family="sans-serif" font-size="11" lengthAdjust="spacingAndGlyphs" textLength="130" x="440.5" y="572.0049">void &lt;init&gt;(java.lang.String)</text><ellipse cx="431.5" cy="582.8398" fill="#84BE84" rx="3" ry="3" style="stroke: #038048; stroke-width: 1.0;"/><text fill="#000000" font-family="sans-serif" font-size="11" lengthAdjust="spacingAndGlyphs" textLength="286" x="440.5" y="585.8408">void &lt;init&gt;(java.lang.String,java.awt.GraphicsConfiguration)</text><rect fill="#F24D5C" height="6" style="stroke: #C82930; stroke-width: 1.0;" width="6" x="428.5" y="593.6758"/><text fill="#000000" font-family="sans-serif" font-size="11" lengthAdjust="spacingAndGlyphs" textLength="274" x="440.5" y="599.6768">void init(java.lang.String,java.awt.GraphicsConfiguration)</text><rect fill="#F24D5C" height="6" style="stroke: #C82930; stroke-width: 1.0;" width="6" x="428.5" y="607.5117"/><text fill="#000000" font-family="sans-serif" font-size="11" lengthAdjust="spacingAndGlyphs" textLength="212" x="440.5" y="613.5127">java.lang.String constructComponentName()</text><ellipse cx="431.5" cy="624.3477" fill="#84BE84" rx="3" ry="3" style="stroke: #038048; stroke-width: 1.0;"/><text fill="#000000" font-family="sans-serif" font-size="11" lengthAdjust="spacingAndGlyphs" textLength="77" x="440.5" y="627.3486">void addNotify()</text><ellipse cx="431.5" cy="638.1836" fill="#84BE84" rx="3" ry="3" style="stroke: #038048; stroke-width: 1.0;"/><text fill="#000000" font-family="sans-serif" font-size="11" lengthAdjust="spacingAndGlyphs" textLength="119" x="440.5" y="641.1846">java.lang.String getTitle()</text><ellipse cx="431.5" cy="652.0195" fill="#84BE84" rx="3" ry="3" style="stroke: #038048; stroke-width: 1.0;"/><text fill="#000000" font-family="sans-serif" font-size="11" lengthAdjust="spacingAndGlyphs" textLength="139" x="440.5" y="655.0205">void setTitle(java.lang.String)</text><ellipse cx="431.5" cy="665.8555" fill="#84BE84" rx="3" ry="3" style="stroke: #038048; stroke-width: 1.0;"/><text fill="#000000" font-family="sans-serif" font-size="11" lengthAdjust="spacingAndGlyphs" textLength="147" x="440.5" y="668.8564">java.awt.Image getIconImage()</text><ellipse cx="431.5" cy="679.6914" fill="#84BE84" rx="3" ry="3" style="stroke: #038048; stroke-width: 1.0;"/><text fill="#000000" font-family="sans-serif" font-size="11" lengthAdjust="spacingAndGlyphs" textLength="167" x="440.5" y="682.6924">void setIconImage(java.awt.Image)</text><ellipse cx="431.5" cy="693.5273" fill="#84BE84" rx="3" ry="3" style="stroke: #038048; stroke-width: 1.0;"/><text fill="#000000" font-family="sans-serif" font-size="11" lengthAdjust="spacingAndGlyphs" textLength="157" x="440.5" y="696.5283">java.awt.MenuBar getMenuBar()</text><ellipse cx="431.5" cy="707.3633" fill="#84BE84" rx="3" ry="3" style="stroke: #038048; stroke-width: 1.0;"/><text fill="#000000" font-family="sans-serif" font-size="11" lengthAdjust="spacingAndGlyphs" textLength="177" x="440.5" y="710.3643">void setMenuBar(java.awt.MenuBar)</text><ellipse cx="431.5" cy="721.1992" fill="#84BE84" rx="3" ry="3" style="stroke: #038048; stroke-width: 1.0;"/><text fill="#000000" font-family="sans-serif" font-size="11" lengthAdjust="spacingAndGlyphs" textLength="104" x="440.5" y="724.2002">boolean isResizable()</text><ellipse cx="431.5" cy="735.0352" fill="#84BE84" rx="3" ry="3" style="stroke: #038048; stroke-width: 1.0;"/><text fill="#000000" font-family="sans-serif" font-size="11" lengthAdjust="spacingAndGlyphs" textLength="131" x="440.5" y="738.0361">void setResizable(boolean)</text><ellipse cx="431.5" cy="748.8711" fill="#84BE84" rx="3" ry="3" style="stroke: #038048; stroke-width: 1.0;"/><text fill="#000000" font-family="sans-serif" font-size="11" lengthAdjust="spacingAndGlyphs" textLength="82" x="440.5" y="751.8721">void setState(int)</text><ellipse cx="431.5" cy="762.707" fill="#84BE84" rx="3" ry="3" style="stroke: #038048; stroke-width: 1.0;"/><text fill="#000000" font-family="sans-serif" font-size="11" lengthAdjust="spacingAndGlyphs" textLength="127" x="440.5" y="765.708">void setExtendedState(int)</text><rect fill="#F24D5C" height="6" style="stroke: #C82930; stroke-width: 1.0;" width="6" x="428.5" y="773.543"/><text fill="#000000" font-family="sans-serif" font-size="11" lengthAdjust="spacingAndGlyphs" textLength="173" x="440.5" y="779.5439">boolean isFrameStateSupported(int)</text><ellipse cx="431.5" cy="790.3789" fill="#84BE84" rx="3" ry="3" style="stroke: #038048; stroke-width: 1.0;"/><text fill="#000000" font-family="sans-serif" font-size="11" lengthAdjust="spacingAndGlyphs" textLength="62" x="440.5" y="793.3799">int getState()</text><ellipse cx="431.5" cy="804.2148" fill="#84BE84" rx="3" ry="3" style="stroke: #038048; stroke-width: 1.0;"/><text fill="#000000" font-family="sans-serif" font-size="11" lengthAdjust="spacingAndGlyphs" textLength="107" x="440.5" y="807.2158">int getExtendedState()</text><ellipse cx="431.5" cy="818.0508" fill="#84BE84" rx="3" ry="3" style="stroke: #038048; stroke-width: 1.0;"/><text fill="#000000" font-family="sans-serif" font-size="11" lengthAdjust="spacingAndGlyphs" textLength="226" x="440.5" y="821.0518">void setMaximizedBounds(java.awt.Rectangle)</text><ellipse cx="431.5" cy="831.8867" fill="#84BE84" rx="3" ry="3" style="stroke: #038048; stroke-width: 1.0;"/><text fill="#000000" font-family="sans-serif" font-size="11" lengthAdjust="spacingAndGlyphs" textLength="206" x="440.5" y="834.8877">java.awt.Rectangle getMaximizedBounds()</text><ellipse cx="431.5" cy="845.7227" fill="#84BE84" rx="3" ry="3" style="stroke: #038048; stroke-width: 1.0;"/><text fill="#000000" font-family="sans-serif" font-size="11" lengthAdjust="spacingAndGlyphs" textLength="146" x="440.5" y="848.7236">void setUndecorated(boolean)</text><ellipse cx="431.5" cy="859.5586" fill="#84BE84" rx="3" ry="3" style="stroke: #038048; stroke-width: 1.0;"/><text fill="#000000" font-family="sans-serif" font-size="11" lengthAdjust="spacingAndGlyphs" textLength="119" x="440.5" y="862.5596">boolean isUndecorated()</text><ellipse cx="431.5" cy="873.3945" fill="#84BE84" rx="3" ry="3" style="stroke: #038048; stroke-width: 1.0;"/><text fill="#000000" font-family="sans-serif" font-size="11" lengthAdjust="spacingAndGlyphs" textLength="104" x="440.5" y="876.3955">void setOpacity(float)</text><ellipse cx="431.5" cy="887.2305" fill="#84BE84" rx="3" ry="3" style="stroke: #038048; stroke-width: 1.0;"/><text fill="#000000" font-family="sans-serif" font-size="11" lengthAdjust="spacingAndGlyphs" textLength="153" x="440.5" y="890.2314">void setShape(java.awt.Shape)</text><ellipse cx="431.5" cy="901.0664" fill="#84BE84" rx="3" ry="3" style="stroke: #038048; stroke-width: 1.0;"/><text fill="#000000" font-family="sans-serif" font-size="11" lengthAdjust="spacingAndGlyphs" textLength="174" x="440.5" y="904.0674">void setBackground(java.awt.Color)</text><ellipse cx="431.5" cy="914.9023" fill="#84BE84" rx="3" ry="3" style="stroke: #038048; stroke-width: 1.0;"/><text fill="#000000" font-family="sans-serif" font-size="11" lengthAdjust="spacingAndGlyphs" textLength="192" x="440.5" y="917.9033">void remove(java.awt.MenuComponent)</text><ellipse cx="431.5" cy="928.7383" fill="#84BE84" rx="3" ry="3" style="stroke: #038048; stroke-width: 1.0;"/><text fill="#000000" font-family="sans-serif" font-size="11" lengthAdjust="spacingAndGlyphs" textLength="95" x="440.5" y="931.7393">void removeNotify()</text><rect fill="#F24D5C" height="6" style="stroke: #C82930; stroke-width: 1.0;" width="6" x="428.5" y="939.5742"/><text fill="#000000" font-family="sans-serif" font-size="11" lengthAdjust="spacingAndGlyphs" textLength="259" x="440.5" y="945.5752">void postProcessKeyEvent(java.awt.event.KeyEvent)</text><polygon fill="#FFFF44" points="431.5,951.4102,435.5,955.4102,431.5,959.4102,427.5,955.4102" style="stroke: #B38D22; stroke-width: 1.0;"/><text fill="#000000" font-family="sans-serif" font-size="11" lengthAdjust="spacingAndGlyphs" textLength="143" x="440.5" y="959.4111">java.lang.String paramString()</text><ellipse cx="431.5" cy="970.2461" fill="#84BE84" rx="3" ry="3" style="stroke: #038048; stroke-width: 1.0;"/><text fill="#000000" font-family="sans-serif" font-size="11" lengthAdjust="spacingAndGlyphs" textLength="90" x="440.5" y="973.2471">void setCursor(int)</text><ellipse cx="431.5" cy="984.082" fill="#84BE84" rx="3" ry="3" style="stroke: #038048; stroke-width: 1.0;"/><text fill="#000000" font-family="sans-serif" font-size="11" lengthAdjust="spacingAndGlyphs" textLength="94" x="440.5" y="987.083">int getCursorType()</text><ellipse cx="431.5" cy="997.918" fill="#84BE84" rx="3" ry="3" style="stroke: #038048; stroke-width: 1.0;"/><text fill="#000000" font-family="sans-serif" font-size="11" lengthAdjust="spacingAndGlyphs" text-decoration="underline" textLength="143" x="440.5" y="1000.9189">java.awt.Frame[] getFrames()</text><line style="stroke: #000000; stroke-width: 1.0;" x1="440.5" x2="583.5" y1="1002.9189" y2="1002.9189"/><rect fill="#F24D5C" height="6" style="stroke: #C82930; stroke-width: 1.0;" width="6" x="428.5" y="1008.7539"/><text fill="#000000" font-family="sans-serif" font-size="11" lengthAdjust="spacingAndGlyphs" textLength="218" x="440.5" y="1014.7549">void writeObject(java.io.ObjectOutputStream)</text><rect fill="#F24D5C" height="6" style="stroke: #C82930; stroke-width: 1.0;" width="6" x="428.5" y="1022.5898"/><text fill="#000000" font-family="sans-serif" font-size="11" lengthAdjust="spacingAndGlyphs" textLength="206" x="440.5" y="1028.5908">void readObject(java.io.ObjectInputStream)</text><rect fill="#F24D5C" height="6" style="stroke: #C82930; stroke-width: 1.0;" width="6" x="428.5" y="1036.4258"/><text fill="#000000" font-family="sans-serif" font-size="11" lengthAdjust="spacingAndGlyphs" text-decoration="underline" textLength="59" x="440.5" y="1042.4268">void initIDs()</text><line style="stroke: #000000; stroke-width: 1.0;" x1="440.5" x2="499.5" y1="1044.4268" y2="1044.4268"/><ellipse cx="431.5" cy="1053.2617" fill="#84BE84" rx="3" ry="3" style="stroke: #038048; stroke-width: 1.0;"/><text fill="#000000" font-family="sans-serif" font-size="11" lengthAdjust="spacingAndGlyphs" textLength="299" x="440.5" y="1056.2627">javax.accessibility.AccessibleContext getAccessibleContext()</text><rect fill="#F24D5C" height="6" style="stroke: #C82930; stroke-width: 1.0;" width="6" x="428.5" y="1064.0977"/><text fill="#000000" font-family="sans-serif" font-size="11" lengthAdjust="spacingAndGlyphs" text-decoration="underline" textLength="171" x="440.5" y="1070.0986">int access$002(java.awt.Frame,int)</text><line style="stroke: #000000; stroke-width: 1.0;" x1="440.5" x2="611.5" y1="1072.0986" y2="1072.0986"/><rect fill="#F24D5C" height="6" style="stroke: #C82930; stroke-width: 1.0;" width="6" x="428.5" y="1077.9336"/><text fill="#000000" font-family="sans-serif" font-size="11" lengthAdjust="spacingAndGlyphs" text-decoration="underline" textLength="157" x="440.5" y="1083.9346">int access$000(java.awt.Frame)</text><line style="stroke: #000000; stroke-width: 1.0;" x1="440.5" x2="597.5" y1="1085.9346" y2="1085.9346"/><rect fill="#F24D5C" height="6" style="stroke: #C82930; stroke-width: 1.0;" width="6" x="428.5" y="1091.7695"/><text fill="#000000" font-family="sans-serif" font-size="11" lengthAdjust="spacingAndGlyphs" text-decoration="underline" textLength="64" x="440.5" y="1097.7705">void &lt;clinit&gt;()</text><line style="stroke: #000000; stroke-width: 1.0;" x1="440.5" x2="504.5" y1="1099.7705" y2="1099.7705"/></g></svg>