<?xml version="1.0" encoding="UTF-8" standalone="no"?><svg xmlns="http://www.w3.org/2000/svg" xmlns:xlink="http://www.w3.org/1999/xlink" contentScriptType="application/ecmascript" contentStyleType="text/css" height="1992px" preserveAspectRatio="none" style="width:1730px;height:1992px;" version="1.1" viewBox="0 0 1730 1992" width="1730px" zoomAndPan="magnify"><defs><filter height="300%" id="fnck8ns3r8kvu" width="300%" x="-1" y="-1"><feGaussianBlur result="blurOut" stdDeviation="2.0"/><feColorMatrix in="blurOut" result="blurOut2" type="matrix" values="0 0 0 0 0 0 0 0 0 0 0 0 0 0 0 0 0 0 .4 0"/><feOffset dx="4.0" dy="4.0" in="blurOut2" result="blurOut3"/><feBlend in="SourceGraphic" in2="blurOut3" mode="normal"/></filter></defs><g><!--cluster problem.client--><polygon fill="#FFFFFF" filter="url(#fnck8ns3r8kvu)" points="369,24,476,24,483,47.6094,732,47.6094,732,534,369,534,369,24" style="stroke: #000000; stroke-width: 1.5;"/><line style="stroke: #000000; stroke-width: 1.5;" x1="369" x2="483" y1="47.6094" y2="47.6094"/><text fill="#000000" font-family="sans-serif" font-size="14" font-weight="bold" lengthAdjust="spacingAndGlyphs" textLength="101" x="373" y="40.5332">problem.client</text><!--cluster problem.lib--><polygon fill="#FFFFFF" filter="url(#fnck8ns3r8kvu)" points="917,174,1002,174,1009,197.6094,1265,197.6094,1265,527.5,917,527.5,917,174" style="stroke: #000000; stroke-width: 1.5;"/><line style="stroke: #000000; stroke-width: 1.5;" x1="917" x2="1009" y1="197.6094" y2="197.6094"/><text fill="#000000" font-family="sans-serif" font-size="14" font-weight="bold" lengthAdjust="spacingAndGlyphs" textLength="79" x="921" y="190.5332">problem.lib</text><!--cluster java.lang--><polygon fill="#FFFFFF" filter="url(#fnck8ns3r8kvu)" points="1105,558,1174,558,1181,581.6094,1708,581.6094,1708,1889,1105,1889,1105,558" style="stroke: #000000; stroke-width: 1.5;"/><line style="stroke: #000000; stroke-width: 1.5;" x1="1105" x2="1181" y1="581.6094" y2="581.6094"/><text fill="#000000" font-family="sans-serif" font-size="14" font-weight="bold" lengthAdjust="spacingAndGlyphs" textLength="63" x="1109" y="574.5332">java.lang</text><!--cluster java.util--><polygon fill="#FFFFFF" filter="url(#fnck8ns3r8kvu)" points="22,1159.5,83,1159.5,90,1183.1094,541,1183.1094,541,1287.5,22,1287.5,22,1159.5" style="stroke: #000000; stroke-width: 1.5;"/><line style="stroke: #000000; stroke-width: 1.5;" x1="22" x2="90" y1="1183.1094" y2="1183.1094"/><text fill="#000000" font-family="sans-serif" font-size="14" font-weight="bold" lengthAdjust="spacingAndGlyphs" textLength="55" x="26" y="1176.0332">java.util</text><!--cluster java.io--><polygon fill="#FFFFFF" filter="url(#fnck8ns3r8kvu)" points="565,1173.5,617,1173.5,624,1197.1094,1031,1197.1094,1031,1273.5,565,1273.5,565,1173.5" style="stroke: #000000; stroke-width: 1.5;"/><line style="stroke: #000000; stroke-width: 1.5;" x1="565" x2="624" y1="1197.1094" y2="1197.1094"/><text fill="#000000" font-family="sans-serif" font-size="14" font-weight="bold" lengthAdjust="spacingAndGlyphs" textLength="46" x="569" y="1190.0332">java.io</text><!--class problem.client.App--><rect fill="#FEFECE" filter="url(#fnck8ns3r8kvu)" height="75.6719" id="problem.client.App" style="stroke: #A80036; stroke-width: 1.5;" width="159" x="556.5" y="67"/><ellipse cx="621.25" cy="83" fill="#ADD1B2" rx="11" ry="11" style="stroke: #A80036; stroke-width: 1.0;"/><path d="M624.0156,78.875 Q624.1719,78.6563 624.3594,78.5469 Q624.5469,78.4375 624.7656,78.4375 Q625.1406,78.4375 625.375,78.6953 Q625.6094,78.9531 625.6094,79.5625 L625.6094,81.0156 Q625.6094,81.625 625.375,81.8906 Q625.1406,82.1563 624.7656,82.1563 Q624.4219,82.1563 624.2188,81.9531 Q624.0156,81.7656 623.9063,81.25 Q623.8594,80.8906 623.6719,80.7031 Q623.3438,80.3281 622.7344,80.1094 Q622.125,79.8906 621.5,79.8906 Q620.7344,79.8906 620.1016,80.2188 Q619.4688,80.5469 618.9766,81.2969 Q618.4844,82.0469 618.4844,83.0781 L618.4844,84.1719 Q618.4844,85.4063 619.375,86.2266 Q620.2656,87.0469 621.8594,87.0469 Q622.7969,87.0469 623.4531,86.7969 Q623.8438,86.6406 624.2656,86.2031 Q624.5313,85.9375 624.6797,85.8594 Q624.8281,85.7813 625.0313,85.7813 Q625.3594,85.7813 625.6172,86.0391 Q625.875,86.2969 625.875,86.6406 Q625.875,86.9844 625.5313,87.3906 Q625.0313,87.9688 624.2344,88.2969 Q623.1563,88.75 621.8594,88.75 Q620.3438,88.75 619.1406,88.125 Q618.1563,87.625 617.4688,86.5547 Q616.7813,85.4844 616.7813,84.2031 L616.7813,83.0469 Q616.7813,81.7188 617.3984,80.5703 Q618.0156,79.4219 619.1094,78.8047 Q620.2031,78.1875 621.4375,78.1875 Q622.1719,78.1875 622.8203,78.3516 Q623.4688,78.5156 624.0156,78.875 Z "/><text fill="#000000" font-family="sans-serif" font-size="12" lengthAdjust="spacingAndGlyphs" textLength="21" x="641.75" y="87.9102">App</text><line style="stroke: #A80036; stroke-width: 1.5;" x1="557.5" x2="714.5" y1="99" y2="99"/><line style="stroke: #A80036; stroke-width: 1.5;" x1="557.5" x2="714.5" y1="107" y2="107"/><ellipse cx="567.5" cy="119.418" fill="#84BE84" rx="3" ry="3" style="stroke: #038048; stroke-width: 1.0;"/><text fill="#000000" font-family="sans-serif" font-size="11" lengthAdjust="spacingAndGlyphs" textLength="56" x="576.5" y="122.4189">void &lt;init&gt;()</text><ellipse cx="567.5" cy="133.2539" fill="#84BE84" rx="3" ry="3" style="stroke: #038048; stroke-width: 1.0;"/><text fill="#000000" font-family="sans-serif" font-size="11" lengthAdjust="spacingAndGlyphs" text-decoration="underline" textLength="133" x="576.5" y="136.2549">void main(java.lang.String[])</text><line style="stroke: #000000; stroke-width: 1.0;" x1="576.5" x2="709.5" y1="138.2549" y2="138.2549"/><!--class problem.client.EnumerationAdapter--><rect fill="#FEFECE" filter="url(#fnck8ns3r8kvu)" height="103.3438" id="problem.client.EnumerationAdapter" style="stroke: #A80036; stroke-width: 1.5;" width="172" x="470" y="415"/><ellipse cx="497.15" cy="431" fill="#ADD1B2" rx="11" ry="11" style="stroke: #A80036; stroke-width: 1.0;"/><path d="M499.9156,426.875 Q500.0719,426.6563 500.2594,426.5469 Q500.4469,426.4375 500.6656,426.4375 Q501.0406,426.4375 501.275,426.6953 Q501.5094,426.9531 501.5094,427.5625 L501.5094,429.0156 Q501.5094,429.625 501.275,429.8906 Q501.0406,430.1563 500.6656,430.1563 Q500.3219,430.1563 500.1188,429.9531 Q499.9156,429.7656 499.8063,429.25 Q499.7594,428.8906 499.5719,428.7031 Q499.2438,428.3281 498.6344,428.1094 Q498.025,427.8906 497.4,427.8906 Q496.6344,427.8906 496.0016,428.2188 Q495.3688,428.5469 494.8766,429.2969 Q494.3844,430.0469 494.3844,431.0781 L494.3844,432.1719 Q494.3844,433.4063 495.275,434.2266 Q496.1656,435.0469 497.7594,435.0469 Q498.6969,435.0469 499.3531,434.7969 Q499.7438,434.6406 500.1656,434.2031 Q500.4313,433.9375 500.5797,433.8594 Q500.7281,433.7813 500.9313,433.7813 Q501.2594,433.7813 501.5172,434.0391 Q501.775,434.2969 501.775,434.6406 Q501.775,434.9844 501.4313,435.3906 Q500.9313,435.9688 500.1344,436.2969 Q499.0563,436.75 497.7594,436.75 Q496.2438,436.75 495.0406,436.125 Q494.0563,435.625 493.3688,434.5547 Q492.6813,433.4844 492.6813,432.2031 L492.6813,431.0469 Q492.6813,429.7188 493.2984,428.5703 Q493.9156,427.4219 495.0094,426.8047 Q496.1031,426.1875 497.3375,426.1875 Q498.0719,426.1875 498.7203,426.3516 Q499.3688,426.5156 499.9156,426.875 Z "/><text fill="#000000" font-family="sans-serif" font-size="12" lengthAdjust="spacingAndGlyphs" textLength="113" x="513.85" y="435.9102">EnumerationAdapter</text><line style="stroke: #A80036; stroke-width: 1.5;" x1="471" x2="641" y1="447" y2="447"/><rect fill="none" height="6" style="stroke: #C82930; stroke-width: 1.0;" width="6" x="478" y="456.418"/><text fill="#000000" font-family="sans-serif" font-size="11" lengthAdjust="spacingAndGlyphs" textLength="81" x="490" y="462.4189">java.util.Iterator it</text><line style="stroke: #A80036; stroke-width: 1.5;" x1="471" x2="641" y1="468.8359" y2="468.8359"/><ellipse cx="481" cy="481.2539" fill="#84BE84" rx="3" ry="3" style="stroke: #038048; stroke-width: 1.0;"/><text fill="#000000" font-family="sans-serif" font-size="11" lengthAdjust="spacingAndGlyphs" textLength="129" x="490" y="484.2549">void &lt;init&gt;(java.util.Iterator)</text><ellipse cx="481" cy="495.0898" fill="#84BE84" rx="3" ry="3" style="stroke: #038048; stroke-width: 1.0;"/><text fill="#000000" font-family="sans-serif" font-size="11" lengthAdjust="spacingAndGlyphs" textLength="134" x="490" y="498.0908">boolean hasMoreElements()</text><ellipse cx="481" cy="508.9258" fill="#84BE84" rx="3" ry="3" style="stroke: #038048; stroke-width: 1.0;"/><text fill="#000000" font-family="sans-serif" font-size="11" lengthAdjust="spacingAndGlyphs" textLength="146" x="490" y="511.9268">java.lang.Object nextElement()</text><!--class problem.client.EnumerationMaker--><rect fill="#FEFECE" filter="url(#fnck8ns3r8kvu)" height="75.6719" id="problem.client.EnumerationMaker" style="stroke: #A80036; stroke-width: 1.5;" width="260" x="405" y="244.5"/><ellipse cx="478.75" cy="260.5" fill="#ADD1B2" rx="11" ry="11" style="stroke: #A80036; stroke-width: 1.0;"/><path d="M481.5156,256.375 Q481.6719,256.1563 481.8594,256.0469 Q482.0469,255.9375 482.2656,255.9375 Q482.6406,255.9375 482.875,256.1953 Q483.1094,256.4531 483.1094,257.0625 L483.1094,258.5156 Q483.1094,259.125 482.875,259.3906 Q482.6406,259.6563 482.2656,259.6563 Q481.9219,259.6563 481.7188,259.4531 Q481.5156,259.2656 481.4063,258.75 Q481.3594,258.3906 481.1719,258.2031 Q480.8438,257.8281 480.2344,257.6094 Q479.625,257.3906 479,257.3906 Q478.2344,257.3906 477.6016,257.7188 Q476.9688,258.0469 476.4766,258.7969 Q475.9844,259.5469 475.9844,260.5781 L475.9844,261.6719 Q475.9844,262.9063 476.875,263.7266 Q477.7656,264.5469 479.3594,264.5469 Q480.2969,264.5469 480.9531,264.2969 Q481.3438,264.1406 481.7656,263.7031 Q482.0313,263.4375 482.1797,263.3594 Q482.3281,263.2813 482.5313,263.2813 Q482.8594,263.2813 483.1172,263.5391 Q483.375,263.7969 483.375,264.1406 Q483.375,264.4844 483.0313,264.8906 Q482.5313,265.4688 481.7344,265.7969 Q480.6563,266.25 479.3594,266.25 Q477.8438,266.25 476.6406,265.625 Q475.6563,265.125 474.9688,264.0547 Q474.2813,262.9844 474.2813,261.7031 L474.2813,260.5469 Q474.2813,259.2188 474.8984,258.0703 Q475.5156,256.9219 476.6094,256.3047 Q477.7031,255.6875 478.9375,255.6875 Q479.6719,255.6875 480.3203,255.8516 Q480.9688,256.0156 481.5156,256.375 Z "/><text fill="#000000" font-family="sans-serif" font-size="12" lengthAdjust="spacingAndGlyphs" textLength="104" x="499.25" y="265.4102">EnumerationMaker</text><line style="stroke: #A80036; stroke-width: 1.5;" x1="406" x2="664" y1="276.5" y2="276.5"/><line style="stroke: #A80036; stroke-width: 1.5;" x1="406" x2="664" y1="284.5" y2="284.5"/><ellipse cx="416" cy="296.918" fill="#84BE84" rx="3" ry="3" style="stroke: #038048; stroke-width: 1.0;"/><text fill="#000000" font-family="sans-serif" font-size="11" lengthAdjust="spacingAndGlyphs" textLength="56" x="425" y="299.9189">void &lt;init&gt;()</text><ellipse cx="416" cy="310.7539" fill="#84BE84" rx="3" ry="3" style="stroke: #038048; stroke-width: 1.0;"/><text fill="#000000" font-family="sans-serif" font-size="11" lengthAdjust="spacingAndGlyphs" textLength="234" x="425" y="313.7549">java.util.Enumeration make(java.util.ArrayList&lt;*&gt;)</text><!--class problem.client.EnumerationTests--><rect fill="#FEFECE" filter="url(#fnck8ns3r8kvu)" height="89.5078" id="problem.client.EnumerationTests" style="stroke: #A80036; stroke-width: 1.5;" width="136" x="385" y="60"/><ellipse cx="400.9" cy="76" fill="#ADD1B2" rx="11" ry="11" style="stroke: #A80036; stroke-width: 1.0;"/><path d="M403.6656,71.875 Q403.8219,71.6563 404.0094,71.5469 Q404.1969,71.4375 404.4156,71.4375 Q404.7906,71.4375 405.025,71.6953 Q405.2594,71.9531 405.2594,72.5625 L405.2594,74.0156 Q405.2594,74.625 405.025,74.8906 Q404.7906,75.1563 404.4156,75.1563 Q404.0719,75.1563 403.8688,74.9531 Q403.6656,74.7656 403.5563,74.25 Q403.5094,73.8906 403.3219,73.7031 Q402.9938,73.3281 402.3844,73.1094 Q401.775,72.8906 401.15,72.8906 Q400.3844,72.8906 399.7516,73.2188 Q399.1188,73.5469 398.6266,74.2969 Q398.1344,75.0469 398.1344,76.0781 L398.1344,77.1719 Q398.1344,78.4063 399.025,79.2266 Q399.9156,80.0469 401.5094,80.0469 Q402.4469,80.0469 403.1031,79.7969 Q403.4938,79.6406 403.9156,79.2031 Q404.1813,78.9375 404.3297,78.8594 Q404.4781,78.7813 404.6813,78.7813 Q405.0094,78.7813 405.2672,79.0391 Q405.525,79.2969 405.525,79.6406 Q405.525,79.9844 405.1813,80.3906 Q404.6813,80.9688 403.8844,81.2969 Q402.8063,81.75 401.5094,81.75 Q399.9938,81.75 398.7906,81.125 Q397.8063,80.625 397.1188,79.5547 Q396.4313,78.4844 396.4313,77.2031 L396.4313,76.0469 Q396.4313,74.7188 397.0484,73.5703 Q397.6656,72.4219 398.7594,71.8047 Q399.8531,71.1875 401.0875,71.1875 Q401.8219,71.1875 402.4703,71.3516 Q403.1188,71.5156 403.6656,71.875 Z "/><text fill="#000000" font-family="sans-serif" font-size="12" lengthAdjust="spacingAndGlyphs" textLength="102" x="415.1" y="80.9102">EnumerationTests</text><line style="stroke: #A80036; stroke-width: 1.5;" x1="386" x2="520" y1="92" y2="92"/><line style="stroke: #A80036; stroke-width: 1.5;" x1="386" x2="520" y1="100" y2="100"/><ellipse cx="396" cy="112.418" fill="#84BE84" rx="3" ry="3" style="stroke: #038048; stroke-width: 1.0;"/><text fill="#000000" font-family="sans-serif" font-size="11" lengthAdjust="spacingAndGlyphs" textLength="56" x="405" y="115.4189">void &lt;init&gt;()</text><ellipse cx="396" cy="126.2539" fill="#84BE84" rx="3" ry="3" style="stroke: #038048; stroke-width: 1.0;"/><text fill="#000000" font-family="sans-serif" font-size="11" lengthAdjust="spacingAndGlyphs" textLength="110" x="405" y="129.2549">void testMakerReturn()</text><ellipse cx="396" cy="140.0898" fill="#84BE84" rx="3" ry="3" style="stroke: #038048; stroke-width: 1.0;"/><text fill="#000000" font-family="sans-serif" font-size="11" lengthAdjust="spacingAndGlyphs" textLength="108" x="405" y="143.0908">void testEnumeration()</text><!--class problem.lib.LinearTransformer--><rect fill="#FEFECE" filter="url(#fnck8ns3r8kvu)" height="89.5078" id="problem.lib.LinearTransformer" style="stroke: #A80036; stroke-width: 1.5;" width="204" x="961" y="421.5"/><ellipse cx="1007.25" cy="437.5" fill="#ADD1B2" rx="11" ry="11" style="stroke: #A80036; stroke-width: 1.0;"/><path d="M1010.0156,433.375 Q1010.1719,433.1563 1010.3594,433.0469 Q1010.5469,432.9375 1010.7656,432.9375 Q1011.1406,432.9375 1011.375,433.1953 Q1011.6094,433.4531 1011.6094,434.0625 L1011.6094,435.5156 Q1011.6094,436.125 1011.375,436.3906 Q1011.1406,436.6563 1010.7656,436.6563 Q1010.4219,436.6563 1010.2188,436.4531 Q1010.0156,436.2656 1009.9063,435.75 Q1009.8594,435.3906 1009.6719,435.2031 Q1009.3438,434.8281 1008.7344,434.6094 Q1008.125,434.3906 1007.5,434.3906 Q1006.7344,434.3906 1006.1016,434.7188 Q1005.4688,435.0469 1004.9766,435.7969 Q1004.4844,436.5469 1004.4844,437.5781 L1004.4844,438.6719 Q1004.4844,439.9063 1005.375,440.7266 Q1006.2656,441.5469 1007.8594,441.5469 Q1008.7969,441.5469 1009.4531,441.2969 Q1009.8438,441.1406 1010.2656,440.7031 Q1010.5313,440.4375 1010.6797,440.3594 Q1010.8281,440.2813 1011.0313,440.2813 Q1011.3594,440.2813 1011.6172,440.5391 Q1011.875,440.7969 1011.875,441.1406 Q1011.875,441.4844 1011.5313,441.8906 Q1011.0313,442.4688 1010.2344,442.7969 Q1009.1563,443.25 1007.8594,443.25 Q1006.3438,443.25 1005.1406,442.625 Q1004.1563,442.125 1003.4688,441.0547 Q1002.7813,439.9844 1002.7813,438.7031 L1002.7813,437.5469 Q1002.7813,436.2188 1003.3984,435.0703 Q1004.0156,433.9219 1005.1094,433.3047 Q1006.2031,432.6875 1007.4375,432.6875 Q1008.1719,432.6875 1008.8203,432.8516 Q1009.4688,433.0156 1010.0156,433.375 Z "/><text fill="#000000" font-family="sans-serif" font-size="12" lengthAdjust="spacingAndGlyphs" textLength="103" x="1027.75" y="442.4102">LinearTransformer</text><line style="stroke: #A80036; stroke-width: 1.5;" x1="962" x2="1164" y1="453.5" y2="453.5"/><rect fill="none" height="6" style="stroke: #C82930; stroke-width: 1.0;" width="6" x="969" y="462.918"/><text fill="#000000" font-family="sans-serif" font-size="11" lengthAdjust="spacingAndGlyphs" textLength="147" x="981" y="468.9189">java.util.Enumeration enumTion</text><line style="stroke: #A80036; stroke-width: 1.5;" x1="962" x2="1164" y1="475.3359" y2="475.3359"/><ellipse cx="972" cy="487.7539" fill="#84BE84" rx="3" ry="3" style="stroke: #038048; stroke-width: 1.0;"/><text fill="#000000" font-family="sans-serif" font-size="11" lengthAdjust="spacingAndGlyphs" textLength="154" x="981" y="490.7549">void &lt;init&gt;(java.util.Enumeration)</text><ellipse cx="972" cy="501.5898" fill="#84BE84" rx="3" ry="3" style="stroke: #038048; stroke-width: 1.0;"/><text fill="#000000" font-family="sans-serif" font-size="11" lengthAdjust="spacingAndGlyphs" textLength="178" x="981" y="504.5908">void transform(java.io.OutputStream)</text><!--class problem.lib.LinearTransformerTest--><rect fill="#FEFECE" filter="url(#fnck8ns3r8kvu)" height="144.8516" id="problem.lib.LinearTransformerTest" style="stroke: #A80036; stroke-width: 1.5;" width="316" x="933" y="210"/><ellipse cx="1023.25" cy="226" fill="#ADD1B2" rx="11" ry="11" style="stroke: #A80036; stroke-width: 1.0;"/><path d="M1026.0156,221.875 Q1026.1719,221.6563 1026.3594,221.5469 Q1026.5469,221.4375 1026.7656,221.4375 Q1027.1406,221.4375 1027.375,221.6953 Q1027.6094,221.9531 1027.6094,222.5625 L1027.6094,224.0156 Q1027.6094,224.625 1027.375,224.8906 Q1027.1406,225.1563 1026.7656,225.1563 Q1026.4219,225.1563 1026.2188,224.9531 Q1026.0156,224.7656 1025.9063,224.25 Q1025.8594,223.8906 1025.6719,223.7031 Q1025.3438,223.3281 1024.7344,223.1094 Q1024.125,222.8906 1023.5,222.8906 Q1022.7344,222.8906 1022.1016,223.2188 Q1021.4688,223.5469 1020.9766,224.2969 Q1020.4844,225.0469 1020.4844,226.0781 L1020.4844,227.1719 Q1020.4844,228.4063 1021.375,229.2266 Q1022.2656,230.0469 1023.8594,230.0469 Q1024.7969,230.0469 1025.4531,229.7969 Q1025.8438,229.6406 1026.2656,229.2031 Q1026.5313,228.9375 1026.6797,228.8594 Q1026.8281,228.7813 1027.0313,228.7813 Q1027.3594,228.7813 1027.6172,229.0391 Q1027.875,229.2969 1027.875,229.6406 Q1027.875,229.9844 1027.5313,230.3906 Q1027.0313,230.9688 1026.2344,231.2969 Q1025.1563,231.75 1023.8594,231.75 Q1022.3438,231.75 1021.1406,231.125 Q1020.1563,230.625 1019.4688,229.5547 Q1018.7813,228.4844 1018.7813,227.2031 L1018.7813,226.0469 Q1018.7813,224.7188 1019.3984,223.5703 Q1020.0156,222.4219 1021.1094,221.8047 Q1022.2031,221.1875 1023.4375,221.1875 Q1024.1719,221.1875 1024.8203,221.3516 Q1025.4688,221.5156 1026.0156,221.875 Z "/><text fill="#000000" font-family="sans-serif" font-size="12" lengthAdjust="spacingAndGlyphs" textLength="127" x="1043.75" y="230.9102">LinearTransformerTest</text><line style="stroke: #A80036; stroke-width: 1.5;" x1="934" x2="1248" y1="242" y2="242"/><rect fill="none" height="6" style="stroke: #C82930; stroke-width: 1.0;" width="6" x="941" y="251.418"/><text fill="#000000" font-family="sans-serif" font-size="11" lengthAdjust="spacingAndGlyphs" textLength="290" x="953" y="257.4189">problem.lib.LinearTransformer&lt;java.lang.String&gt; transformer</text><rect fill="none" height="6" style="stroke: #C82930; stroke-width: 1.0;" width="6" x="941" y="265.2539"/><text fill="#000000" font-family="sans-serif" font-size="11" lengthAdjust="spacingAndGlyphs" textLength="122" x="953" y="271.2549">java.lang.String expected</text><rect fill="none" height="6" style="stroke: #C82930; stroke-width: 1.0;" width="6" x="941" y="279.0898"/><text fill="#000000" font-family="sans-serif" font-size="11" lengthAdjust="spacingAndGlyphs" textLength="34" x="953" y="285.0908">int size</text><line style="stroke: #A80036; stroke-width: 1.5;" x1="934" x2="1248" y1="291.5078" y2="291.5078"/><ellipse cx="944" cy="303.9258" fill="#84BE84" rx="3" ry="3" style="stroke: #038048; stroke-width: 1.0;"/><text fill="#000000" font-family="sans-serif" font-size="11" lengthAdjust="spacingAndGlyphs" textLength="56" x="953" y="306.9268">void &lt;init&gt;()</text><ellipse cx="944" cy="317.7617" fill="#84BE84" rx="3" ry="3" style="stroke: #038048; stroke-width: 1.0;"/><text fill="#000000" font-family="sans-serif" font-size="11" lengthAdjust="spacingAndGlyphs" textLength="59" x="953" y="320.7627">void setUp()</text><ellipse cx="944" cy="331.5977" fill="#84BE84" rx="3" ry="3" style="stroke: #038048; stroke-width: 1.0;"/><text fill="#000000" font-family="sans-serif" font-size="11" lengthAdjust="spacingAndGlyphs" textLength="79" x="953" y="334.5986">void tearDown()</text><ellipse cx="944" cy="345.4336" fill="#84BE84" rx="3" ry="3" style="stroke: #038048; stroke-width: 1.0;"/><text fill="#000000" font-family="sans-serif" font-size="11" lengthAdjust="spacingAndGlyphs" textLength="99" x="953" y="348.4346">void testTransform()</text><!--class java.lang.Object--><rect fill="#FEFECE" filter="url(#fnck8ns3r8kvu)" height="1279.3984" id="java.lang.Object" style="stroke: #A80036; stroke-width: 1.5;" width="184" x="1121" y="594"/><ellipse cx="1191.25" cy="610" fill="#ADD1B2" rx="11" ry="11" style="stroke: #A80036; stroke-width: 1.0;"/><path d="M1194.0156,605.875 Q1194.1719,605.6563 1194.3594,605.5469 Q1194.5469,605.4375 1194.7656,605.4375 Q1195.1406,605.4375 1195.375,605.6953 Q1195.6094,605.9531 1195.6094,606.5625 L1195.6094,608.0156 Q1195.6094,608.625 1195.375,608.8906 Q1195.1406,609.1563 1194.7656,609.1563 Q1194.4219,609.1563 1194.2188,608.9531 Q1194.0156,608.7656 1193.9063,608.25 Q1193.8594,607.8906 1193.6719,607.7031 Q1193.3438,607.3281 1192.7344,607.1094 Q1192.125,606.8906 1191.5,606.8906 Q1190.7344,606.8906 1190.1016,607.2188 Q1189.4688,607.5469 1188.9766,608.2969 Q1188.4844,609.0469 1188.4844,610.0781 L1188.4844,611.1719 Q1188.4844,612.4063 1189.375,613.2266 Q1190.2656,614.0469 1191.8594,614.0469 Q1192.7969,614.0469 1193.4531,613.7969 Q1193.8438,613.6406 1194.2656,613.2031 Q1194.5313,612.9375 1194.6797,612.8594 Q1194.8281,612.7813 1195.0313,612.7813 Q1195.3594,612.7813 1195.6172,613.0391 Q1195.875,613.2969 1195.875,613.6406 Q1195.875,613.9844 1195.5313,614.3906 Q1195.0313,614.9688 1194.2344,615.2969 Q1193.1563,615.75 1191.8594,615.75 Q1190.3438,615.75 1189.1406,615.125 Q1188.1563,614.625 1187.4688,613.5547 Q1186.7813,612.4844 1186.7813,611.2031 L1186.7813,610.0469 Q1186.7813,608.7188 1187.3984,607.5703 Q1188.0156,606.4219 1189.1094,605.8047 Q1190.2031,605.1875 1191.4375,605.1875 Q1192.1719,605.1875 1192.8203,605.3516 Q1193.4688,605.5156 1194.0156,605.875 Z "/><text fill="#000000" font-family="sans-serif" font-size="12" lengthAdjust="spacingAndGlyphs" textLength="35" x="1211.75" y="614.9102">Object</text><line style="stroke: #A80036; stroke-width: 1.5;" x1="1122" x2="1304" y1="626" y2="626"/><line style="stroke: #A80036; stroke-width: 1.5;" x1="1122" x2="1304" y1="634" y2="634"/><ellipse cx="1132" cy="646.418" fill="#84BE84" rx="3" ry="3" style="stroke: #038048; stroke-width: 1.0;"/><text fill="#000000" font-family="sans-serif" font-size="11" lengthAdjust="spacingAndGlyphs" textLength="56" x="1141" y="649.4189">void &lt;init&gt;()</text><rect fill="#F24D5C" height="6" style="stroke: #C82930; stroke-width: 1.0;" width="6" x="1129" y="657.2539"/><text fill="#000000" font-family="sans-serif" font-size="11" lengthAdjust="spacingAndGlyphs" text-decoration="underline" textLength="104" x="1141" y="663.2549">void registerNatives()</text><line style="stroke: #000000; stroke-width: 1.0;" x1="1141" x2="1245" y1="665.2549" y2="665.2549"/><ellipse cx="1132" cy="674.0898" fill="#84BE84" rx="3" ry="3" style="stroke: #038048; stroke-width: 1.0;"/><text fill="#000000" font-family="sans-serif" font-size="11" lengthAdjust="spacingAndGlyphs" textLength="132" x="1141" y="677.0908">java.lang.Class&lt;*&gt; getClas)</text><ellipse cx="1132" cy="687.9258" fill="#84BE84" rx="3" ry="3" style="stroke: #038048; stroke-width: 1.0;"/><text fill="#000000" font-family="sans-serif" font-size="11" lengthAdjust="spacingAndGlyphs" textLength="71" x="1141" y="690.9268">int hashCode()</text><ellipse cx="1132" cy="701.7617" fill="#84BE84" rx="3" ry="3" style="stroke: #038048; stroke-width: 1.0;"/><text fill="#000000" font-family="sans-serif" font-size="11" lengthAdjust="spacingAndGlyphs" textLength="158" x="1141" y="704.7627">boolean equals(java.lang.Object)</text><polygon fill="#FFFF44" points="1132,710.5977,1136,714.5977,1132,718.5977,1128,714.5977" style="stroke: #B38D22; stroke-width: 1.0;"/><text fill="#000000" font-family="sans-serif" font-size="11" lengthAdjust="spacingAndGlyphs" textLength="114" x="1141" y="718.5986">java.lang.Object clone()</text><ellipse cx="1132" cy="729.4336" fill="#84BE84" rx="3" ry="3" style="stroke: #038048; stroke-width: 1.0;"/><text fill="#000000" font-family="sans-serif" font-size="11" lengthAdjust="spacingAndGlyphs" textLength="122" x="1141" y="732.4346">java.lang.String toString()</text><ellipse cx="1132" cy="743.2695" fill="#84BE84" rx="3" ry="3" style="stroke: #038048; stroke-width: 1.0;"/><text fill="#000000" font-family="sans-serif" font-size="11" lengthAdjust="spacingAndGlyphs" textLength="58" x="1141" y="746.2705">void notify()</text><ellipse cx="1132" cy="757.1055" fill="#84BE84" rx="3" ry="3" style="stroke: #038048; stroke-width: 1.0;"/><text fill="#000000" font-family="sans-serif" font-size="11" lengthAdjust="spacingAndGlyphs" textLength="70" x="1141" y="760.1064">void notifyAll()</text><ellipse cx="1132" cy="770.9414" fill="#84BE84" rx="3" ry="3" style="stroke: #038048; stroke-width: 1.0;"/><text fill="#000000" font-family="sans-serif" font-size="11" lengthAdjust="spacingAndGlyphs" textLength="72" x="1141" y="773.9424">void wait(long)</text><ellipse cx="1132" cy="784.7773" fill="#84BE84" rx="3" ry="3" style="stroke: #038048; stroke-width: 1.0;"/><text fill="#000000" font-family="sans-serif" font-size="11" lengthAdjust="spacingAndGlyphs" textLength="86" x="1141" y="787.7783">void wait(long,int)</text><ellipse cx="1132" cy="798.6133" fill="#84BE84" rx="3" ry="3" style="stroke: #038048; stroke-width: 1.0;"/><text fill="#000000" font-family="sans-serif" font-size="11" lengthAdjust="spacingAndGlyphs" textLength="52" x="1141" y="801.6143">void wait()</text><polygon fill="#FFFF44" points="1132,807.4492,1136,811.4492,1132,815.4492,1128,811.4492" style="stroke: #B38D22; stroke-width: 1.0;"/><text fill="#000000" font-family="sans-serif" font-size="11" lengthAdjust="spacingAndGlyphs" textLength="65" x="1141" y="815.4502">void finalize()</text><rect fill="#F24D5C" height="6" style="stroke: #C82930; stroke-width: 1.0;" width="6" x="1129" y="823.2852"/><text fill="#000000" font-family="sans-serif" font-size="11" lengthAdjust="spacingAndGlyphs" text-decoration="underline" textLength="64" x="1141" y="829.2861">void &lt;clinit&gt;()</text><line style="stroke: #000000; stroke-width: 1.0;" x1="1141" x2="1205" y1="831.2861" y2="831.2861"/><text fill="#000000" font-family="sans-serif" font-size="11" lengthAdjust="spacingAndGlyphs" textLength="0" x="1144" y="843.1221"/><ellipse cx="1132" cy="853.957" fill="#84BE84" rx="3" ry="3" style="stroke: #038048; stroke-width: 1.0;"/><text fill="#000000" font-family="sans-serif" font-size="11" lengthAdjust="spacingAndGlyphs" textLength="56" x="1141" y="856.958">void &lt;init&gt;()</text><rect fill="#F24D5C" height="6" style="stroke: #C82930; stroke-width: 1.0;" width="6" x="1129" y="864.793"/><text fill="#000000" font-family="sans-serif" font-size="11" lengthAdjust="spacingAndGlyphs" text-decoration="underline" textLength="104" x="1141" y="870.7939">void registerNatives()</text><line style="stroke: #000000; stroke-width: 1.0;" x1="1141" x2="1245" y1="872.7939" y2="872.7939"/><ellipse cx="1132" cy="881.6289" fill="#84BE84" rx="3" ry="3" style="stroke: #038048; stroke-width: 1.0;"/><text fill="#000000" font-family="sans-serif" font-size="11" lengthAdjust="spacingAndGlyphs" textLength="132" x="1141" y="884.6299">java.lang.Class&lt;*&gt; getClas)</text><ellipse cx="1132" cy="895.4648" fill="#84BE84" rx="3" ry="3" style="stroke: #038048; stroke-width: 1.0;"/><text fill="#000000" font-family="sans-serif" font-size="11" lengthAdjust="spacingAndGlyphs" textLength="71" x="1141" y="898.4658">int hashCode()</text><ellipse cx="1132" cy="909.3008" fill="#84BE84" rx="3" ry="3" style="stroke: #038048; stroke-width: 1.0;"/><text fill="#000000" font-family="sans-serif" font-size="11" lengthAdjust="spacingAndGlyphs" textLength="158" x="1141" y="912.3018">boolean equals(java.lang.Object)</text><polygon fill="#FFFF44" points="1132,918.1367,1136,922.1367,1132,926.1367,1128,922.1367" style="stroke: #B38D22; stroke-width: 1.0;"/><text fill="#000000" font-family="sans-serif" font-size="11" lengthAdjust="spacingAndGlyphs" textLength="114" x="1141" y="926.1377">java.lang.Object clone()</text><ellipse cx="1132" cy="936.9727" fill="#84BE84" rx="3" ry="3" style="stroke: #038048; stroke-width: 1.0;"/><text fill="#000000" font-family="sans-serif" font-size="11" lengthAdjust="spacingAndGlyphs" textLength="122" x="1141" y="939.9736">java.lang.String toString()</text><ellipse cx="1132" cy="950.8086" fill="#84BE84" rx="3" ry="3" style="stroke: #038048; stroke-width: 1.0;"/><text fill="#000000" font-family="sans-serif" font-size="11" lengthAdjust="spacingAndGlyphs" textLength="58" x="1141" y="953.8096">void notify()</text><ellipse cx="1132" cy="964.6445" fill="#84BE84" rx="3" ry="3" style="stroke: #038048; stroke-width: 1.0;"/><text fill="#000000" font-family="sans-serif" font-size="11" lengthAdjust="spacingAndGlyphs" textLength="70" x="1141" y="967.6455">void notifyAll()</text><ellipse cx="1132" cy="978.4805" fill="#84BE84" rx="3" ry="3" style="stroke: #038048; stroke-width: 1.0;"/><text fill="#000000" font-family="sans-serif" font-size="11" lengthAdjust="spacingAndGlyphs" textLength="72" x="1141" y="981.4814">void wait(long)</text><ellipse cx="1132" cy="992.3164" fill="#84BE84" rx="3" ry="3" style="stroke: #038048; stroke-width: 1.0;"/><text fill="#000000" font-family="sans-serif" font-size="11" lengthAdjust="spacingAndGlyphs" textLength="86" x="1141" y="995.3174">void wait(long,int)</text><ellipse cx="1132" cy="1006.1523" fill="#84BE84" rx="3" ry="3" style="stroke: #038048; stroke-width: 1.0;"/><text fill="#000000" font-family="sans-serif" font-size="11" lengthAdjust="spacingAndGlyphs" textLength="52" x="1141" y="1009.1533">void wait()</text><polygon fill="#FFFF44" points="1132,1014.9883,1136,1018.9883,1132,1022.9883,1128,1018.9883" style="stroke: #B38D22; stroke-width: 1.0;"/><text fill="#000000" font-family="sans-serif" font-size="11" lengthAdjust="spacingAndGlyphs" textLength="65" x="1141" y="1022.9893">void finalize()</text><rect fill="#F24D5C" height="6" style="stroke: #C82930; stroke-width: 1.0;" width="6" x="1129" y="1030.8242"/><text fill="#000000" font-family="sans-serif" font-size="11" lengthAdjust="spacingAndGlyphs" text-decoration="underline" textLength="64" x="1141" y="1036.8252">void &lt;clinit&gt;()</text><line style="stroke: #000000; stroke-width: 1.0;" x1="1141" x2="1205" y1="1038.8252" y2="1038.8252"/><text fill="#000000" font-family="sans-serif" font-size="11" lengthAdjust="spacingAndGlyphs" textLength="0" x="1144" y="1050.6611"/><ellipse cx="1132" cy="1061.4961" fill="#84BE84" rx="3" ry="3" style="stroke: #038048; stroke-width: 1.0;"/><text fill="#000000" font-family="sans-serif" font-size="11" lengthAdjust="spacingAndGlyphs" textLength="56" x="1141" y="1064.4971">void &lt;init&gt;()</text><rect fill="#F24D5C" height="6" style="stroke: #C82930; stroke-width: 1.0;" width="6" x="1129" y="1072.332"/><text fill="#000000" font-family="sans-serif" font-size="11" lengthAdjust="spacingAndGlyphs" text-decoration="underline" textLength="104" x="1141" y="1078.333">void registerNatives()</text><line style="stroke: #000000; stroke-width: 1.0;" x1="1141" x2="1245" y1="1080.333" y2="1080.333"/><ellipse cx="1132" cy="1089.168" fill="#84BE84" rx="3" ry="3" style="stroke: #038048; stroke-width: 1.0;"/><text fill="#000000" font-family="sans-serif" font-size="11" lengthAdjust="spacingAndGlyphs" textLength="132" x="1141" y="1092.1689">java.lang.Class&lt;*&gt; getClas)</text><ellipse cx="1132" cy="1103.0039" fill="#84BE84" rx="3" ry="3" style="stroke: #038048; stroke-width: 1.0;"/><text fill="#000000" font-family="sans-serif" font-size="11" lengthAdjust="spacingAndGlyphs" textLength="71" x="1141" y="1106.0049">int hashCode()</text><ellipse cx="1132" cy="1116.8398" fill="#84BE84" rx="3" ry="3" style="stroke: #038048; stroke-width: 1.0;"/><text fill="#000000" font-family="sans-serif" font-size="11" lengthAdjust="spacingAndGlyphs" textLength="158" x="1141" y="1119.8408">boolean equals(java.lang.Object)</text><polygon fill="#FFFF44" points="1132,1125.6758,1136,1129.6758,1132,1133.6758,1128,1129.6758" style="stroke: #B38D22; stroke-width: 1.0;"/><text fill="#000000" font-family="sans-serif" font-size="11" lengthAdjust="spacingAndGlyphs" textLength="114" x="1141" y="1133.6768">java.lang.Object clone()</text><ellipse cx="1132" cy="1144.5117" fill="#84BE84" rx="3" ry="3" style="stroke: #038048; stroke-width: 1.0;"/><text fill="#000000" font-family="sans-serif" font-size="11" lengthAdjust="spacingAndGlyphs" textLength="122" x="1141" y="1147.5127">java.lang.String toString()</text><ellipse cx="1132" cy="1158.3477" fill="#84BE84" rx="3" ry="3" style="stroke: #038048; stroke-width: 1.0;"/><text fill="#000000" font-family="sans-serif" font-size="11" lengthAdjust="spacingAndGlyphs" textLength="58" x="1141" y="1161.3486">void notify()</text><ellipse cx="1132" cy="1172.1836" fill="#84BE84" rx="3" ry="3" style="stroke: #038048; stroke-width: 1.0;"/><text fill="#000000" font-family="sans-serif" font-size="11" lengthAdjust="spacingAndGlyphs" textLength="70" x="1141" y="1175.1846">void notifyAll()</text><ellipse cx="1132" cy="1186.0195" fill="#84BE84" rx="3" ry="3" style="stroke: #038048; stroke-width: 1.0;"/><text fill="#000000" font-family="sans-serif" font-size="11" lengthAdjust="spacingAndGlyphs" textLength="72" x="1141" y="1189.0205">void wait(long)</text><ellipse cx="1132" cy="1199.8555" fill="#84BE84" rx="3" ry="3" style="stroke: #038048; stroke-width: 1.0;"/><text fill="#000000" font-family="sans-serif" font-size="11" lengthAdjust="spacingAndGlyphs" textLength="86" x="1141" y="1202.8564">void wait(long,int)</text><ellipse cx="1132" cy="1213.6914" fill="#84BE84" rx="3" ry="3" style="stroke: #038048; stroke-width: 1.0;"/><text fill="#000000" font-family="sans-serif" font-size="11" lengthAdjust="spacingAndGlyphs" textLength="52" x="1141" y="1216.6924">void wait()</text><polygon fill="#FFFF44" points="1132,1222.5273,1136,1226.5273,1132,1230.5273,1128,1226.5273" style="stroke: #B38D22; stroke-width: 1.0;"/><text fill="#000000" font-family="sans-serif" font-size="11" lengthAdjust="spacingAndGlyphs" textLength="65" x="1141" y="1230.5283">void finalize()</text><rect fill="#F24D5C" height="6" style="stroke: #C82930; stroke-width: 1.0;" width="6" x="1129" y="1238.3633"/><text fill="#000000" font-family="sans-serif" font-size="11" lengthAdjust="spacingAndGlyphs" text-decoration="underline" textLength="64" x="1141" y="1244.3643">void &lt;clinit&gt;()</text><line style="stroke: #000000; stroke-width: 1.0;" x1="1141" x2="1205" y1="1246.3643" y2="1246.3643"/><text fill="#000000" font-family="sans-serif" font-size="11" lengthAdjust="spacingAndGlyphs" textLength="0" x="1144" y="1258.2002"/><ellipse cx="1132" cy="1269.0352" fill="#84BE84" rx="3" ry="3" style="stroke: #038048; stroke-width: 1.0;"/><text fill="#000000" font-family="sans-serif" font-size="11" lengthAdjust="spacingAndGlyphs" textLength="56" x="1141" y="1272.0361">void &lt;init&gt;()</text><rect fill="#F24D5C" height="6" style="stroke: #C82930; stroke-width: 1.0;" width="6" x="1129" y="1279.8711"/><text fill="#000000" font-family="sans-serif" font-size="11" lengthAdjust="spacingAndGlyphs" text-decoration="underline" textLength="104" x="1141" y="1285.8721">void registerNatives()</text><line style="stroke: #000000; stroke-width: 1.0;" x1="1141" x2="1245" y1="1287.8721" y2="1287.8721"/><ellipse cx="1132" cy="1296.707" fill="#84BE84" rx="3" ry="3" style="stroke: #038048; stroke-width: 1.0;"/><text fill="#000000" font-family="sans-serif" font-size="11" lengthAdjust="spacingAndGlyphs" textLength="132" x="1141" y="1299.708">java.lang.Class&lt;*&gt; getClas)</text><ellipse cx="1132" cy="1310.543" fill="#84BE84" rx="3" ry="3" style="stroke: #038048; stroke-width: 1.0;"/><text fill="#000000" font-family="sans-serif" font-size="11" lengthAdjust="spacingAndGlyphs" textLength="71" x="1141" y="1313.5439">int hashCode()</text><ellipse cx="1132" cy="1324.3789" fill="#84BE84" rx="3" ry="3" style="stroke: #038048; stroke-width: 1.0;"/><text fill="#000000" font-family="sans-serif" font-size="11" lengthAdjust="spacingAndGlyphs" textLength="158" x="1141" y="1327.3799">boolean equals(java.lang.Object)</text><polygon fill="#FFFF44" points="1132,1333.2148,1136,1337.2148,1132,1341.2148,1128,1337.2148" style="stroke: #B38D22; stroke-width: 1.0;"/><text fill="#000000" font-family="sans-serif" font-size="11" lengthAdjust="spacingAndGlyphs" textLength="114" x="1141" y="1341.2158">java.lang.Object clone()</text><ellipse cx="1132" cy="1352.0508" fill="#84BE84" rx="3" ry="3" style="stroke: #038048; stroke-width: 1.0;"/><text fill="#000000" font-family="sans-serif" font-size="11" lengthAdjust="spacingAndGlyphs" textLength="122" x="1141" y="1355.0518">java.lang.String toString()</text><ellipse cx="1132" cy="1365.8867" fill="#84BE84" rx="3" ry="3" style="stroke: #038048; stroke-width: 1.0;"/><text fill="#000000" font-family="sans-serif" font-size="11" lengthAdjust="spacingAndGlyphs" textLength="58" x="1141" y="1368.8877">void notify()</text><ellipse cx="1132" cy="1379.7227" fill="#84BE84" rx="3" ry="3" style="stroke: #038048; stroke-width: 1.0;"/><text fill="#000000" font-family="sans-serif" font-size="11" lengthAdjust="spacingAndGlyphs" textLength="70" x="1141" y="1382.7236">void notifyAll()</text><ellipse cx="1132" cy="1393.5586" fill="#84BE84" rx="3" ry="3" style="stroke: #038048; stroke-width: 1.0;"/><text fill="#000000" font-family="sans-serif" font-size="11" lengthAdjust="spacingAndGlyphs" textLength="72" x="1141" y="1396.5596">void wait(long)</text><ellipse cx="1132" cy="1407.3945" fill="#84BE84" rx="3" ry="3" style="stroke: #038048; stroke-width: 1.0;"/><text fill="#000000" font-family="sans-serif" font-size="11" lengthAdjust="spacingAndGlyphs" textLength="86" x="1141" y="1410.3955">void wait(long,int)</text><ellipse cx="1132" cy="1421.2305" fill="#84BE84" rx="3" ry="3" style="stroke: #038048; stroke-width: 1.0;"/><text fill="#000000" font-family="sans-serif" font-size="11" lengthAdjust="spacingAndGlyphs" textLength="52" x="1141" y="1424.2314">void wait()</text><polygon fill="#FFFF44" points="1132,1430.0664,1136,1434.0664,1132,1438.0664,1128,1434.0664" style="stroke: #B38D22; stroke-width: 1.0;"/><text fill="#000000" font-family="sans-serif" font-size="11" lengthAdjust="spacingAndGlyphs" textLength="65" x="1141" y="1438.0674">void finalize()</text><rect fill="#F24D5C" height="6" style="stroke: #C82930; stroke-width: 1.0;" width="6" x="1129" y="1445.9023"/><text fill="#000000" font-family="sans-serif" font-size="11" lengthAdjust="spacingAndGlyphs" text-decoration="underline" textLength="64" x="1141" y="1451.9033">void &lt;clinit&gt;()</text><line style="stroke: #000000; stroke-width: 1.0;" x1="1141" x2="1205" y1="1453.9033" y2="1453.9033"/><text fill="#000000" font-family="sans-serif" font-size="11" lengthAdjust="spacingAndGlyphs" textLength="0" x="1144" y="1465.7393"/><ellipse cx="1132" cy="1476.5742" fill="#84BE84" rx="3" ry="3" style="stroke: #038048; stroke-width: 1.0;"/><text fill="#000000" font-family="sans-serif" font-size="11" lengthAdjust="spacingAndGlyphs" textLength="56" x="1141" y="1479.5752">void &lt;init&gt;()</text><rect fill="#F24D5C" height="6" style="stroke: #C82930; stroke-width: 1.0;" width="6" x="1129" y="1487.4102"/><text fill="#000000" font-family="sans-serif" font-size="11" lengthAdjust="spacingAndGlyphs" text-decoration="underline" textLength="104" x="1141" y="1493.4111">void registerNatives()</text><line style="stroke: #000000; stroke-width: 1.0;" x1="1141" x2="1245" y1="1495.4111" y2="1495.4111"/><ellipse cx="1132" cy="1504.2461" fill="#84BE84" rx="3" ry="3" style="stroke: #038048; stroke-width: 1.0;"/><text fill="#000000" font-family="sans-serif" font-size="11" lengthAdjust="spacingAndGlyphs" textLength="132" x="1141" y="1507.2471">java.lang.Class&lt;*&gt; getClas)</text><ellipse cx="1132" cy="1518.082" fill="#84BE84" rx="3" ry="3" style="stroke: #038048; stroke-width: 1.0;"/><text fill="#000000" font-family="sans-serif" font-size="11" lengthAdjust="spacingAndGlyphs" textLength="71" x="1141" y="1521.083">int hashCode()</text><ellipse cx="1132" cy="1531.918" fill="#84BE84" rx="3" ry="3" style="stroke: #038048; stroke-width: 1.0;"/><text fill="#000000" font-family="sans-serif" font-size="11" lengthAdjust="spacingAndGlyphs" textLength="158" x="1141" y="1534.9189">boolean equals(java.lang.Object)</text><polygon fill="#FFFF44" points="1132,1540.7539,1136,1544.7539,1132,1548.7539,1128,1544.7539" style="stroke: #B38D22; stroke-width: 1.0;"/><text fill="#000000" font-family="sans-serif" font-size="11" lengthAdjust="spacingAndGlyphs" textLength="114" x="1141" y="1548.7549">java.lang.Object clone()</text><ellipse cx="1132" cy="1559.5898" fill="#84BE84" rx="3" ry="3" style="stroke: #038048; stroke-width: 1.0;"/><text fill="#000000" font-family="sans-serif" font-size="11" lengthAdjust="spacingAndGlyphs" textLength="122" x="1141" y="1562.5908">java.lang.String toString()</text><ellipse cx="1132" cy="1573.4258" fill="#84BE84" rx="3" ry="3" style="stroke: #038048; stroke-width: 1.0;"/><text fill="#000000" font-family="sans-serif" font-size="11" lengthAdjust="spacingAndGlyphs" textLength="58" x="1141" y="1576.4268">void notify()</text><ellipse cx="1132" cy="1587.2617" fill="#84BE84" rx="3" ry="3" style="stroke: #038048; stroke-width: 1.0;"/><text fill="#000000" font-family="sans-serif" font-size="11" lengthAdjust="spacingAndGlyphs" textLength="70" x="1141" y="1590.2627">void notifyAll()</text><ellipse cx="1132" cy="1601.0977" fill="#84BE84" rx="3" ry="3" style="stroke: #038048; stroke-width: 1.0;"/><text fill="#000000" font-family="sans-serif" font-size="11" lengthAdjust="spacingAndGlyphs" textLength="72" x="1141" y="1604.0986">void wait(long)</text><ellipse cx="1132" cy="1614.9336" fill="#84BE84" rx="3" ry="3" style="stroke: #038048; stroke-width: 1.0;"/><text fill="#000000" font-family="sans-serif" font-size="11" lengthAdjust="spacingAndGlyphs" textLength="86" x="1141" y="1617.9346">void wait(long,int)</text><ellipse cx="1132" cy="1628.7695" fill="#84BE84" rx="3" ry="3" style="stroke: #038048; stroke-width: 1.0;"/><text fill="#000000" font-family="sans-serif" font-size="11" lengthAdjust="spacingAndGlyphs" textLength="52" x="1141" y="1631.7705">void wait()</text><polygon fill="#FFFF44" points="1132,1637.6055,1136,1641.6055,1132,1645.6055,1128,1641.6055" style="stroke: #B38D22; stroke-width: 1.0;"/><text fill="#000000" font-family="sans-serif" font-size="11" lengthAdjust="spacingAndGlyphs" textLength="65" x="1141" y="1645.6064">void finalize()</text><rect fill="#F24D5C" height="6" style="stroke: #C82930; stroke-width: 1.0;" width="6" x="1129" y="1653.4414"/><text fill="#000000" font-family="sans-serif" font-size="11" lengthAdjust="spacingAndGlyphs" text-decoration="underline" textLength="64" x="1141" y="1659.4424">void &lt;clinit&gt;()</text><line style="stroke: #000000; stroke-width: 1.0;" x1="1141" x2="1205" y1="1661.4424" y2="1661.4424"/><text fill="#000000" font-family="sans-serif" font-size="11" lengthAdjust="spacingAndGlyphs" textLength="0" x="1144" y="1673.2783"/><ellipse cx="1132" cy="1684.1133" fill="#84BE84" rx="3" ry="3" style="stroke: #038048; stroke-width: 1.0;"/><text fill="#000000" font-family="sans-serif" font-size="11" lengthAdjust="spacingAndGlyphs" textLength="56" x="1141" y="1687.1143">void &lt;init&gt;()</text><rect fill="#F24D5C" height="6" style="stroke: #C82930; stroke-width: 1.0;" width="6" x="1129" y="1694.9492"/><text fill="#000000" font-family="sans-serif" font-size="11" lengthAdjust="spacingAndGlyphs" text-decoration="underline" textLength="104" x="1141" y="1700.9502">void registerNatives()</text><line style="stroke: #000000; stroke-width: 1.0;" x1="1141" x2="1245" y1="1702.9502" y2="1702.9502"/><ellipse cx="1132" cy="1711.7852" fill="#84BE84" rx="3" ry="3" style="stroke: #038048; stroke-width: 1.0;"/><text fill="#000000" font-family="sans-serif" font-size="11" lengthAdjust="spacingAndGlyphs" textLength="132" x="1141" y="1714.7861">java.lang.Class&lt;*&gt; getClas)</text><ellipse cx="1132" cy="1725.6211" fill="#84BE84" rx="3" ry="3" style="stroke: #038048; stroke-width: 1.0;"/><text fill="#000000" font-family="sans-serif" font-size="11" lengthAdjust="spacingAndGlyphs" textLength="71" x="1141" y="1728.6221">int hashCode()</text><ellipse cx="1132" cy="1739.457" fill="#84BE84" rx="3" ry="3" style="stroke: #038048; stroke-width: 1.0;"/><text fill="#000000" font-family="sans-serif" font-size="11" lengthAdjust="spacingAndGlyphs" textLength="158" x="1141" y="1742.458">boolean equals(java.lang.Object)</text><polygon fill="#FFFF44" points="1132,1748.293,1136,1752.293,1132,1756.293,1128,1752.293" style="stroke: #B38D22; stroke-width: 1.0;"/><text fill="#000000" font-family="sans-serif" font-size="11" lengthAdjust="spacingAndGlyphs" textLength="114" x="1141" y="1756.2939">java.lang.Object clone()</text><ellipse cx="1132" cy="1767.1289" fill="#84BE84" rx="3" ry="3" style="stroke: #038048; stroke-width: 1.0;"/><text fill="#000000" font-family="sans-serif" font-size="11" lengthAdjust="spacingAndGlyphs" textLength="122" x="1141" y="1770.1299">java.lang.String toString()</text><ellipse cx="1132" cy="1780.9648" fill="#84BE84" rx="3" ry="3" style="stroke: #038048; stroke-width: 1.0;"/><text fill="#000000" font-family="sans-serif" font-size="11" lengthAdjust="spacingAndGlyphs" textLength="58" x="1141" y="1783.9658">void notify()</text><ellipse cx="1132" cy="1794.8008" fill="#84BE84" rx="3" ry="3" style="stroke: #038048; stroke-width: 1.0;"/><text fill="#000000" font-family="sans-serif" font-size="11" lengthAdjust="spacingAndGlyphs" textLength="70" x="1141" y="1797.8018">void notifyAll()</text><ellipse cx="1132" cy="1808.6367" fill="#84BE84" rx="3" ry="3" style="stroke: #038048; stroke-width: 1.0;"/><text fill="#000000" font-family="sans-serif" font-size="11" lengthAdjust="spacingAndGlyphs" textLength="72" x="1141" y="1811.6377">void wait(long)</text><ellipse cx="1132" cy="1822.4727" fill="#84BE84" rx="3" ry="3" style="stroke: #038048; stroke-width: 1.0;"/><text fill="#000000" font-family="sans-serif" font-size="11" lengthAdjust="spacingAndGlyphs" textLength="86" x="1141" y="1825.4736">void wait(long,int)</text><ellipse cx="1132" cy="1836.3086" fill="#84BE84" rx="3" ry="3" style="stroke: #038048; stroke-width: 1.0;"/><text fill="#000000" font-family="sans-serif" font-size="11" lengthAdjust="spacingAndGlyphs" textLength="52" x="1141" y="1839.3096">void wait()</text><polygon fill="#FFFF44" points="1132,1845.1445,1136,1849.1445,1132,1853.1445,1128,1849.1445" style="stroke: #B38D22; stroke-width: 1.0;"/><text fill="#000000" font-family="sans-serif" font-size="11" lengthAdjust="spacingAndGlyphs" textLength="65" x="1141" y="1853.1455">void finalize()</text><rect fill="#F24D5C" height="6" style="stroke: #C82930; stroke-width: 1.0;" width="6" x="1129" y="1860.9805"/><text fill="#000000" font-family="sans-serif" font-size="11" lengthAdjust="spacingAndGlyphs" text-decoration="underline" textLength="64" x="1141" y="1866.9814">void &lt;clinit&gt;()</text><line style="stroke: #000000; stroke-width: 1.0;" x1="1141" x2="1205" y1="1868.9814" y2="1868.9814"/><!--class java.lang.StringBuffer--><rect fill="#FEFECE" filter="url(#fnck8ns3r8kvu)" height="48" id="java.lang.StringBuffer" style="stroke: #A80036; stroke-width: 1.5;" width="96" x="1358" y="1209.5"/><ellipse cx="1373" cy="1225.5" fill="#ADD1B2" rx="11" ry="11" style="stroke: #A80036; stroke-width: 1.0;"/><path d="M1375.7656,1221.375 Q1375.9219,1221.1563 1376.1094,1221.0469 Q1376.2969,1220.9375 1376.5156,1220.9375 Q1376.8906,1220.9375 1377.125,1221.1953 Q1377.3594,1221.4531 1377.3594,1222.0625 L1377.3594,1223.5156 Q1377.3594,1224.125 1377.125,1224.3906 Q1376.8906,1224.6563 1376.5156,1224.6563 Q1376.1719,1224.6563 1375.9688,1224.4531 Q1375.7656,1224.2656 1375.6563,1223.75 Q1375.6094,1223.3906 1375.4219,1223.2031 Q1375.0938,1222.8281 1374.4844,1222.6094 Q1373.875,1222.3906 1373.25,1222.3906 Q1372.4844,1222.3906 1371.8516,1222.7188 Q1371.2188,1223.0469 1370.7266,1223.7969 Q1370.2344,1224.5469 1370.2344,1225.5781 L1370.2344,1226.6719 Q1370.2344,1227.9063 1371.125,1228.7266 Q1372.0156,1229.5469 1373.6094,1229.5469 Q1374.5469,1229.5469 1375.2031,1229.2969 Q1375.5938,1229.1406 1376.0156,1228.7031 Q1376.2813,1228.4375 1376.4297,1228.3594 Q1376.5781,1228.2813 1376.7813,1228.2813 Q1377.1094,1228.2813 1377.3672,1228.5391 Q1377.625,1228.7969 1377.625,1229.1406 Q1377.625,1229.4844 1377.2813,1229.8906 Q1376.7813,1230.4688 1375.9844,1230.7969 Q1374.9063,1231.25 1373.6094,1231.25 Q1372.0938,1231.25 1370.8906,1230.625 Q1369.9063,1230.125 1369.2188,1229.0547 Q1368.5313,1227.9844 1368.5313,1226.7031 L1368.5313,1225.5469 Q1368.5313,1224.2188 1369.1484,1223.0703 Q1369.7656,1221.9219 1370.8594,1221.3047 Q1371.9531,1220.6875 1373.1875,1220.6875 Q1373.9219,1220.6875 1374.5703,1220.8516 Q1375.2188,1221.0156 1375.7656,1221.375 Z "/><text fill="#000000" font-family="sans-serif" font-size="12" lengthAdjust="spacingAndGlyphs" textLength="64" x="1387" y="1230.4102">StringBuffer</text><line style="stroke: #A80036; stroke-width: 1.5;" x1="1359" x2="1453" y1="1241.5" y2="1241.5"/><line style="stroke: #A80036; stroke-width: 1.5;" x1="1359" x2="1453" y1="1249.5" y2="1249.5"/><!--class java.lang.StringBuilder--><rect fill="#FEFECE" filter="url(#fnck8ns3r8kvu)" height="48" id="java.lang.StringBuilder" style="stroke: #A80036; stroke-width: 1.5;" width="103" x="1489.5" y="1209.5"/><ellipse cx="1504.5" cy="1225.5" fill="#ADD1B2" rx="11" ry="11" style="stroke: #A80036; stroke-width: 1.0;"/><path d="M1507.2656,1221.375 Q1507.4219,1221.1563 1507.6094,1221.0469 Q1507.7969,1220.9375 1508.0156,1220.9375 Q1508.3906,1220.9375 1508.625,1221.1953 Q1508.8594,1221.4531 1508.8594,1222.0625 L1508.8594,1223.5156 Q1508.8594,1224.125 1508.625,1224.3906 Q1508.3906,1224.6563 1508.0156,1224.6563 Q1507.6719,1224.6563 1507.4688,1224.4531 Q1507.2656,1224.2656 1507.1563,1223.75 Q1507.1094,1223.3906 1506.9219,1223.2031 Q1506.5938,1222.8281 1505.9844,1222.6094 Q1505.375,1222.3906 1504.75,1222.3906 Q1503.9844,1222.3906 1503.3516,1222.7188 Q1502.7188,1223.0469 1502.2266,1223.7969 Q1501.7344,1224.5469 1501.7344,1225.5781 L1501.7344,1226.6719 Q1501.7344,1227.9063 1502.625,1228.7266 Q1503.5156,1229.5469 1505.1094,1229.5469 Q1506.0469,1229.5469 1506.7031,1229.2969 Q1507.0938,1229.1406 1507.5156,1228.7031 Q1507.7813,1228.4375 1507.9297,1228.3594 Q1508.0781,1228.2813 1508.2813,1228.2813 Q1508.6094,1228.2813 1508.8672,1228.5391 Q1509.125,1228.7969 1509.125,1229.1406 Q1509.125,1229.4844 1508.7813,1229.8906 Q1508.2813,1230.4688 1507.4844,1230.7969 Q1506.4063,1231.25 1505.1094,1231.25 Q1503.5938,1231.25 1502.3906,1230.625 Q1501.4063,1230.125 1500.7188,1229.0547 Q1500.0313,1227.9844 1500.0313,1226.7031 L1500.0313,1225.5469 Q1500.0313,1224.2188 1500.6484,1223.0703 Q1501.2656,1221.9219 1502.3594,1221.3047 Q1503.4531,1220.6875 1504.6875,1220.6875 Q1505.4219,1220.6875 1506.0703,1220.8516 Q1506.7188,1221.0156 1507.2656,1221.375 Z "/><text fill="#000000" font-family="sans-serif" font-size="12" lengthAdjust="spacingAndGlyphs" textLength="71" x="1518.5" y="1230.4102">StringBuilder</text><line style="stroke: #A80036; stroke-width: 1.5;" x1="1490.5" x2="1591.5" y1="1241.5" y2="1241.5"/><line style="stroke: #A80036; stroke-width: 1.5;" x1="1490.5" x2="1591.5" y1="1249.5" y2="1249.5"/><!--class java.lang.String--><rect fill="#FEFECE" filter="url(#fnck8ns3r8kvu)" height="48" id="java.lang.String" style="stroke: #A80036; stroke-width: 1.5;" width="64" x="1628" y="1209.5"/><ellipse cx="1643" cy="1225.5" fill="#ADD1B2" rx="11" ry="11" style="stroke: #A80036; stroke-width: 1.0;"/><path d="M1645.7656,1221.375 Q1645.9219,1221.1563 1646.1094,1221.0469 Q1646.2969,1220.9375 1646.5156,1220.9375 Q1646.8906,1220.9375 1647.125,1221.1953 Q1647.3594,1221.4531 1647.3594,1222.0625 L1647.3594,1223.5156 Q1647.3594,1224.125 1647.125,1224.3906 Q1646.8906,1224.6563 1646.5156,1224.6563 Q1646.1719,1224.6563 1645.9688,1224.4531 Q1645.7656,1224.2656 1645.6563,1223.75 Q1645.6094,1223.3906 1645.4219,1223.2031 Q1645.0938,1222.8281 1644.4844,1222.6094 Q1643.875,1222.3906 1643.25,1222.3906 Q1642.4844,1222.3906 1641.8516,1222.7188 Q1641.2188,1223.0469 1640.7266,1223.7969 Q1640.2344,1224.5469 1640.2344,1225.5781 L1640.2344,1226.6719 Q1640.2344,1227.9063 1641.125,1228.7266 Q1642.0156,1229.5469 1643.6094,1229.5469 Q1644.5469,1229.5469 1645.2031,1229.2969 Q1645.5938,1229.1406 1646.0156,1228.7031 Q1646.2813,1228.4375 1646.4297,1228.3594 Q1646.5781,1228.2813 1646.7813,1228.2813 Q1647.1094,1228.2813 1647.3672,1228.5391 Q1647.625,1228.7969 1647.625,1229.1406 Q1647.625,1229.4844 1647.2813,1229.8906 Q1646.7813,1230.4688 1645.9844,1230.7969 Q1644.9063,1231.25 1643.6094,1231.25 Q1642.0938,1231.25 1640.8906,1230.625 Q1639.9063,1230.125 1639.2188,1229.0547 Q1638.5313,1227.9844 1638.5313,1226.7031 L1638.5313,1225.5469 Q1638.5313,1224.2188 1639.1484,1223.0703 Q1639.7656,1221.9219 1640.8594,1221.3047 Q1641.9531,1220.6875 1643.1875,1220.6875 Q1643.9219,1220.6875 1644.5703,1220.8516 Q1645.2188,1221.0156 1645.7656,1221.375 Z "/><text fill="#000000" font-family="sans-serif" font-size="12" lengthAdjust="spacingAndGlyphs" textLength="32" x="1657" y="1230.4102">String</text><line style="stroke: #A80036; stroke-width: 1.5;" x1="1629" x2="1691" y1="1241.5" y2="1241.5"/><line style="stroke: #A80036; stroke-width: 1.5;" x1="1629" x2="1691" y1="1249.5" y2="1249.5"/><!--class java.util.Enumeration--><rect fill="#FEFECE" filter="url(#fnck8ns3r8kvu)" height="75.6719" id="java.util.Enumeration" style="stroke: #A80036; stroke-width: 1.5;" width="166" x="258" y="1195.5"/><ellipse cx="301.35" cy="1211.5" fill="#B4A7E5" rx="11" ry="11" style="stroke: #A80036; stroke-width: 1.0;"/><path d="M302.3031,1208.1406 L302.3031,1214.7969 L304.0219,1214.7969 Q304.6313,1214.7969 304.8969,1215.0313 Q305.1625,1215.2656 305.1625,1215.6563 Q305.1625,1216.0313 304.8969,1216.2656 Q304.6313,1216.5 304.0219,1216.5 L298.8813,1216.5 Q298.2719,1216.5 298.0063,1216.2656 Q297.7406,1216.0313 297.7406,1215.6406 Q297.7406,1215.2656 298.0063,1215.0313 Q298.2719,1214.7969 298.8813,1214.7969 L300.6,1214.7969 L300.6,1208.1406 L298.8813,1208.1406 Q298.2719,1208.1406 298.0063,1207.9063 Q297.7406,1207.6719 297.7406,1207.2813 Q297.7406,1206.9063 298.0063,1206.6719 Q298.2719,1206.4375 298.8813,1206.4375 L304.0219,1206.4375 Q304.6313,1206.4375 304.8969,1206.6719 Q305.1625,1206.9063 305.1625,1207.2813 Q305.1625,1207.6719 304.8969,1207.9063 Q304.6313,1208.1406 304.0219,1208.1406 L302.3031,1208.1406 Z "/><text fill="#000000" font-family="sans-serif" font-size="12" font-style="italic" lengthAdjust="spacingAndGlyphs" textLength="71" x="321.65" y="1216.4102">Enumeration</text><line style="stroke: #A80036; stroke-width: 1.5;" x1="259" x2="423" y1="1227.5" y2="1227.5"/><line style="stroke: #A80036; stroke-width: 1.5;" x1="259" x2="423" y1="1235.5" y2="1235.5"/><ellipse cx="269" cy="1247.918" fill="#84BE84" rx="3" ry="3" style="stroke: #038048; stroke-width: 1.0;"/><text fill="#000000" font-family="sans-serif" font-size="11" font-style="italic" lengthAdjust="spacingAndGlyphs" textLength="140" x="278" y="1250.9189">boolean hasMoreElements()</text><ellipse cx="269" cy="1261.7539" fill="#84BE84" rx="3" ry="3" style="stroke: #038048; stroke-width: 1.0;"/><text fill="#000000" font-family="sans-serif" font-size="11" font-style="italic" lengthAdjust="spacingAndGlyphs" textLength="72" x="278" y="1264.7549">T nextElemen)</text><!--class java.util.Vector--><rect fill="#FEFECE" filter="url(#fnck8ns3r8kvu)" height="48" id="java.util.Vector" style="stroke: #A80036; stroke-width: 1.5;" width="66" x="459" y="1209.5"/><ellipse cx="474" cy="1225.5" fill="#ADD1B2" rx="11" ry="11" style="stroke: #A80036; stroke-width: 1.0;"/><path d="M476.7656,1221.375 Q476.9219,1221.1563 477.1094,1221.0469 Q477.2969,1220.9375 477.5156,1220.9375 Q477.8906,1220.9375 478.125,1221.1953 Q478.3594,1221.4531 478.3594,1222.0625 L478.3594,1223.5156 Q478.3594,1224.125 478.125,1224.3906 Q477.8906,1224.6563 477.5156,1224.6563 Q477.1719,1224.6563 476.9688,1224.4531 Q476.7656,1224.2656 476.6563,1223.75 Q476.6094,1223.3906 476.4219,1223.2031 Q476.0938,1222.8281 475.4844,1222.6094 Q474.875,1222.3906 474.25,1222.3906 Q473.4844,1222.3906 472.8516,1222.7188 Q472.2188,1223.0469 471.7266,1223.7969 Q471.2344,1224.5469 471.2344,1225.5781 L471.2344,1226.6719 Q471.2344,1227.9063 472.125,1228.7266 Q473.0156,1229.5469 474.6094,1229.5469 Q475.5469,1229.5469 476.2031,1229.2969 Q476.5938,1229.1406 477.0156,1228.7031 Q477.2813,1228.4375 477.4297,1228.3594 Q477.5781,1228.2813 477.7813,1228.2813 Q478.1094,1228.2813 478.3672,1228.5391 Q478.625,1228.7969 478.625,1229.1406 Q478.625,1229.4844 478.2813,1229.8906 Q477.7813,1230.4688 476.9844,1230.7969 Q475.9063,1231.25 474.6094,1231.25 Q473.0938,1231.25 471.8906,1230.625 Q470.9063,1230.125 470.2188,1229.0547 Q469.5313,1227.9844 469.5313,1226.7031 L469.5313,1225.5469 Q469.5313,1224.2188 470.1484,1223.0703 Q470.7656,1221.9219 471.8594,1221.3047 Q472.9531,1220.6875 474.1875,1220.6875 Q474.9219,1220.6875 475.5703,1220.8516 Q476.2188,1221.0156 476.7656,1221.375 Z "/><text fill="#000000" font-family="sans-serif" font-size="12" lengthAdjust="spacingAndGlyphs" textLength="34" x="488" y="1230.4102">Vector</text><line style="stroke: #A80036; stroke-width: 1.5;" x1="460" x2="524" y1="1241.5" y2="1241.5"/><line style="stroke: #A80036; stroke-width: 1.5;" x1="460" x2="524" y1="1249.5" y2="1249.5"/><!--class java.util.ArrayList--><rect fill="#FEFECE" filter="url(#fnck8ns3r8kvu)" height="48" id="java.util.ArrayList" style="stroke: #A80036; stroke-width: 1.5;" width="79" x="38.5" y="1209.5"/><ellipse cx="53.5" cy="1225.5" fill="#ADD1B2" rx="11" ry="11" style="stroke: #A80036; stroke-width: 1.0;"/><path d="M56.2656,1221.375 Q56.4219,1221.1563 56.6094,1221.0469 Q56.7969,1220.9375 57.0156,1220.9375 Q57.3906,1220.9375 57.625,1221.1953 Q57.8594,1221.4531 57.8594,1222.0625 L57.8594,1223.5156 Q57.8594,1224.125 57.625,1224.3906 Q57.3906,1224.6563 57.0156,1224.6563 Q56.6719,1224.6563 56.4688,1224.4531 Q56.2656,1224.2656 56.1563,1223.75 Q56.1094,1223.3906 55.9219,1223.2031 Q55.5938,1222.8281 54.9844,1222.6094 Q54.375,1222.3906 53.75,1222.3906 Q52.9844,1222.3906 52.3516,1222.7188 Q51.7188,1223.0469 51.2266,1223.7969 Q50.7344,1224.5469 50.7344,1225.5781 L50.7344,1226.6719 Q50.7344,1227.9063 51.625,1228.7266 Q52.5156,1229.5469 54.1094,1229.5469 Q55.0469,1229.5469 55.7031,1229.2969 Q56.0938,1229.1406 56.5156,1228.7031 Q56.7813,1228.4375 56.9297,1228.3594 Q57.0781,1228.2813 57.2813,1228.2813 Q57.6094,1228.2813 57.8672,1228.5391 Q58.125,1228.7969 58.125,1229.1406 Q58.125,1229.4844 57.7813,1229.8906 Q57.2813,1230.4688 56.4844,1230.7969 Q55.4063,1231.25 54.1094,1231.25 Q52.5938,1231.25 51.3906,1230.625 Q50.4063,1230.125 49.7188,1229.0547 Q49.0313,1227.9844 49.0313,1226.7031 L49.0313,1225.5469 Q49.0313,1224.2188 49.6484,1223.0703 Q50.2656,1221.9219 51.3594,1221.3047 Q52.4531,1220.6875 53.6875,1220.6875 Q54.4219,1220.6875 55.0703,1220.8516 Q55.7188,1221.0156 56.2656,1221.375 Z "/><text fill="#000000" font-family="sans-serif" font-size="12" lengthAdjust="spacingAndGlyphs" textLength="47" x="67.5" y="1230.4102">ArrayList</text><line style="stroke: #A80036; stroke-width: 1.5;" x1="39.5" x2="116.5" y1="1241.5" y2="1241.5"/><line style="stroke: #A80036; stroke-width: 1.5;" x1="39.5" x2="116.5" y1="1249.5" y2="1249.5"/><!--class java.util.Iterator--><rect fill="#FEFECE" filter="url(#fnck8ns3r8kvu)" height="48" id="java.util.Iterator" style="stroke: #A80036; stroke-width: 1.5;" width="70" x="153" y="1209.5"/><ellipse cx="168" cy="1225.5" fill="#ADD1B2" rx="11" ry="11" style="stroke: #A80036; stroke-width: 1.0;"/><path d="M170.7656,1221.375 Q170.9219,1221.1563 171.1094,1221.0469 Q171.2969,1220.9375 171.5156,1220.9375 Q171.8906,1220.9375 172.125,1221.1953 Q172.3594,1221.4531 172.3594,1222.0625 L172.3594,1223.5156 Q172.3594,1224.125 172.125,1224.3906 Q171.8906,1224.6563 171.5156,1224.6563 Q171.1719,1224.6563 170.9688,1224.4531 Q170.7656,1224.2656 170.6563,1223.75 Q170.6094,1223.3906 170.4219,1223.2031 Q170.0938,1222.8281 169.4844,1222.6094 Q168.875,1222.3906 168.25,1222.3906 Q167.4844,1222.3906 166.8516,1222.7188 Q166.2188,1223.0469 165.7266,1223.7969 Q165.2344,1224.5469 165.2344,1225.5781 L165.2344,1226.6719 Q165.2344,1227.9063 166.125,1228.7266 Q167.0156,1229.5469 168.6094,1229.5469 Q169.5469,1229.5469 170.2031,1229.2969 Q170.5938,1229.1406 171.0156,1228.7031 Q171.2813,1228.4375 171.4297,1228.3594 Q171.5781,1228.2813 171.7813,1228.2813 Q172.1094,1228.2813 172.3672,1228.5391 Q172.625,1228.7969 172.625,1229.1406 Q172.625,1229.4844 172.2813,1229.8906 Q171.7813,1230.4688 170.9844,1230.7969 Q169.9063,1231.25 168.6094,1231.25 Q167.0938,1231.25 165.8906,1230.625 Q164.9063,1230.125 164.2188,1229.0547 Q163.5313,1227.9844 163.5313,1226.7031 L163.5313,1225.5469 Q163.5313,1224.2188 164.1484,1223.0703 Q164.7656,1221.9219 165.8594,1221.3047 Q166.9531,1220.6875 168.1875,1220.6875 Q168.9219,1220.6875 169.5703,1220.8516 Q170.2188,1221.0156 170.7656,1221.375 Z "/><text fill="#000000" font-family="sans-serif" font-size="12" lengthAdjust="spacingAndGlyphs" textLength="38" x="182" y="1230.4102">Iterator</text><line style="stroke: #A80036; stroke-width: 1.5;" x1="154" x2="222" y1="1241.5" y2="1241.5"/><line style="stroke: #A80036; stroke-width: 1.5;" x1="154" x2="222" y1="1249.5" y2="1249.5"/><!--class java.io.PrintStream--><rect fill="#FEFECE" filter="url(#fnck8ns3r8kvu)" height="48" id="java.io.PrintStream" style="stroke: #A80036; stroke-width: 1.5;" width="97" x="581.5" y="1209.5"/><ellipse cx="596.5" cy="1225.5" fill="#ADD1B2" rx="11" ry="11" style="stroke: #A80036; stroke-width: 1.0;"/><path d="M599.2656,1221.375 Q599.4219,1221.1563 599.6094,1221.0469 Q599.7969,1220.9375 600.0156,1220.9375 Q600.3906,1220.9375 600.625,1221.1953 Q600.8594,1221.4531 600.8594,1222.0625 L600.8594,1223.5156 Q600.8594,1224.125 600.625,1224.3906 Q600.3906,1224.6563 600.0156,1224.6563 Q599.6719,1224.6563 599.4688,1224.4531 Q599.2656,1224.2656 599.1563,1223.75 Q599.1094,1223.3906 598.9219,1223.2031 Q598.5938,1222.8281 597.9844,1222.6094 Q597.375,1222.3906 596.75,1222.3906 Q595.9844,1222.3906 595.3516,1222.7188 Q594.7188,1223.0469 594.2266,1223.7969 Q593.7344,1224.5469 593.7344,1225.5781 L593.7344,1226.6719 Q593.7344,1227.9063 594.625,1228.7266 Q595.5156,1229.5469 597.1094,1229.5469 Q598.0469,1229.5469 598.7031,1229.2969 Q599.0938,1229.1406 599.5156,1228.7031 Q599.7813,1228.4375 599.9297,1228.3594 Q600.0781,1228.2813 600.2813,1228.2813 Q600.6094,1228.2813 600.8672,1228.5391 Q601.125,1228.7969 601.125,1229.1406 Q601.125,1229.4844 600.7813,1229.8906 Q600.2813,1230.4688 599.4844,1230.7969 Q598.4063,1231.25 597.1094,1231.25 Q595.5938,1231.25 594.3906,1230.625 Q593.4063,1230.125 592.7188,1229.0547 Q592.0313,1227.9844 592.0313,1226.7031 L592.0313,1225.5469 Q592.0313,1224.2188 592.6484,1223.0703 Q593.2656,1221.9219 594.3594,1221.3047 Q595.4531,1220.6875 596.6875,1220.6875 Q597.4219,1220.6875 598.0703,1220.8516 Q598.7188,1221.0156 599.2656,1221.375 Z "/><text fill="#000000" font-family="sans-serif" font-size="12" lengthAdjust="spacingAndGlyphs" textLength="65" x="610.5" y="1230.4102">PrintStream</text><line style="stroke: #A80036; stroke-width: 1.5;" x1="582.5" x2="677.5" y1="1241.5" y2="1241.5"/><line style="stroke: #A80036; stroke-width: 1.5;" x1="582.5" x2="677.5" y1="1249.5" y2="1249.5"/><!--class java.io.OutputStream--><rect fill="#FEFECE" filter="url(#fnck8ns3r8kvu)" height="48" id="java.io.OutputStream" style="stroke: #A80036; stroke-width: 1.5;" width="108" x="907" y="1209.5"/><ellipse cx="922" cy="1225.5" fill="#ADD1B2" rx="11" ry="11" style="stroke: #A80036; stroke-width: 1.0;"/><path d="M924.7656,1221.375 Q924.9219,1221.1563 925.1094,1221.0469 Q925.2969,1220.9375 925.5156,1220.9375 Q925.8906,1220.9375 926.125,1221.1953 Q926.3594,1221.4531 926.3594,1222.0625 L926.3594,1223.5156 Q926.3594,1224.125 926.125,1224.3906 Q925.8906,1224.6563 925.5156,1224.6563 Q925.1719,1224.6563 924.9688,1224.4531 Q924.7656,1224.2656 924.6563,1223.75 Q924.6094,1223.3906 924.4219,1223.2031 Q924.0938,1222.8281 923.4844,1222.6094 Q922.875,1222.3906 922.25,1222.3906 Q921.4844,1222.3906 920.8516,1222.7188 Q920.2188,1223.0469 919.7266,1223.7969 Q919.2344,1224.5469 919.2344,1225.5781 L919.2344,1226.6719 Q919.2344,1227.9063 920.125,1228.7266 Q921.0156,1229.5469 922.6094,1229.5469 Q923.5469,1229.5469 924.2031,1229.2969 Q924.5938,1229.1406 925.0156,1228.7031 Q925.2813,1228.4375 925.4297,1228.3594 Q925.5781,1228.2813 925.7813,1228.2813 Q926.1094,1228.2813 926.3672,1228.5391 Q926.625,1228.7969 926.625,1229.1406 Q926.625,1229.4844 926.2813,1229.8906 Q925.7813,1230.4688 924.9844,1230.7969 Q923.9063,1231.25 922.6094,1231.25 Q921.0938,1231.25 919.8906,1230.625 Q918.9063,1230.125 918.2188,1229.0547 Q917.5313,1227.9844 917.5313,1226.7031 L917.5313,1225.5469 Q917.5313,1224.2188 918.1484,1223.0703 Q918.7656,1221.9219 919.8594,1221.3047 Q920.9531,1220.6875 922.1875,1220.6875 Q922.9219,1220.6875 923.5703,1220.8516 Q924.2188,1221.0156 924.7656,1221.375 Z "/><text fill="#000000" font-family="sans-serif" font-size="12" lengthAdjust="spacingAndGlyphs" textLength="76" x="936" y="1230.4102">OutputStream</text><line style="stroke: #A80036; stroke-width: 1.5;" x1="908" x2="1014" y1="1241.5" y2="1241.5"/><line style="stroke: #A80036; stroke-width: 1.5;" x1="908" x2="1014" y1="1249.5" y2="1249.5"/><!--class java.io.ByteArrayOutputStream--><rect fill="#FEFECE" filter="url(#fnck8ns3r8kvu)" height="48" id="java.io.ByteArrayOutputStream" style="stroke: #A80036; stroke-width: 1.5;" width="158" x="714" y="1209.5"/><ellipse cx="729" cy="1225.5" fill="#ADD1B2" rx="11" ry="11" style="stroke: #A80036; stroke-width: 1.0;"/><path d="M731.7656,1221.375 Q731.9219,1221.1563 732.1094,1221.0469 Q732.2969,1220.9375 732.5156,1220.9375 Q732.8906,1220.9375 733.125,1221.1953 Q733.3594,1221.4531 733.3594,1222.0625 L733.3594,1223.5156 Q733.3594,1224.125 733.125,1224.3906 Q732.8906,1224.6563 732.5156,1224.6563 Q732.1719,1224.6563 731.9688,1224.4531 Q731.7656,1224.2656 731.6563,1223.75 Q731.6094,1223.3906 731.4219,1223.2031 Q731.0938,1222.8281 730.4844,1222.6094 Q729.875,1222.3906 729.25,1222.3906 Q728.4844,1222.3906 727.8516,1222.7188 Q727.2188,1223.0469 726.7266,1223.7969 Q726.2344,1224.5469 726.2344,1225.5781 L726.2344,1226.6719 Q726.2344,1227.9063 727.125,1228.7266 Q728.0156,1229.5469 729.6094,1229.5469 Q730.5469,1229.5469 731.2031,1229.2969 Q731.5938,1229.1406 732.0156,1228.7031 Q732.2813,1228.4375 732.4297,1228.3594 Q732.5781,1228.2813 732.7813,1228.2813 Q733.1094,1228.2813 733.3672,1228.5391 Q733.625,1228.7969 733.625,1229.1406 Q733.625,1229.4844 733.2813,1229.8906 Q732.7813,1230.4688 731.9844,1230.7969 Q730.9063,1231.25 729.6094,1231.25 Q728.0938,1231.25 726.8906,1230.625 Q725.9063,1230.125 725.2188,1229.0547 Q724.5313,1227.9844 724.5313,1226.7031 L724.5313,1225.5469 Q724.5313,1224.2188 725.1484,1223.0703 Q725.7656,1221.9219 726.8594,1221.3047 Q727.9531,1220.6875 729.1875,1220.6875 Q729.9219,1220.6875 730.5703,1220.8516 Q731.2188,1221.0156 731.7656,1221.375 Z "/><text fill="#000000" font-family="sans-serif" font-size="12" lengthAdjust="spacingAndGlyphs" textLength="126" x="743" y="1230.4102">ByteArrayOutputStream</text><line style="stroke: #A80036; stroke-width: 1.5;" x1="715" x2="871" y1="1241.5" y2="1241.5"/><line style="stroke: #A80036; stroke-width: 1.5;" x1="715" x2="871" y1="1249.5" y2="1249.5"/><!--class void--><rect fill="#FEFECE" filter="url(#fnck8ns3r8kvu)" height="48" id="void" style="stroke: #A80036; stroke-width: 1.5;" width="54" x="1186" y="1933"/><ellipse cx="1201" cy="1949" fill="#ADD1B2" rx="11" ry="11" style="stroke: #A80036; stroke-width: 1.0;"/><path d="M1203.7656,1944.875 Q1203.9219,1944.6563 1204.1094,1944.5469 Q1204.2969,1944.4375 1204.5156,1944.4375 Q1204.8906,1944.4375 1205.125,1944.6953 Q1205.3594,1944.9531 1205.3594,1945.5625 L1205.3594,1947.0156 Q1205.3594,1947.625 1205.125,1947.8906 Q1204.8906,1948.1563 1204.5156,1948.1563 Q1204.1719,1948.1563 1203.9688,1947.9531 Q1203.7656,1947.7656 1203.6563,1947.25 Q1203.6094,1946.8906 1203.4219,1946.7031 Q1203.0938,1946.3281 1202.4844,1946.1094 Q1201.875,1945.8906 1201.25,1945.8906 Q1200.4844,1945.8906 1199.8516,1946.2188 Q1199.2188,1946.5469 1198.7266,1947.2969 Q1198.2344,1948.0469 1198.2344,1949.0781 L1198.2344,1950.1719 Q1198.2344,1951.4063 1199.125,1952.2266 Q1200.0156,1953.0469 1201.6094,1953.0469 Q1202.5469,1953.0469 1203.2031,1952.7969 Q1203.5938,1952.6406 1204.0156,1952.2031 Q1204.2813,1951.9375 1204.4297,1951.8594 Q1204.5781,1951.7813 1204.7813,1951.7813 Q1205.1094,1951.7813 1205.3672,1952.0391 Q1205.625,1952.2969 1205.625,1952.6406 Q1205.625,1952.9844 1205.2813,1953.3906 Q1204.7813,1953.9688 1203.9844,1954.2969 Q1202.9063,1954.75 1201.6094,1954.75 Q1200.0938,1954.75 1198.8906,1954.125 Q1197.9063,1953.625 1197.2188,1952.5547 Q1196.5313,1951.4844 1196.5313,1950.2031 L1196.5313,1949.0469 Q1196.5313,1947.7188 1197.1484,1946.5703 Q1197.7656,1945.4219 1198.8594,1944.8047 Q1199.9531,1944.1875 1201.1875,1944.1875 Q1201.9219,1944.1875 1202.5703,1944.3516 Q1203.2188,1944.5156 1203.7656,1944.875 Z "/><text fill="#000000" font-family="sans-serif" font-size="12" lengthAdjust="spacingAndGlyphs" textLength="22" x="1215" y="1953.9102">void</text><line style="stroke: #A80036; stroke-width: 1.5;" x1="1187" x2="1239" y1="1965" y2="1965"/><line style="stroke: #A80036; stroke-width: 1.5;" x1="1187" x2="1239" y1="1973" y2="1973"/><!--link problem.client.App to java.io.PrintStream--><path d="M674,143.19 C674,143.19 674,1204.426 674,1204.426 " fill="none" id="problem.client.App-java.io.PrintStream" style="stroke: #A80036; stroke-width: 1.0; stroke-dasharray: 7.0,7.0;"/><polygon fill="#A80036" points="674,1209.426,678,1200.426,674,1204.426,670,1200.426,674,1209.426" style="stroke: #A80036; stroke-width: 1.0;"/><text fill="#000000" font-family="sans-serif" font-size="13" lengthAdjust="spacingAndGlyphs" textLength="7" x="677.3781" y="1198.7472">1</text><!--link problem.lib.LinearTransformerTest to problem.lib.LinearTransformer--><path d="M1063,355.22 C1063,355.22 1063,416.3 1063,416.3 " fill="none" id="problem.lib.LinearTransformerTest-problem.lib.LinearTransformer" style="stroke: #A80036; stroke-width: 1.0;"/><polygon fill="#A80036" points="1063,421.3,1067,412.3,1063,416.3,1059,412.3,1063,421.3" style="stroke: #A80036; stroke-width: 1.0;"/><text fill="#000000" font-family="sans-serif" font-size="13" lengthAdjust="spacingAndGlyphs" textLength="7" x="1055.4641" y="410.7135">1</text><!--link problem.lib.LinearTransformerTest to java.lang.StringBuffer--><path d="M1249.42,319 C1327.86,319 1406,319 1406,319 C1406,319 1406,1204.039 1406,1204.039 " fill="none" id="problem.lib.LinearTransformerTest-java.lang.StringBuffer" style="stroke: #A80036; stroke-width: 1.0; stroke-dasharray: 7.0,7.0;"/><polygon fill="#A80036" points="1406,1209.039,1410,1200.039,1406,1204.039,1402,1200.039,1406,1209.039" style="stroke: #A80036; stroke-width: 1.0;"/><text fill="#000000" font-family="sans-serif" font-size="13" lengthAdjust="spacingAndGlyphs" textLength="7" x="1398.1469" y="1198.6646">1</text><!--link problem.client.EnumerationTests to problem.client.EnumerationMaker--><path d="M463,150.25 C463,150.25 463,239.24 463,239.24 " fill="none" id="problem.client.EnumerationTests-problem.client.EnumerationMaker" style="stroke: #A80036; stroke-width: 1.0; stroke-dasharray: 7.0,7.0;"/><polygon fill="#A80036" points="463,244.24,467,235.24,463,239.24,459,235.24,463,244.24" style="stroke: #A80036; stroke-width: 1.0;"/><text fill="#000000" font-family="sans-serif" font-size="13" lengthAdjust="spacingAndGlyphs" textLength="7" x="442.5516" y="233.5556">1</text><!--link problem.lib.LinearTransformer to java.lang.StringBuilder--><path d="M1165.06,482 C1298.44,482 1515.25,482 1515.25,482 C1515.25,482 1515.25,1204.347 1515.25,1204.347 " fill="none" id="problem.lib.LinearTransformer-java.lang.StringBuilder" style="stroke: #A80036; stroke-width: 1.0; stroke-dasharray: 7.0,7.0;"/><polygon fill="#A80036" points="1515.25,1209.347,1519.25,1200.347,1515.25,1204.347,1511.25,1200.347,1515.25,1209.347" style="stroke: #A80036; stroke-width: 1.0;"/><text fill="#000000" font-family="sans-serif" font-size="13" lengthAdjust="spacingAndGlyphs" textLength="7" x="1500.7547" y="1198.648">1</text><!--link problem.lib.LinearTransformer to java.util.Enumeration--><path d="M979,511.58 C979,671.92 979,1205 979,1205 C979,1205 429.08,1205 429.08,1205 " fill="none" id="problem.lib.LinearTransformer-java.util.Enumeration" style="stroke: #A80036; stroke-width: 1.0;"/><polygon fill="#A80036" points="424.08,1205,433.08,1209,429.08,1205,433.08,1201,424.08,1205" style="stroke: #A80036; stroke-width: 1.0;"/><text fill="#000000" font-family="sans-serif" font-size="13" lengthAdjust="spacingAndGlyphs" textLength="7" x="432.0616" y="1216.6366">1</text><!--link problem.lib.LinearTransformerTest to java.util.Vector--><path d="M932.908,332 C747.312,332 464.5,332 464.5,332 C464.5,332 464.5,1204.387 464.5,1204.387 " fill="none" id="problem.lib.LinearTransformerTest-java.util.Vector" style="stroke: #A80036; stroke-width: 1.0; stroke-dasharray: 7.0,7.0;"/><polygon fill="#A80036" points="464.5,1209.387,468.5,1200.387,464.5,1204.387,460.5,1200.387,464.5,1209.387" style="stroke: #A80036; stroke-width: 1.0;"/><text fill="#000000" font-family="sans-serif" font-size="13" lengthAdjust="spacingAndGlyphs" textLength="7" x="449.5563" y="1198.6982">1</text><!--link problem.lib.LinearTransformerTest to java.lang.Object--><path d="M1207,355.15 C1207,355.15 1207,573.81 1207,573.81 " fill="none" id="problem.lib.LinearTransformerTest-java.lang.Object" style="stroke: #A80036; stroke-width: 1.0;"/><polygon fill="none" points="1214,573.81,1207,593.81,1200,573.81,1214,573.81" style="stroke: #A80036; stroke-width: 1.0;"/><!--link problem.lib.LinearTransformer to void--><path d="M1068,511.68 C1068,760.13 1068,1949 1068,1949 C1068,1949 1180.73,1949 1180.73,1949 " fill="none" id="problem.lib.LinearTransformer-void" style="stroke: #A80036; stroke-width: 1.0; stroke-dasharray: 7.0,7.0;"/><polygon fill="#A80036" points="1185.73,1949,1176.73,1945,1180.73,1949,1176.73,1953,1185.73,1949" style="stroke: #A80036; stroke-width: 1.0;"/><text fill="#000000" font-family="sans-serif" font-size="13" lengthAdjust="spacingAndGlyphs" textLength="7" x="1170.8452" y="1942.4402">1</text><!--link problem.client.App to void--><path d="M690.333,143.42 C690.333,409.29 690.333,1965 690.333,1965 C690.333,1965 1181,1965 1181,1965 " fill="none" id="problem.client.App-void" style="stroke: #A80036; stroke-width: 1.0; stroke-dasharray: 7.0,7.0;"/><polygon fill="#A80036" points="1186,1965,1177,1961,1181,1965,1177,1969,1186,1965" style="stroke: #A80036; stroke-width: 1.0;"/><text fill="#000000" font-family="sans-serif" font-size="13" lengthAdjust="spacingAndGlyphs" textLength="7" x="1171.1844" y="1962.5402">1</text><!--link problem.lib.LinearTransformer to java.io.OutputStream--><path d="M997,511.62 C997,511.62 997,1204.225 997,1204.225 " fill="none" id="problem.lib.LinearTransformer-java.io.OutputStream" style="stroke: #A80036; stroke-width: 1.0; stroke-dasharray: 7.0,7.0;"/><polygon fill="#A80036" points="997,1209.225,1001,1200.225,997,1204.225,993,1200.225,997,1209.225" style="stroke: #A80036; stroke-width: 1.0;"/><text fill="#000000" font-family="sans-serif" font-size="13" lengthAdjust="spacingAndGlyphs" textLength="7" x="998.3281" y="1198.4947">1</text><!--link problem.client.App to problem.client.EnumerationMaker--><path d="M628.833,143.08 C628.833,143.08 628.833,239.48 628.833,239.48 " fill="none" id="problem.client.App-problem.client.EnumerationMaker" style="stroke: #A80036; stroke-width: 1.0; stroke-dasharray: 7.0,7.0;"/><polygon fill="#A80036" points="628.833,244.48,632.833,235.48,628.833,239.48,624.833,235.48,628.833,244.48" style="stroke: #A80036; stroke-width: 1.0;"/><text fill="#000000" font-family="sans-serif" font-size="13" lengthAdjust="spacingAndGlyphs" textLength="7" x="638.4881" y="233.5528">1</text><!--link problem.client.EnumerationTests to java.lang.Object--><path d="M521.126,148 C715.731,148 1260.2,148 1260.2,148 C1260.2,148 1260.2,588.82 1260.2,588.82 " fill="none" id="problem.client.EnumerationTests-java.lang.Object" style="stroke: #A80036; stroke-width: 1.0; stroke-dasharray: 7.0,7.0;"/><polygon fill="#A80036" points="1260.2,593.82,1264.2,584.82,1260.2,588.82,1256.2,584.82,1260.2,593.82" style="stroke: #A80036; stroke-width: 1.0;"/><text fill="#000000" font-family="sans-serif" font-size="13" lengthAdjust="spacingAndGlyphs" textLength="7" x="1253.8145" y="582.2068">1</text><!--link problem.client.EnumerationTests to java.lang.Object--><path d="M521.019,146 C717.405,146 1271.4,146 1271.4,146 C1271.4,146 1271.4,573.82 1271.4,573.82 " fill="none" id="problem.client.EnumerationTests-java.lang.Object" style="stroke: #A80036; stroke-width: 1.0;"/><polygon fill="none" points="1278.4,573.82,1271.4,593.82,1264.4,573.82,1278.4,573.82" style="stroke: #A80036; stroke-width: 1.0;"/><!--link problem.lib.LinearTransformerTest to java.lang.StringBuilder--><path d="M1249.02,283 C1378.68,283 1541,283 1541,283 C1541,283 1541,1204.049 1541,1204.049 " fill="none" id="problem.lib.LinearTransformerTest-java.lang.StringBuilder" style="stroke: #A80036; stroke-width: 1.0; stroke-dasharray: 7.0,7.0;"/><polygon fill="#A80036" points="1541,1209.049,1545,1200.049,1541,1204.049,1537,1200.049,1541,1209.049" style="stroke: #A80036; stroke-width: 1.0;"/><text fill="#000000" font-family="sans-serif" font-size="13" lengthAdjust="spacingAndGlyphs" textLength="7" x="1533.1469" y="1198.677">1</text><!--link java.util.Enumeration to java.lang.Object--><path d="M424.216,1208 C424.216,1208 1100.74,1208 1100.74,1208 " fill="none" id="java.util.Enumeration-java.lang.Object" style="stroke: #A80036; stroke-width: 1.0;"/><polygon fill="none" points="1100.74,1201,1120.74,1208,1100.74,1215,1100.74,1201" style="stroke: #A80036; stroke-width: 1.0;"/><!--link problem.client.App to java.lang.Object--><path d="M715.61,124 C888.44,124 1282.6,124 1282.6,124 C1282.6,124 1282.6,573.72 1282.6,573.72 " fill="none" id="problem.client.App-java.lang.Object" style="stroke: #A80036; stroke-width: 1.0;"/><polygon fill="none" points="1289.6,573.72,1282.6,593.72,1275.6,573.72,1289.6,573.72" style="stroke: #A80036; stroke-width: 1.0;"/><!--link problem.client.EnumerationTests to java.util.Enumeration--><path d="M395,150.28 C395,150.28 395,1190.305 395,1190.305 " fill="none" id="problem.client.EnumerationTests-java.util.Enumeration" style="stroke: #A80036; stroke-width: 1.0; stroke-dasharray: 7.0,7.0;"/><polygon fill="#A80036" points="395,1195.305,399,1186.305,395,1190.305,391,1186.305,395,1195.305" style="stroke: #A80036; stroke-width: 1.0;"/><text fill="#000000" font-family="sans-serif" font-size="13" lengthAdjust="spacingAndGlyphs" textLength="7" x="396.9953" y="1184.6322">1</text><!--link problem.client.App to java.util.Enumeration--><path d="M669.5,143.05 C669.5,336.4 669.5,1201 669.5,1201 C669.5,1201 429.319,1201 429.319,1201 " fill="none" id="problem.client.App-java.util.Enumeration" style="stroke: #A80036; stroke-width: 1.0; stroke-dasharray: 7.0,7.0;"/><polygon fill="#A80036" points="424.319,1201,433.319,1205,429.319,1201,433.319,1197,424.319,1201" style="stroke: #A80036; stroke-width: 1.0;"/><text fill="#000000" font-family="sans-serif" font-size="13" lengthAdjust="spacingAndGlyphs" textLength="7" x="432.0513" y="1194.9184">1</text><!--link problem.client.EnumerationAdapter to java.util.Enumeration--><path d="M497.5,518.23 C497.5,685.04 497.5,1198 497.5,1198 C497.5,1198 444.29,1198 444.29,1198 " fill="none" id="problem.client.EnumerationAdapter-java.util.Enumeration" style="stroke: #A80036; stroke-width: 1.0; stroke-dasharray: 7.0,7.0;"/><polygon fill="none" points="444.29,1205,424.29,1198,444.29,1191,444.29,1205" style="stroke: #A80036; stroke-width: 1.0;"/><!--link problem.lib.LinearTransformer to java.lang.Object--><path d="M1150.33,511.62 C1150.33,511.62 1150.33,588.86 1150.33,588.86 " fill="none" id="problem.lib.LinearTransformer-java.lang.Object" style="stroke: #A80036; stroke-width: 1.0; stroke-dasharray: 7.0,7.0;"/><polygon fill="#A80036" points="1150.33,593.86,1154.33,584.86,1150.33,588.86,1146.33,584.86,1150.33,593.86" style="stroke: #A80036; stroke-width: 1.0;"/><text fill="#000000" font-family="sans-serif" font-size="13" lengthAdjust="spacingAndGlyphs" textLength="7" x="1142.3995" y="582.2474">1</text><!--link problem.lib.LinearTransformer to java.lang.Object--><path d="M1135.67,511.62 C1135.67,511.62 1135.67,573.86 1135.67,573.86 " fill="none" id="problem.lib.LinearTransformer-java.lang.Object" style="stroke: #A80036; stroke-width: 1.0;"/><polygon fill="none" points="1142.67,573.86,1135.67,593.86,1128.67,573.86,1142.67,573.86" style="stroke: #A80036; stroke-width: 1.0;"/><!--link problem.client.App to java.util.ArrayList--><path d="M592.667,143.38 C592.667,161.83 592.667,180 592.667,180 C592.667,180 78,180 78,180 C78,180 78,1204.264 78,1204.264 " fill="none" id="problem.client.App-java.util.ArrayList" style="stroke: #A80036; stroke-width: 1.0; stroke-dasharray: 7.0,7.0;"/><polygon fill="#A80036" points="78,1209.264,82,1200.264,78,1204.264,74,1200.264,78,1209.264" style="stroke: #A80036; stroke-width: 1.0;"/><text fill="#000000" font-family="sans-serif" font-size="13" lengthAdjust="spacingAndGlyphs" textLength="7" x="70.1031" y="1198.5437">1</text><!--link problem.client.EnumerationAdapter to java.lang.Object--><path d="M601.667,518.18 C601.667,660.21 601.667,1046 601.667,1046 C601.667,1046 1115.82,1046 1115.82,1046 " fill="none" id="problem.client.EnumerationAdapter-java.lang.Object" style="stroke: #A80036; stroke-width: 1.0; stroke-dasharray: 7.0,7.0;"/><polygon fill="#A80036" points="1120.82,1046,1111.82,1042,1115.82,1046,1111.82,1050,1120.82,1046" style="stroke: #A80036; stroke-width: 1.0;"/><text fill="#000000" font-family="sans-serif" font-size="13" lengthAdjust="spacingAndGlyphs" textLength="7" x="1105.8965" y="1027.3033">1</text><!--link problem.client.EnumerationAdapter to java.lang.Object--><path d="M621.833,518.19 C621.833,632.16 621.833,895 621.833,895 C621.833,895 1100.95,895 1100.95,895 " fill="none" id="problem.client.EnumerationAdapter-java.lang.Object" style="stroke: #A80036; stroke-width: 1.0;"/><polygon fill="none" points="1100.95,888,1120.95,895,1100.95,902,1100.95,888" style="stroke: #A80036; stroke-width: 1.0;"/><!--link problem.lib.LinearTransformerTest to java.lang.String--><path d="M1249.12,247 C1417.5,247 1660,247 1660,247 C1660,247 1660,1204.114 1660,1204.114 " fill="none" id="problem.lib.LinearTransformerTest-java.lang.String" style="stroke: #A80036; stroke-width: 1.0;"/><polygon fill="#A80036" points="1660,1209.114,1664,1200.114,1660,1204.114,1656,1200.114,1660,1209.114" style="stroke: #A80036; stroke-width: 1.0;"/><text fill="#000000" font-family="sans-serif" font-size="13" lengthAdjust="spacingAndGlyphs" textLength="5" x="1654.3906" y="1198.7579">*</text><!--link problem.client.EnumerationMaker to problem.client.EnumerationAdapter--><path d="M556,320.62 C556,320.62 556,409.82 556,409.82 " fill="none" id="problem.client.EnumerationMaker-problem.client.EnumerationAdapter" style="stroke: #A80036; stroke-width: 1.0; stroke-dasharray: 7.0,7.0;"/><polygon fill="#A80036" points="556,414.82,560,405.82,556,409.82,552,405.82,556,414.82" style="stroke: #A80036; stroke-width: 1.0;"/><text fill="#000000" font-family="sans-serif" font-size="13" lengthAdjust="spacingAndGlyphs" textLength="7" x="548.5297" y="404.2961">1</text><!--link problem.client.App to java.lang.String--><path d="M715.88,86 C959.409,86 1676,86 1676,86 C1676,86 1676,1204.268 1676,1204.268 " fill="none" id="problem.client.App-java.lang.String" style="stroke: #A80036; stroke-width: 1.0; stroke-dasharray: 7.0,7.0;"/><polygon fill="#A80036" points="1676,1209.268,1680,1200.268,1676,1204.268,1672,1200.268,1676,1209.268" style="stroke: #A80036; stroke-width: 1.0;"/><text fill="#000000" font-family="sans-serif" font-size="13" lengthAdjust="spacingAndGlyphs" textLength="7" x="1672.2031" y="1198.5487">1</text><!--link problem.client.EnumerationMaker to java.util.ArrayList--><path d="M404.994,270 C276.105,270 97.75,270 97.75,270 C97.75,270 97.75,1204.201 97.75,1204.201 " fill="none" id="problem.client.EnumerationMaker-java.util.ArrayList" style="stroke: #A80036; stroke-width: 1.0; stroke-dasharray: 7.0,7.0;"/><polygon fill="#A80036" points="97.75,1209.201,101.75,1200.201,97.75,1204.201,93.75,1200.201,97.75,1209.201" style="stroke: #A80036; stroke-width: 1.0;"/><text fill="#000000" font-family="sans-serif" font-size="13" lengthAdjust="spacingAndGlyphs" textLength="7" x="94.9141" y="1198.4645">1</text><!--link problem.client.EnumerationMaker to java.util.Iterator--><path d="M404.752,296 C302.154,296 176.333,296 176.333,296 C176.333,296 176.333,1204.384 176.333,1204.384 " fill="none" id="problem.client.EnumerationMaker-java.util.Iterator" style="stroke: #A80036; stroke-width: 1.0; stroke-dasharray: 7.0,7.0;"/><polygon fill="#A80036" points="176.333,1209.384,180.333,1200.384,176.333,1204.384,172.333,1200.384,176.333,1209.384" style="stroke: #A80036; stroke-width: 1.0;"/><text fill="#000000" font-family="sans-serif" font-size="13" lengthAdjust="spacingAndGlyphs" textLength="7" x="165.4465" y="1198.6944">1</text><!--link problem.client.App to java.lang.StringBuilder--><path d="M715.758,105 C941.182,105 1566.75,105 1566.75,105 C1566.75,105 1566.75,1204.408 1566.75,1204.408 " fill="none" id="problem.client.App-java.lang.StringBuilder" style="stroke: #A80036; stroke-width: 1.0; stroke-dasharray: 7.0,7.0;"/><polygon fill="#A80036" points="1566.75,1209.408,1570.75,1200.408,1566.75,1204.408,1562.75,1200.408,1566.75,1209.408" style="stroke: #A80036; stroke-width: 1.0;"/><text fill="#000000" font-family="sans-serif" font-size="13" lengthAdjust="spacingAndGlyphs" textLength="7" x="1565.4516" y="1198.7246">1</text><!--link java.lang.Object to void--><path d="M1213,1873.299 C1213,1873.299 1213,1927.973 1213,1927.973 " fill="none" id="java.lang.Object-void" style="stroke: #A80036; stroke-width: 1.0; stroke-dasharray: 7.0,7.0;"/><polygon fill="#A80036" points="1213,1932.973,1217,1923.973,1213,1927.973,1209,1923.973,1213,1932.973" style="stroke: #A80036; stroke-width: 1.0;"/><text fill="#000000" font-family="sans-serif" font-size="13" lengthAdjust="spacingAndGlyphs" textLength="7" x="1205.1031" y="1922.3062">1</text><!--link problem.lib.LinearTransformerTest to java.io.ByteArrayOutputStream--><path d="M932.802,344 C861.813,344 793.75,344 793.75,344 C793.75,344 793.75,1204.247 793.75,1204.247 " fill="none" id="problem.lib.LinearTransformerTest-java.io.ByteArrayOutputStream" style="stroke: #A80036; stroke-width: 1.0; stroke-dasharray: 7.0,7.0;"/><polygon fill="#A80036" points="793.75,1209.247,797.75,1200.247,793.75,1204.247,789.75,1200.247,793.75,1209.247" style="stroke: #A80036; stroke-width: 1.0;"/><text fill="#000000" font-family="sans-serif" font-size="13" lengthAdjust="spacingAndGlyphs" textLength="7" x="786.0453" y="1198.5223">1</text><!--link java.lang.Object to java.lang.Object--><path d="M1293.8,593.88 C1293.8,569.96 1293.8,556 1293.8,556 C1293.8,556 1331.5,556 1331.5,556 C1331.5,556 1331.5,1903 1331.5,1903 C1331.5,1903 1272.5,1903 1272.5,1903 C1272.5,1903 1272.5,1878.369 1272.5,1878.369 " fill="none" id="java.lang.Object-java.lang.Object" style="stroke: #A80036; stroke-width: 1.0; stroke-dasharray: 7.0,7.0;"/><polygon fill="#A80036" points="1272.5,1873.369,1268.5,1882.369,1272.5,1878.369,1276.5,1882.369,1272.5,1873.369" style="stroke: #A80036; stroke-width: 1.0;"/><text fill="#000000" font-family="sans-serif" font-size="13" lengthAdjust="spacingAndGlyphs" textLength="7" x="1266.1125" y="1893.9499">1</text><!--link problem.client.EnumerationAdapter to java.util.Iterator--><path d="M469.742,467 C364.284,467 199.667,467 199.667,467 C199.667,467 199.667,1204.294 199.667,1204.294 " fill="none" id="problem.client.EnumerationAdapter-java.util.Iterator" style="stroke: #A80036; stroke-width: 1.0;"/><polygon fill="#A80036" points="199.667,1209.294,203.667,1200.294,199.667,1204.294,195.667,1200.294,199.667,1209.294" style="stroke: #A80036; stroke-width: 1.0;"/><text fill="#000000" font-family="sans-serif" font-size="13" lengthAdjust="spacingAndGlyphs" textLength="7" x="194.7598" y="1198.5814">1</text><!--link problem.client.EnumerationTests to java.util.ArrayList--><path d="M384.69,105 C271.708,105 58.25,105 58.25,105 C58.25,105 58.25,1204.408 58.25,1204.408 " fill="none" id="problem.client.EnumerationTests-java.util.ArrayList" style="stroke: #A80036; stroke-width: 1.0; stroke-dasharray: 7.0,7.0;"/><polygon fill="#A80036" points="58.25,1209.408,62.25,1200.408,58.25,1204.408,54.25,1200.408,58.25,1209.408" style="stroke: #A80036; stroke-width: 1.0;"/><text fill="#000000" font-family="sans-serif" font-size="13" lengthAdjust="spacingAndGlyphs" textLength="7" x="45.2922" y="1198.7246">1</text><!--link problem.lib.LinearTransformerTest to java.util.Enumeration--><path d="M947,355.11 C947,572.47 947,1203 947,1203 C947,1203 429.308,1203 429.308,1203 " fill="none" id="problem.lib.LinearTransformerTest-java.util.Enumeration" style="stroke: #A80036; stroke-width: 1.0; stroke-dasharray: 7.0,7.0;"/><polygon fill="#A80036" points="424.308,1203,433.308,1207,429.308,1203,433.308,1199,424.308,1203" style="stroke: #A80036; stroke-width: 1.0;"/><text fill="#000000" font-family="sans-serif" font-size="13" lengthAdjust="spacingAndGlyphs" textLength="7" x="432.0226" y="1193.4593">1</text><!--link problem.client.EnumerationMaker to java.lang.Object--><path d="M653.5,320.74 C653.5,431.55 653.5,745 653.5,745 C653.5,745 1100.92,745 1100.92,745 " fill="none" id="problem.client.EnumerationMaker-java.lang.Object" style="stroke: #A80036; stroke-width: 1.0;"/><polygon fill="none" points="1100.92,738,1120.92,745,1100.92,752,1100.92,738" style="stroke: #A80036; stroke-width: 1.0;"/><!--link problem.client.App to problem.lib.LinearTransformer--><path d="M702.167,143.06 C702.167,236 702.167,467 702.167,467 C702.167,467 955.565,467 955.565,467 " fill="none" id="problem.client.App-problem.lib.LinearTransformer" style="stroke: #A80036; stroke-width: 1.0; stroke-dasharray: 7.0,7.0;"/><polygon fill="#A80036" points="960.565,467,951.565,463,955.565,467,951.565,471,960.565,467" style="stroke: #A80036; stroke-width: 1.0;"/><text fill="#000000" font-family="sans-serif" font-size="13" lengthAdjust="spacingAndGlyphs" textLength="7" x="946.1164" y="463.9974">1</text><!--link problem.lib.LinearTransformer to java.lang.String--><path d="M1165.2,452 C1331.91,452 1644,452 1644,452 C1644,452 1644,1204.254 1644,1204.254 " fill="none" id="problem.lib.LinearTransformer-java.lang.String" style="stroke: #A80036; stroke-width: 1.0; stroke-dasharray: 7.0,7.0;"/><polygon fill="#A80036" points="1644,1209.254,1648,1200.254,1644,1204.254,1640,1200.254,1644,1209.254" style="stroke: #A80036; stroke-width: 1.0;"/><text fill="#000000" font-family="sans-serif" font-size="13" lengthAdjust="spacingAndGlyphs" textLength="7" x="1632.0031" y="1198.5311">1</text></g></svg>