<?xml version="1.0" encoding="UTF-8" standalone="no"?><svg xmlns="http://www.w3.org/2000/svg" xmlns:xlink="http://www.w3.org/1999/xlink" contentScriptType="application/ecmascript" contentStyleType="text/css" height="809px" preserveAspectRatio="none" style="width:4326px;height:809px;" version="1.1" viewBox="0 0 4326 809" width="4326px" zoomAndPan="magnify"><defs><filter height="300%" id="fgpzr7wi08v5i" width="300%" x="-1" y="-1"><feGaussianBlur result="blurOut" stdDeviation="2.0"/><feColorMatrix in="blurOut" result="blurOut2" type="matrix" values="0 0 0 0 0 0 0 0 0 0 0 0 0 0 0 0 0 0 .4 0"/><feOffset dx="4.0" dy="4.0" in="blurOut2" result="blurOut3"/><feBlend in="SourceGraphic" in2="blurOut3" mode="normal"/></filter></defs><g><!--cluster part2--><polygon fill="#FFFFFF" filter="url(#fgpzr7wi08v5i)" points="22,24.5,64,24.5,71,48.1094,1950,48.1094,1950,478.5,22,478.5,22,24.5" style="stroke: #000000; stroke-width: 1.5;"/><line style="stroke: #000000; stroke-width: 1.5;" x1="22" x2="71" y1="48.1094" y2="48.1094"/><text fill="#000000" font-family="sans-serif" font-size="14" font-weight="bold" lengthAdjust="spacingAndGlyphs" textLength="36" x="26" y="41.0332">part2</text><!--cluster client--><polygon fill="#FFFFFF" filter="url(#fgpzr7wi08v5i)" points="3309,24.5,3354,24.5,3361,48.1094,3501,48.1094,3501,152.5,3309,152.5,3309,24.5" style="stroke: #000000; stroke-width: 1.5;"/><line style="stroke: #000000; stroke-width: 1.5;" x1="3309" x2="3361" y1="48.1094" y2="48.1094"/><text fill="#000000" font-family="sans-serif" font-size="14" font-weight="bold" lengthAdjust="spacingAndGlyphs" textLength="39" x="3313" y="41.0332">client</text><!--cluster part1--><polygon fill="#FFFFFF" filter="url(#fgpzr7wi08v5i)" points="1974,176.5,2016,176.5,2023,200.1094,4304,200.1094,4304,665,1974,665,1974,176.5" style="stroke: #000000; stroke-width: 1.5;"/><line style="stroke: #000000; stroke-width: 1.5;" x1="1974" x2="2023" y1="200.1094" y2="200.1094"/><text fill="#000000" font-family="sans-serif" font-size="14" font-weight="bold" lengthAdjust="spacingAndGlyphs" textLength="36" x="1978" y="193.0332">part1</text><!--cluster edu.rosehulman.csse374.cheesecake--><polygon fill="#FFFFFF" filter="url(#fgpzr7wi08v5i)" points="3212,689,3482,689,3489,712.6094,3709,712.6094,3709,797,3212,797,3212,689" style="stroke: #000000; stroke-width: 1.5;"/><line style="stroke: #000000; stroke-width: 1.5;" x1="3212" x2="3489" y1="712.6094" y2="712.6094"/><text fill="#000000" font-family="sans-serif" font-size="14" font-weight="bold" lengthAdjust="spacingAndGlyphs" textLength="264" x="3216" y="705.5332">edu.rosehulman.csse374.cheesecake</text><!--class part2.main--><rect fill="#FEFECE" filter="url(#fgpzr7wi08v5i)" height="75.6719" id="part2.main" style="stroke: #A80036; stroke-width: 1.5;" width="159" x="1665.5" y="60.5"/><ellipse cx="1726.75" cy="76.5" fill="#ADD1B2" rx="11" ry="11" style="stroke: #A80036; stroke-width: 1.0;"/><path d="M1729.5156,72.375 Q1729.6719,72.1563 1729.8594,72.0469 Q1730.0469,71.9375 1730.2656,71.9375 Q1730.6406,71.9375 1730.875,72.1953 Q1731.1094,72.4531 1731.1094,73.0625 L1731.1094,74.5156 Q1731.1094,75.125 1730.875,75.3906 Q1730.6406,75.6563 1730.2656,75.6563 Q1729.9219,75.6563 1729.7188,75.4531 Q1729.5156,75.2656 1729.4063,74.75 Q1729.3594,74.3906 1729.1719,74.2031 Q1728.8438,73.8281 1728.2344,73.6094 Q1727.625,73.3906 1727,73.3906 Q1726.2344,73.3906 1725.6016,73.7188 Q1724.9688,74.0469 1724.4766,74.7969 Q1723.9844,75.5469 1723.9844,76.5781 L1723.9844,77.6719 Q1723.9844,78.9063 1724.875,79.7266 Q1725.7656,80.5469 1727.3594,80.5469 Q1728.2969,80.5469 1728.9531,80.2969 Q1729.3438,80.1406 1729.7656,79.7031 Q1730.0313,79.4375 1730.1797,79.3594 Q1730.3281,79.2813 1730.5313,79.2813 Q1730.8594,79.2813 1731.1172,79.5391 Q1731.375,79.7969 1731.375,80.1406 Q1731.375,80.4844 1731.0313,80.8906 Q1730.5313,81.4688 1729.7344,81.7969 Q1728.6563,82.25 1727.3594,82.25 Q1725.8438,82.25 1724.6406,81.625 Q1723.6563,81.125 1722.9688,80.0547 Q1722.2813,78.9844 1722.2813,77.7031 L1722.2813,76.5469 Q1722.2813,75.2188 1722.8984,74.0703 Q1723.5156,72.9219 1724.6094,72.3047 Q1725.7031,71.6875 1726.9375,71.6875 Q1727.6719,71.6875 1728.3203,71.8516 Q1728.9688,72.0156 1729.5156,72.375 Z "/><text fill="#000000" font-family="sans-serif" font-size="12" lengthAdjust="spacingAndGlyphs" textLength="28" x="1747.25" y="81.4102">main</text><line style="stroke: #A80036; stroke-width: 1.5;" x1="1666.5" x2="1823.5" y1="92.5" y2="92.5"/><line style="stroke: #A80036; stroke-width: 1.5;" x1="1666.5" x2="1823.5" y1="100.5" y2="100.5"/><ellipse cx="1676.5" cy="112.918" fill="#84BE84" rx="3" ry="3" style="stroke: #038048; stroke-width: 1.0;"/><text fill="#000000" font-family="sans-serif" font-size="11" lengthAdjust="spacingAndGlyphs" textLength="56" x="1685.5" y="115.9189">void &lt;init&gt;()</text><ellipse cx="1676.5" cy="126.7539" fill="#84BE84" rx="3" ry="3" style="stroke: #038048; stroke-width: 1.0;"/><text fill="#000000" font-family="sans-serif" font-size="11" lengthAdjust="spacingAndGlyphs" text-decoration="underline" textLength="133" x="1685.5" y="129.7549">void main(java.lang.String[])</text><line style="stroke: #000000; stroke-width: 1.0;" x1="1685.5" x2="1818.5" y1="131.7549" y2="131.7549"/><!--class part2.CandyAdder--><rect fill="#FEFECE" filter="url(#fgpzr7wi08v5i)" height="61.8359" id="part2.CandyAdder" style="stroke: #A80036; stroke-width: 1.5;" width="613" x="546.5" y="396.5"/><ellipse cx="814.25" cy="412.5" fill="#B4A7E5" rx="11" ry="11" style="stroke: #A80036; stroke-width: 1.0;"/><path d="M815.2031,409.1406 L815.2031,415.7969 L816.9219,415.7969 Q817.5313,415.7969 817.7969,416.0313 Q818.0625,416.2656 818.0625,416.6563 Q818.0625,417.0313 817.7969,417.2656 Q817.5313,417.5 816.9219,417.5 L811.7813,417.5 Q811.1719,417.5 810.9063,417.2656 Q810.6406,417.0313 810.6406,416.6406 Q810.6406,416.2656 810.9063,416.0313 Q811.1719,415.7969 811.7813,415.7969 L813.5,415.7969 L813.5,409.1406 L811.7813,409.1406 Q811.1719,409.1406 810.9063,408.9063 Q810.6406,408.6719 810.6406,408.2813 Q810.6406,407.9063 810.9063,407.6719 Q811.1719,407.4375 811.7813,407.4375 L816.9219,407.4375 Q817.5313,407.4375 817.7969,407.6719 Q818.0625,407.9063 818.0625,408.2813 Q818.0625,408.6719 817.7969,408.9063 Q817.5313,409.1406 816.9219,409.1406 L815.2031,409.1406 Z "/><text fill="#000000" font-family="sans-serif" font-size="12" font-style="italic" lengthAdjust="spacingAndGlyphs" textLength="69" x="834.75" y="417.4102">CandyAdder</text><line style="stroke: #A80036; stroke-width: 1.5;" x1="547.5" x2="1158.5" y1="428.5" y2="428.5"/><line style="stroke: #A80036; stroke-width: 1.5;" x1="547.5" x2="1158.5" y1="436.5" y2="436.5"/><ellipse cx="557.5" cy="448.918" fill="#84BE84" rx="3" ry="3" style="stroke: #038048; stroke-width: 1.0;"/><text fill="#000000" font-family="sans-serif" font-size="11" font-style="italic" lengthAdjust="spacingAndGlyphs" textLength="587" x="566.5" y="451.9189">edu.rosehulman.csse374.cheesecake.PlainCheeseCake add(edu.rosehulman.csse374.cheesecake.PlainCheeseCake)</text><!--class part2.CandyCheeseCakeFactory--><rect fill="#FEFECE" filter="url(#fgpzr7wi08v5i)" height="103.3438" id="part2.CandyCheeseCakeFactory" style="stroke: #A80036; stroke-width: 1.5;" width="635" x="38.5" y="206"/><ellipse cx="278.25" cy="222" fill="#ADD1B2" rx="11" ry="11" style="stroke: #A80036; stroke-width: 1.0;"/><path d="M281.0156,217.875 Q281.1719,217.6563 281.3594,217.5469 Q281.5469,217.4375 281.7656,217.4375 Q282.1406,217.4375 282.375,217.6953 Q282.6094,217.9531 282.6094,218.5625 L282.6094,220.0156 Q282.6094,220.625 282.375,220.8906 Q282.1406,221.1563 281.7656,221.1563 Q281.4219,221.1563 281.2188,220.9531 Q281.0156,220.7656 280.9063,220.25 Q280.8594,219.8906 280.6719,219.7031 Q280.3438,219.3281 279.7344,219.1094 Q279.125,218.8906 278.5,218.8906 Q277.7344,218.8906 277.1016,219.2188 Q276.4688,219.5469 275.9766,220.2969 Q275.4844,221.0469 275.4844,222.0781 L275.4844,223.1719 Q275.4844,224.4063 276.375,225.2266 Q277.2656,226.0469 278.8594,226.0469 Q279.7969,226.0469 280.4531,225.7969 Q280.8438,225.6406 281.2656,225.2031 Q281.5313,224.9375 281.6797,224.8594 Q281.8281,224.7813 282.0313,224.7813 Q282.3594,224.7813 282.6172,225.0391 Q282.875,225.2969 282.875,225.6406 Q282.875,225.9844 282.5313,226.3906 Q282.0313,226.9688 281.2344,227.2969 Q280.1563,227.75 278.8594,227.75 Q277.3438,227.75 276.1406,227.125 Q275.1563,226.625 274.4688,225.5547 Q273.7813,224.4844 273.7813,223.2031 L273.7813,222.0469 Q273.7813,220.7188 274.3984,219.5703 Q275.0156,218.4219 276.1094,217.8047 Q277.2031,217.1875 278.4375,217.1875 Q279.1719,217.1875 279.8203,217.3516 Q280.4688,217.5156 281.0156,217.875 Z "/><text fill="#000000" font-family="sans-serif" font-size="12" lengthAdjust="spacingAndGlyphs" textLength="147" x="298.75" y="226.9102">CandyCheeseCakeFactory</text><line style="stroke: #A80036; stroke-width: 1.5;" x1="39.5" x2="672.5" y1="238" y2="238"/><rect fill="none" height="6" style="stroke: #C82930; stroke-width: 1.0;" width="6" x="46.5" y="247.418"/><text fill="#000000" font-family="sans-serif" font-size="11" lengthAdjust="spacingAndGlyphs" textLength="354" x="58.5" y="253.4189">edu.rosehulman.csse374.cheesecake.CheeseCakeFactory cheeseCakes</text><rect fill="none" height="6" style="stroke: #C82930; stroke-width: 1.0;" width="6" x="46.5" y="261.2539"/><text fill="#000000" font-family="sans-serif" font-size="11" lengthAdjust="spacingAndGlyphs" textLength="278" x="58.5" y="267.2549">java.util.Map&lt;java.lang.String,part2.CandyAdder&gt; candies</text><line style="stroke: #A80036; stroke-width: 1.5;" x1="39.5" x2="672.5" y1="273.6719" y2="273.6719"/><ellipse cx="49.5" cy="286.0898" fill="#84BE84" rx="3" ry="3" style="stroke: #038048; stroke-width: 1.0;"/><text fill="#000000" font-family="sans-serif" font-size="11" lengthAdjust="spacingAndGlyphs" textLength="609" x="58.5" y="289.0908">void &lt;init&gt;(java.util.Map&lt;java.lang.String,part1.CustomCheeseCakeFactory&gt;, java.util.Map&lt;java.lang.String,part2.CandyAdder&gt;)</text><ellipse cx="49.5" cy="299.9258" fill="#84BE84" rx="3" ry="3" style="stroke: #038048; stroke-width: 1.0;"/><text fill="#000000" font-family="sans-serif" font-size="11" lengthAdjust="spacingAndGlyphs" textLength="447" x="58.5" y="302.9268">edu.rosehulman.csse374.cheesecake.PlainCheeseCake createCheeseCake(java.lang.String)</text><!--class part2.MM--><rect fill="#008000" filter="url(#fgpzr7wi08v5i)" height="70.0234" id="part2.MM" style="stroke: #A80036; stroke-width: 1.5;" width="352" x="1582" y="392.5"/><rect fill="#008000" height="40.1875" style="stroke: #A80036; stroke-width: 1.5;" width="352" x="1582" y="392.5"/><ellipse cx="1722.75" cy="412.5938" fill="#ADD1B2" rx="11" ry="11" style="stroke: #A80036; stroke-width: 1.0;"/><path d="M1725.5156,408.4688 Q1725.6719,408.25 1725.8594,408.1406 Q1726.0469,408.0313 1726.2656,408.0313 Q1726.6406,408.0313 1726.875,408.2891 Q1727.1094,408.5469 1727.1094,409.1563 L1727.1094,410.6094 Q1727.1094,411.2188 1726.875,411.4844 Q1726.6406,411.75 1726.2656,411.75 Q1725.9219,411.75 1725.7188,411.5469 Q1725.5156,411.3594 1725.4063,410.8438 Q1725.3594,410.4844 1725.1719,410.2969 Q1724.8438,409.9219 1724.2344,409.7031 Q1723.625,409.4844 1723,409.4844 Q1722.2344,409.4844 1721.6016,409.8125 Q1720.9688,410.1406 1720.4766,410.8906 Q1719.9844,411.6406 1719.9844,412.6719 L1719.9844,413.7656 Q1719.9844,415 1720.875,415.8203 Q1721.7656,416.6406 1723.3594,416.6406 Q1724.2969,416.6406 1724.9531,416.3906 Q1725.3438,416.2344 1725.7656,415.7969 Q1726.0313,415.5313 1726.1797,415.4531 Q1726.3281,415.375 1726.5313,415.375 Q1726.8594,415.375 1727.1172,415.6328 Q1727.375,415.8906 1727.375,416.2344 Q1727.375,416.5781 1727.0313,416.9844 Q1726.5313,417.5625 1725.7344,417.8906 Q1724.6563,418.3438 1723.3594,418.3438 Q1721.8438,418.3438 1720.6406,417.7188 Q1719.6563,417.2188 1718.9688,416.1484 Q1718.2813,415.0781 1718.2813,413.7969 L1718.2813,412.6406 Q1718.2813,411.3125 1718.8984,410.1641 Q1719.5156,409.0156 1720.6094,408.3984 Q1721.7031,407.7813 1722.9375,407.7813 Q1723.6719,407.7813 1724.3203,407.9453 Q1724.9688,408.1094 1725.5156,408.4688 Z "/><text fill="#000000" font-family="sans-serif" font-size="12" font-style="italic" lengthAdjust="spacingAndGlyphs" textLength="66" x="1741.25" y="409.957">«decorator»</text><text fill="#000000" font-family="sans-serif" font-size="12" lengthAdjust="spacingAndGlyphs" textLength="18" x="1765.25" y="425.0508">MM</text><line style="stroke: #A80036; stroke-width: 1.5;" x1="1583" x2="1933" y1="432.6875" y2="432.6875"/><line style="stroke: #A80036; stroke-width: 1.5;" x1="1583" x2="1933" y1="440.6875" y2="440.6875"/><ellipse cx="1593" cy="453.1055" fill="#84BE84" rx="3" ry="3" style="stroke: #038048; stroke-width: 1.0;"/><text fill="#000000" font-family="sans-serif" font-size="11" lengthAdjust="spacingAndGlyphs" textLength="326" x="1602" y="456.1064">void &lt;init&gt;(edu.rosehulman.csse374.cheesecake.PlainCheeseCake)</text><!--class part2.MMAdder--><rect fill="#FEFECE" filter="url(#fgpzr7wi08v5i)" height="75.6719" id="part2.MMAdder" style="stroke: #A80036; stroke-width: 1.5;" width="595" x="1338.5" y="219.5"/><ellipse cx="1606.75" cy="235.5" fill="#ADD1B2" rx="11" ry="11" style="stroke: #A80036; stroke-width: 1.0;"/><path d="M1609.5156,231.375 Q1609.6719,231.1563 1609.8594,231.0469 Q1610.0469,230.9375 1610.2656,230.9375 Q1610.6406,230.9375 1610.875,231.1953 Q1611.1094,231.4531 1611.1094,232.0625 L1611.1094,233.5156 Q1611.1094,234.125 1610.875,234.3906 Q1610.6406,234.6563 1610.2656,234.6563 Q1609.9219,234.6563 1609.7188,234.4531 Q1609.5156,234.2656 1609.4063,233.75 Q1609.3594,233.3906 1609.1719,233.2031 Q1608.8438,232.8281 1608.2344,232.6094 Q1607.625,232.3906 1607,232.3906 Q1606.2344,232.3906 1605.6016,232.7188 Q1604.9688,233.0469 1604.4766,233.7969 Q1603.9844,234.5469 1603.9844,235.5781 L1603.9844,236.6719 Q1603.9844,237.9063 1604.875,238.7266 Q1605.7656,239.5469 1607.3594,239.5469 Q1608.2969,239.5469 1608.9531,239.2969 Q1609.3438,239.1406 1609.7656,238.7031 Q1610.0313,238.4375 1610.1797,238.3594 Q1610.3281,238.2813 1610.5313,238.2813 Q1610.8594,238.2813 1611.1172,238.5391 Q1611.375,238.7969 1611.375,239.1406 Q1611.375,239.4844 1611.0313,239.8906 Q1610.5313,240.4688 1609.7344,240.7969 Q1608.6563,241.25 1607.3594,241.25 Q1605.8438,241.25 1604.6406,240.625 Q1603.6563,240.125 1602.9688,239.0547 Q1602.2813,237.9844 1602.2813,236.7031 L1602.2813,235.5469 Q1602.2813,234.2188 1602.8984,233.0703 Q1603.5156,231.9219 1604.6094,231.3047 Q1605.7031,230.6875 1606.9375,230.6875 Q1607.6719,230.6875 1608.3203,230.8516 Q1608.9688,231.0156 1609.5156,231.375 Z "/><text fill="#000000" font-family="sans-serif" font-size="12" lengthAdjust="spacingAndGlyphs" textLength="50" x="1627.25" y="240.4102">MMAdder</text><line style="stroke: #A80036; stroke-width: 1.5;" x1="1339.5" x2="1932.5" y1="251.5" y2="251.5"/><line style="stroke: #A80036; stroke-width: 1.5;" x1="1339.5" x2="1932.5" y1="259.5" y2="259.5"/><ellipse cx="1349.5" cy="271.918" fill="#84BE84" rx="3" ry="3" style="stroke: #038048; stroke-width: 1.0;"/><text fill="#000000" font-family="sans-serif" font-size="11" lengthAdjust="spacingAndGlyphs" textLength="56" x="1358.5" y="274.9189">void &lt;init&gt;()</text><ellipse cx="1349.5" cy="285.7539" fill="#84BE84" rx="3" ry="3" style="stroke: #038048; stroke-width: 1.0;"/><text fill="#000000" font-family="sans-serif" font-size="11" lengthAdjust="spacingAndGlyphs" textLength="569" x="1358.5" y="288.7549">edu.rosehulman.csse374.cheesecake.PlainCheeseCake add(edu.rosehulman.csse374.cheesecake.PlainCheeseCake)</text><!--class part2.Reeses--><rect fill="#008000" filter="url(#fgpzr7wi08v5i)" height="70.0234" id="part2.Reeses" style="stroke: #A80036; stroke-width: 1.5;" width="352" x="1195" y="392.5"/><rect fill="#008000" height="40.1875" style="stroke: #A80036; stroke-width: 1.5;" width="352" x="1195" y="392.5"/><ellipse cx="1335.75" cy="412.5938" fill="#ADD1B2" rx="11" ry="11" style="stroke: #A80036; stroke-width: 1.0;"/><path d="M1338.5156,408.4688 Q1338.6719,408.25 1338.8594,408.1406 Q1339.0469,408.0313 1339.2656,408.0313 Q1339.6406,408.0313 1339.875,408.2891 Q1340.1094,408.5469 1340.1094,409.1563 L1340.1094,410.6094 Q1340.1094,411.2188 1339.875,411.4844 Q1339.6406,411.75 1339.2656,411.75 Q1338.9219,411.75 1338.7188,411.5469 Q1338.5156,411.3594 1338.4063,410.8438 Q1338.3594,410.4844 1338.1719,410.2969 Q1337.8438,409.9219 1337.2344,409.7031 Q1336.625,409.4844 1336,409.4844 Q1335.2344,409.4844 1334.6016,409.8125 Q1333.9688,410.1406 1333.4766,410.8906 Q1332.9844,411.6406 1332.9844,412.6719 L1332.9844,413.7656 Q1332.9844,415 1333.875,415.8203 Q1334.7656,416.6406 1336.3594,416.6406 Q1337.2969,416.6406 1337.9531,416.3906 Q1338.3438,416.2344 1338.7656,415.7969 Q1339.0313,415.5313 1339.1797,415.4531 Q1339.3281,415.375 1339.5313,415.375 Q1339.8594,415.375 1340.1172,415.6328 Q1340.375,415.8906 1340.375,416.2344 Q1340.375,416.5781 1340.0313,416.9844 Q1339.5313,417.5625 1338.7344,417.8906 Q1337.6563,418.3438 1336.3594,418.3438 Q1334.8438,418.3438 1333.6406,417.7188 Q1332.6563,417.2188 1331.9688,416.1484 Q1331.2813,415.0781 1331.2813,413.7969 L1331.2813,412.6406 Q1331.2813,411.3125 1331.8984,410.1641 Q1332.5156,409.0156 1333.6094,408.3984 Q1334.7031,407.7813 1335.9375,407.7813 Q1336.6719,407.7813 1337.3203,407.9453 Q1337.9688,408.1094 1338.5156,408.4688 Z "/><text fill="#000000" font-family="sans-serif" font-size="12" font-style="italic" lengthAdjust="spacingAndGlyphs" textLength="66" x="1354.25" y="409.957">«decorator»</text><text fill="#000000" font-family="sans-serif" font-size="12" lengthAdjust="spacingAndGlyphs" textLength="44" x="1365.25" y="425.0508">Reeses</text><line style="stroke: #A80036; stroke-width: 1.5;" x1="1196" x2="1546" y1="432.6875" y2="432.6875"/><line style="stroke: #A80036; stroke-width: 1.5;" x1="1196" x2="1546" y1="440.6875" y2="440.6875"/><ellipse cx="1206" cy="453.1055" fill="#84BE84" rx="3" ry="3" style="stroke: #038048; stroke-width: 1.0;"/><text fill="#000000" font-family="sans-serif" font-size="11" lengthAdjust="spacingAndGlyphs" textLength="326" x="1215" y="456.1064">void &lt;init&gt;(edu.rosehulman.csse374.cheesecake.PlainCheeseCake)</text><!--class part2.ReesesAdder--><rect fill="#FEFECE" filter="url(#fgpzr7wi08v5i)" height="75.6719" id="part2.ReesesAdder" style="stroke: #A80036; stroke-width: 1.5;" width="595" x="708.5" y="219.5"/><ellipse cx="963.75" cy="235.5" fill="#ADD1B2" rx="11" ry="11" style="stroke: #A80036; stroke-width: 1.0;"/><path d="M966.5156,231.375 Q966.6719,231.1563 966.8594,231.0469 Q967.0469,230.9375 967.2656,230.9375 Q967.6406,230.9375 967.875,231.1953 Q968.1094,231.4531 968.1094,232.0625 L968.1094,233.5156 Q968.1094,234.125 967.875,234.3906 Q967.6406,234.6563 967.2656,234.6563 Q966.9219,234.6563 966.7188,234.4531 Q966.5156,234.2656 966.4063,233.75 Q966.3594,233.3906 966.1719,233.2031 Q965.8438,232.8281 965.2344,232.6094 Q964.625,232.3906 964,232.3906 Q963.2344,232.3906 962.6016,232.7188 Q961.9688,233.0469 961.4766,233.7969 Q960.9844,234.5469 960.9844,235.5781 L960.9844,236.6719 Q960.9844,237.9063 961.875,238.7266 Q962.7656,239.5469 964.3594,239.5469 Q965.2969,239.5469 965.9531,239.2969 Q966.3438,239.1406 966.7656,238.7031 Q967.0313,238.4375 967.1797,238.3594 Q967.3281,238.2813 967.5313,238.2813 Q967.8594,238.2813 968.1172,238.5391 Q968.375,238.7969 968.375,239.1406 Q968.375,239.4844 968.0313,239.8906 Q967.5313,240.4688 966.7344,240.7969 Q965.6563,241.25 964.3594,241.25 Q962.8438,241.25 961.6406,240.625 Q960.6563,240.125 959.9688,239.0547 Q959.2813,237.9844 959.2813,236.7031 L959.2813,235.5469 Q959.2813,234.2188 959.8984,233.0703 Q960.5156,231.9219 961.6094,231.3047 Q962.7031,230.6875 963.9375,230.6875 Q964.6719,230.6875 965.3203,230.8516 Q965.9688,231.0156 966.5156,231.375 Z "/><text fill="#000000" font-family="sans-serif" font-size="12" lengthAdjust="spacingAndGlyphs" textLength="76" x="984.25" y="240.4102">ReesesAdder</text><line style="stroke: #A80036; stroke-width: 1.5;" x1="709.5" x2="1302.5" y1="251.5" y2="251.5"/><line style="stroke: #A80036; stroke-width: 1.5;" x1="709.5" x2="1302.5" y1="259.5" y2="259.5"/><ellipse cx="719.5" cy="271.918" fill="#84BE84" rx="3" ry="3" style="stroke: #038048; stroke-width: 1.0;"/><text fill="#000000" font-family="sans-serif" font-size="11" lengthAdjust="spacingAndGlyphs" textLength="56" x="728.5" y="274.9189">void &lt;init&gt;()</text><ellipse cx="719.5" cy="285.7539" fill="#84BE84" rx="3" ry="3" style="stroke: #038048; stroke-width: 1.0;"/><text fill="#000000" font-family="sans-serif" font-size="11" lengthAdjust="spacingAndGlyphs" textLength="569" x="728.5" y="288.7549">edu.rosehulman.csse374.cheesecake.PlainCheeseCake add(edu.rosehulman.csse374.cheesecake.PlainCheeseCake)</text><!--class client.CheeseCakeClient--><rect fill="#FEFECE" filter="url(#fgpzr7wi08v5i)" height="75.6719" id="client.CheeseCakeClient" style="stroke: #A80036; stroke-width: 1.5;" width="159" x="3325.5" y="60.5"/><ellipse cx="3350.4" cy="76.5" fill="#ADD1B2" rx="11" ry="11" style="stroke: #A80036; stroke-width: 1.0;"/><path d="M3353.1656,72.375 Q3353.3219,72.1563 3353.5094,72.0469 Q3353.6969,71.9375 3353.9156,71.9375 Q3354.2906,71.9375 3354.525,72.1953 Q3354.7594,72.4531 3354.7594,73.0625 L3354.7594,74.5156 Q3354.7594,75.125 3354.525,75.3906 Q3354.2906,75.6563 3353.9156,75.6563 Q3353.5719,75.6563 3353.3688,75.4531 Q3353.1656,75.2656 3353.0563,74.75 Q3353.0094,74.3906 3352.8219,74.2031 Q3352.4938,73.8281 3351.8844,73.6094 Q3351.275,73.3906 3350.65,73.3906 Q3349.8844,73.3906 3349.2516,73.7188 Q3348.6188,74.0469 3348.1266,74.7969 Q3347.6344,75.5469 3347.6344,76.5781 L3347.6344,77.6719 Q3347.6344,78.9063 3348.525,79.7266 Q3349.4156,80.5469 3351.0094,80.5469 Q3351.9469,80.5469 3352.6031,80.2969 Q3352.9938,80.1406 3353.4156,79.7031 Q3353.6813,79.4375 3353.8297,79.3594 Q3353.9781,79.2813 3354.1813,79.2813 Q3354.5094,79.2813 3354.7672,79.5391 Q3355.025,79.7969 3355.025,80.1406 Q3355.025,80.4844 3354.6813,80.8906 Q3354.1813,81.4688 3353.3844,81.7969 Q3352.3063,82.25 3351.0094,82.25 Q3349.4938,82.25 3348.2906,81.625 Q3347.3063,81.125 3346.6188,80.0547 Q3345.9313,78.9844 3345.9313,77.7031 L3345.9313,76.5469 Q3345.9313,75.2188 3346.5484,74.0703 Q3347.1656,72.9219 3348.2594,72.3047 Q3349.3531,71.6875 3350.5875,71.6875 Q3351.3219,71.6875 3351.9703,71.8516 Q3352.6188,72.0156 3353.1656,72.375 Z "/><text fill="#000000" font-family="sans-serif" font-size="12" lengthAdjust="spacingAndGlyphs" textLength="105" x="3366.6" y="81.4102">CheeseCakeClient</text><line style="stroke: #A80036; stroke-width: 1.5;" x1="3326.5" x2="3483.5" y1="92.5" y2="92.5"/><line style="stroke: #A80036; stroke-width: 1.5;" x1="3326.5" x2="3483.5" y1="100.5" y2="100.5"/><ellipse cx="3336.5" cy="112.918" fill="#84BE84" rx="3" ry="3" style="stroke: #038048; stroke-width: 1.0;"/><text fill="#000000" font-family="sans-serif" font-size="11" lengthAdjust="spacingAndGlyphs" textLength="56" x="3345.5" y="115.9189">void &lt;init&gt;()</text><ellipse cx="3336.5" cy="126.7539" fill="#84BE84" rx="3" ry="3" style="stroke: #038048; stroke-width: 1.0;"/><text fill="#000000" font-family="sans-serif" font-size="11" lengthAdjust="spacingAndGlyphs" text-decoration="underline" textLength="133" x="3345.5" y="129.7549">void main(java.lang.String[])</text><line style="stroke: #000000; stroke-width: 1.0;" x1="3345.5" x2="3478.5" y1="131.7549" y2="131.7549"/><!--class part1.AbstractPlainCheeseCake--><rect fill="#FEFECE" filter="url(#fgpzr7wi08v5i)" height="103.3438" id="part1.AbstractPlainCheeseCake" style="stroke: #A80036; stroke-width: 1.5;" width="305" x="2196.5" y="546"/><ellipse cx="2272.25" cy="562" fill="#ADD1B2" rx="11" ry="11" style="stroke: #A80036; stroke-width: 1.0;"/><path d="M2275.0156,557.875 Q2275.1719,557.6563 2275.3594,557.5469 Q2275.5469,557.4375 2275.7656,557.4375 Q2276.1406,557.4375 2276.375,557.6953 Q2276.6094,557.9531 2276.6094,558.5625 L2276.6094,560.0156 Q2276.6094,560.625 2276.375,560.8906 Q2276.1406,561.1563 2275.7656,561.1563 Q2275.4219,561.1563 2275.2188,560.9531 Q2275.0156,560.7656 2274.9063,560.25 Q2274.8594,559.8906 2274.6719,559.7031 Q2274.3438,559.3281 2273.7344,559.1094 Q2273.125,558.8906 2272.5,558.8906 Q2271.7344,558.8906 2271.1016,559.2188 Q2270.4688,559.5469 2269.9766,560.2969 Q2269.4844,561.0469 2269.4844,562.0781 L2269.4844,563.1719 Q2269.4844,564.4063 2270.375,565.2266 Q2271.2656,566.0469 2272.8594,566.0469 Q2273.7969,566.0469 2274.4531,565.7969 Q2274.8438,565.6406 2275.2656,565.2031 Q2275.5313,564.9375 2275.6797,564.8594 Q2275.8281,564.7813 2276.0313,564.7813 Q2276.3594,564.7813 2276.6172,565.0391 Q2276.875,565.2969 2276.875,565.6406 Q2276.875,565.9844 2276.5313,566.3906 Q2276.0313,566.9688 2275.2344,567.2969 Q2274.1563,567.75 2272.8594,567.75 Q2271.3438,567.75 2270.1406,567.125 Q2269.1563,566.625 2268.4688,565.5547 Q2267.7813,564.4844 2267.7813,563.2031 L2267.7813,562.0469 Q2267.7813,560.7188 2268.3984,559.5703 Q2269.0156,558.4219 2270.1094,557.8047 Q2271.2031,557.1875 2272.4375,557.1875 Q2273.1719,557.1875 2273.8203,557.3516 Q2274.4688,557.5156 2275.0156,557.875 Z "/><text fill="#000000" font-family="sans-serif" font-size="12" lengthAdjust="spacingAndGlyphs" textLength="145" x="2292.75" y="566.9102">AbstractPlainCheeseCake</text><line style="stroke: #A80036; stroke-width: 1.5;" x1="2197.5" x2="2500.5" y1="578" y2="578"/><polygon fill="none" points="2207.5,585.418,2211.5,589.418,2207.5,593.418,2203.5,589.418" style="stroke: #B38D22; stroke-width: 1.0;"/><text fill="#000000" font-family="sans-serif" font-size="11" lengthAdjust="spacingAndGlyphs" textLength="103" x="2216.5" y="593.4189">java.lang.String name</text><polygon fill="none" points="2207.5,599.2539,2211.5,603.2539,2207.5,607.2539,2203.5,603.2539" style="stroke: #B38D22; stroke-width: 1.0;"/><text fill="#000000" font-family="sans-serif" font-size="11" lengthAdjust="spacingAndGlyphs" textLength="279" x="2216.5" y="607.2549">edu.rosehulman.csse374.cheesecake.PlainCheeseCake c</text><line style="stroke: #A80036; stroke-width: 1.5;" x1="2197.5" x2="2500.5" y1="613.6719" y2="613.6719"/><ellipse cx="2207.5" cy="626.0898" fill="#84BE84" rx="3" ry="3" style="stroke: #038048; stroke-width: 1.0;"/><text fill="#000000" font-family="sans-serif" font-size="11" lengthAdjust="spacingAndGlyphs" textLength="56" x="2216.5" y="629.0908">void &lt;init&gt;()</text><ellipse cx="2207.5" cy="639.9258" fill="#84BE84" rx="3" ry="3" style="stroke: #038048; stroke-width: 1.0;"/><text fill="#000000" font-family="sans-serif" font-size="11" lengthAdjust="spacingAndGlyphs" textLength="122" x="2216.5" y="642.9268">java.lang.String toString()</text><!--class part1.ChocolateCheeseCakeFactory--><rect fill="#FEFECE" filter="url(#fgpzr7wi08v5i)" height="75.6719" id="part1.ChocolateCheeseCakeFactory" style="stroke: #A80036; stroke-width: 1.5;" width="356" x="3423" y="219.5"/><ellipse cx="3512.75" cy="235.5" fill="#ADD1B2" rx="11" ry="11" style="stroke: #A80036; stroke-width: 1.0;"/><path d="M3515.5156,231.375 Q3515.6719,231.1563 3515.8594,231.0469 Q3516.0469,230.9375 3516.2656,230.9375 Q3516.6406,230.9375 3516.875,231.1953 Q3517.1094,231.4531 3517.1094,232.0625 L3517.1094,233.5156 Q3517.1094,234.125 3516.875,234.3906 Q3516.6406,234.6563 3516.2656,234.6563 Q3515.9219,234.6563 3515.7188,234.4531 Q3515.5156,234.2656 3515.4063,233.75 Q3515.3594,233.3906 3515.1719,233.2031 Q3514.8438,232.8281 3514.2344,232.6094 Q3513.625,232.3906 3513,232.3906 Q3512.2344,232.3906 3511.6016,232.7188 Q3510.9688,233.0469 3510.4766,233.7969 Q3509.9844,234.5469 3509.9844,235.5781 L3509.9844,236.6719 Q3509.9844,237.9063 3510.875,238.7266 Q3511.7656,239.5469 3513.3594,239.5469 Q3514.2969,239.5469 3514.9531,239.2969 Q3515.3438,239.1406 3515.7656,238.7031 Q3516.0313,238.4375 3516.1797,238.3594 Q3516.3281,238.2813 3516.5313,238.2813 Q3516.8594,238.2813 3517.1172,238.5391 Q3517.375,238.7969 3517.375,239.1406 Q3517.375,239.4844 3517.0313,239.8906 Q3516.5313,240.4688 3515.7344,240.7969 Q3514.6563,241.25 3513.3594,241.25 Q3511.8438,241.25 3510.6406,240.625 Q3509.6563,240.125 3508.9688,239.0547 Q3508.2813,237.9844 3508.2813,236.7031 L3508.2813,235.5469 Q3508.2813,234.2188 3508.8984,233.0703 Q3509.5156,231.9219 3510.6094,231.3047 Q3511.7031,230.6875 3512.9375,230.6875 Q3513.6719,230.6875 3514.3203,230.8516 Q3514.9688,231.0156 3515.5156,231.375 Z "/><text fill="#000000" font-family="sans-serif" font-size="12" lengthAdjust="spacingAndGlyphs" textLength="168" x="3533.25" y="240.4102">ChocolateCheeseCakeFactory</text><line style="stroke: #A80036; stroke-width: 1.5;" x1="3424" x2="3778" y1="251.5" y2="251.5"/><line style="stroke: #A80036; stroke-width: 1.5;" x1="3424" x2="3778" y1="259.5" y2="259.5"/><ellipse cx="3434" cy="271.918" fill="#84BE84" rx="3" ry="3" style="stroke: #038048; stroke-width: 1.0;"/><text fill="#000000" font-family="sans-serif" font-size="11" lengthAdjust="spacingAndGlyphs" textLength="56" x="3443" y="274.9189">void &lt;init&gt;()</text><ellipse cx="3434" cy="285.7539" fill="#84BE84" rx="3" ry="3" style="stroke: #038048; stroke-width: 1.0;"/><text fill="#000000" font-family="sans-serif" font-size="11" lengthAdjust="spacingAndGlyphs" textLength="330" x="3443" y="288.7549">edu.rosehulman.csse374.cheesecake.PlainCheeseCake makeCake()</text><!--class part1.ChocolateTopping--><rect fill="#008000" filter="url(#fgpzr7wi08v5i)" height="70.0234" id="part1.ChocolateTopping" style="stroke: #A80036; stroke-width: 1.5;" width="352" x="2027" y="392.5"/><rect fill="#008000" height="40.1875" style="stroke: #A80036; stroke-width: 1.5;" width="352" x="2027" y="392.5"/><ellipse cx="2148.25" cy="412.5938" fill="#ADD1B2" rx="11" ry="11" style="stroke: #A80036; stroke-width: 1.0;"/><path d="M2151.0156,408.4688 Q2151.1719,408.25 2151.3594,408.1406 Q2151.5469,408.0313 2151.7656,408.0313 Q2152.1406,408.0313 2152.375,408.2891 Q2152.6094,408.5469 2152.6094,409.1563 L2152.6094,410.6094 Q2152.6094,411.2188 2152.375,411.4844 Q2152.1406,411.75 2151.7656,411.75 Q2151.4219,411.75 2151.2188,411.5469 Q2151.0156,411.3594 2150.9063,410.8438 Q2150.8594,410.4844 2150.6719,410.2969 Q2150.3438,409.9219 2149.7344,409.7031 Q2149.125,409.4844 2148.5,409.4844 Q2147.7344,409.4844 2147.1016,409.8125 Q2146.4688,410.1406 2145.9766,410.8906 Q2145.4844,411.6406 2145.4844,412.6719 L2145.4844,413.7656 Q2145.4844,415 2146.375,415.8203 Q2147.2656,416.6406 2148.8594,416.6406 Q2149.7969,416.6406 2150.4531,416.3906 Q2150.8438,416.2344 2151.2656,415.7969 Q2151.5313,415.5313 2151.6797,415.4531 Q2151.8281,415.375 2152.0313,415.375 Q2152.3594,415.375 2152.6172,415.6328 Q2152.875,415.8906 2152.875,416.2344 Q2152.875,416.5781 2152.5313,416.9844 Q2152.0313,417.5625 2151.2344,417.8906 Q2150.1563,418.3438 2148.8594,418.3438 Q2147.3438,418.3438 2146.1406,417.7188 Q2145.1563,417.2188 2144.4688,416.1484 Q2143.7813,415.0781 2143.7813,413.7969 L2143.7813,412.6406 Q2143.7813,411.3125 2144.3984,410.1641 Q2145.0156,409.0156 2146.1094,408.3984 Q2147.2031,407.7813 2148.4375,407.7813 Q2149.1719,407.7813 2149.8203,407.9453 Q2150.4688,408.1094 2151.0156,408.4688 Z "/><text fill="#000000" font-family="sans-serif" font-size="12" font-style="italic" lengthAdjust="spacingAndGlyphs" textLength="66" x="2186.25" y="409.957">«decorator»</text><text fill="#000000" font-family="sans-serif" font-size="12" lengthAdjust="spacingAndGlyphs" textLength="101" x="2168.75" y="425.0508">ChocolateTopping</text><line style="stroke: #A80036; stroke-width: 1.5;" x1="2028" x2="2378" y1="432.6875" y2="432.6875"/><line style="stroke: #A80036; stroke-width: 1.5;" x1="2028" x2="2378" y1="440.6875" y2="440.6875"/><ellipse cx="2038" cy="453.1055" fill="#84BE84" rx="3" ry="3" style="stroke: #038048; stroke-width: 1.0;"/><text fill="#000000" font-family="sans-serif" font-size="11" lengthAdjust="spacingAndGlyphs" textLength="326" x="2047" y="456.1064">void &lt;init&gt;(edu.rosehulman.csse374.cheesecake.PlainCheeseCake)</text><!--class part1.Command--><rect fill="#FEFECE" filter="url(#fgpzr7wi08v5i)" height="61.8359" id="part1.Command" style="stroke: #A80036; stroke-width: 1.5;" width="634" x="2537" y="566.5"/><ellipse cx="2820.25" cy="582.5" fill="#B4A7E5" rx="11" ry="11" style="stroke: #A80036; stroke-width: 1.0;"/><path d="M2821.2031,579.1406 L2821.2031,585.7969 L2822.9219,585.7969 Q2823.5313,585.7969 2823.7969,586.0313 Q2824.0625,586.2656 2824.0625,586.6563 Q2824.0625,587.0313 2823.7969,587.2656 Q2823.5313,587.5 2822.9219,587.5 L2817.7813,587.5 Q2817.1719,587.5 2816.9063,587.2656 Q2816.6406,587.0313 2816.6406,586.6406 Q2816.6406,586.2656 2816.9063,586.0313 Q2817.1719,585.7969 2817.7813,585.7969 L2819.5,585.7969 L2819.5,579.1406 L2817.7813,579.1406 Q2817.1719,579.1406 2816.9063,578.9063 Q2816.6406,578.6719 2816.6406,578.2813 Q2816.6406,577.9063 2816.9063,577.6719 Q2817.1719,577.4375 2817.7813,577.4375 L2822.9219,577.4375 Q2823.5313,577.4375 2823.7969,577.6719 Q2824.0625,577.9063 2824.0625,578.2813 Q2824.0625,578.6719 2823.7969,578.9063 Q2823.5313,579.1406 2822.9219,579.1406 L2821.2031,579.1406 Z "/><text fill="#000000" font-family="sans-serif" font-size="12" font-style="italic" lengthAdjust="spacingAndGlyphs" textLength="59" x="2840.75" y="587.4102">Command</text><line style="stroke: #A80036; stroke-width: 1.5;" x1="2538" x2="3170" y1="598.5" y2="598.5"/><line style="stroke: #A80036; stroke-width: 1.5;" x1="2538" x2="3170" y1="606.5" y2="606.5"/><ellipse cx="2548" cy="618.918" fill="#84BE84" rx="3" ry="3" style="stroke: #038048; stroke-width: 1.0;"/><text fill="#000000" font-family="sans-serif" font-size="11" font-style="italic" lengthAdjust="spacingAndGlyphs" textLength="608" x="2557" y="621.9189">edu.rosehulman.csse374.cheesecake.PlainCheeseCake execute(edu.rosehulman.csse374.cheesecake.PlainCheeseCake)</text><!--class part1.CustomCheeseCakeFactory--><rect fill="#FEFECE" filter="url(#fgpzr7wi08v5i)" height="117.1797" id="part1.CustomCheeseCakeFactory" style="stroke: #A80036; stroke-width: 1.5;" width="666" x="3262" y="369"/><ellipse cx="3512.75" cy="385" fill="#A9DCDF" rx="11" ry="11" style="stroke: #A80036; stroke-width: 1.0;"/><path d="M3514.9375,386.7656 L3510.7969,386.7656 L3510.375,387.7969 L3510.7969,387.7969 Q3511.4063,387.7969 3511.6719,388.0313 Q3511.9375,388.2656 3511.9375,388.6563 Q3511.9375,389.0313 3511.6719,389.2656 Q3511.4063,389.5 3510.7969,389.5 L3508.5,389.5 Q3507.8906,389.5 3507.6328,389.2656 Q3507.375,389.0313 3507.375,388.6406 Q3507.375,388.2656 3507.6484,388.0234 Q3507.9219,387.7813 3508.5469,387.7969 L3511.2188,381.1406 L3510.1094,381.1406 Q3509.5,381.1406 3509.2344,380.9063 Q3508.9688,380.6719 3508.9688,380.2813 Q3508.9688,379.9063 3509.2344,379.6719 Q3509.5,379.4375 3510.1094,379.4375 L3513.7813,379.4375 L3517.1719,387.7969 Q3517.7656,387.7969 3517.9531,387.9375 Q3518.3438,388.2031 3518.3438,388.6563 Q3518.3438,389.0313 3518.0859,389.2656 Q3517.8281,389.5 3517.2188,389.5 L3514.9219,389.5 Q3514.3125,389.5 3514.0469,389.2656 Q3513.7813,389.0313 3513.7813,388.6406 Q3513.7813,388.2656 3514.0469,388.0313 Q3514.3125,387.7969 3514.9219,387.7969 L3515.3438,387.7969 L3514.9375,386.7656 Z M3514.2188,385.0625 L3512.8594,381.6875 L3511.4844,385.0625 L3514.2188,385.0625 Z "/><text fill="#000000" font-family="sans-serif" font-size="12" font-style="italic" lengthAdjust="spacingAndGlyphs" textLength="156" x="3533.25" y="389.9102">CustomCheeseCakeFactory</text><line style="stroke: #A80036; stroke-width: 1.5;" x1="3263" x2="3927" y1="401" y2="401"/><polygon fill="none" points="3273,408.418,3277,412.418,3273,416.418,3269,412.418" style="stroke: #B38D22; stroke-width: 1.0;"/><text fill="#000000" font-family="sans-serif" font-size="11" lengthAdjust="spacingAndGlyphs" textLength="124" x="3282" y="416.4189">part1.Command command</text><line style="stroke: #A80036; stroke-width: 1.5;" x1="3263" x2="3927" y1="422.8359" y2="422.8359"/><ellipse cx="3273" cy="435.2539" fill="#84BE84" rx="3" ry="3" style="stroke: #038048; stroke-width: 1.0;"/><text fill="#000000" font-family="sans-serif" font-size="11" lengthAdjust="spacingAndGlyphs" textLength="56" x="3282" y="438.2549">void &lt;init&gt;()</text><polygon fill="#FFFF44" points="3273,444.0898,3277,448.0898,3273,452.0898,3269,448.0898" style="stroke: #B38D22; stroke-width: 1.0;"/><text fill="#000000" font-family="sans-serif" font-size="11" lengthAdjust="spacingAndGlyphs" textLength="640" x="3282" y="452.0908">edu.rosehulman.csse374.cheesecake.PlainCheeseCake makeBaseCake(edu.rosehulman.csse374.cheesecake.CheeseCakeFactory)</text><ellipse cx="3273" cy="462.9258" fill="#84BE84" rx="3" ry="3" style="stroke: #038048; stroke-width: 1.0;"/><text fill="#000000" font-family="sans-serif" font-size="11" lengthAdjust="spacingAndGlyphs" textLength="168" x="3282" y="465.9268">void setCommand(part1.Command)</text><ellipse cx="3273" cy="476.7617" fill="#84BE84" rx="3" ry="3" style="stroke: #038048; stroke-width: 1.0;"/><text fill="#000000" font-family="sans-serif" font-size="11" font-style="italic" lengthAdjust="spacingAndGlyphs" textLength="343" x="3282" y="479.7627">edu.rosehulman.csse374.cheesecake.PlainCheeseCake makeCake()</text><!--class part1.DrizzleCommand--><rect fill="#FEFECE" filter="url(#fgpzr7wi08v5i)" height="75.6719" id="part1.DrizzleCommand" style="stroke: #A80036; stroke-width: 1.5;" width="616" x="1990" y="219.5"/><ellipse cx="2246.25" cy="235.5" fill="#ADD1B2" rx="11" ry="11" style="stroke: #A80036; stroke-width: 1.0;"/><path d="M2249.0156,231.375 Q2249.1719,231.1563 2249.3594,231.0469 Q2249.5469,230.9375 2249.7656,230.9375 Q2250.1406,230.9375 2250.375,231.1953 Q2250.6094,231.4531 2250.6094,232.0625 L2250.6094,233.5156 Q2250.6094,234.125 2250.375,234.3906 Q2250.1406,234.6563 2249.7656,234.6563 Q2249.4219,234.6563 2249.2188,234.4531 Q2249.0156,234.2656 2248.9063,233.75 Q2248.8594,233.3906 2248.6719,233.2031 Q2248.3438,232.8281 2247.7344,232.6094 Q2247.125,232.3906 2246.5,232.3906 Q2245.7344,232.3906 2245.1016,232.7188 Q2244.4688,233.0469 2243.9766,233.7969 Q2243.4844,234.5469 2243.4844,235.5781 L2243.4844,236.6719 Q2243.4844,237.9063 2244.375,238.7266 Q2245.2656,239.5469 2246.8594,239.5469 Q2247.7969,239.5469 2248.4531,239.2969 Q2248.8438,239.1406 2249.2656,238.7031 Q2249.5313,238.4375 2249.6797,238.3594 Q2249.8281,238.2813 2250.0313,238.2813 Q2250.3594,238.2813 2250.6172,238.5391 Q2250.875,238.7969 2250.875,239.1406 Q2250.875,239.4844 2250.5313,239.8906 Q2250.0313,240.4688 2249.2344,240.7969 Q2248.1563,241.25 2246.8594,241.25 Q2245.3438,241.25 2244.1406,240.625 Q2243.1563,240.125 2242.4688,239.0547 Q2241.7813,237.9844 2241.7813,236.7031 L2241.7813,235.5469 Q2241.7813,234.2188 2242.3984,233.0703 Q2243.0156,231.9219 2244.1094,231.3047 Q2245.2031,230.6875 2246.4375,230.6875 Q2247.1719,230.6875 2247.8203,230.8516 Q2248.4688,231.0156 2249.0156,231.375 Z "/><text fill="#000000" font-family="sans-serif" font-size="12" lengthAdjust="spacingAndGlyphs" textLength="95" x="2266.75" y="240.4102">DrizzleCommand</text><line style="stroke: #A80036; stroke-width: 1.5;" x1="1991" x2="2605" y1="251.5" y2="251.5"/><line style="stroke: #A80036; stroke-width: 1.5;" x1="1991" x2="2605" y1="259.5" y2="259.5"/><ellipse cx="2001" cy="271.918" fill="#84BE84" rx="3" ry="3" style="stroke: #038048; stroke-width: 1.0;"/><text fill="#000000" font-family="sans-serif" font-size="11" lengthAdjust="spacingAndGlyphs" textLength="56" x="2010" y="274.9189">void &lt;init&gt;()</text><ellipse cx="2001" cy="285.7539" fill="#84BE84" rx="3" ry="3" style="stroke: #038048; stroke-width: 1.0;"/><text fill="#000000" font-family="sans-serif" font-size="11" lengthAdjust="spacingAndGlyphs" textLength="590" x="2010" y="288.7549">edu.rosehulman.csse374.cheesecake.PlainCheeseCake execute(edu.rosehulman.csse374.cheesecake.PlainCheeseCake)</text><!--class part1.ExtensibleCheesecakeFactory--><rect fill="#FEFECE" filter="url(#fgpzr7wi08v5i)" height="89.5078" id="part1.ExtensibleCheesecakeFactory" style="stroke: #A80036; stroke-width: 1.5;" width="473" x="3814.5" y="212.5"/><ellipse cx="3963.75" cy="228.5" fill="#ADD1B2" rx="11" ry="11" style="stroke: #A80036; stroke-width: 1.0;"/><path d="M3966.5156,224.375 Q3966.6719,224.1563 3966.8594,224.0469 Q3967.0469,223.9375 3967.2656,223.9375 Q3967.6406,223.9375 3967.875,224.1953 Q3968.1094,224.4531 3968.1094,225.0625 L3968.1094,226.5156 Q3968.1094,227.125 3967.875,227.3906 Q3967.6406,227.6563 3967.2656,227.6563 Q3966.9219,227.6563 3966.7188,227.4531 Q3966.5156,227.2656 3966.4063,226.75 Q3966.3594,226.3906 3966.1719,226.2031 Q3965.8438,225.8281 3965.2344,225.6094 Q3964.625,225.3906 3964,225.3906 Q3963.2344,225.3906 3962.6016,225.7188 Q3961.9688,226.0469 3961.4766,226.7969 Q3960.9844,227.5469 3960.9844,228.5781 L3960.9844,229.6719 Q3960.9844,230.9063 3961.875,231.7266 Q3962.7656,232.5469 3964.3594,232.5469 Q3965.2969,232.5469 3965.9531,232.2969 Q3966.3438,232.1406 3966.7656,231.7031 Q3967.0313,231.4375 3967.1797,231.3594 Q3967.3281,231.2813 3967.5313,231.2813 Q3967.8594,231.2813 3968.1172,231.5391 Q3968.375,231.7969 3968.375,232.1406 Q3968.375,232.4844 3968.0313,232.8906 Q3967.5313,233.4688 3966.7344,233.7969 Q3965.6563,234.25 3964.3594,234.25 Q3962.8438,234.25 3961.6406,233.625 Q3960.6563,233.125 3959.9688,232.0547 Q3959.2813,230.9844 3959.2813,229.7031 L3959.2813,228.5469 Q3959.2813,227.2188 3959.8984,226.0703 Q3960.5156,224.9219 3961.6094,224.3047 Q3962.7031,223.6875 3963.9375,223.6875 Q3964.6719,223.6875 3965.3203,223.8516 Q3965.9688,224.0156 3966.5156,224.375 Z "/><text fill="#000000" font-family="sans-serif" font-size="12" lengthAdjust="spacingAndGlyphs" textLength="166" x="3984.25" y="233.4102">ExtensibleCheesecakeFactory</text><line style="stroke: #A80036; stroke-width: 1.5;" x1="3815.5" x2="4286.5" y1="244.5" y2="244.5"/><rect fill="none" height="6" style="stroke: #C82930; stroke-width: 1.0;" width="6" x="3822.5" y="253.918"/><text fill="#000000" font-family="sans-serif" font-size="11" lengthAdjust="spacingAndGlyphs" textLength="379" x="3834.5" y="259.9189">java.util.Map&lt;java.lang.String,part1.CustomCheeseCakeFactory&gt; cheeseCakes</text><line style="stroke: #A80036; stroke-width: 1.5;" x1="3815.5" x2="4286.5" y1="266.3359" y2="266.3359"/><ellipse cx="3825.5" cy="278.7539" fill="#84BE84" rx="3" ry="3" style="stroke: #038048; stroke-width: 1.0;"/><text fill="#000000" font-family="sans-serif" font-size="11" lengthAdjust="spacingAndGlyphs" textLength="366" x="3834.5" y="281.7549">void &lt;init&gt;(java.util.Map&lt;java.lang.String,part1.CustomCheeseCakeFactory&gt;)</text><ellipse cx="3825.5" cy="292.5898" fill="#84BE84" rx="3" ry="3" style="stroke: #038048; stroke-width: 1.0;"/><text fill="#000000" font-family="sans-serif" font-size="11" lengthAdjust="spacingAndGlyphs" textLength="447" x="3834.5" y="295.5908">edu.rosehulman.csse374.cheesecake.PlainCheeseCake createCheeseCake(java.lang.String)</text><!--class part1.PlainCheeseCakeFactory--><rect fill="#FEFECE" filter="url(#fgpzr7wi08v5i)" height="75.6719" id="part1.PlainCheeseCakeFactory" style="stroke: #A80036; stroke-width: 1.5;" width="356" x="3032" y="219.5"/><ellipse cx="3135.75" cy="235.5" fill="#ADD1B2" rx="11" ry="11" style="stroke: #A80036; stroke-width: 1.0;"/><path d="M3138.5156,231.375 Q3138.6719,231.1563 3138.8594,231.0469 Q3139.0469,230.9375 3139.2656,230.9375 Q3139.6406,230.9375 3139.875,231.1953 Q3140.1094,231.4531 3140.1094,232.0625 L3140.1094,233.5156 Q3140.1094,234.125 3139.875,234.3906 Q3139.6406,234.6563 3139.2656,234.6563 Q3138.9219,234.6563 3138.7188,234.4531 Q3138.5156,234.2656 3138.4063,233.75 Q3138.3594,233.3906 3138.1719,233.2031 Q3137.8438,232.8281 3137.2344,232.6094 Q3136.625,232.3906 3136,232.3906 Q3135.2344,232.3906 3134.6016,232.7188 Q3133.9688,233.0469 3133.4766,233.7969 Q3132.9844,234.5469 3132.9844,235.5781 L3132.9844,236.6719 Q3132.9844,237.9063 3133.875,238.7266 Q3134.7656,239.5469 3136.3594,239.5469 Q3137.2969,239.5469 3137.9531,239.2969 Q3138.3438,239.1406 3138.7656,238.7031 Q3139.0313,238.4375 3139.1797,238.3594 Q3139.3281,238.2813 3139.5313,238.2813 Q3139.8594,238.2813 3140.1172,238.5391 Q3140.375,238.7969 3140.375,239.1406 Q3140.375,239.4844 3140.0313,239.8906 Q3139.5313,240.4688 3138.7344,240.7969 Q3137.6563,241.25 3136.3594,241.25 Q3134.8438,241.25 3133.6406,240.625 Q3132.6563,240.125 3131.9688,239.0547 Q3131.2813,237.9844 3131.2813,236.7031 L3131.2813,235.5469 Q3131.2813,234.2188 3131.8984,233.0703 Q3132.5156,231.9219 3133.6094,231.3047 Q3134.7031,230.6875 3135.9375,230.6875 Q3136.6719,230.6875 3137.3203,230.8516 Q3137.9688,231.0156 3138.5156,231.375 Z "/><text fill="#000000" font-family="sans-serif" font-size="12" lengthAdjust="spacingAndGlyphs" textLength="140" x="3156.25" y="240.4102">PlainCheeseCakeFactory</text><line style="stroke: #A80036; stroke-width: 1.5;" x1="3033" x2="3387" y1="251.5" y2="251.5"/><line style="stroke: #A80036; stroke-width: 1.5;" x1="3033" x2="3387" y1="259.5" y2="259.5"/><ellipse cx="3043" cy="271.918" fill="#84BE84" rx="3" ry="3" style="stroke: #038048; stroke-width: 1.0;"/><text fill="#000000" font-family="sans-serif" font-size="11" lengthAdjust="spacingAndGlyphs" textLength="56" x="3052" y="274.9189">void &lt;init&gt;()</text><ellipse cx="3043" cy="285.7539" fill="#84BE84" rx="3" ry="3" style="stroke: #038048; stroke-width: 1.0;"/><text fill="#000000" font-family="sans-serif" font-size="11" lengthAdjust="spacingAndGlyphs" textLength="330" x="3052" y="288.7549">edu.rosehulman.csse374.cheesecake.PlainCheeseCake makeCake()</text><!--class part1.Strawberries--><rect fill="#008000" filter="url(#fgpzr7wi08v5i)" height="70.0234" id="part1.Strawberries" style="stroke: #A80036; stroke-width: 1.5;" width="352" x="2414" y="392.5"/><rect fill="#008000" height="40.1875" style="stroke: #A80036; stroke-width: 1.5;" width="352" x="2414" y="392.5"/><ellipse cx="2550.75" cy="412.5938" fill="#ADD1B2" rx="11" ry="11" style="stroke: #A80036; stroke-width: 1.0;"/><path d="M2553.5156,408.4688 Q2553.6719,408.25 2553.8594,408.1406 Q2554.0469,408.0313 2554.2656,408.0313 Q2554.6406,408.0313 2554.875,408.2891 Q2555.1094,408.5469 2555.1094,409.1563 L2555.1094,410.6094 Q2555.1094,411.2188 2554.875,411.4844 Q2554.6406,411.75 2554.2656,411.75 Q2553.9219,411.75 2553.7188,411.5469 Q2553.5156,411.3594 2553.4063,410.8438 Q2553.3594,410.4844 2553.1719,410.2969 Q2552.8438,409.9219 2552.2344,409.7031 Q2551.625,409.4844 2551,409.4844 Q2550.2344,409.4844 2549.6016,409.8125 Q2548.9688,410.1406 2548.4766,410.8906 Q2547.9844,411.6406 2547.9844,412.6719 L2547.9844,413.7656 Q2547.9844,415 2548.875,415.8203 Q2549.7656,416.6406 2551.3594,416.6406 Q2552.2969,416.6406 2552.9531,416.3906 Q2553.3438,416.2344 2553.7656,415.7969 Q2554.0313,415.5313 2554.1797,415.4531 Q2554.3281,415.375 2554.5313,415.375 Q2554.8594,415.375 2555.1172,415.6328 Q2555.375,415.8906 2555.375,416.2344 Q2555.375,416.5781 2555.0313,416.9844 Q2554.5313,417.5625 2553.7344,417.8906 Q2552.6563,418.3438 2551.3594,418.3438 Q2549.8438,418.3438 2548.6406,417.7188 Q2547.6563,417.2188 2546.9688,416.1484 Q2546.2813,415.0781 2546.2813,413.7969 L2546.2813,412.6406 Q2546.2813,411.3125 2546.8984,410.1641 Q2547.5156,409.0156 2548.6094,408.3984 Q2549.7031,407.7813 2550.9375,407.7813 Q2551.6719,407.7813 2552.3203,407.9453 Q2552.9688,408.1094 2553.5156,408.4688 Z "/><text fill="#000000" font-family="sans-serif" font-size="12" font-style="italic" lengthAdjust="spacingAndGlyphs" textLength="66" x="2573.25" y="409.957">«decorator»</text><text fill="#000000" font-family="sans-serif" font-size="12" lengthAdjust="spacingAndGlyphs" textLength="70" x="2571.25" y="425.0508">Strawberries</text><line style="stroke: #A80036; stroke-width: 1.5;" x1="2415" x2="2765" y1="432.6875" y2="432.6875"/><line style="stroke: #A80036; stroke-width: 1.5;" x1="2415" x2="2765" y1="440.6875" y2="440.6875"/><ellipse cx="2425" cy="453.1055" fill="#84BE84" rx="3" ry="3" style="stroke: #038048; stroke-width: 1.0;"/><text fill="#000000" font-family="sans-serif" font-size="11" lengthAdjust="spacingAndGlyphs" textLength="326" x="2434" y="456.1064">void &lt;init&gt;(edu.rosehulman.csse374.cheesecake.PlainCheeseCake)</text><!--class part1.StrawberryCheeseCakeFactory--><rect fill="#FEFECE" filter="url(#fgpzr7wi08v5i)" height="75.6719" id="part1.StrawberryCheeseCakeFactory" style="stroke: #A80036; stroke-width: 1.5;" width="356" x="2641" y="219.5"/><ellipse cx="2729.75" cy="235.5" fill="#ADD1B2" rx="11" ry="11" style="stroke: #A80036; stroke-width: 1.0;"/><path d="M2732.5156,231.375 Q2732.6719,231.1563 2732.8594,231.0469 Q2733.0469,230.9375 2733.2656,230.9375 Q2733.6406,230.9375 2733.875,231.1953 Q2734.1094,231.4531 2734.1094,232.0625 L2734.1094,233.5156 Q2734.1094,234.125 2733.875,234.3906 Q2733.6406,234.6563 2733.2656,234.6563 Q2732.9219,234.6563 2732.7188,234.4531 Q2732.5156,234.2656 2732.4063,233.75 Q2732.3594,233.3906 2732.1719,233.2031 Q2731.8438,232.8281 2731.2344,232.6094 Q2730.625,232.3906 2730,232.3906 Q2729.2344,232.3906 2728.6016,232.7188 Q2727.9688,233.0469 2727.4766,233.7969 Q2726.9844,234.5469 2726.9844,235.5781 L2726.9844,236.6719 Q2726.9844,237.9063 2727.875,238.7266 Q2728.7656,239.5469 2730.3594,239.5469 Q2731.2969,239.5469 2731.9531,239.2969 Q2732.3438,239.1406 2732.7656,238.7031 Q2733.0313,238.4375 2733.1797,238.3594 Q2733.3281,238.2813 2733.5313,238.2813 Q2733.8594,238.2813 2734.1172,238.5391 Q2734.375,238.7969 2734.375,239.1406 Q2734.375,239.4844 2734.0313,239.8906 Q2733.5313,240.4688 2732.7344,240.7969 Q2731.6563,241.25 2730.3594,241.25 Q2728.8438,241.25 2727.6406,240.625 Q2726.6563,240.125 2725.9688,239.0547 Q2725.2813,237.9844 2725.2813,236.7031 L2725.2813,235.5469 Q2725.2813,234.2188 2725.8984,233.0703 Q2726.5156,231.9219 2727.6094,231.3047 Q2728.7031,230.6875 2729.9375,230.6875 Q2730.6719,230.6875 2731.3203,230.8516 Q2731.9688,231.0156 2732.5156,231.375 Z "/><text fill="#000000" font-family="sans-serif" font-size="12" lengthAdjust="spacingAndGlyphs" textLength="170" x="2750.25" y="240.4102">StrawberryCheeseCakeFactory</text><line style="stroke: #A80036; stroke-width: 1.5;" x1="2642" x2="2996" y1="251.5" y2="251.5"/><line style="stroke: #A80036; stroke-width: 1.5;" x1="2642" x2="2996" y1="259.5" y2="259.5"/><ellipse cx="2652" cy="271.918" fill="#84BE84" rx="3" ry="3" style="stroke: #038048; stroke-width: 1.0;"/><text fill="#000000" font-family="sans-serif" font-size="11" lengthAdjust="spacingAndGlyphs" textLength="56" x="2661" y="274.9189">void &lt;init&gt;()</text><ellipse cx="2652" cy="285.7539" fill="#84BE84" rx="3" ry="3" style="stroke: #038048; stroke-width: 1.0;"/><text fill="#000000" font-family="sans-serif" font-size="11" lengthAdjust="spacingAndGlyphs" textLength="330" x="2661" y="288.7549">edu.rosehulman.csse374.cheesecake.PlainCheeseCake makeCake()</text><!--class part1.WhippedTopping--><rect fill="#008000" filter="url(#fgpzr7wi08v5i)" height="70.0234" id="part1.WhippedTopping" style="stroke: #A80036; stroke-width: 1.5;" width="352" x="2838" y="392.5"/><rect fill="#008000" height="40.1875" style="stroke: #A80036; stroke-width: 1.5;" width="352" x="2838" y="392.5"/><ellipse cx="2962.75" cy="412.5938" fill="#ADD1B2" rx="11" ry="11" style="stroke: #A80036; stroke-width: 1.0;"/><path d="M2965.5156,408.4688 Q2965.6719,408.25 2965.8594,408.1406 Q2966.0469,408.0313 2966.2656,408.0313 Q2966.6406,408.0313 2966.875,408.2891 Q2967.1094,408.5469 2967.1094,409.1563 L2967.1094,410.6094 Q2967.1094,411.2188 2966.875,411.4844 Q2966.6406,411.75 2966.2656,411.75 Q2965.9219,411.75 2965.7188,411.5469 Q2965.5156,411.3594 2965.4063,410.8438 Q2965.3594,410.4844 2965.1719,410.2969 Q2964.8438,409.9219 2964.2344,409.7031 Q2963.625,409.4844 2963,409.4844 Q2962.2344,409.4844 2961.6016,409.8125 Q2960.9688,410.1406 2960.4766,410.8906 Q2959.9844,411.6406 2959.9844,412.6719 L2959.9844,413.7656 Q2959.9844,415 2960.875,415.8203 Q2961.7656,416.6406 2963.3594,416.6406 Q2964.2969,416.6406 2964.9531,416.3906 Q2965.3438,416.2344 2965.7656,415.7969 Q2966.0313,415.5313 2966.1797,415.4531 Q2966.3281,415.375 2966.5313,415.375 Q2966.8594,415.375 2967.1172,415.6328 Q2967.375,415.8906 2967.375,416.2344 Q2967.375,416.5781 2967.0313,416.9844 Q2966.5313,417.5625 2965.7344,417.8906 Q2964.6563,418.3438 2963.3594,418.3438 Q2961.8438,418.3438 2960.6406,417.7188 Q2959.6563,417.2188 2958.9688,416.1484 Q2958.2813,415.0781 2958.2813,413.7969 L2958.2813,412.6406 Q2958.2813,411.3125 2958.8984,410.1641 Q2959.5156,409.0156 2960.6094,408.3984 Q2961.7031,407.7813 2962.9375,407.7813 Q2963.6719,407.7813 2964.3203,407.9453 Q2964.9688,408.1094 2965.5156,408.4688 Z "/><text fill="#000000" font-family="sans-serif" font-size="12" font-style="italic" lengthAdjust="spacingAndGlyphs" textLength="66" x="2997.25" y="409.957">«decorator»</text><text fill="#000000" font-family="sans-serif" font-size="12" lengthAdjust="spacingAndGlyphs" textLength="94" x="2983.25" y="425.0508">WhippedTopping</text><line style="stroke: #A80036; stroke-width: 1.5;" x1="2839" x2="3189" y1="432.6875" y2="432.6875"/><line style="stroke: #A80036; stroke-width: 1.5;" x1="2839" x2="3189" y1="440.6875" y2="440.6875"/><ellipse cx="2849" cy="453.1055" fill="#84BE84" rx="3" ry="3" style="stroke: #038048; stroke-width: 1.0;"/><text fill="#000000" font-family="sans-serif" font-size="11" lengthAdjust="spacingAndGlyphs" textLength="326" x="2858" y="456.1064">void &lt;init&gt;(edu.rosehulman.csse374.cheesecake.PlainCheeseCake)</text><!--class edu.rosehulman.csse374.cheesecake.PlainCheeseCake--><rect fill="#008000" filter="url(#fgpzr7wi08v5i)" height="56.1875" id="edu.rosehulman.csse374.cheesecake.PlainCheeseCake" style="stroke: #A80036; stroke-width: 1.5;" width="133" x="3228.5" y="725"/><rect fill="#008000" height="40.1875" style="stroke: #A80036; stroke-width: 1.5;" width="133" x="3228.5" y="725"/><ellipse cx="3243.5" cy="745.0938" fill="#ADD1B2" rx="11" ry="11" style="stroke: #A80036; stroke-width: 1.0;"/><path d="M3246.2656,740.9688 Q3246.4219,740.75 3246.6094,740.6406 Q3246.7969,740.5313 3247.0156,740.5313 Q3247.3906,740.5313 3247.625,740.7891 Q3247.8594,741.0469 3247.8594,741.6563 L3247.8594,743.1094 Q3247.8594,743.7188 3247.625,743.9844 Q3247.3906,744.25 3247.0156,744.25 Q3246.6719,744.25 3246.4688,744.0469 Q3246.2656,743.8594 3246.1563,743.3438 Q3246.1094,742.9844 3245.9219,742.7969 Q3245.5938,742.4219 3244.9844,742.2031 Q3244.375,741.9844 3243.75,741.9844 Q3242.9844,741.9844 3242.3516,742.3125 Q3241.7188,742.6406 3241.2266,743.3906 Q3240.7344,744.1406 3240.7344,745.1719 L3240.7344,746.2656 Q3240.7344,747.5 3241.625,748.3203 Q3242.5156,749.1406 3244.1094,749.1406 Q3245.0469,749.1406 3245.7031,748.8906 Q3246.0938,748.7344 3246.5156,748.2969 Q3246.7813,748.0313 3246.9297,747.9531 Q3247.0781,747.875 3247.2813,747.875 Q3247.6094,747.875 3247.8672,748.1328 Q3248.125,748.3906 3248.125,748.7344 Q3248.125,749.0781 3247.7813,749.4844 Q3247.2813,750.0625 3246.4844,750.3906 Q3245.4063,750.8438 3244.1094,750.8438 Q3242.5938,750.8438 3241.3906,750.2188 Q3240.4063,749.7188 3239.7188,748.6484 Q3239.0313,747.5781 3239.0313,746.2969 L3239.0313,745.1406 Q3239.0313,743.8125 3239.6484,742.6641 Q3240.2656,741.5156 3241.3594,740.8984 Q3242.4531,740.2813 3243.6875,740.2813 Q3244.4219,740.2813 3245.0703,740.4453 Q3245.7188,740.6094 3246.2656,740.9688 Z "/><text fill="#000000" font-family="sans-serif" font-size="12" font-style="italic" lengthAdjust="spacingAndGlyphs" textLength="76" x="3270" y="742.457">«component»</text><text fill="#000000" font-family="sans-serif" font-size="12" lengthAdjust="spacingAndGlyphs" textLength="101" x="3257.5" y="757.5508">PlainCheeseCake</text><line style="stroke: #A80036; stroke-width: 1.5;" x1="3229.5" x2="3360.5" y1="765.1875" y2="765.1875"/><line style="stroke: #A80036; stroke-width: 1.5;" x1="3229.5" x2="3360.5" y1="773.1875" y2="773.1875"/><!--class edu.rosehulman.csse374.cheesecake.CheeseCakeFactory--><rect fill="#FEFECE" filter="url(#fgpzr7wi08v5i)" height="48" id="edu.rosehulman.csse374.cheesecake.CheeseCakeFactory" style="stroke: #A80036; stroke-width: 1.5;" width="144" x="3549" y="729"/><ellipse cx="3564" cy="745" fill="#ADD1B2" rx="11" ry="11" style="stroke: #A80036; stroke-width: 1.0;"/><path d="M3566.7656,740.875 Q3566.9219,740.6563 3567.1094,740.5469 Q3567.2969,740.4375 3567.5156,740.4375 Q3567.8906,740.4375 3568.125,740.6953 Q3568.3594,740.9531 3568.3594,741.5625 L3568.3594,743.0156 Q3568.3594,743.625 3568.125,743.8906 Q3567.8906,744.1563 3567.5156,744.1563 Q3567.1719,744.1563 3566.9688,743.9531 Q3566.7656,743.7656 3566.6563,743.25 Q3566.6094,742.8906 3566.4219,742.7031 Q3566.0938,742.3281 3565.4844,742.1094 Q3564.875,741.8906 3564.25,741.8906 Q3563.4844,741.8906 3562.8516,742.2188 Q3562.2188,742.5469 3561.7266,743.2969 Q3561.2344,744.0469 3561.2344,745.0781 L3561.2344,746.1719 Q3561.2344,747.4063 3562.125,748.2266 Q3563.0156,749.0469 3564.6094,749.0469 Q3565.5469,749.0469 3566.2031,748.7969 Q3566.5938,748.6406 3567.0156,748.2031 Q3567.2813,747.9375 3567.4297,747.8594 Q3567.5781,747.7813 3567.7813,747.7813 Q3568.1094,747.7813 3568.3672,748.0391 Q3568.625,748.2969 3568.625,748.6406 Q3568.625,748.9844 3568.2813,749.3906 Q3567.7813,749.9688 3566.9844,750.2969 Q3565.9063,750.75 3564.6094,750.75 Q3563.0938,750.75 3561.8906,750.125 Q3560.9063,749.625 3560.2188,748.5547 Q3559.5313,747.4844 3559.5313,746.2031 L3559.5313,745.0469 Q3559.5313,743.7188 3560.1484,742.5703 Q3560.7656,741.4219 3561.8594,740.8047 Q3562.9531,740.1875 3564.1875,740.1875 Q3564.9219,740.1875 3565.5703,740.3516 Q3566.2188,740.5156 3566.7656,740.875 Z "/><text fill="#000000" font-family="sans-serif" font-size="12" lengthAdjust="spacingAndGlyphs" textLength="112" x="3578" y="749.9102">CheeseCakeFactory</text><line style="stroke: #A80036; stroke-width: 1.5;" x1="3550" x2="3692" y1="761" y2="761"/><line style="stroke: #A80036; stroke-width: 1.5;" x1="3550" x2="3692" y1="769" y2="769"/><!--class edu.rosehulman.csse374.cheesecake.CheeseCakeUI--><rect fill="#FEFECE" filter="url(#fgpzr7wi08v5i)" height="48" id="edu.rosehulman.csse374.cheesecake.CheeseCakeUI" style="stroke: #A80036; stroke-width: 1.5;" width="117" x="3396.5" y="729"/><ellipse cx="3411.5" cy="745" fill="#ADD1B2" rx="11" ry="11" style="stroke: #A80036; stroke-width: 1.0;"/><path d="M3414.2656,740.875 Q3414.4219,740.6563 3414.6094,740.5469 Q3414.7969,740.4375 3415.0156,740.4375 Q3415.3906,740.4375 3415.625,740.6953 Q3415.8594,740.9531 3415.8594,741.5625 L3415.8594,743.0156 Q3415.8594,743.625 3415.625,743.8906 Q3415.3906,744.1563 3415.0156,744.1563 Q3414.6719,744.1563 3414.4688,743.9531 Q3414.2656,743.7656 3414.1563,743.25 Q3414.1094,742.8906 3413.9219,742.7031 Q3413.5938,742.3281 3412.9844,742.1094 Q3412.375,741.8906 3411.75,741.8906 Q3410.9844,741.8906 3410.3516,742.2188 Q3409.7188,742.5469 3409.2266,743.2969 Q3408.7344,744.0469 3408.7344,745.0781 L3408.7344,746.1719 Q3408.7344,747.4063 3409.625,748.2266 Q3410.5156,749.0469 3412.1094,749.0469 Q3413.0469,749.0469 3413.7031,748.7969 Q3414.0938,748.6406 3414.5156,748.2031 Q3414.7813,747.9375 3414.9297,747.8594 Q3415.0781,747.7813 3415.2813,747.7813 Q3415.6094,747.7813 3415.8672,748.0391 Q3416.125,748.2969 3416.125,748.6406 Q3416.125,748.9844 3415.7813,749.3906 Q3415.2813,749.9688 3414.4844,750.2969 Q3413.4063,750.75 3412.1094,750.75 Q3410.5938,750.75 3409.3906,750.125 Q3408.4063,749.625 3407.7188,748.5547 Q3407.0313,747.4844 3407.0313,746.2031 L3407.0313,745.0469 Q3407.0313,743.7188 3407.6484,742.5703 Q3408.2656,741.4219 3409.3594,740.8047 Q3410.4531,740.1875 3411.6875,740.1875 Q3412.4219,740.1875 3413.0703,740.3516 Q3413.7188,740.5156 3414.2656,740.875 Z "/><text fill="#000000" font-family="sans-serif" font-size="12" lengthAdjust="spacingAndGlyphs" textLength="85" x="3425.5" y="749.9102">CheeseCakeUI</text><line style="stroke: #A80036; stroke-width: 1.5;" x1="3397.5" x2="3512.5" y1="761" y2="761"/><line style="stroke: #A80036; stroke-width: 1.5;" x1="3397.5" x2="3512.5" y1="769" y2="769"/><!--link part1.AbstractPlainCheeseCake to edu.rosehulman.csse374.cheesecake.PlainCheeseCake--><path d="M2501.74,636 C2755.08,636 3234.59,636 3234.59,636 C3234.59,636 3234.59,704.976 3234.59,704.976 " fill="none" id="part1.AbstractPlainCheeseCake-edu.rosehulman.csse374.cheesecake.PlainCheeseCake" style="stroke: #A80036; stroke-width: 1.0;"/><polygon fill="none" points="3241.59,704.976,3234.59,724.9756,3227.59,704.976,3241.59,704.976" style="stroke: #A80036; stroke-width: 1.0;"/><!--link part1.AbstractPlainCheeseCake to edu.rosehulman.csse374.cheesecake.PlainCheeseCake--><path d="M2501.72,643 C2754.32,643 3231.55,643 3231.55,643 C3231.55,643 3231.55,719.9577 3231.55,719.9577 " fill="none" id="part1.AbstractPlainCheeseCake-edu.rosehulman.csse374.cheesecake.PlainCheeseCake" style="stroke: #A80036; stroke-width: 1.0;"/><polygon fill="#A80036" points="3231.55,724.9577,3235.55,715.9577,3231.55,719.9577,3227.55,715.9577,3231.55,724.9577" style="stroke: #A80036; stroke-width: 1.0;"/><text fill="#000000" font-family="sans-serif" font-size="13" lengthAdjust="spacingAndGlyphs" textLength="7" x="3213.4614" y="716.4972">1</text><!--link part1.WhippedTopping to edu.rosehulman.csse374.cheesecake.PlainCheeseCake--><path d="M3180.5,462.612 C3180.5,542.502 3180.5,731 3180.5,731 C3180.5,731 3223.39,731 3223.39,731 " fill="none" id="part1.WhippedTopping-edu.rosehulman.csse374.cheesecake.PlainCheeseCake" style="stroke: #A80036; stroke-width: 1.0; stroke-dasharray: 7.0,7.0;"/><polygon fill="#A80036" points="3228.39,731,3219.39,727,3223.39,731,3219.39,735,3228.39,731" style="stroke: #A80036; stroke-width: 1.0;"/><text fill="#000000" font-family="sans-serif" font-size="13" lengthAdjust="spacingAndGlyphs" textLength="7" x="3213.2835" y="725.0359">1</text><!--link part2.Reeses to part1.AbstractPlainCheeseCake--><path d="M1429.67,462.767 C1429.67,517.081 1429.67,615 1429.67,615 C1429.67,615 2176.42,615 2176.42,615 " fill="none" id="part2.Reeses-part1.AbstractPlainCheeseCake" style="stroke: #A80036; stroke-width: 1.0;"/><polygon fill="none" points="2176.42,608,2196.42,615,2176.42,622,2176.42,608" style="stroke: #A80036; stroke-width: 1.0;"/><!--link part1.ChocolateCheeseCakeFactory to part1.CustomCheeseCakeFactory--><path d="M3636.6,295.651 C3636.6,295.651 3636.6,348.776 3636.6,348.776 " fill="none" id="part1.ChocolateCheeseCakeFactory-part1.CustomCheeseCakeFactory" style="stroke: #A80036; stroke-width: 1.0;"/><polygon fill="none" points="3643.6,348.776,3636.6,368.776,3629.6,348.776,3643.6,348.776" style="stroke: #A80036; stroke-width: 1.0;"/><!--link client.CheeseCakeClient to part1.DrizzleCommand--><path d="M3325.35,83 C3087.81,83 2400.67,83 2400.67,83 C2400.67,83 2400.67,214.205 2400.67,214.205 " fill="none" id="client.CheeseCakeClient-part1.DrizzleCommand" style="stroke: #A80036; stroke-width: 1.0; stroke-dasharray: 7.0,7.0;"/><polygon fill="#A80036" points="2400.67,219.205,2404.67,210.205,2400.67,214.205,2396.67,210.205,2400.67,219.205" style="stroke: #A80036; stroke-width: 1.0;"/><text fill="#000000" font-family="sans-serif" font-size="13" lengthAdjust="spacingAndGlyphs" textLength="7" x="2411.3347" y="208.5144">1</text><!--link part1.Command to edu.rosehulman.csse374.cheesecake.PlainCheeseCake--><path d="M3171.25,613 C3210.77,613 3237.64,613 3237.64,613 C3237.64,613 3237.64,719.6689 3237.64,719.6689 " fill="none" id="part1.Command-edu.rosehulman.csse374.cheesecake.PlainCheeseCake" style="stroke: #A80036; stroke-width: 1.0; stroke-dasharray: 7.0,7.0;"/><polygon fill="#A80036" points="3237.64,724.6689,3241.64,715.6689,3237.64,719.6689,3233.64,715.6689,3237.64,724.6689" style="stroke: #A80036; stroke-width: 1.0;"/><text fill="#000000" font-family="sans-serif" font-size="13" lengthAdjust="spacingAndGlyphs" textLength="7" x="3225.8581" y="714.2347">1</text><!--link part1.DrizzleCommand to edu.rosehulman.csse374.cheesecake.PlainCheeseCake--><path d="M2510,295.796 C2510,315.321 2510,335 2510,335 C2510,335 3240.68,335 3240.68,335 C3240.68,335 3240.68,719.9248 3240.68,719.9248 " fill="none" id="part1.DrizzleCommand-edu.rosehulman.csse374.cheesecake.PlainCheeseCake" style="stroke: #A80036; stroke-width: 1.0; stroke-dasharray: 7.0,7.0;"/><polygon fill="#A80036" points="3240.68,724.9248,3244.68,715.9248,3240.68,719.9248,3236.68,715.9248,3240.68,724.9248" style="stroke: #A80036; stroke-width: 1.0;"/><text fill="#000000" font-family="sans-serif" font-size="13" lengthAdjust="spacingAndGlyphs" textLength="7" x="3220.3091" y="714.0967">1</text><!--link part1.ChocolateTopping to edu.rosehulman.csse374.cheesecake.PlainCheeseCake--><path d="M2111.75,462.662 C2111.75,544.729 2111.75,742 2111.75,742 C2111.75,742 3223.42,742 3223.42,742 " fill="none" id="part1.ChocolateTopping-edu.rosehulman.csse374.cheesecake.PlainCheeseCake" style="stroke: #A80036; stroke-width: 1.0; stroke-dasharray: 7.0,7.0;"/><polygon fill="#A80036" points="3228.42,742,3219.42,738,3223.42,742,3219.42,746,3228.42,742" style="stroke: #A80036; stroke-width: 1.0;"/><text fill="#000000" font-family="sans-serif" font-size="13" lengthAdjust="spacingAndGlyphs" textLength="7" x="3213.317" y="737.3077">1</text><!--link part1.Strawberries to part1.AbstractPlainCheeseCake--><path d="M2457.75,462.724 C2457.75,462.724 2457.75,525.865 2457.75,525.865 " fill="none" id="part1.Strawberries-part1.AbstractPlainCheeseCake" style="stroke: #A80036; stroke-width: 1.0;"/><polygon fill="none" points="2464.75,525.865,2457.75,545.865,2450.75,525.865,2464.75,525.865" style="stroke: #A80036; stroke-width: 1.0;"/><!--link part1.StrawberryCheeseCakeFactory to edu.rosehulman.csse374.cheesecake.PlainCheeseCake--><path d="M2957.25,295.504 C2957.25,311.729 2957.25,327 2957.25,327 C2957.25,327 3243.73,327 3243.73,327 C3243.73,327 3243.73,719.719 3243.73,719.719 " fill="none" id="part1.StrawberryCheeseCakeFactory-edu.rosehulman.csse374.cheesecake.PlainCheeseCake" style="stroke: #A80036; stroke-width: 1.0; stroke-dasharray: 7.0,7.0;"/><polygon fill="#A80036" points="3243.73,724.719,3247.73,715.719,3243.73,719.719,3239.73,715.719,3243.73,724.719" style="stroke: #A80036; stroke-width: 1.0;"/><text fill="#000000" font-family="sans-serif" font-size="13" lengthAdjust="spacingAndGlyphs" textLength="7" x="3214.1374" y="729.882">1</text><!--link part1.WhippedTopping to part1.AbstractPlainCheeseCake--><path d="M3004.5,462.545 C3004.5,500.897 3004.5,557 3004.5,557 C3004.5,557 2521.86,557 2521.86,557 " fill="none" id="part1.WhippedTopping-part1.AbstractPlainCheeseCake" style="stroke: #A80036; stroke-width: 1.0;"/><polygon fill="none" points="2521.86,564,2501.86,557,2521.86,550,2521.86,564" style="stroke: #A80036; stroke-width: 1.0;"/><!--link part1.ChocolateTopping to part1.AbstractPlainCheeseCake--><path d="M2287.75,462.724 C2287.75,462.724 2287.75,525.865 2287.75,525.865 " fill="none" id="part1.ChocolateTopping-part1.AbstractPlainCheeseCake" style="stroke: #A80036; stroke-width: 1.0;"/><polygon fill="none" points="2294.75,525.865,2287.75,545.865,2280.75,525.865,2294.75,525.865" style="stroke: #A80036; stroke-width: 1.0;"/><!--link part2.CandyCheeseCakeFactory to part1.ExtensibleCheesecakeFactory--><path d="M673.831,297 C673.831,297 3809.38,297 3809.38,297 " fill="none" id="part2.CandyCheeseCakeFactory-part1.ExtensibleCheesecakeFactory" style="stroke: #A80036; stroke-width: 1.0; stroke-dasharray: 7.0,7.0;"/><polygon fill="#A80036" points="3814.38,297,3805.38,293,3809.38,297,3805.38,301,3814.38,297" style="stroke: #A80036; stroke-width: 1.0;"/><text fill="#000000" font-family="sans-serif" font-size="13" lengthAdjust="spacingAndGlyphs" textLength="7" x="3799.5011" y="295.5426">1</text><!--link part2.main to part2.MMAdder--><path d="M1784.75,136.584 C1784.75,136.584 1784.75,214.451 1784.75,214.451 " fill="none" id="part2.main-part2.MMAdder" style="stroke: #A80036; stroke-width: 1.0; stroke-dasharray: 7.0,7.0;"/><polygon fill="#A80036" points="1784.75,219.451,1788.75,210.451,1784.75,214.451,1780.75,210.451,1784.75,219.451" style="stroke: #A80036; stroke-width: 1.0;"/><text fill="#000000" font-family="sans-serif" font-size="13" lengthAdjust="spacingAndGlyphs" textLength="7" x="1804.5305" y="208.5185">1</text><!--link part1.StrawberryCheeseCakeFactory to part1.Strawberries--><path d="M2703.5,295.651 C2703.5,295.651 2703.5,387.373 2703.5,387.373 " fill="none" id="part1.StrawberryCheeseCakeFactory-part1.Strawberries" style="stroke: #A80036; stroke-width: 1.0; stroke-dasharray: 7.0,7.0;"/><polygon fill="#A80036" points="2703.5,392.373,2707.5,383.373,2703.5,387.373,2699.5,383.373,2703.5,392.373" style="stroke: #A80036; stroke-width: 1.0;"/><text fill="#000000" font-family="sans-serif" font-size="13" lengthAdjust="spacingAndGlyphs" textLength="7" x="2717.4688" y="381.6783">1</text><!--link part2.CandyCheeseCakeFactory to edu.rosehulman.csse374.cheesecake.CheeseCakeFactory--><path d="M292.5,309.2 C292.5,386.7 292.5,524 292.5,524 C292.5,524 3573,524 3573,524 C3573,524 3573,708.926 3573,708.926 " fill="none" id="part2.CandyCheeseCakeFactory-edu.rosehulman.csse374.cheesecake.CheeseCakeFactory" style="stroke: #A80036; stroke-width: 1.0;"/><polygon fill="none" points="3580,708.926,3573,728.9258,3566,708.926,3580,708.926" style="stroke: #A80036; stroke-width: 1.0;"/><!--link part2.CandyCheeseCakeFactory to edu.rosehulman.csse374.cheesecake.CheeseCakeFactory--><path d="M419.5,309.19 C419.5,384.627 419.5,516 419.5,516 C419.5,516 3597,516 3597,516 C3597,516 3597,723.9709 3597,723.9709 " fill="none" id="part2.CandyCheeseCakeFactory-edu.rosehulman.csse374.cheesecake.CheeseCakeFactory" style="stroke: #A80036; stroke-width: 1.0;"/><polygon fill="#A80036" points="3597,728.9709,3601,719.9709,3597,723.9709,3593,719.9709,3597,728.9709" style="stroke: #A80036; stroke-width: 1.0;"/><text fill="#000000" font-family="sans-serif" font-size="13" lengthAdjust="spacingAndGlyphs" textLength="7" x="3582.9531" y="718.3037">1</text><!--link part1.PlainCheeseCakeFactory to edu.rosehulman.csse374.cheesecake.PlainCheeseCake--><path d="M3246.77,295.558 C3246.77,295.558 3246.77,719.7301 3246.77,719.7301 " fill="none" id="part1.PlainCheeseCakeFactory-edu.rosehulman.csse374.cheesecake.PlainCheeseCake" style="stroke: #A80036; stroke-width: 1.0; stroke-dasharray: 7.0,7.0;"/><polygon fill="#A80036" points="3246.77,724.7301,3250.77,715.7301,3246.77,719.7301,3242.77,715.7301,3246.77,724.7301" style="stroke: #A80036; stroke-width: 1.0;"/><text fill="#000000" font-family="sans-serif" font-size="13" lengthAdjust="spacingAndGlyphs" textLength="7" x="3228.4541" y="714.309">1</text><!--link part1.ExtensibleCheesecakeFactory to edu.rosehulman.csse374.cheesecake.CheeseCakeFactory--><path d="M4167.67,302.625 C4167.67,426.21 4167.67,761 4167.67,761 C4167.67,761 3713.03,761 3713.03,761 " fill="none" id="part1.ExtensibleCheesecakeFactory-edu.rosehulman.csse374.cheesecake.CheeseCakeFactory" style="stroke: #A80036; stroke-width: 1.0;"/><polygon fill="none" points="3713.03,767.9999,3693.03,761,3713.03,753.9999,3713.03,767.9999" style="stroke: #A80036; stroke-width: 1.0;"/><!--link part1.PlainCheeseCakeFactory to part1.Command--><path d="M3209.25,295.678 C3209.25,381.457 3209.25,582 3209.25,582 C3209.25,582 3176.23,582 3176.23,582 " fill="none" id="part1.PlainCheeseCakeFactory-part1.Command" style="stroke: #A80036; stroke-width: 1.0; stroke-dasharray: 7.0,7.0;"/><polygon fill="#A80036" points="3171.23,582,3180.23,586,3176.23,582,3180.23,578,3171.23,582" style="stroke: #A80036; stroke-width: 1.0;"/><text fill="#000000" font-family="sans-serif" font-size="13" lengthAdjust="spacingAndGlyphs" textLength="7" x="3178.7471" y="578.9504">1</text><!--link client.CheeseCakeClient to edu.rosehulman.csse374.cheesecake.CheeseCakeUI--><path d="M3405.5,136.59 C3405.5,205.546 3405.5,344 3405.5,344 C3405.5,344 3258.95,344 3258.95,344 C3258.95,344 3258.95,531 3258.95,531 C3258.95,531 3474.5,531 3474.5,531 C3474.5,531 3474.5,723.8195 3474.5,723.8195 " fill="none" id="client.CheeseCakeClient-edu.rosehulman.csse374.cheesecake.CheeseCakeUI" style="stroke: #A80036; stroke-width: 1.0; stroke-dasharray: 7.0,7.0;"/><polygon fill="#A80036" points="3474.5,728.8195,3478.5,719.8195,3474.5,723.8195,3470.5,719.8195,3474.5,728.8195" style="stroke: #A80036; stroke-width: 1.0;"/><text fill="#000000" font-family="sans-serif" font-size="13" lengthAdjust="spacingAndGlyphs" textLength="7" x="3471.6" y="718.114">1</text><!--link client.CheeseCakeClient to part1.PlainCheeseCakeFactory--><path d="M3356.75,136.584 C3356.75,136.584 3356.75,214.451 3356.75,214.451 " fill="none" id="client.CheeseCakeClient-part1.PlainCheeseCakeFactory" style="stroke: #A80036; stroke-width: 1.0; stroke-dasharray: 7.0,7.0;"/><polygon fill="#A80036" points="3356.75,219.451,3360.75,210.451,3356.75,214.451,3352.75,210.451,3356.75,219.451" style="stroke: #A80036; stroke-width: 1.0;"/><text fill="#000000" font-family="sans-serif" font-size="13" lengthAdjust="spacingAndGlyphs" textLength="7" x="3376.1617" y="208.5185">1</text><!--link part2.CandyCheeseCakeFactory to part1.CustomCheeseCakeFactory--><path d="M673.587,299 C1435.43,299 3304,299 3304,299 C3304,299 3304,363.891 3304,363.891 " fill="none" id="part2.CandyCheeseCakeFactory-part1.CustomCheeseCakeFactory" style="stroke: #A80036; stroke-width: 1.0; stroke-dasharray: 7.0,7.0;"/><polygon fill="#A80036" points="3304,368.891,3308,359.891,3304,363.891,3300,359.891,3304,368.891" style="stroke: #A80036; stroke-width: 1.0;"/><text fill="#000000" font-family="sans-serif" font-size="13" lengthAdjust="spacingAndGlyphs" textLength="5" x="3263.2297" y="358.2786">*</text><!--link part1.CustomCheeseCakeFactory to edu.rosehulman.csse374.cheesecake.CheeseCakeFactory--><path d="M3669,486.069 C3669,486.069 3669,723.8797 3669,723.8797 " fill="none" id="part1.CustomCheeseCakeFactory-edu.rosehulman.csse374.cheesecake.CheeseCakeFactory" style="stroke: #A80036; stroke-width: 1.0; stroke-dasharray: 7.0,7.0;"/><polygon fill="#A80036" points="3669,728.8797,3673,719.8797,3669,723.8797,3665,719.8797,3669,728.8797" style="stroke: #A80036; stroke-width: 1.0;"/><text fill="#000000" font-family="sans-serif" font-size="13" lengthAdjust="spacingAndGlyphs" textLength="7" x="3673.4031" y="718.1894">1</text><!--link client.CheeseCakeClient to part1.ChocolateCheeseCakeFactory--><path d="M3453.75,136.584 C3453.75,136.584 3453.75,214.451 3453.75,214.451 " fill="none" id="client.CheeseCakeClient-part1.ChocolateCheeseCakeFactory" style="stroke: #A80036; stroke-width: 1.0; stroke-dasharray: 7.0,7.0;"/><polygon fill="#A80036" points="3453.75,219.451,3457.75,210.451,3453.75,214.451,3449.75,210.451,3453.75,219.451" style="stroke: #A80036; stroke-width: 1.0;"/><text fill="#000000" font-family="sans-serif" font-size="13" lengthAdjust="spacingAndGlyphs" textLength="7" x="3418.9555" y="208.5185">1</text><!--link part1.PlainCheeseCakeFactory to edu.rosehulman.csse374.cheesecake.CheeseCakeFactory--><path d="M3249.82,295.547 C3249.82,364.031 3249.82,501 3249.82,501 C3249.82,501 3645,501 3645,501 C3645,501 3645,723.8372 3645,723.8372 " fill="none" id="part1.PlainCheeseCakeFactory-edu.rosehulman.csse374.cheesecake.CheeseCakeFactory" style="stroke: #A80036; stroke-width: 1.0; stroke-dasharray: 7.0,7.0;"/><polygon fill="#A80036" points="3645,728.8372,3649,719.8372,3645,723.8372,3641,719.8372,3645,728.8372" style="stroke: #A80036; stroke-width: 1.0;"/><text fill="#000000" font-family="sans-serif" font-size="13" lengthAdjust="spacingAndGlyphs" textLength="7" x="3643.2531" y="718.1354">1</text><!--link part2.main to part2.CandyCheeseCakeFactory--><path d="M1745,136.646 C1745,170.623 1745,215 1745,215 C1745,215 678.794,215 678.794,215 " fill="none" id="part2.main-part2.CandyCheeseCakeFactory" style="stroke: #A80036; stroke-width: 1.0; stroke-dasharray: 7.0,7.0;"/><polygon fill="#A80036" points="673.794,215,682.794,219,678.794,215,682.794,211,673.794,215" style="stroke: #A80036; stroke-width: 1.0;"/><text fill="#000000" font-family="sans-serif" font-size="13" lengthAdjust="spacingAndGlyphs" textLength="7" x="681.3243" y="211.3116">1</text><!--link part1.StrawberryCheeseCakeFactory to part1.Command--><path d="M2784,295.513 C2784,295.513 2784,561.226 2784,561.226 " fill="none" id="part1.StrawberryCheeseCakeFactory-part1.Command" style="stroke: #A80036; stroke-width: 1.0; stroke-dasharray: 7.0,7.0;"/><polygon fill="#A80036" points="2784,566.226,2788,557.226,2784,561.226,2780,557.226,2784,566.226" style="stroke: #A80036; stroke-width: 1.0;"/><text fill="#000000" font-family="sans-serif" font-size="13" lengthAdjust="spacingAndGlyphs" textLength="7" x="2761.8406" y="555.674">1</text><!--link part1.DrizzleCommand to part1.Command--><path d="M2396.5,295.761 C2396.5,362.695 2396.5,494 2396.5,494 C2396.5,494 2651.5,494 2651.5,494 C2651.5,494 2651.5,546.447 2651.5,546.447 " fill="none" id="part1.DrizzleCommand-part1.Command" style="stroke: #A80036; stroke-width: 1.0; stroke-dasharray: 7.0,7.0;"/><polygon fill="none" points="2658.5,546.447,2651.5,566.447,2644.5,546.447,2658.5,546.447" style="stroke: #A80036; stroke-width: 1.0;"/><!--link part1.CustomCheeseCakeFactory to part1.Command--><path d="M3295.17,486.176 C3295.17,535.496 3295.17,598 3295.17,598 C3295.17,598 3176.1,598 3176.1,598 " fill="none" id="part1.CustomCheeseCakeFactory-part1.Command" style="stroke: #A80036; stroke-width: 1.0;"/><polygon fill="#A80036" points="3171.1,598,3180.1,602,3176.1,598,3180.1,594,3171.1,598" style="stroke: #A80036; stroke-width: 1.0;"/><text fill="#000000" font-family="sans-serif" font-size="13" lengthAdjust="spacingAndGlyphs" textLength="7" x="3178.6141" y="595.3254">1</text><!--link part2.CandyCheeseCakeFactory to part2.CandyAdder--><path d="M610,309.429 C610,309.429 610,391.378 610,391.378 " fill="none" id="part2.CandyCheeseCakeFactory-part2.CandyAdder" style="stroke: #A80036; stroke-width: 1.0;"/><polygon fill="#A80036" points="610,396.378,614,387.378,610,391.378,606,387.378,610,396.378" style="stroke: #A80036; stroke-width: 1.0;"/><text fill="#000000" font-family="sans-serif" font-size="13" lengthAdjust="spacingAndGlyphs" textLength="5" x="554.3656" y="385.8574">*</text><!--link part1.ChocolateCheeseCakeFactory to edu.rosehulman.csse374.cheesecake.CheeseCakeFactory--><path d="M3707.8,295.746 C3707.8,325.229 3707.8,361 3707.8,361 C3707.8,361 4047.83,361 4047.83,361 C4047.83,361 4047.83,745 4047.83,745 C4047.83,745 3698.41,745 3698.41,745 " fill="none" id="part1.ChocolateCheeseCakeFactory-edu.rosehulman.csse374.cheesecake.CheeseCakeFactory" style="stroke: #A80036; stroke-width: 1.0; stroke-dasharray: 7.0,7.0;"/><polygon fill="#A80036" points="3693.41,745,3702.41,749,3698.41,745,3702.41,741,3693.41,745" style="stroke: #A80036; stroke-width: 1.0;"/><text fill="#000000" font-family="sans-serif" font-size="13" lengthAdjust="spacingAndGlyphs" textLength="7" x="3700.8824" y="740.9374">1</text><!--link part2.MMAdder to part2.MM--><path d="M1757.75,295.651 C1757.75,295.651 1757.75,387.373 1757.75,387.373 " fill="none" id="part2.MMAdder-part2.MM" style="stroke: #A80036; stroke-width: 1.0; stroke-dasharray: 7.0,7.0;"/><polygon fill="#A80036" points="1757.75,392.373,1761.75,383.373,1757.75,387.373,1753.75,383.373,1757.75,392.373" style="stroke: #A80036; stroke-width: 1.0;"/><text fill="#000000" font-family="sans-serif" font-size="13" lengthAdjust="spacingAndGlyphs" textLength="7" x="1750.0352" y="381.6783">1</text><!--link part1.ChocolateCheeseCakeFactory to edu.rosehulman.csse374.cheesecake.PlainCheeseCake--><path d="M3494.2,295.812 C3494.2,299.556 3494.2,302 3494.2,302 C3494.2,302 3252.86,302 3252.86,302 C3252.86,302 3252.86,719.7879 3252.86,719.7879 " fill="none" id="part1.ChocolateCheeseCakeFactory-edu.rosehulman.csse374.cheesecake.PlainCheeseCake" style="stroke: #A80036; stroke-width: 1.0; stroke-dasharray: 7.0,7.0;"/><polygon fill="#A80036" points="3252.86,724.7879,3256.86,715.7879,3252.86,719.7879,3248.86,715.7879,3252.86,724.7879" style="stroke: #A80036; stroke-width: 1.0;"/><text fill="#000000" font-family="sans-serif" font-size="13" lengthAdjust="spacingAndGlyphs" textLength="7" x="3243.9245" y="713.9281">1</text><!--link part2.ReesesAdder to edu.rosehulman.csse374.cheesecake.PlainCheeseCake--><path d="M1177.25,295.645 C1177.25,413.67 1177.25,765 1177.25,765 C1177.25,765 3223.42,765 3223.42,765 " fill="none" id="part2.ReesesAdder-edu.rosehulman.csse374.cheesecake.PlainCheeseCake" style="stroke: #A80036; stroke-width: 1.0; stroke-dasharray: 7.0,7.0;"/><polygon fill="#A80036" points="3228.42,765,3219.42,761,3223.42,765,3219.42,769,3228.42,765" style="stroke: #A80036; stroke-width: 1.0;"/><text fill="#000000" font-family="sans-serif" font-size="13" lengthAdjust="spacingAndGlyphs" textLength="7" x="3213.8328" y="763.4391">1</text><!--link part1.ChocolateCheeseCakeFactory to part1.Command--><path d="M3565.4,295.816 C3565.4,307.822 3565.4,318 3565.4,318 C3565.4,318 2820,318 2820,318 C2820,318 2820,561.251 2820,561.251 " fill="none" id="part1.ChocolateCheeseCakeFactory-part1.Command" style="stroke: #A80036; stroke-width: 1.0; stroke-dasharray: 7.0,7.0;"/><polygon fill="#A80036" points="2820,566.251,2824,557.251,2820,561.251,2816,557.251,2820,566.251" style="stroke: #A80036; stroke-width: 1.0;"/><text fill="#000000" font-family="sans-serif" font-size="13" lengthAdjust="spacingAndGlyphs" textLength="7" x="2805.2656" y="555.7042">1</text><!--link part2.CandyAdder to edu.rosehulman.csse374.cheesecake.PlainCheeseCake--><path d="M853,458.803 C853,543.353 853,770 853,770 C853,770 3223.42,770 3223.42,770 " fill="none" id="part2.CandyAdder-edu.rosehulman.csse374.cheesecake.PlainCheeseCake" style="stroke: #A80036; stroke-width: 1.0; stroke-dasharray: 7.0,7.0;"/><polygon fill="#A80036" points="3228.42,770,3219.42,766,3223.42,770,3219.42,774,3228.42,770" style="stroke: #A80036; stroke-width: 1.0;"/><text fill="#000000" font-family="sans-serif" font-size="13" lengthAdjust="spacingAndGlyphs" textLength="7" x="3213.317" y="768.5452">1</text><!--link part2.MM to part1.AbstractPlainCheeseCake--><path d="M1816.67,462.716 C1816.67,508.034 1816.67,581 1816.67,581 C1816.67,581 2176.45,581 2176.45,581 " fill="none" id="part2.MM-part1.AbstractPlainCheeseCake" style="stroke: #A80036; stroke-width: 1.0;"/><polygon fill="none" points="2176.45,574,2196.45,581,2176.45,588,2176.45,574" style="stroke: #A80036; stroke-width: 1.0;"/><!--link part1.StrawberryCheeseCakeFactory to part1.CustomCheeseCakeFactory--><path d="M2917.5,295.562 C2917.5,331.849 2917.5,381 2917.5,381 C2917.5,381 3241.71,381 3241.71,381 " fill="none" id="part1.StrawberryCheeseCakeFactory-part1.CustomCheeseCakeFactory" style="stroke: #A80036; stroke-width: 1.0;"/><polygon fill="none" points="3241.71,374,3261.71,381,3241.71,388,3241.71,374" style="stroke: #A80036; stroke-width: 1.0;"/><!--link part1.StrawberryCheeseCakeFactory to edu.rosehulman.csse374.cheesecake.CheeseCakeFactory--><path d="M2802,295.697 C2802,366.054 2802,509 2802,509 C2802,509 3621,509 3621,509 C3621,509 3621,723.7123 3621,723.7123 " fill="none" id="part1.StrawberryCheeseCakeFactory-edu.rosehulman.csse374.cheesecake.CheeseCakeFactory" style="stroke: #A80036; stroke-width: 1.0; stroke-dasharray: 7.0,7.0;"/><polygon fill="#A80036" points="3621,728.7123,3625,719.7123,3621,723.7123,3617,719.7123,3621,728.7123" style="stroke: #A80036; stroke-width: 1.0;"/><text fill="#000000" font-family="sans-serif" font-size="13" lengthAdjust="spacingAndGlyphs" textLength="7" x="3613.1031" y="717.9784">1</text><!--link part1.CustomCheeseCakeFactory to edu.rosehulman.csse374.cheesecake.PlainCheeseCake--><path d="M3328.33,486.069 C3328.33,486.069 3328.33,719.8841 3328.33,719.8841 " fill="none" id="part1.CustomCheeseCakeFactory-edu.rosehulman.csse374.cheesecake.PlainCheeseCake" style="stroke: #A80036; stroke-width: 1.0; stroke-dasharray: 7.0,7.0;"/><polygon fill="#A80036" points="3328.33,724.8841,3332.33,715.8841,3328.33,719.8841,3324.33,715.8841,3328.33,724.8841" style="stroke: #A80036; stroke-width: 1.0;"/><text fill="#000000" font-family="sans-serif" font-size="13" lengthAdjust="spacingAndGlyphs" textLength="7" x="3328.2282" y="714.0463">1</text><!--link part1.Strawberries to edu.rosehulman.csse374.cheesecake.PlainCheeseCake--><path d="M2519.25,462.702 C2519.25,543.822 2519.25,737 2519.25,737 C2519.25,737 3223.19,737 3223.19,737 " fill="none" id="part1.Strawberries-edu.rosehulman.csse374.cheesecake.PlainCheeseCake" style="stroke: #A80036; stroke-width: 1.0; stroke-dasharray: 7.0,7.0;"/><polygon fill="#A80036" points="3228.19,737,3219.19,733,3223.19,737,3219.19,741,3228.19,737" style="stroke: #A80036; stroke-width: 1.0;"/><text fill="#000000" font-family="sans-serif" font-size="13" lengthAdjust="spacingAndGlyphs" textLength="7" x="3213.5496" y="728.9641">1</text><!--link part2.main to part1.ChocolateCheeseCakeFactory--><path d="M1705.25,136.542 C1705.25,154.476 1705.25,172 1705.25,172 C1705.25,172 3438.38,172 3438.38,172 C3438.38,172 3438.38,214.251 3438.38,214.251 " fill="none" id="part2.main-part1.ChocolateCheeseCakeFactory" style="stroke: #A80036; stroke-width: 1.0; stroke-dasharray: 7.0,7.0;"/><polygon fill="#A80036" points="3438.38,219.251,3442.38,210.251,3438.38,214.251,3434.38,210.251,3438.38,219.251" style="stroke: #A80036; stroke-width: 1.0;"/><text fill="#000000" font-family="sans-serif" font-size="13" lengthAdjust="spacingAndGlyphs" textLength="7" x="3408.0194" y="210.2901">1</text><!--link part2.main to edu.rosehulman.csse374.cheesecake.CheeseCakeUI--><path d="M1824.57,126 C1886.5,126 1962,126 1962,126 C1962,126 1962,539 1962,539 C1962,539 3435.5,539 3435.5,539 C3435.5,539 3435.5,723.8675 3435.5,723.8675 " fill="none" id="part2.main-edu.rosehulman.csse374.cheesecake.CheeseCakeUI" style="stroke: #A80036; stroke-width: 1.0; stroke-dasharray: 7.0,7.0;"/><polygon fill="#A80036" points="3435.5,728.8675,3439.5,719.8675,3435.5,723.8675,3431.5,719.8675,3435.5,728.8675" style="stroke: #A80036; stroke-width: 1.0;"/><text fill="#000000" font-family="sans-serif" font-size="13" lengthAdjust="spacingAndGlyphs" textLength="7" x="3422.6063" y="718.1731">1</text><!--link part1.StrawberryCheeseCakeFactory to part1.WhippedTopping--><path d="M2877.75,295.651 C2877.75,295.651 2877.75,387.373 2877.75,387.373 " fill="none" id="part1.StrawberryCheeseCakeFactory-part1.WhippedTopping" style="stroke: #A80036; stroke-width: 1.0; stroke-dasharray: 7.0,7.0;"/><polygon fill="#A80036" points="2877.75,392.373,2881.75,383.373,2877.75,387.373,2873.75,383.373,2877.75,392.373" style="stroke: #A80036; stroke-width: 1.0;"/><text fill="#000000" font-family="sans-serif" font-size="13" lengthAdjust="spacingAndGlyphs" textLength="7" x="2844.1102" y="381.6783">1</text><!--link part2.main to part1.DrizzleCommand--><path d="M1824.73,115 C1954.08,115 2195.33,115 2195.33,115 C2195.33,115 2195.33,214.313 2195.33,214.313 " fill="none" id="part2.main-part1.DrizzleCommand" style="stroke: #A80036; stroke-width: 1.0; stroke-dasharray: 7.0,7.0;"/><polygon fill="#A80036" points="2195.33,219.313,2199.33,210.313,2195.33,214.313,2191.33,210.313,2195.33,219.313" style="stroke: #A80036; stroke-width: 1.0;"/><text fill="#000000" font-family="sans-serif" font-size="13" lengthAdjust="spacingAndGlyphs" textLength="7" x="2169.4185" y="208.6416">1</text><!--link part2.ReesesAdder to part2.Reeses--><path d="M1249.25,295.651 C1249.25,295.651 1249.25,387.373 1249.25,387.373 " fill="none" id="part2.ReesesAdder-part2.Reeses" style="stroke: #A80036; stroke-width: 1.0; stroke-dasharray: 7.0,7.0;"/><polygon fill="#A80036" points="1249.25,392.373,1253.25,383.373,1249.25,387.373,1245.25,383.373,1249.25,392.373" style="stroke: #A80036; stroke-width: 1.0;"/><text fill="#000000" font-family="sans-serif" font-size="13" lengthAdjust="spacingAndGlyphs" textLength="7" x="1218.3742" y="381.6783">1</text><!--link part2.MMAdder to part2.CandyAdder--><path d="M1442.75,295.77 C1442.75,298.379 1442.75,300 1442.75,300 C1442.75,300 1009.17,300 1009.17,300 C1009.17,300 1009.17,376.31 1009.17,376.31 " fill="none" id="part2.MMAdder-part2.CandyAdder" style="stroke: #A80036; stroke-width: 1.0; stroke-dasharray: 7.0,7.0;"/><polygon fill="none" points="1016.17,376.31,1009.17,396.31,1002.167,376.31,1016.17,376.31" style="stroke: #A80036; stroke-width: 1.0;"/><!--link part2.ReesesAdder to part2.CandyAdder--><path d="M858.833,295.651 C858.833,295.651 858.833,376.296 858.833,376.296 " fill="none" id="part2.ReesesAdder-part2.CandyAdder" style="stroke: #A80036; stroke-width: 1.0; stroke-dasharray: 7.0,7.0;"/><polygon fill="none" points="865.833,376.296,858.833,396.296,851.833,376.296,865.833,376.296" style="stroke: #A80036; stroke-width: 1.0;"/><!--link part2.main to part1.StrawberryCheeseCakeFactory--><path d="M1824.62,94 C2063.82,94 2759.67,94 2759.67,94 C2759.67,94 2759.67,214.167 2759.67,214.167 " fill="none" id="part2.main-part1.StrawberryCheeseCakeFactory" style="stroke: #A80036; stroke-width: 1.0; stroke-dasharray: 7.0,7.0;"/><polygon fill="#A80036" points="2759.67,219.167,2763.67,210.167,2759.67,214.167,2755.67,210.167,2759.67,219.167" style="stroke: #A80036; stroke-width: 1.0;"/><text fill="#000000" font-family="sans-serif" font-size="13" lengthAdjust="spacingAndGlyphs" textLength="7" x="2741.8711" y="208.757">1</text><!--link part1.PlainCheeseCakeFactory to part1.CustomCheeseCakeFactory--><path d="M3346,295.651 C3346,295.651 3346,348.776 3346,348.776 " fill="none" id="part1.PlainCheeseCakeFactory-part1.CustomCheeseCakeFactory" style="stroke: #A80036; stroke-width: 1.0;"/><polygon fill="none" points="3353,348.776,3346,368.776,3339,348.776,3353,348.776" style="stroke: #A80036; stroke-width: 1.0;"/><!--link part2.Reeses to edu.rosehulman.csse374.cheesecake.PlainCheeseCake--><path d="M1312.33,462.662 C1312.33,547.978 1312.33,759 1312.33,759 C1312.33,759 3223.47,759 3223.47,759 " fill="none" id="part2.Reeses-edu.rosehulman.csse374.cheesecake.PlainCheeseCake" style="stroke: #A80036; stroke-width: 1.0; stroke-dasharray: 7.0,7.0;"/><polygon fill="#A80036" points="3228.47,759,3219.47,755,3223.47,759,3219.47,763,3228.47,759" style="stroke: #A80036; stroke-width: 1.0;"/><text fill="#000000" font-family="sans-serif" font-size="13" lengthAdjust="spacingAndGlyphs" textLength="7" x="3213.3728" y="774.1234">1</text><!--link part2.MMAdder to edu.rosehulman.csse374.cheesecake.PlainCheeseCake--><path d="M1564.5,295.558 C1564.5,411.586 1564.5,753 1564.5,753 C1564.5,753 3223.49,753 3223.49,753 " fill="none" id="part2.MMAdder-edu.rosehulman.csse374.cheesecake.PlainCheeseCake" style="stroke: #A80036; stroke-width: 1.0; stroke-dasharray: 7.0,7.0;"/><polygon fill="#A80036" points="3228.49,753,3219.49,749,3223.49,753,3219.49,757,3228.49,753" style="stroke: #A80036; stroke-width: 1.0;"/><text fill="#000000" font-family="sans-serif" font-size="13" lengthAdjust="spacingAndGlyphs" textLength="7" x="3213.3951" y="749.5796">1</text><!--link client.CheeseCakeClient to part1.ExtensibleCheesecakeFactory--><path d="M3469.13,136.639 C3469.13,171.612 3469.13,218 3469.13,218 C3469.13,218 3809.33,218 3809.33,218 " fill="none" id="client.CheeseCakeClient-part1.ExtensibleCheesecakeFactory" style="stroke: #A80036; stroke-width: 1.0; stroke-dasharray: 7.0,7.0;"/><polygon fill="#A80036" points="3814.33,218,3805.33,214,3809.33,218,3805.33,222,3814.33,218" style="stroke: #A80036; stroke-width: 1.0;"/><text fill="#000000" font-family="sans-serif" font-size="13" lengthAdjust="spacingAndGlyphs" textLength="7" x="3799.4494" y="213.9504">1</text><!--link client.CheeseCakeClient to part1.StrawberryCheeseCakeFactory--><path d="M3325.3,104 C3178.07,104 2878.33,104 2878.33,104 C2878.33,104 2878.33,214.161 2878.33,214.161 " fill="none" id="client.CheeseCakeClient-part1.StrawberryCheeseCakeFactory" style="stroke: #A80036; stroke-width: 1.0; stroke-dasharray: 7.0,7.0;"/><polygon fill="#A80036" points="2878.33,219.161,2882.33,210.161,2878.33,214.161,2874.33,210.161,2878.33,219.161" style="stroke: #A80036; stroke-width: 1.0;"/><text fill="#000000" font-family="sans-serif" font-size="13" lengthAdjust="spacingAndGlyphs" textLength="7" x="2880.9258" y="208.75">1</text><!--link part1.DrizzleCommand to part1.ChocolateTopping--><path d="M2203,295.651 C2203,295.651 2203,387.373 2203,387.373 " fill="none" id="part1.DrizzleCommand-part1.ChocolateTopping" style="stroke: #A80036; stroke-width: 1.0; stroke-dasharray: 7.0,7.0;"/><polygon fill="#A80036" points="2203,392.373,2207,383.373,2203,387.373,2199,383.373,2203,392.373" style="stroke: #A80036; stroke-width: 1.0;"/><text fill="#000000" font-family="sans-serif" font-size="13" lengthAdjust="spacingAndGlyphs" textLength="7" x="2195.3328" y="381.6783">1</text><!--link part2.main to part1.PlainCheeseCakeFactory--><path d="M1824.64,72 C2125.9,72 3178.75,72 3178.75,72 C3178.75,72 3178.75,214.064 3178.75,214.064 " fill="none" id="part2.main-part1.PlainCheeseCakeFactory" style="stroke: #A80036; stroke-width: 1.0; stroke-dasharray: 7.0,7.0;"/><polygon fill="#A80036" points="3178.75,219.064,3182.75,210.064,3178.75,214.064,3174.75,210.064,3178.75,219.064" style="stroke: #A80036; stroke-width: 1.0;"/><text fill="#000000" font-family="sans-serif" font-size="13" lengthAdjust="spacingAndGlyphs" textLength="7" x="3165.7773" y="208.6363">1</text><!--link part2.CandyCheeseCakeFactory to edu.rosehulman.csse374.cheesecake.PlainCheeseCake--><path d="M165.5,309.111 C165.5,440.26 165.5,776 165.5,776 C165.5,776 3223.19,776 3223.19,776 " fill="none" id="part2.CandyCheeseCakeFactory-edu.rosehulman.csse374.cheesecake.PlainCheeseCake" style="stroke: #A80036; stroke-width: 1.0; stroke-dasharray: 7.0,7.0;"/><polygon fill="#A80036" points="3228.19,776,3219.19,772,3223.19,776,3219.19,780,3228.19,776" style="stroke: #A80036; stroke-width: 1.0;"/><text fill="#000000" font-family="sans-serif" font-size="13" lengthAdjust="spacingAndGlyphs" textLength="7" x="3213.4998" y="792.8947">1</text><!--link part2.main to part2.ReesesAdder--><path d="M1665.21,99 C1474.12,99 1006,99 1006,99 C1006,99 1006,214.132 1006,214.132 " fill="none" id="part2.main-part2.ReesesAdder" style="stroke: #A80036; stroke-width: 1.0; stroke-dasharray: 7.0,7.0;"/><polygon fill="#A80036" points="1006,219.132,1010,210.132,1006,214.132,1002,210.132,1006,219.132" style="stroke: #A80036; stroke-width: 1.0;"/><text fill="#000000" font-family="sans-serif" font-size="13" lengthAdjust="spacingAndGlyphs" textLength="7" x="998.3984" y="208.716">1</text><!--link part1.ExtensibleCheesecakeFactory to edu.rosehulman.csse374.cheesecake.PlainCheeseCake--><path d="M3852.33,302.536 C3852.33,326.875 3852.33,352 3852.33,352 C3852.33,352 3255.91,352 3255.91,352 C3255.91,352 3255.91,719.8025 3255.91,719.8025 " fill="none" id="part1.ExtensibleCheesecakeFactory-edu.rosehulman.csse374.cheesecake.PlainCheeseCake" style="stroke: #A80036; stroke-width: 1.0; stroke-dasharray: 7.0,7.0;"/><polygon fill="#A80036" points="3255.91,724.8025,3259.91,715.8025,3255.91,719.8025,3251.91,715.8025,3255.91,724.8025" style="stroke: #A80036; stroke-width: 1.0;"/><text fill="#000000" font-family="sans-serif" font-size="13" lengthAdjust="spacingAndGlyphs" textLength="7" x="3239.0611" y="713.9453">1</text><!--link part2.MM to edu.rosehulman.csse374.cheesecake.PlainCheeseCake--><path d="M1699.33,462.716 C1699.33,545.973 1699.33,748 1699.33,748 C1699.33,748 3223.47,748 3223.47,748 " fill="none" id="part2.MM-edu.rosehulman.csse374.cheesecake.PlainCheeseCake" style="stroke: #A80036; stroke-width: 1.0; stroke-dasharray: 7.0,7.0;"/><polygon fill="#A80036" points="3228.47,748,3219.47,744,3223.47,748,3219.47,752,3228.47,748" style="stroke: #A80036; stroke-width: 1.0;"/><text fill="#000000" font-family="sans-serif" font-size="13" lengthAdjust="spacingAndGlyphs" textLength="7" x="3213.3728" y="744.0015">1</text><!--link part1.ExtensibleCheesecakeFactory to part1.CustomCheeseCakeFactory--><path d="M3890.17,302.611 C3890.17,302.611 3890.17,363.707 3890.17,363.707 " fill="none" id="part1.ExtensibleCheesecakeFactory-part1.CustomCheeseCakeFactory" style="stroke: #A80036; stroke-width: 1.0;"/><polygon fill="#A80036" points="3890.17,368.707,3894.17,359.707,3890.17,363.707,3886.17,359.707,3890.17,368.707" style="stroke: #A80036; stroke-width: 1.0;"/><text fill="#000000" font-family="sans-serif" font-size="13" lengthAdjust="spacingAndGlyphs" textLength="5" x="3920.8392" y="358.0722">*</text></g></svg>