<?xml version="1.0" encoding="UTF-8" standalone="no"?><svg xmlns="http://www.w3.org/2000/svg" xmlns:xlink="http://www.w3.org/1999/xlink" contentScriptType="application/ecmascript" contentStyleType="text/css" height="1295px" preserveAspectRatio="none" style="width:3022px;height:1295px;" version="1.1" viewBox="0 0 3022 1295" width="3022px" zoomAndPan="magnify"><defs><filter height="300%" id="f1jop45qz3qmya" width="300%" x="-1" y="-1"><feGaussianBlur result="blurOut" stdDeviation="2.0"/><feColorMatrix in="blurOut" result="blurOut2" type="matrix" values="0 0 0 0 0 0 0 0 0 0 0 0 0 0 0 0 0 0 .4 0"/><feOffset dx="4.0" dy="4.0" in="blurOut2" result="blurOut3"/><feBlend in="SourceGraphic" in2="blurOut3" mode="normal"/></filter></defs><g><!--cluster ourStuff--><polygon fill="#FFFFFF" filter="url(#f1jop45qz3qmya)" points="22,24,85,24,92,47.6094,2854,47.6094,2854,1283,22,1283,22,24" style="stroke: #000000; stroke-width: 1.5;"/><line style="stroke: #000000; stroke-width: 1.5;" x1="22" x2="92" y1="47.6094" y2="47.6094"/><text fill="#000000" font-family="sans-serif" font-size="14" font-weight="bold" lengthAdjust="spacingAndGlyphs" textLength="57" x="26" y="40.5332">ourStuff</text><!--cluster soot--><polygon fill="#FFFFFF" filter="url(#f1jop45qz3qmya)" points="2878,774,2915,774,2922,797.6094,3000,797.6094,3000,874,2878,874,2878,774" style="stroke: #000000; stroke-width: 1.5;"/><line style="stroke: #000000; stroke-width: 1.5;" x1="2878" x2="2922" y1="797.6094" y2="797.6094"/><text fill="#000000" font-family="sans-serif" font-size="14" font-weight="bold" lengthAdjust="spacingAndGlyphs" textLength="31" x="2882" y="790.5332">soot</text><!--class ourStuff.App--><rect fill="#FEFECE" filter="url(#f1jop45qz3qmya)" height="75.6719" id="ourStuff.App" style="stroke: #A80036; stroke-width: 1.5;" width="159" x="1789.5" y="60"/><ellipse cx="1854.25" cy="76" fill="#ADD1B2" rx="11" ry="11" style="stroke: #A80036; stroke-width: 1.0;"/><path d="M1857.0156,71.875 Q1857.1719,71.6563 1857.3594,71.5469 Q1857.5469,71.4375 1857.7656,71.4375 Q1858.1406,71.4375 1858.375,71.6953 Q1858.6094,71.9531 1858.6094,72.5625 L1858.6094,74.0156 Q1858.6094,74.625 1858.375,74.8906 Q1858.1406,75.1563 1857.7656,75.1563 Q1857.4219,75.1563 1857.2188,74.9531 Q1857.0156,74.7656 1856.9063,74.25 Q1856.8594,73.8906 1856.6719,73.7031 Q1856.3438,73.3281 1855.7344,73.1094 Q1855.125,72.8906 1854.5,72.8906 Q1853.7344,72.8906 1853.1016,73.2188 Q1852.4688,73.5469 1851.9766,74.2969 Q1851.4844,75.0469 1851.4844,76.0781 L1851.4844,77.1719 Q1851.4844,78.4063 1852.375,79.2266 Q1853.2656,80.0469 1854.8594,80.0469 Q1855.7969,80.0469 1856.4531,79.7969 Q1856.8438,79.6406 1857.2656,79.2031 Q1857.5313,78.9375 1857.6797,78.8594 Q1857.8281,78.7813 1858.0313,78.7813 Q1858.3594,78.7813 1858.6172,79.0391 Q1858.875,79.2969 1858.875,79.6406 Q1858.875,79.9844 1858.5313,80.3906 Q1858.0313,80.9688 1857.2344,81.2969 Q1856.1563,81.75 1854.8594,81.75 Q1853.3438,81.75 1852.1406,81.125 Q1851.1563,80.625 1850.4688,79.5547 Q1849.7813,78.4844 1849.7813,77.2031 L1849.7813,76.0469 Q1849.7813,74.7188 1850.3984,73.5703 Q1851.0156,72.4219 1852.1094,71.8047 Q1853.2031,71.1875 1854.4375,71.1875 Q1855.1719,71.1875 1855.8203,71.3516 Q1856.4688,71.5156 1857.0156,71.875 Z "/><text fill="#000000" font-family="sans-serif" font-size="12" lengthAdjust="spacingAndGlyphs" textLength="21" x="1874.75" y="80.9102">App</text><line style="stroke: #A80036; stroke-width: 1.5;" x1="1790.5" x2="1947.5" y1="92" y2="92"/><line style="stroke: #A80036; stroke-width: 1.5;" x1="1790.5" x2="1947.5" y1="100" y2="100"/><ellipse cx="1800.5" cy="112.418" fill="#84BE84" rx="3" ry="3" style="stroke: #038048; stroke-width: 1.0;"/><text fill="#000000" font-family="sans-serif" font-size="11" lengthAdjust="spacingAndGlyphs" textLength="56" x="1809.5" y="115.4189">void &lt;init&gt;()</text><ellipse cx="1800.5" cy="126.2539" fill="#84BE84" rx="3" ry="3" style="stroke: #038048; stroke-width: 1.0;"/><text fill="#000000" font-family="sans-serif" font-size="11" lengthAdjust="spacingAndGlyphs" text-decoration="underline" textLength="133" x="1809.5" y="129.2549">void main(java.lang.String[])</text><line style="stroke: #000000; stroke-width: 1.0;" x1="1809.5" x2="1942.5" y1="131.2549" y2="131.2549"/><!--class ourStuff.AbstractAnalyzer--><rect fill="#FEFECE" filter="url(#f1jop45qz3qmya)" height="131.0156" id="ourStuff.AbstractAnalyzer" style="stroke: #A80036; stroke-width: 1.5;" width="211" x="1312.5" y="550"/><ellipse cx="1366.75" cy="566" fill="#A9DCDF" rx="11" ry="11" style="stroke: #A80036; stroke-width: 1.0;"/><path d="M1368.9375,567.7656 L1364.7969,567.7656 L1364.375,568.7969 L1364.7969,568.7969 Q1365.4063,568.7969 1365.6719,569.0313 Q1365.9375,569.2656 1365.9375,569.6563 Q1365.9375,570.0313 1365.6719,570.2656 Q1365.4063,570.5 1364.7969,570.5 L1362.5,570.5 Q1361.8906,570.5 1361.6328,570.2656 Q1361.375,570.0313 1361.375,569.6406 Q1361.375,569.2656 1361.6484,569.0234 Q1361.9219,568.7813 1362.5469,568.7969 L1365.2188,562.1406 L1364.1094,562.1406 Q1363.5,562.1406 1363.2344,561.9063 Q1362.9688,561.6719 1362.9688,561.2813 Q1362.9688,560.9063 1363.2344,560.6719 Q1363.5,560.4375 1364.1094,560.4375 L1367.7813,560.4375 L1371.1719,568.7969 Q1371.7656,568.7969 1371.9531,568.9375 Q1372.3438,569.2031 1372.3438,569.6563 Q1372.3438,570.0313 1372.0859,570.2656 Q1371.8281,570.5 1371.2188,570.5 L1368.9219,570.5 Q1368.3125,570.5 1368.0469,570.2656 Q1367.7813,570.0313 1367.7813,569.6406 Q1367.7813,569.2656 1368.0469,569.0313 Q1368.3125,568.7969 1368.9219,568.7969 L1369.3438,568.7969 L1368.9375,567.7656 Z M1368.2188,566.0625 L1366.8594,562.6875 L1365.4844,566.0625 L1368.2188,566.0625 Z "/><text fill="#000000" font-family="sans-serif" font-size="12" font-style="italic" lengthAdjust="spacingAndGlyphs" textLength="94" x="1387.25" y="570.9102">AbstractAnalyzer</text><line style="stroke: #A80036; stroke-width: 1.5;" x1="1313.5" x2="1522.5" y1="582" y2="582"/><polygon fill="none" points="1323.5,589.418,1327.5,593.418,1323.5,597.418,1319.5,593.418" style="stroke: #B38D22; stroke-width: 1.0;"/><text fill="#000000" font-family="sans-serif" font-size="11" lengthAdjust="spacingAndGlyphs" textLength="114" x="1332.5" y="597.4189">java.util.ArrayList filters</text><line style="stroke: #A80036; stroke-width: 1.5;" x1="1313.5" x2="1522.5" y1="603.8359" y2="603.8359"/><ellipse cx="1323.5" cy="616.2539" fill="#84BE84" rx="3" ry="3" style="stroke: #038048; stroke-width: 1.0;"/><text fill="#000000" font-family="sans-serif" font-size="11" lengthAdjust="spacingAndGlyphs" textLength="56" x="1332.5" y="619.2549">void &lt;init&gt;()</text><ellipse cx="1323.5" cy="630.0898" fill="#84BE84" rx="3" ry="3" style="stroke: #038048; stroke-width: 1.0;"/><text fill="#000000" font-family="sans-serif" font-size="11" lengthAdjust="spacingAndGlyphs" textLength="138" x="1332.5" y="633.0908">void addFilter(ourStuff.Filter)</text><polygon fill="#FFFF44" points="1323.5,638.9258,1327.5,642.9258,1323.5,646.9258,1319.5,642.9258" style="stroke: #B38D22; stroke-width: 1.0;"/><text fill="#000000" font-family="sans-serif" font-size="11" lengthAdjust="spacingAndGlyphs" textLength="177" x="1332.5" y="646.9268">boolean applyFilters(soot.SootClass)</text><polygon fill="#FFFF44" points="1323.5,652.7617,1327.5,656.7617,1323.5,660.7617,1319.5,656.7617" style="stroke: #B38D22; stroke-width: 1.0;"/><text fill="#000000" font-family="sans-serif" font-size="11" lengthAdjust="spacingAndGlyphs" textLength="185" x="1332.5" y="660.7627">boolean applyFilters(soot.SootMethod)</text><polygon fill="#FFFF44" points="1323.5,666.5977,1327.5,670.5977,1323.5,674.5977,1319.5,670.5977" style="stroke: #B38D22; stroke-width: 1.0;"/><text fill="#000000" font-family="sans-serif" font-size="11" lengthAdjust="spacingAndGlyphs" textLength="172" x="1332.5" y="674.5986">boolean applyFilters(soot.SootField)</text><!--class ourStuff.Analyzer--><rect fill="#FEFECE" filter="url(#f1jop45qz3qmya)" height="61.8359" id="ourStuff.Analyzer" style="stroke: #A80036; stroke-width: 1.5;" width="203" x="1592.5" y="400.5"/><ellipse cx="1665.25" cy="416.5" fill="#B4A7E5" rx="11" ry="11" style="stroke: #A80036; stroke-width: 1.0;"/><path d="M1666.2031,413.1406 L1666.2031,419.7969 L1667.9219,419.7969 Q1668.5313,419.7969 1668.7969,420.0313 Q1669.0625,420.2656 1669.0625,420.6563 Q1669.0625,421.0313 1668.7969,421.2656 Q1668.5313,421.5 1667.9219,421.5 L1662.7813,421.5 Q1662.1719,421.5 1661.9063,421.2656 Q1661.6406,421.0313 1661.6406,420.6406 Q1661.6406,420.2656 1661.9063,420.0313 Q1662.1719,419.7969 1662.7813,419.7969 L1664.5,419.7969 L1664.5,413.1406 L1662.7813,413.1406 Q1662.1719,413.1406 1661.9063,412.9063 Q1661.6406,412.6719 1661.6406,412.2813 Q1661.6406,411.9063 1661.9063,411.6719 Q1662.1719,411.4375 1662.7813,411.4375 L1667.9219,411.4375 Q1668.5313,411.4375 1668.7969,411.6719 Q1669.0625,411.9063 1669.0625,412.2813 Q1669.0625,412.6719 1668.7969,412.9063 Q1668.5313,413.1406 1667.9219,413.1406 L1666.2031,413.1406 Z "/><text fill="#000000" font-family="sans-serif" font-size="12" font-style="italic" lengthAdjust="spacingAndGlyphs" textLength="49" x="1685.75" y="421.4102">Analyzer</text><line style="stroke: #A80036; stroke-width: 1.5;" x1="1593.5" x2="1794.5" y1="432.5" y2="432.5"/><line style="stroke: #A80036; stroke-width: 1.5;" x1="1593.5" x2="1794.5" y1="440.5" y2="440.5"/><ellipse cx="1603.5" cy="452.918" fill="#84BE84" rx="3" ry="3" style="stroke: #038048; stroke-width: 1.0;"/><text fill="#000000" font-family="sans-serif" font-size="11" font-style="italic" lengthAdjust="spacingAndGlyphs" textLength="177" x="1612.5" y="455.9189">ourStuff.Data analyze(ourStuff.Data)</text><!--class ourStuff.AnalyzerChain--><rect fill="#FEFECE" filter="url(#f1jop45qz3qmya)" height="117.1797" id="ourStuff.AnalyzerChain" style="stroke: #A80036; stroke-width: 1.5;" width="204" x="1316" y="373"/><ellipse cx="1374.75" cy="389" fill="#ADD1B2" rx="11" ry="11" style="stroke: #A80036; stroke-width: 1.0;"/><path d="M1377.5156,384.875 Q1377.6719,384.6563 1377.8594,384.5469 Q1378.0469,384.4375 1378.2656,384.4375 Q1378.6406,384.4375 1378.875,384.6953 Q1379.1094,384.9531 1379.1094,385.5625 L1379.1094,387.0156 Q1379.1094,387.625 1378.875,387.8906 Q1378.6406,388.1563 1378.2656,388.1563 Q1377.9219,388.1563 1377.7188,387.9531 Q1377.5156,387.7656 1377.4063,387.25 Q1377.3594,386.8906 1377.1719,386.7031 Q1376.8438,386.3281 1376.2344,386.1094 Q1375.625,385.8906 1375,385.8906 Q1374.2344,385.8906 1373.6016,386.2188 Q1372.9688,386.5469 1372.4766,387.2969 Q1371.9844,388.0469 1371.9844,389.0781 L1371.9844,390.1719 Q1371.9844,391.4063 1372.875,392.2266 Q1373.7656,393.0469 1375.3594,393.0469 Q1376.2969,393.0469 1376.9531,392.7969 Q1377.3438,392.6406 1377.7656,392.2031 Q1378.0313,391.9375 1378.1797,391.8594 Q1378.3281,391.7813 1378.5313,391.7813 Q1378.8594,391.7813 1379.1172,392.0391 Q1379.375,392.2969 1379.375,392.6406 Q1379.375,392.9844 1379.0313,393.3906 Q1378.5313,393.9688 1377.7344,394.2969 Q1376.6563,394.75 1375.3594,394.75 Q1373.8438,394.75 1372.6406,394.125 Q1371.6563,393.625 1370.9688,392.5547 Q1370.2813,391.4844 1370.2813,390.2031 L1370.2813,389.0469 Q1370.2813,387.7188 1370.8984,386.5703 Q1371.5156,385.4219 1372.6094,384.8047 Q1373.7031,384.1875 1374.9375,384.1875 Q1375.6719,384.1875 1376.3203,384.3516 Q1376.9688,384.5156 1377.5156,384.875 Z "/><text fill="#000000" font-family="sans-serif" font-size="12" lengthAdjust="spacingAndGlyphs" textLength="78" x="1395.25" y="393.9102">AnalyzerChain</text><line style="stroke: #A80036; stroke-width: 1.5;" x1="1317" x2="1519" y1="405" y2="405"/><rect fill="none" height="6" style="stroke: #C82930; stroke-width: 1.0;" width="6" x="1324" y="414.418"/><text fill="#000000" font-family="sans-serif" font-size="11" lengthAdjust="spacingAndGlyphs" textLength="147" x="1336" y="420.4189">java.util.List analyzerCollection</text><line style="stroke: #A80036; stroke-width: 1.5;" x1="1317" x2="1519" y1="426.8359" y2="426.8359"/><ellipse cx="1327" cy="439.2539" fill="#84BE84" rx="3" ry="3" style="stroke: #038048; stroke-width: 1.0;"/><text fill="#000000" font-family="sans-serif" font-size="11" lengthAdjust="spacingAndGlyphs" textLength="56" x="1336" y="442.2549">void &lt;init&gt;()</text><ellipse cx="1327" cy="453.0898" fill="#84BE84" rx="3" ry="3" style="stroke: #038048; stroke-width: 1.0;"/><text fill="#000000" font-family="sans-serif" font-size="11" lengthAdjust="spacingAndGlyphs" textLength="178" x="1336" y="456.0908">void add(ourStuff.AbstractAnalyzer)</text><ellipse cx="1327" cy="466.9258" fill="#84BE84" rx="3" ry="3" style="stroke: #038048; stroke-width: 1.0;"/><text fill="#000000" font-family="sans-serif" font-size="11" lengthAdjust="spacingAndGlyphs" textLength="112" x="1336" y="469.9268">void run(ourStuff.Data)</text><ellipse cx="1327" cy="480.7617" fill="#84BE84" rx="3" ry="3" style="stroke: #038048; stroke-width: 1.0;"/><text fill="#000000" font-family="sans-serif" font-size="11" lengthAdjust="spacingAndGlyphs" textLength="42" x="1336" y="483.7627">int size()</text><!--class ourStuff.AssociationAnalyzer--><rect fill="#FEFECE" filter="url(#f1jop45qz3qmya)" height="75.6719" id="ourStuff.AssociationAnalyzer" style="stroke: #A80036; stroke-width: 1.5;" width="205" x="612.5" y="796"/><ellipse cx="656.3" cy="812" fill="#ADD1B2" rx="11" ry="11" style="stroke: #A80036; stroke-width: 1.0;"/><path d="M659.0656,807.875 Q659.2219,807.6563 659.4094,807.5469 Q659.5969,807.4375 659.8156,807.4375 Q660.1906,807.4375 660.425,807.6953 Q660.6594,807.9531 660.6594,808.5625 L660.6594,810.0156 Q660.6594,810.625 660.425,810.8906 Q660.1906,811.1563 659.8156,811.1563 Q659.4719,811.1563 659.2688,810.9531 Q659.0656,810.7656 658.9563,810.25 Q658.9094,809.8906 658.7219,809.7031 Q658.3938,809.3281 657.7844,809.1094 Q657.175,808.8906 656.55,808.8906 Q655.7844,808.8906 655.1516,809.2188 Q654.5188,809.5469 654.0266,810.2969 Q653.5344,811.0469 653.5344,812.0781 L653.5344,813.1719 Q653.5344,814.4063 654.425,815.2266 Q655.3156,816.0469 656.9094,816.0469 Q657.8469,816.0469 658.5031,815.7969 Q658.8938,815.6406 659.3156,815.2031 Q659.5813,814.9375 659.7297,814.8594 Q659.8781,814.7813 660.0813,814.7813 Q660.4094,814.7813 660.6672,815.0391 Q660.925,815.2969 660.925,815.6406 Q660.925,815.9844 660.5813,816.3906 Q660.0813,816.9688 659.2844,817.2969 Q658.2063,817.75 656.9094,817.75 Q655.3938,817.75 654.1906,817.125 Q653.2063,816.625 652.5188,815.5547 Q651.8313,814.4844 651.8313,813.2031 L651.8313,812.0469 Q651.8313,810.7188 652.4484,809.5703 Q653.0656,808.4219 654.1594,807.8047 Q655.2531,807.1875 656.4875,807.1875 Q657.2219,807.1875 657.8703,807.3516 Q658.5188,807.5156 659.0656,807.875 Z "/><text fill="#000000" font-family="sans-serif" font-size="12" lengthAdjust="spacingAndGlyphs" textLength="109" x="676.7" y="816.9102">AssociationAnalyzer</text><line style="stroke: #A80036; stroke-width: 1.5;" x1="613.5" x2="816.5" y1="828" y2="828"/><line style="stroke: #A80036; stroke-width: 1.5;" x1="613.5" x2="816.5" y1="836" y2="836"/><ellipse cx="623.5" cy="848.418" fill="#84BE84" rx="3" ry="3" style="stroke: #038048; stroke-width: 1.0;"/><text fill="#000000" font-family="sans-serif" font-size="11" lengthAdjust="spacingAndGlyphs" textLength="56" x="632.5" y="851.4189">void &lt;init&gt;()</text><ellipse cx="623.5" cy="862.2539" fill="#84BE84" rx="3" ry="3" style="stroke: #038048; stroke-width: 1.0;"/><text fill="#000000" font-family="sans-serif" font-size="11" lengthAdjust="spacingAndGlyphs" textLength="179" x="632.5" y="865.2549">ourStuff.Data analyze(ourStuff.Data)</text><!--class ourStuff.ClassCodeGenAnalyzer--><rect fill="#FEFECE" filter="url(#f1jop45qz3qmya)" height="186.3594" id="ourStuff.ClassCodeGenAnalyzer" style="stroke: #A80036; stroke-width: 1.5;" width="299" x="1268.5" y="741"/><ellipse cx="1348.25" cy="757" fill="#ADD1B2" rx="11" ry="11" style="stroke: #A80036; stroke-width: 1.0;"/><path d="M1351.0156,752.875 Q1351.1719,752.6563 1351.3594,752.5469 Q1351.5469,752.4375 1351.7656,752.4375 Q1352.1406,752.4375 1352.375,752.6953 Q1352.6094,752.9531 1352.6094,753.5625 L1352.6094,755.0156 Q1352.6094,755.625 1352.375,755.8906 Q1352.1406,756.1563 1351.7656,756.1563 Q1351.4219,756.1563 1351.2188,755.9531 Q1351.0156,755.7656 1350.9063,755.25 Q1350.8594,754.8906 1350.6719,754.7031 Q1350.3438,754.3281 1349.7344,754.1094 Q1349.125,753.8906 1348.5,753.8906 Q1347.7344,753.8906 1347.1016,754.2188 Q1346.4688,754.5469 1345.9766,755.2969 Q1345.4844,756.0469 1345.4844,757.0781 L1345.4844,758.1719 Q1345.4844,759.4063 1346.375,760.2266 Q1347.2656,761.0469 1348.8594,761.0469 Q1349.7969,761.0469 1350.4531,760.7969 Q1350.8438,760.6406 1351.2656,760.2031 Q1351.5313,759.9375 1351.6797,759.8594 Q1351.8281,759.7813 1352.0313,759.7813 Q1352.3594,759.7813 1352.6172,760.0391 Q1352.875,760.2969 1352.875,760.6406 Q1352.875,760.9844 1352.5313,761.3906 Q1352.0313,761.9688 1351.2344,762.2969 Q1350.1563,762.75 1348.8594,762.75 Q1347.3438,762.75 1346.1406,762.125 Q1345.1563,761.625 1344.4688,760.5547 Q1343.7813,759.4844 1343.7813,758.2031 L1343.7813,757.0469 Q1343.7813,755.7188 1344.3984,754.5703 Q1345.0156,753.4219 1346.1094,752.8047 Q1347.2031,752.1875 1348.4375,752.1875 Q1349.1719,752.1875 1349.8203,752.3516 Q1350.4688,752.5156 1351.0156,752.875 Z "/><text fill="#000000" font-family="sans-serif" font-size="12" lengthAdjust="spacingAndGlyphs" textLength="131" x="1368.75" y="761.9102">ClassCodeGenAnalyzer</text><line style="stroke: #A80036; stroke-width: 1.5;" x1="1269.5" x2="1566.5" y1="773" y2="773"/><line style="stroke: #A80036; stroke-width: 1.5;" x1="1269.5" x2="1566.5" y1="781" y2="781"/><ellipse cx="1279.5" cy="793.418" fill="#84BE84" rx="3" ry="3" style="stroke: #038048; stroke-width: 1.0;"/><text fill="#000000" font-family="sans-serif" font-size="11" lengthAdjust="spacingAndGlyphs" textLength="56" x="1288.5" y="796.4189">void &lt;init&gt;()</text><ellipse cx="1279.5" cy="807.2539" fill="#84BE84" rx="3" ry="3" style="stroke: #038048; stroke-width: 1.0;"/><text fill="#000000" font-family="sans-serif" font-size="11" lengthAdjust="spacingAndGlyphs" textLength="179" x="1288.5" y="810.2549">ourStuff.Data analyze(ourStuff.Data)</text><rect fill="#F24D5C" height="6" style="stroke: #C82930; stroke-width: 1.0;" width="6" x="1276.5" y="818.0898"/><text fill="#000000" font-family="sans-serif" font-size="11" lengthAdjust="spacingAndGlyphs" textLength="272" x="1288.5" y="824.0908">java.lang.String genString(soot.SootClass,ourStuff.Data)</text><rect fill="#F24D5C" height="6" style="stroke: #C82930; stroke-width: 1.0;" width="6" x="1276.5" y="831.9258"/><text fill="#000000" font-family="sans-serif" font-size="11" lengthAdjust="spacingAndGlyphs" textLength="273" x="1288.5" y="837.9268">java.lang.String genMethodDeclaration(soot.SootMethod)</text><rect fill="#F24D5C" height="6" style="stroke: #C82930; stroke-width: 1.0;" width="6" x="1276.5" y="845.7617"/><text fill="#000000" font-family="sans-serif" font-size="11" lengthAdjust="spacingAndGlyphs" textLength="170" x="1288.5" y="851.7627">boolean filterClass(soot.SootClass)</text><rect fill="#F24D5C" height="6" style="stroke: #C82930; stroke-width: 1.0;" width="6" x="1276.5" y="859.5977"/><text fill="#000000" font-family="sans-serif" font-size="11" lengthAdjust="spacingAndGlyphs" textLength="267" x="1288.5" y="865.5986">java.lang.String addDependencyArrows(ourStuff.Data)</text><rect fill="#F24D5C" height="6" style="stroke: #C82930; stroke-width: 1.0;" width="6" x="1276.5" y="873.4336"/><text fill="#000000" font-family="sans-serif" font-size="11" lengthAdjust="spacingAndGlyphs" textLength="263" x="1288.5" y="879.4346">java.lang.String addAssociationArrows(ourStuff.Data)</text><rect fill="#F24D5C" height="6" style="stroke: #C82930; stroke-width: 1.0;" width="6" x="1276.5" y="887.2695"/><text fill="#000000" font-family="sans-serif" font-size="11" lengthAdjust="spacingAndGlyphs" text-decoration="underline" textLength="260" x="1288.5" y="893.2705">void lambda$0(java.lang.StringBuilder,soot.SootClass)</text><line style="stroke: #000000; stroke-width: 1.0;" x1="1288.5" x2="1548.5" y1="895.2705" y2="895.2705"/><rect fill="#F24D5C" height="6" style="stroke: #C82930; stroke-width: 1.0;" width="6" x="1276.5" y="901.1055"/><text fill="#000000" font-family="sans-serif" font-size="11" lengthAdjust="spacingAndGlyphs" text-decoration="underline" textLength="234" x="1288.5" y="907.1064">void lambda$1(soot.SootClass,soot.SootMethod)</text><line style="stroke: #000000; stroke-width: 1.0;" x1="1288.5" x2="1522.5" y1="909.1064" y2="909.1064"/><rect fill="#F24D5C" height="6" style="stroke: #C82930; stroke-width: 1.0;" width="6" x="1276.5" y="914.9414"/><text fill="#000000" font-family="sans-serif" font-size="11" lengthAdjust="spacingAndGlyphs" text-decoration="underline" textLength="221" x="1288.5" y="920.9424">void lambda$2(soot.SootClass,soot.SootField)</text><line style="stroke: #000000; stroke-width: 1.0;" x1="1288.5" x2="1509.5" y1="922.9424" y2="922.9424"/><!--class ourStuff.Data--><rect fill="#FEFECE" filter="url(#f1jop45qz3qmya)" height="131.0156" id="ourStuff.Data" style="stroke: #A80036; stroke-width: 1.5;" width="152" x="2686" y="550"/><ellipse cx="2744.75" cy="566" fill="#ADD1B2" rx="11" ry="11" style="stroke: #A80036; stroke-width: 1.0;"/><path d="M2747.5156,561.875 Q2747.6719,561.6563 2747.8594,561.5469 Q2748.0469,561.4375 2748.2656,561.4375 Q2748.6406,561.4375 2748.875,561.6953 Q2749.1094,561.9531 2749.1094,562.5625 L2749.1094,564.0156 Q2749.1094,564.625 2748.875,564.8906 Q2748.6406,565.1563 2748.2656,565.1563 Q2747.9219,565.1563 2747.7188,564.9531 Q2747.5156,564.7656 2747.4063,564.25 Q2747.3594,563.8906 2747.1719,563.7031 Q2746.8438,563.3281 2746.2344,563.1094 Q2745.625,562.8906 2745,562.8906 Q2744.2344,562.8906 2743.6016,563.2188 Q2742.9688,563.5469 2742.4766,564.2969 Q2741.9844,565.0469 2741.9844,566.0781 L2741.9844,567.1719 Q2741.9844,568.4063 2742.875,569.2266 Q2743.7656,570.0469 2745.3594,570.0469 Q2746.2969,570.0469 2746.9531,569.7969 Q2747.3438,569.6406 2747.7656,569.2031 Q2748.0313,568.9375 2748.1797,568.8594 Q2748.3281,568.7813 2748.5313,568.7813 Q2748.8594,568.7813 2749.1172,569.0391 Q2749.375,569.2969 2749.375,569.6406 Q2749.375,569.9844 2749.0313,570.3906 Q2748.5313,570.9688 2747.7344,571.2969 Q2746.6563,571.75 2745.3594,571.75 Q2743.8438,571.75 2742.6406,571.125 Q2741.6563,570.625 2740.9688,569.5547 Q2740.2813,568.4844 2740.2813,567.2031 L2740.2813,566.0469 Q2740.2813,564.7188 2740.8984,563.5703 Q2741.5156,562.4219 2742.6094,561.8047 Q2743.7031,561.1875 2744.9375,561.1875 Q2745.6719,561.1875 2746.3203,561.3516 Q2746.9688,561.5156 2747.5156,561.875 Z "/><text fill="#000000" font-family="sans-serif" font-size="12" lengthAdjust="spacingAndGlyphs" textLength="26" x="2765.25" y="570.9102">Data</text><line style="stroke: #A80036; stroke-width: 1.5;" x1="2687" x2="2837" y1="582" y2="582"/><ellipse cx="2697" cy="594.418" fill="none" rx="3" ry="3" style="stroke: #038048; stroke-width: 1.0;"/><text fill="#000000" font-family="sans-serif" font-size="11" lengthAdjust="spacingAndGlyphs" textLength="126" x="2706" y="597.4189">java.util.Collection classes</text><ellipse cx="2697" cy="608.2539" fill="none" rx="3" ry="3" style="stroke: #038048; stroke-width: 1.0;"/><text fill="#000000" font-family="sans-serif" font-size="11" lengthAdjust="spacingAndGlyphs" textLength="123" x="2706" y="611.2549">java.util.Map relationships</text><ellipse cx="2697" cy="622.0898" fill="none" rx="3" ry="3" style="stroke: #038048; stroke-width: 1.0;"/><text fill="#000000" font-family="sans-serif" font-size="11" lengthAdjust="spacingAndGlyphs" textLength="92" x="2706" y="625.0908">java.util.Map config</text><ellipse cx="2697" cy="635.9258" fill="none" rx="3" ry="3" style="stroke: #038048; stroke-width: 1.0;"/><text fill="#000000" font-family="sans-serif" font-size="11" lengthAdjust="spacingAndGlyphs" textLength="88" x="2706" y="638.9268">soot.Scene scene</text><ellipse cx="2697" cy="649.7617" fill="none" rx="3" ry="3" style="stroke: #038048; stroke-width: 1.0;"/><text fill="#000000" font-family="sans-serif" font-size="11" lengthAdjust="spacingAndGlyphs" textLength="102" x="2706" y="652.7627">java.nio.file.Path path</text><line style="stroke: #A80036; stroke-width: 1.5;" x1="2687" x2="2837" y1="659.1797" y2="659.1797"/><ellipse cx="2697" cy="671.5977" fill="#84BE84" rx="3" ry="3" style="stroke: #038048; stroke-width: 1.0;"/><text fill="#000000" font-family="sans-serif" font-size="11" lengthAdjust="spacingAndGlyphs" textLength="56" x="2706" y="674.5986">void &lt;init&gt;()</text><!--class ourStuff.DependencyAnalyzer--><rect fill="#FEFECE" filter="url(#f1jop45qz3qmya)" height="103.3438" id="ourStuff.DependencyAnalyzer" style="stroke: #A80036; stroke-width: 1.5;" width="532" x="1603" y="782.5"/><ellipse cx="1807.75" cy="798.5" fill="#ADD1B2" rx="11" ry="11" style="stroke: #A80036; stroke-width: 1.0;"/><path d="M1810.5156,794.375 Q1810.6719,794.1563 1810.8594,794.0469 Q1811.0469,793.9375 1811.2656,793.9375 Q1811.6406,793.9375 1811.875,794.1953 Q1812.1094,794.4531 1812.1094,795.0625 L1812.1094,796.5156 Q1812.1094,797.125 1811.875,797.3906 Q1811.6406,797.6563 1811.2656,797.6563 Q1810.9219,797.6563 1810.7188,797.4531 Q1810.5156,797.2656 1810.4063,796.75 Q1810.3594,796.3906 1810.1719,796.2031 Q1809.8438,795.8281 1809.2344,795.6094 Q1808.625,795.3906 1808,795.3906 Q1807.2344,795.3906 1806.6016,795.7188 Q1805.9688,796.0469 1805.4766,796.7969 Q1804.9844,797.5469 1804.9844,798.5781 L1804.9844,799.6719 Q1804.9844,800.9063 1805.875,801.7266 Q1806.7656,802.5469 1808.3594,802.5469 Q1809.2969,802.5469 1809.9531,802.2969 Q1810.3438,802.1406 1810.7656,801.7031 Q1811.0313,801.4375 1811.1797,801.3594 Q1811.3281,801.2813 1811.5313,801.2813 Q1811.8594,801.2813 1812.1172,801.5391 Q1812.375,801.7969 1812.375,802.1406 Q1812.375,802.4844 1812.0313,802.8906 Q1811.5313,803.4688 1810.7344,803.7969 Q1809.6563,804.25 1808.3594,804.25 Q1806.8438,804.25 1805.6406,803.625 Q1804.6563,803.125 1803.9688,802.0547 Q1803.2813,800.9844 1803.2813,799.7031 L1803.2813,798.5469 Q1803.2813,797.2188 1803.8984,796.0703 Q1804.5156,794.9219 1805.6094,794.3047 Q1806.7031,793.6875 1807.9375,793.6875 Q1808.6719,793.6875 1809.3203,793.8516 Q1809.9688,794.0156 1810.5156,794.375 Z "/><text fill="#000000" font-family="sans-serif" font-size="12" lengthAdjust="spacingAndGlyphs" textLength="114" x="1828.25" y="803.4102">DependencyAnalyzer</text><line style="stroke: #A80036; stroke-width: 1.5;" x1="1604" x2="2134" y1="814.5" y2="814.5"/><line style="stroke: #A80036; stroke-width: 1.5;" x1="1604" x2="2134" y1="822.5" y2="822.5"/><ellipse cx="1614" cy="834.918" fill="#84BE84" rx="3" ry="3" style="stroke: #038048; stroke-width: 1.0;"/><text fill="#000000" font-family="sans-serif" font-size="11" lengthAdjust="spacingAndGlyphs" textLength="56" x="1623" y="837.9189">void &lt;init&gt;()</text><ellipse cx="1614" cy="848.7539" fill="#84BE84" rx="3" ry="3" style="stroke: #038048; stroke-width: 1.0;"/><text fill="#000000" font-family="sans-serif" font-size="11" lengthAdjust="spacingAndGlyphs" textLength="179" x="1623" y="851.7549">ourStuff.Data analyze(ourStuff.Data)</text><rect fill="#F24D5C" height="6" style="stroke: #C82930; stroke-width: 1.0;" width="6" x="1611" y="859.5898"/><text fill="#000000" font-family="sans-serif" font-size="11" lengthAdjust="spacingAndGlyphs" textLength="506" x="1623" y="865.5908">void getTypeDependencies(ourStuff.Data,soot.SootClass,edu.rosehulman.jvm.sigevaluator.GenericType)</text><rect fill="#F24D5C" height="6" style="stroke: #C82930; stroke-width: 1.0;" width="6" x="1611" y="873.4258"/><text fill="#000000" font-family="sans-serif" font-size="11" lengthAdjust="spacingAndGlyphs" text-decoration="underline" textLength="151" x="1623" y="879.4268">void lambda$0(java.lang.String)</text><line style="stroke: #000000; stroke-width: 1.0;" x1="1623" x2="1774" y1="881.4268" y2="881.4268"/><!--class ourStuff.FileCreator--><rect fill="#FEFECE" filter="url(#f1jop45qz3qmya)" height="75.6719" id="ourStuff.FileCreator" style="stroke: #A80036; stroke-width: 1.5;" width="169" x="812.5" y="60"/><ellipse cx="862.25" cy="76" fill="#ADD1B2" rx="11" ry="11" style="stroke: #A80036; stroke-width: 1.0;"/><path d="M865.0156,71.875 Q865.1719,71.6563 865.3594,71.5469 Q865.5469,71.4375 865.7656,71.4375 Q866.1406,71.4375 866.375,71.6953 Q866.6094,71.9531 866.6094,72.5625 L866.6094,74.0156 Q866.6094,74.625 866.375,74.8906 Q866.1406,75.1563 865.7656,75.1563 Q865.4219,75.1563 865.2188,74.9531 Q865.0156,74.7656 864.9063,74.25 Q864.8594,73.8906 864.6719,73.7031 Q864.3438,73.3281 863.7344,73.1094 Q863.125,72.8906 862.5,72.8906 Q861.7344,72.8906 861.1016,73.2188 Q860.4688,73.5469 859.9766,74.2969 Q859.4844,75.0469 859.4844,76.0781 L859.4844,77.1719 Q859.4844,78.4063 860.375,79.2266 Q861.2656,80.0469 862.8594,80.0469 Q863.7969,80.0469 864.4531,79.7969 Q864.8438,79.6406 865.2656,79.2031 Q865.5313,78.9375 865.6797,78.8594 Q865.8281,78.7813 866.0313,78.7813 Q866.3594,78.7813 866.6172,79.0391 Q866.875,79.2969 866.875,79.6406 Q866.875,79.9844 866.5313,80.3906 Q866.0313,80.9688 865.2344,81.2969 Q864.1563,81.75 862.8594,81.75 Q861.3438,81.75 860.1406,81.125 Q859.1563,80.625 858.4688,79.5547 Q857.7813,78.4844 857.7813,77.2031 L857.7813,76.0469 Q857.7813,74.7188 858.3984,73.5703 Q859.0156,72.4219 860.1094,71.8047 Q861.2031,71.1875 862.4375,71.1875 Q863.1719,71.1875 863.8203,71.3516 Q864.4688,71.5156 865.0156,71.875 Z "/><text fill="#000000" font-family="sans-serif" font-size="12" lengthAdjust="spacingAndGlyphs" textLength="61" x="882.75" y="80.9102">FileCreator</text><line style="stroke: #A80036; stroke-width: 1.5;" x1="813.5" x2="980.5" y1="92" y2="92"/><line style="stroke: #A80036; stroke-width: 1.5;" x1="813.5" x2="980.5" y1="100" y2="100"/><ellipse cx="823.5" cy="112.418" fill="#84BE84" rx="3" ry="3" style="stroke: #038048; stroke-width: 1.0;"/><text fill="#000000" font-family="sans-serif" font-size="11" lengthAdjust="spacingAndGlyphs" textLength="56" x="832.5" y="115.4189">void &lt;init&gt;()</text><ellipse cx="823.5" cy="126.2539" fill="#84BE84" rx="3" ry="3" style="stroke: #038048; stroke-width: 1.0;"/><text fill="#000000" font-family="sans-serif" font-size="11" lengthAdjust="spacingAndGlyphs" textLength="143" x="832.5" y="129.2549">void getSVG(java.lang.String)</text><!--class ourStuff.Filter--><rect fill="#FEFECE" filter="url(#f1jop45qz3qmya)" height="89.5078" id="ourStuff.Filter" style="stroke: #A80036; stroke-width: 1.5;" width="190" x="2465" y="1000.5"/><ellipse cx="2542.25" cy="1016.5" fill="#B4A7E5" rx="11" ry="11" style="stroke: #A80036; stroke-width: 1.0;"/><path d="M2543.2031,1013.1406 L2543.2031,1019.7969 L2544.9219,1019.7969 Q2545.5313,1019.7969 2545.7969,1020.0313 Q2546.0625,1020.2656 2546.0625,1020.6563 Q2546.0625,1021.0313 2545.7969,1021.2656 Q2545.5313,1021.5 2544.9219,1021.5 L2539.7813,1021.5 Q2539.1719,1021.5 2538.9063,1021.2656 Q2538.6406,1021.0313 2538.6406,1020.6406 Q2538.6406,1020.2656 2538.9063,1020.0313 Q2539.1719,1019.7969 2539.7813,1019.7969 L2541.5,1019.7969 L2541.5,1013.1406 L2539.7813,1013.1406 Q2539.1719,1013.1406 2538.9063,1012.9063 Q2538.6406,1012.6719 2538.6406,1012.2813 Q2538.6406,1011.9063 2538.9063,1011.6719 Q2539.1719,1011.4375 2539.7813,1011.4375 L2544.9219,1011.4375 Q2545.5313,1011.4375 2545.7969,1011.6719 Q2546.0625,1011.9063 2546.0625,1012.2813 Q2546.0625,1012.6719 2545.7969,1012.9063 Q2545.5313,1013.1406 2544.9219,1013.1406 L2543.2031,1013.1406 Z "/><text fill="#000000" font-family="sans-serif" font-size="12" font-style="italic" lengthAdjust="spacingAndGlyphs" textLength="27" x="2562.75" y="1021.4102">Filter</text><line style="stroke: #A80036; stroke-width: 1.5;" x1="2466" x2="2654" y1="1032.5" y2="1032.5"/><line style="stroke: #A80036; stroke-width: 1.5;" x1="2466" x2="2654" y1="1040.5" y2="1040.5"/><ellipse cx="2476" cy="1052.918" fill="#84BE84" rx="3" ry="3" style="stroke: #038048; stroke-width: 1.0;"/><text fill="#000000" font-family="sans-serif" font-size="11" font-style="italic" lengthAdjust="spacingAndGlyphs" textLength="157" x="2485" y="1055.9189">boolean ignore(soot.SootClass)</text><ellipse cx="2476" cy="1066.7539" fill="#84BE84" rx="3" ry="3" style="stroke: #038048; stroke-width: 1.0;"/><text fill="#000000" font-family="sans-serif" font-size="11" font-style="italic" lengthAdjust="spacingAndGlyphs" textLength="164" x="2485" y="1069.7549">boolean ignore(soot.SootMethod)</text><ellipse cx="2476" cy="1080.5898" fill="#84BE84" rx="3" ry="3" style="stroke: #038048; stroke-width: 1.0;"/><text fill="#000000" font-family="sans-serif" font-size="11" font-style="italic" lengthAdjust="spacingAndGlyphs" textLength="153" x="2485" y="1083.5908">boolean ignore(soot.SootField)</text><!--class ourStuff.ImplementationAnalyzer--><rect fill="#FEFECE" filter="url(#f1jop45qz3qmya)" height="103.3438" id="ourStuff.ImplementationAnalyzer" style="stroke: #A80036; stroke-width: 1.5;" width="260" x="38" y="782.5"/><ellipse cx="98.25" cy="798.5" fill="#ADD1B2" rx="11" ry="11" style="stroke: #A80036; stroke-width: 1.0;"/><path d="M101.0156,794.375 Q101.1719,794.1563 101.3594,794.0469 Q101.5469,793.9375 101.7656,793.9375 Q102.1406,793.9375 102.375,794.1953 Q102.6094,794.4531 102.6094,795.0625 L102.6094,796.5156 Q102.6094,797.125 102.375,797.3906 Q102.1406,797.6563 101.7656,797.6563 Q101.4219,797.6563 101.2188,797.4531 Q101.0156,797.2656 100.9063,796.75 Q100.8594,796.3906 100.6719,796.2031 Q100.3438,795.8281 99.7344,795.6094 Q99.125,795.3906 98.5,795.3906 Q97.7344,795.3906 97.1016,795.7188 Q96.4688,796.0469 95.9766,796.7969 Q95.4844,797.5469 95.4844,798.5781 L95.4844,799.6719 Q95.4844,800.9063 96.375,801.7266 Q97.2656,802.5469 98.8594,802.5469 Q99.7969,802.5469 100.4531,802.2969 Q100.8438,802.1406 101.2656,801.7031 Q101.5313,801.4375 101.6797,801.3594 Q101.8281,801.2813 102.0313,801.2813 Q102.3594,801.2813 102.6172,801.5391 Q102.875,801.7969 102.875,802.1406 Q102.875,802.4844 102.5313,802.8906 Q102.0313,803.4688 101.2344,803.7969 Q100.1563,804.25 98.8594,804.25 Q97.3438,804.25 96.1406,803.625 Q95.1563,803.125 94.4688,802.0547 Q93.7813,800.9844 93.7813,799.7031 L93.7813,798.5469 Q93.7813,797.2188 94.3984,796.0703 Q95.0156,794.9219 96.1094,794.3047 Q97.2031,793.6875 98.4375,793.6875 Q99.1719,793.6875 99.8203,793.8516 Q100.4688,794.0156 101.0156,794.375 Z "/><text fill="#000000" font-family="sans-serif" font-size="12" lengthAdjust="spacingAndGlyphs" textLength="131" x="118.75" y="803.4102">ImplementationAnalyzer</text><line style="stroke: #A80036; stroke-width: 1.5;" x1="39" x2="297" y1="814.5" y2="814.5"/><line style="stroke: #A80036; stroke-width: 1.5;" x1="39" x2="297" y1="822.5" y2="822.5"/><ellipse cx="49" cy="834.918" fill="#84BE84" rx="3" ry="3" style="stroke: #038048; stroke-width: 1.0;"/><text fill="#000000" font-family="sans-serif" font-size="11" lengthAdjust="spacingAndGlyphs" textLength="56" x="58" y="837.9189">void &lt;init&gt;()</text><ellipse cx="49" cy="848.7539" fill="#84BE84" rx="3" ry="3" style="stroke: #038048; stroke-width: 1.0;"/><text fill="#000000" font-family="sans-serif" font-size="11" lengthAdjust="spacingAndGlyphs" textLength="179" x="58" y="851.7549">ourStuff.Data analyze(ourStuff.Data)</text><rect fill="#F24D5C" height="6" style="stroke: #C82930; stroke-width: 1.0;" width="6" x="46" y="859.5898"/><text fill="#000000" font-family="sans-serif" font-size="11" lengthAdjust="spacingAndGlyphs" textLength="234" x="58" y="865.5908">java.util.Map getImplementations(soot.SootClass)</text><rect fill="#F24D5C" height="6" style="stroke: #C82930; stroke-width: 1.0;" width="6" x="46" y="873.4258"/><text fill="#000000" font-family="sans-serif" font-size="11" lengthAdjust="spacingAndGlyphs" textLength="218" x="58" y="879.4268">void lambda$0(ourStuff.Data,soot.SootClass)</text><!--class ourStuff.InheritenceAnalyzer--><rect fill="#FEFECE" filter="url(#f1jop45qz3qmya)" height="103.3438" id="ourStuff.InheritenceAnalyzer" style="stroke: #A80036; stroke-width: 1.5;" width="244" x="333" y="782.5"/><ellipse cx="397.75" cy="798.5" fill="#ADD1B2" rx="11" ry="11" style="stroke: #A80036; stroke-width: 1.0;"/><path d="M400.5156,794.375 Q400.6719,794.1563 400.8594,794.0469 Q401.0469,793.9375 401.2656,793.9375 Q401.6406,793.9375 401.875,794.1953 Q402.1094,794.4531 402.1094,795.0625 L402.1094,796.5156 Q402.1094,797.125 401.875,797.3906 Q401.6406,797.6563 401.2656,797.6563 Q400.9219,797.6563 400.7188,797.4531 Q400.5156,797.2656 400.4063,796.75 Q400.3594,796.3906 400.1719,796.2031 Q399.8438,795.8281 399.2344,795.6094 Q398.625,795.3906 398,795.3906 Q397.2344,795.3906 396.6016,795.7188 Q395.9688,796.0469 395.4766,796.7969 Q394.9844,797.5469 394.9844,798.5781 L394.9844,799.6719 Q394.9844,800.9063 395.875,801.7266 Q396.7656,802.5469 398.3594,802.5469 Q399.2969,802.5469 399.9531,802.2969 Q400.3438,802.1406 400.7656,801.7031 Q401.0313,801.4375 401.1797,801.3594 Q401.3281,801.2813 401.5313,801.2813 Q401.8594,801.2813 402.1172,801.5391 Q402.375,801.7969 402.375,802.1406 Q402.375,802.4844 402.0313,802.8906 Q401.5313,803.4688 400.7344,803.7969 Q399.6563,804.25 398.3594,804.25 Q396.8438,804.25 395.6406,803.625 Q394.6563,803.125 393.9688,802.0547 Q393.2813,800.9844 393.2813,799.7031 L393.2813,798.5469 Q393.2813,797.2188 393.8984,796.0703 Q394.5156,794.9219 395.6094,794.3047 Q396.7031,793.6875 397.9375,793.6875 Q398.6719,793.6875 399.3203,793.8516 Q399.9688,794.0156 400.5156,794.375 Z "/><text fill="#000000" font-family="sans-serif" font-size="12" lengthAdjust="spacingAndGlyphs" textLength="106" x="418.25" y="803.4102">InheritenceAnalyzer</text><line style="stroke: #A80036; stroke-width: 1.5;" x1="334" x2="576" y1="814.5" y2="814.5"/><line style="stroke: #A80036; stroke-width: 1.5;" x1="334" x2="576" y1="822.5" y2="822.5"/><ellipse cx="344" cy="834.918" fill="#84BE84" rx="3" ry="3" style="stroke: #038048; stroke-width: 1.0;"/><text fill="#000000" font-family="sans-serif" font-size="11" lengthAdjust="spacingAndGlyphs" textLength="56" x="353" y="837.9189">void &lt;init&gt;()</text><ellipse cx="344" cy="848.7539" fill="#84BE84" rx="3" ry="3" style="stroke: #038048; stroke-width: 1.0;"/><text fill="#000000" font-family="sans-serif" font-size="11" lengthAdjust="spacingAndGlyphs" textLength="179" x="353" y="851.7549">ourStuff.Data analyze(ourStuff.Data)</text><rect fill="#F24D5C" height="6" style="stroke: #C82930; stroke-width: 1.0;" width="6" x="341" y="859.5898"/><text fill="#000000" font-family="sans-serif" font-size="11" lengthAdjust="spacingAndGlyphs" textLength="211" x="353" y="865.5908">java.util.Map getInheritance(soot.SootClass)</text><rect fill="#F24D5C" height="6" style="stroke: #C82930; stroke-width: 1.0;" width="6" x="341" y="873.4258"/><text fill="#000000" font-family="sans-serif" font-size="11" lengthAdjust="spacingAndGlyphs" textLength="218" x="353" y="879.4268">void lambda$0(ourStuff.Data,soot.SootClass)</text><!--class ourStuff.JDKFilter--><rect fill="#FEFECE" filter="url(#f1jop45qz3qmya)" height="103.3438" id="ourStuff.JDKFilter" style="stroke: #A80036; stroke-width: 1.5;" width="186" x="2210" y="1164"/><ellipse cx="2273.75" cy="1180" fill="#ADD1B2" rx="11" ry="11" style="stroke: #A80036; stroke-width: 1.0;"/><path d="M2276.5156,1175.875 Q2276.6719,1175.6563 2276.8594,1175.5469 Q2277.0469,1175.4375 2277.2656,1175.4375 Q2277.6406,1175.4375 2277.875,1175.6953 Q2278.1094,1175.9531 2278.1094,1176.5625 L2278.1094,1178.0156 Q2278.1094,1178.625 2277.875,1178.8906 Q2277.6406,1179.1563 2277.2656,1179.1563 Q2276.9219,1179.1563 2276.7188,1178.9531 Q2276.5156,1178.7656 2276.4063,1178.25 Q2276.3594,1177.8906 2276.1719,1177.7031 Q2275.8438,1177.3281 2275.2344,1177.1094 Q2274.625,1176.8906 2274,1176.8906 Q2273.2344,1176.8906 2272.6016,1177.2188 Q2271.9688,1177.5469 2271.4766,1178.2969 Q2270.9844,1179.0469 2270.9844,1180.0781 L2270.9844,1181.1719 Q2270.9844,1182.4063 2271.875,1183.2266 Q2272.7656,1184.0469 2274.3594,1184.0469 Q2275.2969,1184.0469 2275.9531,1183.7969 Q2276.3438,1183.6406 2276.7656,1183.2031 Q2277.0313,1182.9375 2277.1797,1182.8594 Q2277.3281,1182.7813 2277.5313,1182.7813 Q2277.8594,1182.7813 2278.1172,1183.0391 Q2278.375,1183.2969 2278.375,1183.6406 Q2278.375,1183.9844 2278.0313,1184.3906 Q2277.5313,1184.9688 2276.7344,1185.2969 Q2275.6563,1185.75 2274.3594,1185.75 Q2272.8438,1185.75 2271.6406,1185.125 Q2270.6563,1184.625 2269.9688,1183.5547 Q2269.2813,1182.4844 2269.2813,1181.2031 L2269.2813,1180.0469 Q2269.2813,1178.7188 2269.8984,1177.5703 Q2270.5156,1176.4219 2271.6094,1175.8047 Q2272.7031,1175.1875 2273.9375,1175.1875 Q2274.6719,1175.1875 2275.3203,1175.3516 Q2275.9688,1175.5156 2276.5156,1175.875 Z "/><text fill="#000000" font-family="sans-serif" font-size="12" lengthAdjust="spacingAndGlyphs" textLength="50" x="2294.25" y="1184.9102">JDKFilter</text><line style="stroke: #A80036; stroke-width: 1.5;" x1="2211" x2="2395" y1="1196" y2="1196"/><line style="stroke: #A80036; stroke-width: 1.5;" x1="2211" x2="2395" y1="1204" y2="1204"/><ellipse cx="2221" cy="1216.418" fill="#84BE84" rx="3" ry="3" style="stroke: #038048; stroke-width: 1.0;"/><text fill="#000000" font-family="sans-serif" font-size="11" lengthAdjust="spacingAndGlyphs" textLength="56" x="2230" y="1219.4189">void &lt;init&gt;()</text><ellipse cx="2221" cy="1230.2539" fill="#84BE84" rx="3" ry="3" style="stroke: #038048; stroke-width: 1.0;"/><text fill="#000000" font-family="sans-serif" font-size="11" lengthAdjust="spacingAndGlyphs" textLength="152" x="2230" y="1233.2549">boolean ignore(soot.SootClass)</text><ellipse cx="2221" cy="1244.0898" fill="#84BE84" rx="3" ry="3" style="stroke: #038048; stroke-width: 1.0;"/><text fill="#000000" font-family="sans-serif" font-size="11" lengthAdjust="spacingAndGlyphs" textLength="160" x="2230" y="1247.0908">boolean ignore(soot.SootMethod)</text><ellipse cx="2221" cy="1257.9258" fill="#84BE84" rx="3" ry="3" style="stroke: #038048; stroke-width: 1.0;"/><text fill="#000000" font-family="sans-serif" font-size="11" lengthAdjust="spacingAndGlyphs" textLength="147" x="2230" y="1260.9268">boolean ignore(soot.SootField)</text><!--class ourStuff.Preprocessor--><rect fill="#FEFECE" filter="url(#f1jop45qz3qmya)" height="117.1797" id="ourStuff.Preprocessor" style="stroke: #A80036; stroke-width: 1.5;" width="356" x="1691" y="196"/><ellipse cx="1827.25" cy="212" fill="#ADD1B2" rx="11" ry="11" style="stroke: #A80036; stroke-width: 1.0;"/><path d="M1830.0156,207.875 Q1830.1719,207.6563 1830.3594,207.5469 Q1830.5469,207.4375 1830.7656,207.4375 Q1831.1406,207.4375 1831.375,207.6953 Q1831.6094,207.9531 1831.6094,208.5625 L1831.6094,210.0156 Q1831.6094,210.625 1831.375,210.8906 Q1831.1406,211.1563 1830.7656,211.1563 Q1830.4219,211.1563 1830.2188,210.9531 Q1830.0156,210.7656 1829.9063,210.25 Q1829.8594,209.8906 1829.6719,209.7031 Q1829.3438,209.3281 1828.7344,209.1094 Q1828.125,208.8906 1827.5,208.8906 Q1826.7344,208.8906 1826.1016,209.2188 Q1825.4688,209.5469 1824.9766,210.2969 Q1824.4844,211.0469 1824.4844,212.0781 L1824.4844,213.1719 Q1824.4844,214.4063 1825.375,215.2266 Q1826.2656,216.0469 1827.8594,216.0469 Q1828.7969,216.0469 1829.4531,215.7969 Q1829.8438,215.6406 1830.2656,215.2031 Q1830.5313,214.9375 1830.6797,214.8594 Q1830.8281,214.7813 1831.0313,214.7813 Q1831.3594,214.7813 1831.6172,215.0391 Q1831.875,215.2969 1831.875,215.6406 Q1831.875,215.9844 1831.5313,216.3906 Q1831.0313,216.9688 1830.2344,217.2969 Q1829.1563,217.75 1827.8594,217.75 Q1826.3438,217.75 1825.1406,217.125 Q1824.1563,216.625 1823.4688,215.5547 Q1822.7813,214.4844 1822.7813,213.2031 L1822.7813,212.0469 Q1822.7813,210.7188 1823.3984,209.5703 Q1824.0156,208.4219 1825.1094,207.8047 Q1826.2031,207.1875 1827.4375,207.1875 Q1828.1719,207.1875 1828.8203,207.3516 Q1829.4688,207.5156 1830.0156,207.875 Z "/><text fill="#000000" font-family="sans-serif" font-size="12" lengthAdjust="spacingAndGlyphs" textLength="75" x="1847.75" y="216.9102">Preprocessor</text><line style="stroke: #A80036; stroke-width: 1.5;" x1="1692" x2="2046" y1="228" y2="228"/><rect fill="none" height="6" style="stroke: #C82930; stroke-width: 1.0;" width="6" x="1699" y="237.418"/><text fill="#000000" font-family="sans-serif" font-size="11" lengthAdjust="spacingAndGlyphs" textLength="103" x="1711" y="243.4189">java.util.Map filterMap</text><line style="stroke: #A80036; stroke-width: 1.5;" x1="1692" x2="2046" y1="249.8359" y2="249.8359"/><ellipse cx="1702" cy="262.2539" fill="#84BE84" rx="3" ry="3" style="stroke: #038048; stroke-width: 1.0;"/><text fill="#000000" font-family="sans-serif" font-size="11" lengthAdjust="spacingAndGlyphs" textLength="56" x="1711" y="265.2549">void &lt;init&gt;()</text><ellipse cx="1702" cy="276.0898" fill="#84BE84" rx="3" ry="3" style="stroke: #038048; stroke-width: 1.0;"/><text fill="#000000" font-family="sans-serif" font-size="11" lengthAdjust="spacingAndGlyphs" textLength="330" x="1711" y="279.0908">ourStuff.AnalyzerChain makePileline(java.lang.String[],ourStuff.Data)</text><rect fill="#F24D5C" height="6" style="stroke: #C82930; stroke-width: 1.0;" width="6" x="1699" y="286.9258"/><text fill="#000000" font-family="sans-serif" font-size="11" lengthAdjust="spacingAndGlyphs" textLength="200" x="1711" y="292.9268">java.util.Map configGen(java.lang.String[])</text><ellipse cx="1702" cy="303.7617" fill="#84BE84" rx="3" ry="3" style="stroke: #038048; stroke-width: 1.0;"/><text fill="#000000" font-family="sans-serif" font-size="11" lengthAdjust="spacingAndGlyphs" textLength="215" x="1711" y="306.7627">void addFilter(java.lang.String,ourStuff.Filter)</text><!--class ourStuff.PrivateFilter--><rect fill="#FEFECE" filter="url(#f1jop45qz3qmya)" height="103.3438" id="ourStuff.PrivateFilter" style="stroke: #A80036; stroke-width: 1.5;" width="186" x="2431" y="1164"/><ellipse cx="2487.75" cy="1180" fill="#ADD1B2" rx="11" ry="11" style="stroke: #A80036; stroke-width: 1.0;"/><path d="M2490.5156,1175.875 Q2490.6719,1175.6563 2490.8594,1175.5469 Q2491.0469,1175.4375 2491.2656,1175.4375 Q2491.6406,1175.4375 2491.875,1175.6953 Q2492.1094,1175.9531 2492.1094,1176.5625 L2492.1094,1178.0156 Q2492.1094,1178.625 2491.875,1178.8906 Q2491.6406,1179.1563 2491.2656,1179.1563 Q2490.9219,1179.1563 2490.7188,1178.9531 Q2490.5156,1178.7656 2490.4063,1178.25 Q2490.3594,1177.8906 2490.1719,1177.7031 Q2489.8438,1177.3281 2489.2344,1177.1094 Q2488.625,1176.8906 2488,1176.8906 Q2487.2344,1176.8906 2486.6016,1177.2188 Q2485.9688,1177.5469 2485.4766,1178.2969 Q2484.9844,1179.0469 2484.9844,1180.0781 L2484.9844,1181.1719 Q2484.9844,1182.4063 2485.875,1183.2266 Q2486.7656,1184.0469 2488.3594,1184.0469 Q2489.2969,1184.0469 2489.9531,1183.7969 Q2490.3438,1183.6406 2490.7656,1183.2031 Q2491.0313,1182.9375 2491.1797,1182.8594 Q2491.3281,1182.7813 2491.5313,1182.7813 Q2491.8594,1182.7813 2492.1172,1183.0391 Q2492.375,1183.2969 2492.375,1183.6406 Q2492.375,1183.9844 2492.0313,1184.3906 Q2491.5313,1184.9688 2490.7344,1185.2969 Q2489.6563,1185.75 2488.3594,1185.75 Q2486.8438,1185.75 2485.6406,1185.125 Q2484.6563,1184.625 2483.9688,1183.5547 Q2483.2813,1182.4844 2483.2813,1181.2031 L2483.2813,1180.0469 Q2483.2813,1178.7188 2483.8984,1177.5703 Q2484.5156,1176.4219 2485.6094,1175.8047 Q2486.7031,1175.1875 2487.9375,1175.1875 Q2488.6719,1175.1875 2489.3203,1175.3516 Q2489.9688,1175.5156 2490.5156,1175.875 Z "/><text fill="#000000" font-family="sans-serif" font-size="12" lengthAdjust="spacingAndGlyphs" textLength="64" x="2508.25" y="1184.9102">PrivateFilter</text><line style="stroke: #A80036; stroke-width: 1.5;" x1="2432" x2="2616" y1="1196" y2="1196"/><line style="stroke: #A80036; stroke-width: 1.5;" x1="2432" x2="2616" y1="1204" y2="1204"/><ellipse cx="2442" cy="1216.418" fill="#84BE84" rx="3" ry="3" style="stroke: #038048; stroke-width: 1.0;"/><text fill="#000000" font-family="sans-serif" font-size="11" lengthAdjust="spacingAndGlyphs" textLength="56" x="2451" y="1219.4189">void &lt;init&gt;()</text><ellipse cx="2442" cy="1230.2539" fill="#84BE84" rx="3" ry="3" style="stroke: #038048; stroke-width: 1.0;"/><text fill="#000000" font-family="sans-serif" font-size="11" lengthAdjust="spacingAndGlyphs" textLength="152" x="2451" y="1233.2549">boolean ignore(soot.SootClass)</text><ellipse cx="2442" cy="1244.0898" fill="#84BE84" rx="3" ry="3" style="stroke: #038048; stroke-width: 1.0;"/><text fill="#000000" font-family="sans-serif" font-size="11" lengthAdjust="spacingAndGlyphs" textLength="160" x="2451" y="1247.0908">boolean ignore(soot.SootMethod)</text><ellipse cx="2442" cy="1257.9258" fill="#84BE84" rx="3" ry="3" style="stroke: #038048; stroke-width: 1.0;"/><text fill="#000000" font-family="sans-serif" font-size="11" lengthAdjust="spacingAndGlyphs" textLength="147" x="2451" y="1260.9268">boolean ignore(soot.SootField)</text><!--class ourStuff.ProtectedFilter--><rect fill="#FEFECE" filter="url(#f1jop45qz3qmya)" height="103.3438" id="ourStuff.ProtectedFilter" style="stroke: #A80036; stroke-width: 1.5;" width="186" x="2652" y="1164"/><ellipse cx="2701.25" cy="1180" fill="#ADD1B2" rx="11" ry="11" style="stroke: #A80036; stroke-width: 1.0;"/><path d="M2704.0156,1175.875 Q2704.1719,1175.6563 2704.3594,1175.5469 Q2704.5469,1175.4375 2704.7656,1175.4375 Q2705.1406,1175.4375 2705.375,1175.6953 Q2705.6094,1175.9531 2705.6094,1176.5625 L2705.6094,1178.0156 Q2705.6094,1178.625 2705.375,1178.8906 Q2705.1406,1179.1563 2704.7656,1179.1563 Q2704.4219,1179.1563 2704.2188,1178.9531 Q2704.0156,1178.7656 2703.9063,1178.25 Q2703.8594,1177.8906 2703.6719,1177.7031 Q2703.3438,1177.3281 2702.7344,1177.1094 Q2702.125,1176.8906 2701.5,1176.8906 Q2700.7344,1176.8906 2700.1016,1177.2188 Q2699.4688,1177.5469 2698.9766,1178.2969 Q2698.4844,1179.0469 2698.4844,1180.0781 L2698.4844,1181.1719 Q2698.4844,1182.4063 2699.375,1183.2266 Q2700.2656,1184.0469 2701.8594,1184.0469 Q2702.7969,1184.0469 2703.4531,1183.7969 Q2703.8438,1183.6406 2704.2656,1183.2031 Q2704.5313,1182.9375 2704.6797,1182.8594 Q2704.8281,1182.7813 2705.0313,1182.7813 Q2705.3594,1182.7813 2705.6172,1183.0391 Q2705.875,1183.2969 2705.875,1183.6406 Q2705.875,1183.9844 2705.5313,1184.3906 Q2705.0313,1184.9688 2704.2344,1185.2969 Q2703.1563,1185.75 2701.8594,1185.75 Q2700.3438,1185.75 2699.1406,1185.125 Q2698.1563,1184.625 2697.4688,1183.5547 Q2696.7813,1182.4844 2696.7813,1181.2031 L2696.7813,1180.0469 Q2696.7813,1178.7188 2697.3984,1177.5703 Q2698.0156,1176.4219 2699.1094,1175.8047 Q2700.2031,1175.1875 2701.4375,1175.1875 Q2702.1719,1175.1875 2702.8203,1175.3516 Q2703.4688,1175.5156 2704.0156,1175.875 Z "/><text fill="#000000" font-family="sans-serif" font-size="12" lengthAdjust="spacingAndGlyphs" textLength="79" x="2721.75" y="1184.9102">ProtectedFilter</text><line style="stroke: #A80036; stroke-width: 1.5;" x1="2653" x2="2837" y1="1196" y2="1196"/><line style="stroke: #A80036; stroke-width: 1.5;" x1="2653" x2="2837" y1="1204" y2="1204"/><ellipse cx="2663" cy="1216.418" fill="#84BE84" rx="3" ry="3" style="stroke: #038048; stroke-width: 1.0;"/><text fill="#000000" font-family="sans-serif" font-size="11" lengthAdjust="spacingAndGlyphs" textLength="56" x="2672" y="1219.4189">void &lt;init&gt;()</text><ellipse cx="2663" cy="1230.2539" fill="#84BE84" rx="3" ry="3" style="stroke: #038048; stroke-width: 1.0;"/><text fill="#000000" font-family="sans-serif" font-size="11" lengthAdjust="spacingAndGlyphs" textLength="152" x="2672" y="1233.2549">boolean ignore(soot.SootClass)</text><ellipse cx="2663" cy="1244.0898" fill="#84BE84" rx="3" ry="3" style="stroke: #038048; stroke-width: 1.0;"/><text fill="#000000" font-family="sans-serif" font-size="11" lengthAdjust="spacingAndGlyphs" textLength="160" x="2672" y="1247.0908">boolean ignore(soot.SootMethod)</text><ellipse cx="2663" cy="1257.9258" fill="#84BE84" rx="3" ry="3" style="stroke: #038048; stroke-width: 1.0;"/><text fill="#000000" font-family="sans-serif" font-size="11" lengthAdjust="spacingAndGlyphs" textLength="147" x="2672" y="1260.9268">boolean ignore(soot.SootField)</text><!--class ourStuff.PublicFilter--><rect fill="#FEFECE" filter="url(#f1jop45qz3qmya)" height="103.3438" id="ourStuff.PublicFilter" style="stroke: #A80036; stroke-width: 1.5;" width="186" x="1989" y="1164"/><ellipse cx="2047.25" cy="1180" fill="#ADD1B2" rx="11" ry="11" style="stroke: #A80036; stroke-width: 1.0;"/><path d="M2050.0156,1175.875 Q2050.1719,1175.6563 2050.3594,1175.5469 Q2050.5469,1175.4375 2050.7656,1175.4375 Q2051.1406,1175.4375 2051.375,1175.6953 Q2051.6094,1175.9531 2051.6094,1176.5625 L2051.6094,1178.0156 Q2051.6094,1178.625 2051.375,1178.8906 Q2051.1406,1179.1563 2050.7656,1179.1563 Q2050.4219,1179.1563 2050.2188,1178.9531 Q2050.0156,1178.7656 2049.9063,1178.25 Q2049.8594,1177.8906 2049.6719,1177.7031 Q2049.3438,1177.3281 2048.7344,1177.1094 Q2048.125,1176.8906 2047.5,1176.8906 Q2046.7344,1176.8906 2046.1016,1177.2188 Q2045.4688,1177.5469 2044.9766,1178.2969 Q2044.4844,1179.0469 2044.4844,1180.0781 L2044.4844,1181.1719 Q2044.4844,1182.4063 2045.375,1183.2266 Q2046.2656,1184.0469 2047.8594,1184.0469 Q2048.7969,1184.0469 2049.4531,1183.7969 Q2049.8438,1183.6406 2050.2656,1183.2031 Q2050.5313,1182.9375 2050.6797,1182.8594 Q2050.8281,1182.7813 2051.0313,1182.7813 Q2051.3594,1182.7813 2051.6172,1183.0391 Q2051.875,1183.2969 2051.875,1183.6406 Q2051.875,1183.9844 2051.5313,1184.3906 Q2051.0313,1184.9688 2050.2344,1185.2969 Q2049.1563,1185.75 2047.8594,1185.75 Q2046.3438,1185.75 2045.1406,1185.125 Q2044.1563,1184.625 2043.4688,1183.5547 Q2042.7813,1182.4844 2042.7813,1181.2031 L2042.7813,1180.0469 Q2042.7813,1178.7188 2043.3984,1177.5703 Q2044.0156,1176.4219 2045.1094,1175.8047 Q2046.2031,1175.1875 2047.4375,1175.1875 Q2048.1719,1175.1875 2048.8203,1175.3516 Q2049.4688,1175.5156 2050.0156,1175.875 Z "/><text fill="#000000" font-family="sans-serif" font-size="12" lengthAdjust="spacingAndGlyphs" textLength="61" x="2067.75" y="1184.9102">PublicFilter</text><line style="stroke: #A80036; stroke-width: 1.5;" x1="1990" x2="2174" y1="1196" y2="1196"/><line style="stroke: #A80036; stroke-width: 1.5;" x1="1990" x2="2174" y1="1204" y2="1204"/><ellipse cx="2000" cy="1216.418" fill="#84BE84" rx="3" ry="3" style="stroke: #038048; stroke-width: 1.0;"/><text fill="#000000" font-family="sans-serif" font-size="11" lengthAdjust="spacingAndGlyphs" textLength="56" x="2009" y="1219.4189">void &lt;init&gt;()</text><ellipse cx="2000" cy="1230.2539" fill="#84BE84" rx="3" ry="3" style="stroke: #038048; stroke-width: 1.0;"/><text fill="#000000" font-family="sans-serif" font-size="11" lengthAdjust="spacingAndGlyphs" textLength="152" x="2009" y="1233.2549">boolean ignore(soot.SootClass)</text><ellipse cx="2000" cy="1244.0898" fill="#84BE84" rx="3" ry="3" style="stroke: #038048; stroke-width: 1.0;"/><text fill="#000000" font-family="sans-serif" font-size="11" lengthAdjust="spacingAndGlyphs" textLength="160" x="2009" y="1247.0908">boolean ignore(soot.SootMethod)</text><ellipse cx="2000" cy="1257.9258" fill="#84BE84" rx="3" ry="3" style="stroke: #038048; stroke-width: 1.0;"/><text fill="#000000" font-family="sans-serif" font-size="11" lengthAdjust="spacingAndGlyphs" textLength="147" x="2009" y="1260.9268">boolean ignore(soot.SootField)</text><!--class ourStuff.RecursiveAnalyzer--><rect fill="#FEFECE" filter="url(#f1jop45qz3qmya)" height="75.6719" id="ourStuff.RecursiveAnalyzer" style="stroke: #A80036; stroke-width: 1.5;" width="205" x="2170.5" y="796"/><ellipse cx="2218.75" cy="812" fill="#ADD1B2" rx="11" ry="11" style="stroke: #A80036; stroke-width: 1.0;"/><path d="M2221.5156,807.875 Q2221.6719,807.6563 2221.8594,807.5469 Q2222.0469,807.4375 2222.2656,807.4375 Q2222.6406,807.4375 2222.875,807.6953 Q2223.1094,807.9531 2223.1094,808.5625 L2223.1094,810.0156 Q2223.1094,810.625 2222.875,810.8906 Q2222.6406,811.1563 2222.2656,811.1563 Q2221.9219,811.1563 2221.7188,810.9531 Q2221.5156,810.7656 2221.4063,810.25 Q2221.3594,809.8906 2221.1719,809.7031 Q2220.8438,809.3281 2220.2344,809.1094 Q2219.625,808.8906 2219,808.8906 Q2218.2344,808.8906 2217.6016,809.2188 Q2216.9688,809.5469 2216.4766,810.2969 Q2215.9844,811.0469 2215.9844,812.0781 L2215.9844,813.1719 Q2215.9844,814.4063 2216.875,815.2266 Q2217.7656,816.0469 2219.3594,816.0469 Q2220.2969,816.0469 2220.9531,815.7969 Q2221.3438,815.6406 2221.7656,815.2031 Q2222.0313,814.9375 2222.1797,814.8594 Q2222.3281,814.7813 2222.5313,814.7813 Q2222.8594,814.7813 2223.1172,815.0391 Q2223.375,815.2969 2223.375,815.6406 Q2223.375,815.9844 2223.0313,816.3906 Q2222.5313,816.9688 2221.7344,817.2969 Q2220.6563,817.75 2219.3594,817.75 Q2217.8438,817.75 2216.6406,817.125 Q2215.6563,816.625 2214.9688,815.5547 Q2214.2813,814.4844 2214.2813,813.2031 L2214.2813,812.0469 Q2214.2813,810.7188 2214.8984,809.5703 Q2215.5156,808.4219 2216.6094,807.8047 Q2217.7031,807.1875 2218.9375,807.1875 Q2219.6719,807.1875 2220.3203,807.3516 Q2220.9688,807.5156 2221.5156,807.875 Z "/><text fill="#000000" font-family="sans-serif" font-size="12" lengthAdjust="spacingAndGlyphs" textLength="100" x="2239.25" y="816.9102">RecursiveAnalyzer</text><line style="stroke: #A80036; stroke-width: 1.5;" x1="2171.5" x2="2374.5" y1="828" y2="828"/><line style="stroke: #A80036; stroke-width: 1.5;" x1="2171.5" x2="2374.5" y1="836" y2="836"/><ellipse cx="2181.5" cy="848.418" fill="#84BE84" rx="3" ry="3" style="stroke: #038048; stroke-width: 1.0;"/><text fill="#000000" font-family="sans-serif" font-size="11" lengthAdjust="spacingAndGlyphs" textLength="56" x="2190.5" y="851.4189">void &lt;init&gt;()</text><ellipse cx="2181.5" cy="862.2539" fill="#84BE84" rx="3" ry="3" style="stroke: #038048; stroke-width: 1.0;"/><text fill="#000000" font-family="sans-serif" font-size="11" lengthAdjust="spacingAndGlyphs" textLength="179" x="2190.5" y="865.2549">ourStuff.Data analyze(ourStuff.Data)</text><!--class ourStuff.Relationship--><rect fill="#FEFECE" filter="url(#f1jop45qz3qmya)" height="117.1797" id="ourStuff.Relationship" style="stroke: #A80036; stroke-width: 1.5;" width="423" x="243.5" y="987"/><ellipse cx="415.75" cy="1003" fill="#ADD1B2" rx="11" ry="11" style="stroke: #A80036; stroke-width: 1.0;"/><path d="M418.5156,998.875 Q418.6719,998.6563 418.8594,998.5469 Q419.0469,998.4375 419.2656,998.4375 Q419.6406,998.4375 419.875,998.6953 Q420.1094,998.9531 420.1094,999.5625 L420.1094,1001.0156 Q420.1094,1001.625 419.875,1001.8906 Q419.6406,1002.1563 419.2656,1002.1563 Q418.9219,1002.1563 418.7188,1001.9531 Q418.5156,1001.7656 418.4063,1001.25 Q418.3594,1000.8906 418.1719,1000.7031 Q417.8438,1000.3281 417.2344,1000.1094 Q416.625,999.8906 416,999.8906 Q415.2344,999.8906 414.6016,1000.2188 Q413.9688,1000.5469 413.4766,1001.2969 Q412.9844,1002.0469 412.9844,1003.0781 L412.9844,1004.1719 Q412.9844,1005.4063 413.875,1006.2266 Q414.7656,1007.0469 416.3594,1007.0469 Q417.2969,1007.0469 417.9531,1006.7969 Q418.3438,1006.6406 418.7656,1006.2031 Q419.0313,1005.9375 419.1797,1005.8594 Q419.3281,1005.7813 419.5313,1005.7813 Q419.8594,1005.7813 420.1172,1006.0391 Q420.375,1006.2969 420.375,1006.6406 Q420.375,1006.9844 420.0313,1007.3906 Q419.5313,1007.9688 418.7344,1008.2969 Q417.6563,1008.75 416.3594,1008.75 Q414.8438,1008.75 413.6406,1008.125 Q412.6563,1007.625 411.9688,1006.5547 Q411.2813,1005.4844 411.2813,1004.2031 L411.2813,1003.0469 Q411.2813,1001.7188 411.8984,1000.5703 Q412.5156,999.4219 413.6094,998.8047 Q414.7031,998.1875 415.9375,998.1875 Q416.6719,998.1875 417.3203,998.3516 Q417.9688,998.5156 418.5156,998.875 Z "/><text fill="#000000" font-family="sans-serif" font-size="12" lengthAdjust="spacingAndGlyphs" textLength="70" x="436.25" y="1007.9102">Relationship</text><line style="stroke: #A80036; stroke-width: 1.5;" x1="244.5" x2="665.5" y1="1019" y2="1019"/><ellipse cx="254.5" cy="1031.418" fill="none" rx="3" ry="3" style="stroke: #038048; stroke-width: 1.0;"/><text fill="#000000" font-family="sans-serif" font-size="11" lengthAdjust="spacingAndGlyphs" textLength="85" x="263.5" y="1034.4189">soot.SootClass to</text><ellipse cx="254.5" cy="1045.2539" fill="none" rx="3" ry="3" style="stroke: #038048; stroke-width: 1.0;"/><text fill="#000000" font-family="sans-serif" font-size="11" lengthAdjust="spacingAndGlyphs" textLength="98" x="263.5" y="1048.2549">soot.SootClass from</text><ellipse cx="254.5" cy="1059.0898" fill="none" rx="3" ry="3" style="stroke: #038048; stroke-width: 1.0;"/><text fill="#000000" font-family="sans-serif" font-size="11" lengthAdjust="spacingAndGlyphs" textLength="213" x="263.5" y="1062.0908">ourStuff.Relationship$RelationshipType type</text><line style="stroke: #A80036; stroke-width: 1.5;" x1="244.5" x2="665.5" y1="1068.5078" y2="1068.5078"/><ellipse cx="254.5" cy="1080.9258" fill="#84BE84" rx="3" ry="3" style="stroke: #038048; stroke-width: 1.0;"/><text fill="#000000" font-family="sans-serif" font-size="11" lengthAdjust="spacingAndGlyphs" textLength="397" x="263.5" y="1083.9268">void &lt;init&gt;(soot.SootClass,soot.SootClass,ourStuff.Relationship$RelationshipType)</text><ellipse cx="254.5" cy="1094.7617" fill="#84BE84" rx="3" ry="3" style="stroke: #038048; stroke-width: 1.0;"/><text fill="#000000" font-family="sans-serif" font-size="11" lengthAdjust="spacingAndGlyphs" textLength="71" x="263.5" y="1097.7627">int hashCode()</text><!--class ourStuff.SequenceDiagramAnalyzer--><rect fill="#FEFECE" filter="url(#f1jop45qz3qmya)" height="144.8516" id="ourStuff.SequenceDiagramAnalyzer" style="stroke: #A80036; stroke-width: 1.5;" width="343" x="852.5" y="761.5"/><ellipse cx="945.25" cy="777.5" fill="#ADD1B2" rx="11" ry="11" style="stroke: #A80036; stroke-width: 1.0;"/><path d="M948.0156,773.375 Q948.1719,773.1563 948.3594,773.0469 Q948.5469,772.9375 948.7656,772.9375 Q949.1406,772.9375 949.375,773.1953 Q949.6094,773.4531 949.6094,774.0625 L949.6094,775.5156 Q949.6094,776.125 949.375,776.3906 Q949.1406,776.6563 948.7656,776.6563 Q948.4219,776.6563 948.2188,776.4531 Q948.0156,776.2656 947.9063,775.75 Q947.8594,775.3906 947.6719,775.2031 Q947.3438,774.8281 946.7344,774.6094 Q946.125,774.3906 945.5,774.3906 Q944.7344,774.3906 944.1016,774.7188 Q943.4688,775.0469 942.9766,775.7969 Q942.4844,776.5469 942.4844,777.5781 L942.4844,778.6719 Q942.4844,779.9063 943.375,780.7266 Q944.2656,781.5469 945.8594,781.5469 Q946.7969,781.5469 947.4531,781.2969 Q947.8438,781.1406 948.2656,780.7031 Q948.5313,780.4375 948.6797,780.3594 Q948.8281,780.2813 949.0313,780.2813 Q949.3594,780.2813 949.6172,780.5391 Q949.875,780.7969 949.875,781.1406 Q949.875,781.4844 949.5313,781.8906 Q949.0313,782.4688 948.2344,782.7969 Q947.1563,783.25 945.8594,783.25 Q944.3438,783.25 943.1406,782.625 Q942.1563,782.125 941.4688,781.0547 Q940.7813,779.9844 940.7813,778.7031 L940.7813,777.5469 Q940.7813,776.2188 941.3984,775.0703 Q942.0156,773.9219 943.1094,773.3047 Q944.2031,772.6875 945.4375,772.6875 Q946.1719,772.6875 946.8203,772.8516 Q947.4688,773.0156 948.0156,773.375 Z "/><text fill="#000000" font-family="sans-serif" font-size="12" lengthAdjust="spacingAndGlyphs" textLength="149" x="965.75" y="782.4102">SequenceDiagramAnalyzer</text><line style="stroke: #A80036; stroke-width: 1.5;" x1="853.5" x2="1194.5" y1="793.5" y2="793.5"/><rect fill="none" height="6" style="stroke: #C82930; stroke-width: 1.0;" width="6" x="860.5" y="802.918"/><text fill="#000000" font-family="sans-serif" font-size="11" lengthAdjust="spacingAndGlyphs" textLength="98" x="872.5" y="808.9189">int DEFAULT_DEPTH</text><rect fill="none" height="6" style="stroke: #C82930; stroke-width: 1.0;" width="6" x="860.5" y="816.7539"/><text fill="#000000" font-family="sans-serif" font-size="11" lengthAdjust="spacingAndGlyphs" textLength="136" x="872.5" y="822.7549">java.lang.String DEPTH_KEY</text><rect fill="none" height="6" style="stroke: #C82930; stroke-width: 1.0;" width="6" x="860.5" y="830.5898"/><text fill="#000000" font-family="sans-serif" font-size="11" lengthAdjust="spacingAndGlyphs" textLength="100" x="872.5" y="836.5908">java.lang.String mSig</text><rect fill="none" height="6" style="stroke: #C82930; stroke-width: 1.0;" width="6" x="860.5" y="844.4258"/><text fill="#000000" font-family="sans-serif" font-size="11" lengthAdjust="spacingAndGlyphs" textLength="62" x="872.5" y="850.4268">int maxDepth</text><line style="stroke: #A80036; stroke-width: 1.5;" x1="853.5" x2="1194.5" y1="856.8438" y2="856.8438"/><ellipse cx="863.5" cy="869.2617" fill="#84BE84" rx="3" ry="3" style="stroke: #038048; stroke-width: 1.0;"/><text fill="#000000" font-family="sans-serif" font-size="11" lengthAdjust="spacingAndGlyphs" textLength="130" x="872.5" y="872.2627">void &lt;init&gt;(java.lang.String)</text><ellipse cx="863.5" cy="883.0977" fill="#84BE84" rx="3" ry="3" style="stroke: #038048; stroke-width: 1.0;"/><text fill="#000000" font-family="sans-serif" font-size="11" lengthAdjust="spacingAndGlyphs" textLength="179" x="872.5" y="886.0986">ourStuff.Data analyze(ourStuff.Data)</text><rect fill="#F24D5C" height="6" style="stroke: #C82930; stroke-width: 1.0;" width="6" x="860.5" y="893.9336"/><text fill="#000000" font-family="sans-serif" font-size="11" lengthAdjust="spacingAndGlyphs" textLength="317" x="872.5" y="899.9346">java.lang.String recursiveBuilder(soot.SootMethod,int,soot.Scene)</text><!--class ourStuff.SootClassAnalyzer--><rect fill="#FEFECE" filter="url(#f1jop45qz3qmya)" height="89.5078" id="ourStuff.SootClassAnalyzer" style="stroke: #A80036; stroke-width: 1.5;" width="205" x="2410.5" y="789"/><ellipse cx="2457.25" cy="805" fill="#ADD1B2" rx="11" ry="11" style="stroke: #A80036; stroke-width: 1.0;"/><path d="M2460.0156,800.875 Q2460.1719,800.6563 2460.3594,800.5469 Q2460.5469,800.4375 2460.7656,800.4375 Q2461.1406,800.4375 2461.375,800.6953 Q2461.6094,800.9531 2461.6094,801.5625 L2461.6094,803.0156 Q2461.6094,803.625 2461.375,803.8906 Q2461.1406,804.1563 2460.7656,804.1563 Q2460.4219,804.1563 2460.2188,803.9531 Q2460.0156,803.7656 2459.9063,803.25 Q2459.8594,802.8906 2459.6719,802.7031 Q2459.3438,802.3281 2458.7344,802.1094 Q2458.125,801.8906 2457.5,801.8906 Q2456.7344,801.8906 2456.1016,802.2188 Q2455.4688,802.5469 2454.9766,803.2969 Q2454.4844,804.0469 2454.4844,805.0781 L2454.4844,806.1719 Q2454.4844,807.4063 2455.375,808.2266 Q2456.2656,809.0469 2457.8594,809.0469 Q2458.7969,809.0469 2459.4531,808.7969 Q2459.8438,808.6406 2460.2656,808.2031 Q2460.5313,807.9375 2460.6797,807.8594 Q2460.8281,807.7813 2461.0313,807.7813 Q2461.3594,807.7813 2461.6172,808.0391 Q2461.875,808.2969 2461.875,808.6406 Q2461.875,808.9844 2461.5313,809.3906 Q2461.0313,809.9688 2460.2344,810.2969 Q2459.1563,810.75 2457.8594,810.75 Q2456.3438,810.75 2455.1406,810.125 Q2454.1563,809.625 2453.4688,808.5547 Q2452.7813,807.4844 2452.7813,806.2031 L2452.7813,805.0469 Q2452.7813,803.7188 2453.3984,802.5703 Q2454.0156,801.4219 2455.1094,800.8047 Q2456.2031,800.1875 2457.4375,800.1875 Q2458.1719,800.1875 2458.8203,800.3516 Q2459.4688,800.5156 2460.0156,800.875 Z "/><text fill="#000000" font-family="sans-serif" font-size="12" lengthAdjust="spacingAndGlyphs" textLength="103" x="2477.75" y="809.9102">SootClassAnalyzer</text><line style="stroke: #A80036; stroke-width: 1.5;" x1="2411.5" x2="2614.5" y1="821" y2="821"/><rect fill="none" height="6" style="stroke: #C82930; stroke-width: 1.0;" width="6" x="2418.5" y="830.418"/><text fill="#000000" font-family="sans-serif" font-size="11" lengthAdjust="spacingAndGlyphs" textLength="86" x="2430.5" y="836.4189">java.util.List filters</text><line style="stroke: #A80036; stroke-width: 1.5;" x1="2411.5" x2="2614.5" y1="842.8359" y2="842.8359"/><ellipse cx="2421.5" cy="855.2539" fill="#84BE84" rx="3" ry="3" style="stroke: #038048; stroke-width: 1.0;"/><text fill="#000000" font-family="sans-serif" font-size="11" lengthAdjust="spacingAndGlyphs" textLength="56" x="2430.5" y="858.2549">void &lt;init&gt;()</text><ellipse cx="2421.5" cy="869.0898" fill="#84BE84" rx="3" ry="3" style="stroke: #038048; stroke-width: 1.0;"/><text fill="#000000" font-family="sans-serif" font-size="11" lengthAdjust="spacingAndGlyphs" textLength="179" x="2430.5" y="872.0908">ourStuff.Data analyze(ourStuff.Data)</text><!--class soot.SootClass--><rect fill="#FEFECE" filter="url(#f1jop45qz3qmya)" height="48" id="soot.SootClass" style="stroke: #A80036; stroke-width: 1.5;" width="90" x="2894" y="810"/><ellipse cx="2909" cy="826" fill="#ADD1B2" rx="11" ry="11" style="stroke: #A80036; stroke-width: 1.0;"/><path d="M2911.7656,821.875 Q2911.9219,821.6563 2912.1094,821.5469 Q2912.2969,821.4375 2912.5156,821.4375 Q2912.8906,821.4375 2913.125,821.6953 Q2913.3594,821.9531 2913.3594,822.5625 L2913.3594,824.0156 Q2913.3594,824.625 2913.125,824.8906 Q2912.8906,825.1563 2912.5156,825.1563 Q2912.1719,825.1563 2911.9688,824.9531 Q2911.7656,824.7656 2911.6563,824.25 Q2911.6094,823.8906 2911.4219,823.7031 Q2911.0938,823.3281 2910.4844,823.1094 Q2909.875,822.8906 2909.25,822.8906 Q2908.4844,822.8906 2907.8516,823.2188 Q2907.2188,823.5469 2906.7266,824.2969 Q2906.2344,825.0469 2906.2344,826.0781 L2906.2344,827.1719 Q2906.2344,828.4063 2907.125,829.2266 Q2908.0156,830.0469 2909.6094,830.0469 Q2910.5469,830.0469 2911.2031,829.7969 Q2911.5938,829.6406 2912.0156,829.2031 Q2912.2813,828.9375 2912.4297,828.8594 Q2912.5781,828.7813 2912.7813,828.7813 Q2913.1094,828.7813 2913.3672,829.0391 Q2913.625,829.2969 2913.625,829.6406 Q2913.625,829.9844 2913.2813,830.3906 Q2912.7813,830.9688 2911.9844,831.2969 Q2910.9063,831.75 2909.6094,831.75 Q2908.0938,831.75 2906.8906,831.125 Q2905.9063,830.625 2905.2188,829.5547 Q2904.5313,828.4844 2904.5313,827.2031 L2904.5313,826.0469 Q2904.5313,824.7188 2905.1484,823.5703 Q2905.7656,822.4219 2906.8594,821.8047 Q2907.9531,821.1875 2909.1875,821.1875 Q2909.9219,821.1875 2910.5703,821.3516 Q2911.2188,821.5156 2911.7656,821.875 Z "/><text fill="#000000" font-family="sans-serif" font-size="12" lengthAdjust="spacingAndGlyphs" textLength="58" x="2923" y="830.9102">SootClass</text><line style="stroke: #A80036; stroke-width: 1.5;" x1="2895" x2="2983" y1="842" y2="842"/><line style="stroke: #A80036; stroke-width: 1.5;" x1="2895" x2="2983" y1="850" y2="850"/><!--link ourStuff.Analyzer to ourStuff.AbstractAnalyzer--><path d="M1631.49,473.723 C1597.41,496.192 1554.47,524.508 1516.05,549.843 " fill="none" id="ourStuff.Analyzer-ourStuff.AbstractAnalyzer" style="stroke: #A80036; stroke-width: 1.0; stroke-dasharray: 7.0,7.0;"/><polygon fill="none" points="1627.87,467.72,1648.42,462.554,1635.58,479.408,1627.87,467.72" style="stroke: #A80036; stroke-width: 1.0;"/><!--link ourStuff.AbstractAnalyzer to ourStuff.AssociationAnalyzer--><path d="M1292.05,625.776 C1166.62,639.027 971.565,670.156 818,741 C788.442,754.636 759.364,776.647 739.168,795.721 " fill="none" id="ourStuff.AbstractAnalyzer-ourStuff.AssociationAnalyzer" style="stroke: #A80036; stroke-width: 1.0;"/><polygon fill="none" points="1291.73,618.773,1312.33,623.726,1293.14,632.702,1291.73,618.773" style="stroke: #A80036; stroke-width: 1.0;"/><!--link ourStuff.AssociationAnalyzer to ourStuff.AbstractAnalyzer--><path d="M769.898,795.951 C794.129,776.825 823.323,754.691 853,741 C1001.974,672.274 1189.99,640.924 1307.31,627.013 " fill="none" id="ourStuff.AssociationAnalyzer-ourStuff.AbstractAnalyzer" style="stroke: #A80036; stroke-width: 1.0; stroke-dasharray: 7.0,7.0;"/><polygon fill="#A80036" points="1312.49,626.404,1303.0834,623.4858,1307.5244,626.9897,1304.0205,631.4307,1312.49,626.404" style="stroke: #A80036; stroke-width: 1.0;"/><!--link ourStuff.AbstractAnalyzer to ourStuff.ClassCodeGenAnalyzer--><path d="M1405.51,701.525 C1405.22,714.367 1405.17,727.666 1405.37,740.653 " fill="none" id="ourStuff.AbstractAnalyzer-ourStuff.ClassCodeGenAnalyzer" style="stroke: #A80036; stroke-width: 1.0;"/><polygon fill="none" points="1398.53,700.911,1406.22,681.164,1412.52,701.393,1398.53,700.911" style="stroke: #A80036; stroke-width: 1.0;"/><!--link ourStuff.ClassCodeGenAnalyzer to ourStuff.AbstractAnalyzer--><path d="M1431.37,740.653 C1431.67,722.503 1431.45,703.742 1430.72,686.473 " fill="none" id="ourStuff.ClassCodeGenAnalyzer-ourStuff.AbstractAnalyzer" style="stroke: #A80036; stroke-width: 1.0; stroke-dasharray: 7.0,7.0;"/><polygon fill="#A80036" points="1430.48,681.164,1426.899,690.3388,1430.7104,686.1587,1434.8905,689.9701,1430.48,681.164" style="stroke: #A80036; stroke-width: 1.0;"/><!--link ourStuff.AbstractAnalyzer to ourStuff.DependencyAnalyzer--><path d="M1541.84,681.617 C1607.67,713.934 1688.04,752.382 1752.7,782.444 " fill="none" id="ourStuff.AbstractAnalyzer-ourStuff.DependencyAnalyzer" style="stroke: #A80036; stroke-width: 1.0;"/><polygon fill="none" points="1538.54,687.792,1523.69,672.677,1544.72,675.232,1538.54,687.792" style="stroke: #A80036; stroke-width: 1.0;"/><!--link ourStuff.DependencyAnalyzer to ourStuff.AbstractAnalyzer--><path d="M1775.17,782.373 C1703.38,746.68 1604.38,699.191 1528.72,664.174 " fill="none" id="ourStuff.DependencyAnalyzer-ourStuff.AbstractAnalyzer" style="stroke: #A80036; stroke-width: 1.0; stroke-dasharray: 7.0,7.0;"/><polygon fill="#A80036" points="1523.77,661.885,1530.2583,669.2946,1528.3078,663.9846,1533.6177,662.0341,1523.77,661.885" style="stroke: #A80036; stroke-width: 1.0;"/><!--link ourStuff.AbstractAnalyzer to ourStuff.ImplementationAnalyzer--><path d="M1292.07,623.115 C1038.95,638.071 478.047,678.159 298,741 C270.001,750.772 241.786,766.645 218.634,782.476 " fill="none" id="ourStuff.AbstractAnalyzer-ourStuff.ImplementationAnalyzer" style="stroke: #A80036; stroke-width: 1.0;"/><polygon fill="none" points="1291.94,616.111,1312.31,621.934,1292.75,630.087,1291.94,616.111" style="stroke: #A80036; stroke-width: 1.0;"/><!--link ourStuff.ImplementationAnalyzer to ourStuff.AbstractAnalyzer--><path d="M251.64,782.476 C276.786,766.645 305.001,750.772 333,741 C512.032,678.514 1067.64,638.524 1306.86,623.37 " fill="none" id="ourStuff.ImplementationAnalyzer-ourStuff.AbstractAnalyzer" style="stroke: #A80036; stroke-width: 1.0; stroke-dasharray: 7.0,7.0;"/><polygon fill="#A80036" points="1312.11,623.039,1302.8764,619.6125,1307.1199,623.3532,1303.3792,627.5967,1312.11,623.039" style="stroke: #A80036; stroke-width: 1.0;"/><!--link ourStuff.AbstractAnalyzer to ourStuff.InheritenceAnalyzer--><path d="M1292.11,618.467 C1123.64,624.638 818.753,648.793 578,741 C551.655,751.09 525.174,766.742 503.369,782.293 " fill="none" id="ourStuff.AbstractAnalyzer-ourStuff.InheritenceAnalyzer" style="stroke: #A80036; stroke-width: 1.0;"/><polygon fill="none" points="1291.99,611.467,1312.21,617.792,1292.46,625.459,1291.99,611.467" style="stroke: #A80036; stroke-width: 1.0;"/><!--link ourStuff.InheritenceAnalyzer to ourStuff.AbstractAnalyzer--><path d="M536.465,782.293 C560.174,766.742 586.655,751.09 613,741 C849.627,650.374 1148.21,625.486 1307.08,618.8 " fill="none" id="ourStuff.InheritenceAnalyzer-ourStuff.AbstractAnalyzer" style="stroke: #A80036; stroke-width: 1.0; stroke-dasharray: 7.0,7.0;"/><polygon fill="#A80036" points="1312.21,618.589,1303.0572,614.9522,1307.214,618.789,1303.3772,622.9458,1312.21,618.589" style="stroke: #A80036; stroke-width: 1.0;"/><!--link ourStuff.Filter to ourStuff.JDKFilter--><path d="M2475.44,1101.774 C2444.85,1121.771 2410.49,1144.237 2380.53,1163.82 " fill="none" id="ourStuff.Filter-ourStuff.JDKFilter" style="stroke: #A80036; stroke-width: 1.0; stroke-dasharray: 7.0,7.0;"/><polygon fill="none" points="2471.91,1095.724,2492.48,1090.64,2479.57,1107.442,2471.91,1095.724" style="stroke: #A80036; stroke-width: 1.0;"/><!--link ourStuff.Filter to ourStuff.PrivateFilter--><path d="M2546.33,1110.274 C2542.54,1127.984 2538.47,1146.97 2534.86,1163.82 " fill="none" id="ourStuff.Filter-ourStuff.PrivateFilter" style="stroke: #A80036; stroke-width: 1.0; stroke-dasharray: 7.0,7.0;"/><polygon fill="none" points="2539.51,1108.729,2550.54,1090.64,2553.2,1111.663,2539.51,1108.729" style="stroke: #A80036; stroke-width: 1.0;"/><!--link ourStuff.Filter to ourStuff.ProtectedFilter--><path d="M2623.65,1104.298 C2644.95,1123.647 2668.53,1145.057 2689.19,1163.82 " fill="none" id="ourStuff.Filter-ourStuff.ProtectedFilter" style="stroke: #A80036; stroke-width: 1.0; stroke-dasharray: 7.0,7.0;"/><polygon fill="none" points="2618.71,1109.268,2608.61,1090.64,2628.12,1098.903,2618.71,1109.268" style="stroke: #A80036; stroke-width: 1.0;"/><!--link ourStuff.Filter to ourStuff.PublicFilter--><path d="M2453.31,1098.255 C2448.17,1100.284 2443.05,1102.212 2438,1104 C2332.32,1141.418 2298.93,1127.294 2193,1164 C2187.1,1166.045 2181.08,1168.289 2175.06,1170.66 " fill="none" id="ourStuff.Filter-ourStuff.PublicFilter" style="stroke: #A80036; stroke-width: 1.0; stroke-dasharray: 7.0,7.0;"/><polygon fill="none" points="2450.76,1091.736,2471.92,1090.541,2456.12,1104.668,2450.76,1091.736" style="stroke: #A80036; stroke-width: 1.0;"/><!--link ourStuff.AbstractAnalyzer to ourStuff.RecursiveAnalyzer--><path d="M1543.64,620.157 C1691.16,628.598 1940.1,655.638 2136,741 C2166.2,754.161 2195.63,776.528 2219.79,795.912 " fill="none" id="ourStuff.AbstractAnalyzer-ourStuff.RecursiveAnalyzer" style="stroke: #A80036; stroke-width: 1.0;"/><polygon fill="none" points="1543.11,627.139,1523.52,619.085,1543.86,613.159,1543.11,627.139" style="stroke: #A80036; stroke-width: 1.0;"/><!--link ourStuff.RecursiveAnalyzer to ourStuff.AbstractAnalyzer--><path d="M2250.43,795.681 C2230.4,776.35 2201.08,754.108 2171,741 C1957.3,647.881 1680.47,624.164 1528.86,618.286 " fill="none" id="ourStuff.RecursiveAnalyzer-ourStuff.AbstractAnalyzer" style="stroke: #A80036; stroke-width: 1.0; stroke-dasharray: 7.0,7.0;"/><polygon fill="#A80036" points="1523.52,618.085,1532.3652,622.4166,1528.5165,618.2707,1532.6624,614.4221,1523.52,618.085" style="stroke: #A80036; stroke-width: 1.0;"/><!--link ourStuff.AbstractAnalyzer to ourStuff.SequenceDiagramAnalyzer--><path d="M1294.39,678.032 C1245.8,704.006 1190.3,734.42 1142.24,761.393 " fill="none" id="ourStuff.AbstractAnalyzer-ourStuff.SequenceDiagramAnalyzer" style="stroke: #A80036; stroke-width: 1.0;"/><polygon fill="none" points="1291.36,671.717,1312.3,668.495,1297.94,684.074,1291.36,671.717" style="stroke: #A80036; stroke-width: 1.0;"/><!--link ourStuff.SequenceDiagramAnalyzer to ourStuff.AbstractAnalyzer--><path d="M1167.11,761.39 C1213.77,736.306 1264.77,708.247 1308.57,683.55 " fill="none" id="ourStuff.SequenceDiagramAnalyzer-ourStuff.AbstractAnalyzer" style="stroke: #A80036; stroke-width: 1.0; stroke-dasharray: 7.0,7.0;"/><polygon fill="#A80036" points="1313.06,681.017,1303.2561,681.9565,1308.7055,683.4743,1307.1877,688.9237,1313.06,681.017" style="stroke: #A80036; stroke-width: 1.0;"/><!--link ourStuff.AbstractAnalyzer to ourStuff.SootClassAnalyzer--><path d="M1543.64,625.079 C1767.94,641.126 2227.11,679.705 2376,741 C2403.07,752.143 2429.32,771.032 2451.74,788.805 " fill="none" id="ourStuff.AbstractAnalyzer-ourStuff.SootClassAnalyzer" style="stroke: #A80036; stroke-width: 1.0;"/><polygon fill="none" points="1543.12,632.06,1523.66,623.665,1544.1,618.095,1543.12,632.06" style="stroke: #A80036; stroke-width: 1.0;"/><!--link ourStuff.SootClassAnalyzer to ourStuff.AbstractAnalyzer--><path d="M2483.85,788.805 C2464.32,771.032 2438.07,752.143 2411,741 C2254.34,676.504 1754.14,637.159 1529.16,622.75 " fill="none" id="ourStuff.SootClassAnalyzer-ourStuff.AbstractAnalyzer" style="stroke: #A80036; stroke-width: 1.0; stroke-dasharray: 7.0,7.0;"/><polygon fill="#A80036" points="1523.9,622.414,1532.6308,626.9718,1528.8901,622.7283,1533.1336,618.9876,1523.9,622.414" style="stroke: #A80036; stroke-width: 1.0;"/><!--link ourStuff.SootClassAnalyzer to ourStuff.Filter--><path d="M2522.91,879.174 C2530.53,913.157 2541.07,960.1 2548.96,995.284 " fill="none" id="ourStuff.SootClassAnalyzer-ourStuff.Filter" style="stroke: #A80036; stroke-width: 1.0;"/><polygon fill="#A80036" points="2550.1,1000.387,2552.0362,990.7303,2549.0072,995.5079,2544.2297,992.4788,2550.1,1000.387" style="stroke: #A80036; stroke-width: 1.0;"/><text fill="#000000" font-family="sans-serif" font-size="13" lengthAdjust="spacingAndGlyphs" textLength="5" x="2543.1237" y="989.4845">*</text><!--link ourStuff.AbstractAnalyzer to ourStuff.Filter--><path d="M1312.46,672.163 C1287.83,690.571 1264.79,713.526 1251,741 C1213.92,814.886 1195.22,865.989 1251,927 C1332.14,1015.755 2167.38,1038.014 2459.66,1043.106 " fill="none" id="ourStuff.AbstractAnalyzer-ourStuff.Filter" style="stroke: #A80036; stroke-width: 1.0;"/><polygon fill="#A80036" points="2464.77,1043.194,2455.8399,1039.0403,2459.7707,1043.1083,2455.7027,1047.0391,2464.77,1043.194" style="stroke: #A80036; stroke-width: 1.0;"/><text fill="#000000" font-family="sans-serif" font-size="13" lengthAdjust="spacingAndGlyphs" textLength="5" x="2451.9821" y="1039.9015">*</text><!--link ourStuff.Preprocessor to ourStuff.Filter--><path d="M2047.06,277.6 C2225.47,301.391 2478.27,340.231 2511,373 C2609.32,471.439 2489.44,565.487 2567,681 C2594.63,722.149 2637.18,697.536 2661,741 C2700.73,813.493 2689.74,849.488 2661,927 C2651.4,952.892 2633.26,976.913 2614.97,996.4 " fill="none" id="ourStuff.Preprocessor-ourStuff.Filter" style="stroke: #A80036; stroke-width: 1.0;"/><polygon fill="#A80036" points="2611.31,1000.236,2620.4177,996.4877,2614.7624,996.6192,2614.6309,990.9639,2611.31,1000.236" style="stroke: #A80036; stroke-width: 1.0;"/><text fill="#000000" font-family="sans-serif" font-size="13" lengthAdjust="spacingAndGlyphs" textLength="5" x="2613.784" y="989.6397">*</text><!--link ourStuff.AnalyzerChain to ourStuff.AbstractAnalyzer--><path d="M1418,490.086 C1418,507.411 1418,526.612 1418,544.641 " fill="none" id="ourStuff.AnalyzerChain-ourStuff.AbstractAnalyzer" style="stroke: #A80036; stroke-width: 1.0;"/><polygon fill="#A80036" points="1418,549.693,1422,540.693,1418,544.693,1414,540.693,1418,549.693" style="stroke: #A80036; stroke-width: 1.0;"/><text fill="#000000" font-family="sans-serif" font-size="13" lengthAdjust="spacingAndGlyphs" textLength="5" x="1412.7266" y="539.1338">*</text><!--link ourStuff.Data to soot.SootClass--><path d="M2814.87,681.164 C2848.89,722.781 2891.35,774.716 2916.76,805.796 " fill="none" id="ourStuff.Data-soot.SootClass" style="stroke: #A80036; stroke-width: 1.0;"/><polygon fill="#A80036" points="2920.08,809.854,2917.4815,800.3541,2916.9158,805.9826,2911.2873,805.4169,2920.08,809.854" style="stroke: #A80036; stroke-width: 1.0;"/><text fill="#000000" font-family="sans-serif" font-size="13" lengthAdjust="spacingAndGlyphs" textLength="5" x="2909.5911" y="799.1567">*</text><!--link ourStuff.Data to ourStuff.Relationship--><path d="M2755.14,681.275 C2743.61,754.354 2713.07,870.382 2633,927 C2553.83,982.981 1206.79,1024.606 671.639,1039.006 " fill="none" id="ourStuff.Data-ourStuff.Relationship" style="stroke: #A80036; stroke-width: 1.0;"/><polygon fill="#A80036" points="666.552,1039.143,675.6562,1042.8999,671.5502,1039.0087,675.4413,1034.9027,666.552,1039.143" style="stroke: #A80036; stroke-width: 1.0;"/><text fill="#000000" font-family="sans-serif" font-size="13" lengthAdjust="spacingAndGlyphs" textLength="5" x="674.2445" y="1036.1253">*</text><!--link ourStuff.ImplementationAnalyzer to ourStuff.Relationship--><path d="M237.475,885.714 C277.974,915.277 329.306,952.748 371.933,983.864 " fill="none" id="ourStuff.ImplementationAnalyzer-ourStuff.Relationship" style="stroke: #A80036; stroke-width: 1.0; stroke-dasharray: 7.0,7.0;"/><polygon fill="#A80036" points="376.03,986.855,371.1179,978.3186,371.9911,983.9076,366.402,984.7808,376.03,986.855" style="stroke: #A80036; stroke-width: 1.0;"/><text fill="#000000" font-family="sans-serif" font-size="13" lengthAdjust="spacingAndGlyphs" textLength="5" x="361.1008" y="976.2382">*</text><!--link ourStuff.Preprocessor to ourStuff.ClassCodeGenAnalyzer--><path d="M1865.12,313.224 C1859.54,363.128 1845.99,435.598 1813,490 C1752.1,590.429 1651.94,676.919 1567.72,737.926 " fill="none" id="ourStuff.Preprocessor-ourStuff.ClassCodeGenAnalyzer" style="stroke: #A80036; stroke-width: 1.0; stroke-dasharray: 7.0,7.0;"/><polygon fill="#A80036" points="1563.46,740.994,1573.0983,738.9682,1567.5137,738.0669,1568.4149,732.4823,1563.46,740.994" style="stroke: #A80036; stroke-width: 1.0;"/><!--link ourStuff.Preprocessor to ourStuff.RecursiveAnalyzer--><path d="M1909.4,313.25 C1990.9,429.757 2173.28,690.449 2244.1,791.69 " fill="none" id="ourStuff.Preprocessor-ourStuff.RecursiveAnalyzer" style="stroke: #A80036; stroke-width: 1.0; stroke-dasharray: 7.0,7.0;"/><polygon fill="#A80036" points="2246.98,795.807,2245.1003,786.1392,2244.1146,791.7095,2238.5443,790.7238,2246.98,795.807" style="stroke: #A80036; stroke-width: 1.0;"/><!--link ourStuff.App to ourStuff.Data--><path d="M1948.73,105.56 C2104.68,122.44 2452.82,180.63 2659,373 C2707.83,418.562 2734.51,491.082 2748.39,544.775 " fill="none" id="ourStuff.App-ourStuff.Data" style="stroke: #A80036; stroke-width: 1.0; stroke-dasharray: 7.0,7.0;"/><polygon fill="#A80036" points="2749.7,549.911,2751.3614,540.2033,2748.4692,545.0649,2743.6076,542.1726,2749.7,549.911" style="stroke: #A80036; stroke-width: 1.0;"/><!--link ourStuff.App to ourStuff.Preprocessor--><path d="M1869,136.01 C1869,152.41 1869,172.17 1869,190.76 " fill="none" id="ourStuff.App-ourStuff.Preprocessor" style="stroke: #A80036; stroke-width: 1.0; stroke-dasharray: 7.0,7.0;"/><polygon fill="#A80036" points="1869,195.97,1873,186.97,1869,190.97,1865,186.97,1869,195.97" style="stroke: #A80036; stroke-width: 1.0;"/><!--link ourStuff.Preprocessor to ourStuff.Preprocessor--><path d="M2047.3,229.45 C2068.31,234.04 2082,242.39 2082,254.5 C2082,265.57 2070.56,273.5 2052.55,278.28 " fill="none" id="ourStuff.Preprocessor-ourStuff.Preprocessor" style="stroke: #A80036; stroke-width: 1.0; stroke-dasharray: 7.0,7.0;"/><polygon fill="#A80036" points="2047.3,279.55,2056.987,281.3284,2052.1606,278.3777,2055.1113,273.5514,2047.3,279.55" style="stroke: #A80036; stroke-width: 1.0;"/><!--link ourStuff.Preprocessor to ourStuff.SootClassAnalyzer--><path d="M1933.84,313.113 C1955.24,332.157 1979.16,353.468 2001,373 C2169.02,523.26 2367.42,701.84 2460.2,785.42 " fill="none" id="ourStuff.Preprocessor-ourStuff.SootClassAnalyzer" style="stroke: #A80036; stroke-width: 1.0; stroke-dasharray: 7.0,7.0;"/><polygon fill="#A80036" points="2464,788.841,2460.0053,779.8386,2460.2906,785.4883,2454.641,785.7736,2464,788.841" style="stroke: #A80036; stroke-width: 1.0;"/><!--link ourStuff.Preprocessor to ourStuff.AssociationAnalyzer--><path d="M1690.94,273.64 C1517.53,293.48 1267.79,328.473 1181,373 C978.636,476.824 807.948,699.333 743.029,791.597 " fill="none" id="ourStuff.Preprocessor-ourStuff.AssociationAnalyzer" style="stroke: #A80036; stroke-width: 1.0; stroke-dasharray: 7.0,7.0;"/><polygon fill="#A80036" points="740.018,795.891,748.4614,790.8207,742.8896,791.7979,741.9124,786.2261,740.018,795.891" style="stroke: #A80036; stroke-width: 1.0;"/><!--link ourStuff.Preprocessor to ourStuff.DependencyAnalyzer--><path d="M1869,313.25 C1869,424.605 1869,667.676 1869,777.351 " fill="none" id="ourStuff.Preprocessor-ourStuff.DependencyAnalyzer" style="stroke: #A80036; stroke-width: 1.0; stroke-dasharray: 7.0,7.0;"/><polygon fill="#A80036" points="1869,782.472,1873,773.472,1869,777.472,1865,773.472,1869,782.472" style="stroke: #A80036; stroke-width: 1.0;"/><!--link ourStuff.Preprocessor to ourStuff.InheritenceAnalyzer--><path d="M1690.86,268.05 C1474.7,285.29 1124.35,320.294 1005,373 C786.893,469.315 587.273,679.01 500.57,778.508 " fill="none" id="ourStuff.Preprocessor-ourStuff.InheritenceAnalyzer" style="stroke: #A80036; stroke-width: 1.0; stroke-dasharray: 7.0,7.0;"/><polygon fill="#A80036" points="497.282,782.291,506.2048,778.1216,500.5618,778.517,500.1664,772.874,497.282,782.291" style="stroke: #A80036; stroke-width: 1.0;"/><!--link ourStuff.Preprocessor to ourStuff.PublicFilter--><path d="M1970.16,313.049 C2002.32,331.767 2037.87,352.903 2070,373 C2278.9,503.681 2322.28,550.034 2531,681 C2575.55,708.954 2606.89,695.345 2633,741 C2653.52,776.879 2657.3,893.567 2633,927 C2582.17,996.916 2526.39,950.583 2448,987 C2341.56,1036.448 2228.13,1110.723 2156.25,1160.829 " fill="none" id="ourStuff.Preprocessor-ourStuff.PublicFilter" style="stroke: #A80036; stroke-width: 1.0; stroke-dasharray: 7.0,7.0;"/><polygon fill="#A80036" points="2152,1163.794,2161.6665,1161.9075,2156.0955,1160.9257,2157.0773,1155.3547,2152,1163.794" style="stroke: #A80036; stroke-width: 1.0;"/><!--link ourStuff.Preprocessor to ourStuff.AbstractAnalyzer--><path d="M1690.97,297.84 C1648.37,315.176 1606.23,339.368 1575,373 C1537.89,412.963 1565.88,443.128 1538,490 C1526.23,509.789 1510.74,528.895 1494.82,545.952 " fill="none" id="ourStuff.Preprocessor-ourStuff.AbstractAnalyzer" style="stroke: #A80036; stroke-width: 1.0; stroke-dasharray: 7.0,7.0;"/><polygon fill="#A80036" points="1491.2,549.787,1500.2909,545.9981,1494.6362,546.1549,1494.4795,540.5002,1491.2,549.787" style="stroke: #A80036; stroke-width: 1.0;"/><!--link ourStuff.Preprocessor to ourStuff.AnalyzerChain--><path d="M1704.35,313.092 C1653.61,331.507 1597.75,352.459 1547,373 C1539.75,375.933 1532.31,379.027 1524.83,382.197 " fill="none" id="ourStuff.Preprocessor-ourStuff.AnalyzerChain" style="stroke: #A80036; stroke-width: 1.0; stroke-dasharray: 7.0,7.0;"/><polygon fill="#A80036" points="1520.18,384.18,1530.0276,384.3372,1524.7809,382.2225,1526.8956,376.9758,1520.18,384.18" style="stroke: #A80036; stroke-width: 1.0;"/><!--link ourStuff.InheritenceAnalyzer to ourStuff.Relationship--><path d="M455,885.714 C455,914.562 455,950.939 455,981.594 " fill="none" id="ourStuff.InheritenceAnalyzer-ourStuff.Relationship" style="stroke: #A80036; stroke-width: 1.0; stroke-dasharray: 7.0,7.0;"/><polygon fill="#A80036" points="455,986.855,459,977.855,455,981.855,451,977.855,455,986.855" style="stroke: #A80036; stroke-width: 1.0;"/><text fill="#000000" font-family="sans-serif" font-size="13" lengthAdjust="spacingAndGlyphs" textLength="5" x="449.6953" y="976.2382">*</text><!--link ourStuff.Preprocessor to ourStuff.SequenceDiagramAnalyzer--><path d="M1690.67,276.39 C1547.71,295.99 1361.09,328.896 1299,373 C1164.6,468.473 1084.5,652.151 1047.93,756.196 " fill="none" id="ourStuff.Preprocessor-ourStuff.SequenceDiagramAnalyzer" style="stroke: #A80036; stroke-width: 1.0; stroke-dasharray: 7.0,7.0;"/><polygon fill="#A80036" points="1046.22,761.09,1052.9667,753.9149,1047.8705,756.3703,1045.4151,751.2741,1046.22,761.09" style="stroke: #A80036; stroke-width: 1.0;"/><!--link ourStuff.Preprocessor to ourStuff.ProtectedFilter--><path d="M2047.05,278.84 C2258.06,307.254 2583.85,353.818 2604,373 C2705.34,469.45 2610.55,553.892 2669,681 C2683.04,711.528 2703.2,709.536 2715,741 C2768.56,883.878 2760.32,1067.916 2751.67,1158.729 " fill="none" id="ourStuff.Preprocessor-ourStuff.ProtectedFilter" style="stroke: #A80036; stroke-width: 1.0; stroke-dasharray: 7.0,7.0;"/><polygon fill="#A80036" points="2751.18,1163.779,2756.0337,1155.2092,2751.6648,1158.8026,2748.0714,1154.4336,2751.18,1163.779" style="stroke: #A80036; stroke-width: 1.0;"/><!--link ourStuff.Preprocessor to ourStuff.ImplementationAnalyzer--><path d="M1690.83,264.17 C1431.11,278.67 962.326,312.393 805,373 C560.632,467.137 324.551,678.767 221.748,778.737 " fill="none" id="ourStuff.Preprocessor-ourStuff.ImplementationAnalyzer" style="stroke: #A80036; stroke-width: 1.0; stroke-dasharray: 7.0,7.0;"/><polygon fill="#A80036" points="218.148,782.246,227.3853,778.8296,221.7289,778.7565,221.8021,773.1001,218.148,782.246" style="stroke: #A80036; stroke-width: 1.0;"/><!--link ourStuff.Preprocessor to ourStuff.PrivateFilter--><path d="M2047.01,274.93 C2242.29,297.85 2533.23,337.348 2571,373 C2673.08,469.362 2574.2,557.535 2641,681 C2658.65,713.62 2685.1,706.615 2699,741 C2729.99,817.639 2700.17,844.342 2699,927 C2697.89,1005.69 2732.51,1035.368 2694,1104 C2684.89,1120.232 2654.3,1141.91 2621.53,1161.764 " fill="none" id="ourStuff.Preprocessor-ourStuff.PrivateFilter" style="stroke: #A80036; stroke-width: 1.0; stroke-dasharray: 7.0,7.0;"/><polygon fill="#A80036" points="2617.1,1164.427,2626.8723,1163.2011,2621.3808,1161.8434,2622.7385,1156.3519,2617.1,1164.427" style="stroke: #A80036; stroke-width: 1.0;"/><!--link ourStuff.App to ourStuff.AnalyzerChain--><path d="M1789.32,132.47 C1752.84,149.32 1709.85,171.39 1674,196 C1599.76,246.97 1524.97,318.322 1475.57,368.904 " fill="none" id="ourStuff.App-ourStuff.AnalyzerChain" style="stroke: #A80036; stroke-width: 1.0; stroke-dasharray: 7.0,7.0;"/><polygon fill="#A80036" points="1472.06,372.51,1481.2037,368.8505,1475.5474,368.927,1475.4709,363.2706,1472.06,372.51" style="stroke: #A80036; stroke-width: 1.0;"/><!--link ourStuff.Preprocessor to ourStuff.JDKFilter--><path d="M2047.26,276.3 C2233.9,299.699 2504.81,338.898 2540,373 C2640.41,470.292 2529.73,562.542 2604,681 C2627.23,718.056 2662.68,701.762 2682,741 C2718.52,815.163 2684.1,844.36 2682,927 C2680,1005.743 2723.56,1043.602 2673,1104 C2597.15,1194.603 2525.89,1126.013 2414,1164 C2409.66,1165.475 2405.25,1167.061 2400.83,1168.73 " fill="none" id="ourStuff.Preprocessor-ourStuff.JDKFilter" style="stroke: #A80036; stroke-width: 1.0; stroke-dasharray: 7.0,7.0;"/><polygon fill="#A80036" points="2396.03,1170.573,2405.8651,1171.0937,2400.7,1168.7867,2403.007,1163.6217,2396.03,1170.573" style="stroke: #A80036; stroke-width: 1.0;"/></g></svg>