<?xml version="1.0" encoding="UTF-8" standalone="no"?><svg xmlns="http://www.w3.org/2000/svg" xmlns:xlink="http://www.w3.org/1999/xlink" contentScriptType="application/ecmascript" contentStyleType="text/css" height="1843px" preserveAspectRatio="none" style="width:420px;height:1843px;" version="1.1" viewBox="0 0 420 1843" width="420px" zoomAndPan="magnify"><defs><filter height="300%" id="f1whse8i6ftdkz" width="300%" x="-1" y="-1"><feGaussianBlur result="blurOut" stdDeviation="2.0"/><feColorMatrix in="blurOut" result="blurOut2" type="matrix" values="0 0 0 0 0 0 0 0 0 0 0 0 0 0 0 0 0 0 .4 0"/><feOffset dx="4.0" dy="4.0" in="blurOut2" result="blurOut3"/><feBlend in="SourceGraphic" in2="blurOut3" mode="normal"/></filter></defs><g><!--cluster javax.swing--><polygon fill="#FFFFFF" filter="url(#f1whse8i6ftdkz)" points="22,24,110,24,117,47.6094,380,47.6094,380,705,22,705,22,24" style="stroke: #000000; stroke-width: 1.5;"/><line style="stroke: #000000; stroke-width: 1.5;" x1="22" x2="117" y1="47.6094" y2="47.6094"/><text fill="#000000" font-family="sans-serif" font-size="14" font-weight="bold" lengthAdjust="spacingAndGlyphs" textLength="82" x="26" y="40.5332">javax.swing</text><!--cluster java.awt--><polygon fill="#FFFFFF" filter="url(#f1whse8i6ftdkz)" points="22,729,85,729,92,752.6094,398,752.6094,398,1825,22,1825,22,729" style="stroke: #000000; stroke-width: 1.5;"/><line style="stroke: #000000; stroke-width: 1.5;" x1="22" x2="92" y1="752.6094" y2="752.6094"/><text fill="#000000" font-family="sans-serif" font-size="14" font-weight="bold" lengthAdjust="spacingAndGlyphs" textLength="57" x="26" y="745.5332">java.awt</text><!--class javax.swing.JFrame--><rect fill="#FEFECE" filter="url(#f1whse8i6ftdkz)" height="629.1094" id="javax.swing.JFrame" style="stroke: #A80036; stroke-width: 1.5;" width="325" x="38.5" y="60"/><ellipse cx="175.75" cy="76" fill="#ADD1B2" rx="11" ry="11" style="stroke: #A80036; stroke-width: 1.0;"/><path d="M178.5156,71.875 Q178.6719,71.6563 178.8594,71.5469 Q179.0469,71.4375 179.2656,71.4375 Q179.6406,71.4375 179.875,71.6953 Q180.1094,71.9531 180.1094,72.5625 L180.1094,74.0156 Q180.1094,74.625 179.875,74.8906 Q179.6406,75.1563 179.2656,75.1563 Q178.9219,75.1563 178.7188,74.9531 Q178.5156,74.7656 178.4063,74.25 Q178.3594,73.8906 178.1719,73.7031 Q177.8438,73.3281 177.2344,73.1094 Q176.625,72.8906 176,72.8906 Q175.2344,72.8906 174.6016,73.2188 Q173.9688,73.5469 173.4766,74.2969 Q172.9844,75.0469 172.9844,76.0781 L172.9844,77.1719 Q172.9844,78.4063 173.875,79.2266 Q174.7656,80.0469 176.3594,80.0469 Q177.2969,80.0469 177.9531,79.7969 Q178.3438,79.6406 178.7656,79.2031 Q179.0313,78.9375 179.1797,78.8594 Q179.3281,78.7813 179.5313,78.7813 Q179.8594,78.7813 180.1172,79.0391 Q180.375,79.2969 180.375,79.6406 Q180.375,79.9844 180.0313,80.3906 Q179.5313,80.9688 178.7344,81.2969 Q177.6563,81.75 176.3594,81.75 Q174.8438,81.75 173.6406,81.125 Q172.6563,80.625 171.9688,79.5547 Q171.2813,78.4844 171.2813,77.2031 L171.2813,76.0469 Q171.2813,74.7188 171.8984,73.5703 Q172.5156,72.4219 173.6094,71.8047 Q174.7031,71.1875 175.9375,71.1875 Q176.6719,71.1875 177.3203,71.3516 Q177.9688,71.5156 178.5156,71.875 Z "/><text fill="#000000" font-family="sans-serif" font-size="12" lengthAdjust="spacingAndGlyphs" textLength="42" x="196.25" y="80.9102">JFrame</text><line style="stroke: #A80036; stroke-width: 1.5;" x1="39.5" x2="362.5" y1="92" y2="92"/><ellipse cx="49.5" cy="104.418" fill="none" rx="3" ry="3" style="stroke: #038048; stroke-width: 1.0;"/><text fill="#000000" font-family="sans-serif" font-size="11" lengthAdjust="spacingAndGlyphs" text-decoration="underline" textLength="96" x="58.5" y="107.4189">int EXIT_ON_CLOSE</text><line style="stroke: #000000; stroke-width: 1.0;" x1="58.5" x2="154.5" y1="109.4189" y2="109.4189"/><rect fill="none" height="6" style="stroke: #C82930; stroke-width: 1.0;" width="6" x="46.5" y="115.2539"/><text fill="#000000" font-family="sans-serif" font-size="11" lengthAdjust="spacingAndGlyphs" text-decoration="underline" textLength="245" x="58.5" y="121.2549">java.lang.Object defaultLookAndFeelDecoratedKey</text><line style="stroke: #000000; stroke-width: 1.0;" x1="58.5" x2="303.5" y1="123.2549" y2="123.2549"/><rect fill="none" height="6" style="stroke: #C82930; stroke-width: 1.0;" width="6" x="46.5" y="129.0898"/><text fill="#000000" font-family="sans-serif" font-size="11" lengthAdjust="spacingAndGlyphs" textLength="121" x="58.5" y="135.0908">int defaultCloseOperation</text><rect fill="none" height="6" style="stroke: #C82930; stroke-width: 1.0;" width="6" x="46.5" y="142.9258"/><text fill="#000000" font-family="sans-serif" font-size="11" lengthAdjust="spacingAndGlyphs" textLength="220" x="58.5" y="148.9268">javax.swing.TransferHandler transferHandler</text><polygon fill="none" points="49.5,154.7617,53.5,158.7617,49.5,162.7617,45.5,158.7617" style="stroke: #B38D22; stroke-width: 1.0;"/><text fill="#000000" font-family="sans-serif" font-size="11" lengthAdjust="spacingAndGlyphs" textLength="159" x="58.5" y="162.7627">javax.swing.JRootPane rootPane</text><polygon fill="none" points="49.5,168.5977,53.5,172.5977,49.5,176.5977,45.5,172.5977" style="stroke: #B38D22; stroke-width: 1.0;"/><text fill="#000000" font-family="sans-serif" font-size="11" lengthAdjust="spacingAndGlyphs" textLength="166" x="58.5" y="176.5986">boolean rootPaneCheckingEnabled</text><polygon fill="none" points="49.5,182.4336,53.5,186.4336,49.5,190.4336,45.5,186.4336" style="stroke: #B38D22; stroke-width: 1.0;"/><text fill="#000000" font-family="sans-serif" font-size="11" lengthAdjust="spacingAndGlyphs" textLength="274" x="58.5" y="190.4346">javax.accessibility.AccessibleContext accessibleContext</text><line style="stroke: #A80036; stroke-width: 1.5;" x1="39.5" x2="362.5" y1="196.8516" y2="196.8516"/><ellipse cx="49.5" cy="209.2695" fill="#84BE84" rx="3" ry="3" style="stroke: #038048; stroke-width: 1.0;"/><text fill="#000000" font-family="sans-serif" font-size="11" lengthAdjust="spacingAndGlyphs" textLength="56" x="58.5" y="212.2705">void &lt;init&gt;()</text><ellipse cx="49.5" cy="223.1055" fill="#84BE84" rx="3" ry="3" style="stroke: #038048; stroke-width: 1.0;"/><text fill="#000000" font-family="sans-serif" font-size="11" lengthAdjust="spacingAndGlyphs" textLength="209" x="58.5" y="226.1064">void &lt;init&gt;(java.awt.GraphicsConfiguration)</text><ellipse cx="49.5" cy="236.9414" fill="#84BE84" rx="3" ry="3" style="stroke: #038048; stroke-width: 1.0;"/><text fill="#000000" font-family="sans-serif" font-size="11" lengthAdjust="spacingAndGlyphs" textLength="130" x="58.5" y="239.9424">void &lt;init&gt;(java.lang.String)</text><ellipse cx="49.5" cy="250.7773" fill="#84BE84" rx="3" ry="3" style="stroke: #038048; stroke-width: 1.0;"/><text fill="#000000" font-family="sans-serif" font-size="11" lengthAdjust="spacingAndGlyphs" textLength="286" x="58.5" y="253.7783">void &lt;init&gt;(java.lang.String,java.awt.GraphicsConfiguration)</text><polygon fill="#FFFF44" points="49.5,259.6133,53.5,263.6133,49.5,267.6133,45.5,263.6133" style="stroke: #B38D22; stroke-width: 1.0;"/><text fill="#000000" font-family="sans-serif" font-size="11" lengthAdjust="spacingAndGlyphs" textLength="72" x="58.5" y="267.6143">void frameInit()</text><polygon fill="#FFFF44" points="49.5,273.4492,53.5,277.4492,49.5,281.4492,45.5,277.4492" style="stroke: #B38D22; stroke-width: 1.0;"/><text fill="#000000" font-family="sans-serif" font-size="11" lengthAdjust="spacingAndGlyphs" textLength="201" x="58.5" y="281.4502">javax.swing.JRootPane createRootPane()</text><polygon fill="#FFFF44" points="49.5,287.2852,53.5,291.2852,49.5,295.2852,45.5,291.2852" style="stroke: #B38D22; stroke-width: 1.0;"/><text fill="#000000" font-family="sans-serif" font-size="11" lengthAdjust="spacingAndGlyphs" textLength="280" x="58.5" y="295.2861">void processWindowEvent(java.awt.event.WindowEvent)</text><ellipse cx="49.5" cy="306.1211" fill="#84BE84" rx="3" ry="3" style="stroke: #038048; stroke-width: 1.0;"/><text fill="#000000" font-family="sans-serif" font-size="11" lengthAdjust="spacingAndGlyphs" textLength="165" x="58.5" y="309.1221">void setDefaultCloseOperation(int)</text><ellipse cx="49.5" cy="319.957" fill="#84BE84" rx="3" ry="3" style="stroke: #038048; stroke-width: 1.0;"/><text fill="#000000" font-family="sans-serif" font-size="11" lengthAdjust="spacingAndGlyphs" textLength="145" x="58.5" y="322.958">int getDefaultCloseOperation()</text><ellipse cx="49.5" cy="333.793" fill="#84BE84" rx="3" ry="3" style="stroke: #038048; stroke-width: 1.0;"/><text fill="#000000" font-family="sans-serif" font-size="11" lengthAdjust="spacingAndGlyphs" textLength="266" x="58.5" y="336.7939">void setTransferHandler(javax.swing.TransferHandler)</text><ellipse cx="49.5" cy="347.6289" fill="#84BE84" rx="3" ry="3" style="stroke: #038048; stroke-width: 1.0;"/><text fill="#000000" font-family="sans-serif" font-size="11" lengthAdjust="spacingAndGlyphs" textLength="246" x="58.5" y="350.6299">javax.swing.TransferHandler getTransferHandler()</text><ellipse cx="49.5" cy="361.4648" fill="#84BE84" rx="3" ry="3" style="stroke: #038048; stroke-width: 1.0;"/><text fill="#000000" font-family="sans-serif" font-size="11" lengthAdjust="spacingAndGlyphs" textLength="153" x="58.5" y="364.4658">void update(java.awt.Graphics)</text><ellipse cx="49.5" cy="375.3008" fill="#84BE84" rx="3" ry="3" style="stroke: #038048; stroke-width: 1.0;"/><text fill="#000000" font-family="sans-serif" font-size="11" lengthAdjust="spacingAndGlyphs" textLength="204" x="58.5" y="378.3018">void setJMenuBar(javax.swing.JMenuBar)</text><ellipse cx="49.5" cy="389.1367" fill="#84BE84" rx="3" ry="3" style="stroke: #038048; stroke-width: 1.0;"/><text fill="#000000" font-family="sans-serif" font-size="11" lengthAdjust="spacingAndGlyphs" textLength="184" x="58.5" y="392.1377">javax.swing.JMenuBar getJMenuBar()</text><polygon fill="#FFFF44" points="49.5,397.9727,53.5,401.9727,49.5,405.9727,45.5,401.9727" style="stroke: #B38D22; stroke-width: 1.0;"/><text fill="#000000" font-family="sans-serif" font-size="11" lengthAdjust="spacingAndGlyphs" textLength="185" x="58.5" y="405.9736">boolean isRootPaneCheckingEnabled()</text><polygon fill="#FFFF44" points="49.5,411.8086,53.5,415.8086,49.5,419.8086,45.5,415.8086" style="stroke: #B38D22; stroke-width: 1.0;"/><text fill="#000000" font-family="sans-serif" font-size="11" lengthAdjust="spacingAndGlyphs" textLength="212" x="58.5" y="419.8096">void setRootPaneCheckingEnabled(boolean)</text><polygon fill="#FFFF44" points="49.5,425.6445,53.5,429.6445,49.5,433.6445,45.5,429.6445" style="stroke: #B38D22; stroke-width: 1.0;"/><text fill="#000000" font-family="sans-serif" font-size="11" lengthAdjust="spacingAndGlyphs" textLength="260" x="58.5" y="433.6455">void addImpl(java.awt.Component,java.lang.Object,int)</text><ellipse cx="49.5" cy="444.4805" fill="#84BE84" rx="3" ry="3" style="stroke: #038048; stroke-width: 1.0;"/><text fill="#000000" font-family="sans-serif" font-size="11" lengthAdjust="spacingAndGlyphs" textLength="166" x="58.5" y="447.4814">void remove(java.awt.Component)</text><ellipse cx="49.5" cy="458.3164" fill="#84BE84" rx="3" ry="3" style="stroke: #038048; stroke-width: 1.0;"/><text fill="#000000" font-family="sans-serif" font-size="11" lengthAdjust="spacingAndGlyphs" textLength="199" x="58.5" y="461.3174">void setLayout(java.awt.LayoutManager)</text><ellipse cx="49.5" cy="472.1523" fill="#84BE84" rx="3" ry="3" style="stroke: #038048; stroke-width: 1.0;"/><text fill="#000000" font-family="sans-serif" font-size="11" lengthAdjust="spacingAndGlyphs" textLength="185" x="58.5" y="475.1533">javax.swing.JRootPane getRootPane()</text><polygon fill="#FFFF44" points="49.5,480.9883,53.5,484.9883,49.5,488.9883,45.5,484.9883" style="stroke: #B38D22; stroke-width: 1.0;"/><text fill="#000000" font-family="sans-serif" font-size="11" lengthAdjust="spacingAndGlyphs" textLength="205" x="58.5" y="488.9893">void setRootPane(javax.swing.JRootPane)</text><ellipse cx="49.5" cy="499.8242" fill="#84BE84" rx="3" ry="3" style="stroke: #038048; stroke-width: 1.0;"/><text fill="#000000" font-family="sans-serif" font-size="11" lengthAdjust="spacingAndGlyphs" textLength="167" x="58.5" y="502.8252">void setIconImage(java.awt.Image)</text><ellipse cx="49.5" cy="513.6602" fill="#84BE84" rx="3" ry="3" style="stroke: #038048; stroke-width: 1.0;"/><text fill="#000000" font-family="sans-serif" font-size="11" lengthAdjust="spacingAndGlyphs" textLength="178" x="58.5" y="516.6611">java.awt.Container getContentPane()</text><ellipse cx="49.5" cy="527.4961" fill="#84BE84" rx="3" ry="3" style="stroke: #038048; stroke-width: 1.0;"/><text fill="#000000" font-family="sans-serif" font-size="11" lengthAdjust="spacingAndGlyphs" textLength="198" x="58.5" y="530.4971">void setContentPane(java.awt.Container)</text><ellipse cx="49.5" cy="541.332" fill="#84BE84" rx="3" ry="3" style="stroke: #038048; stroke-width: 1.0;"/><text fill="#000000" font-family="sans-serif" font-size="11" lengthAdjust="spacingAndGlyphs" textLength="221" x="58.5" y="544.333">javax.swing.JLayeredPane getLayeredPane()</text><ellipse cx="49.5" cy="555.168" fill="#84BE84" rx="3" ry="3" style="stroke: #038048; stroke-width: 1.0;"/><text fill="#000000" font-family="sans-serif" font-size="11" lengthAdjust="spacingAndGlyphs" textLength="241" x="58.5" y="558.1689">void setLayeredPane(javax.swing.JLayeredPane)</text><ellipse cx="49.5" cy="569.0039" fill="#84BE84" rx="3" ry="3" style="stroke: #038048; stroke-width: 1.0;"/><text fill="#000000" font-family="sans-serif" font-size="11" lengthAdjust="spacingAndGlyphs" textLength="177" x="58.5" y="572.0049">java.awt.Component getGlassPane()</text><ellipse cx="49.5" cy="582.8398" fill="#84BE84" rx="3" ry="3" style="stroke: #038048; stroke-width: 1.0;"/><text fill="#000000" font-family="sans-serif" font-size="11" lengthAdjust="spacingAndGlyphs" textLength="197" x="58.5" y="585.8408">void setGlassPane(java.awt.Component)</text><ellipse cx="49.5" cy="596.6758" fill="#84BE84" rx="3" ry="3" style="stroke: #038048; stroke-width: 1.0;"/><text fill="#000000" font-family="sans-serif" font-size="11" lengthAdjust="spacingAndGlyphs" textLength="159" x="58.5" y="599.6768">java.awt.Graphics getGraphics()</text><ellipse cx="49.5" cy="610.5117" fill="#84BE84" rx="3" ry="3" style="stroke: #038048; stroke-width: 1.0;"/><text fill="#000000" font-family="sans-serif" font-size="11" lengthAdjust="spacingAndGlyphs" textLength="140" x="58.5" y="613.5127">void repaint(long,int,int,int,int)</text><ellipse cx="49.5" cy="624.3477" fill="#84BE84" rx="3" ry="3" style="stroke: #038048; stroke-width: 1.0;"/><text fill="#000000" font-family="sans-serif" font-size="11" lengthAdjust="spacingAndGlyphs" text-decoration="underline" textLength="231" x="58.5" y="627.3486">void setDefaultLookAndFeelDecorated(boolean)</text><line style="stroke: #000000; stroke-width: 1.0;" x1="58.5" x2="289.5" y1="629.3486" y2="629.3486"/><ellipse cx="49.5" cy="638.1836" fill="#84BE84" rx="3" ry="3" style="stroke: #038048; stroke-width: 1.0;"/><text fill="#000000" font-family="sans-serif" font-size="11" lengthAdjust="spacingAndGlyphs" text-decoration="underline" textLength="204" x="58.5" y="641.1846">boolean isDefaultLookAndFeelDecorated()</text><line style="stroke: #000000; stroke-width: 1.0;" x1="58.5" x2="262.5" y1="643.1846" y2="643.1846"/><polygon fill="#FFFF44" points="49.5,647.0195,53.5,651.0195,49.5,655.0195,45.5,651.0195" style="stroke: #B38D22; stroke-width: 1.0;"/><text fill="#000000" font-family="sans-serif" font-size="11" lengthAdjust="spacingAndGlyphs" textLength="143" x="58.5" y="655.0205">java.lang.String paramString()</text><ellipse cx="49.5" cy="665.8555" fill="#84BE84" rx="3" ry="3" style="stroke: #038048; stroke-width: 1.0;"/><text fill="#000000" font-family="sans-serif" font-size="11" lengthAdjust="spacingAndGlyphs" textLength="299" x="58.5" y="668.8564">javax.accessibility.AccessibleContext getAccessibleContext()</text><rect fill="#F24D5C" height="6" style="stroke: #C82930; stroke-width: 1.0;" width="6" x="46.5" y="676.6914"/><text fill="#000000" font-family="sans-serif" font-size="11" lengthAdjust="spacingAndGlyphs" text-decoration="underline" textLength="64" x="58.5" y="682.6924">void &lt;clinit&gt;()</text><line style="stroke: #000000; stroke-width: 1.0;" x1="58.5" x2="122.5" y1="684.6924" y2="684.6924"/><!--class java.awt.Frame--><rect fill="#FEFECE" filter="url(#f1whse8i6ftdkz)" height="1044.1875" id="java.awt.Frame" style="stroke: #A80036; stroke-width: 1.5;" width="325" x="38.5" y="765"/><ellipse cx="178.75" cy="781" fill="#ADD1B2" rx="11" ry="11" style="stroke: #A80036; stroke-width: 1.0;"/><path d="M181.5156,776.875 Q181.6719,776.6563 181.8594,776.5469 Q182.0469,776.4375 182.2656,776.4375 Q182.6406,776.4375 182.875,776.6953 Q183.1094,776.9531 183.1094,777.5625 L183.1094,779.0156 Q183.1094,779.625 182.875,779.8906 Q182.6406,780.1563 182.2656,780.1563 Q181.9219,780.1563 181.7188,779.9531 Q181.5156,779.7656 181.4063,779.25 Q181.3594,778.8906 181.1719,778.7031 Q180.8438,778.3281 180.2344,778.1094 Q179.625,777.8906 179,777.8906 Q178.2344,777.8906 177.6016,778.2188 Q176.9688,778.5469 176.4766,779.2969 Q175.9844,780.0469 175.9844,781.0781 L175.9844,782.1719 Q175.9844,783.4063 176.875,784.2266 Q177.7656,785.0469 179.3594,785.0469 Q180.2969,785.0469 180.9531,784.7969 Q181.3438,784.6406 181.7656,784.2031 Q182.0313,783.9375 182.1797,783.8594 Q182.3281,783.7813 182.5313,783.7813 Q182.8594,783.7813 183.1172,784.0391 Q183.375,784.2969 183.375,784.6406 Q183.375,784.9844 183.0313,785.3906 Q182.5313,785.9688 181.7344,786.2969 Q180.6563,786.75 179.3594,786.75 Q177.8438,786.75 176.6406,786.125 Q175.6563,785.625 174.9688,784.5547 Q174.2813,783.4844 174.2813,782.2031 L174.2813,781.0469 Q174.2813,779.7188 174.8984,778.5703 Q175.5156,777.4219 176.6094,776.8047 Q177.7031,776.1875 178.9375,776.1875 Q179.6719,776.1875 180.3203,776.3516 Q180.9688,776.5156 181.5156,776.875 Z "/><text fill="#000000" font-family="sans-serif" font-size="12" lengthAdjust="spacingAndGlyphs" textLength="36" x="199.25" y="785.9102">Frame</text><line style="stroke: #A80036; stroke-width: 1.5;" x1="39.5" x2="362.5" y1="797" y2="797"/><ellipse cx="49.5" cy="809.418" fill="none" rx="3" ry="3" style="stroke: #038048; stroke-width: 1.0;"/><text fill="#000000" font-family="sans-serif" font-size="11" lengthAdjust="spacingAndGlyphs" text-decoration="underline" textLength="109" x="58.5" y="812.4189">int DEFAULT_CURSOR</text><line style="stroke: #000000; stroke-width: 1.0;" x1="58.5" x2="167.5" y1="814.4189" y2="814.4189"/><ellipse cx="49.5" cy="823.2539" fill="none" rx="3" ry="3" style="stroke: #038048; stroke-width: 1.0;"/><text fill="#000000" font-family="sans-serif" font-size="11" lengthAdjust="spacingAndGlyphs" text-decoration="underline" textLength="123" x="58.5" y="826.2549">int CROSSHAIR_CURSOR</text><line style="stroke: #000000; stroke-width: 1.0;" x1="58.5" x2="181.5" y1="828.2549" y2="828.2549"/><ellipse cx="49.5" cy="837.0898" fill="none" rx="3" ry="3" style="stroke: #038048; stroke-width: 1.0;"/><text fill="#000000" font-family="sans-serif" font-size="11" lengthAdjust="spacingAndGlyphs" text-decoration="underline" textLength="88" x="58.5" y="840.0908">int TEXT_CURSOR</text><line style="stroke: #000000; stroke-width: 1.0;" x1="58.5" x2="146.5" y1="842.0908" y2="842.0908"/><ellipse cx="49.5" cy="850.9258" fill="none" rx="3" ry="3" style="stroke: #038048; stroke-width: 1.0;"/><text fill="#000000" font-family="sans-serif" font-size="11" lengthAdjust="spacingAndGlyphs" text-decoration="underline" textLength="89" x="58.5" y="853.9268">int WAIT_CURSOR</text><line style="stroke: #000000; stroke-width: 1.0;" x1="58.5" x2="147.5" y1="855.9268" y2="855.9268"/><ellipse cx="49.5" cy="864.7617" fill="none" rx="3" ry="3" style="stroke: #038048; stroke-width: 1.0;"/><text fill="#000000" font-family="sans-serif" font-size="11" lengthAdjust="spacingAndGlyphs" text-decoration="underline" textLength="121" x="58.5" y="867.7627">int SW_RESIZE_CURSOR</text><line style="stroke: #000000; stroke-width: 1.0;" x1="58.5" x2="179.5" y1="869.7627" y2="869.7627"/><ellipse cx="49.5" cy="878.5977" fill="none" rx="3" ry="3" style="stroke: #038048; stroke-width: 1.0;"/><text fill="#000000" font-family="sans-serif" font-size="11" lengthAdjust="spacingAndGlyphs" text-decoration="underline" textLength="117" x="58.5" y="881.5986">int SE_RESIZE_CURSOR</text><line style="stroke: #000000; stroke-width: 1.0;" x1="58.5" x2="175.5" y1="883.5986" y2="883.5986"/><ellipse cx="49.5" cy="892.4336" fill="none" rx="3" ry="3" style="stroke: #038048; stroke-width: 1.0;"/><text fill="#000000" font-family="sans-serif" font-size="11" lengthAdjust="spacingAndGlyphs" text-decoration="underline" textLength="121" x="58.5" y="895.4346">int NW_RESIZE_CURSOR</text><line style="stroke: #000000; stroke-width: 1.0;" x1="58.5" x2="179.5" y1="897.4346" y2="897.4346"/><ellipse cx="49.5" cy="906.2695" fill="none" rx="3" ry="3" style="stroke: #038048; stroke-width: 1.0;"/><text fill="#000000" font-family="sans-serif" font-size="11" lengthAdjust="spacingAndGlyphs" text-decoration="underline" textLength="117" x="58.5" y="909.2705">int NE_RESIZE_CURSOR</text><line style="stroke: #000000; stroke-width: 1.0;" x1="58.5" x2="175.5" y1="911.2705" y2="911.2705"/><ellipse cx="49.5" cy="920.1055" fill="none" rx="3" ry="3" style="stroke: #038048; stroke-width: 1.0;"/><text fill="#000000" font-family="sans-serif" font-size="11" lengthAdjust="spacingAndGlyphs" text-decoration="underline" textLength="111" x="58.5" y="923.1064">int N_RESIZE_CURSOR</text><line style="stroke: #000000; stroke-width: 1.0;" x1="58.5" x2="169.5" y1="925.1064" y2="925.1064"/><ellipse cx="49.5" cy="933.9414" fill="none" rx="3" ry="3" style="stroke: #038048; stroke-width: 1.0;"/><text fill="#000000" font-family="sans-serif" font-size="11" lengthAdjust="spacingAndGlyphs" text-decoration="underline" textLength="111" x="58.5" y="936.9424">int S_RESIZE_CURSOR</text><line style="stroke: #000000; stroke-width: 1.0;" x1="58.5" x2="169.5" y1="938.9424" y2="938.9424"/><ellipse cx="49.5" cy="947.7773" fill="none" rx="3" ry="3" style="stroke: #038048; stroke-width: 1.0;"/><text fill="#000000" font-family="sans-serif" font-size="11" lengthAdjust="spacingAndGlyphs" text-decoration="underline" textLength="114" x="58.5" y="950.7783">int W_RESIZE_CURSOR</text><line style="stroke: #000000; stroke-width: 1.0;" x1="58.5" x2="172.5" y1="952.7783" y2="952.7783"/><ellipse cx="49.5" cy="961.6133" fill="none" rx="3" ry="3" style="stroke: #038048; stroke-width: 1.0;"/><text fill="#000000" font-family="sans-serif" font-size="11" lengthAdjust="spacingAndGlyphs" text-decoration="underline" textLength="110" x="58.5" y="964.6143">int E_RESIZE_CURSOR</text><line style="stroke: #000000; stroke-width: 1.0;" x1="58.5" x2="168.5" y1="966.6143" y2="966.6143"/><ellipse cx="49.5" cy="975.4492" fill="none" rx="3" ry="3" style="stroke: #038048; stroke-width: 1.0;"/><text fill="#000000" font-family="sans-serif" font-size="11" lengthAdjust="spacingAndGlyphs" text-decoration="underline" textLength="92" x="58.5" y="978.4502">int HAND_CURSOR</text><line style="stroke: #000000; stroke-width: 1.0;" x1="58.5" x2="150.5" y1="980.4502" y2="980.4502"/><ellipse cx="49.5" cy="989.2852" fill="none" rx="3" ry="3" style="stroke: #038048; stroke-width: 1.0;"/><text fill="#000000" font-family="sans-serif" font-size="11" lengthAdjust="spacingAndGlyphs" text-decoration="underline" textLength="93" x="58.5" y="992.2861">int MOVE_CURSOR</text><line style="stroke: #000000; stroke-width: 1.0;" x1="58.5" x2="151.5" y1="994.2861" y2="994.2861"/><ellipse cx="49.5" cy="1003.1211" fill="none" rx="3" ry="3" style="stroke: #038048; stroke-width: 1.0;"/><text fill="#000000" font-family="sans-serif" font-size="11" lengthAdjust="spacingAndGlyphs" text-decoration="underline" textLength="58" x="58.5" y="1006.1221">int NORMAL</text><line style="stroke: #000000; stroke-width: 1.0;" x1="58.5" x2="116.5" y1="1008.1221" y2="1008.1221"/><ellipse cx="49.5" cy="1016.957" fill="none" rx="3" ry="3" style="stroke: #038048; stroke-width: 1.0;"/><text fill="#000000" font-family="sans-serif" font-size="11" lengthAdjust="spacingAndGlyphs" text-decoration="underline" textLength="61" x="58.5" y="1019.958">int ICONIFIED</text><line style="stroke: #000000; stroke-width: 1.0;" x1="58.5" x2="119.5" y1="1021.958" y2="1021.958"/><ellipse cx="49.5" cy="1030.793" fill="none" rx="3" ry="3" style="stroke: #038048; stroke-width: 1.0;"/><text fill="#000000" font-family="sans-serif" font-size="11" lengthAdjust="spacingAndGlyphs" text-decoration="underline" textLength="106" x="58.5" y="1033.7939">int MAXIMIZED_HORIZ</text><line style="stroke: #000000; stroke-width: 1.0;" x1="58.5" x2="164.5" y1="1035.7939" y2="1035.7939"/><ellipse cx="49.5" cy="1044.6289" fill="none" rx="3" ry="3" style="stroke: #038048; stroke-width: 1.0;"/><text fill="#000000" font-family="sans-serif" font-size="11" lengthAdjust="spacingAndGlyphs" text-decoration="underline" textLength="102" x="58.5" y="1047.6299">int MAXIMIZED_VERT</text><line style="stroke: #000000; stroke-width: 1.0;" x1="58.5" x2="160.5" y1="1049.6299" y2="1049.6299"/><ellipse cx="49.5" cy="1058.4648" fill="none" rx="3" ry="3" style="stroke: #038048; stroke-width: 1.0;"/><text fill="#000000" font-family="sans-serif" font-size="11" lengthAdjust="spacingAndGlyphs" text-decoration="underline" textLength="103" x="58.5" y="1061.4658">int MAXIMIZED_BOTH</text><line style="stroke: #000000; stroke-width: 1.0;" x1="58.5" x2="161.5" y1="1063.4658" y2="1063.4658"/><rect fill="none" height="6" style="stroke: #C82930; stroke-width: 1.0;" width="6" x="46.5" y="1069.3008"/><text fill="#000000" font-family="sans-serif" font-size="11" lengthAdjust="spacingAndGlyphs" textLength="183" x="58.5" y="1075.3018">java.awt.Rectangle maximizedBounds</text><rect fill="none" height="6" style="stroke: #C82930; stroke-width: 1.0;" width="6" x="46.5" y="1083.1367"/><text fill="#000000" font-family="sans-serif" font-size="11" lengthAdjust="spacingAndGlyphs" textLength="93" x="58.5" y="1089.1377">java.lang.String title</text><rect fill="none" height="6" style="stroke: #C82930; stroke-width: 1.0;" width="6" x="46.5" y="1096.9727"/><text fill="#000000" font-family="sans-serif" font-size="11" lengthAdjust="spacingAndGlyphs" textLength="134" x="58.5" y="1102.9736">java.awt.MenuBar menuBar</text><rect fill="none" height="6" style="stroke: #C82930; stroke-width: 1.0;" width="6" x="46.5" y="1110.8086"/><text fill="#000000" font-family="sans-serif" font-size="11" lengthAdjust="spacingAndGlyphs" textLength="85" x="58.5" y="1116.8096">boolean resizable</text><rect fill="none" height="6" style="stroke: #C82930; stroke-width: 1.0;" width="6" x="46.5" y="1124.6445"/><text fill="#000000" font-family="sans-serif" font-size="11" lengthAdjust="spacingAndGlyphs" textLength="102" x="58.5" y="1130.6455">boolean undecorated</text><rect fill="none" height="6" style="stroke: #C82930; stroke-width: 1.0;" width="6" x="46.5" y="1138.4805"/><text fill="#000000" font-family="sans-serif" font-size="11" lengthAdjust="spacingAndGlyphs" textLength="116" x="58.5" y="1144.4814">boolean mbManagement</text><rect fill="none" height="6" style="stroke: #C82930; stroke-width: 1.0;" width="6" x="46.5" y="1152.3164"/><text fill="#000000" font-family="sans-serif" font-size="11" lengthAdjust="spacingAndGlyphs" textLength="38" x="58.5" y="1158.3174">int state</text><rect fill="none" height="6" style="stroke: #C82930; stroke-width: 1.0;" width="6" x="46.5" y="1166.1523"/><text fill="#000000" font-family="sans-serif" font-size="11" lengthAdjust="spacingAndGlyphs" textLength="252" x="58.5" y="1172.1533">java.util.Vector&lt;java.awt.Window&gt; ownedWindows</text><rect fill="none" height="6" style="stroke: #C82930; stroke-width: 1.0;" width="6" x="46.5" y="1179.9883"/><text fill="#000000" font-family="sans-serif" font-size="11" lengthAdjust="spacingAndGlyphs" text-decoration="underline" textLength="101" x="58.5" y="1185.9893">java.lang.String base</text><line style="stroke: #000000; stroke-width: 1.0;" x1="58.5" x2="159.5" y1="1187.9893" y2="1187.9893"/><rect fill="none" height="6" style="stroke: #C82930; stroke-width: 1.0;" width="6" x="46.5" y="1193.8242"/><text fill="#000000" font-family="sans-serif" font-size="11" lengthAdjust="spacingAndGlyphs" text-decoration="underline" textLength="78" x="58.5" y="1199.8252">int nameCounter</text><line style="stroke: #000000; stroke-width: 1.0;" x1="58.5" x2="136.5" y1="1201.8252" y2="1201.8252"/><rect fill="none" height="6" style="stroke: #C82930; stroke-width: 1.0;" width="6" x="46.5" y="1207.6602"/><text fill="#000000" font-family="sans-serif" font-size="11" lengthAdjust="spacingAndGlyphs" text-decoration="underline" textLength="103" x="58.5" y="1213.6611">long serialVersionUID</text><line style="stroke: #000000; stroke-width: 1.0;" x1="58.5" x2="161.5" y1="1215.6611" y2="1215.6611"/><rect fill="none" height="6" style="stroke: #C82930; stroke-width: 1.0;" width="6" x="46.5" y="1221.4961"/><text fill="#000000" font-family="sans-serif" font-size="11" lengthAdjust="spacingAndGlyphs" textLength="149" x="58.5" y="1227.4971">int frameSerializedDataVersion</text><line style="stroke: #A80036; stroke-width: 1.5;" x1="39.5" x2="362.5" y1="1233.9141" y2="1233.9141"/><ellipse cx="49.5" cy="1246.332" fill="#84BE84" rx="3" ry="3" style="stroke: #038048; stroke-width: 1.0;"/><text fill="#000000" font-family="sans-serif" font-size="11" lengthAdjust="spacingAndGlyphs" textLength="56" x="58.5" y="1249.333">void &lt;init&gt;()</text><ellipse cx="49.5" cy="1260.168" fill="#84BE84" rx="3" ry="3" style="stroke: #038048; stroke-width: 1.0;"/><text fill="#000000" font-family="sans-serif" font-size="11" lengthAdjust="spacingAndGlyphs" textLength="209" x="58.5" y="1263.1689">void &lt;init&gt;(java.awt.GraphicsConfiguration)</text><ellipse cx="49.5" cy="1274.0039" fill="#84BE84" rx="3" ry="3" style="stroke: #038048; stroke-width: 1.0;"/><text fill="#000000" font-family="sans-serif" font-size="11" lengthAdjust="spacingAndGlyphs" textLength="130" x="58.5" y="1277.0049">void &lt;init&gt;(java.lang.String)</text><ellipse cx="49.5" cy="1287.8398" fill="#84BE84" rx="3" ry="3" style="stroke: #038048; stroke-width: 1.0;"/><text fill="#000000" font-family="sans-serif" font-size="11" lengthAdjust="spacingAndGlyphs" textLength="286" x="58.5" y="1290.8408">void &lt;init&gt;(java.lang.String,java.awt.GraphicsConfiguration)</text><rect fill="#F24D5C" height="6" style="stroke: #C82930; stroke-width: 1.0;" width="6" x="46.5" y="1298.6758"/><text fill="#000000" font-family="sans-serif" font-size="11" lengthAdjust="spacingAndGlyphs" textLength="274" x="58.5" y="1304.6768">void init(java.lang.String,java.awt.GraphicsConfiguration)</text><rect fill="#F24D5C" height="6" style="stroke: #C82930; stroke-width: 1.0;" width="6" x="46.5" y="1312.5117"/><text fill="#000000" font-family="sans-serif" font-size="11" lengthAdjust="spacingAndGlyphs" textLength="212" x="58.5" y="1318.5127">java.lang.String constructComponentName()</text><ellipse cx="49.5" cy="1329.3477" fill="#84BE84" rx="3" ry="3" style="stroke: #038048; stroke-width: 1.0;"/><text fill="#000000" font-family="sans-serif" font-size="11" lengthAdjust="spacingAndGlyphs" textLength="77" x="58.5" y="1332.3486">void addNotify()</text><ellipse cx="49.5" cy="1343.1836" fill="#84BE84" rx="3" ry="3" style="stroke: #038048; stroke-width: 1.0;"/><text fill="#000000" font-family="sans-serif" font-size="11" lengthAdjust="spacingAndGlyphs" textLength="119" x="58.5" y="1346.1846">java.lang.String getTitle()</text><ellipse cx="49.5" cy="1357.0195" fill="#84BE84" rx="3" ry="3" style="stroke: #038048; stroke-width: 1.0;"/><text fill="#000000" font-family="sans-serif" font-size="11" lengthAdjust="spacingAndGlyphs" textLength="139" x="58.5" y="1360.0205">void setTitle(java.lang.String)</text><ellipse cx="49.5" cy="1370.8555" fill="#84BE84" rx="3" ry="3" style="stroke: #038048; stroke-width: 1.0;"/><text fill="#000000" font-family="sans-serif" font-size="11" lengthAdjust="spacingAndGlyphs" textLength="147" x="58.5" y="1373.8564">java.awt.Image getIconImage()</text><ellipse cx="49.5" cy="1384.6914" fill="#84BE84" rx="3" ry="3" style="stroke: #038048; stroke-width: 1.0;"/><text fill="#000000" font-family="sans-serif" font-size="11" lengthAdjust="spacingAndGlyphs" textLength="167" x="58.5" y="1387.6924">void setIconImage(java.awt.Image)</text><ellipse cx="49.5" cy="1398.5273" fill="#84BE84" rx="3" ry="3" style="stroke: #038048; stroke-width: 1.0;"/><text fill="#000000" font-family="sans-serif" font-size="11" lengthAdjust="spacingAndGlyphs" textLength="157" x="58.5" y="1401.5283">java.awt.MenuBar getMenuBar()</text><ellipse cx="49.5" cy="1412.3633" fill="#84BE84" rx="3" ry="3" style="stroke: #038048; stroke-width: 1.0;"/><text fill="#000000" font-family="sans-serif" font-size="11" lengthAdjust="spacingAndGlyphs" textLength="177" x="58.5" y="1415.3643">void setMenuBar(java.awt.MenuBar)</text><ellipse cx="49.5" cy="1426.1992" fill="#84BE84" rx="3" ry="3" style="stroke: #038048; stroke-width: 1.0;"/><text fill="#000000" font-family="sans-serif" font-size="11" lengthAdjust="spacingAndGlyphs" textLength="104" x="58.5" y="1429.2002">boolean isResizable()</text><ellipse cx="49.5" cy="1440.0352" fill="#84BE84" rx="3" ry="3" style="stroke: #038048; stroke-width: 1.0;"/><text fill="#000000" font-family="sans-serif" font-size="11" lengthAdjust="spacingAndGlyphs" textLength="131" x="58.5" y="1443.0361">void setResizable(boolean)</text><ellipse cx="49.5" cy="1453.8711" fill="#84BE84" rx="3" ry="3" style="stroke: #038048; stroke-width: 1.0;"/><text fill="#000000" font-family="sans-serif" font-size="11" lengthAdjust="spacingAndGlyphs" textLength="82" x="58.5" y="1456.8721">void setState(int)</text><ellipse cx="49.5" cy="1467.707" fill="#84BE84" rx="3" ry="3" style="stroke: #038048; stroke-width: 1.0;"/><text fill="#000000" font-family="sans-serif" font-size="11" lengthAdjust="spacingAndGlyphs" textLength="127" x="58.5" y="1470.708">void setExtendedState(int)</text><rect fill="#F24D5C" height="6" style="stroke: #C82930; stroke-width: 1.0;" width="6" x="46.5" y="1478.543"/><text fill="#000000" font-family="sans-serif" font-size="11" lengthAdjust="spacingAndGlyphs" textLength="173" x="58.5" y="1484.5439">boolean isFrameStateSupported(int)</text><ellipse cx="49.5" cy="1495.3789" fill="#84BE84" rx="3" ry="3" style="stroke: #038048; stroke-width: 1.0;"/><text fill="#000000" font-family="sans-serif" font-size="11" lengthAdjust="spacingAndGlyphs" textLength="62" x="58.5" y="1498.3799">int getState()</text><ellipse cx="49.5" cy="1509.2148" fill="#84BE84" rx="3" ry="3" style="stroke: #038048; stroke-width: 1.0;"/><text fill="#000000" font-family="sans-serif" font-size="11" lengthAdjust="spacingAndGlyphs" textLength="107" x="58.5" y="1512.2158">int getExtendedState()</text><ellipse cx="49.5" cy="1523.0508" fill="#84BE84" rx="3" ry="3" style="stroke: #038048; stroke-width: 1.0;"/><text fill="#000000" font-family="sans-serif" font-size="11" lengthAdjust="spacingAndGlyphs" textLength="226" x="58.5" y="1526.0518">void setMaximizedBounds(java.awt.Rectangle)</text><ellipse cx="49.5" cy="1536.8867" fill="#84BE84" rx="3" ry="3" style="stroke: #038048; stroke-width: 1.0;"/><text fill="#000000" font-family="sans-serif" font-size="11" lengthAdjust="spacingAndGlyphs" textLength="206" x="58.5" y="1539.8877">java.awt.Rectangle getMaximizedBounds()</text><ellipse cx="49.5" cy="1550.7227" fill="#84BE84" rx="3" ry="3" style="stroke: #038048; stroke-width: 1.0;"/><text fill="#000000" font-family="sans-serif" font-size="11" lengthAdjust="spacingAndGlyphs" textLength="146" x="58.5" y="1553.7236">void setUndecorated(boolean)</text><ellipse cx="49.5" cy="1564.5586" fill="#84BE84" rx="3" ry="3" style="stroke: #038048; stroke-width: 1.0;"/><text fill="#000000" font-family="sans-serif" font-size="11" lengthAdjust="spacingAndGlyphs" textLength="119" x="58.5" y="1567.5596">boolean isUndecorated()</text><ellipse cx="49.5" cy="1578.3945" fill="#84BE84" rx="3" ry="3" style="stroke: #038048; stroke-width: 1.0;"/><text fill="#000000" font-family="sans-serif" font-size="11" lengthAdjust="spacingAndGlyphs" textLength="104" x="58.5" y="1581.3955">void setOpacity(float)</text><ellipse cx="49.5" cy="1592.2305" fill="#84BE84" rx="3" ry="3" style="stroke: #038048; stroke-width: 1.0;"/><text fill="#000000" font-family="sans-serif" font-size="11" lengthAdjust="spacingAndGlyphs" textLength="153" x="58.5" y="1595.2314">void setShape(java.awt.Shape)</text><ellipse cx="49.5" cy="1606.0664" fill="#84BE84" rx="3" ry="3" style="stroke: #038048; stroke-width: 1.0;"/><text fill="#000000" font-family="sans-serif" font-size="11" lengthAdjust="spacingAndGlyphs" textLength="174" x="58.5" y="1609.0674">void setBackground(java.awt.Color)</text><ellipse cx="49.5" cy="1619.9023" fill="#84BE84" rx="3" ry="3" style="stroke: #038048; stroke-width: 1.0;"/><text fill="#000000" font-family="sans-serif" font-size="11" lengthAdjust="spacingAndGlyphs" textLength="192" x="58.5" y="1622.9033">void remove(java.awt.MenuComponent)</text><ellipse cx="49.5" cy="1633.7383" fill="#84BE84" rx="3" ry="3" style="stroke: #038048; stroke-width: 1.0;"/><text fill="#000000" font-family="sans-serif" font-size="11" lengthAdjust="spacingAndGlyphs" textLength="95" x="58.5" y="1636.7393">void removeNotify()</text><rect fill="#F24D5C" height="6" style="stroke: #C82930; stroke-width: 1.0;" width="6" x="46.5" y="1644.5742"/><text fill="#000000" font-family="sans-serif" font-size="11" lengthAdjust="spacingAndGlyphs" textLength="259" x="58.5" y="1650.5752">void postProcessKeyEvent(java.awt.event.KeyEvent)</text><polygon fill="#FFFF44" points="49.5,1656.4102,53.5,1660.4102,49.5,1664.4102,45.5,1660.4102" style="stroke: #B38D22; stroke-width: 1.0;"/><text fill="#000000" font-family="sans-serif" font-size="11" lengthAdjust="spacingAndGlyphs" textLength="143" x="58.5" y="1664.4111">java.lang.String paramString()</text><ellipse cx="49.5" cy="1675.2461" fill="#84BE84" rx="3" ry="3" style="stroke: #038048; stroke-width: 1.0;"/><text fill="#000000" font-family="sans-serif" font-size="11" lengthAdjust="spacingAndGlyphs" textLength="90" x="58.5" y="1678.2471">void setCursor(int)</text><ellipse cx="49.5" cy="1689.082" fill="#84BE84" rx="3" ry="3" style="stroke: #038048; stroke-width: 1.0;"/><text fill="#000000" font-family="sans-serif" font-size="11" lengthAdjust="spacingAndGlyphs" textLength="94" x="58.5" y="1692.083">int getCursorType()</text><ellipse cx="49.5" cy="1702.918" fill="#84BE84" rx="3" ry="3" style="stroke: #038048; stroke-width: 1.0;"/><text fill="#000000" font-family="sans-serif" font-size="11" lengthAdjust="spacingAndGlyphs" text-decoration="underline" textLength="143" x="58.5" y="1705.9189">java.awt.Frame[] getFrames()</text><line style="stroke: #000000; stroke-width: 1.0;" x1="58.5" x2="201.5" y1="1707.9189" y2="1707.9189"/><rect fill="#F24D5C" height="6" style="stroke: #C82930; stroke-width: 1.0;" width="6" x="46.5" y="1713.7539"/><text fill="#000000" font-family="sans-serif" font-size="11" lengthAdjust="spacingAndGlyphs" textLength="218" x="58.5" y="1719.7549">void writeObject(java.io.ObjectOutputStream)</text><rect fill="#F24D5C" height="6" style="stroke: #C82930; stroke-width: 1.0;" width="6" x="46.5" y="1727.5898"/><text fill="#000000" font-family="sans-serif" font-size="11" lengthAdjust="spacingAndGlyphs" textLength="206" x="58.5" y="1733.5908">void readObject(java.io.ObjectInputStream)</text><rect fill="#F24D5C" height="6" style="stroke: #C82930; stroke-width: 1.0;" width="6" x="46.5" y="1741.4258"/><text fill="#000000" font-family="sans-serif" font-size="11" lengthAdjust="spacingAndGlyphs" text-decoration="underline" textLength="59" x="58.5" y="1747.4268">void initIDs()</text><line style="stroke: #000000; stroke-width: 1.0;" x1="58.5" x2="117.5" y1="1749.4268" y2="1749.4268"/><ellipse cx="49.5" cy="1758.2617" fill="#84BE84" rx="3" ry="3" style="stroke: #038048; stroke-width: 1.0;"/><text fill="#000000" font-family="sans-serif" font-size="11" lengthAdjust="spacingAndGlyphs" textLength="299" x="58.5" y="1761.2627">javax.accessibility.AccessibleContext getAccessibleContext()</text><rect fill="#F24D5C" height="6" style="stroke: #C82930; stroke-width: 1.0;" width="6" x="46.5" y="1769.0977"/><text fill="#000000" font-family="sans-serif" font-size="11" lengthAdjust="spacingAndGlyphs" text-decoration="underline" textLength="171" x="58.5" y="1775.0986">int access$002(java.awt.Frame,int)</text><line style="stroke: #000000; stroke-width: 1.0;" x1="58.5" x2="229.5" y1="1777.0986" y2="1777.0986"/><rect fill="#F24D5C" height="6" style="stroke: #C82930; stroke-width: 1.0;" width="6" x="46.5" y="1782.9336"/><text fill="#000000" font-family="sans-serif" font-size="11" lengthAdjust="spacingAndGlyphs" text-decoration="underline" textLength="157" x="58.5" y="1788.9346">int access$000(java.awt.Frame)</text><line style="stroke: #000000; stroke-width: 1.0;" x1="58.5" x2="215.5" y1="1790.9346" y2="1790.9346"/><rect fill="#F24D5C" height="6" style="stroke: #C82930; stroke-width: 1.0;" width="6" x="46.5" y="1796.7695"/><text fill="#000000" font-family="sans-serif" font-size="11" lengthAdjust="spacingAndGlyphs" text-decoration="underline" textLength="64" x="58.5" y="1802.7705">void &lt;clinit&gt;()</text><line style="stroke: #000000; stroke-width: 1.0;" x1="58.5" x2="122.5" y1="1804.7705" y2="1804.7705"/><!--link java.awt.Frame to java.awt.Frame--><path d="M255.167,764.61 C255.167,741.02 255.167,727 255.167,727 C255.167,727 381.5,727 381.5,727 C381.5,727 381.5,1827 381.5,1827 C381.5,1827 201,1827 201,1827 C201,1827 201,1814.0332 201,1814.0332 " fill="none" id="java.awt.Frame-java.awt.Frame" style="stroke: #A80036; stroke-width: 1.0; stroke-dasharray: 7.0,7.0;"/><polygon fill="#A80036" points="201,1809.0332,197,1818.0332,201,1814.0332,205,1818.0332,201,1809.0332" style="stroke: #A80036; stroke-width: 1.0;"/><text fill="#000000" font-family="sans-serif" font-size="13" lengthAdjust="spacingAndGlyphs" textLength="7" x="193.9508" y="1829.9831">1</text><!--link javax.swing.JFrame to java.awt.Frame--><path d="M146.833,689.17 C146.833,689.17 146.833,744.89 146.833,744.89 " fill="none" id="javax.swing.JFrame-java.awt.Frame" style="stroke: #A80036; stroke-width: 1.0;"/><polygon fill="none" points="153.833,744.89,146.833,764.89,139.833,744.89,153.833,744.89" style="stroke: #A80036; stroke-width: 1.0;"/></g></svg>