<?xml version="1.0" encoding="UTF-8" standalone="no"?><svg xmlns="http://www.w3.org/2000/svg" xmlns:xlink="http://www.w3.org/1999/xlink" contentScriptType="application/ecmascript" contentStyleType="text/css" height="452px" preserveAspectRatio="none" style="width:1565px;height:452px;" version="1.1" viewBox="0 0 1565 452" width="1565px" zoomAndPan="magnify"><defs><filter height="300%" id="fns5nnlh9tf4h" width="300%" x="-1" y="-1"><feGaussianBlur result="blurOut" stdDeviation="2.0"/><feColorMatrix in="blurOut" result="blurOut2" type="matrix" values="0 0 0 0 0 0 0 0 0 0 0 0 0 0 0 0 0 0 .4 0"/><feOffset dx="4.0" dy="4.0" in="blurOut2" result="blurOut3"/><feBlend in="SourceGraphic" in2="blurOut3" mode="normal"/></filter></defs><g><!--class DataStandardizerApp--><rect fill="#FEFECE" filter="url(#fns5nnlh9tf4h)" height="75.6719" id="DataStandardizerApp" style="stroke: #A80036; stroke-width: 1.5;" width="159" x="75" y="15"/><ellipse cx="94.95" cy="31" fill="#ADD1B2" rx="11" ry="11" style="stroke: #A80036; stroke-width: 1.0;"/><path d="M97.7156,26.875 Q97.8719,26.6563 98.0594,26.5469 Q98.2469,26.4375 98.4656,26.4375 Q98.8406,26.4375 99.075,26.6953 Q99.3094,26.9531 99.3094,27.5625 L99.3094,29.0156 Q99.3094,29.625 99.075,29.8906 Q98.8406,30.1563 98.4656,30.1563 Q98.1219,30.1563 97.9188,29.9531 Q97.7156,29.7656 97.6063,29.25 Q97.5594,28.8906 97.3719,28.7031 Q97.0438,28.3281 96.4344,28.1094 Q95.825,27.8906 95.2,27.8906 Q94.4344,27.8906 93.8016,28.2188 Q93.1688,28.5469 92.6766,29.2969 Q92.1844,30.0469 92.1844,31.0781 L92.1844,32.1719 Q92.1844,33.4063 93.075,34.2266 Q93.9656,35.0469 95.5594,35.0469 Q96.4969,35.0469 97.1531,34.7969 Q97.5438,34.6406 97.9656,34.2031 Q98.2313,33.9375 98.3797,33.8594 Q98.5281,33.7813 98.7313,33.7813 Q99.0594,33.7813 99.3172,34.0391 Q99.575,34.2969 99.575,34.6406 Q99.575,34.9844 99.2313,35.3906 Q98.7313,35.9688 97.9344,36.2969 Q96.8563,36.75 95.5594,36.75 Q94.0438,36.75 92.8406,36.125 Q91.8563,35.625 91.1688,34.5547 Q90.4813,33.4844 90.4813,32.2031 L90.4813,31.0469 Q90.4813,29.7188 91.0984,28.5703 Q91.7156,27.4219 92.8094,26.8047 Q93.9031,26.1875 95.1375,26.1875 Q95.8719,26.1875 96.5203,26.3516 Q97.1688,26.5156 97.7156,26.875 Z "/><text fill="#000000" font-family="sans-serif" font-size="12" lengthAdjust="spacingAndGlyphs" textLength="116" x="110.05" y="35.9102">DataStandardizerApp</text><line style="stroke: #A80036; stroke-width: 1.5;" x1="76" x2="233" y1="47" y2="47"/><line style="stroke: #A80036; stroke-width: 1.5;" x1="76" x2="233" y1="55" y2="55"/><ellipse cx="86" cy="67.418" fill="#84BE84" rx="3" ry="3" style="stroke: #038048; stroke-width: 1.0;"/><text fill="#000000" font-family="sans-serif" font-size="11" lengthAdjust="spacingAndGlyphs" textLength="56" x="95" y="70.4189">void &lt;init&gt;()</text><ellipse cx="86" cy="81.2539" fill="#84BE84" rx="3" ry="3" style="stroke: #038048; stroke-width: 1.0;"/><text fill="#000000" font-family="sans-serif" font-size="11" lengthAdjust="spacingAndGlyphs" text-decoration="underline" textLength="133" x="95" y="84.2549">void main(java.lang.String[])</text><line style="stroke: #000000; stroke-width: 1.0;" x1="95" x2="228" y1="86.2549" y2="86.2549"/><!--class AmazonLineParser--><rect fill="#FEFECE" filter="url(#fns5nnlh9tf4h)" height="75.6719" id="AmazonLineParser" style="stroke: #A80036; stroke-width: 1.5;" width="213" x="597" y="261.5"/><ellipse cx="646.75" cy="277.5" fill="#ADD1B2" rx="11" ry="11" style="stroke: #A80036; stroke-width: 1.0;"/><path d="M649.5156,273.375 Q649.6719,273.1563 649.8594,273.0469 Q650.0469,272.9375 650.2656,272.9375 Q650.6406,272.9375 650.875,273.1953 Q651.1094,273.4531 651.1094,274.0625 L651.1094,275.5156 Q651.1094,276.125 650.875,276.3906 Q650.6406,276.6563 650.2656,276.6563 Q649.9219,276.6563 649.7188,276.4531 Q649.5156,276.2656 649.4063,275.75 Q649.3594,275.3906 649.1719,275.2031 Q648.8438,274.8281 648.2344,274.6094 Q647.625,274.3906 647,274.3906 Q646.2344,274.3906 645.6016,274.7188 Q644.9688,275.0469 644.4766,275.7969 Q643.9844,276.5469 643.9844,277.5781 L643.9844,278.6719 Q643.9844,279.9063 644.875,280.7266 Q645.7656,281.5469 647.3594,281.5469 Q648.2969,281.5469 648.9531,281.2969 Q649.3438,281.1406 649.7656,280.7031 Q650.0313,280.4375 650.1797,280.3594 Q650.3281,280.2813 650.5313,280.2813 Q650.8594,280.2813 651.1172,280.5391 Q651.375,280.7969 651.375,281.1406 Q651.375,281.4844 651.0313,281.8906 Q650.5313,282.4688 649.7344,282.7969 Q648.6563,283.25 647.3594,283.25 Q645.8438,283.25 644.6406,282.625 Q643.6563,282.125 642.9688,281.0547 Q642.2813,279.9844 642.2813,278.7031 L642.2813,277.5469 Q642.2813,276.2188 642.8984,275.0703 Q643.5156,273.9219 644.6094,273.3047 Q645.7031,272.6875 646.9375,272.6875 Q647.6719,272.6875 648.3203,272.8516 Q648.9688,273.0156 649.5156,273.375 Z "/><text fill="#000000" font-family="sans-serif" font-size="12" lengthAdjust="spacingAndGlyphs" textLength="105" x="667.25" y="282.4102">AmazonLineParser</text><line style="stroke: #A80036; stroke-width: 1.5;" x1="598" x2="809" y1="293.5" y2="293.5"/><line style="stroke: #A80036; stroke-width: 1.5;" x1="598" x2="809" y1="301.5" y2="301.5"/><ellipse cx="608" cy="313.918" fill="#84BE84" rx="3" ry="3" style="stroke: #038048; stroke-width: 1.0;"/><text fill="#000000" font-family="sans-serif" font-size="11" lengthAdjust="spacingAndGlyphs" textLength="56" x="617" y="316.9189">void &lt;init&gt;()</text><ellipse cx="608" cy="327.7539" fill="#84BE84" rx="3" ry="3" style="stroke: #038048; stroke-width: 1.0;"/><text fill="#000000" font-family="sans-serif" font-size="11" lengthAdjust="spacingAndGlyphs" textLength="187" x="617" y="330.7549">java.lang.String parse(java.lang.String)</text><!--class ILineParser--><rect fill="#FEFECE" filter="url(#fns5nnlh9tf4h)" height="61.8359" id="ILineParser" style="stroke: #A80036; stroke-width: 1.5;" width="217" x="916" y="22"/><ellipse cx="988.25" cy="38" fill="#B4A7E5" rx="11" ry="11" style="stroke: #A80036; stroke-width: 1.0;"/><path d="M989.2031,34.6406 L989.2031,41.2969 L990.9219,41.2969 Q991.5313,41.2969 991.7969,41.5313 Q992.0625,41.7656 992.0625,42.1563 Q992.0625,42.5313 991.7969,42.7656 Q991.5313,43 990.9219,43 L985.7813,43 Q985.1719,43 984.9063,42.7656 Q984.6406,42.5313 984.6406,42.1406 Q984.6406,41.7656 984.9063,41.5313 Q985.1719,41.2969 985.7813,41.2969 L987.5,41.2969 L987.5,34.6406 L985.7813,34.6406 Q985.1719,34.6406 984.9063,34.4063 Q984.6406,34.1719 984.6406,33.7813 Q984.6406,33.4063 984.9063,33.1719 Q985.1719,32.9375 985.7813,32.9375 L990.9219,32.9375 Q991.5313,32.9375 991.7969,33.1719 Q992.0625,33.4063 992.0625,33.7813 Q992.0625,34.1719 991.7969,34.4063 Q991.5313,34.6406 990.9219,34.6406 L989.2031,34.6406 Z "/><text fill="#000000" font-family="sans-serif" font-size="12" font-style="italic" lengthAdjust="spacingAndGlyphs" textLength="64" x="1008.75" y="42.9102">ILineParser</text><line style="stroke: #A80036; stroke-width: 1.5;" x1="917" x2="1132" y1="54" y2="54"/><line style="stroke: #A80036; stroke-width: 1.5;" x1="917" x2="1132" y1="62" y2="62"/><ellipse cx="927" cy="74.418" fill="#84BE84" rx="3" ry="3" style="stroke: #038048; stroke-width: 1.0;"/><text fill="#000000" font-family="sans-serif" font-size="11" font-style="italic" lengthAdjust="spacingAndGlyphs" textLength="191" x="936" y="77.4189">java.lang.String parse(java.lang.String)</text><!--class DataStandardizer$1--><rect fill="#FEFECE" filter="url(#fns5nnlh9tf4h)" height="89.5078" id="DataStandardizer$1" style="stroke: #A80036; stroke-width: 1.5;" width="269" x="269" y="8"/><ellipse cx="344.75" cy="24" fill="#ADD1B2" rx="11" ry="11" style="stroke: #A80036; stroke-width: 1.0;"/><path d="M347.5156,19.875 Q347.6719,19.6563 347.8594,19.5469 Q348.0469,19.4375 348.2656,19.4375 Q348.6406,19.4375 348.875,19.6953 Q349.1094,19.9531 349.1094,20.5625 L349.1094,22.0156 Q349.1094,22.625 348.875,22.8906 Q348.6406,23.1563 348.2656,23.1563 Q347.9219,23.1563 347.7188,22.9531 Q347.5156,22.7656 347.4063,22.25 Q347.3594,21.8906 347.1719,21.7031 Q346.8438,21.3281 346.2344,21.1094 Q345.625,20.8906 345,20.8906 Q344.2344,20.8906 343.6016,21.2188 Q342.9688,21.5469 342.4766,22.2969 Q341.9844,23.0469 341.9844,24.0781 L341.9844,25.1719 Q341.9844,26.4063 342.875,27.2266 Q343.7656,28.0469 345.3594,28.0469 Q346.2969,28.0469 346.9531,27.7969 Q347.3438,27.6406 347.7656,27.2031 Q348.0313,26.9375 348.1797,26.8594 Q348.3281,26.7813 348.5313,26.7813 Q348.8594,26.7813 349.1172,27.0391 Q349.375,27.2969 349.375,27.6406 Q349.375,27.9844 349.0313,28.3906 Q348.5313,28.9688 347.7344,29.2969 Q346.6563,29.75 345.3594,29.75 Q343.8438,29.75 342.6406,29.125 Q341.6563,28.625 340.9688,27.5547 Q340.2813,26.4844 340.2813,25.2031 L340.2813,24.0469 Q340.2813,22.7188 340.8984,21.5703 Q341.5156,20.4219 342.6094,19.8047 Q343.7031,19.1875 344.9375,19.1875 Q345.6719,19.1875 346.3203,19.3516 Q346.9688,19.5156 347.5156,19.875 Z "/><text fill="#000000" font-family="sans-serif" font-size="12" lengthAdjust="spacingAndGlyphs" textLength="109" x="365.25" y="28.9102">DataStandardizer$1</text><line style="stroke: #A80036; stroke-width: 1.5;" x1="270" x2="537" y1="40" y2="40"/><rect fill="none" height="6" style="stroke: #C82930; stroke-width: 1.0;" width="6" x="277" y="49.418"/><text fill="#000000" font-family="sans-serif" font-size="11" lengthAdjust="spacingAndGlyphs" textLength="157" x="289" y="55.4189">problem.DataStandardizer this$0</text><line style="stroke: #A80036; stroke-width: 1.5;" x1="270" x2="537" y1="61.8359" y2="61.8359"/><rect fill="#F24D5C" height="6" style="stroke: #C82930; stroke-width: 1.0;" width="6" x="277" y="71.2539"/><text fill="#000000" font-family="sans-serif" font-size="11" lengthAdjust="spacingAndGlyphs" textLength="181" x="289" y="77.2549">void &lt;init&gt;(problem.DataStandardizer)</text><ellipse cx="280" cy="88.0898" fill="#84BE84" rx="3" ry="3" style="stroke: #038048; stroke-width: 1.0;"/><text fill="#000000" font-family="sans-serif" font-size="11" lengthAdjust="spacingAndGlyphs" textLength="243" x="289" y="91.0908">void actionPerformed(java.awt.event.ActionEvent)</text><!--class DataStandardizer$2--><rect fill="#FEFECE" filter="url(#fns5nnlh9tf4h)" height="89.5078" id="DataStandardizer$2" style="stroke: #A80036; stroke-width: 1.5;" width="207" x="573" y="8"/><ellipse cx="617.75" cy="24" fill="#ADD1B2" rx="11" ry="11" style="stroke: #A80036; stroke-width: 1.0;"/><path d="M620.5156,19.875 Q620.6719,19.6563 620.8594,19.5469 Q621.0469,19.4375 621.2656,19.4375 Q621.6406,19.4375 621.875,19.6953 Q622.1094,19.9531 622.1094,20.5625 L622.1094,22.0156 Q622.1094,22.625 621.875,22.8906 Q621.6406,23.1563 621.2656,23.1563 Q620.9219,23.1563 620.7188,22.9531 Q620.5156,22.7656 620.4063,22.25 Q620.3594,21.8906 620.1719,21.7031 Q619.8438,21.3281 619.2344,21.1094 Q618.625,20.8906 618,20.8906 Q617.2344,20.8906 616.6016,21.2188 Q615.9688,21.5469 615.4766,22.2969 Q614.9844,23.0469 614.9844,24.0781 L614.9844,25.1719 Q614.9844,26.4063 615.875,27.2266 Q616.7656,28.0469 618.3594,28.0469 Q619.2969,28.0469 619.9531,27.7969 Q620.3438,27.6406 620.7656,27.2031 Q621.0313,26.9375 621.1797,26.8594 Q621.3281,26.7813 621.5313,26.7813 Q621.8594,26.7813 622.1172,27.0391 Q622.375,27.2969 622.375,27.6406 Q622.375,27.9844 622.0313,28.3906 Q621.5313,28.9688 620.7344,29.2969 Q619.6563,29.75 618.3594,29.75 Q616.8438,29.75 615.6406,29.125 Q614.6563,28.625 613.9688,27.5547 Q613.2813,26.4844 613.2813,25.2031 L613.2813,24.0469 Q613.2813,22.7188 613.8984,21.5703 Q614.5156,20.4219 615.6094,19.8047 Q616.7031,19.1875 617.9375,19.1875 Q618.6719,19.1875 619.3203,19.3516 Q619.9688,19.5156 620.5156,19.875 Z "/><text fill="#000000" font-family="sans-serif" font-size="12" lengthAdjust="spacingAndGlyphs" textLength="109" x="638.25" y="28.9102">DataStandardizer$2</text><line style="stroke: #A80036; stroke-width: 1.5;" x1="574" x2="779" y1="40" y2="40"/><rect fill="none" height="6" style="stroke: #C82930; stroke-width: 1.0;" width="6" x="581" y="49.418"/><text fill="#000000" font-family="sans-serif" font-size="11" lengthAdjust="spacingAndGlyphs" textLength="157" x="593" y="55.4189">problem.DataStandardizer this$0</text><line style="stroke: #A80036; stroke-width: 1.5;" x1="574" x2="779" y1="61.8359" y2="61.8359"/><rect fill="#F24D5C" height="6" style="stroke: #C82930; stroke-width: 1.0;" width="6" x="581" y="71.2539"/><text fill="#000000" font-family="sans-serif" font-size="11" lengthAdjust="spacingAndGlyphs" textLength="181" x="593" y="77.2549">void &lt;init&gt;(problem.DataStandardizer)</text><ellipse cx="584" cy="88.0898" fill="#84BE84" rx="3" ry="3" style="stroke: #038048; stroke-width: 1.0;"/><text fill="#000000" font-family="sans-serif" font-size="11" lengthAdjust="spacingAndGlyphs" textLength="47" x="593" y="91.0908">void run()</text><!--class DataStandardizer--><rect fill="#FEFECE" filter="url(#fns5nnlh9tf4h)" height="283.2109" id="DataStandardizer" style="stroke: #A80036; stroke-width: 1.5;" width="297" x="6" y="158"/><ellipse cx="102.75" cy="174" fill="#ADD1B2" rx="11" ry="11" style="stroke: #A80036; stroke-width: 1.0;"/><path d="M105.5156,169.875 Q105.6719,169.6563 105.8594,169.5469 Q106.0469,169.4375 106.2656,169.4375 Q106.6406,169.4375 106.875,169.6953 Q107.1094,169.9531 107.1094,170.5625 L107.1094,172.0156 Q107.1094,172.625 106.875,172.8906 Q106.6406,173.1563 106.2656,173.1563 Q105.9219,173.1563 105.7188,172.9531 Q105.5156,172.7656 105.4063,172.25 Q105.3594,171.8906 105.1719,171.7031 Q104.8438,171.3281 104.2344,171.1094 Q103.625,170.8906 103,170.8906 Q102.2344,170.8906 101.6016,171.2188 Q100.9688,171.5469 100.4766,172.2969 Q99.9844,173.0469 99.9844,174.0781 L99.9844,175.1719 Q99.9844,176.4063 100.875,177.2266 Q101.7656,178.0469 103.3594,178.0469 Q104.2969,178.0469 104.9531,177.7969 Q105.3438,177.6406 105.7656,177.2031 Q106.0313,176.9375 106.1797,176.8594 Q106.3281,176.7813 106.5313,176.7813 Q106.8594,176.7813 107.1172,177.0391 Q107.375,177.2969 107.375,177.6406 Q107.375,177.9844 107.0313,178.3906 Q106.5313,178.9688 105.7344,179.2969 Q104.6563,179.75 103.3594,179.75 Q101.8438,179.75 100.6406,179.125 Q99.6563,178.625 98.9688,177.5547 Q98.2813,176.4844 98.2813,175.2031 L98.2813,174.0469 Q98.2813,172.7188 98.8984,171.5703 Q99.5156,170.4219 100.6094,169.8047 Q101.7031,169.1875 102.9375,169.1875 Q103.6719,169.1875 104.3203,169.3516 Q104.9688,169.5156 105.5156,169.875 Z "/><text fill="#000000" font-family="sans-serif" font-size="12" lengthAdjust="spacingAndGlyphs" textLength="95" x="123.25" y="178.9102">DataStandardizer</text><line style="stroke: #A80036; stroke-width: 1.5;" x1="7" x2="302" y1="190" y2="190"/><polygon fill="none" points="17,197.418,21,201.418,17,205.418,13,201.418" style="stroke: #B38D22; stroke-width: 1.0;"/><text fill="#000000" font-family="sans-serif" font-size="11" lengthAdjust="spacingAndGlyphs" textLength="121" x="26" y="205.4189">java.lang.String company</text><polygon fill="none" points="17,211.2539,21,215.2539,17,219.2539,13,215.2539" style="stroke: #B38D22; stroke-width: 1.0;"/><text fill="#000000" font-family="sans-serif" font-size="11" lengthAdjust="spacingAndGlyphs" textLength="98" x="26" y="219.2549">java.lang.String data</text><polygon fill="none" points="17,225.0898,21,229.0898,17,233.0898,13,229.0898" style="stroke: #B38D22; stroke-width: 1.0;"/><text fill="#000000" font-family="sans-serif" font-size="11" lengthAdjust="spacingAndGlyphs" textLength="128" x="26" y="233.0908">javax.swing.JFrame frame</text><polygon fill="none" points="17,238.9258,21,242.9258,17,246.9258,13,242.9258" style="stroke: #B38D22; stroke-width: 1.0;"/><text fill="#000000" font-family="sans-serif" font-size="11" lengthAdjust="spacingAndGlyphs" textLength="137" x="26" y="246.9268">javax.swing.JPanel topPanel</text><polygon fill="none" points="17,252.7617,21,256.7617,17,260.7617,13,256.7617" style="stroke: #B38D22; stroke-width: 1.0;"/><text fill="#000000" font-family="sans-serif" font-size="11" lengthAdjust="spacingAndGlyphs" textLength="147" x="26" y="260.7627">javax.swing.JTextField txtField</text><polygon fill="none" points="17,266.5977,21,270.5977,17,274.5977,13,270.5977" style="stroke: #B38D22; stroke-width: 1.0;"/><text fill="#000000" font-family="sans-serif" font-size="11" lengthAdjust="spacingAndGlyphs" textLength="131" x="26" y="274.5986">javax.swing.JButton button</text><polygon fill="none" points="17,280.4336,21,284.4336,17,288.4336,13,284.4336" style="stroke: #B38D22; stroke-width: 1.0;"/><text fill="#000000" font-family="sans-serif" font-size="11" lengthAdjust="spacingAndGlyphs" textLength="171" x="26" y="288.4346">javax.swing.JScrollPane scrollPane</text><polygon fill="none" points="17,294.2695,21,298.2695,17,302.2695,13,298.2695" style="stroke: #B38D22; stroke-width: 1.0;"/><text fill="#000000" font-family="sans-serif" font-size="11" lengthAdjust="spacingAndGlyphs" textLength="157" x="26" y="302.2705">javax.swing.JTextArea textArea</text><polygon fill="none" points="17,308.1055,21,312.1055,17,316.1055,13,312.1055" style="stroke: #B38D22; stroke-width: 1.0;"/><text fill="#000000" font-family="sans-serif" font-size="11" lengthAdjust="spacingAndGlyphs" textLength="118" x="26" y="316.1064">javax.swing.JLabel label</text><rect fill="none" height="6" style="stroke: #C82930; stroke-width: 1.0;" width="6" x="14" y="323.9414"/><text fill="#000000" font-family="sans-serif" font-size="11" lengthAdjust="spacingAndGlyphs" textLength="100" x="26" y="329.9424">java.util.Map parsers</text><line style="stroke: #A80036; stroke-width: 1.5;" x1="7" x2="302" y1="336.3594" y2="336.3594"/><ellipse cx="17" cy="348.7773" fill="#84BE84" rx="3" ry="3" style="stroke: #038048; stroke-width: 1.0;"/><text fill="#000000" font-family="sans-serif" font-size="11" lengthAdjust="spacingAndGlyphs" textLength="56" x="26" y="351.7783">void &lt;init&gt;()</text><polygon fill="#FFFF44" points="17,357.6133,21,361.6133,17,365.6133,13,361.6133" style="stroke: #B38D22; stroke-width: 1.0;"/><text fill="#000000" font-family="sans-serif" font-size="11" lengthAdjust="spacingAndGlyphs" textLength="128" x="26" y="365.6143">void createAndShowGUI()</text><ellipse cx="17" cy="376.4492" fill="#84BE84" rx="3" ry="3" style="stroke: #038048; stroke-width: 1.0;"/><text fill="#000000" font-family="sans-serif" font-size="11" lengthAdjust="spacingAndGlyphs" textLength="70" x="26" y="379.4502">void execute()</text><ellipse cx="17" cy="390.2852" fill="#84BE84" rx="3" ry="3" style="stroke: #038048; stroke-width: 1.0;"/><text fill="#000000" font-family="sans-serif" font-size="11" lengthAdjust="spacingAndGlyphs" textLength="133" x="26" y="393.2861">void parse(java.lang.String)</text><ellipse cx="17" cy="404.1211" fill="#84BE84" rx="3" ry="3" style="stroke: #038048; stroke-width: 1.0;"/><text fill="#000000" font-family="sans-serif" font-size="11" lengthAdjust="spacingAndGlyphs" textLength="271" x="26" y="407.1221">boolean addParser(java.lang.String,problem.ILineParser)</text><ellipse cx="17" cy="417.957" fill="#84BE84" rx="3" ry="3" style="stroke: #038048; stroke-width: 1.0;"/><text fill="#000000" font-family="sans-serif" font-size="11" lengthAdjust="spacingAndGlyphs" textLength="145" x="26" y="420.958">java.lang.String getCompany()</text><ellipse cx="17" cy="431.793" fill="#84BE84" rx="3" ry="3" style="stroke: #038048; stroke-width: 1.0;"/><text fill="#000000" font-family="sans-serif" font-size="11" lengthAdjust="spacingAndGlyphs" textLength="122" x="26" y="434.7939">java.lang.String getData()</text><!--class DataStandardizerTest--><rect fill="#FEFECE" filter="url(#fns5nnlh9tf4h)" height="131.0156" id="DataStandardizerTest" style="stroke: #A80036; stroke-width: 1.5;" width="151" x="338" y="234"/><ellipse cx="353" cy="250" fill="#ADD1B2" rx="11" ry="11" style="stroke: #A80036; stroke-width: 1.0;"/><path d="M355.7656,245.875 Q355.9219,245.6563 356.1094,245.5469 Q356.2969,245.4375 356.5156,245.4375 Q356.8906,245.4375 357.125,245.6953 Q357.3594,245.9531 357.3594,246.5625 L357.3594,248.0156 Q357.3594,248.625 357.125,248.8906 Q356.8906,249.1563 356.5156,249.1563 Q356.1719,249.1563 355.9688,248.9531 Q355.7656,248.7656 355.6563,248.25 Q355.6094,247.8906 355.4219,247.7031 Q355.0938,247.3281 354.4844,247.1094 Q353.875,246.8906 353.25,246.8906 Q352.4844,246.8906 351.8516,247.2188 Q351.2188,247.5469 350.7266,248.2969 Q350.2344,249.0469 350.2344,250.0781 L350.2344,251.1719 Q350.2344,252.4063 351.125,253.2266 Q352.0156,254.0469 353.6094,254.0469 Q354.5469,254.0469 355.2031,253.7969 Q355.5938,253.6406 356.0156,253.2031 Q356.2813,252.9375 356.4297,252.8594 Q356.5781,252.7813 356.7813,252.7813 Q357.1094,252.7813 357.3672,253.0391 Q357.625,253.2969 357.625,253.6406 Q357.625,253.9844 357.2813,254.3906 Q356.7813,254.9688 355.9844,255.2969 Q354.9063,255.75 353.6094,255.75 Q352.0938,255.75 350.8906,255.125 Q349.9063,254.625 349.2188,253.5547 Q348.5313,252.4844 348.5313,251.2031 L348.5313,250.0469 Q348.5313,248.7188 349.1484,247.5703 Q349.7656,246.4219 350.8594,245.8047 Q351.9531,245.1875 353.1875,245.1875 Q353.9219,245.1875 354.5703,245.3516 Q355.2188,245.5156 355.7656,245.875 Z "/><text fill="#000000" font-family="sans-serif" font-size="12" lengthAdjust="spacingAndGlyphs" textLength="119" x="367" y="254.9102">DataStandardizerTest</text><line style="stroke: #A80036; stroke-width: 1.5;" x1="339" x2="488" y1="266" y2="266"/><rect fill="none" height="6" style="stroke: #C82930; stroke-width: 1.0;" width="6" x="346" y="275.418"/><text fill="#000000" font-family="sans-serif" font-size="11" lengthAdjust="spacingAndGlyphs" textLength="125" x="358" y="281.4189">java.util.HashMap parsers</text><line style="stroke: #A80036; stroke-width: 1.5;" x1="339" x2="488" y1="287.8359" y2="287.8359"/><ellipse cx="349" cy="300.2539" fill="#84BE84" rx="3" ry="3" style="stroke: #038048; stroke-width: 1.0;"/><text fill="#000000" font-family="sans-serif" font-size="11" lengthAdjust="spacingAndGlyphs" textLength="56" x="358" y="303.2549">void &lt;init&gt;()</text><ellipse cx="349" cy="314.0898" fill="#84BE84" rx="3" ry="3" style="stroke: #038048; stroke-width: 1.0;"/><text fill="#000000" font-family="sans-serif" font-size="11" lengthAdjust="spacingAndGlyphs" textLength="111" x="358" y="317.0908">void testParseGoogle()</text><ellipse cx="349" cy="327.9258" fill="#84BE84" rx="3" ry="3" style="stroke: #038048; stroke-width: 1.0;"/><text fill="#000000" font-family="sans-serif" font-size="11" lengthAdjust="spacingAndGlyphs" textLength="122" x="358" y="330.9268">void testParseMicrosoft()</text><ellipse cx="349" cy="341.7617" fill="#84BE84" rx="3" ry="3" style="stroke: #038048; stroke-width: 1.0;"/><text fill="#000000" font-family="sans-serif" font-size="11" lengthAdjust="spacingAndGlyphs" textLength="117" x="358" y="344.7627">void testParseAmazon()</text><ellipse cx="349" cy="355.5977" fill="#84BE84" rx="3" ry="3" style="stroke: #038048; stroke-width: 1.0;"/><text fill="#000000" font-family="sans-serif" font-size="11" lengthAdjust="spacingAndGlyphs" textLength="119" x="358" y="358.5986">void testParseGroupon()</text><!--class GoogleLineParser--><rect fill="#FEFECE" filter="url(#fns5nnlh9tf4h)" height="75.6719" id="GoogleLineParser" style="stroke: #A80036; stroke-width: 1.5;" width="213" x="845" y="261.5"/><ellipse cx="896.75" cy="277.5" fill="#ADD1B2" rx="11" ry="11" style="stroke: #A80036; stroke-width: 1.0;"/><path d="M899.5156,273.375 Q899.6719,273.1563 899.8594,273.0469 Q900.0469,272.9375 900.2656,272.9375 Q900.6406,272.9375 900.875,273.1953 Q901.1094,273.4531 901.1094,274.0625 L901.1094,275.5156 Q901.1094,276.125 900.875,276.3906 Q900.6406,276.6563 900.2656,276.6563 Q899.9219,276.6563 899.7188,276.4531 Q899.5156,276.2656 899.4063,275.75 Q899.3594,275.3906 899.1719,275.2031 Q898.8438,274.8281 898.2344,274.6094 Q897.625,274.3906 897,274.3906 Q896.2344,274.3906 895.6016,274.7188 Q894.9688,275.0469 894.4766,275.7969 Q893.9844,276.5469 893.9844,277.5781 L893.9844,278.6719 Q893.9844,279.9063 894.875,280.7266 Q895.7656,281.5469 897.3594,281.5469 Q898.2969,281.5469 898.9531,281.2969 Q899.3438,281.1406 899.7656,280.7031 Q900.0313,280.4375 900.1797,280.3594 Q900.3281,280.2813 900.5313,280.2813 Q900.8594,280.2813 901.1172,280.5391 Q901.375,280.7969 901.375,281.1406 Q901.375,281.4844 901.0313,281.8906 Q900.5313,282.4688 899.7344,282.7969 Q898.6563,283.25 897.3594,283.25 Q895.8438,283.25 894.6406,282.625 Q893.6563,282.125 892.9688,281.0547 Q892.2813,279.9844 892.2813,278.7031 L892.2813,277.5469 Q892.2813,276.2188 892.8984,275.0703 Q893.5156,273.9219 894.6094,273.3047 Q895.7031,272.6875 896.9375,272.6875 Q897.6719,272.6875 898.3203,272.8516 Q898.9688,273.0156 899.5156,273.375 Z "/><text fill="#000000" font-family="sans-serif" font-size="12" lengthAdjust="spacingAndGlyphs" textLength="101" x="917.25" y="282.4102">GoogleLineParser</text><line style="stroke: #A80036; stroke-width: 1.5;" x1="846" x2="1057" y1="293.5" y2="293.5"/><line style="stroke: #A80036; stroke-width: 1.5;" x1="846" x2="1057" y1="301.5" y2="301.5"/><ellipse cx="856" cy="313.918" fill="#84BE84" rx="3" ry="3" style="stroke: #038048; stroke-width: 1.0;"/><text fill="#000000" font-family="sans-serif" font-size="11" lengthAdjust="spacingAndGlyphs" textLength="56" x="865" y="316.9189">void &lt;init&gt;()</text><ellipse cx="856" cy="327.7539" fill="#84BE84" rx="3" ry="3" style="stroke: #038048; stroke-width: 1.0;"/><text fill="#000000" font-family="sans-serif" font-size="11" lengthAdjust="spacingAndGlyphs" textLength="187" x="865" y="330.7549">java.lang.String parse(java.lang.String)</text><!--class GrouponLineParser--><rect fill="#FEFECE" filter="url(#fns5nnlh9tf4h)" height="75.6719" id="GrouponLineParser" style="stroke: #A80036; stroke-width: 1.5;" width="213" x="1093" y="261.5"/><ellipse cx="1140.75" cy="277.5" fill="#ADD1B2" rx="11" ry="11" style="stroke: #A80036; stroke-width: 1.0;"/><path d="M1143.5156,273.375 Q1143.6719,273.1563 1143.8594,273.0469 Q1144.0469,272.9375 1144.2656,272.9375 Q1144.6406,272.9375 1144.875,273.1953 Q1145.1094,273.4531 1145.1094,274.0625 L1145.1094,275.5156 Q1145.1094,276.125 1144.875,276.3906 Q1144.6406,276.6563 1144.2656,276.6563 Q1143.9219,276.6563 1143.7188,276.4531 Q1143.5156,276.2656 1143.4063,275.75 Q1143.3594,275.3906 1143.1719,275.2031 Q1142.8438,274.8281 1142.2344,274.6094 Q1141.625,274.3906 1141,274.3906 Q1140.2344,274.3906 1139.6016,274.7188 Q1138.9688,275.0469 1138.4766,275.7969 Q1137.9844,276.5469 1137.9844,277.5781 L1137.9844,278.6719 Q1137.9844,279.9063 1138.875,280.7266 Q1139.7656,281.5469 1141.3594,281.5469 Q1142.2969,281.5469 1142.9531,281.2969 Q1143.3438,281.1406 1143.7656,280.7031 Q1144.0313,280.4375 1144.1797,280.3594 Q1144.3281,280.2813 1144.5313,280.2813 Q1144.8594,280.2813 1145.1172,280.5391 Q1145.375,280.7969 1145.375,281.1406 Q1145.375,281.4844 1145.0313,281.8906 Q1144.5313,282.4688 1143.7344,282.7969 Q1142.6563,283.25 1141.3594,283.25 Q1139.8438,283.25 1138.6406,282.625 Q1137.6563,282.125 1136.9688,281.0547 Q1136.2813,279.9844 1136.2813,278.7031 L1136.2813,277.5469 Q1136.2813,276.2188 1136.8984,275.0703 Q1137.5156,273.9219 1138.6094,273.3047 Q1139.7031,272.6875 1140.9375,272.6875 Q1141.6719,272.6875 1142.3203,272.8516 Q1142.9688,273.0156 1143.5156,273.375 Z "/><text fill="#000000" font-family="sans-serif" font-size="12" lengthAdjust="spacingAndGlyphs" textLength="109" x="1161.25" y="282.4102">GrouponLineParser</text><line style="stroke: #A80036; stroke-width: 1.5;" x1="1094" x2="1305" y1="293.5" y2="293.5"/><line style="stroke: #A80036; stroke-width: 1.5;" x1="1094" x2="1305" y1="301.5" y2="301.5"/><ellipse cx="1104" cy="313.918" fill="#84BE84" rx="3" ry="3" style="stroke: #038048; stroke-width: 1.0;"/><text fill="#000000" font-family="sans-serif" font-size="11" lengthAdjust="spacingAndGlyphs" textLength="56" x="1113" y="316.9189">void &lt;init&gt;()</text><ellipse cx="1104" cy="327.7539" fill="#84BE84" rx="3" ry="3" style="stroke: #038048; stroke-width: 1.0;"/><text fill="#000000" font-family="sans-serif" font-size="11" lengthAdjust="spacingAndGlyphs" textLength="187" x="1113" y="330.7549">java.lang.String parse(java.lang.String)</text><!--class MicrosoftLineParser--><rect fill="#FEFECE" filter="url(#fns5nnlh9tf4h)" height="75.6719" id="MicrosoftLineParser" style="stroke: #A80036; stroke-width: 1.5;" width="213" x="1341" y="261.5"/><ellipse cx="1388.25" cy="277.5" fill="#ADD1B2" rx="11" ry="11" style="stroke: #A80036; stroke-width: 1.0;"/><path d="M1391.0156,273.375 Q1391.1719,273.1563 1391.3594,273.0469 Q1391.5469,272.9375 1391.7656,272.9375 Q1392.1406,272.9375 1392.375,273.1953 Q1392.6094,273.4531 1392.6094,274.0625 L1392.6094,275.5156 Q1392.6094,276.125 1392.375,276.3906 Q1392.1406,276.6563 1391.7656,276.6563 Q1391.4219,276.6563 1391.2188,276.4531 Q1391.0156,276.2656 1390.9063,275.75 Q1390.8594,275.3906 1390.6719,275.2031 Q1390.3438,274.8281 1389.7344,274.6094 Q1389.125,274.3906 1388.5,274.3906 Q1387.7344,274.3906 1387.1016,274.7188 Q1386.4688,275.0469 1385.9766,275.7969 Q1385.4844,276.5469 1385.4844,277.5781 L1385.4844,278.6719 Q1385.4844,279.9063 1386.375,280.7266 Q1387.2656,281.5469 1388.8594,281.5469 Q1389.7969,281.5469 1390.4531,281.2969 Q1390.8438,281.1406 1391.2656,280.7031 Q1391.5313,280.4375 1391.6797,280.3594 Q1391.8281,280.2813 1392.0313,280.2813 Q1392.3594,280.2813 1392.6172,280.5391 Q1392.875,280.7969 1392.875,281.1406 Q1392.875,281.4844 1392.5313,281.8906 Q1392.0313,282.4688 1391.2344,282.7969 Q1390.1563,283.25 1388.8594,283.25 Q1387.3438,283.25 1386.1406,282.625 Q1385.1563,282.125 1384.4688,281.0547 Q1383.7813,279.9844 1383.7813,278.7031 L1383.7813,277.5469 Q1383.7813,276.2188 1384.3984,275.0703 Q1385.0156,273.9219 1386.1094,273.3047 Q1387.2031,272.6875 1388.4375,272.6875 Q1389.1719,272.6875 1389.8203,272.8516 Q1390.4688,273.0156 1391.0156,273.375 Z "/><text fill="#000000" font-family="sans-serif" font-size="12" lengthAdjust="spacingAndGlyphs" textLength="110" x="1408.75" y="282.4102">MicrosoftLineParser</text><line style="stroke: #A80036; stroke-width: 1.5;" x1="1342" x2="1553" y1="293.5" y2="293.5"/><line style="stroke: #A80036; stroke-width: 1.5;" x1="1342" x2="1553" y1="301.5" y2="301.5"/><ellipse cx="1352" cy="313.918" fill="#84BE84" rx="3" ry="3" style="stroke: #038048; stroke-width: 1.0;"/><text fill="#000000" font-family="sans-serif" font-size="11" lengthAdjust="spacingAndGlyphs" textLength="56" x="1361" y="316.9189">void &lt;init&gt;()</text><ellipse cx="1352" cy="327.7539" fill="#84BE84" rx="3" ry="3" style="stroke: #038048; stroke-width: 1.0;"/><text fill="#000000" font-family="sans-serif" font-size="11" lengthAdjust="spacingAndGlyphs" textLength="187" x="1361" y="330.7549">java.lang.String parse(java.lang.String)</text><!--link ILineParser to AmazonLineParser--><path d="M934.415,92.976 C899.311,110.301 859.832,132.557 827.5,158 C789.278,188.078 753.409,230.942 730.181,261.4 " fill="none" id="ILineParser-AmazonLineParser" style="stroke: #A80036; stroke-width: 1.0; stroke-dasharray: 7.0,7.0;"/><polygon fill="none" points="931.791,86.471,952.85,84.124,937.851,99.091,931.791,86.471" style="stroke: #A80036; stroke-width: 1.0;"/><!--link ILineParser to GoogleLineParser--><path d="M1009.61,103.886 C995.675,150.544 975.185,219.173 962.626,261.235 " fill="none" id="ILineParser-GoogleLineParser" style="stroke: #A80036; stroke-width: 1.0; stroke-dasharray: 7.0,7.0;"/><polygon fill="none" points="1002.973,101.633,1015.4,84.472,1016.39,105.638,1002.973,101.633" style="stroke: #A80036; stroke-width: 1.0;"/><!--link ILineParser to GrouponLineParser--><path d="M1057.98,100.775 C1091.38,147.446 1142.05,218.228 1172.83,261.235 " fill="none" id="ILineParser-GrouponLineParser" style="stroke: #A80036; stroke-width: 1.0; stroke-dasharray: 7.0,7.0;"/><polygon fill="none" points="1052.26,104.809,1046.31,84.472,1063.64,96.661,1052.26,104.809" style="stroke: #A80036; stroke-width: 1.0;"/><!--link ILineParser to MicrosoftLineParser--><path d="M1152.32,82.822 C1207.97,99.189 1272.07,123.473 1323.5,158 C1364.56,185.563 1400.57,229.926 1423.06,261.423 " fill="none" id="ILineParser-MicrosoftLineParser" style="stroke: #A80036; stroke-width: 1.0; stroke-dasharray: 7.0,7.0;"/><polygon fill="none" points="1150.36,89.542,1133.02,77.358,1154.17,76.072,1150.36,89.542" style="stroke: #A80036; stroke-width: 1.0;"/><!--link DataStandardizerApp to DataStandardizer$1--><!--link DataStandardizer$1 to DataStandardizer$2--><!--link DataStandardizerApp to DataStandardizer--><!--link DataStandardizer to DataStandardizerTest--></g></svg>