<?xml version="1.0" encoding="UTF-8" standalone="no"?><svg xmlns="http://www.w3.org/2000/svg" xmlns:xlink="http://www.w3.org/1999/xlink" contentScriptType="application/ecmascript" contentStyleType="text/css" height="855px" preserveAspectRatio="none" style="width:4326px;height:855px;" version="1.1" viewBox="0 0 4326 855" width="4326px" zoomAndPan="magnify"><defs><filter height="300%" id="f1o2v3u5hmfdg5" width="300%" x="-1" y="-1"><feGaussianBlur result="blurOut" stdDeviation="2.0"/><feColorMatrix in="blurOut" result="blurOut2" type="matrix" values="0 0 0 0 0 0 0 0 0 0 0 0 0 0 0 0 0 0 .4 0"/><feOffset dx="4.0" dy="4.0" in="blurOut2" result="blurOut3"/><feBlend in="SourceGraphic" in2="blurOut3" mode="normal"/></filter></defs><g><!--cluster part2--><polygon fill="#FFFFFF" filter="url(#f1o2v3u5hmfdg5)" points="2376,24.5,2418,24.5,2425,48.1094,4304,48.1094,4304,488.5,2376,488.5,2376,24.5" style="stroke: #000000; stroke-width: 1.5;"/><line style="stroke: #000000; stroke-width: 1.5;" x1="2376" x2="2425" y1="48.1094" y2="48.1094"/><text fill="#000000" font-family="sans-serif" font-size="14" font-weight="bold" lengthAdjust="spacingAndGlyphs" textLength="36" x="2380" y="41.0332">part2</text><!--cluster client--><polygon fill="#FFFFFF" filter="url(#f1o2v3u5hmfdg5)" points="735,24.5,780,24.5,787,48.1094,927,48.1094,927,152.5,735,152.5,735,24.5" style="stroke: #000000; stroke-width: 1.5;"/><line style="stroke: #000000; stroke-width: 1.5;" x1="735" x2="787" y1="48.1094" y2="48.1094"/><text fill="#000000" font-family="sans-serif" font-size="14" font-weight="bold" lengthAdjust="spacingAndGlyphs" textLength="39" x="739" y="41.0332">client</text><!--cluster part1--><polygon fill="#FFFFFF" filter="url(#f1o2v3u5hmfdg5)" points="22,185.5,64,185.5,71,209.1094,2352,209.1094,2352,685,22,685,22,185.5" style="stroke: #000000; stroke-width: 1.5;"/><line style="stroke: #000000; stroke-width: 1.5;" x1="22" x2="71" y1="209.1094" y2="209.1094"/><text fill="#000000" font-family="sans-serif" font-size="14" font-weight="bold" lengthAdjust="spacingAndGlyphs" textLength="36" x="26" y="202.0332">part1</text><!--cluster edu.rosehulman.csse374.cheesecake--><polygon fill="#FFFFFF" filter="url(#f1o2v3u5hmfdg5)" points="380,735,650,735,657,758.6094,877,758.6094,877,843,380,843,380,735" style="stroke: #000000; stroke-width: 1.5;"/><line style="stroke: #000000; stroke-width: 1.5;" x1="380" x2="657" y1="758.6094" y2="758.6094"/><text fill="#000000" font-family="sans-serif" font-size="14" font-weight="bold" lengthAdjust="spacingAndGlyphs" textLength="264" x="384" y="751.5332">edu.rosehulman.csse374.cheesecake</text><!--class part2.main--><rect fill="#FEFECE" filter="url(#f1o2v3u5hmfdg5)" height="75.6719" id="part2.main" style="stroke: #A80036; stroke-width: 1.5;" width="159" x="2447.5" y="60.5"/><ellipse cx="2508.75" cy="76.5" fill="#ADD1B2" rx="11" ry="11" style="stroke: #A80036; stroke-width: 1.0;"/><path d="M2511.5156,72.375 Q2511.6719,72.1563 2511.8594,72.0469 Q2512.0469,71.9375 2512.2656,71.9375 Q2512.6406,71.9375 2512.875,72.1953 Q2513.1094,72.4531 2513.1094,73.0625 L2513.1094,74.5156 Q2513.1094,75.125 2512.875,75.3906 Q2512.6406,75.6563 2512.2656,75.6563 Q2511.9219,75.6563 2511.7188,75.4531 Q2511.5156,75.2656 2511.4063,74.75 Q2511.3594,74.3906 2511.1719,74.2031 Q2510.8438,73.8281 2510.2344,73.6094 Q2509.625,73.3906 2509,73.3906 Q2508.2344,73.3906 2507.6016,73.7188 Q2506.9688,74.0469 2506.4766,74.7969 Q2505.9844,75.5469 2505.9844,76.5781 L2505.9844,77.6719 Q2505.9844,78.9063 2506.875,79.7266 Q2507.7656,80.5469 2509.3594,80.5469 Q2510.2969,80.5469 2510.9531,80.2969 Q2511.3438,80.1406 2511.7656,79.7031 Q2512.0313,79.4375 2512.1797,79.3594 Q2512.3281,79.2813 2512.5313,79.2813 Q2512.8594,79.2813 2513.1172,79.5391 Q2513.375,79.7969 2513.375,80.1406 Q2513.375,80.4844 2513.0313,80.8906 Q2512.5313,81.4688 2511.7344,81.7969 Q2510.6563,82.25 2509.3594,82.25 Q2507.8438,82.25 2506.6406,81.625 Q2505.6563,81.125 2504.9688,80.0547 Q2504.2813,78.9844 2504.2813,77.7031 L2504.2813,76.5469 Q2504.2813,75.2188 2504.8984,74.0703 Q2505.5156,72.9219 2506.6094,72.3047 Q2507.7031,71.6875 2508.9375,71.6875 Q2509.6719,71.6875 2510.3203,71.8516 Q2510.9688,72.0156 2511.5156,72.375 Z "/><text fill="#000000" font-family="sans-serif" font-size="12" lengthAdjust="spacingAndGlyphs" textLength="28" x="2529.25" y="81.4102">main</text><line style="stroke: #A80036; stroke-width: 1.5;" x1="2448.5" x2="2605.5" y1="92.5" y2="92.5"/><line style="stroke: #A80036; stroke-width: 1.5;" x1="2448.5" x2="2605.5" y1="100.5" y2="100.5"/><ellipse cx="2458.5" cy="112.918" fill="#84BE84" rx="3" ry="3" style="stroke: #038048; stroke-width: 1.0;"/><text fill="#000000" font-family="sans-serif" font-size="11" lengthAdjust="spacingAndGlyphs" textLength="56" x="2467.5" y="115.9189">void &lt;init&gt;()</text><ellipse cx="2458.5" cy="126.7539" fill="#84BE84" rx="3" ry="3" style="stroke: #038048; stroke-width: 1.0;"/><text fill="#000000" font-family="sans-serif" font-size="11" lengthAdjust="spacingAndGlyphs" text-decoration="underline" textLength="133" x="2467.5" y="129.7549">void main(java.lang.String[])</text><line style="stroke: #000000; stroke-width: 1.0;" x1="2467.5" x2="2600.5" y1="131.7549" y2="131.7549"/><!--class part2.CandyAdder--><rect fill="#FEFECE" filter="url(#f1o2v3u5hmfdg5)" height="61.8359" id="part2.CandyAdder" style="stroke: #A80036; stroke-width: 1.5;" width="613" x="3216.5" y="406.5"/><ellipse cx="3484.25" cy="422.5" fill="#B4A7E5" rx="11" ry="11" style="stroke: #A80036; stroke-width: 1.0;"/><path d="M3485.2031,419.1406 L3485.2031,425.7969 L3486.9219,425.7969 Q3487.5313,425.7969 3487.7969,426.0313 Q3488.0625,426.2656 3488.0625,426.6563 Q3488.0625,427.0313 3487.7969,427.2656 Q3487.5313,427.5 3486.9219,427.5 L3481.7813,427.5 Q3481.1719,427.5 3480.9063,427.2656 Q3480.6406,427.0313 3480.6406,426.6406 Q3480.6406,426.2656 3480.9063,426.0313 Q3481.1719,425.7969 3481.7813,425.7969 L3483.5,425.7969 L3483.5,419.1406 L3481.7813,419.1406 Q3481.1719,419.1406 3480.9063,418.9063 Q3480.6406,418.6719 3480.6406,418.2813 Q3480.6406,417.9063 3480.9063,417.6719 Q3481.1719,417.4375 3481.7813,417.4375 L3486.9219,417.4375 Q3487.5313,417.4375 3487.7969,417.6719 Q3488.0625,417.9063 3488.0625,418.2813 Q3488.0625,418.6719 3487.7969,418.9063 Q3487.5313,419.1406 3486.9219,419.1406 L3485.2031,419.1406 Z "/><text fill="#000000" font-family="sans-serif" font-size="12" font-style="italic" lengthAdjust="spacingAndGlyphs" textLength="69" x="3504.75" y="427.4102">CandyAdder</text><line style="stroke: #A80036; stroke-width: 1.5;" x1="3217.5" x2="3828.5" y1="438.5" y2="438.5"/><line style="stroke: #A80036; stroke-width: 1.5;" x1="3217.5" x2="3828.5" y1="446.5" y2="446.5"/><ellipse cx="3227.5" cy="458.918" fill="#84BE84" rx="3" ry="3" style="stroke: #038048; stroke-width: 1.0;"/><text fill="#000000" font-family="sans-serif" font-size="11" font-style="italic" lengthAdjust="spacingAndGlyphs" textLength="587" x="3236.5" y="461.9189">edu.rosehulman.csse374.cheesecake.PlainCheeseCake add(edu.rosehulman.csse374.cheesecake.PlainCheeseCake)</text><!--class part2.CandyCheeseCakeFactory--><rect fill="#FEFECE" filter="url(#f1o2v3u5hmfdg5)" height="103.3438" id="part2.CandyCheeseCakeFactory" style="stroke: #A80036; stroke-width: 1.5;" width="635" x="3652.5" y="215"/><ellipse cx="3892.25" cy="231" fill="#ADD1B2" rx="11" ry="11" style="stroke: #A80036; stroke-width: 1.0;"/><path d="M3895.0156,226.875 Q3895.1719,226.6563 3895.3594,226.5469 Q3895.5469,226.4375 3895.7656,226.4375 Q3896.1406,226.4375 3896.375,226.6953 Q3896.6094,226.9531 3896.6094,227.5625 L3896.6094,229.0156 Q3896.6094,229.625 3896.375,229.8906 Q3896.1406,230.1563 3895.7656,230.1563 Q3895.4219,230.1563 3895.2188,229.9531 Q3895.0156,229.7656 3894.9063,229.25 Q3894.8594,228.8906 3894.6719,228.7031 Q3894.3438,228.3281 3893.7344,228.1094 Q3893.125,227.8906 3892.5,227.8906 Q3891.7344,227.8906 3891.1016,228.2188 Q3890.4688,228.5469 3889.9766,229.2969 Q3889.4844,230.0469 3889.4844,231.0781 L3889.4844,232.1719 Q3889.4844,233.4063 3890.375,234.2266 Q3891.2656,235.0469 3892.8594,235.0469 Q3893.7969,235.0469 3894.4531,234.7969 Q3894.8438,234.6406 3895.2656,234.2031 Q3895.5313,233.9375 3895.6797,233.8594 Q3895.8281,233.7813 3896.0313,233.7813 Q3896.3594,233.7813 3896.6172,234.0391 Q3896.875,234.2969 3896.875,234.6406 Q3896.875,234.9844 3896.5313,235.3906 Q3896.0313,235.9688 3895.2344,236.2969 Q3894.1563,236.75 3892.8594,236.75 Q3891.3438,236.75 3890.1406,236.125 Q3889.1563,235.625 3888.4688,234.5547 Q3887.7813,233.4844 3887.7813,232.2031 L3887.7813,231.0469 Q3887.7813,229.7188 3888.3984,228.5703 Q3889.0156,227.4219 3890.1094,226.8047 Q3891.2031,226.1875 3892.4375,226.1875 Q3893.1719,226.1875 3893.8203,226.3516 Q3894.4688,226.5156 3895.0156,226.875 Z "/><text fill="#000000" font-family="sans-serif" font-size="12" lengthAdjust="spacingAndGlyphs" textLength="147" x="3912.75" y="235.9102">CandyCheeseCakeFactory</text><line style="stroke: #A80036; stroke-width: 1.5;" x1="3653.5" x2="4286.5" y1="247" y2="247"/><rect fill="none" height="6" style="stroke: #C82930; stroke-width: 1.0;" width="6" x="3660.5" y="256.418"/><text fill="#000000" font-family="sans-serif" font-size="11" lengthAdjust="spacingAndGlyphs" textLength="354" x="3672.5" y="262.4189">edu.rosehulman.csse374.cheesecake.CheeseCakeFactory cheeseCakes</text><rect fill="none" height="6" style="stroke: #C82930; stroke-width: 1.0;" width="6" x="3660.5" y="270.2539"/><text fill="#000000" font-family="sans-serif" font-size="11" lengthAdjust="spacingAndGlyphs" textLength="278" x="3672.5" y="276.2549">java.util.Map&lt;java.lang.String,part2.CandyAdder&gt; candies</text><line style="stroke: #A80036; stroke-width: 1.5;" x1="3653.5" x2="4286.5" y1="282.6719" y2="282.6719"/><ellipse cx="3663.5" cy="295.0898" fill="#84BE84" rx="3" ry="3" style="stroke: #038048; stroke-width: 1.0;"/><text fill="#000000" font-family="sans-serif" font-size="11" lengthAdjust="spacingAndGlyphs" textLength="609" x="3672.5" y="298.0908">void &lt;init&gt;(java.util.Map&lt;java.lang.String,part1.CustomCheeseCakeFactory&gt;, java.util.Map&lt;java.lang.String,part2.CandyAdder&gt;)</text><ellipse cx="3663.5" cy="308.9258" fill="#84BE84" rx="3" ry="3" style="stroke: #038048; stroke-width: 1.0;"/><text fill="#000000" font-family="sans-serif" font-size="11" lengthAdjust="spacingAndGlyphs" textLength="447" x="3672.5" y="311.9268">edu.rosehulman.csse374.cheesecake.PlainCheeseCake createCheeseCake(java.lang.String)</text><!--class part2.MM--><rect fill="#008000" filter="url(#f1o2v3u5hmfdg5)" height="70.0234" id="part2.MM" style="stroke: #A80036; stroke-width: 1.5;" width="352" x="2829" y="402.5"/><rect fill="#008000" height="40.1875" style="stroke: #A80036; stroke-width: 1.5;" width="352" x="2829" y="402.5"/><ellipse cx="2969.75" cy="422.5938" fill="#ADD1B2" rx="11" ry="11" style="stroke: #A80036; stroke-width: 1.0;"/><path d="M2972.5156,418.4688 Q2972.6719,418.25 2972.8594,418.1406 Q2973.0469,418.0313 2973.2656,418.0313 Q2973.6406,418.0313 2973.875,418.2891 Q2974.1094,418.5469 2974.1094,419.1563 L2974.1094,420.6094 Q2974.1094,421.2188 2973.875,421.4844 Q2973.6406,421.75 2973.2656,421.75 Q2972.9219,421.75 2972.7188,421.5469 Q2972.5156,421.3594 2972.4063,420.8438 Q2972.3594,420.4844 2972.1719,420.2969 Q2971.8438,419.9219 2971.2344,419.7031 Q2970.625,419.4844 2970,419.4844 Q2969.2344,419.4844 2968.6016,419.8125 Q2967.9688,420.1406 2967.4766,420.8906 Q2966.9844,421.6406 2966.9844,422.6719 L2966.9844,423.7656 Q2966.9844,425 2967.875,425.8203 Q2968.7656,426.6406 2970.3594,426.6406 Q2971.2969,426.6406 2971.9531,426.3906 Q2972.3438,426.2344 2972.7656,425.7969 Q2973.0313,425.5313 2973.1797,425.4531 Q2973.3281,425.375 2973.5313,425.375 Q2973.8594,425.375 2974.1172,425.6328 Q2974.375,425.8906 2974.375,426.2344 Q2974.375,426.5781 2974.0313,426.9844 Q2973.5313,427.5625 2972.7344,427.8906 Q2971.6563,428.3438 2970.3594,428.3438 Q2968.8438,428.3438 2967.6406,427.7188 Q2966.6563,427.2188 2965.9688,426.1484 Q2965.2813,425.0781 2965.2813,423.7969 L2965.2813,422.6406 Q2965.2813,421.3125 2965.8984,420.1641 Q2966.5156,419.0156 2967.6094,418.3984 Q2968.7031,417.7813 2969.9375,417.7813 Q2970.6719,417.7813 2971.3203,417.9453 Q2971.9688,418.1094 2972.5156,418.4688 Z "/><text fill="#000000" font-family="sans-serif" font-size="12" font-style="italic" lengthAdjust="spacingAndGlyphs" textLength="66" x="2988.25" y="419.957">«decorator»</text><text fill="#000000" font-family="sans-serif" font-size="12" lengthAdjust="spacingAndGlyphs" textLength="18" x="3012.25" y="435.0508">MM</text><line style="stroke: #A80036; stroke-width: 1.5;" x1="2830" x2="3180" y1="442.6875" y2="442.6875"/><line style="stroke: #A80036; stroke-width: 1.5;" x1="2830" x2="3180" y1="450.6875" y2="450.6875"/><ellipse cx="2840" cy="463.1055" fill="#84BE84" rx="3" ry="3" style="stroke: #038048; stroke-width: 1.0;"/><text fill="#000000" font-family="sans-serif" font-size="11" lengthAdjust="spacingAndGlyphs" textLength="326" x="2849" y="466.1064">void &lt;init&gt;(edu.rosehulman.csse374.cheesecake.PlainCheeseCake)</text><!--class part2.MMAdder--><rect fill="#FEFECE" filter="url(#f1o2v3u5hmfdg5)" height="75.6719" id="part2.MMAdder" style="stroke: #A80036; stroke-width: 1.5;" width="595" x="3022.5" y="228.5"/><ellipse cx="3290.75" cy="244.5" fill="#ADD1B2" rx="11" ry="11" style="stroke: #A80036; stroke-width: 1.0;"/><path d="M3293.5156,240.375 Q3293.6719,240.1563 3293.8594,240.0469 Q3294.0469,239.9375 3294.2656,239.9375 Q3294.6406,239.9375 3294.875,240.1953 Q3295.1094,240.4531 3295.1094,241.0625 L3295.1094,242.5156 Q3295.1094,243.125 3294.875,243.3906 Q3294.6406,243.6563 3294.2656,243.6563 Q3293.9219,243.6563 3293.7188,243.4531 Q3293.5156,243.2656 3293.4063,242.75 Q3293.3594,242.3906 3293.1719,242.2031 Q3292.8438,241.8281 3292.2344,241.6094 Q3291.625,241.3906 3291,241.3906 Q3290.2344,241.3906 3289.6016,241.7188 Q3288.9688,242.0469 3288.4766,242.7969 Q3287.9844,243.5469 3287.9844,244.5781 L3287.9844,245.6719 Q3287.9844,246.9063 3288.875,247.7266 Q3289.7656,248.5469 3291.3594,248.5469 Q3292.2969,248.5469 3292.9531,248.2969 Q3293.3438,248.1406 3293.7656,247.7031 Q3294.0313,247.4375 3294.1797,247.3594 Q3294.3281,247.2813 3294.5313,247.2813 Q3294.8594,247.2813 3295.1172,247.5391 Q3295.375,247.7969 3295.375,248.1406 Q3295.375,248.4844 3295.0313,248.8906 Q3294.5313,249.4688 3293.7344,249.7969 Q3292.6563,250.25 3291.3594,250.25 Q3289.8438,250.25 3288.6406,249.625 Q3287.6563,249.125 3286.9688,248.0547 Q3286.2813,246.9844 3286.2813,245.7031 L3286.2813,244.5469 Q3286.2813,243.2188 3286.8984,242.0703 Q3287.5156,240.9219 3288.6094,240.3047 Q3289.7031,239.6875 3290.9375,239.6875 Q3291.6719,239.6875 3292.3203,239.8516 Q3292.9688,240.0156 3293.5156,240.375 Z "/><text fill="#000000" font-family="sans-serif" font-size="12" lengthAdjust="spacingAndGlyphs" textLength="50" x="3311.25" y="249.4102">MMAdder</text><line style="stroke: #A80036; stroke-width: 1.5;" x1="3023.5" x2="3616.5" y1="260.5" y2="260.5"/><line style="stroke: #A80036; stroke-width: 1.5;" x1="3023.5" x2="3616.5" y1="268.5" y2="268.5"/><ellipse cx="3033.5" cy="280.918" fill="#84BE84" rx="3" ry="3" style="stroke: #038048; stroke-width: 1.0;"/><text fill="#000000" font-family="sans-serif" font-size="11" lengthAdjust="spacingAndGlyphs" textLength="56" x="3042.5" y="283.9189">void &lt;init&gt;()</text><ellipse cx="3033.5" cy="294.7539" fill="#84BE84" rx="3" ry="3" style="stroke: #038048; stroke-width: 1.0;"/><text fill="#000000" font-family="sans-serif" font-size="11" lengthAdjust="spacingAndGlyphs" textLength="569" x="3042.5" y="297.7549">edu.rosehulman.csse374.cheesecake.PlainCheeseCake add(edu.rosehulman.csse374.cheesecake.PlainCheeseCake)</text><!--class part2.Reeses--><rect fill="#008000" filter="url(#f1o2v3u5hmfdg5)" height="70.0234" id="part2.Reeses" style="stroke: #A80036; stroke-width: 1.5;" width="352" x="2442" y="402.5"/><rect fill="#008000" height="40.1875" style="stroke: #A80036; stroke-width: 1.5;" width="352" x="2442" y="402.5"/><ellipse cx="2582.75" cy="422.5938" fill="#ADD1B2" rx="11" ry="11" style="stroke: #A80036; stroke-width: 1.0;"/><path d="M2585.5156,418.4688 Q2585.6719,418.25 2585.8594,418.1406 Q2586.0469,418.0313 2586.2656,418.0313 Q2586.6406,418.0313 2586.875,418.2891 Q2587.1094,418.5469 2587.1094,419.1563 L2587.1094,420.6094 Q2587.1094,421.2188 2586.875,421.4844 Q2586.6406,421.75 2586.2656,421.75 Q2585.9219,421.75 2585.7188,421.5469 Q2585.5156,421.3594 2585.4063,420.8438 Q2585.3594,420.4844 2585.1719,420.2969 Q2584.8438,419.9219 2584.2344,419.7031 Q2583.625,419.4844 2583,419.4844 Q2582.2344,419.4844 2581.6016,419.8125 Q2580.9688,420.1406 2580.4766,420.8906 Q2579.9844,421.6406 2579.9844,422.6719 L2579.9844,423.7656 Q2579.9844,425 2580.875,425.8203 Q2581.7656,426.6406 2583.3594,426.6406 Q2584.2969,426.6406 2584.9531,426.3906 Q2585.3438,426.2344 2585.7656,425.7969 Q2586.0313,425.5313 2586.1797,425.4531 Q2586.3281,425.375 2586.5313,425.375 Q2586.8594,425.375 2587.1172,425.6328 Q2587.375,425.8906 2587.375,426.2344 Q2587.375,426.5781 2587.0313,426.9844 Q2586.5313,427.5625 2585.7344,427.8906 Q2584.6563,428.3438 2583.3594,428.3438 Q2581.8438,428.3438 2580.6406,427.7188 Q2579.6563,427.2188 2578.9688,426.1484 Q2578.2813,425.0781 2578.2813,423.7969 L2578.2813,422.6406 Q2578.2813,421.3125 2578.8984,420.1641 Q2579.5156,419.0156 2580.6094,418.3984 Q2581.7031,417.7813 2582.9375,417.7813 Q2583.6719,417.7813 2584.3203,417.9453 Q2584.9688,418.1094 2585.5156,418.4688 Z "/><text fill="#000000" font-family="sans-serif" font-size="12" font-style="italic" lengthAdjust="spacingAndGlyphs" textLength="66" x="2601.25" y="419.957">«decorator»</text><text fill="#000000" font-family="sans-serif" font-size="12" lengthAdjust="spacingAndGlyphs" textLength="44" x="2612.25" y="435.0508">Reeses</text><line style="stroke: #A80036; stroke-width: 1.5;" x1="2443" x2="2793" y1="442.6875" y2="442.6875"/><line style="stroke: #A80036; stroke-width: 1.5;" x1="2443" x2="2793" y1="450.6875" y2="450.6875"/><ellipse cx="2453" cy="463.1055" fill="#84BE84" rx="3" ry="3" style="stroke: #038048; stroke-width: 1.0;"/><text fill="#000000" font-family="sans-serif" font-size="11" lengthAdjust="spacingAndGlyphs" textLength="326" x="2462" y="466.1064">void &lt;init&gt;(edu.rosehulman.csse374.cheesecake.PlainCheeseCake)</text><!--class part2.ReesesAdder--><rect fill="#FEFECE" filter="url(#f1o2v3u5hmfdg5)" height="75.6719" id="part2.ReesesAdder" style="stroke: #A80036; stroke-width: 1.5;" width="595" x="2392.5" y="228.5"/><ellipse cx="2647.75" cy="244.5" fill="#ADD1B2" rx="11" ry="11" style="stroke: #A80036; stroke-width: 1.0;"/><path d="M2650.5156,240.375 Q2650.6719,240.1563 2650.8594,240.0469 Q2651.0469,239.9375 2651.2656,239.9375 Q2651.6406,239.9375 2651.875,240.1953 Q2652.1094,240.4531 2652.1094,241.0625 L2652.1094,242.5156 Q2652.1094,243.125 2651.875,243.3906 Q2651.6406,243.6563 2651.2656,243.6563 Q2650.9219,243.6563 2650.7188,243.4531 Q2650.5156,243.2656 2650.4063,242.75 Q2650.3594,242.3906 2650.1719,242.2031 Q2649.8438,241.8281 2649.2344,241.6094 Q2648.625,241.3906 2648,241.3906 Q2647.2344,241.3906 2646.6016,241.7188 Q2645.9688,242.0469 2645.4766,242.7969 Q2644.9844,243.5469 2644.9844,244.5781 L2644.9844,245.6719 Q2644.9844,246.9063 2645.875,247.7266 Q2646.7656,248.5469 2648.3594,248.5469 Q2649.2969,248.5469 2649.9531,248.2969 Q2650.3438,248.1406 2650.7656,247.7031 Q2651.0313,247.4375 2651.1797,247.3594 Q2651.3281,247.2813 2651.5313,247.2813 Q2651.8594,247.2813 2652.1172,247.5391 Q2652.375,247.7969 2652.375,248.1406 Q2652.375,248.4844 2652.0313,248.8906 Q2651.5313,249.4688 2650.7344,249.7969 Q2649.6563,250.25 2648.3594,250.25 Q2646.8438,250.25 2645.6406,249.625 Q2644.6563,249.125 2643.9688,248.0547 Q2643.2813,246.9844 2643.2813,245.7031 L2643.2813,244.5469 Q2643.2813,243.2188 2643.8984,242.0703 Q2644.5156,240.9219 2645.6094,240.3047 Q2646.7031,239.6875 2647.9375,239.6875 Q2648.6719,239.6875 2649.3203,239.8516 Q2649.9688,240.0156 2650.5156,240.375 Z "/><text fill="#000000" font-family="sans-serif" font-size="12" lengthAdjust="spacingAndGlyphs" textLength="76" x="2668.25" y="249.4102">ReesesAdder</text><line style="stroke: #A80036; stroke-width: 1.5;" x1="2393.5" x2="2986.5" y1="260.5" y2="260.5"/><line style="stroke: #A80036; stroke-width: 1.5;" x1="2393.5" x2="2986.5" y1="268.5" y2="268.5"/><ellipse cx="2403.5" cy="280.918" fill="#84BE84" rx="3" ry="3" style="stroke: #038048; stroke-width: 1.0;"/><text fill="#000000" font-family="sans-serif" font-size="11" lengthAdjust="spacingAndGlyphs" textLength="56" x="2412.5" y="283.9189">void &lt;init&gt;()</text><ellipse cx="2403.5" cy="294.7539" fill="#84BE84" rx="3" ry="3" style="stroke: #038048; stroke-width: 1.0;"/><text fill="#000000" font-family="sans-serif" font-size="11" lengthAdjust="spacingAndGlyphs" textLength="569" x="2412.5" y="297.7549">edu.rosehulman.csse374.cheesecake.PlainCheeseCake add(edu.rosehulman.csse374.cheesecake.PlainCheeseCake)</text><!--class client.CheeseCakeClient--><rect fill="#FEFECE" filter="url(#f1o2v3u5hmfdg5)" height="75.6719" id="client.CheeseCakeClient" style="stroke: #A80036; stroke-width: 1.5;" width="159" x="751.5" y="60.5"/><ellipse cx="776.4" cy="76.5" fill="#ADD1B2" rx="11" ry="11" style="stroke: #A80036; stroke-width: 1.0;"/><path d="M779.1656,72.375 Q779.3219,72.1563 779.5094,72.0469 Q779.6969,71.9375 779.9156,71.9375 Q780.2906,71.9375 780.525,72.1953 Q780.7594,72.4531 780.7594,73.0625 L780.7594,74.5156 Q780.7594,75.125 780.525,75.3906 Q780.2906,75.6563 779.9156,75.6563 Q779.5719,75.6563 779.3688,75.4531 Q779.1656,75.2656 779.0563,74.75 Q779.0094,74.3906 778.8219,74.2031 Q778.4938,73.8281 777.8844,73.6094 Q777.275,73.3906 776.65,73.3906 Q775.8844,73.3906 775.2516,73.7188 Q774.6188,74.0469 774.1266,74.7969 Q773.6344,75.5469 773.6344,76.5781 L773.6344,77.6719 Q773.6344,78.9063 774.525,79.7266 Q775.4156,80.5469 777.0094,80.5469 Q777.9469,80.5469 778.6031,80.2969 Q778.9938,80.1406 779.4156,79.7031 Q779.6813,79.4375 779.8297,79.3594 Q779.9781,79.2813 780.1813,79.2813 Q780.5094,79.2813 780.7672,79.5391 Q781.025,79.7969 781.025,80.1406 Q781.025,80.4844 780.6813,80.8906 Q780.1813,81.4688 779.3844,81.7969 Q778.3063,82.25 777.0094,82.25 Q775.4938,82.25 774.2906,81.625 Q773.3063,81.125 772.6188,80.0547 Q771.9313,78.9844 771.9313,77.7031 L771.9313,76.5469 Q771.9313,75.2188 772.5484,74.0703 Q773.1656,72.9219 774.2594,72.3047 Q775.3531,71.6875 776.5875,71.6875 Q777.3219,71.6875 777.9703,71.8516 Q778.6188,72.0156 779.1656,72.375 Z "/><text fill="#000000" font-family="sans-serif" font-size="12" lengthAdjust="spacingAndGlyphs" textLength="105" x="792.6" y="81.4102">CheeseCakeClient</text><line style="stroke: #A80036; stroke-width: 1.5;" x1="752.5" x2="909.5" y1="92.5" y2="92.5"/><line style="stroke: #A80036; stroke-width: 1.5;" x1="752.5" x2="909.5" y1="100.5" y2="100.5"/><ellipse cx="762.5" cy="112.918" fill="#84BE84" rx="3" ry="3" style="stroke: #038048; stroke-width: 1.0;"/><text fill="#000000" font-family="sans-serif" font-size="11" lengthAdjust="spacingAndGlyphs" textLength="56" x="771.5" y="115.9189">void &lt;init&gt;()</text><ellipse cx="762.5" cy="126.7539" fill="#84BE84" rx="3" ry="3" style="stroke: #038048; stroke-width: 1.0;"/><text fill="#000000" font-family="sans-serif" font-size="11" lengthAdjust="spacingAndGlyphs" text-decoration="underline" textLength="133" x="771.5" y="129.7549">void main(java.lang.String[])</text><line style="stroke: #000000; stroke-width: 1.0;" x1="771.5" x2="904.5" y1="131.7549" y2="131.7549"/><!--class part1.AbstractPlainCheeseCake--><rect fill="#008000" filter="url(#f1o2v3u5hmfdg5)" height="111.5313" id="part1.AbstractPlainCheeseCake" style="stroke: #A80036; stroke-width: 1.5;" width="305" x="1996.5" y="557"/><rect fill="#008000" height="40.1875" style="stroke: #A80036; stroke-width: 1.5;" width="305" x="1996.5" y="557"/><ellipse cx="2072.25" cy="577.0938" fill="#ADD1B2" rx="11" ry="11" style="stroke: #A80036; stroke-width: 1.0;"/><path d="M2075.0156,572.9688 Q2075.1719,572.75 2075.3594,572.6406 Q2075.5469,572.5313 2075.7656,572.5313 Q2076.1406,572.5313 2076.375,572.7891 Q2076.6094,573.0469 2076.6094,573.6563 L2076.6094,575.1094 Q2076.6094,575.7188 2076.375,575.9844 Q2076.1406,576.25 2075.7656,576.25 Q2075.4219,576.25 2075.2188,576.0469 Q2075.0156,575.8594 2074.9063,575.3438 Q2074.8594,574.9844 2074.6719,574.7969 Q2074.3438,574.4219 2073.7344,574.2031 Q2073.125,573.9844 2072.5,573.9844 Q2071.7344,573.9844 2071.1016,574.3125 Q2070.4688,574.6406 2069.9766,575.3906 Q2069.4844,576.1406 2069.4844,577.1719 L2069.4844,578.2656 Q2069.4844,579.5 2070.375,580.3203 Q2071.2656,581.1406 2072.8594,581.1406 Q2073.7969,581.1406 2074.4531,580.8906 Q2074.8438,580.7344 2075.2656,580.2969 Q2075.5313,580.0313 2075.6797,579.9531 Q2075.8281,579.875 2076.0313,579.875 Q2076.3594,579.875 2076.6172,580.1328 Q2076.875,580.3906 2076.875,580.7344 Q2076.875,581.0781 2076.5313,581.4844 Q2076.0313,582.0625 2075.2344,582.3906 Q2074.1563,582.8438 2072.8594,582.8438 Q2071.3438,582.8438 2070.1406,582.2188 Q2069.1563,581.7188 2068.4688,580.6484 Q2067.7813,579.5781 2067.7813,578.2969 L2067.7813,577.1406 Q2067.7813,575.8125 2068.3984,574.6641 Q2069.0156,573.5156 2070.1094,572.8984 Q2071.2031,572.2813 2072.4375,572.2813 Q2073.1719,572.2813 2073.8203,572.4453 Q2074.4688,572.6094 2075.0156,572.9688 Z "/><text fill="#000000" font-family="sans-serif" font-size="12" font-style="italic" lengthAdjust="spacingAndGlyphs" textLength="66" x="2132.25" y="574.457">«decorator»</text><text fill="#000000" font-family="sans-serif" font-size="12" lengthAdjust="spacingAndGlyphs" textLength="145" x="2092.75" y="589.5508">AbstractPlainCheeseCake</text><line style="stroke: #A80036; stroke-width: 1.5;" x1="1997.5" x2="2300.5" y1="597.1875" y2="597.1875"/><polygon fill="none" points="2007.5,604.6055,2011.5,608.6055,2007.5,612.6055,2003.5,608.6055" style="stroke: #B38D22; stroke-width: 1.0;"/><text fill="#000000" font-family="sans-serif" font-size="11" lengthAdjust="spacingAndGlyphs" textLength="103" x="2016.5" y="612.6064">java.lang.String name</text><polygon fill="none" points="2007.5,618.4414,2011.5,622.4414,2007.5,626.4414,2003.5,622.4414" style="stroke: #B38D22; stroke-width: 1.0;"/><text fill="#000000" font-family="sans-serif" font-size="11" lengthAdjust="spacingAndGlyphs" textLength="279" x="2016.5" y="626.4424">edu.rosehulman.csse374.cheesecake.PlainCheeseCake c</text><line style="stroke: #A80036; stroke-width: 1.5;" x1="1997.5" x2="2300.5" y1="632.8594" y2="632.8594"/><ellipse cx="2007.5" cy="645.2773" fill="#84BE84" rx="3" ry="3" style="stroke: #038048; stroke-width: 1.0;"/><text fill="#000000" font-family="sans-serif" font-size="11" lengthAdjust="spacingAndGlyphs" textLength="56" x="2016.5" y="648.2783">void &lt;init&gt;()</text><ellipse cx="2007.5" cy="659.1133" fill="#84BE84" rx="3" ry="3" style="stroke: #038048; stroke-width: 1.0;"/><text fill="#000000" font-family="sans-serif" font-size="11" lengthAdjust="spacingAndGlyphs" textLength="122" x="2016.5" y="662.1143">java.lang.String toString()</text><!--class part1.ChocolateCheeseCakeFactory--><rect fill="#FEFECE" filter="url(#f1o2v3u5hmfdg5)" height="75.6719" id="part1.ChocolateCheeseCakeFactory" style="stroke: #A80036; stroke-width: 1.5;" width="356" x="547" y="228.5"/><ellipse cx="636.75" cy="244.5" fill="#ADD1B2" rx="11" ry="11" style="stroke: #A80036; stroke-width: 1.0;"/><path d="M639.5156,240.375 Q639.6719,240.1563 639.8594,240.0469 Q640.0469,239.9375 640.2656,239.9375 Q640.6406,239.9375 640.875,240.1953 Q641.1094,240.4531 641.1094,241.0625 L641.1094,242.5156 Q641.1094,243.125 640.875,243.3906 Q640.6406,243.6563 640.2656,243.6563 Q639.9219,243.6563 639.7188,243.4531 Q639.5156,243.2656 639.4063,242.75 Q639.3594,242.3906 639.1719,242.2031 Q638.8438,241.8281 638.2344,241.6094 Q637.625,241.3906 637,241.3906 Q636.2344,241.3906 635.6016,241.7188 Q634.9688,242.0469 634.4766,242.7969 Q633.9844,243.5469 633.9844,244.5781 L633.9844,245.6719 Q633.9844,246.9063 634.875,247.7266 Q635.7656,248.5469 637.3594,248.5469 Q638.2969,248.5469 638.9531,248.2969 Q639.3438,248.1406 639.7656,247.7031 Q640.0313,247.4375 640.1797,247.3594 Q640.3281,247.2813 640.5313,247.2813 Q640.8594,247.2813 641.1172,247.5391 Q641.375,247.7969 641.375,248.1406 Q641.375,248.4844 641.0313,248.8906 Q640.5313,249.4688 639.7344,249.7969 Q638.6563,250.25 637.3594,250.25 Q635.8438,250.25 634.6406,249.625 Q633.6563,249.125 632.9688,248.0547 Q632.2813,246.9844 632.2813,245.7031 L632.2813,244.5469 Q632.2813,243.2188 632.8984,242.0703 Q633.5156,240.9219 634.6094,240.3047 Q635.7031,239.6875 636.9375,239.6875 Q637.6719,239.6875 638.3203,239.8516 Q638.9688,240.0156 639.5156,240.375 Z "/><text fill="#000000" font-family="sans-serif" font-size="12" lengthAdjust="spacingAndGlyphs" textLength="168" x="657.25" y="249.4102">ChocolateCheeseCakeFactory</text><line style="stroke: #A80036; stroke-width: 1.5;" x1="548" x2="902" y1="260.5" y2="260.5"/><line style="stroke: #A80036; stroke-width: 1.5;" x1="548" x2="902" y1="268.5" y2="268.5"/><ellipse cx="558" cy="280.918" fill="#84BE84" rx="3" ry="3" style="stroke: #038048; stroke-width: 1.0;"/><text fill="#000000" font-family="sans-serif" font-size="11" lengthAdjust="spacingAndGlyphs" textLength="56" x="567" y="283.9189">void &lt;init&gt;()</text><ellipse cx="558" cy="294.7539" fill="#84BE84" rx="3" ry="3" style="stroke: #038048; stroke-width: 1.0;"/><text fill="#000000" font-family="sans-serif" font-size="11" lengthAdjust="spacingAndGlyphs" textLength="330" x="567" y="297.7549">edu.rosehulman.csse374.cheesecake.PlainCheeseCake makeCake()</text><!--class part1.ChocolateTopping--><rect fill="#008000" filter="url(#f1o2v3u5hmfdg5)" height="70.0234" id="part1.ChocolateTopping" style="stroke: #A80036; stroke-width: 1.5;" width="352" x="1947" y="402.5"/><rect fill="#008000" height="40.1875" style="stroke: #A80036; stroke-width: 1.5;" width="352" x="1947" y="402.5"/><ellipse cx="2068.25" cy="422.5938" fill="#ADD1B2" rx="11" ry="11" style="stroke: #A80036; stroke-width: 1.0;"/><path d="M2071.0156,418.4688 Q2071.1719,418.25 2071.3594,418.1406 Q2071.5469,418.0313 2071.7656,418.0313 Q2072.1406,418.0313 2072.375,418.2891 Q2072.6094,418.5469 2072.6094,419.1563 L2072.6094,420.6094 Q2072.6094,421.2188 2072.375,421.4844 Q2072.1406,421.75 2071.7656,421.75 Q2071.4219,421.75 2071.2188,421.5469 Q2071.0156,421.3594 2070.9063,420.8438 Q2070.8594,420.4844 2070.6719,420.2969 Q2070.3438,419.9219 2069.7344,419.7031 Q2069.125,419.4844 2068.5,419.4844 Q2067.7344,419.4844 2067.1016,419.8125 Q2066.4688,420.1406 2065.9766,420.8906 Q2065.4844,421.6406 2065.4844,422.6719 L2065.4844,423.7656 Q2065.4844,425 2066.375,425.8203 Q2067.2656,426.6406 2068.8594,426.6406 Q2069.7969,426.6406 2070.4531,426.3906 Q2070.8438,426.2344 2071.2656,425.7969 Q2071.5313,425.5313 2071.6797,425.4531 Q2071.8281,425.375 2072.0313,425.375 Q2072.3594,425.375 2072.6172,425.6328 Q2072.875,425.8906 2072.875,426.2344 Q2072.875,426.5781 2072.5313,426.9844 Q2072.0313,427.5625 2071.2344,427.8906 Q2070.1563,428.3438 2068.8594,428.3438 Q2067.3438,428.3438 2066.1406,427.7188 Q2065.1563,427.2188 2064.4688,426.1484 Q2063.7813,425.0781 2063.7813,423.7969 L2063.7813,422.6406 Q2063.7813,421.3125 2064.3984,420.1641 Q2065.0156,419.0156 2066.1094,418.3984 Q2067.2031,417.7813 2068.4375,417.7813 Q2069.1719,417.7813 2069.8203,417.9453 Q2070.4688,418.1094 2071.0156,418.4688 Z "/><text fill="#000000" font-family="sans-serif" font-size="12" font-style="italic" lengthAdjust="spacingAndGlyphs" textLength="66" x="2106.25" y="419.957">«decorator»</text><text fill="#000000" font-family="sans-serif" font-size="12" lengthAdjust="spacingAndGlyphs" textLength="101" x="2088.75" y="435.0508">ChocolateTopping</text><line style="stroke: #A80036; stroke-width: 1.5;" x1="1948" x2="2298" y1="442.6875" y2="442.6875"/><line style="stroke: #A80036; stroke-width: 1.5;" x1="1948" x2="2298" y1="450.6875" y2="450.6875"/><ellipse cx="1958" cy="463.1055" fill="#84BE84" rx="3" ry="3" style="stroke: #038048; stroke-width: 1.0;"/><text fill="#000000" font-family="sans-serif" font-size="11" lengthAdjust="spacingAndGlyphs" textLength="326" x="1967" y="466.1064">void &lt;init&gt;(edu.rosehulman.csse374.cheesecake.PlainCheeseCake)</text><!--class part1.Command--><rect fill="#FEFECE" filter="url(#f1o2v3u5hmfdg5)" height="61.8359" id="part1.Command" style="stroke: #A80036; stroke-width: 1.5;" width="634" x="1045" y="582"/><ellipse cx="1328.25" cy="598" fill="#B4A7E5" rx="11" ry="11" style="stroke: #A80036; stroke-width: 1.0;"/><path d="M1329.2031,594.6406 L1329.2031,601.2969 L1330.9219,601.2969 Q1331.5313,601.2969 1331.7969,601.5313 Q1332.0625,601.7656 1332.0625,602.1563 Q1332.0625,602.5313 1331.7969,602.7656 Q1331.5313,603 1330.9219,603 L1325.7813,603 Q1325.1719,603 1324.9063,602.7656 Q1324.6406,602.5313 1324.6406,602.1406 Q1324.6406,601.7656 1324.9063,601.5313 Q1325.1719,601.2969 1325.7813,601.2969 L1327.5,601.2969 L1327.5,594.6406 L1325.7813,594.6406 Q1325.1719,594.6406 1324.9063,594.4063 Q1324.6406,594.1719 1324.6406,593.7813 Q1324.6406,593.4063 1324.9063,593.1719 Q1325.1719,592.9375 1325.7813,592.9375 L1330.9219,592.9375 Q1331.5313,592.9375 1331.7969,593.1719 Q1332.0625,593.4063 1332.0625,593.7813 Q1332.0625,594.1719 1331.7969,594.4063 Q1331.5313,594.6406 1330.9219,594.6406 L1329.2031,594.6406 Z "/><text fill="#000000" font-family="sans-serif" font-size="12" font-style="italic" lengthAdjust="spacingAndGlyphs" textLength="59" x="1348.75" y="602.9102">Command</text><line style="stroke: #A80036; stroke-width: 1.5;" x1="1046" x2="1678" y1="614" y2="614"/><line style="stroke: #A80036; stroke-width: 1.5;" x1="1046" x2="1678" y1="622" y2="622"/><ellipse cx="1056" cy="634.418" fill="#84BE84" rx="3" ry="3" style="stroke: #038048; stroke-width: 1.0;"/><text fill="#000000" font-family="sans-serif" font-size="11" font-style="italic" lengthAdjust="spacingAndGlyphs" textLength="608" x="1065" y="637.4189">edu.rosehulman.csse374.cheesecake.PlainCheeseCake execute(edu.rosehulman.csse374.cheesecake.PlainCheeseCake)</text><!--class part1.CustomCheeseCakeFactory--><rect fill="#FEFECE" filter="url(#f1o2v3u5hmfdg5)" height="117.1797" id="part1.CustomCheeseCakeFactory" style="stroke: #A80036; stroke-width: 1.5;" width="666" x="398" y="379"/><ellipse cx="648.75" cy="395" fill="#A9DCDF" rx="11" ry="11" style="stroke: #A80036; stroke-width: 1.0;"/><path d="M650.9375,396.7656 L646.7969,396.7656 L646.375,397.7969 L646.7969,397.7969 Q647.4063,397.7969 647.6719,398.0313 Q647.9375,398.2656 647.9375,398.6563 Q647.9375,399.0313 647.6719,399.2656 Q647.4063,399.5 646.7969,399.5 L644.5,399.5 Q643.8906,399.5 643.6328,399.2656 Q643.375,399.0313 643.375,398.6406 Q643.375,398.2656 643.6484,398.0234 Q643.9219,397.7813 644.5469,397.7969 L647.2188,391.1406 L646.1094,391.1406 Q645.5,391.1406 645.2344,390.9063 Q644.9688,390.6719 644.9688,390.2813 Q644.9688,389.9063 645.2344,389.6719 Q645.5,389.4375 646.1094,389.4375 L649.7813,389.4375 L653.1719,397.7969 Q653.7656,397.7969 653.9531,397.9375 Q654.3438,398.2031 654.3438,398.6563 Q654.3438,399.0313 654.0859,399.2656 Q653.8281,399.5 653.2188,399.5 L650.9219,399.5 Q650.3125,399.5 650.0469,399.2656 Q649.7813,399.0313 649.7813,398.6406 Q649.7813,398.2656 650.0469,398.0313 Q650.3125,397.7969 650.9219,397.7969 L651.3438,397.7969 L650.9375,396.7656 Z M650.2188,395.0625 L648.8594,391.6875 L647.4844,395.0625 L650.2188,395.0625 Z "/><text fill="#000000" font-family="sans-serif" font-size="12" font-style="italic" lengthAdjust="spacingAndGlyphs" textLength="156" x="669.25" y="399.9102">CustomCheeseCakeFactory</text><line style="stroke: #A80036; stroke-width: 1.5;" x1="399" x2="1063" y1="411" y2="411"/><polygon fill="none" points="409,418.418,413,422.418,409,426.418,405,422.418" style="stroke: #B38D22; stroke-width: 1.0;"/><text fill="#000000" font-family="sans-serif" font-size="11" lengthAdjust="spacingAndGlyphs" textLength="124" x="418" y="426.4189">part1.Command command</text><line style="stroke: #A80036; stroke-width: 1.5;" x1="399" x2="1063" y1="432.8359" y2="432.8359"/><ellipse cx="409" cy="445.2539" fill="#84BE84" rx="3" ry="3" style="stroke: #038048; stroke-width: 1.0;"/><text fill="#000000" font-family="sans-serif" font-size="11" lengthAdjust="spacingAndGlyphs" textLength="56" x="418" y="448.2549">void &lt;init&gt;()</text><polygon fill="#FFFF44" points="409,454.0898,413,458.0898,409,462.0898,405,458.0898" style="stroke: #B38D22; stroke-width: 1.0;"/><text fill="#000000" font-family="sans-serif" font-size="11" lengthAdjust="spacingAndGlyphs" textLength="640" x="418" y="462.0908">edu.rosehulman.csse374.cheesecake.PlainCheeseCake makeBaseCake(edu.rosehulman.csse374.cheesecake.CheeseCakeFactory)</text><ellipse cx="409" cy="472.9258" fill="#84BE84" rx="3" ry="3" style="stroke: #038048; stroke-width: 1.0;"/><text fill="#000000" font-family="sans-serif" font-size="11" lengthAdjust="spacingAndGlyphs" textLength="168" x="418" y="475.9268">void setCommand(part1.Command)</text><ellipse cx="409" cy="486.7617" fill="#84BE84" rx="3" ry="3" style="stroke: #038048; stroke-width: 1.0;"/><text fill="#000000" font-family="sans-serif" font-size="11" font-style="italic" lengthAdjust="spacingAndGlyphs" textLength="343" x="418" y="489.7627">edu.rosehulman.csse374.cheesecake.PlainCheeseCake makeCake()</text><!--class part1.DrizzleCommand--><rect fill="#FEFECE" filter="url(#f1o2v3u5hmfdg5)" height="75.6719" id="part1.DrizzleCommand" style="stroke: #A80036; stroke-width: 1.5;" width="616" x="1720" y="228.5"/><ellipse cx="1976.25" cy="244.5" fill="#ADD1B2" rx="11" ry="11" style="stroke: #A80036; stroke-width: 1.0;"/><path d="M1979.0156,240.375 Q1979.1719,240.1563 1979.3594,240.0469 Q1979.5469,239.9375 1979.7656,239.9375 Q1980.1406,239.9375 1980.375,240.1953 Q1980.6094,240.4531 1980.6094,241.0625 L1980.6094,242.5156 Q1980.6094,243.125 1980.375,243.3906 Q1980.1406,243.6563 1979.7656,243.6563 Q1979.4219,243.6563 1979.2188,243.4531 Q1979.0156,243.2656 1978.9063,242.75 Q1978.8594,242.3906 1978.6719,242.2031 Q1978.3438,241.8281 1977.7344,241.6094 Q1977.125,241.3906 1976.5,241.3906 Q1975.7344,241.3906 1975.1016,241.7188 Q1974.4688,242.0469 1973.9766,242.7969 Q1973.4844,243.5469 1973.4844,244.5781 L1973.4844,245.6719 Q1973.4844,246.9063 1974.375,247.7266 Q1975.2656,248.5469 1976.8594,248.5469 Q1977.7969,248.5469 1978.4531,248.2969 Q1978.8438,248.1406 1979.2656,247.7031 Q1979.5313,247.4375 1979.6797,247.3594 Q1979.8281,247.2813 1980.0313,247.2813 Q1980.3594,247.2813 1980.6172,247.5391 Q1980.875,247.7969 1980.875,248.1406 Q1980.875,248.4844 1980.5313,248.8906 Q1980.0313,249.4688 1979.2344,249.7969 Q1978.1563,250.25 1976.8594,250.25 Q1975.3438,250.25 1974.1406,249.625 Q1973.1563,249.125 1972.4688,248.0547 Q1971.7813,246.9844 1971.7813,245.7031 L1971.7813,244.5469 Q1971.7813,243.2188 1972.3984,242.0703 Q1973.0156,240.9219 1974.1094,240.3047 Q1975.2031,239.6875 1976.4375,239.6875 Q1977.1719,239.6875 1977.8203,239.8516 Q1978.4688,240.0156 1979.0156,240.375 Z "/><text fill="#000000" font-family="sans-serif" font-size="12" lengthAdjust="spacingAndGlyphs" textLength="95" x="1996.75" y="249.4102">DrizzleCommand</text><line style="stroke: #A80036; stroke-width: 1.5;" x1="1721" x2="2335" y1="260.5" y2="260.5"/><line style="stroke: #A80036; stroke-width: 1.5;" x1="1721" x2="2335" y1="268.5" y2="268.5"/><ellipse cx="1731" cy="280.918" fill="#84BE84" rx="3" ry="3" style="stroke: #038048; stroke-width: 1.0;"/><text fill="#000000" font-family="sans-serif" font-size="11" lengthAdjust="spacingAndGlyphs" textLength="56" x="1740" y="283.9189">void &lt;init&gt;()</text><ellipse cx="1731" cy="294.7539" fill="#84BE84" rx="3" ry="3" style="stroke: #038048; stroke-width: 1.0;"/><text fill="#000000" font-family="sans-serif" font-size="11" lengthAdjust="spacingAndGlyphs" textLength="590" x="1740" y="297.7549">edu.rosehulman.csse374.cheesecake.PlainCheeseCake execute(edu.rosehulman.csse374.cheesecake.PlainCheeseCake)</text><!--class part1.ExtensibleCheesecakeFactory--><rect fill="#FEFECE" filter="url(#f1o2v3u5hmfdg5)" height="89.5078" id="part1.ExtensibleCheesecakeFactory" style="stroke: #A80036; stroke-width: 1.5;" width="473" x="38.5" y="221.5"/><ellipse cx="187.75" cy="237.5" fill="#ADD1B2" rx="11" ry="11" style="stroke: #A80036; stroke-width: 1.0;"/><path d="M190.5156,233.375 Q190.6719,233.1563 190.8594,233.0469 Q191.0469,232.9375 191.2656,232.9375 Q191.6406,232.9375 191.875,233.1953 Q192.1094,233.4531 192.1094,234.0625 L192.1094,235.5156 Q192.1094,236.125 191.875,236.3906 Q191.6406,236.6563 191.2656,236.6563 Q190.9219,236.6563 190.7188,236.4531 Q190.5156,236.2656 190.4063,235.75 Q190.3594,235.3906 190.1719,235.2031 Q189.8438,234.8281 189.2344,234.6094 Q188.625,234.3906 188,234.3906 Q187.2344,234.3906 186.6016,234.7188 Q185.9688,235.0469 185.4766,235.7969 Q184.9844,236.5469 184.9844,237.5781 L184.9844,238.6719 Q184.9844,239.9063 185.875,240.7266 Q186.7656,241.5469 188.3594,241.5469 Q189.2969,241.5469 189.9531,241.2969 Q190.3438,241.1406 190.7656,240.7031 Q191.0313,240.4375 191.1797,240.3594 Q191.3281,240.2813 191.5313,240.2813 Q191.8594,240.2813 192.1172,240.5391 Q192.375,240.7969 192.375,241.1406 Q192.375,241.4844 192.0313,241.8906 Q191.5313,242.4688 190.7344,242.7969 Q189.6563,243.25 188.3594,243.25 Q186.8438,243.25 185.6406,242.625 Q184.6563,242.125 183.9688,241.0547 Q183.2813,239.9844 183.2813,238.7031 L183.2813,237.5469 Q183.2813,236.2188 183.8984,235.0703 Q184.5156,233.9219 185.6094,233.3047 Q186.7031,232.6875 187.9375,232.6875 Q188.6719,232.6875 189.3203,232.8516 Q189.9688,233.0156 190.5156,233.375 Z "/><text fill="#000000" font-family="sans-serif" font-size="12" lengthAdjust="spacingAndGlyphs" textLength="166" x="208.25" y="242.4102">ExtensibleCheesecakeFactory</text><line style="stroke: #A80036; stroke-width: 1.5;" x1="39.5" x2="510.5" y1="253.5" y2="253.5"/><rect fill="none" height="6" style="stroke: #C82930; stroke-width: 1.0;" width="6" x="46.5" y="262.918"/><text fill="#000000" font-family="sans-serif" font-size="11" lengthAdjust="spacingAndGlyphs" textLength="379" x="58.5" y="268.9189">java.util.Map&lt;java.lang.String,part1.CustomCheeseCakeFactory&gt; cheeseCakes</text><line style="stroke: #A80036; stroke-width: 1.5;" x1="39.5" x2="510.5" y1="275.3359" y2="275.3359"/><ellipse cx="49.5" cy="287.7539" fill="#84BE84" rx="3" ry="3" style="stroke: #038048; stroke-width: 1.0;"/><text fill="#000000" font-family="sans-serif" font-size="11" lengthAdjust="spacingAndGlyphs" textLength="366" x="58.5" y="290.7549">void &lt;init&gt;(java.util.Map&lt;java.lang.String,part1.CustomCheeseCakeFactory&gt;)</text><ellipse cx="49.5" cy="301.5898" fill="#84BE84" rx="3" ry="3" style="stroke: #038048; stroke-width: 1.0;"/><text fill="#000000" font-family="sans-serif" font-size="11" lengthAdjust="spacingAndGlyphs" textLength="447" x="58.5" y="304.5908">edu.rosehulman.csse374.cheesecake.PlainCheeseCake createCheeseCake(java.lang.String)</text><!--class part1.PlainCheeseCakeFactory--><rect fill="#FEFECE" filter="url(#f1o2v3u5hmfdg5)" height="75.6719" id="part1.PlainCheeseCakeFactory" style="stroke: #A80036; stroke-width: 1.5;" width="356" x="938" y="228.5"/><ellipse cx="1041.75" cy="244.5" fill="#ADD1B2" rx="11" ry="11" style="stroke: #A80036; stroke-width: 1.0;"/><path d="M1044.5156,240.375 Q1044.6719,240.1563 1044.8594,240.0469 Q1045.0469,239.9375 1045.2656,239.9375 Q1045.6406,239.9375 1045.875,240.1953 Q1046.1094,240.4531 1046.1094,241.0625 L1046.1094,242.5156 Q1046.1094,243.125 1045.875,243.3906 Q1045.6406,243.6563 1045.2656,243.6563 Q1044.9219,243.6563 1044.7188,243.4531 Q1044.5156,243.2656 1044.4063,242.75 Q1044.3594,242.3906 1044.1719,242.2031 Q1043.8438,241.8281 1043.2344,241.6094 Q1042.625,241.3906 1042,241.3906 Q1041.2344,241.3906 1040.6016,241.7188 Q1039.9688,242.0469 1039.4766,242.7969 Q1038.9844,243.5469 1038.9844,244.5781 L1038.9844,245.6719 Q1038.9844,246.9063 1039.875,247.7266 Q1040.7656,248.5469 1042.3594,248.5469 Q1043.2969,248.5469 1043.9531,248.2969 Q1044.3438,248.1406 1044.7656,247.7031 Q1045.0313,247.4375 1045.1797,247.3594 Q1045.3281,247.2813 1045.5313,247.2813 Q1045.8594,247.2813 1046.1172,247.5391 Q1046.375,247.7969 1046.375,248.1406 Q1046.375,248.4844 1046.0313,248.8906 Q1045.5313,249.4688 1044.7344,249.7969 Q1043.6563,250.25 1042.3594,250.25 Q1040.8438,250.25 1039.6406,249.625 Q1038.6563,249.125 1037.9688,248.0547 Q1037.2813,246.9844 1037.2813,245.7031 L1037.2813,244.5469 Q1037.2813,243.2188 1037.8984,242.0703 Q1038.5156,240.9219 1039.6094,240.3047 Q1040.7031,239.6875 1041.9375,239.6875 Q1042.6719,239.6875 1043.3203,239.8516 Q1043.9688,240.0156 1044.5156,240.375 Z "/><text fill="#000000" font-family="sans-serif" font-size="12" lengthAdjust="spacingAndGlyphs" textLength="140" x="1062.25" y="249.4102">PlainCheeseCakeFactory</text><line style="stroke: #A80036; stroke-width: 1.5;" x1="939" x2="1293" y1="260.5" y2="260.5"/><line style="stroke: #A80036; stroke-width: 1.5;" x1="939" x2="1293" y1="268.5" y2="268.5"/><ellipse cx="949" cy="280.918" fill="#84BE84" rx="3" ry="3" style="stroke: #038048; stroke-width: 1.0;"/><text fill="#000000" font-family="sans-serif" font-size="11" lengthAdjust="spacingAndGlyphs" textLength="56" x="958" y="283.9189">void &lt;init&gt;()</text><ellipse cx="949" cy="294.7539" fill="#84BE84" rx="3" ry="3" style="stroke: #038048; stroke-width: 1.0;"/><text fill="#000000" font-family="sans-serif" font-size="11" lengthAdjust="spacingAndGlyphs" textLength="330" x="958" y="297.7549">edu.rosehulman.csse374.cheesecake.PlainCheeseCake makeCake()</text><!--class part1.Strawberries--><rect fill="#008000" filter="url(#f1o2v3u5hmfdg5)" height="70.0234" id="part1.Strawberries" style="stroke: #A80036; stroke-width: 1.5;" width="352" x="1523" y="402.5"/><rect fill="#008000" height="40.1875" style="stroke: #A80036; stroke-width: 1.5;" width="352" x="1523" y="402.5"/><ellipse cx="1659.75" cy="422.5938" fill="#ADD1B2" rx="11" ry="11" style="stroke: #A80036; stroke-width: 1.0;"/><path d="M1662.5156,418.4688 Q1662.6719,418.25 1662.8594,418.1406 Q1663.0469,418.0313 1663.2656,418.0313 Q1663.6406,418.0313 1663.875,418.2891 Q1664.1094,418.5469 1664.1094,419.1563 L1664.1094,420.6094 Q1664.1094,421.2188 1663.875,421.4844 Q1663.6406,421.75 1663.2656,421.75 Q1662.9219,421.75 1662.7188,421.5469 Q1662.5156,421.3594 1662.4063,420.8438 Q1662.3594,420.4844 1662.1719,420.2969 Q1661.8438,419.9219 1661.2344,419.7031 Q1660.625,419.4844 1660,419.4844 Q1659.2344,419.4844 1658.6016,419.8125 Q1657.9688,420.1406 1657.4766,420.8906 Q1656.9844,421.6406 1656.9844,422.6719 L1656.9844,423.7656 Q1656.9844,425 1657.875,425.8203 Q1658.7656,426.6406 1660.3594,426.6406 Q1661.2969,426.6406 1661.9531,426.3906 Q1662.3438,426.2344 1662.7656,425.7969 Q1663.0313,425.5313 1663.1797,425.4531 Q1663.3281,425.375 1663.5313,425.375 Q1663.8594,425.375 1664.1172,425.6328 Q1664.375,425.8906 1664.375,426.2344 Q1664.375,426.5781 1664.0313,426.9844 Q1663.5313,427.5625 1662.7344,427.8906 Q1661.6563,428.3438 1660.3594,428.3438 Q1658.8438,428.3438 1657.6406,427.7188 Q1656.6563,427.2188 1655.9688,426.1484 Q1655.2813,425.0781 1655.2813,423.7969 L1655.2813,422.6406 Q1655.2813,421.3125 1655.8984,420.1641 Q1656.5156,419.0156 1657.6094,418.3984 Q1658.7031,417.7813 1659.9375,417.7813 Q1660.6719,417.7813 1661.3203,417.9453 Q1661.9688,418.1094 1662.5156,418.4688 Z "/><text fill="#000000" font-family="sans-serif" font-size="12" font-style="italic" lengthAdjust="spacingAndGlyphs" textLength="66" x="1682.25" y="419.957">«decorator»</text><text fill="#000000" font-family="sans-serif" font-size="12" lengthAdjust="spacingAndGlyphs" textLength="70" x="1680.25" y="435.0508">Strawberries</text><line style="stroke: #A80036; stroke-width: 1.5;" x1="1524" x2="1874" y1="442.6875" y2="442.6875"/><line style="stroke: #A80036; stroke-width: 1.5;" x1="1524" x2="1874" y1="450.6875" y2="450.6875"/><ellipse cx="1534" cy="463.1055" fill="#84BE84" rx="3" ry="3" style="stroke: #038048; stroke-width: 1.0;"/><text fill="#000000" font-family="sans-serif" font-size="11" lengthAdjust="spacingAndGlyphs" textLength="326" x="1543" y="466.1064">void &lt;init&gt;(edu.rosehulman.csse374.cheesecake.PlainCheeseCake)</text><!--class part1.StrawberryCheeseCakeFactory--><rect fill="#FEFECE" filter="url(#f1o2v3u5hmfdg5)" height="75.6719" id="part1.StrawberryCheeseCakeFactory" style="stroke: #A80036; stroke-width: 1.5;" width="356" x="1329" y="228.5"/><ellipse cx="1417.75" cy="244.5" fill="#ADD1B2" rx="11" ry="11" style="stroke: #A80036; stroke-width: 1.0;"/><path d="M1420.5156,240.375 Q1420.6719,240.1563 1420.8594,240.0469 Q1421.0469,239.9375 1421.2656,239.9375 Q1421.6406,239.9375 1421.875,240.1953 Q1422.1094,240.4531 1422.1094,241.0625 L1422.1094,242.5156 Q1422.1094,243.125 1421.875,243.3906 Q1421.6406,243.6563 1421.2656,243.6563 Q1420.9219,243.6563 1420.7188,243.4531 Q1420.5156,243.2656 1420.4063,242.75 Q1420.3594,242.3906 1420.1719,242.2031 Q1419.8438,241.8281 1419.2344,241.6094 Q1418.625,241.3906 1418,241.3906 Q1417.2344,241.3906 1416.6016,241.7188 Q1415.9688,242.0469 1415.4766,242.7969 Q1414.9844,243.5469 1414.9844,244.5781 L1414.9844,245.6719 Q1414.9844,246.9063 1415.875,247.7266 Q1416.7656,248.5469 1418.3594,248.5469 Q1419.2969,248.5469 1419.9531,248.2969 Q1420.3438,248.1406 1420.7656,247.7031 Q1421.0313,247.4375 1421.1797,247.3594 Q1421.3281,247.2813 1421.5313,247.2813 Q1421.8594,247.2813 1422.1172,247.5391 Q1422.375,247.7969 1422.375,248.1406 Q1422.375,248.4844 1422.0313,248.8906 Q1421.5313,249.4688 1420.7344,249.7969 Q1419.6563,250.25 1418.3594,250.25 Q1416.8438,250.25 1415.6406,249.625 Q1414.6563,249.125 1413.9688,248.0547 Q1413.2813,246.9844 1413.2813,245.7031 L1413.2813,244.5469 Q1413.2813,243.2188 1413.8984,242.0703 Q1414.5156,240.9219 1415.6094,240.3047 Q1416.7031,239.6875 1417.9375,239.6875 Q1418.6719,239.6875 1419.3203,239.8516 Q1419.9688,240.0156 1420.5156,240.375 Z "/><text fill="#000000" font-family="sans-serif" font-size="12" lengthAdjust="spacingAndGlyphs" textLength="170" x="1438.25" y="249.4102">StrawberryCheeseCakeFactory</text><line style="stroke: #A80036; stroke-width: 1.5;" x1="1330" x2="1684" y1="260.5" y2="260.5"/><line style="stroke: #A80036; stroke-width: 1.5;" x1="1330" x2="1684" y1="268.5" y2="268.5"/><ellipse cx="1340" cy="280.918" fill="#84BE84" rx="3" ry="3" style="stroke: #038048; stroke-width: 1.0;"/><text fill="#000000" font-family="sans-serif" font-size="11" lengthAdjust="spacingAndGlyphs" textLength="56" x="1349" y="283.9189">void &lt;init&gt;()</text><ellipse cx="1340" cy="294.7539" fill="#84BE84" rx="3" ry="3" style="stroke: #038048; stroke-width: 1.0;"/><text fill="#000000" font-family="sans-serif" font-size="11" lengthAdjust="spacingAndGlyphs" textLength="330" x="1349" y="297.7549">edu.rosehulman.csse374.cheesecake.PlainCheeseCake makeCake()</text><!--class part1.WhippedTopping--><rect fill="#008000" filter="url(#f1o2v3u5hmfdg5)" height="70.0234" id="part1.WhippedTopping" style="stroke: #A80036; stroke-width: 1.5;" width="352" x="1136" y="402.5"/><rect fill="#008000" height="40.1875" style="stroke: #A80036; stroke-width: 1.5;" width="352" x="1136" y="402.5"/><ellipse cx="1260.75" cy="422.5938" fill="#ADD1B2" rx="11" ry="11" style="stroke: #A80036; stroke-width: 1.0;"/><path d="M1263.5156,418.4688 Q1263.6719,418.25 1263.8594,418.1406 Q1264.0469,418.0313 1264.2656,418.0313 Q1264.6406,418.0313 1264.875,418.2891 Q1265.1094,418.5469 1265.1094,419.1563 L1265.1094,420.6094 Q1265.1094,421.2188 1264.875,421.4844 Q1264.6406,421.75 1264.2656,421.75 Q1263.9219,421.75 1263.7188,421.5469 Q1263.5156,421.3594 1263.4063,420.8438 Q1263.3594,420.4844 1263.1719,420.2969 Q1262.8438,419.9219 1262.2344,419.7031 Q1261.625,419.4844 1261,419.4844 Q1260.2344,419.4844 1259.6016,419.8125 Q1258.9688,420.1406 1258.4766,420.8906 Q1257.9844,421.6406 1257.9844,422.6719 L1257.9844,423.7656 Q1257.9844,425 1258.875,425.8203 Q1259.7656,426.6406 1261.3594,426.6406 Q1262.2969,426.6406 1262.9531,426.3906 Q1263.3438,426.2344 1263.7656,425.7969 Q1264.0313,425.5313 1264.1797,425.4531 Q1264.3281,425.375 1264.5313,425.375 Q1264.8594,425.375 1265.1172,425.6328 Q1265.375,425.8906 1265.375,426.2344 Q1265.375,426.5781 1265.0313,426.9844 Q1264.5313,427.5625 1263.7344,427.8906 Q1262.6563,428.3438 1261.3594,428.3438 Q1259.8438,428.3438 1258.6406,427.7188 Q1257.6563,427.2188 1256.9688,426.1484 Q1256.2813,425.0781 1256.2813,423.7969 L1256.2813,422.6406 Q1256.2813,421.3125 1256.8984,420.1641 Q1257.5156,419.0156 1258.6094,418.3984 Q1259.7031,417.7813 1260.9375,417.7813 Q1261.6719,417.7813 1262.3203,417.9453 Q1262.9688,418.1094 1263.5156,418.4688 Z "/><text fill="#000000" font-family="sans-serif" font-size="12" font-style="italic" lengthAdjust="spacingAndGlyphs" textLength="66" x="1295.25" y="419.957">«decorator»</text><text fill="#000000" font-family="sans-serif" font-size="12" lengthAdjust="spacingAndGlyphs" textLength="94" x="1281.25" y="435.0508">WhippedTopping</text><line style="stroke: #A80036; stroke-width: 1.5;" x1="1137" x2="1487" y1="442.6875" y2="442.6875"/><line style="stroke: #A80036; stroke-width: 1.5;" x1="1137" x2="1487" y1="450.6875" y2="450.6875"/><ellipse cx="1147" cy="463.1055" fill="#84BE84" rx="3" ry="3" style="stroke: #038048; stroke-width: 1.0;"/><text fill="#000000" font-family="sans-serif" font-size="11" lengthAdjust="spacingAndGlyphs" textLength="326" x="1156" y="466.1064">void &lt;init&gt;(edu.rosehulman.csse374.cheesecake.PlainCheeseCake)</text><!--class edu.rosehulman.csse374.cheesecake.PlainCheeseCake--><rect fill="#008000" filter="url(#f1o2v3u5hmfdg5)" height="56.1875" id="edu.rosehulman.csse374.cheesecake.PlainCheeseCake" style="stroke: #A80036; stroke-width: 1.5;" width="133" x="727.5" y="771"/><rect fill="#008000" height="40.1875" style="stroke: #A80036; stroke-width: 1.5;" width="133" x="727.5" y="771"/><ellipse cx="742.5" cy="791.0938" fill="#ADD1B2" rx="11" ry="11" style="stroke: #A80036; stroke-width: 1.0;"/><path d="M745.2656,786.9688 Q745.4219,786.75 745.6094,786.6406 Q745.7969,786.5313 746.0156,786.5313 Q746.3906,786.5313 746.625,786.7891 Q746.8594,787.0469 746.8594,787.6563 L746.8594,789.1094 Q746.8594,789.7188 746.625,789.9844 Q746.3906,790.25 746.0156,790.25 Q745.6719,790.25 745.4688,790.0469 Q745.2656,789.8594 745.1563,789.3438 Q745.1094,788.9844 744.9219,788.7969 Q744.5938,788.4219 743.9844,788.2031 Q743.375,787.9844 742.75,787.9844 Q741.9844,787.9844 741.3516,788.3125 Q740.7188,788.6406 740.2266,789.3906 Q739.7344,790.1406 739.7344,791.1719 L739.7344,792.2656 Q739.7344,793.5 740.625,794.3203 Q741.5156,795.1406 743.1094,795.1406 Q744.0469,795.1406 744.7031,794.8906 Q745.0938,794.7344 745.5156,794.2969 Q745.7813,794.0313 745.9297,793.9531 Q746.0781,793.875 746.2813,793.875 Q746.6094,793.875 746.8672,794.1328 Q747.125,794.3906 747.125,794.7344 Q747.125,795.0781 746.7813,795.4844 Q746.2813,796.0625 745.4844,796.3906 Q744.4063,796.8438 743.1094,796.8438 Q741.5938,796.8438 740.3906,796.2188 Q739.4063,795.7188 738.7188,794.6484 Q738.0313,793.5781 738.0313,792.2969 L738.0313,791.1406 Q738.0313,789.8125 738.6484,788.6641 Q739.2656,787.5156 740.3594,786.8984 Q741.4531,786.2813 742.6875,786.2813 Q743.4219,786.2813 744.0703,786.4453 Q744.7188,786.6094 745.2656,786.9688 Z "/><text fill="#000000" font-family="sans-serif" font-size="12" font-style="italic" lengthAdjust="spacingAndGlyphs" textLength="76" x="769" y="788.457">«component»</text><text fill="#000000" font-family="sans-serif" font-size="12" lengthAdjust="spacingAndGlyphs" textLength="101" x="756.5" y="803.5508">PlainCheeseCake</text><line style="stroke: #A80036; stroke-width: 1.5;" x1="728.5" x2="859.5" y1="811.1875" y2="811.1875"/><line style="stroke: #A80036; stroke-width: 1.5;" x1="728.5" x2="859.5" y1="819.1875" y2="819.1875"/><!--class edu.rosehulman.csse374.cheesecake.CheeseCakeFactory--><rect fill="#FEFECE" filter="url(#f1o2v3u5hmfdg5)" height="48" id="edu.rosehulman.csse374.cheesecake.CheeseCakeFactory" style="stroke: #A80036; stroke-width: 1.5;" width="144" x="396" y="775"/><ellipse cx="411" cy="791" fill="#ADD1B2" rx="11" ry="11" style="stroke: #A80036; stroke-width: 1.0;"/><path d="M413.7656,786.875 Q413.9219,786.6563 414.1094,786.5469 Q414.2969,786.4375 414.5156,786.4375 Q414.8906,786.4375 415.125,786.6953 Q415.3594,786.9531 415.3594,787.5625 L415.3594,789.0156 Q415.3594,789.625 415.125,789.8906 Q414.8906,790.1563 414.5156,790.1563 Q414.1719,790.1563 413.9688,789.9531 Q413.7656,789.7656 413.6563,789.25 Q413.6094,788.8906 413.4219,788.7031 Q413.0938,788.3281 412.4844,788.1094 Q411.875,787.8906 411.25,787.8906 Q410.4844,787.8906 409.8516,788.2188 Q409.2188,788.5469 408.7266,789.2969 Q408.2344,790.0469 408.2344,791.0781 L408.2344,792.1719 Q408.2344,793.4063 409.125,794.2266 Q410.0156,795.0469 411.6094,795.0469 Q412.5469,795.0469 413.2031,794.7969 Q413.5938,794.6406 414.0156,794.2031 Q414.2813,793.9375 414.4297,793.8594 Q414.5781,793.7813 414.7813,793.7813 Q415.1094,793.7813 415.3672,794.0391 Q415.625,794.2969 415.625,794.6406 Q415.625,794.9844 415.2813,795.3906 Q414.7813,795.9688 413.9844,796.2969 Q412.9063,796.75 411.6094,796.75 Q410.0938,796.75 408.8906,796.125 Q407.9063,795.625 407.2188,794.5547 Q406.5313,793.4844 406.5313,792.2031 L406.5313,791.0469 Q406.5313,789.7188 407.1484,788.5703 Q407.7656,787.4219 408.8594,786.8047 Q409.9531,786.1875 411.1875,786.1875 Q411.9219,786.1875 412.5703,786.3516 Q413.2188,786.5156 413.7656,786.875 Z "/><text fill="#000000" font-family="sans-serif" font-size="12" lengthAdjust="spacingAndGlyphs" textLength="112" x="425" y="795.9102">CheeseCakeFactory</text><line style="stroke: #A80036; stroke-width: 1.5;" x1="397" x2="539" y1="807" y2="807"/><line style="stroke: #A80036; stroke-width: 1.5;" x1="397" x2="539" y1="815" y2="815"/><!--class edu.rosehulman.csse374.cheesecake.CheeseCakeUI--><rect fill="#FEFECE" filter="url(#f1o2v3u5hmfdg5)" height="48" id="edu.rosehulman.csse374.cheesecake.CheeseCakeUI" style="stroke: #A80036; stroke-width: 1.5;" width="117" x="575.5" y="775"/><ellipse cx="590.5" cy="791" fill="#ADD1B2" rx="11" ry="11" style="stroke: #A80036; stroke-width: 1.0;"/><path d="M593.2656,786.875 Q593.4219,786.6563 593.6094,786.5469 Q593.7969,786.4375 594.0156,786.4375 Q594.3906,786.4375 594.625,786.6953 Q594.8594,786.9531 594.8594,787.5625 L594.8594,789.0156 Q594.8594,789.625 594.625,789.8906 Q594.3906,790.1563 594.0156,790.1563 Q593.6719,790.1563 593.4688,789.9531 Q593.2656,789.7656 593.1563,789.25 Q593.1094,788.8906 592.9219,788.7031 Q592.5938,788.3281 591.9844,788.1094 Q591.375,787.8906 590.75,787.8906 Q589.9844,787.8906 589.3516,788.2188 Q588.7188,788.5469 588.2266,789.2969 Q587.7344,790.0469 587.7344,791.0781 L587.7344,792.1719 Q587.7344,793.4063 588.625,794.2266 Q589.5156,795.0469 591.1094,795.0469 Q592.0469,795.0469 592.7031,794.7969 Q593.0938,794.6406 593.5156,794.2031 Q593.7813,793.9375 593.9297,793.8594 Q594.0781,793.7813 594.2813,793.7813 Q594.6094,793.7813 594.8672,794.0391 Q595.125,794.2969 595.125,794.6406 Q595.125,794.9844 594.7813,795.3906 Q594.2813,795.9688 593.4844,796.2969 Q592.4063,796.75 591.1094,796.75 Q589.5938,796.75 588.3906,796.125 Q587.4063,795.625 586.7188,794.5547 Q586.0313,793.4844 586.0313,792.2031 L586.0313,791.0469 Q586.0313,789.7188 586.6484,788.5703 Q587.2656,787.4219 588.3594,786.8047 Q589.4531,786.1875 590.6875,786.1875 Q591.4219,786.1875 592.0703,786.3516 Q592.7188,786.5156 593.2656,786.875 Z "/><text fill="#000000" font-family="sans-serif" font-size="12" lengthAdjust="spacingAndGlyphs" textLength="85" x="604.5" y="795.9102">CheeseCakeUI</text><line style="stroke: #A80036; stroke-width: 1.5;" x1="576.5" x2="691.5" y1="807" y2="807"/><line style="stroke: #A80036; stroke-width: 1.5;" x1="576.5" x2="691.5" y1="815" y2="815"/><!--link part1.AbstractPlainCheeseCake to edu.rosehulman.csse374.cheesecake.PlainCheeseCake--><path d="M1996.48,661 C1652.72,661 847.2,661 847.2,661 C847.2,661 847.2,750.741 847.2,750.741 " fill="none" id="part1.AbstractPlainCheeseCake-edu.rosehulman.csse374.cheesecake.PlainCheeseCake" style="stroke: #A80036; stroke-width: 1.0;"/><polygon fill="none" points="854.2,750.741,847.2,770.7406,840.2,750.741,854.2,750.741" style="stroke: #A80036; stroke-width: 1.0;"/><!--link part1.AbstractPlainCheeseCake to edu.rosehulman.csse374.cheesecake.PlainCheeseCake--><path d="M1996.21,653 C1649.67,653 833.9,653 833.9,653 C833.9,653 833.9,765.8497 833.9,765.8497 " fill="none" id="part1.AbstractPlainCheeseCake-edu.rosehulman.csse374.cheesecake.PlainCheeseCake" style="stroke: #008000; stroke-width: 1.0;"/><polygon fill="#008000" points="833.9,770.8497,837.9,761.8497,833.9,765.8497,829.9,761.8497,833.9,770.8497" style="stroke: #008000; stroke-width: 1.0;"/><text fill="#000000" font-family="sans-serif" font-size="13" lengthAdjust="spacingAndGlyphs" textLength="71" x="1436" y="715.4951">«decorates»</text><text fill="#000000" font-family="sans-serif" font-size="13" lengthAdjust="spacingAndGlyphs" textLength="7" x="835.3175" y="760.0044">1</text><!--link part1.WhippedTopping to edu.rosehulman.csse374.cheesecake.PlainCheeseCake--><path d="M1253.33,472.727 C1253.33,504.408 1253.33,546 1253.33,546 C1253.33,546 794,546 794,546 C794,546 794,765.9579 794,765.9579 " fill="none" id="part1.WhippedTopping-edu.rosehulman.csse374.cheesecake.PlainCheeseCake" style="stroke: #008000; stroke-width: 1.0; stroke-dasharray: 7.0,7.0;"/><polygon fill="#008000" points="794,770.9579,798,761.9579,794,765.9579,790,761.9579,794,770.9579" style="stroke: #008000; stroke-width: 1.0;"/><text fill="#000000" font-family="sans-serif" font-size="13" lengthAdjust="spacingAndGlyphs" textLength="71" x="652" y="618.4951">«decorates»</text><text fill="#000000" font-family="sans-serif" font-size="13" lengthAdjust="spacingAndGlyphs" textLength="7" x="786.1906" y="760.1374">1</text><!--link part2.Reeses to part1.AbstractPlainCheeseCake--><path d="M2559.33,472.846 C2559.33,519.282 2559.33,595 2559.33,595 C2559.33,595 2321.5,595 2321.5,595 " fill="none" id="part2.Reeses-part1.AbstractPlainCheeseCake" style="stroke: #A80036; stroke-width: 1.0;"/><polygon fill="none" points="2321.5,602,2301.5,595,2321.5,588,2321.5,602" style="stroke: #A80036; stroke-width: 1.0;"/><!--link part1.ChocolateCheeseCakeFactory to part1.CustomCheeseCakeFactory--><path d="M689.4,304.876 C689.4,304.876 689.4,358.763 689.4,358.763 " fill="none" id="part1.ChocolateCheeseCakeFactory-part1.CustomCheeseCakeFactory" style="stroke: #A80036; stroke-width: 1.0;"/><polygon fill="none" points="696.4,358.763,689.4,378.763,682.4,358.763,696.4,358.763" style="stroke: #A80036; stroke-width: 1.0;"/><!--link client.CheeseCakeClient to part1.DrizzleCommand--><path d="M910.583,89 C1162.41,89 1925.33,89 1925.33,89 C1925.33,89 1925.33,223.422 1925.33,223.422 " fill="none" id="client.CheeseCakeClient-part1.DrizzleCommand" style="stroke: #A80036; stroke-width: 1.0; stroke-dasharray: 7.0,7.0;"/><polygon fill="#A80036" points="1925.33,228.422,1929.33,219.422,1925.33,223.422,1921.33,219.422,1925.33,228.422" style="stroke: #A80036; stroke-width: 1.0;"/><text fill="#000000" font-family="sans-serif" font-size="13" lengthAdjust="spacingAndGlyphs" textLength="7" x="1899.4185" y="217.77">1</text><!--link part1.Command to edu.rosehulman.csse374.cheesecake.PlainCheeseCake--><path d="M1044.72,624 C926.553,624 820.6,624 820.6,624 C820.6,624 820.6,765.8832 820.6,765.8832 " fill="none" id="part1.Command-edu.rosehulman.csse374.cheesecake.PlainCheeseCake" style="stroke: #A80036; stroke-width: 1.0; stroke-dasharray: 7.0,7.0;"/><polygon fill="#A80036" points="820.6,770.8832,824.6,761.8832,820.6,765.8832,816.6,761.8832,820.6,770.8832" style="stroke: #A80036; stroke-width: 1.0;"/><text fill="#000000" font-family="sans-serif" font-size="13" lengthAdjust="spacingAndGlyphs" textLength="7" x="818.9419" y="760.045">1</text><!--link part1.DrizzleCommand to edu.rosehulman.csse374.cheesecake.PlainCheeseCake--><path d="M1923,304.899 C1923,424.6 1923,783 1923,783 C1923,783 865.826,783 865.826,783 " fill="none" id="part1.DrizzleCommand-edu.rosehulman.csse374.cheesecake.PlainCheeseCake" style="stroke: #A80036; stroke-width: 1.0; stroke-dasharray: 7.0,7.0;"/><polygon fill="#A80036" points="860.826,783,869.826,787,865.826,783,869.826,779,860.826,783" style="stroke: #A80036; stroke-width: 1.0;"/><text fill="#000000" font-family="sans-serif" font-size="13" lengthAdjust="spacingAndGlyphs" textLength="7" x="868.5179" y="777.8791">1</text><!--link part1.ChocolateTopping to edu.rosehulman.csse374.cheesecake.PlainCheeseCake--><path d="M1971.75,472.712 C1971.75,561.594 1971.75,788 1971.75,788 C1971.75,788 865.695,788 865.695,788 " fill="none" id="part1.ChocolateTopping-edu.rosehulman.csse374.cheesecake.PlainCheeseCake" style="stroke: #008000; stroke-width: 1.0; stroke-dasharray: 7.0,7.0;"/><polygon fill="#008000" points="860.695,788,869.695,792,865.695,788,869.695,784,860.695,788" style="stroke: #008000; stroke-width: 1.0;"/><text fill="#000000" font-family="sans-serif" font-size="13" lengthAdjust="spacingAndGlyphs" textLength="71" x="938" y="618.4951">«decorates»</text><text fill="#000000" font-family="sans-serif" font-size="13" lengthAdjust="spacingAndGlyphs" textLength="7" x="868.3726" y="783.426">1</text><!--link part1.Strawberries to part1.AbstractPlainCheeseCake--><path d="M1809.67,472.613 C1809.67,510.66 1809.67,566 1809.67,566 C1809.67,566 1976.21,566 1976.21,566 " fill="none" id="part1.Strawberries-part1.AbstractPlainCheeseCake" style="stroke: #A80036; stroke-width: 1.0;"/><polygon fill="none" points="1976.21,559,1996.21,566,1976.21,573,1976.21,559" style="stroke: #A80036; stroke-width: 1.0;"/><!--link part1.StrawberryCheeseCakeFactory to edu.rosehulman.csse374.cheesecake.PlainCheeseCake--><path d="M1505.5,304.708 C1505.5,382.504 1505.5,552 1505.5,552 C1505.5,552 807.3,552 807.3,552 C807.3,552 807.3,765.666 807.3,765.666 " fill="none" id="part1.StrawberryCheeseCakeFactory-edu.rosehulman.csse374.cheesecake.PlainCheeseCake" style="stroke: #A80036; stroke-width: 1.0; stroke-dasharray: 7.0,7.0;"/><polygon fill="#A80036" points="807.3,770.666,811.3,761.666,807.3,765.666,803.3,761.666,807.3,770.666" style="stroke: #A80036; stroke-width: 1.0;"/><text fill="#000000" font-family="sans-serif" font-size="13" lengthAdjust="spacingAndGlyphs" textLength="7" x="802.4437" y="760.231">1</text><!--link part1.WhippedTopping to part1.AbstractPlainCheeseCake--><path d="M1370.67,472.652 C1370.67,513.096 1370.67,574 1370.67,574 C1370.67,574 1976.16,574 1976.16,574 " fill="none" id="part1.WhippedTopping-part1.AbstractPlainCheeseCake" style="stroke: #A80036; stroke-width: 1.0;"/><polygon fill="none" points="1976.16,567,1996.16,574,1976.16,581,1976.16,567" style="stroke: #A80036; stroke-width: 1.0;"/><!--link part1.ChocolateTopping to part1.AbstractPlainCheeseCake--><path d="M2147.75,472.593 C2147.75,472.593 2147.75,536.895 2147.75,536.895 " fill="none" id="part1.ChocolateTopping-part1.AbstractPlainCheeseCake" style="stroke: #A80036; stroke-width: 1.0;"/><polygon fill="none" points="2154.75,536.895,2147.75,556.895,2140.75,536.895,2154.75,536.895" style="stroke: #A80036; stroke-width: 1.0;"/><!--link part2.CandyCheeseCakeFactory to part1.ExtensibleCheesecakeFactory--><path d="M3652.17,306 C3652.17,306 516.62,306 516.62,306 " fill="none" id="part2.CandyCheeseCakeFactory-part1.ExtensibleCheesecakeFactory" style="stroke: #A80036; stroke-width: 1.0; stroke-dasharray: 7.0,7.0;"/><polygon fill="#A80036" points="511.62,306,520.62,310,516.62,306,520.62,302,511.62,306" style="stroke: #A80036; stroke-width: 1.0;"/><text fill="#000000" font-family="sans-serif" font-size="13" lengthAdjust="spacingAndGlyphs" textLength="7" x="519.4989" y="304.5426">1</text><!--link part2.main to part2.MMAdder--><path d="M2606.67,99 C2807.76,99 3320,99 3320,99 C3320,99 3320,223.492 3320,223.492 " fill="none" id="part2.main-part2.MMAdder" style="stroke: #A80036; stroke-width: 1.0; stroke-dasharray: 7.0,7.0;"/><polygon fill="#A80036" points="3320,228.492,3324,219.492,3320,223.492,3316,219.492,3320,228.492" style="stroke: #A80036; stroke-width: 1.0;"/><text fill="#000000" font-family="sans-serif" font-size="13" lengthAdjust="spacingAndGlyphs" textLength="7" x="3312.3547" y="217.5671">1</text><!--link part1.StrawberryCheeseCakeFactory to part1.Strawberries--><path d="M1604,304.876 C1604,304.876 1604,397.453 1604,397.453 " fill="none" id="part1.StrawberryCheeseCakeFactory-part1.Strawberries" style="stroke: #A80036; stroke-width: 1.0; stroke-dasharray: 7.0,7.0;"/><polygon fill="#A80036" points="1604,402.453,1608,393.453,1604,397.453,1600,393.453,1604,402.453" style="stroke: #A80036; stroke-width: 1.0;"/><text fill="#000000" font-family="sans-serif" font-size="13" lengthAdjust="spacingAndGlyphs" textLength="7" x="1578.2234" y="391.7736">1</text><!--link part2.CandyCheeseCakeFactory to edu.rosehulman.csse374.cheesecake.CheeseCakeFactory--><path d="M4058.5,318.206 C4058.5,392.079 4058.5,519 4058.5,519 C4058.5,519 516.333,519 516.333,519 C516.333,519 516.333,754.642 516.333,754.642 " fill="none" id="part2.CandyCheeseCakeFactory-edu.rosehulman.csse374.cheesecake.CheeseCakeFactory" style="stroke: #A80036; stroke-width: 1.0;"/><polygon fill="none" points="523.333,754.642,516.333,774.6417,509.333,754.642,523.333,754.642" style="stroke: #A80036; stroke-width: 1.0;"/><!--link part2.CandyCheeseCakeFactory to edu.rosehulman.csse374.cheesecake.CheeseCakeFactory--><path d="M3944,318.174 C3944,390.456 3944,513 3944,513 C3944,513 492.667,513 492.667,513 C492.667,513 492.667,769.6158 492.667,769.6158 " fill="none" id="part2.CandyCheeseCakeFactory-edu.rosehulman.csse374.cheesecake.CheeseCakeFactory" style="stroke: #A80036; stroke-width: 1.0;"/><polygon fill="#A80036" points="492.667,774.6158,496.667,765.6158,492.667,769.6158,488.667,765.6158,492.667,774.6158" style="stroke: #A80036; stroke-width: 1.0;"/><text fill="#000000" font-family="sans-serif" font-size="13" lengthAdjust="spacingAndGlyphs" textLength="7" x="490.8265" y="764.2604">1</text><!--link part1.PlainCheeseCakeFactory to edu.rosehulman.csse374.cheesecake.PlainCheeseCake--><path d="M1115.43,304.668 C1115.43,380.093 1115.43,541 1115.43,541 C1115.43,541 780.7,541 780.7,541 C780.7,541 780.7,765.8983 780.7,765.8983 " fill="none" id="part1.PlainCheeseCakeFactory-edu.rosehulman.csse374.cheesecake.PlainCheeseCake" style="stroke: #A80036; stroke-width: 1.0; stroke-dasharray: 7.0,7.0;"/><polygon fill="#A80036" points="780.7,770.8983,784.7,761.8983,780.7,765.8983,776.7,761.8983,780.7,770.8983" style="stroke: #A80036; stroke-width: 1.0;"/><text fill="#000000" font-family="sans-serif" font-size="13" lengthAdjust="spacingAndGlyphs" textLength="7" x="769.815" y="760.0635">1</text><!--link part1.ExtensibleCheesecakeFactory to edu.rosehulman.csse374.cheesecake.CheeseCakeFactory--><path d="M127.875,311.653 C127.875,441.557 127.875,807 127.875,807 C127.875,807 375.868,807 375.868,807 " fill="none" id="part1.ExtensibleCheesecakeFactory-edu.rosehulman.csse374.cheesecake.CheeseCakeFactory" style="stroke: #A80036; stroke-width: 1.0;"/><polygon fill="none" points="375.868,799.9999,395.868,807,375.868,813.9999,375.868,799.9999" style="stroke: #A80036; stroke-width: 1.0;"/><!--link part1.PlainCheeseCakeFactory to part1.Command--><path d="M1125.71,304.573 C1125.71,304.573 1125.71,576.958 1125.71,576.958 " fill="none" id="part1.PlainCheeseCakeFactory-part1.Command" style="stroke: #A80036; stroke-width: 1.0; stroke-dasharray: 7.0,7.0;"/><polygon fill="#A80036" points="1125.71,581.958,1129.71,572.958,1125.71,576.958,1121.71,572.958,1125.71,581.958" style="stroke: #A80036; stroke-width: 1.0;"/><text fill="#000000" font-family="sans-serif" font-size="13" lengthAdjust="spacingAndGlyphs" textLength="7" x="1066.2559" y="570.9691">1</text><!--link client.CheeseCakeClient to edu.rosehulman.csse374.cheesecake.CheeseCakeUI--><path d="M905.5,136.599 C905.5,203.25 905.5,334 905.5,334 C905.5,334 1074.29,334 1074.29,334 C1074.29,334 1074.29,524 1074.29,524 C1074.29,524 614.5,524 614.5,524 C614.5,524 614.5,769.5956 614.5,769.5956 " fill="none" id="client.CheeseCakeClient-edu.rosehulman.csse374.cheesecake.CheeseCakeUI" style="stroke: #A80036; stroke-width: 1.0; stroke-dasharray: 7.0,7.0;"/><polygon fill="#A80036" points="614.5,774.5956,618.5,765.5956,614.5,769.5956,610.5,765.5956,614.5,774.5956" style="stroke: #A80036; stroke-width: 1.0;"/><text fill="#000000" font-family="sans-serif" font-size="13" lengthAdjust="spacingAndGlyphs" textLength="7" x="601.8938" y="764.2355">1</text><!--link client.CheeseCakeClient to part1.PlainCheeseCakeFactory--><path d="M908,136.548 C908,189.77 908,280 908,280 C908,280 932.801,280 932.801,280 " fill="none" id="client.CheeseCakeClient-part1.PlainCheeseCakeFactory" style="stroke: #A80036; stroke-width: 1.0; stroke-dasharray: 7.0,7.0;"/><polygon fill="#A80036" points="937.801,280,928.801,276,932.801,280,928.801,284,937.801,280" style="stroke: #A80036; stroke-width: 1.0;"/><text fill="#000000" font-family="sans-serif" font-size="13" lengthAdjust="spacingAndGlyphs" textLength="7" x="923.1356" y="277.7415">1</text><!--link part2.CandyCheeseCakeFactory to part1.CustomCheeseCakeFactory--><path d="M3652.41,308 C2890.57,308 1022,308 1022,308 C1022,308 1022,373.812 1022,373.812 " fill="none" id="part2.CandyCheeseCakeFactory-part1.CustomCheeseCakeFactory" style="stroke: #A80036; stroke-width: 1.0; stroke-dasharray: 7.0,7.0;"/><polygon fill="#A80036" points="1022,378.812,1026,369.812,1022,373.812,1018,369.812,1022,378.812" style="stroke: #A80036; stroke-width: 1.0;"/><text fill="#000000" font-family="sans-serif" font-size="13" lengthAdjust="spacingAndGlyphs" textLength="5" x="1052.1609" y="368.19">*</text><!--link part1.CustomCheeseCakeFactory to edu.rosehulman.csse374.cheesecake.CheeseCakeFactory--><path d="M421.667,496.386 C421.667,496.386 421.667,769.6568 421.667,769.6568 " fill="none" id="part1.CustomCheeseCakeFactory-edu.rosehulman.csse374.cheesecake.CheeseCakeFactory" style="stroke: #A80036; stroke-width: 1.0; stroke-dasharray: 7.0,7.0;"/><polygon fill="#A80036" points="421.667,774.6568,425.667,765.6568,421.667,769.6568,417.667,765.6568,421.667,774.6568" style="stroke: #A80036; stroke-width: 1.0;"/><text fill="#000000" font-family="sans-serif" font-size="13" lengthAdjust="spacingAndGlyphs" textLength="7" x="402.5202" y="764.3114">1</text><!--link client.CheeseCakeClient to part1.ChocolateCheeseCakeFactory--><path d="M852.5,136.622 C852.5,136.622 852.5,223.239 852.5,223.239 " fill="none" id="client.CheeseCakeClient-part1.ChocolateCheeseCakeFactory" style="stroke: #A80036; stroke-width: 1.0; stroke-dasharray: 7.0,7.0;"/><polygon fill="#A80036" points="852.5,228.239,856.5,219.239,852.5,223.239,848.5,219.239,852.5,228.239" style="stroke: #A80036; stroke-width: 1.0;"/><text fill="#000000" font-family="sans-serif" font-size="13" lengthAdjust="spacingAndGlyphs" textLength="7" x="867.5875" y="217.5544">1</text><!--link part1.PlainCheeseCakeFactory to edu.rosehulman.csse374.cheesecake.CheeseCakeFactory--><path d="M1105.14,304.599 C1105.14,371.25 1105.14,502 1105.14,502 C1105.14,502 445.333,502 445.333,502 C445.333,502 445.333,769.9468 445.333,769.9468 " fill="none" id="part1.PlainCheeseCakeFactory-edu.rosehulman.csse374.cheesecake.CheeseCakeFactory" style="stroke: #A80036; stroke-width: 1.0; stroke-dasharray: 7.0,7.0;"/><polygon fill="#A80036" points="445.333,774.9468,449.333,765.9468,445.333,769.9468,441.333,765.9468,445.333,774.9468" style="stroke: #A80036; stroke-width: 1.0;"/><text fill="#000000" font-family="sans-serif" font-size="13" lengthAdjust="spacingAndGlyphs" textLength="7" x="431.6277" y="764.2736">1</text><!--link part2.main to part2.CandyCheeseCakeFactory--><path d="M2553.5,136.836 C2553.5,173.743 2553.5,224 2553.5,224 C2553.5,224 3647.11,224 3647.11,224 " fill="none" id="part2.main-part2.CandyCheeseCakeFactory" style="stroke: #A80036; stroke-width: 1.0; stroke-dasharray: 7.0,7.0;"/><polygon fill="#A80036" points="3652.11,224,3643.11,220,3647.11,224,3643.11,228,3652.11,224" style="stroke: #A80036; stroke-width: 1.0;"/><text fill="#000000" font-family="sans-serif" font-size="13" lengthAdjust="spacingAndGlyphs" textLength="7" x="3637.5774" y="220.3116">1</text><!--link part1.StrawberryCheeseCakeFactory to part1.Command--><path d="M1514.25,304.573 C1514.25,304.573 1514.25,576.958 1514.25,576.958 " fill="none" id="part1.StrawberryCheeseCakeFactory-part1.Command" style="stroke: #A80036; stroke-width: 1.0; stroke-dasharray: 7.0,7.0;"/><polygon fill="#A80036" points="1514.25,581.958,1518.25,572.958,1514.25,576.958,1510.25,572.958,1514.25,581.958" style="stroke: #A80036; stroke-width: 1.0;"/><text fill="#000000" font-family="sans-serif" font-size="13" lengthAdjust="spacingAndGlyphs" textLength="7" x="1539.7891" y="570.9691">1</text><!--link part1.DrizzleCommand to part1.Command--><path d="M1899,304.573 C1899,394.584 1899,613 1899,613 C1899,613 1699.03,613 1699.03,613 " fill="none" id="part1.DrizzleCommand-part1.Command" style="stroke: #A80036; stroke-width: 1.0; stroke-dasharray: 7.0,7.0;"/><polygon fill="none" points="1699.03,620,1679.03,613,1699.03,606,1699.03,620" style="stroke: #A80036; stroke-width: 1.0;"/><!--link part1.CustomCheeseCakeFactory to part1.Command--><path d="M1054.5,496.427 C1054.5,496.427 1054.5,576.559 1054.5,576.559 " fill="none" id="part1.CustomCheeseCakeFactory-part1.Command" style="stroke: #A80036; stroke-width: 1.0;"/><polygon fill="#A80036" points="1054.5,581.559,1058.5,572.559,1054.5,576.559,1050.5,572.559,1054.5,581.559" style="stroke: #A80036; stroke-width: 1.0;"/><text fill="#000000" font-family="sans-serif" font-size="13" lengthAdjust="spacingAndGlyphs" textLength="7" x="1029.5203" y="576.7888">1</text><!--link part2.CandyCheeseCakeFactory to part2.CandyAdder--><path d="M3741,318.27 C3741,318.27 3741,401.276 3741,401.276 " fill="none" id="part2.CandyCheeseCakeFactory-part2.CandyAdder" style="stroke: #A80036; stroke-width: 1.0;"/><polygon fill="#A80036" points="3741,406.276,3745,397.276,3741,401.276,3737,397.276,3741,406.276" style="stroke: #A80036; stroke-width: 1.0;"/><text fill="#000000" font-family="sans-serif" font-size="13" lengthAdjust="spacingAndGlyphs" textLength="5" x="3780.4469" y="395.7343">*</text><!--link part1.ChocolateCheeseCakeFactory to edu.rosehulman.csse374.cheesecake.CheeseCakeFactory--><path d="M618.2,304.755 C618.2,332.07 618.2,364 618.2,364 C618.2,364 306.625,364 306.625,364 C306.625,364 306.625,791 306.625,791 C306.625,791 390.808,791 390.808,791 " fill="none" id="part1.ChocolateCheeseCakeFactory-edu.rosehulman.csse374.cheesecake.CheeseCakeFactory" style="stroke: #A80036; stroke-width: 1.0; stroke-dasharray: 7.0,7.0;"/><polygon fill="#A80036" points="395.808,791,386.808,787,390.808,791,386.808,795,395.808,791" style="stroke: #A80036; stroke-width: 1.0;"/><text fill="#000000" font-family="sans-serif" font-size="13" lengthAdjust="spacingAndGlyphs" textLength="7" x="381.0023" y="786.8632">1</text><!--link part2.MMAdder to part2.MM--><path d="M3101.75,304.876 C3101.75,304.876 3101.75,397.453 3101.75,397.453 " fill="none" id="part2.MMAdder-part2.MM" style="stroke: #A80036; stroke-width: 1.0; stroke-dasharray: 7.0,7.0;"/><polygon fill="#A80036" points="3101.75,402.453,3105.75,393.453,3101.75,397.453,3097.75,393.453,3101.75,402.453" style="stroke: #A80036; stroke-width: 1.0;"/><text fill="#000000" font-family="sans-serif" font-size="13" lengthAdjust="spacingAndGlyphs" textLength="7" x="3112.5258" y="391.7736">1</text><!--link part1.ChocolateCheeseCakeFactory to edu.rosehulman.csse374.cheesecake.PlainCheeseCake--><path d="M831.8,304.812 C831.8,308.556 831.8,311 831.8,311 C831.8,311 1094.86,311 1094.86,311 C1094.86,311 1094.86,535 1094.86,535 C1094.86,535 767.4,535 767.4,535 C767.4,535 767.4,765.7474 767.4,765.7474 " fill="none" id="part1.ChocolateCheeseCakeFactory-edu.rosehulman.csse374.cheesecake.PlainCheeseCake" style="stroke: #A80036; stroke-width: 1.0; stroke-dasharray: 7.0,7.0;"/><polygon fill="#A80036" points="767.4,770.7474,771.4,761.7474,767.4,765.7474,763.4,761.7474,767.4,770.7474" style="stroke: #A80036; stroke-width: 1.0;"/><text fill="#000000" font-family="sans-serif" font-size="13" lengthAdjust="spacingAndGlyphs" textLength="7" x="753.8156" y="760.3297">1</text><!--link part2.ReesesAdder to edu.rosehulman.csse374.cheesecake.PlainCheeseCake--><path d="M2417.25,304.861 C2417.25,426.248 2417.25,794 2417.25,794 C2417.25,794 865.66,794 865.66,794 " fill="none" id="part2.ReesesAdder-edu.rosehulman.csse374.cheesecake.PlainCheeseCake" style="stroke: #A80036; stroke-width: 1.0; stroke-dasharray: 7.0,7.0;"/><polygon fill="#A80036" points="860.66,794,869.66,798,865.66,794,869.66,790,860.66,794" style="stroke: #A80036; stroke-width: 1.0;"/><text fill="#000000" font-family="sans-serif" font-size="13" lengthAdjust="spacingAndGlyphs" textLength="7" x="868.2657" y="788.5078">1</text><!--link part1.ChocolateCheeseCakeFactory to part1.Command--><path d="M760.6,304.852 C760.6,326.396 760.6,349 760.6,349 C760.6,349 1084.57,349 1084.57,349 C1084.57,349 1084.57,576.94 1084.57,576.94 " fill="none" id="part1.ChocolateCheeseCakeFactory-part1.Command" style="stroke: #A80036; stroke-width: 1.0; stroke-dasharray: 7.0,7.0;"/><polygon fill="#A80036" points="1084.57,581.94,1088.57,572.94,1084.57,576.94,1080.57,572.94,1084.57,581.94" style="stroke: #A80036; stroke-width: 1.0;"/><text fill="#000000" font-family="sans-serif" font-size="13" lengthAdjust="spacingAndGlyphs" textLength="7" x="1029.2852" y="572.766">1</text><!--link part2.CandyAdder to edu.rosehulman.csse374.cheesecake.PlainCheeseCake--><path d="M3523,468.796 C3523,559.48 3523,816 3523,816 C3523,816 865.781,816 865.781,816 " fill="none" id="part2.CandyAdder-edu.rosehulman.csse374.cheesecake.PlainCheeseCake" style="stroke: #A80036; stroke-width: 1.0; stroke-dasharray: 7.0,7.0;"/><polygon fill="#A80036" points="860.781,816,869.781,820,865.781,816,869.781,812,860.781,816" style="stroke: #A80036; stroke-width: 1.0;"/><text fill="#000000" font-family="sans-serif" font-size="13" lengthAdjust="spacingAndGlyphs" textLength="7" x="868.468" y="814.4885">1</text><!--link part2.MM to part1.AbstractPlainCheeseCake--><path d="M2946.33,472.722 C2946.33,528.772 2946.33,632 2946.33,632 C2946.33,632 2321.79,632 2321.79,632 " fill="none" id="part2.MM-part1.AbstractPlainCheeseCake" style="stroke: #A80036; stroke-width: 1.0;"/><polygon fill="none" points="2321.79,639,2301.79,632,2321.79,625,2321.79,639" style="stroke: #A80036; stroke-width: 1.0;"/><!--link part1.StrawberryCheeseCakeFactory to part1.CustomCheeseCakeFactory--><path d="M1382,304.531 C1382,341.144 1382,391 1382,391 C1382,391 1084.13,391 1084.13,391 " fill="none" id="part1.StrawberryCheeseCakeFactory-part1.CustomCheeseCakeFactory" style="stroke: #A80036; stroke-width: 1.0;"/><polygon fill="none" points="1084.13,398,1064.13,391,1084.13,384,1084.13,398" style="stroke: #A80036; stroke-width: 1.0;"/><!--link part1.StrawberryCheeseCakeFactory to edu.rosehulman.csse374.cheesecake.CheeseCakeFactory--><path d="M1496.75,304.5 C1496.75,372.51 1496.75,508 1496.75,508 C1496.75,508 469,508 469,508 C469,508 469,769.69 469,769.69 " fill="none" id="part1.StrawberryCheeseCakeFactory-edu.rosehulman.csse374.cheesecake.CheeseCakeFactory" style="stroke: #A80036; stroke-width: 1.0; stroke-dasharray: 7.0,7.0;"/><polygon fill="#A80036" points="469,774.69,473,765.69,469,769.69,465,765.69,469,774.69" style="stroke: #A80036; stroke-width: 1.0;"/><text fill="#000000" font-family="sans-serif" font-size="13" lengthAdjust="spacingAndGlyphs" textLength="7" x="461.3594" y="763.9507">1</text><!--link part1.CustomCheeseCakeFactory to edu.rosehulman.csse374.cheesecake.PlainCheeseCake--><path d="M754.1,496.386 C754.1,496.386 754.1,765.749 754.1,765.749 " fill="none" id="part1.CustomCheeseCakeFactory-edu.rosehulman.csse374.cheesecake.PlainCheeseCake" style="stroke: #A80036; stroke-width: 1.0; stroke-dasharray: 7.0,7.0;"/><polygon fill="#A80036" points="754.1,770.749,758.1,761.749,754.1,765.749,750.1,761.749,754.1,770.749" style="stroke: #A80036; stroke-width: 1.0;"/><text fill="#000000" font-family="sans-serif" font-size="13" lengthAdjust="spacingAndGlyphs" textLength="7" x="737.6063" y="760.3322">1</text><!--link part1.Strawberries to edu.rosehulman.csse374.cheesecake.PlainCheeseCake--><path d="M1744.33,472.554 C1744.33,559.295 1744.33,777 1744.33,777 C1744.33,777 865.826,777 865.826,777 " fill="none" id="part1.Strawberries-edu.rosehulman.csse374.cheesecake.PlainCheeseCake" style="stroke: #008000; stroke-width: 1.0; stroke-dasharray: 7.0,7.0;"/><polygon fill="#008000" points="860.826,777,869.826,781,865.826,777,869.826,773,860.826,777" style="stroke: #008000; stroke-width: 1.0;"/><text fill="#000000" font-family="sans-serif" font-size="13" lengthAdjust="spacingAndGlyphs" textLength="71" x="795" y="618.4951">«decorates»</text><text fill="#000000" font-family="sans-serif" font-size="13" lengthAdjust="spacingAndGlyphs" textLength="7" x="868.4701" y="767.5766">1</text><!--link part2.main to part1.ChocolateCheeseCakeFactory--><path d="M2447.25,70 C2123.44,70 924.25,70 924.25,70 C924.25,70 924.25,254 924.25,254 C924.25,254 908.303,254 908.303,254 " fill="none" id="part2.main-part1.ChocolateCheeseCakeFactory" style="stroke: #A80036; stroke-width: 1.0; stroke-dasharray: 7.0,7.0;"/><polygon fill="#A80036" points="903.303,254,912.303,258,908.303,254,912.303,250,903.303,254" style="stroke: #A80036; stroke-width: 1.0;"/><text fill="#000000" font-family="sans-serif" font-size="13" lengthAdjust="spacingAndGlyphs" textLength="7" x="910.9728" y="250.6446">1</text><!--link part2.main to edu.rosehulman.csse374.cheesecake.CheeseCakeUI--><path d="M2447.06,127 C2405.9,127 2364.25,127 2364.25,127 C2364.25,127 2364.25,530 2364.25,530 C2364.25,530 653.5,530 653.5,530 C653.5,530 653.5,769.6536 653.5,769.6536 " fill="none" id="part2.main-edu.rosehulman.csse374.cheesecake.CheeseCakeUI" style="stroke: #A80036; stroke-width: 1.0; stroke-dasharray: 7.0,7.0;"/><polygon fill="#A80036" points="653.5,774.6536,657.5,765.6536,653.5,769.6536,649.5,765.6536,653.5,774.6536" style="stroke: #A80036; stroke-width: 1.0;"/><text fill="#000000" font-family="sans-serif" font-size="13" lengthAdjust="spacingAndGlyphs" textLength="7" x="650.4" y="764.3076">1</text><!--link part1.StrawberryCheeseCakeFactory to part1.WhippedTopping--><path d="M1435,304.876 C1435,304.876 1435,397.453 1435,397.453 " fill="none" id="part1.StrawberryCheeseCakeFactory-part1.WhippedTopping" style="stroke: #A80036; stroke-width: 1.0; stroke-dasharray: 7.0,7.0;"/><polygon fill="#A80036" points="1435,402.453,1439,393.453,1435,397.453,1431,393.453,1435,402.453" style="stroke: #A80036; stroke-width: 1.0;"/><text fill="#000000" font-family="sans-serif" font-size="13" lengthAdjust="spacingAndGlyphs" textLength="7" x="1450.7797" y="391.7736">1</text><!--link part2.main to part1.DrizzleCommand--><path d="M2447.27,118 C2331.54,118 2130.67,118 2130.67,118 C2130.67,118 2130.67,223.258 2130.67,223.258 " fill="none" id="part2.main-part1.DrizzleCommand" style="stroke: #A80036; stroke-width: 1.0; stroke-dasharray: 7.0,7.0;"/><polygon fill="#A80036" points="2130.67,228.258,2134.67,219.258,2130.67,223.258,2126.67,219.258,2130.67,228.258" style="stroke: #A80036; stroke-width: 1.0;"/><text fill="#000000" font-family="sans-serif" font-size="13" lengthAdjust="spacingAndGlyphs" textLength="7" x="2141.3347" y="217.5768">1</text><!--link part2.ReesesAdder to part2.Reeses--><path d="M2618,304.876 C2618,304.876 2618,397.453 2618,397.453 " fill="none" id="part2.ReesesAdder-part2.Reeses" style="stroke: #A80036; stroke-width: 1.0; stroke-dasharray: 7.0,7.0;"/><polygon fill="#A80036" points="2618,402.453,2622,393.453,2618,397.453,2614,393.453,2618,402.453" style="stroke: #A80036; stroke-width: 1.0;"/><text fill="#000000" font-family="sans-serif" font-size="13" lengthAdjust="spacingAndGlyphs" textLength="7" x="2610.3328" y="391.7736">1</text><!--link part2.MMAdder to part2.CandyAdder--><path d="M3483.83,304.876 C3483.83,304.876 3483.83,386.388 3483.83,386.388 " fill="none" id="part2.MMAdder-part2.CandyAdder" style="stroke: #A80036; stroke-width: 1.0; stroke-dasharray: 7.0,7.0;"/><polygon fill="none" points="3490.83,386.388,3483.83,406.388,3476.83,386.388,3490.83,386.388" style="stroke: #A80036; stroke-width: 1.0;"/><!--link part2.ReesesAdder to part2.CandyAdder--><path d="M2908.25,304.77 C2908.25,307.379 2908.25,309 2908.25,309 C2908.25,309 3350.17,309 3350.17,309 C3350.17,309 3350.17,386.394 3350.17,386.394 " fill="none" id="part2.ReesesAdder-part2.CandyAdder" style="stroke: #A80036; stroke-width: 1.0; stroke-dasharray: 7.0,7.0;"/><polygon fill="none" points="3357.17,386.394,3350.17,406.394,3343.17,386.394,3357.17,386.394" style="stroke: #A80036; stroke-width: 1.0;"/><!--link part2.main to part1.StrawberryCheeseCakeFactory--><path d="M2447.16,99 C2216.63,99 1566.33,99 1566.33,99 C1566.33,99 1566.33,223.492 1566.33,223.492 " fill="none" id="part2.main-part1.StrawberryCheeseCakeFactory" style="stroke: #A80036; stroke-width: 1.0; stroke-dasharray: 7.0,7.0;"/><polygon fill="#A80036" points="1566.33,228.492,1570.33,219.492,1566.33,223.492,1562.33,219.492,1566.33,228.492" style="stroke: #A80036; stroke-width: 1.0;"/><text fill="#000000" font-family="sans-serif" font-size="13" lengthAdjust="spacingAndGlyphs" textLength="7" x="1569.6237" y="217.5671">1</text><!--link part1.PlainCheeseCakeFactory to part1.CustomCheeseCakeFactory--><path d="M980,304.876 C980,304.876 980,358.763 980,358.763 " fill="none" id="part1.PlainCheeseCakeFactory-part1.CustomCheeseCakeFactory" style="stroke: #A80036; stroke-width: 1.0;"/><polygon fill="none" points="987,358.763,980,378.763,973,358.763,987,358.763" style="stroke: #A80036; stroke-width: 1.0;"/><!--link part2.Reeses to edu.rosehulman.csse374.cheesecake.PlainCheeseCake--><path d="M2676.67,472.82 C2676.67,563.783 2676.67,799 2676.67,799 C2676.67,799 865.728,799 865.728,799 " fill="none" id="part2.Reeses-edu.rosehulman.csse374.cheesecake.PlainCheeseCake" style="stroke: #008000; stroke-width: 1.0; stroke-dasharray: 7.0,7.0;"/><polygon fill="#008000" points="860.728,799,869.728,803,865.728,799,869.728,795,860.728,799" style="stroke: #008000; stroke-width: 1.0;"/><text fill="#000000" font-family="sans-serif" font-size="13" lengthAdjust="spacingAndGlyphs" textLength="71" x="2582" y="618.4951">«decorates»</text><text fill="#000000" font-family="sans-serif" font-size="13" lengthAdjust="spacingAndGlyphs" textLength="7" x="868.4092" y="795.6291">1</text><!--link part2.MMAdder to edu.rosehulman.csse374.cheesecake.PlainCheeseCake--><path d="M3198.75,304.788 C3198.75,428.728 3198.75,811 3198.75,811 C3198.75,811 865.511,811 865.511,811 " fill="none" id="part2.MMAdder-edu.rosehulman.csse374.cheesecake.PlainCheeseCake" style="stroke: #A80036; stroke-width: 1.0; stroke-dasharray: 7.0,7.0;"/><polygon fill="#A80036" points="860.511,811,869.511,815,865.511,811,869.511,807,860.511,811" style="stroke: #A80036; stroke-width: 1.0;"/><text fill="#000000" font-family="sans-serif" font-size="13" lengthAdjust="spacingAndGlyphs" textLength="7" x="868.606" y="826.8171">1</text><!--link client.CheeseCakeClient to part1.ExtensibleCheesecakeFactory--><path d="M802,136.706 C802,174.585 802,227 802,227 C802,227 516.523,227 516.523,227 " fill="none" id="client.CheeseCakeClient-part1.ExtensibleCheesecakeFactory" style="stroke: #A80036; stroke-width: 1.0; stroke-dasharray: 7.0,7.0;"/><polygon fill="#A80036" points="511.523,227,520.523,231,516.523,227,520.523,223,511.523,227" style="stroke: #A80036; stroke-width: 1.0;"/><text fill="#000000" font-family="sans-serif" font-size="13" lengthAdjust="spacingAndGlyphs" textLength="7" x="519.3988" y="222.9504">1</text><!--link client.CheeseCakeClient to part1.StrawberryCheeseCakeFactory--><path d="M910.671,108 C1077.37,108 1447.67,108 1447.67,108 C1447.67,108 1447.67,223.132 1447.67,223.132 " fill="none" id="client.CheeseCakeClient-part1.StrawberryCheeseCakeFactory" style="stroke: #A80036; stroke-width: 1.0; stroke-dasharray: 7.0,7.0;"/><polygon fill="#A80036" points="1447.67,228.132,1451.67,219.132,1447.67,223.132,1443.67,219.132,1447.67,228.132" style="stroke: #A80036; stroke-width: 1.0;"/><text fill="#000000" font-family="sans-serif" font-size="13" lengthAdjust="spacingAndGlyphs" textLength="7" x="1429.8711" y="217.716">1</text><!--link part1.DrizzleCommand to part1.ChocolateTopping--><path d="M2123,304.876 C2123,304.876 2123,397.453 2123,397.453 " fill="none" id="part1.DrizzleCommand-part1.ChocolateTopping" style="stroke: #A80036; stroke-width: 1.0; stroke-dasharray: 7.0,7.0;"/><polygon fill="#A80036" points="2123,402.453,2127,393.453,2123,397.453,2119,393.453,2123,402.453" style="stroke: #A80036; stroke-width: 1.0;"/><text fill="#000000" font-family="sans-serif" font-size="13" lengthAdjust="spacingAndGlyphs" textLength="7" x="2115.3328" y="391.7736">1</text><!--link part2.main to part1.PlainCheeseCakeFactory--><path d="M2447.35,80 C2149.2,80 1116,80 1116,80 C1116,80 1116,223.309 1116,223.309 " fill="none" id="part2.main-part1.PlainCheeseCakeFactory" style="stroke: #A80036; stroke-width: 1.0; stroke-dasharray: 7.0,7.0;"/><polygon fill="#A80036" points="1116,228.309,1120,219.309,1116,223.309,1112,219.309,1116,228.309" style="stroke: #A80036; stroke-width: 1.0;"/><text fill="#000000" font-family="sans-serif" font-size="13" lengthAdjust="spacingAndGlyphs" textLength="7" x="1108.3766" y="217.6369">1</text><!--link part2.CandyCheeseCakeFactory to edu.rosehulman.csse374.cheesecake.PlainCheeseCake--><path d="M4173,318.261 C4173,456.164 4173,822 4173,822 C4173,822 865.737,822 865.737,822 " fill="none" id="part2.CandyCheeseCakeFactory-edu.rosehulman.csse374.cheesecake.PlainCheeseCake" style="stroke: #A80036; stroke-width: 1.0; stroke-dasharray: 7.0,7.0;"/><polygon fill="#A80036" points="860.737,822,869.737,826,865.737,822,869.737,818,860.737,822" style="stroke: #A80036; stroke-width: 1.0;"/><text fill="#000000" font-family="sans-serif" font-size="13" lengthAdjust="spacingAndGlyphs" textLength="7" x="868.4192" y="838.8947">1</text><!--link part2.main to part2.ReesesAdder--><path d="M2500.5,136.622 C2500.5,136.622 2500.5,223.239 2500.5,223.239 " fill="none" id="part2.main-part2.ReesesAdder" style="stroke: #A80036; stroke-width: 1.0; stroke-dasharray: 7.0,7.0;"/><polygon fill="#A80036" points="2500.5,228.239,2504.5,219.239,2500.5,223.239,2496.5,219.239,2500.5,228.239" style="stroke: #A80036; stroke-width: 1.0;"/><text fill="#000000" font-family="sans-serif" font-size="13" lengthAdjust="spacingAndGlyphs" textLength="7" x="2459.1219" y="217.5544">1</text><!--link part1.ExtensibleCheesecakeFactory to edu.rosehulman.csse374.cheesecake.PlainCheeseCake--><path d="M217.25,311.533 C217.25,403.226 217.25,603 217.25,603 C217.25,603 740.8,603 740.8,603 C740.8,603 740.8,765.918 740.8,765.918 " fill="none" id="part1.ExtensibleCheesecakeFactory-edu.rosehulman.csse374.cheesecake.PlainCheeseCake" style="stroke: #A80036; stroke-width: 1.0; stroke-dasharray: 7.0,7.0;"/><polygon fill="#A80036" points="740.8,770.918,744.8,761.918,740.8,765.918,736.8,761.918,740.8,770.918" style="stroke: #A80036; stroke-width: 1.0;"/><text fill="#000000" font-family="sans-serif" font-size="13" lengthAdjust="spacingAndGlyphs" textLength="7" x="720.6881" y="760.0881">1</text><!--link part2.MM to edu.rosehulman.csse374.cheesecake.PlainCheeseCake--><path d="M3063.67,472.737 C3063.67,564.72 3063.67,805 3063.67,805 C3063.67,805 865.698,805 865.698,805 " fill="none" id="part2.MM-edu.rosehulman.csse374.cheesecake.PlainCheeseCake" style="stroke: #008000; stroke-width: 1.0; stroke-dasharray: 7.0,7.0;"/><polygon fill="#008000" points="860.698,805,869.698,809,865.698,805,869.698,801,860.698,805" style="stroke: #008000; stroke-width: 1.0;"/><text fill="#000000" font-family="sans-serif" font-size="13" lengthAdjust="spacingAndGlyphs" textLength="71" x="2911" y="618.4951">«decorates»</text><text fill="#000000" font-family="sans-serif" font-size="13" lengthAdjust="spacingAndGlyphs" textLength="7" x="868.3759" y="802.2853">1</text><!--link part1.ExtensibleCheesecakeFactory to part1.CustomCheeseCakeFactory--><path d="M454.75,311.876 C454.75,311.876 454.75,373.995 454.75,373.995 " fill="none" id="part1.ExtensibleCheesecakeFactory-part1.CustomCheeseCakeFactory" style="stroke: #A80036; stroke-width: 1.0;"/><polygon fill="#A80036" points="454.75,378.995,458.75,369.995,454.75,373.995,450.75,369.995,454.75,378.995" style="stroke: #A80036; stroke-width: 1.0;"/><text fill="#000000" font-family="sans-serif" font-size="13" lengthAdjust="spacingAndGlyphs" textLength="5" x="414.0352" y="367.9802">*</text></g></svg>