<?xml version="1.0" encoding="UTF-8" standalone="no"?><svg xmlns="http://www.w3.org/2000/svg" xmlns:xlink="http://www.w3.org/1999/xlink" contentScriptType="application/ecmascript" contentStyleType="text/css" height="1099px" preserveAspectRatio="none" style="width:2434px;height:1099px;" version="1.1" viewBox="0 0 2434 1099" width="2434px" zoomAndPan="magnify"><defs><filter height="300%" id="f14jrlv91wklc" width="300%" x="-1" y="-1"><feGaussianBlur result="blurOut" stdDeviation="2.0"/><feColorMatrix in="blurOut" result="blurOut2" type="matrix" values="0 0 0 0 0 0 0 0 0 0 0 0 0 0 0 0 0 0 .4 0"/><feOffset dx="4.0" dy="4.0" in="blurOut2" result="blurOut3"/><feBlend in="SourceGraphic" in2="blurOut3" mode="normal"/></filter></defs><g><rect fill="#FFFFFF" filter="url(#f14jrlv91wklc)" height="999.6797" style="stroke: #A80036; stroke-width: 1.0;" width="10" x="196.5" y="49.6094"/><rect fill="#FFFFFF" filter="url(#f14jrlv91wklc)" height="963.3281" style="stroke: #A80036; stroke-width: 1.0;" width="10" x="201.5" y="85.9609"/><rect fill="#FFFFFF" filter="url(#f14jrlv91wklc)" height="874.625" style="stroke: #A80036; stroke-width: 1.0;" width="10" x="206.5" y="174.6641"/><rect fill="#FFFFFF" filter="url(#f14jrlv91wklc)" height="785.9219" style="stroke: #A80036; stroke-width: 1.0;" width="10" x="211.5" y="263.3672"/><rect fill="#FFFFFF" filter="url(#f14jrlv91wklc)" height="697.2188" style="stroke: #A80036; stroke-width: 1.0;" width="10" x="216.5" y="352.0703"/><rect fill="#FFFFFF" filter="url(#f14jrlv91wklc)" height="467.8125" style="stroke: #A80036; stroke-width: 1.0;" width="10" x="221.5" y="581.4766"/><rect fill="#FFFFFF" filter="url(#f14jrlv91wklc)" height="238.4063" style="stroke: #A80036; stroke-width: 1.0;" width="10" x="226.5" y="810.8828"/><rect fill="#FFFFFF" filter="url(#f14jrlv91wklc)" height="199.4063" style="stroke: #A80036; stroke-width: 1.0;" width="10" x="586.5" y="382.0703"/><rect fill="#FFFFFF" filter="url(#f14jrlv91wklc)" height="140.0547" style="stroke: #A80036; stroke-width: 1.0;" width="10" x="591.5" y="420.4219"/><rect fill="#FFFFFF" filter="url(#f14jrlv91wklc)" height="69.7031" style="stroke: #A80036; stroke-width: 1.0;" width="10" x="596.5" y="463.7734"/><rect fill="#FFFFFF" filter="url(#f14jrlv91wklc)" height="199.4063" style="stroke: #A80036; stroke-width: 1.0;" width="10" x="586.5" y="611.4766"/><rect fill="#FFFFFF" filter="url(#f14jrlv91wklc)" height="140.0547" style="stroke: #A80036; stroke-width: 1.0;" width="10" x="591.5" y="649.8281"/><rect fill="#FFFFFF" filter="url(#f14jrlv91wklc)" height="69.7031" style="stroke: #A80036; stroke-width: 1.0;" width="10" x="596.5" y="693.1797"/><rect fill="#FFFFFF" filter="url(#f14jrlv91wklc)" height="199.4063" style="stroke: #A80036; stroke-width: 1.0;" width="10" x="586.5" y="840.8828"/><rect fill="#FFFFFF" filter="url(#f14jrlv91wklc)" height="140.0547" style="stroke: #A80036; stroke-width: 1.0;" width="10" x="591.5" y="879.2344"/><rect fill="#FFFFFF" filter="url(#f14jrlv91wklc)" height="69.7031" style="stroke: #A80036; stroke-width: 1.0;" width="10" x="596.5" y="922.5859"/><rect fill="#FFFFFF" filter="url(#f14jrlv91wklc)" height="58.7031" style="stroke: #A80036; stroke-width: 1.0;" width="10" x="1037.5" y="115.9609"/><rect fill="#FFFFFF" filter="url(#f14jrlv91wklc)" height="58.7031" style="stroke: #A80036; stroke-width: 1.0;" width="10" x="1468" y="204.6641"/><rect fill="#FFFFFF" filter="url(#f14jrlv91wklc)" height="58.7031" style="stroke: #A80036; stroke-width: 1.0;" width="10" x="1869" y="293.3672"/><line style="stroke: #A80036; stroke-width: 1.0; stroke-dasharray: 5.0,5.0;" x1="201" x2="201" y1="39.6094" y2="1058.2891"/><line style="stroke: #A80036; stroke-width: 1.0; stroke-dasharray: 5.0,5.0;" x1="591" x2="591" y1="39.6094" y2="1058.2891"/><line style="stroke: #A80036; stroke-width: 1.0; stroke-dasharray: 5.0,5.0;" x1="1042.5" x2="1042.5" y1="39.6094" y2="1058.2891"/><line style="stroke: #A80036; stroke-width: 1.0; stroke-dasharray: 5.0,5.0;" x1="1472.5" x2="1472.5" y1="39.6094" y2="1058.2891"/><line style="stroke: #A80036; stroke-width: 1.0; stroke-dasharray: 5.0,5.0;" x1="1873.5" x2="1873.5" y1="39.6094" y2="1058.2891"/><line style="stroke: #A80036; stroke-width: 1.0; stroke-dasharray: 5.0,5.0;" x1="2253.5" x2="2253.5" y1="39.6094" y2="1058.2891"/><rect fill="#FEFECE" filter="url(#f14jrlv91wklc)" height="31.6094" style="stroke: #A80036; stroke-width: 1.5;" width="383" x="8" y="3"/><text fill="#000000" font-family="sans-serif" font-size="14" lengthAdjust="spacingAndGlyphs" textLength="369" x="15" y="24.5332">headfirst.designpatterns.observer.weather.WeatherStation</text><rect fill="#FEFECE" filter="url(#f14jrlv91wklc)" height="31.6094" style="stroke: #A80036; stroke-width: 1.5;" width="383" x="8" y="1057.2891"/><text fill="#000000" font-family="sans-serif" font-size="14" lengthAdjust="spacingAndGlyphs" textLength="369" x="15" y="1078.8223">headfirst.designpatterns.observer.weather.WeatherStation</text><rect fill="#FEFECE" filter="url(#f14jrlv91wklc)" height="31.6094" style="stroke: #A80036; stroke-width: 1.5;" width="369" x="405" y="3"/><text fill="#000000" font-family="sans-serif" font-size="14" lengthAdjust="spacingAndGlyphs" textLength="355" x="412" y="24.5332">headfirst.designpatterns.observer.weather.WeatherData</text><rect fill="#FEFECE" filter="url(#f14jrlv91wklc)" height="31.6094" style="stroke: #A80036; stroke-width: 1.5;" width="369" x="405" y="1057.2891"/><text fill="#000000" font-family="sans-serif" font-size="14" lengthAdjust="spacingAndGlyphs" textLength="355" x="412" y="1078.8223">headfirst.designpatterns.observer.weather.WeatherData</text><rect fill="#FEFECE" filter="url(#f14jrlv91wklc)" height="31.6094" style="stroke: #A80036; stroke-width: 1.5;" width="446" x="817.5" y="3"/><text fill="#000000" font-family="sans-serif" font-size="14" lengthAdjust="spacingAndGlyphs" textLength="432" x="824.5" y="24.5332">headfirst.designpatterns.observer.weather.CurrentConditionsDisplay</text><rect fill="#FEFECE" filter="url(#f14jrlv91wklc)" height="31.6094" style="stroke: #A80036; stroke-width: 1.5;" width="446" x="817.5" y="1057.2891"/><text fill="#000000" font-family="sans-serif" font-size="14" lengthAdjust="spacingAndGlyphs" textLength="432" x="824.5" y="1078.8223">headfirst.designpatterns.observer.weather.CurrentConditionsDisplay</text><rect fill="#FEFECE" filter="url(#f14jrlv91wklc)" height="31.6094" style="stroke: #A80036; stroke-width: 1.5;" width="387" x="1277.5" y="3"/><text fill="#000000" font-family="sans-serif" font-size="14" lengthAdjust="spacingAndGlyphs" textLength="373" x="1284.5" y="24.5332">headfirst.designpatterns.observer.weather.StatisticsDisplay</text><rect fill="#FEFECE" filter="url(#f14jrlv91wklc)" height="31.6094" style="stroke: #A80036; stroke-width: 1.5;" width="387" x="1277.5" y="1057.2891"/><text fill="#000000" font-family="sans-serif" font-size="14" lengthAdjust="spacingAndGlyphs" textLength="373" x="1284.5" y="1078.8223">headfirst.designpatterns.observer.weather.StatisticsDisplay</text><rect fill="#FEFECE" filter="url(#f14jrlv91wklc)" height="31.6094" style="stroke: #A80036; stroke-width: 1.5;" width="387" x="1678.5" y="3"/><text fill="#000000" font-family="sans-serif" font-size="14" lengthAdjust="spacingAndGlyphs" textLength="373" x="1685.5" y="24.5332">headfirst.designpatterns.observer.weather.ForecastDisplay</text><rect fill="#FEFECE" filter="url(#f14jrlv91wklc)" height="31.6094" style="stroke: #A80036; stroke-width: 1.5;" width="387" x="1678.5" y="1057.2891"/><text fill="#000000" font-family="sans-serif" font-size="14" lengthAdjust="spacingAndGlyphs" textLength="373" x="1685.5" y="1078.8223">headfirst.designpatterns.observer.weather.ForecastDisplay</text><rect fill="#FEFECE" filter="url(#f14jrlv91wklc)" height="31.6094" style="stroke: #A80036; stroke-width: 1.5;" width="344" x="2079.5" y="3"/><text fill="#000000" font-family="sans-serif" font-size="14" lengthAdjust="spacingAndGlyphs" textLength="330" x="2086.5" y="24.5332">headfirst.designpatterns.observer.weather.Observer</text><rect fill="#FEFECE" filter="url(#f14jrlv91wklc)" height="31.6094" style="stroke: #A80036; stroke-width: 1.5;" width="344" x="2079.5" y="1057.2891"/><text fill="#000000" font-family="sans-serif" font-size="14" lengthAdjust="spacingAndGlyphs" textLength="330" x="2086.5" y="1078.8223">headfirst.designpatterns.observer.weather.Observer</text><rect fill="#FFFFFF" filter="url(#f14jrlv91wklc)" height="999.6797" style="stroke: #A80036; stroke-width: 1.0;" width="10" x="196.5" y="49.6094"/><rect fill="#FFFFFF" filter="url(#f14jrlv91wklc)" height="963.3281" style="stroke: #A80036; stroke-width: 1.0;" width="10" x="201.5" y="85.9609"/><rect fill="#FFFFFF" filter="url(#f14jrlv91wklc)" height="874.625" style="stroke: #A80036; stroke-width: 1.0;" width="10" x="206.5" y="174.6641"/><rect fill="#FFFFFF" filter="url(#f14jrlv91wklc)" height="785.9219" style="stroke: #A80036; stroke-width: 1.0;" width="10" x="211.5" y="263.3672"/><rect fill="#FFFFFF" filter="url(#f14jrlv91wklc)" height="697.2188" style="stroke: #A80036; stroke-width: 1.0;" width="10" x="216.5" y="352.0703"/><rect fill="#FFFFFF" filter="url(#f14jrlv91wklc)" height="467.8125" style="stroke: #A80036; stroke-width: 1.0;" width="10" x="221.5" y="581.4766"/><rect fill="#FFFFFF" filter="url(#f14jrlv91wklc)" height="238.4063" style="stroke: #A80036; stroke-width: 1.0;" width="10" x="226.5" y="810.8828"/><rect fill="#FFFFFF" filter="url(#f14jrlv91wklc)" height="199.4063" style="stroke: #A80036; stroke-width: 1.0;" width="10" x="586.5" y="382.0703"/><rect fill="#FFFFFF" filter="url(#f14jrlv91wklc)" height="140.0547" style="stroke: #A80036; stroke-width: 1.0;" width="10" x="591.5" y="420.4219"/><rect fill="#FFFFFF" filter="url(#f14jrlv91wklc)" height="69.7031" style="stroke: #A80036; stroke-width: 1.0;" width="10" x="596.5" y="463.7734"/><rect fill="#FFFFFF" filter="url(#f14jrlv91wklc)" height="199.4063" style="stroke: #A80036; stroke-width: 1.0;" width="10" x="586.5" y="611.4766"/><rect fill="#FFFFFF" filter="url(#f14jrlv91wklc)" height="140.0547" style="stroke: #A80036; stroke-width: 1.0;" width="10" x="591.5" y="649.8281"/><rect fill="#FFFFFF" filter="url(#f14jrlv91wklc)" height="69.7031" style="stroke: #A80036; stroke-width: 1.0;" width="10" x="596.5" y="693.1797"/><rect fill="#FFFFFF" filter="url(#f14jrlv91wklc)" height="199.4063" style="stroke: #A80036; stroke-width: 1.0;" width="10" x="586.5" y="840.8828"/><rect fill="#FFFFFF" filter="url(#f14jrlv91wklc)" height="140.0547" style="stroke: #A80036; stroke-width: 1.0;" width="10" x="591.5" y="879.2344"/><rect fill="#FFFFFF" filter="url(#f14jrlv91wklc)" height="69.7031" style="stroke: #A80036; stroke-width: 1.0;" width="10" x="596.5" y="922.5859"/><rect fill="#FFFFFF" filter="url(#f14jrlv91wklc)" height="58.7031" style="stroke: #A80036; stroke-width: 1.0;" width="10" x="1037.5" y="115.9609"/><rect fill="#FFFFFF" filter="url(#f14jrlv91wklc)" height="58.7031" style="stroke: #A80036; stroke-width: 1.0;" width="10" x="1468" y="204.6641"/><rect fill="#FFFFFF" filter="url(#f14jrlv91wklc)" height="58.7031" style="stroke: #A80036; stroke-width: 1.0;" width="10" x="1869" y="293.3672"/><polygon fill="#A80036" points="579.5,67.6094,589.5,71.6094,579.5,75.6094,583.5,71.6094" style="stroke: #A80036; stroke-width: 1.0;"/><line style="stroke: #A80036; stroke-width: 1.0;" x1="206.5" x2="585.5" y1="71.6094" y2="71.6094"/><text fill="#000000" font-family="sans-serif" font-size="13" lengthAdjust="spacingAndGlyphs" textLength="67" x="213.5" y="67.1045">void &lt;init&gt;()</text><polygon fill="#A80036" points="222.5,81.9609,212.5,85.9609,222.5,89.9609,218.5,85.9609" style="stroke: #A80036; stroke-width: 1.0;"/><line style="stroke: #A80036; stroke-width: 1.0; stroke-dasharray: 2.0,2.0;" x1="216.5" x2="590.5" y1="85.9609" y2="85.9609"/><polygon fill="#A80036" points="1025.5,111.9609,1035.5,115.9609,1025.5,119.9609,1029.5,115.9609" style="stroke: #A80036; stroke-width: 1.0;"/><line style="stroke: #A80036; stroke-width: 1.0;" x1="211.5" x2="1031.5" y1="115.9609" y2="115.9609"/><text fill="#000000" font-family="sans-serif" font-size="13" lengthAdjust="spacingAndGlyphs" textLength="354" x="218.5" y="111.4561">void &lt;init&gt;(headfirst.designpatterns.observer.weather.Subject)</text><polygon fill="#A80036" points="602.5,142.3125,592.5,146.3125,602.5,150.3125,598.5,146.3125" style="stroke: #A80036; stroke-width: 1.0;"/><line style="stroke: #A80036; stroke-width: 1.0;" x1="596.5" x2="1036.5" y1="146.3125" y2="146.3125"/><text fill="#000000" font-family="sans-serif" font-size="13" lengthAdjust="spacingAndGlyphs" textLength="422" x="608.5" y="141.8076">void registerObserver(headfirst.designpatterns.observer.weather.Observer)</text><polygon fill="#A80036" points="1025.5,156.6641,1035.5,160.6641,1025.5,164.6641,1029.5,160.6641" style="stroke: #A80036; stroke-width: 1.0;"/><line style="stroke: #A80036; stroke-width: 1.0; stroke-dasharray: 2.0,2.0;" x1="591.5" x2="1031.5" y1="160.6641" y2="160.6641"/><polygon fill="#A80036" points="227.5,170.6641,217.5,174.6641,227.5,178.6641,223.5,174.6641" style="stroke: #A80036; stroke-width: 1.0;"/><line style="stroke: #A80036; stroke-width: 1.0; stroke-dasharray: 2.0,2.0;" x1="221.5" x2="1041.5" y1="174.6641" y2="174.6641"/><polygon fill="#A80036" points="1456,200.6641,1466,204.6641,1456,208.6641,1460,204.6641" style="stroke: #A80036; stroke-width: 1.0;"/><line style="stroke: #A80036; stroke-width: 1.0;" x1="216.5" x2="1462" y1="204.6641" y2="204.6641"/><text fill="#000000" font-family="sans-serif" font-size="13" lengthAdjust="spacingAndGlyphs" textLength="386" x="223.5" y="200.1592">void &lt;init&gt;(headfirst.designpatterns.observer.weather.WeatherData)</text><polygon fill="#A80036" points="602.5,231.0156,592.5,235.0156,602.5,239.0156,598.5,235.0156" style="stroke: #A80036; stroke-width: 1.0;"/><line style="stroke: #A80036; stroke-width: 1.0;" x1="596.5" x2="1467" y1="235.0156" y2="235.0156"/><text fill="#000000" font-family="sans-serif" font-size="13" lengthAdjust="spacingAndGlyphs" textLength="422" x="608.5" y="230.5107">void registerObserver(headfirst.designpatterns.observer.weather.Observer)</text><polygon fill="#A80036" points="1456,245.3672,1466,249.3672,1456,253.3672,1460,249.3672" style="stroke: #A80036; stroke-width: 1.0;"/><line style="stroke: #A80036; stroke-width: 1.0; stroke-dasharray: 2.0,2.0;" x1="591.5" x2="1462" y1="249.3672" y2="249.3672"/><polygon fill="#A80036" points="232.5,259.3672,222.5,263.3672,232.5,267.3672,228.5,263.3672" style="stroke: #A80036; stroke-width: 1.0;"/><line style="stroke: #A80036; stroke-width: 1.0; stroke-dasharray: 2.0,2.0;" x1="226.5" x2="1472" y1="263.3672" y2="263.3672"/><polygon fill="#A80036" points="1857,289.3672,1867,293.3672,1857,297.3672,1861,293.3672" style="stroke: #A80036; stroke-width: 1.0;"/><line style="stroke: #A80036; stroke-width: 1.0;" x1="221.5" x2="1863" y1="293.3672" y2="293.3672"/><text fill="#000000" font-family="sans-serif" font-size="13" lengthAdjust="spacingAndGlyphs" textLength="386" x="228.5" y="288.8623">void &lt;init&gt;(headfirst.designpatterns.observer.weather.WeatherData)</text><polygon fill="#A80036" points="602.5,319.7188,592.5,323.7188,602.5,327.7188,598.5,323.7188" style="stroke: #A80036; stroke-width: 1.0;"/><line style="stroke: #A80036; stroke-width: 1.0;" x1="596.5" x2="1868" y1="323.7188" y2="323.7188"/><text fill="#000000" font-family="sans-serif" font-size="13" lengthAdjust="spacingAndGlyphs" textLength="422" x="608.5" y="319.2139">void registerObserver(headfirst.designpatterns.observer.weather.Observer)</text><polygon fill="#A80036" points="1857,334.0703,1867,338.0703,1857,342.0703,1861,338.0703" style="stroke: #A80036; stroke-width: 1.0;"/><line style="stroke: #A80036; stroke-width: 1.0; stroke-dasharray: 2.0,2.0;" x1="591.5" x2="1863" y1="338.0703" y2="338.0703"/><polygon fill="#A80036" points="237.5,348.0703,227.5,352.0703,237.5,356.0703,233.5,352.0703" style="stroke: #A80036; stroke-width: 1.0;"/><line style="stroke: #A80036; stroke-width: 1.0; stroke-dasharray: 2.0,2.0;" x1="231.5" x2="1873" y1="352.0703" y2="352.0703"/><polygon fill="#A80036" points="574.5,378.0703,584.5,382.0703,574.5,386.0703,578.5,382.0703" style="stroke: #A80036; stroke-width: 1.0;"/><line style="stroke: #A80036; stroke-width: 1.0;" x1="226.5" x2="580.5" y1="382.0703" y2="382.0703"/><text fill="#000000" font-family="sans-serif" font-size="13" lengthAdjust="spacingAndGlyphs" textLength="218" x="233.5" y="377.5654">void setMeasurements(float,float,float)</text><line style="stroke: #A80036; stroke-width: 1.0;" x1="596.5" x2="643.5" y1="407.7734" y2="407.7734"/><line style="stroke: #A80036; stroke-width: 1.0;" x1="643.5" x2="643.5" y1="407.7734" y2="420.7734"/><line style="stroke: #A80036; stroke-width: 1.0;" x1="602.5" x2="643.5" y1="420.7734" y2="420.7734"/><polygon fill="#A80036" points="612.5,416.7734,602.5,420.7734,612.5,424.7734,608.5,420.7734" style="stroke: #A80036; stroke-width: 1.0;"/><text fill="#000000" font-family="sans-serif" font-size="13" lengthAdjust="spacingAndGlyphs" textLength="171" x="608.5" y="402.917">void measurementsChanged()</text><line style="stroke: #A80036; stroke-width: 1.0;" x1="601.5" x2="648.5" y1="451.125" y2="451.125"/><line style="stroke: #A80036; stroke-width: 1.0;" x1="648.5" x2="648.5" y1="451.125" y2="464.125"/><line style="stroke: #A80036; stroke-width: 1.0;" x1="607.5" x2="648.5" y1="464.125" y2="464.125"/><polygon fill="#A80036" points="617.5,460.125,607.5,464.125,617.5,468.125,613.5,464.125" style="stroke: #A80036; stroke-width: 1.0;"/><text fill="#000000" font-family="sans-serif" font-size="13" lengthAdjust="spacingAndGlyphs" textLength="123" x="613.5" y="446.2686">void notifyObservers()</text><polygon fill="#A80036" points="2241.5,495.125,2251.5,499.125,2241.5,503.125,2245.5,499.125" style="stroke: #A80036; stroke-width: 1.0;"/><line style="stroke: #A80036; stroke-width: 1.0;" x1="606.5" x2="2247.5" y1="499.125" y2="499.125"/><text fill="#000000" font-family="sans-serif" font-size="13" lengthAdjust="spacingAndGlyphs" textLength="153" x="613.5" y="494.6201">void update(float,float,float)</text><polygon fill="#A80036" points="617.5,509.4766,607.5,513.4766,617.5,517.4766,613.5,513.4766" style="stroke: #A80036; stroke-width: 1.0;"/><line style="stroke: #A80036; stroke-width: 1.0; stroke-dasharray: 2.0,2.0;" x1="611.5" x2="2252.5" y1="513.4766" y2="513.4766"/><line style="stroke: #A80036; stroke-width: 1.0; stroke-dasharray: 2.0,2.0;" x1="606.5" x2="648.5" y1="532.4766" y2="532.4766"/><line style="stroke: #A80036; stroke-width: 1.0; stroke-dasharray: 2.0,2.0;" x1="648.5" x2="648.5" y1="532.4766" y2="545.4766"/><line style="stroke: #A80036; stroke-width: 1.0; stroke-dasharray: 2.0,2.0;" x1="601.5" x2="648.5" y1="545.4766" y2="545.4766"/><polygon fill="#A80036" points="611.5,541.4766,601.5,545.4766,611.5,549.4766,607.5,545.4766" style="stroke: #A80036; stroke-width: 1.0;"/><line style="stroke: #A80036; stroke-width: 1.0; stroke-dasharray: 2.0,2.0;" x1="601.5" x2="643.5" y1="559.4766" y2="559.4766"/><line style="stroke: #A80036; stroke-width: 1.0; stroke-dasharray: 2.0,2.0;" x1="643.5" x2="643.5" y1="559.4766" y2="572.4766"/><line style="stroke: #A80036; stroke-width: 1.0; stroke-dasharray: 2.0,2.0;" x1="596.5" x2="643.5" y1="572.4766" y2="572.4766"/><polygon fill="#A80036" points="606.5,568.4766,596.5,572.4766,606.5,576.4766,602.5,572.4766" style="stroke: #A80036; stroke-width: 1.0;"/><polygon fill="#A80036" points="242.5,577.4766,232.5,581.4766,242.5,585.4766,238.5,581.4766" style="stroke: #A80036; stroke-width: 1.0;"/><line style="stroke: #A80036; stroke-width: 1.0; stroke-dasharray: 2.0,2.0;" x1="236.5" x2="590.5" y1="581.4766" y2="581.4766"/><polygon fill="#A80036" points="574.5,607.4766,584.5,611.4766,574.5,615.4766,578.5,611.4766" style="stroke: #A80036; stroke-width: 1.0;"/><line style="stroke: #A80036; stroke-width: 1.0;" x1="231.5" x2="580.5" y1="611.4766" y2="611.4766"/><text fill="#000000" font-family="sans-serif" font-size="13" lengthAdjust="spacingAndGlyphs" textLength="218" x="238.5" y="606.9717">void setMeasurements(float,float,float)</text><line style="stroke: #A80036; stroke-width: 1.0;" x1="596.5" x2="643.5" y1="637.1797" y2="637.1797"/><line style="stroke: #A80036; stroke-width: 1.0;" x1="643.5" x2="643.5" y1="637.1797" y2="650.1797"/><line style="stroke: #A80036; stroke-width: 1.0;" x1="602.5" x2="643.5" y1="650.1797" y2="650.1797"/><polygon fill="#A80036" points="612.5,646.1797,602.5,650.1797,612.5,654.1797,608.5,650.1797" style="stroke: #A80036; stroke-width: 1.0;"/><text fill="#000000" font-family="sans-serif" font-size="13" lengthAdjust="spacingAndGlyphs" textLength="171" x="608.5" y="632.3232">void measurementsChanged()</text><line style="stroke: #A80036; stroke-width: 1.0;" x1="601.5" x2="648.5" y1="680.5313" y2="680.5313"/><line style="stroke: #A80036; stroke-width: 1.0;" x1="648.5" x2="648.5" y1="680.5313" y2="693.5313"/><line style="stroke: #A80036; stroke-width: 1.0;" x1="607.5" x2="648.5" y1="693.5313" y2="693.5313"/><polygon fill="#A80036" points="617.5,689.5313,607.5,693.5313,617.5,697.5313,613.5,693.5313" style="stroke: #A80036; stroke-width: 1.0;"/><text fill="#000000" font-family="sans-serif" font-size="13" lengthAdjust="spacingAndGlyphs" textLength="123" x="613.5" y="675.6748">void notifyObservers()</text><polygon fill="#A80036" points="2241.5,724.5313,2251.5,728.5313,2241.5,732.5313,2245.5,728.5313" style="stroke: #A80036; stroke-width: 1.0;"/><line style="stroke: #A80036; stroke-width: 1.0;" x1="606.5" x2="2247.5" y1="728.5313" y2="728.5313"/><text fill="#000000" font-family="sans-serif" font-size="13" lengthAdjust="spacingAndGlyphs" textLength="153" x="613.5" y="724.0264">void update(float,float,float)</text><polygon fill="#A80036" points="617.5,738.8828,607.5,742.8828,617.5,746.8828,613.5,742.8828" style="stroke: #A80036; stroke-width: 1.0;"/><line style="stroke: #A80036; stroke-width: 1.0; stroke-dasharray: 2.0,2.0;" x1="611.5" x2="2252.5" y1="742.8828" y2="742.8828"/><line style="stroke: #A80036; stroke-width: 1.0; stroke-dasharray: 2.0,2.0;" x1="606.5" x2="648.5" y1="761.8828" y2="761.8828"/><line style="stroke: #A80036; stroke-width: 1.0; stroke-dasharray: 2.0,2.0;" x1="648.5" x2="648.5" y1="761.8828" y2="774.8828"/><line style="stroke: #A80036; stroke-width: 1.0; stroke-dasharray: 2.0,2.0;" x1="601.5" x2="648.5" y1="774.8828" y2="774.8828"/><polygon fill="#A80036" points="611.5,770.8828,601.5,774.8828,611.5,778.8828,607.5,774.8828" style="stroke: #A80036; stroke-width: 1.0;"/><line style="stroke: #A80036; stroke-width: 1.0; stroke-dasharray: 2.0,2.0;" x1="601.5" x2="643.5" y1="788.8828" y2="788.8828"/><line style="stroke: #A80036; stroke-width: 1.0; stroke-dasharray: 2.0,2.0;" x1="643.5" x2="643.5" y1="788.8828" y2="801.8828"/><line style="stroke: #A80036; stroke-width: 1.0; stroke-dasharray: 2.0,2.0;" x1="596.5" x2="643.5" y1="801.8828" y2="801.8828"/><polygon fill="#A80036" points="606.5,797.8828,596.5,801.8828,606.5,805.8828,602.5,801.8828" style="stroke: #A80036; stroke-width: 1.0;"/><polygon fill="#A80036" points="247.5,806.8828,237.5,810.8828,247.5,814.8828,243.5,810.8828" style="stroke: #A80036; stroke-width: 1.0;"/><line style="stroke: #A80036; stroke-width: 1.0; stroke-dasharray: 2.0,2.0;" x1="241.5" x2="590.5" y1="810.8828" y2="810.8828"/><polygon fill="#A80036" points="574.5,836.8828,584.5,840.8828,574.5,844.8828,578.5,840.8828" style="stroke: #A80036; stroke-width: 1.0;"/><line style="stroke: #A80036; stroke-width: 1.0;" x1="236.5" x2="580.5" y1="840.8828" y2="840.8828"/><text fill="#000000" font-family="sans-serif" font-size="13" lengthAdjust="spacingAndGlyphs" textLength="218" x="243.5" y="836.3779">void setMeasurements(float,float,float)</text><line style="stroke: #A80036; stroke-width: 1.0;" x1="596.5" x2="643.5" y1="866.5859" y2="866.5859"/><line style="stroke: #A80036; stroke-width: 1.0;" x1="643.5" x2="643.5" y1="866.5859" y2="879.5859"/><line style="stroke: #A80036; stroke-width: 1.0;" x1="602.5" x2="643.5" y1="879.5859" y2="879.5859"/><polygon fill="#A80036" points="612.5,875.5859,602.5,879.5859,612.5,883.5859,608.5,879.5859" style="stroke: #A80036; stroke-width: 1.0;"/><text fill="#000000" font-family="sans-serif" font-size="13" lengthAdjust="spacingAndGlyphs" textLength="171" x="608.5" y="861.7295">void measurementsChanged()</text><line style="stroke: #A80036; stroke-width: 1.0;" x1="601.5" x2="648.5" y1="909.9375" y2="909.9375"/><line style="stroke: #A80036; stroke-width: 1.0;" x1="648.5" x2="648.5" y1="909.9375" y2="922.9375"/><line style="stroke: #A80036; stroke-width: 1.0;" x1="607.5" x2="648.5" y1="922.9375" y2="922.9375"/><polygon fill="#A80036" points="617.5,918.9375,607.5,922.9375,617.5,926.9375,613.5,922.9375" style="stroke: #A80036; stroke-width: 1.0;"/><text fill="#000000" font-family="sans-serif" font-size="13" lengthAdjust="spacingAndGlyphs" textLength="123" x="613.5" y="905.0811">void notifyObservers()</text><polygon fill="#A80036" points="2241.5,953.9375,2251.5,957.9375,2241.5,961.9375,2245.5,957.9375" style="stroke: #A80036; stroke-width: 1.0;"/><line style="stroke: #A80036; stroke-width: 1.0;" x1="606.5" x2="2247.5" y1="957.9375" y2="957.9375"/><text fill="#000000" font-family="sans-serif" font-size="13" lengthAdjust="spacingAndGlyphs" textLength="153" x="613.5" y="953.4326">void update(float,float,float)</text><polygon fill="#A80036" points="617.5,968.2891,607.5,972.2891,617.5,976.2891,613.5,972.2891" style="stroke: #A80036; stroke-width: 1.0;"/><line style="stroke: #A80036; stroke-width: 1.0; stroke-dasharray: 2.0,2.0;" x1="611.5" x2="2252.5" y1="972.2891" y2="972.2891"/><line style="stroke: #A80036; stroke-width: 1.0; stroke-dasharray: 2.0,2.0;" x1="606.5" x2="648.5" y1="991.2891" y2="991.2891"/><line style="stroke: #A80036; stroke-width: 1.0; stroke-dasharray: 2.0,2.0;" x1="648.5" x2="648.5" y1="991.2891" y2="1004.2891"/><line style="stroke: #A80036; stroke-width: 1.0; stroke-dasharray: 2.0,2.0;" x1="601.5" x2="648.5" y1="1004.2891" y2="1004.2891"/><polygon fill="#A80036" points="611.5,1000.2891,601.5,1004.2891,611.5,1008.2891,607.5,1004.2891" style="stroke: #A80036; stroke-width: 1.0;"/><line style="stroke: #A80036; stroke-width: 1.0; stroke-dasharray: 2.0,2.0;" x1="601.5" x2="643.5" y1="1018.2891" y2="1018.2891"/><line style="stroke: #A80036; stroke-width: 1.0; stroke-dasharray: 2.0,2.0;" x1="643.5" x2="643.5" y1="1018.2891" y2="1031.2891"/><line style="stroke: #A80036; stroke-width: 1.0; stroke-dasharray: 2.0,2.0;" x1="596.5" x2="643.5" y1="1031.2891" y2="1031.2891"/><polygon fill="#A80036" points="606.5,1027.2891,596.5,1031.2891,606.5,1035.2891,602.5,1031.2891" style="stroke: #A80036; stroke-width: 1.0;"/><polygon fill="#A80036" points="247.5,1036.2891,237.5,1040.2891,247.5,1044.2891,243.5,1040.2891" style="stroke: #A80036; stroke-width: 1.0;"/><line style="stroke: #A80036; stroke-width: 1.0; stroke-dasharray: 2.0,2.0;" x1="241.5" x2="590.5" y1="1040.2891" y2="1040.2891"/></g></svg>