<?xml version="1.0" encoding="UTF-8" standalone="no"?><svg xmlns="http://www.w3.org/2000/svg" xmlns:xlink="http://www.w3.org/1999/xlink" contentScriptType="application/ecmascript" contentStyleType="text/css" height="765px" preserveAspectRatio="none" style="width:1134px;height:765px;" version="1.1" viewBox="0 0 1134 765" width="1134px" zoomAndPan="magnify"><defs><filter height="300%" id="fzddoiqdwemxw" width="300%" x="-1" y="-1"><feGaussianBlur result="blurOut" stdDeviation="2.0"/><feColorMatrix in="blurOut" result="blurOut2" type="matrix" values="0 0 0 0 0 0 0 0 0 0 0 0 0 0 0 0 0 0 .4 0"/><feOffset dx="4.0" dy="4.0" in="blurOut2" result="blurOut3"/><feBlend in="SourceGraphic" in2="blurOut3" mode="normal"/></filter></defs><g><!--cluster problem.client--><polygon fill="#FFFFFF" filter="url(#fzddoiqdwemxw)" points="47,24,154,24,161,47.6094,410,47.6094,410,567,47,567,47,24" style="stroke: #000000; stroke-width: 1.5;"/><line style="stroke: #000000; stroke-width: 1.5;" x1="47" x2="161" y1="47.6094" y2="47.6094"/><text fill="#000000" font-family="sans-serif" font-size="14" font-weight="bold" lengthAdjust="spacingAndGlyphs" textLength="101" x="51" y="40.5332">problem.client</text><!--cluster problem.lib--><polygon fill="#FFFFFF" filter="url(#fzddoiqdwemxw)" points="535,197,620,197,627,220.6094,883,220.6094,883,556,535,556,535,197" style="stroke: #000000; stroke-width: 1.5;"/><line style="stroke: #000000; stroke-width: 1.5;" x1="535" x2="627" y1="220.6094" y2="220.6094"/><text fill="#000000" font-family="sans-serif" font-size="14" font-weight="bold" lengthAdjust="spacingAndGlyphs" textLength="79" x="539" y="213.5332">problem.lib</text><!--cluster java.util--><polygon fill="#FFFFFF" filter="url(#fzddoiqdwemxw)" points="22,617,83,617,90,640.6094,541,640.6094,541,753,22,753,22,617" style="stroke: #000000; stroke-width: 1.5;"/><line style="stroke: #000000; stroke-width: 1.5;" x1="22" x2="90" y1="640.6094" y2="640.6094"/><text fill="#000000" font-family="sans-serif" font-size="14" font-weight="bold" lengthAdjust="spacingAndGlyphs" textLength="55" x="26" y="633.5332">java.util</text><!--cluster java.io--><polygon fill="#FFFFFF" filter="url(#fzddoiqdwemxw)" points="646,635,698,635,705,658.6094,1112,658.6094,1112,735,646,735,646,635" style="stroke: #000000; stroke-width: 1.5;"/><line style="stroke: #000000; stroke-width: 1.5;" x1="646" x2="705" y1="658.6094" y2="658.6094"/><text fill="#000000" font-family="sans-serif" font-size="14" font-weight="bold" lengthAdjust="spacingAndGlyphs" textLength="46" x="650" y="651.5332">java.io</text><!--class problem.client.App--><rect fill="#FEFECE" filter="url(#fzddoiqdwemxw)" height="75.6719" id="problem.client.App" style="stroke: #A80036; stroke-width: 1.5;" width="159" x="234.5" y="67"/><ellipse cx="299.25" cy="83" fill="#ADD1B2" rx="11" ry="11" style="stroke: #A80036; stroke-width: 1.0;"/><path d="M302.0156,78.875 Q302.1719,78.6563 302.3594,78.5469 Q302.5469,78.4375 302.7656,78.4375 Q303.1406,78.4375 303.375,78.6953 Q303.6094,78.9531 303.6094,79.5625 L303.6094,81.0156 Q303.6094,81.625 303.375,81.8906 Q303.1406,82.1563 302.7656,82.1563 Q302.4219,82.1563 302.2188,81.9531 Q302.0156,81.7656 301.9063,81.25 Q301.8594,80.8906 301.6719,80.7031 Q301.3438,80.3281 300.7344,80.1094 Q300.125,79.8906 299.5,79.8906 Q298.7344,79.8906 298.1016,80.2188 Q297.4688,80.5469 296.9766,81.2969 Q296.4844,82.0469 296.4844,83.0781 L296.4844,84.1719 Q296.4844,85.4063 297.375,86.2266 Q298.2656,87.0469 299.8594,87.0469 Q300.7969,87.0469 301.4531,86.7969 Q301.8438,86.6406 302.2656,86.2031 Q302.5313,85.9375 302.6797,85.8594 Q302.8281,85.7813 303.0313,85.7813 Q303.3594,85.7813 303.6172,86.0391 Q303.875,86.2969 303.875,86.6406 Q303.875,86.9844 303.5313,87.3906 Q303.0313,87.9688 302.2344,88.2969 Q301.1563,88.75 299.8594,88.75 Q298.3438,88.75 297.1406,88.125 Q296.1563,87.625 295.4688,86.5547 Q294.7813,85.4844 294.7813,84.2031 L294.7813,83.0469 Q294.7813,81.7188 295.3984,80.5703 Q296.0156,79.4219 297.1094,78.8047 Q298.2031,78.1875 299.4375,78.1875 Q300.1719,78.1875 300.8203,78.3516 Q301.4688,78.5156 302.0156,78.875 Z "/><text fill="#000000" font-family="sans-serif" font-size="12" lengthAdjust="spacingAndGlyphs" textLength="21" x="319.75" y="87.9102">App</text><line style="stroke: #A80036; stroke-width: 1.5;" x1="235.5" x2="392.5" y1="99" y2="99"/><line style="stroke: #A80036; stroke-width: 1.5;" x1="235.5" x2="392.5" y1="107" y2="107"/><ellipse cx="245.5" cy="119.418" fill="#84BE84" rx="3" ry="3" style="stroke: #038048; stroke-width: 1.0;"/><text fill="#000000" font-family="sans-serif" font-size="11" lengthAdjust="spacingAndGlyphs" textLength="56" x="254.5" y="122.4189">void &lt;init&gt;()</text><ellipse cx="245.5" cy="133.2539" fill="#84BE84" rx="3" ry="3" style="stroke: #038048; stroke-width: 1.0;"/><text fill="#000000" font-family="sans-serif" font-size="11" lengthAdjust="spacingAndGlyphs" text-decoration="underline" textLength="133" x="254.5" y="136.2549">void main(java.lang.String[])</text><line style="stroke: #000000; stroke-width: 1.0;" x1="254.5" x2="387.5" y1="138.2549" y2="138.2549"/><!--class problem.client.EnumerationAdapter--><rect fill="#FF0000" filter="url(#fzddoiqdwemxw)" height="111.5313" id="problem.client.EnumerationAdapter" style="stroke: #A80036; stroke-width: 1.5;" width="172" x="131" y="439"/><rect fill="#FF0000" height="40.1875" style="stroke: #A80036; stroke-width: 1.5;" width="172" x="131" y="439"/><ellipse cx="158.15" cy="459.0938" fill="#ADD1B2" rx="11" ry="11" style="stroke: #A80036; stroke-width: 1.0;"/><path d="M160.9156,454.9688 Q161.0719,454.75 161.2594,454.6406 Q161.4469,454.5313 161.6656,454.5313 Q162.0406,454.5313 162.275,454.7891 Q162.5094,455.0469 162.5094,455.6563 L162.5094,457.1094 Q162.5094,457.7188 162.275,457.9844 Q162.0406,458.25 161.6656,458.25 Q161.3219,458.25 161.1188,458.0469 Q160.9156,457.8594 160.8063,457.3438 Q160.7594,456.9844 160.5719,456.7969 Q160.2438,456.4219 159.6344,456.2031 Q159.025,455.9844 158.4,455.9844 Q157.6344,455.9844 157.0016,456.3125 Q156.3688,456.6406 155.8766,457.3906 Q155.3844,458.1406 155.3844,459.1719 L155.3844,460.2656 Q155.3844,461.5 156.275,462.3203 Q157.1656,463.1406 158.7594,463.1406 Q159.6969,463.1406 160.3531,462.8906 Q160.7438,462.7344 161.1656,462.2969 Q161.4313,462.0313 161.5797,461.9531 Q161.7281,461.875 161.9313,461.875 Q162.2594,461.875 162.5172,462.1328 Q162.775,462.3906 162.775,462.7344 Q162.775,463.0781 162.4313,463.4844 Q161.9313,464.0625 161.1344,464.3906 Q160.0563,464.8438 158.7594,464.8438 Q157.2438,464.8438 156.0406,464.2188 Q155.0563,463.7188 154.3688,462.6484 Q153.6813,461.5781 153.6813,460.2969 L153.6813,459.1406 Q153.6813,457.8125 154.2984,456.6641 Q154.9156,455.5156 156.0094,454.8984 Q157.1031,454.2813 158.3375,454.2813 Q159.0719,454.2813 159.7203,454.4453 Q160.3688,454.6094 160.9156,454.9688 Z "/><text fill="#000000" font-family="sans-serif" font-size="12" font-style="italic" lengthAdjust="spacingAndGlyphs" textLength="56" x="203.35" y="456.457">«adapter»</text><text fill="#000000" font-family="sans-serif" font-size="12" lengthAdjust="spacingAndGlyphs" textLength="113" x="174.85" y="471.5508">EnumerationAdapter</text><line style="stroke: #A80036; stroke-width: 1.5;" x1="132" x2="302" y1="479.1875" y2="479.1875"/><rect fill="none" height="6" style="stroke: #C82930; stroke-width: 1.0;" width="6" x="139" y="488.6055"/><text fill="#000000" font-family="sans-serif" font-size="11" lengthAdjust="spacingAndGlyphs" textLength="81" x="151" y="494.6064">java.util.Iterator it</text><line style="stroke: #A80036; stroke-width: 1.5;" x1="132" x2="302" y1="501.0234" y2="501.0234"/><ellipse cx="142" cy="513.4414" fill="#84BE84" rx="3" ry="3" style="stroke: #038048; stroke-width: 1.0;"/><text fill="#000000" font-family="sans-serif" font-size="11" lengthAdjust="spacingAndGlyphs" textLength="129" x="151" y="516.4424">void &lt;init&gt;(java.util.Iterator)</text><ellipse cx="142" cy="527.2773" fill="#84BE84" rx="3" ry="3" style="stroke: #038048; stroke-width: 1.0;"/><text fill="#000000" font-family="sans-serif" font-size="11" lengthAdjust="spacingAndGlyphs" textLength="134" x="151" y="530.2783">boolean hasMoreElements()</text><ellipse cx="142" cy="541.1133" fill="#84BE84" rx="3" ry="3" style="stroke: #038048; stroke-width: 1.0;"/><text fill="#000000" font-family="sans-serif" font-size="11" lengthAdjust="spacingAndGlyphs" textLength="146" x="151" y="544.1143">java.lang.Object nextElement()</text><!--class problem.client.EnumerationMaker--><rect fill="#FEFECE" filter="url(#fzddoiqdwemxw)" height="75.6719" id="problem.client.EnumerationMaker" style="stroke: #A80036; stroke-width: 1.5;" width="260" x="87" y="267.5"/><ellipse cx="160.75" cy="283.5" fill="#ADD1B2" rx="11" ry="11" style="stroke: #A80036; stroke-width: 1.0;"/><path d="M163.5156,279.375 Q163.6719,279.1563 163.8594,279.0469 Q164.0469,278.9375 164.2656,278.9375 Q164.6406,278.9375 164.875,279.1953 Q165.1094,279.4531 165.1094,280.0625 L165.1094,281.5156 Q165.1094,282.125 164.875,282.3906 Q164.6406,282.6563 164.2656,282.6563 Q163.9219,282.6563 163.7188,282.4531 Q163.5156,282.2656 163.4063,281.75 Q163.3594,281.3906 163.1719,281.2031 Q162.8438,280.8281 162.2344,280.6094 Q161.625,280.3906 161,280.3906 Q160.2344,280.3906 159.6016,280.7188 Q158.9688,281.0469 158.4766,281.7969 Q157.9844,282.5469 157.9844,283.5781 L157.9844,284.6719 Q157.9844,285.9063 158.875,286.7266 Q159.7656,287.5469 161.3594,287.5469 Q162.2969,287.5469 162.9531,287.2969 Q163.3438,287.1406 163.7656,286.7031 Q164.0313,286.4375 164.1797,286.3594 Q164.3281,286.2813 164.5313,286.2813 Q164.8594,286.2813 165.1172,286.5391 Q165.375,286.7969 165.375,287.1406 Q165.375,287.4844 165.0313,287.8906 Q164.5313,288.4688 163.7344,288.7969 Q162.6563,289.25 161.3594,289.25 Q159.8438,289.25 158.6406,288.625 Q157.6563,288.125 156.9688,287.0547 Q156.2813,285.9844 156.2813,284.7031 L156.2813,283.5469 Q156.2813,282.2188 156.8984,281.0703 Q157.5156,279.9219 158.6094,279.3047 Q159.7031,278.6875 160.9375,278.6875 Q161.6719,278.6875 162.3203,278.8516 Q162.9688,279.0156 163.5156,279.375 Z "/><text fill="#000000" font-family="sans-serif" font-size="12" lengthAdjust="spacingAndGlyphs" textLength="104" x="181.25" y="288.4102">EnumerationMaker</text><line style="stroke: #A80036; stroke-width: 1.5;" x1="88" x2="346" y1="299.5" y2="299.5"/><line style="stroke: #A80036; stroke-width: 1.5;" x1="88" x2="346" y1="307.5" y2="307.5"/><ellipse cx="98" cy="319.918" fill="#84BE84" rx="3" ry="3" style="stroke: #038048; stroke-width: 1.0;"/><text fill="#000000" font-family="sans-serif" font-size="11" lengthAdjust="spacingAndGlyphs" textLength="56" x="107" y="322.9189">void &lt;init&gt;()</text><ellipse cx="98" cy="333.7539" fill="#84BE84" rx="3" ry="3" style="stroke: #038048; stroke-width: 1.0;"/><text fill="#000000" font-family="sans-serif" font-size="11" lengthAdjust="spacingAndGlyphs" textLength="234" x="107" y="336.7549">java.util.Enumeration make(java.util.ArrayList&lt;*&gt;)</text><!--class problem.client.EnumerationTests--><rect fill="#FEFECE" filter="url(#fzddoiqdwemxw)" height="89.5078" id="problem.client.EnumerationTests" style="stroke: #A80036; stroke-width: 1.5;" width="136" x="63" y="60"/><ellipse cx="78.9" cy="76" fill="#ADD1B2" rx="11" ry="11" style="stroke: #A80036; stroke-width: 1.0;"/><path d="M81.6656,71.875 Q81.8219,71.6563 82.0094,71.5469 Q82.1969,71.4375 82.4156,71.4375 Q82.7906,71.4375 83.025,71.6953 Q83.2594,71.9531 83.2594,72.5625 L83.2594,74.0156 Q83.2594,74.625 83.025,74.8906 Q82.7906,75.1563 82.4156,75.1563 Q82.0719,75.1563 81.8688,74.9531 Q81.6656,74.7656 81.5563,74.25 Q81.5094,73.8906 81.3219,73.7031 Q80.9938,73.3281 80.3844,73.1094 Q79.775,72.8906 79.15,72.8906 Q78.3844,72.8906 77.7516,73.2188 Q77.1188,73.5469 76.6266,74.2969 Q76.1344,75.0469 76.1344,76.0781 L76.1344,77.1719 Q76.1344,78.4063 77.025,79.2266 Q77.9156,80.0469 79.5094,80.0469 Q80.4469,80.0469 81.1031,79.7969 Q81.4938,79.6406 81.9156,79.2031 Q82.1813,78.9375 82.3297,78.8594 Q82.4781,78.7813 82.6813,78.7813 Q83.0094,78.7813 83.2672,79.0391 Q83.525,79.2969 83.525,79.6406 Q83.525,79.9844 83.1813,80.3906 Q82.6813,80.9688 81.8844,81.2969 Q80.8063,81.75 79.5094,81.75 Q77.9938,81.75 76.7906,81.125 Q75.8063,80.625 75.1188,79.5547 Q74.4313,78.4844 74.4313,77.2031 L74.4313,76.0469 Q74.4313,74.7188 75.0484,73.5703 Q75.6656,72.4219 76.7594,71.8047 Q77.8531,71.1875 79.0875,71.1875 Q79.8219,71.1875 80.4703,71.3516 Q81.1188,71.5156 81.6656,71.875 Z "/><text fill="#000000" font-family="sans-serif" font-size="12" lengthAdjust="spacingAndGlyphs" textLength="102" x="93.1" y="80.9102">EnumerationTests</text><line style="stroke: #A80036; stroke-width: 1.5;" x1="64" x2="198" y1="92" y2="92"/><line style="stroke: #A80036; stroke-width: 1.5;" x1="64" x2="198" y1="100" y2="100"/><ellipse cx="74" cy="112.418" fill="#84BE84" rx="3" ry="3" style="stroke: #038048; stroke-width: 1.0;"/><text fill="#000000" font-family="sans-serif" font-size="11" lengthAdjust="spacingAndGlyphs" textLength="56" x="83" y="115.4189">void &lt;init&gt;()</text><ellipse cx="74" cy="126.2539" fill="#84BE84" rx="3" ry="3" style="stroke: #038048; stroke-width: 1.0;"/><text fill="#000000" font-family="sans-serif" font-size="11" lengthAdjust="spacingAndGlyphs" textLength="110" x="83" y="129.2549">void testMakerReturn()</text><ellipse cx="74" cy="140.0898" fill="#84BE84" rx="3" ry="3" style="stroke: #038048; stroke-width: 1.0;"/><text fill="#000000" font-family="sans-serif" font-size="11" lengthAdjust="spacingAndGlyphs" textLength="108" x="83" y="143.0908">void testEnumeration()</text><!--class problem.lib.LinearTransformer--><rect fill="#FEFECE" filter="url(#fzddoiqdwemxw)" height="89.5078" id="problem.lib.LinearTransformer" style="stroke: #A80036; stroke-width: 1.5;" width="204" x="551" y="450"/><ellipse cx="597.25" cy="466" fill="#ADD1B2" rx="11" ry="11" style="stroke: #A80036; stroke-width: 1.0;"/><path d="M600.0156,461.875 Q600.1719,461.6563 600.3594,461.5469 Q600.5469,461.4375 600.7656,461.4375 Q601.1406,461.4375 601.375,461.6953 Q601.6094,461.9531 601.6094,462.5625 L601.6094,464.0156 Q601.6094,464.625 601.375,464.8906 Q601.1406,465.1563 600.7656,465.1563 Q600.4219,465.1563 600.2188,464.9531 Q600.0156,464.7656 599.9063,464.25 Q599.8594,463.8906 599.6719,463.7031 Q599.3438,463.3281 598.7344,463.1094 Q598.125,462.8906 597.5,462.8906 Q596.7344,462.8906 596.1016,463.2188 Q595.4688,463.5469 594.9766,464.2969 Q594.4844,465.0469 594.4844,466.0781 L594.4844,467.1719 Q594.4844,468.4063 595.375,469.2266 Q596.2656,470.0469 597.8594,470.0469 Q598.7969,470.0469 599.4531,469.7969 Q599.8438,469.6406 600.2656,469.2031 Q600.5313,468.9375 600.6797,468.8594 Q600.8281,468.7813 601.0313,468.7813 Q601.3594,468.7813 601.6172,469.0391 Q601.875,469.2969 601.875,469.6406 Q601.875,469.9844 601.5313,470.3906 Q601.0313,470.9688 600.2344,471.2969 Q599.1563,471.75 597.8594,471.75 Q596.3438,471.75 595.1406,471.125 Q594.1563,470.625 593.4688,469.5547 Q592.7813,468.4844 592.7813,467.2031 L592.7813,466.0469 Q592.7813,464.7188 593.3984,463.5703 Q594.0156,462.4219 595.1094,461.8047 Q596.2031,461.1875 597.4375,461.1875 Q598.1719,461.1875 598.8203,461.3516 Q599.4688,461.5156 600.0156,461.875 Z "/><text fill="#000000" font-family="sans-serif" font-size="12" lengthAdjust="spacingAndGlyphs" textLength="103" x="617.75" y="470.9102">LinearTransformer</text><line style="stroke: #A80036; stroke-width: 1.5;" x1="552" x2="754" y1="482" y2="482"/><rect fill="none" height="6" style="stroke: #C82930; stroke-width: 1.0;" width="6" x="559" y="491.418"/><text fill="#000000" font-family="sans-serif" font-size="11" lengthAdjust="spacingAndGlyphs" textLength="147" x="571" y="497.4189">java.util.Enumeration enumTion</text><line style="stroke: #A80036; stroke-width: 1.5;" x1="552" x2="754" y1="503.8359" y2="503.8359"/><ellipse cx="562" cy="516.2539" fill="#84BE84" rx="3" ry="3" style="stroke: #038048; stroke-width: 1.0;"/><text fill="#000000" font-family="sans-serif" font-size="11" lengthAdjust="spacingAndGlyphs" textLength="154" x="571" y="519.2549">void &lt;init&gt;(java.util.Enumeration)</text><ellipse cx="562" cy="530.0898" fill="#84BE84" rx="3" ry="3" style="stroke: #038048; stroke-width: 1.0;"/><text fill="#000000" font-family="sans-serif" font-size="11" lengthAdjust="spacingAndGlyphs" textLength="178" x="571" y="533.0908">void transform(java.io.OutputStream)</text><!--class problem.lib.LinearTransformerTest--><rect fill="#FEFECE" filter="url(#fzddoiqdwemxw)" height="144.8516" id="problem.lib.LinearTransformerTest" style="stroke: #A80036; stroke-width: 1.5;" width="316" x="551" y="233"/><ellipse cx="641.25" cy="249" fill="#ADD1B2" rx="11" ry="11" style="stroke: #A80036; stroke-width: 1.0;"/><path d="M644.0156,244.875 Q644.1719,244.6563 644.3594,244.5469 Q644.5469,244.4375 644.7656,244.4375 Q645.1406,244.4375 645.375,244.6953 Q645.6094,244.9531 645.6094,245.5625 L645.6094,247.0156 Q645.6094,247.625 645.375,247.8906 Q645.1406,248.1563 644.7656,248.1563 Q644.4219,248.1563 644.2188,247.9531 Q644.0156,247.7656 643.9063,247.25 Q643.8594,246.8906 643.6719,246.7031 Q643.3438,246.3281 642.7344,246.1094 Q642.125,245.8906 641.5,245.8906 Q640.7344,245.8906 640.1016,246.2188 Q639.4688,246.5469 638.9766,247.2969 Q638.4844,248.0469 638.4844,249.0781 L638.4844,250.1719 Q638.4844,251.4063 639.375,252.2266 Q640.2656,253.0469 641.8594,253.0469 Q642.7969,253.0469 643.4531,252.7969 Q643.8438,252.6406 644.2656,252.2031 Q644.5313,251.9375 644.6797,251.8594 Q644.8281,251.7813 645.0313,251.7813 Q645.3594,251.7813 645.6172,252.0391 Q645.875,252.2969 645.875,252.6406 Q645.875,252.9844 645.5313,253.3906 Q645.0313,253.9688 644.2344,254.2969 Q643.1563,254.75 641.8594,254.75 Q640.3438,254.75 639.1406,254.125 Q638.1563,253.625 637.4688,252.5547 Q636.7813,251.4844 636.7813,250.2031 L636.7813,249.0469 Q636.7813,247.7188 637.3984,246.5703 Q638.0156,245.4219 639.1094,244.8047 Q640.2031,244.1875 641.4375,244.1875 Q642.1719,244.1875 642.8203,244.3516 Q643.4688,244.5156 644.0156,244.875 Z "/><text fill="#000000" font-family="sans-serif" font-size="12" lengthAdjust="spacingAndGlyphs" textLength="127" x="661.75" y="253.9102">LinearTransformerTest</text><line style="stroke: #A80036; stroke-width: 1.5;" x1="552" x2="866" y1="265" y2="265"/><rect fill="none" height="6" style="stroke: #C82930; stroke-width: 1.0;" width="6" x="559" y="274.418"/><text fill="#000000" font-family="sans-serif" font-size="11" lengthAdjust="spacingAndGlyphs" textLength="290" x="571" y="280.4189">problem.lib.LinearTransformer&lt;java.lang.String&gt; transformer</text><rect fill="none" height="6" style="stroke: #C82930; stroke-width: 1.0;" width="6" x="559" y="288.2539"/><text fill="#000000" font-family="sans-serif" font-size="11" lengthAdjust="spacingAndGlyphs" textLength="122" x="571" y="294.2549">java.lang.String expected</text><rect fill="none" height="6" style="stroke: #C82930; stroke-width: 1.0;" width="6" x="559" y="302.0898"/><text fill="#000000" font-family="sans-serif" font-size="11" lengthAdjust="spacingAndGlyphs" textLength="34" x="571" y="308.0908">int size</text><line style="stroke: #A80036; stroke-width: 1.5;" x1="552" x2="866" y1="314.5078" y2="314.5078"/><ellipse cx="562" cy="326.9258" fill="#84BE84" rx="3" ry="3" style="stroke: #038048; stroke-width: 1.0;"/><text fill="#000000" font-family="sans-serif" font-size="11" lengthAdjust="spacingAndGlyphs" textLength="56" x="571" y="329.9268">void &lt;init&gt;()</text><ellipse cx="562" cy="340.7617" fill="#84BE84" rx="3" ry="3" style="stroke: #038048; stroke-width: 1.0;"/><text fill="#000000" font-family="sans-serif" font-size="11" lengthAdjust="spacingAndGlyphs" textLength="59" x="571" y="343.7627">void setUp()</text><ellipse cx="562" cy="354.5977" fill="#84BE84" rx="3" ry="3" style="stroke: #038048; stroke-width: 1.0;"/><text fill="#000000" font-family="sans-serif" font-size="11" lengthAdjust="spacingAndGlyphs" textLength="79" x="571" y="357.5986">void tearDown()</text><ellipse cx="562" cy="368.4336" fill="#84BE84" rx="3" ry="3" style="stroke: #038048; stroke-width: 1.0;"/><text fill="#000000" font-family="sans-serif" font-size="11" lengthAdjust="spacingAndGlyphs" textLength="99" x="571" y="371.4346">void testTransform()</text><!--class java.util.Enumeration--><rect fill="#FF0000" filter="url(#fzddoiqdwemxw)" height="83.8594" id="java.util.Enumeration" style="stroke: #A80036; stroke-width: 1.5;" width="166" x="153" y="653"/><rect fill="#FF0000" height="40.1875" style="stroke: #A80036; stroke-width: 1.5;" width="166" x="153" y="653"/><ellipse cx="196.35" cy="673.0938" fill="#B4A7E5" rx="11" ry="11" style="stroke: #A80036; stroke-width: 1.0;"/><path d="M197.3031,669.7344 L197.3031,676.3906 L199.0219,676.3906 Q199.6313,676.3906 199.8969,676.625 Q200.1625,676.8594 200.1625,677.25 Q200.1625,677.625 199.8969,677.8594 Q199.6313,678.0938 199.0219,678.0938 L193.8813,678.0938 Q193.2719,678.0938 193.0063,677.8594 Q192.7406,677.625 192.7406,677.2344 Q192.7406,676.8594 193.0063,676.625 Q193.2719,676.3906 193.8813,676.3906 L195.6,676.3906 L195.6,669.7344 L193.8813,669.7344 Q193.2719,669.7344 193.0063,669.5 Q192.7406,669.2656 192.7406,668.875 Q192.7406,668.5 193.0063,668.2656 Q193.2719,668.0313 193.8813,668.0313 L199.0219,668.0313 Q199.6313,668.0313 199.8969,668.2656 Q200.1625,668.5 200.1625,668.875 Q200.1625,669.2656 199.8969,669.5 Q199.6313,669.7344 199.0219,669.7344 L197.3031,669.7344 Z "/><text fill="#000000" font-family="sans-serif" font-size="12" font-style="italic" lengthAdjust="spacingAndGlyphs" textLength="45" x="229.65" y="670.457">«target»</text><text fill="#000000" font-family="sans-serif" font-size="12" font-style="italic" lengthAdjust="spacingAndGlyphs" textLength="71" x="216.65" y="685.5508">Enumeration</text><line style="stroke: #A80036; stroke-width: 1.5;" x1="154" x2="318" y1="693.1875" y2="693.1875"/><line style="stroke: #A80036; stroke-width: 1.5;" x1="154" x2="318" y1="701.1875" y2="701.1875"/><ellipse cx="164" cy="713.6055" fill="#84BE84" rx="3" ry="3" style="stroke: #038048; stroke-width: 1.0;"/><text fill="#000000" font-family="sans-serif" font-size="11" font-style="italic" lengthAdjust="spacingAndGlyphs" textLength="140" x="173" y="716.6064">boolean hasMoreElements()</text><ellipse cx="164" cy="727.4414" fill="#84BE84" rx="3" ry="3" style="stroke: #038048; stroke-width: 1.0;"/><text fill="#000000" font-family="sans-serif" font-size="11" font-style="italic" lengthAdjust="spacingAndGlyphs" textLength="72" x="173" y="730.4424">T nextElemen)</text><!--class java.util.Vector--><rect fill="#FEFECE" filter="url(#fzddoiqdwemxw)" height="48" id="java.util.Vector" style="stroke: #A80036; stroke-width: 1.5;" width="66" x="459" y="671"/><ellipse cx="474" cy="687" fill="#ADD1B2" rx="11" ry="11" style="stroke: #A80036; stroke-width: 1.0;"/><path d="M476.7656,682.875 Q476.9219,682.6563 477.1094,682.5469 Q477.2969,682.4375 477.5156,682.4375 Q477.8906,682.4375 478.125,682.6953 Q478.3594,682.9531 478.3594,683.5625 L478.3594,685.0156 Q478.3594,685.625 478.125,685.8906 Q477.8906,686.1563 477.5156,686.1563 Q477.1719,686.1563 476.9688,685.9531 Q476.7656,685.7656 476.6563,685.25 Q476.6094,684.8906 476.4219,684.7031 Q476.0938,684.3281 475.4844,684.1094 Q474.875,683.8906 474.25,683.8906 Q473.4844,683.8906 472.8516,684.2188 Q472.2188,684.5469 471.7266,685.2969 Q471.2344,686.0469 471.2344,687.0781 L471.2344,688.1719 Q471.2344,689.4063 472.125,690.2266 Q473.0156,691.0469 474.6094,691.0469 Q475.5469,691.0469 476.2031,690.7969 Q476.5938,690.6406 477.0156,690.2031 Q477.2813,689.9375 477.4297,689.8594 Q477.5781,689.7813 477.7813,689.7813 Q478.1094,689.7813 478.3672,690.0391 Q478.625,690.2969 478.625,690.6406 Q478.625,690.9844 478.2813,691.3906 Q477.7813,691.9688 476.9844,692.2969 Q475.9063,692.75 474.6094,692.75 Q473.0938,692.75 471.8906,692.125 Q470.9063,691.625 470.2188,690.5547 Q469.5313,689.4844 469.5313,688.2031 L469.5313,687.0469 Q469.5313,685.7188 470.1484,684.5703 Q470.7656,683.4219 471.8594,682.8047 Q472.9531,682.1875 474.1875,682.1875 Q474.9219,682.1875 475.5703,682.3516 Q476.2188,682.5156 476.7656,682.875 Z "/><text fill="#000000" font-family="sans-serif" font-size="12" lengthAdjust="spacingAndGlyphs" textLength="34" x="488" y="691.9102">Vector</text><line style="stroke: #A80036; stroke-width: 1.5;" x1="460" x2="524" y1="703" y2="703"/><line style="stroke: #A80036; stroke-width: 1.5;" x1="460" x2="524" y1="711" y2="711"/><!--class java.util.ArrayList--><rect fill="#FEFECE" filter="url(#fzddoiqdwemxw)" height="48" id="java.util.ArrayList" style="stroke: #A80036; stroke-width: 1.5;" width="79" x="38.5" y="671"/><ellipse cx="53.5" cy="687" fill="#ADD1B2" rx="11" ry="11" style="stroke: #A80036; stroke-width: 1.0;"/><path d="M56.2656,682.875 Q56.4219,682.6563 56.6094,682.5469 Q56.7969,682.4375 57.0156,682.4375 Q57.3906,682.4375 57.625,682.6953 Q57.8594,682.9531 57.8594,683.5625 L57.8594,685.0156 Q57.8594,685.625 57.625,685.8906 Q57.3906,686.1563 57.0156,686.1563 Q56.6719,686.1563 56.4688,685.9531 Q56.2656,685.7656 56.1563,685.25 Q56.1094,684.8906 55.9219,684.7031 Q55.5938,684.3281 54.9844,684.1094 Q54.375,683.8906 53.75,683.8906 Q52.9844,683.8906 52.3516,684.2188 Q51.7188,684.5469 51.2266,685.2969 Q50.7344,686.0469 50.7344,687.0781 L50.7344,688.1719 Q50.7344,689.4063 51.625,690.2266 Q52.5156,691.0469 54.1094,691.0469 Q55.0469,691.0469 55.7031,690.7969 Q56.0938,690.6406 56.5156,690.2031 Q56.7813,689.9375 56.9297,689.8594 Q57.0781,689.7813 57.2813,689.7813 Q57.6094,689.7813 57.8672,690.0391 Q58.125,690.2969 58.125,690.6406 Q58.125,690.9844 57.7813,691.3906 Q57.2813,691.9688 56.4844,692.2969 Q55.4063,692.75 54.1094,692.75 Q52.5938,692.75 51.3906,692.125 Q50.4063,691.625 49.7188,690.5547 Q49.0313,689.4844 49.0313,688.2031 L49.0313,687.0469 Q49.0313,685.7188 49.6484,684.5703 Q50.2656,683.4219 51.3594,682.8047 Q52.4531,682.1875 53.6875,682.1875 Q54.4219,682.1875 55.0703,682.3516 Q55.7188,682.5156 56.2656,682.875 Z "/><text fill="#000000" font-family="sans-serif" font-size="12" lengthAdjust="spacingAndGlyphs" textLength="47" x="67.5" y="691.9102">ArrayList</text><line style="stroke: #A80036; stroke-width: 1.5;" x1="39.5" x2="116.5" y1="703" y2="703"/><line style="stroke: #A80036; stroke-width: 1.5;" x1="39.5" x2="116.5" y1="711" y2="711"/><!--class java.util.Iterator--><rect fill="#FEFECE" filter="url(#fzddoiqdwemxw)" height="48" id="java.util.Iterator" style="stroke: #A80036; stroke-width: 1.5;" width="70" x="354" y="671"/><ellipse cx="369" cy="687" fill="#ADD1B2" rx="11" ry="11" style="stroke: #A80036; stroke-width: 1.0;"/><path d="M371.7656,682.875 Q371.9219,682.6563 372.1094,682.5469 Q372.2969,682.4375 372.5156,682.4375 Q372.8906,682.4375 373.125,682.6953 Q373.3594,682.9531 373.3594,683.5625 L373.3594,685.0156 Q373.3594,685.625 373.125,685.8906 Q372.8906,686.1563 372.5156,686.1563 Q372.1719,686.1563 371.9688,685.9531 Q371.7656,685.7656 371.6563,685.25 Q371.6094,684.8906 371.4219,684.7031 Q371.0938,684.3281 370.4844,684.1094 Q369.875,683.8906 369.25,683.8906 Q368.4844,683.8906 367.8516,684.2188 Q367.2188,684.5469 366.7266,685.2969 Q366.2344,686.0469 366.2344,687.0781 L366.2344,688.1719 Q366.2344,689.4063 367.125,690.2266 Q368.0156,691.0469 369.6094,691.0469 Q370.5469,691.0469 371.2031,690.7969 Q371.5938,690.6406 372.0156,690.2031 Q372.2813,689.9375 372.4297,689.8594 Q372.5781,689.7813 372.7813,689.7813 Q373.1094,689.7813 373.3672,690.0391 Q373.625,690.2969 373.625,690.6406 Q373.625,690.9844 373.2813,691.3906 Q372.7813,691.9688 371.9844,692.2969 Q370.9063,692.75 369.6094,692.75 Q368.0938,692.75 366.8906,692.125 Q365.9063,691.625 365.2188,690.5547 Q364.5313,689.4844 364.5313,688.2031 L364.5313,687.0469 Q364.5313,685.7188 365.1484,684.5703 Q365.7656,683.4219 366.8594,682.8047 Q367.9531,682.1875 369.1875,682.1875 Q369.9219,682.1875 370.5703,682.3516 Q371.2188,682.5156 371.7656,682.875 Z "/><text fill="#000000" font-family="sans-serif" font-size="12" lengthAdjust="spacingAndGlyphs" textLength="38" x="383" y="691.9102">Iterator</text><line style="stroke: #A80036; stroke-width: 1.5;" x1="355" x2="423" y1="703" y2="703"/><line style="stroke: #A80036; stroke-width: 1.5;" x1="355" x2="423" y1="711" y2="711"/><!--class java.io.PrintStream--><rect fill="#FEFECE" filter="url(#fzddoiqdwemxw)" height="48" id="java.io.PrintStream" style="stroke: #A80036; stroke-width: 1.5;" width="97" x="998.5" y="671"/><ellipse cx="1013.5" cy="687" fill="#ADD1B2" rx="11" ry="11" style="stroke: #A80036; stroke-width: 1.0;"/><path d="M1016.2656,682.875 Q1016.4219,682.6563 1016.6094,682.5469 Q1016.7969,682.4375 1017.0156,682.4375 Q1017.3906,682.4375 1017.625,682.6953 Q1017.8594,682.9531 1017.8594,683.5625 L1017.8594,685.0156 Q1017.8594,685.625 1017.625,685.8906 Q1017.3906,686.1563 1017.0156,686.1563 Q1016.6719,686.1563 1016.4688,685.9531 Q1016.2656,685.7656 1016.1563,685.25 Q1016.1094,684.8906 1015.9219,684.7031 Q1015.5938,684.3281 1014.9844,684.1094 Q1014.375,683.8906 1013.75,683.8906 Q1012.9844,683.8906 1012.3516,684.2188 Q1011.7188,684.5469 1011.2266,685.2969 Q1010.7344,686.0469 1010.7344,687.0781 L1010.7344,688.1719 Q1010.7344,689.4063 1011.625,690.2266 Q1012.5156,691.0469 1014.1094,691.0469 Q1015.0469,691.0469 1015.7031,690.7969 Q1016.0938,690.6406 1016.5156,690.2031 Q1016.7813,689.9375 1016.9297,689.8594 Q1017.0781,689.7813 1017.2813,689.7813 Q1017.6094,689.7813 1017.8672,690.0391 Q1018.125,690.2969 1018.125,690.6406 Q1018.125,690.9844 1017.7813,691.3906 Q1017.2813,691.9688 1016.4844,692.2969 Q1015.4063,692.75 1014.1094,692.75 Q1012.5938,692.75 1011.3906,692.125 Q1010.4063,691.625 1009.7188,690.5547 Q1009.0313,689.4844 1009.0313,688.2031 L1009.0313,687.0469 Q1009.0313,685.7188 1009.6484,684.5703 Q1010.2656,683.4219 1011.3594,682.8047 Q1012.4531,682.1875 1013.6875,682.1875 Q1014.4219,682.1875 1015.0703,682.3516 Q1015.7188,682.5156 1016.2656,682.875 Z "/><text fill="#000000" font-family="sans-serif" font-size="12" lengthAdjust="spacingAndGlyphs" textLength="65" x="1027.5" y="691.9102">PrintStream</text><line style="stroke: #A80036; stroke-width: 1.5;" x1="999.5" x2="1094.5" y1="703" y2="703"/><line style="stroke: #A80036; stroke-width: 1.5;" x1="999.5" x2="1094.5" y1="711" y2="711"/><!--class java.io.OutputStream--><rect fill="#FEFECE" filter="url(#fzddoiqdwemxw)" height="48" id="java.io.OutputStream" style="stroke: #A80036; stroke-width: 1.5;" width="108" x="662" y="671"/><ellipse cx="677" cy="687" fill="#ADD1B2" rx="11" ry="11" style="stroke: #A80036; stroke-width: 1.0;"/><path d="M679.7656,682.875 Q679.9219,682.6563 680.1094,682.5469 Q680.2969,682.4375 680.5156,682.4375 Q680.8906,682.4375 681.125,682.6953 Q681.3594,682.9531 681.3594,683.5625 L681.3594,685.0156 Q681.3594,685.625 681.125,685.8906 Q680.8906,686.1563 680.5156,686.1563 Q680.1719,686.1563 679.9688,685.9531 Q679.7656,685.7656 679.6563,685.25 Q679.6094,684.8906 679.4219,684.7031 Q679.0938,684.3281 678.4844,684.1094 Q677.875,683.8906 677.25,683.8906 Q676.4844,683.8906 675.8516,684.2188 Q675.2188,684.5469 674.7266,685.2969 Q674.2344,686.0469 674.2344,687.0781 L674.2344,688.1719 Q674.2344,689.4063 675.125,690.2266 Q676.0156,691.0469 677.6094,691.0469 Q678.5469,691.0469 679.2031,690.7969 Q679.5938,690.6406 680.0156,690.2031 Q680.2813,689.9375 680.4297,689.8594 Q680.5781,689.7813 680.7813,689.7813 Q681.1094,689.7813 681.3672,690.0391 Q681.625,690.2969 681.625,690.6406 Q681.625,690.9844 681.2813,691.3906 Q680.7813,691.9688 679.9844,692.2969 Q678.9063,692.75 677.6094,692.75 Q676.0938,692.75 674.8906,692.125 Q673.9063,691.625 673.2188,690.5547 Q672.5313,689.4844 672.5313,688.2031 L672.5313,687.0469 Q672.5313,685.7188 673.1484,684.5703 Q673.7656,683.4219 674.8594,682.8047 Q675.9531,682.1875 677.1875,682.1875 Q677.9219,682.1875 678.5703,682.3516 Q679.2188,682.5156 679.7656,682.875 Z "/><text fill="#000000" font-family="sans-serif" font-size="12" lengthAdjust="spacingAndGlyphs" textLength="76" x="691" y="691.9102">OutputStream</text><line style="stroke: #A80036; stroke-width: 1.5;" x1="663" x2="769" y1="703" y2="703"/><line style="stroke: #A80036; stroke-width: 1.5;" x1="663" x2="769" y1="711" y2="711"/><!--class java.io.ByteArrayOutputStream--><rect fill="#FEFECE" filter="url(#fzddoiqdwemxw)" height="48" id="java.io.ByteArrayOutputStream" style="stroke: #A80036; stroke-width: 1.5;" width="158" x="805" y="671"/><ellipse cx="820" cy="687" fill="#ADD1B2" rx="11" ry="11" style="stroke: #A80036; stroke-width: 1.0;"/><path d="M822.7656,682.875 Q822.9219,682.6563 823.1094,682.5469 Q823.2969,682.4375 823.5156,682.4375 Q823.8906,682.4375 824.125,682.6953 Q824.3594,682.9531 824.3594,683.5625 L824.3594,685.0156 Q824.3594,685.625 824.125,685.8906 Q823.8906,686.1563 823.5156,686.1563 Q823.1719,686.1563 822.9688,685.9531 Q822.7656,685.7656 822.6563,685.25 Q822.6094,684.8906 822.4219,684.7031 Q822.0938,684.3281 821.4844,684.1094 Q820.875,683.8906 820.25,683.8906 Q819.4844,683.8906 818.8516,684.2188 Q818.2188,684.5469 817.7266,685.2969 Q817.2344,686.0469 817.2344,687.0781 L817.2344,688.1719 Q817.2344,689.4063 818.125,690.2266 Q819.0156,691.0469 820.6094,691.0469 Q821.5469,691.0469 822.2031,690.7969 Q822.5938,690.6406 823.0156,690.2031 Q823.2813,689.9375 823.4297,689.8594 Q823.5781,689.7813 823.7813,689.7813 Q824.1094,689.7813 824.3672,690.0391 Q824.625,690.2969 824.625,690.6406 Q824.625,690.9844 824.2813,691.3906 Q823.7813,691.9688 822.9844,692.2969 Q821.9063,692.75 820.6094,692.75 Q819.0938,692.75 817.8906,692.125 Q816.9063,691.625 816.2188,690.5547 Q815.5313,689.4844 815.5313,688.2031 L815.5313,687.0469 Q815.5313,685.7188 816.1484,684.5703 Q816.7656,683.4219 817.8594,682.8047 Q818.9531,682.1875 820.1875,682.1875 Q820.9219,682.1875 821.5703,682.3516 Q822.2188,682.5156 822.7656,682.875 Z "/><text fill="#000000" font-family="sans-serif" font-size="12" lengthAdjust="spacingAndGlyphs" textLength="126" x="834" y="691.9102">ByteArrayOutputStream</text><line style="stroke: #A80036; stroke-width: 1.5;" x1="806" x2="962" y1="703" y2="703"/><line style="stroke: #A80036; stroke-width: 1.5;" x1="806" x2="962" y1="711" y2="711"/><!--link problem.client.App to java.io.PrintStream--><path d="M393.839,105 C583.817,105 1047,105 1047,105 C1047,105 1047,665.771 1047,665.771 " fill="none" id="problem.client.App-java.io.PrintStream" style="stroke: #A80036; stroke-width: 1.0; stroke-dasharray: 7.0,7.0;"/><polygon fill="#A80036" points="1047,670.7714,1051,661.7714,1047,665.7714,1043,661.7714,1047,670.7714" style="stroke: #A80036; stroke-width: 1.0;"/><text fill="#000000" font-family="sans-serif" font-size="13" lengthAdjust="spacingAndGlyphs" textLength="7" x="1039.1031" y="660.0525">1</text><!--link problem.lib.LinearTransformerTest to problem.lib.LinearTransformer--><path d="M653,378.224 C653,378.224 653,444.873 653,444.873 " fill="none" id="problem.lib.LinearTransformerTest-problem.lib.LinearTransformer" style="stroke: #A80036; stroke-width: 1.0;"/><polygon fill="#A80036" points="653,449.873,657,440.873,653,444.873,649,440.873,653,449.873" style="stroke: #A80036; stroke-width: 1.0;"/><text fill="#000000" font-family="sans-serif" font-size="13" lengthAdjust="spacingAndGlyphs" textLength="7" x="645.4641" y="439.2976">1</text><!--link problem.client.EnumerationTests to problem.client.EnumerationMaker--><path d="M143,150.246 C143,150.246 143,262.49 143,262.49 " fill="none" id="problem.client.EnumerationTests-problem.client.EnumerationMaker" style="stroke: #A80036; stroke-width: 1.0; stroke-dasharray: 7.0,7.0;"/><polygon fill="#A80036" points="143,267.49,147,258.49,143,262.49,139,258.49,143,267.49" style="stroke: #A80036; stroke-width: 1.0;"/><text fill="#000000" font-family="sans-serif" font-size="13" lengthAdjust="spacingAndGlyphs" textLength="7" x="121.7109" y="256.5647">1</text><!--link problem.lib.LinearTransformer to java.util.Enumeration--><path d="M550.729,510 C450.814,510 313.667,510 313.667,510 C313.667,510 313.667,647.557 313.667,647.557 " fill="none" id="problem.lib.LinearTransformer-java.util.Enumeration" style="stroke: #A80036; stroke-width: 1.0;"/><polygon fill="#A80036" points="313.667,652.557,317.667,643.557,313.667,647.557,309.667,643.557,313.667,652.557" style="stroke: #A80036; stroke-width: 1.0;"/><text fill="#000000" font-family="sans-serif" font-size="13" lengthAdjust="spacingAndGlyphs" textLength="7" x="318.4874" y="642.052">1</text><!--link problem.lib.LinearTransformerTest to java.util.Vector--><path d="M550.723,367 C517.351,367 492,367 492,367 C492,367 492,665.881 492,665.881 " fill="none" id="problem.lib.LinearTransformerTest-java.util.Vector" style="stroke: #A80036; stroke-width: 1.0; stroke-dasharray: 7.0,7.0;"/><polygon fill="#A80036" points="492,670.8814,496,661.8814,492,665.8814,488,661.8814,492,670.8814" style="stroke: #A80036; stroke-width: 1.0;"/><text fill="#000000" font-family="sans-serif" font-size="13" lengthAdjust="spacingAndGlyphs" textLength="7" x="484.1031" y="660.1907">1</text><!--link problem.lib.LinearTransformer to java.io.OutputStream--><path d="M708.5,540.383 C708.5,540.383 708.5,665.749 708.5,665.749 " fill="none" id="problem.lib.LinearTransformer-java.io.OutputStream" style="stroke: #A80036; stroke-width: 1.0; stroke-dasharray: 7.0,7.0;"/><polygon fill="#A80036" points="708.5,670.7493,712.5,661.7493,708.5,665.7493,704.5,661.7493,708.5,670.7493" style="stroke: #A80036; stroke-width: 1.0;"/><text fill="#000000" font-family="sans-serif" font-size="13" lengthAdjust="spacingAndGlyphs" textLength="7" x="698.6813" y="660.0248">1</text><!--link problem.client.App to problem.client.EnumerationMaker--><path d="M309.5,143.184 C309.5,143.184 309.5,262.458 309.5,262.458 " fill="none" id="problem.client.App-problem.client.EnumerationMaker" style="stroke: #A80036; stroke-width: 1.0; stroke-dasharray: 7.0,7.0;"/><polygon fill="#A80036" points="309.5,267.458,313.5,258.458,309.5,262.458,305.5,258.458,309.5,267.458" style="stroke: #A80036; stroke-width: 1.0;"/><text fill="#000000" font-family="sans-serif" font-size="13" lengthAdjust="spacingAndGlyphs" textLength="7" x="318.9094" y="256.5268">1</text><!--link problem.client.EnumerationTests to java.util.Enumeration--><path d="M81,150.11 C81,282.712 81,662 81,662 C81,662 147.602,662 147.602,662 " fill="none" id="problem.client.EnumerationTests-java.util.Enumeration" style="stroke: #A80036; stroke-width: 1.0; stroke-dasharray: 7.0,7.0;"/><polygon fill="#A80036" points="152.602,662,143.602,658,147.602,662,143.602,666,152.602,662" style="stroke: #A80036; stroke-width: 1.0;"/><text fill="#000000" font-family="sans-serif" font-size="13" lengthAdjust="spacingAndGlyphs" textLength="7" x="138.1342" y="655.9928">1</text><!--link problem.client.App to java.util.Enumeration--><path d="M350.5,143.285 C350.5,269.127 350.5,662 350.5,662 C350.5,662 324.212,662 324.212,662 " fill="none" id="problem.client.App-java.util.Enumeration" style="stroke: #A80036; stroke-width: 1.0; stroke-dasharray: 7.0,7.0;"/><polygon fill="#A80036" points="319.212,662,328.212,666,324.212,662,328.212,658,319.212,662" style="stroke: #A80036; stroke-width: 1.0;"/><text fill="#000000" font-family="sans-serif" font-size="13" lengthAdjust="spacingAndGlyphs" textLength="7" x="326.9348" y="655.8655">1</text><!--link problem.client.EnumerationAdapter to java.util.Enumeration--><path d="M228,551.243 C228,551.243 228,632.809 228,632.809 " fill="none" id="problem.client.EnumerationAdapter-java.util.Enumeration" style="stroke: #A80036; stroke-width: 1.0; stroke-dasharray: 7.0,7.0;"/><polygon fill="none" points="235,632.81,228,652.809,221,632.809,235,632.81" style="stroke: #A80036; stroke-width: 1.0;"/><!--link problem.client.App to java.util.ArrayList--><path d="M272,143.159 C272,166.535 272,192 272,192 C272,192 75,192 75,192 C75,192 75,665.739 75,665.739 " fill="none" id="problem.client.App-java.util.ArrayList" style="stroke: #A80036; stroke-width: 1.0; stroke-dasharray: 7.0,7.0;"/><polygon fill="#A80036" points="75,670.7393,79,661.7393,75,665.7393,71,661.7393,75,670.7393" style="stroke: #A80036; stroke-width: 1.0;"/><text fill="#000000" font-family="sans-serif" font-size="13" lengthAdjust="spacingAndGlyphs" textLength="7" x="66.3344" y="660.0123">1</text><!--link problem.client.EnumerationMaker to problem.client.EnumerationAdapter--><path d="M217,343.848 C217,343.848 217,433.737 217,433.737 " fill="none" id="problem.client.EnumerationMaker-problem.client.EnumerationAdapter" style="stroke: #A80036; stroke-width: 1.0; stroke-dasharray: 7.0,7.0;"/><polygon fill="#A80036" points="217,438.737,221,429.737,217,433.737,213,429.737,217,438.737" style="stroke: #A80036; stroke-width: 1.0;"/><text fill="#000000" font-family="sans-serif" font-size="13" lengthAdjust="spacingAndGlyphs" textLength="7" x="209.5516" y="428.051">1</text><!--link problem.client.EnumerationMaker to java.util.ArrayList--><path d="M102.25,343.556 C102.25,343.556 102.25,665.966 102.25,665.966 " fill="none" id="problem.client.EnumerationMaker-java.util.ArrayList" style="stroke: #A80036; stroke-width: 1.0; stroke-dasharray: 7.0,7.0;"/><polygon fill="#A80036" points="102.25,670.9656,106.25,661.9656,102.25,665.9656,98.25,661.9656,102.25,670.9656" style="stroke: #A80036; stroke-width: 1.0;"/><text fill="#000000" font-family="sans-serif" font-size="13" lengthAdjust="spacingAndGlyphs" textLength="7" x="100.5672" y="660.2974">1</text><!--link problem.client.EnumerationMaker to java.util.Iterator--><path d="M333,343.556 C333,441.564 333,695 333,695 C333,695 348.852,695 348.852,695 " fill="none" id="problem.client.EnumerationMaker-java.util.Iterator" style="stroke: #A80036; stroke-width: 1.0; stroke-dasharray: 7.0,7.0;"/><polygon fill="#A80036" points="353.852,695,344.852,691,348.852,695,344.852,699,353.852,695" style="stroke: #A80036; stroke-width: 1.0;"/><text fill="#000000" font-family="sans-serif" font-size="13" lengthAdjust="spacingAndGlyphs" textLength="7" x="338.8808" y="690.8814">1</text><!--link problem.lib.LinearTransformerTest to java.io.ByteArrayOutputStream--><path d="M836,378.305 C836,378.305 836,665.971 836,665.971 " fill="none" id="problem.lib.LinearTransformerTest-java.io.ByteArrayOutputStream" style="stroke: #A80036; stroke-width: 1.0; stroke-dasharray: 7.0,7.0;"/><polygon fill="#A80036" points="836,670.9708,840,661.9708,836,665.9708,832,661.9708,836,670.9708" style="stroke: #A80036; stroke-width: 1.0;"/><text fill="#000000" font-family="sans-serif" font-size="13" lengthAdjust="spacingAndGlyphs" textLength="7" x="815.8031" y="660.3037">1</text><!--link problem.client.EnumerationAdapter to java.util.Iterator--><path d="M303.449,546 C342.628,546 380.333,546 380.333,546 C380.333,546 380.333,665.729 380.333,665.729 " fill="none" id="problem.client.EnumerationAdapter-java.util.Iterator" style="stroke: #FF0000; stroke-width: 1.0;"/><polygon fill="#FF0000" points="380.333,670.729,384.333,661.729,380.333,665.729,376.333,661.729,380.333,670.729" style="stroke: #FF0000; stroke-width: 1.0;"/><text fill="#000000" font-family="sans-serif" font-size="13" lengthAdjust="spacingAndGlyphs" textLength="39" x="330" y="597.4951">adapts</text><text fill="#000000" font-family="sans-serif" font-size="13" lengthAdjust="spacingAndGlyphs" textLength="7" x="370.2152" y="659.9997">1</text><!--link problem.client.EnumerationTests to java.util.ArrayList--><path d="M69,150.317 C69,150.317 69,665.952 69,665.952 " fill="none" id="problem.client.EnumerationTests-java.util.ArrayList" style="stroke: #A80036; stroke-width: 1.0; stroke-dasharray: 7.0,7.0;"/><polygon fill="#A80036" points="69,670.9519,73,661.9519,69,665.9519,65,661.9519,69,670.9519" style="stroke: #A80036; stroke-width: 1.0;"/><text fill="#000000" font-family="sans-serif" font-size="13" lengthAdjust="spacingAndGlyphs" textLength="7" x="58.7969" y="660.2799">1</text><!--link problem.lib.LinearTransformerTest to java.util.Enumeration--><path d="M550.934,355 C438.876,355 308.333,355 308.333,355 C308.333,355 308.333,647.968 308.333,647.968 " fill="none" id="problem.lib.LinearTransformerTest-java.util.Enumeration" style="stroke: #A80036; stroke-width: 1.0; stroke-dasharray: 7.0,7.0;"/><polygon fill="#A80036" points="308.333,652.968,312.333,643.968,308.333,647.968,304.333,643.968,308.333,652.968" style="stroke: #A80036; stroke-width: 1.0;"/><text fill="#000000" font-family="sans-serif" font-size="13" lengthAdjust="spacingAndGlyphs" textLength="7" x="312.7335" y="642.2173">1</text><!--link problem.client.App to problem.lib.LinearTransformer--><path d="M367.167,143.021 C367.167,238.357 367.167,480 367.167,480 C367.167,480 545.615,480 545.615,480 " fill="none" id="problem.client.App-problem.lib.LinearTransformer" style="stroke: #A80036; stroke-width: 1.0; stroke-dasharray: 7.0,7.0;"/><polygon fill="#A80036" points="550.615,480,541.615,476,545.615,480,541.615,484,550.615,480" style="stroke: #A80036; stroke-width: 1.0;"/><text fill="#000000" font-family="sans-serif" font-size="13" lengthAdjust="spacingAndGlyphs" textLength="7" x="535.8391" y="475.837">1</text></g></svg>