<?xml version="1.0" encoding="UTF-8" standalone="no"?><svg xmlns="http://www.w3.org/2000/svg" xmlns:xlink="http://www.w3.org/1999/xlink" contentScriptType="application/ecmascript" contentStyleType="text/css" height="1149px" preserveAspectRatio="none" style="width:1933px;height:1149px;" version="1.1" viewBox="0 0 1933 1149" width="1933px" zoomAndPan="magnify"><defs><filter height="300%" id="f4h7f1kxrz8o2" width="300%" x="-1" y="-1"><feGaussianBlur result="blurOut" stdDeviation="2.0"/><feColorMatrix in="blurOut" result="blurOut2" type="matrix" values="0 0 0 0 0 0 0 0 0 0 0 0 0 0 0 0 0 0 .4 0"/><feOffset dx="4.0" dy="4.0" in="blurOut2" result="blurOut3"/><feBlend in="SourceGraphic" in2="blurOut3" mode="normal"/></filter></defs><g><!--cluster problem--><polygon fill="#FFFFFF" filter="url(#f4h7f1kxrz8o2)" points="22,24,86,24,93,47.6094,1195,47.6094,1195,1137,22,1137,22,24" style="stroke: #000000; stroke-width: 1.5;"/><line style="stroke: #000000; stroke-width: 1.5;" x1="22" x2="93" y1="47.6094" y2="47.6094"/><text fill="#000000" font-family="sans-serif" font-size="14" font-weight="bold" lengthAdjust="spacingAndGlyphs" textLength="58" x="26" y="40.5332">problem</text><!--cluster NewTestStructure--><polygon fill="#FFFFFF" filter="url(#f4h7f1kxrz8o2)" points="1219,38,1351,38,1358,61.6094,1911,61.6094,1911,557,1219,557,1219,38" style="stroke: #000000; stroke-width: 1.5;"/><line style="stroke: #000000; stroke-width: 1.5;" x1="1219" x2="1358" y1="61.6094" y2="61.6094"/><text fill="#000000" font-family="sans-serif" font-size="14" font-weight="bold" lengthAdjust="spacingAndGlyphs" textLength="126" x="1223" y="54.5332">NewTestStructure</text><!--class problem.AppLauncherApplication--><rect fill="#FEFECE" filter="url(#f4h7f1kxrz8o2)" height="75.6719" id="problem.AppLauncherApplication" style="stroke: #A80036; stroke-width: 1.5;" width="165" x="417.5" y="136"/><ellipse cx="432.5" cy="152" fill="#ADD1B2" rx="11" ry="11" style="stroke: #A80036; stroke-width: 1.0;"/><path d="M435.2656,147.875 Q435.4219,147.6563 435.6094,147.5469 Q435.7969,147.4375 436.0156,147.4375 Q436.3906,147.4375 436.625,147.6953 Q436.8594,147.9531 436.8594,148.5625 L436.8594,150.0156 Q436.8594,150.625 436.625,150.8906 Q436.3906,151.1563 436.0156,151.1563 Q435.6719,151.1563 435.4688,150.9531 Q435.2656,150.7656 435.1563,150.25 Q435.1094,149.8906 434.9219,149.7031 Q434.5938,149.3281 433.9844,149.1094 Q433.375,148.8906 432.75,148.8906 Q431.9844,148.8906 431.3516,149.2188 Q430.7188,149.5469 430.2266,150.2969 Q429.7344,151.0469 429.7344,152.0781 L429.7344,153.1719 Q429.7344,154.4063 430.625,155.2266 Q431.5156,156.0469 433.1094,156.0469 Q434.0469,156.0469 434.7031,155.7969 Q435.0938,155.6406 435.5156,155.2031 Q435.7813,154.9375 435.9297,154.8594 Q436.0781,154.7813 436.2813,154.7813 Q436.6094,154.7813 436.8672,155.0391 Q437.125,155.2969 437.125,155.6406 Q437.125,155.9844 436.7813,156.3906 Q436.2813,156.9688 435.4844,157.2969 Q434.4063,157.75 433.1094,157.75 Q431.5938,157.75 430.3906,157.125 Q429.4063,156.625 428.7188,155.5547 Q428.0313,154.4844 428.0313,153.2031 L428.0313,152.0469 Q428.0313,150.7188 428.6484,149.5703 Q429.2656,148.4219 430.3594,147.8047 Q431.4531,147.1875 432.6875,147.1875 Q433.4219,147.1875 434.0703,147.3516 Q434.7188,147.5156 435.2656,147.875 Z "/><text fill="#000000" font-family="sans-serif" font-size="12" lengthAdjust="spacingAndGlyphs" textLength="133" x="446.5" y="156.9102">AppLauncherApplication</text><line style="stroke: #A80036; stroke-width: 1.5;" x1="418.5" x2="581.5" y1="168" y2="168"/><line style="stroke: #A80036; stroke-width: 1.5;" x1="418.5" x2="581.5" y1="176" y2="176"/><ellipse cx="428.5" cy="188.418" fill="#84BE84" rx="3" ry="3" style="stroke: #038048; stroke-width: 1.0;"/><text fill="#000000" font-family="sans-serif" font-size="11" lengthAdjust="spacingAndGlyphs" textLength="56" x="437.5" y="191.4189">void &lt;init&gt;()</text><ellipse cx="428.5" cy="202.2539" fill="#84BE84" rx="3" ry="3" style="stroke: #038048; stroke-width: 1.0;"/><text fill="#000000" font-family="sans-serif" font-size="11" lengthAdjust="spacingAndGlyphs" text-decoration="underline" textLength="133" x="437.5" y="205.2549">void main(java.lang.String[])</text><line style="stroke: #000000; stroke-width: 1.0;" x1="437.5" x2="570.5" y1="207.2549" y2="207.2549"/><!--class problem.AllTests--><rect fill="#FEFECE" filter="url(#f4h7f1kxrz8o2)" height="61.8359" id="problem.AllTests" style="stroke: #A80036; stroke-width: 1.5;" width="82" x="618" y="143"/><ellipse cx="635.7" cy="159" fill="#ADD1B2" rx="11" ry="11" style="stroke: #A80036; stroke-width: 1.0;"/><path d="M638.4656,154.875 Q638.6219,154.6563 638.8094,154.5469 Q638.9969,154.4375 639.2156,154.4375 Q639.5906,154.4375 639.825,154.6953 Q640.0594,154.9531 640.0594,155.5625 L640.0594,157.0156 Q640.0594,157.625 639.825,157.8906 Q639.5906,158.1563 639.2156,158.1563 Q638.8719,158.1563 638.6688,157.9531 Q638.4656,157.7656 638.3563,157.25 Q638.3094,156.8906 638.1219,156.7031 Q637.7938,156.3281 637.1844,156.1094 Q636.575,155.8906 635.95,155.8906 Q635.1844,155.8906 634.5516,156.2188 Q633.9188,156.5469 633.4266,157.2969 Q632.9344,158.0469 632.9344,159.0781 L632.9344,160.1719 Q632.9344,161.4063 633.825,162.2266 Q634.7156,163.0469 636.3094,163.0469 Q637.2469,163.0469 637.9031,162.7969 Q638.2938,162.6406 638.7156,162.2031 Q638.9813,161.9375 639.1297,161.8594 Q639.2781,161.7813 639.4813,161.7813 Q639.8094,161.7813 640.0672,162.0391 Q640.325,162.2969 640.325,162.6406 Q640.325,162.9844 639.9813,163.3906 Q639.4813,163.9688 638.6844,164.2969 Q637.6063,164.75 636.3094,164.75 Q634.7938,164.75 633.5906,164.125 Q632.6063,163.625 631.9188,162.5547 Q631.2313,161.4844 631.2313,160.2031 L631.2313,159.0469 Q631.2313,157.7188 631.8484,156.5703 Q632.4656,155.4219 633.5594,154.8047 Q634.6531,154.1875 635.8875,154.1875 Q636.6219,154.1875 637.2703,154.3516 Q637.9188,154.5156 638.4656,154.875 Z "/><text fill="#000000" font-family="sans-serif" font-size="12" lengthAdjust="spacingAndGlyphs" textLength="44" x="650.3" y="163.9102">AllTests</text><line style="stroke: #A80036; stroke-width: 1.5;" x1="619" x2="699" y1="175" y2="175"/><line style="stroke: #A80036; stroke-width: 1.5;" x1="619" x2="699" y1="183" y2="183"/><ellipse cx="629" cy="195.418" fill="#84BE84" rx="3" ry="3" style="stroke: #038048; stroke-width: 1.0;"/><text fill="#000000" font-family="sans-serif" font-size="11" lengthAdjust="spacingAndGlyphs" textLength="56" x="638" y="198.4189">void &lt;init&gt;()</text><!--class problem.AppLauncher--><rect fill="#FEFECE" filter="url(#f4h7f1kxrz8o2)" height="214.0313" id="problem.AppLauncher" style="stroke: #A80036; stroke-width: 1.5;" width="315" x="735.5" y="67"/><ellipse cx="852.25" cy="83" fill="#ADD1B2" rx="11" ry="11" style="stroke: #A80036; stroke-width: 1.0;"/><path d="M855.0156,78.875 Q855.1719,78.6563 855.3594,78.5469 Q855.5469,78.4375 855.7656,78.4375 Q856.1406,78.4375 856.375,78.6953 Q856.6094,78.9531 856.6094,79.5625 L856.6094,81.0156 Q856.6094,81.625 856.375,81.8906 Q856.1406,82.1563 855.7656,82.1563 Q855.4219,82.1563 855.2188,81.9531 Q855.0156,81.7656 854.9063,81.25 Q854.8594,80.8906 854.6719,80.7031 Q854.3438,80.3281 853.7344,80.1094 Q853.125,79.8906 852.5,79.8906 Q851.7344,79.8906 851.1016,80.2188 Q850.4688,80.5469 849.9766,81.2969 Q849.4844,82.0469 849.4844,83.0781 L849.4844,84.1719 Q849.4844,85.4063 850.375,86.2266 Q851.2656,87.0469 852.8594,87.0469 Q853.7969,87.0469 854.4531,86.7969 Q854.8438,86.6406 855.2656,86.2031 Q855.5313,85.9375 855.6797,85.8594 Q855.8281,85.7813 856.0313,85.7813 Q856.3594,85.7813 856.6172,86.0391 Q856.875,86.2969 856.875,86.6406 Q856.875,86.9844 856.5313,87.3906 Q856.0313,87.9688 855.2344,88.2969 Q854.1563,88.75 852.8594,88.75 Q851.3438,88.75 850.1406,88.125 Q849.1563,87.625 848.4688,86.5547 Q847.7813,85.4844 847.7813,84.2031 L847.7813,83.0469 Q847.7813,81.7188 848.3984,80.5703 Q849.0156,79.4219 850.1094,78.8047 Q851.2031,78.1875 852.4375,78.1875 Q853.1719,78.1875 853.8203,78.3516 Q854.4688,78.5156 855.0156,78.875 Z "/><text fill="#000000" font-family="sans-serif" font-size="12" lengthAdjust="spacingAndGlyphs" textLength="73" x="872.75" y="87.9102">AppLauncher</text><line style="stroke: #A80036; stroke-width: 1.5;" x1="736.5" x2="1049.5" y1="99" y2="99"/><rect fill="none" height="6" style="stroke: #C82930; stroke-width: 1.0;" width="6" x="743.5" y="108.418"/><text fill="#000000" font-family="sans-serif" font-size="11" lengthAdjust="spacingAndGlyphs" textLength="169" x="755.5" y="114.4189">java.nio.file.WatchService watcher</text><rect fill="none" height="6" style="stroke: #C82930; stroke-width: 1.0;" width="6" x="743.5" y="122.2539"/><text fill="#000000" font-family="sans-serif" font-size="11" lengthAdjust="spacingAndGlyphs" textLength="93" x="755.5" y="128.2549">java.nio.file.Path dir</text><rect fill="none" height="6" style="stroke: #C82930; stroke-width: 1.0;" width="6" x="743.5" y="136.0898"/><text fill="#000000" font-family="sans-serif" font-size="11" lengthAdjust="spacingAndGlyphs" textLength="62" x="755.5" y="142.0908">boolean stop</text><rect fill="none" height="6" style="stroke: #C82930; stroke-width: 1.0;" width="6" x="743.5" y="149.9258"/><text fill="#000000" font-family="sans-serif" font-size="11" lengthAdjust="spacingAndGlyphs" textLength="111" x="755.5" y="155.9268">java.util.List processes</text><line style="stroke: #A80036; stroke-width: 1.5;" x1="736.5" x2="1049.5" y1="162.3438" y2="162.3438"/><rect fill="#F24D5C" height="6" style="stroke: #C82930; stroke-width: 1.0;" width="6" x="743.5" y="171.7617"/><text fill="#000000" font-family="sans-serif" font-size="11" lengthAdjust="spacingAndGlyphs" textLength="134" x="755.5" y="177.7627">void &lt;init&gt;(java.nio.file.Path)</text><ellipse cx="746.5" cy="188.5977" fill="#84BE84" rx="3" ry="3" style="stroke: #038048; stroke-width: 1.0;"/><text fill="#000000" font-family="sans-serif" font-size="11" lengthAdjust="spacingAndGlyphs" textLength="47" x="755.5" y="191.5986">void run()</text><polygon fill="#FFFF44" points="746.5,197.4336,750.5,201.4336,746.5,205.4336,742.5,201.4336" style="stroke: #B38D22; stroke-width: 1.0;"/><text fill="#000000" font-family="sans-serif" font-size="11" lengthAdjust="spacingAndGlyphs" textLength="106" x="755.5" y="205.4346">void clearEverything()</text><ellipse cx="746.5" cy="216.2695" fill="#84BE84" rx="3" ry="3" style="stroke: #038048; stroke-width: 1.0;"/><text fill="#000000" font-family="sans-serif" font-size="11" lengthAdjust="spacingAndGlyphs" textLength="102" x="755.5" y="219.2705">void stopGracefully()</text><ellipse cx="746.5" cy="230.1055" fill="#84BE84" rx="3" ry="3" style="stroke: #038048; stroke-width: 1.0;"/><text fill="#000000" font-family="sans-serif" font-size="11" lengthAdjust="spacingAndGlyphs" textLength="96" x="755.5" y="233.1064">boolean isRunning()</text><ellipse cx="746.5" cy="243.9414" fill="#84BE84" rx="3" ry="3" style="stroke: #038048; stroke-width: 1.0;"/><text fill="#000000" font-family="sans-serif" font-size="11" lengthAdjust="spacingAndGlyphs" textLength="124" x="755.5" y="246.9424">int getApplicationsCount()</text><ellipse cx="746.5" cy="257.7773" fill="#84BE84" rx="3" ry="3" style="stroke: #038048; stroke-width: 1.0;"/><text fill="#000000" font-family="sans-serif" font-size="11" lengthAdjust="spacingAndGlyphs" textLength="289" x="755.5" y="260.7783">void handleDirectoryEvent(java.lang.String,java.nio.file.Path)</text><ellipse cx="746.5" cy="271.6133" fill="#84BE84" rx="3" ry="3" style="stroke: #038048; stroke-width: 1.0;"/><text fill="#000000" font-family="sans-serif" font-size="11" lengthAdjust="spacingAndGlyphs" text-decoration="underline" textLength="133" x="755.5" y="274.6143">void main(java.lang.String[])</text><line style="stroke: #000000; stroke-width: 1.0;" x1="755.5" x2="888.5" y1="276.6143" y2="276.6143"/><!--class problem.AppLauncherBaseCaseTest--><rect fill="#FEFECE" filter="url(#f4h7f1kxrz8o2)" height="75.6719" id="problem.AppLauncherBaseCaseTest" style="stroke: #A80036; stroke-width: 1.5;" width="188" x="335" y="410"/><ellipse cx="350" cy="426" fill="#ADD1B2" rx="11" ry="11" style="stroke: #A80036; stroke-width: 1.0;"/><path d="M352.7656,421.875 Q352.9219,421.6563 353.1094,421.5469 Q353.2969,421.4375 353.5156,421.4375 Q353.8906,421.4375 354.125,421.6953 Q354.3594,421.9531 354.3594,422.5625 L354.3594,424.0156 Q354.3594,424.625 354.125,424.8906 Q353.8906,425.1563 353.5156,425.1563 Q353.1719,425.1563 352.9688,424.9531 Q352.7656,424.7656 352.6563,424.25 Q352.6094,423.8906 352.4219,423.7031 Q352.0938,423.3281 351.4844,423.1094 Q350.875,422.8906 350.25,422.8906 Q349.4844,422.8906 348.8516,423.2188 Q348.2188,423.5469 347.7266,424.2969 Q347.2344,425.0469 347.2344,426.0781 L347.2344,427.1719 Q347.2344,428.4063 348.125,429.2266 Q349.0156,430.0469 350.6094,430.0469 Q351.5469,430.0469 352.2031,429.7969 Q352.5938,429.6406 353.0156,429.2031 Q353.2813,428.9375 353.4297,428.8594 Q353.5781,428.7813 353.7813,428.7813 Q354.1094,428.7813 354.3672,429.0391 Q354.625,429.2969 354.625,429.6406 Q354.625,429.9844 354.2813,430.3906 Q353.7813,430.9688 352.9844,431.2969 Q351.9063,431.75 350.6094,431.75 Q349.0938,431.75 347.8906,431.125 Q346.9063,430.625 346.2188,429.5547 Q345.5313,428.4844 345.5313,427.2031 L345.5313,426.0469 Q345.5313,424.7188 346.1484,423.5703 Q346.7656,422.4219 347.8594,421.8047 Q348.9531,421.1875 350.1875,421.1875 Q350.9219,421.1875 351.5703,421.3516 Q352.2188,421.5156 352.7656,421.875 Z "/><text fill="#000000" font-family="sans-serif" font-size="12" lengthAdjust="spacingAndGlyphs" textLength="156" x="364" y="430.9102">AppLauncherBaseCaseTest</text><line style="stroke: #A80036; stroke-width: 1.5;" x1="336" x2="522" y1="442" y2="442"/><line style="stroke: #A80036; stroke-width: 1.5;" x1="336" x2="522" y1="450" y2="450"/><ellipse cx="346" cy="462.418" fill="#84BE84" rx="3" ry="3" style="stroke: #038048; stroke-width: 1.0;"/><text fill="#000000" font-family="sans-serif" font-size="11" lengthAdjust="spacingAndGlyphs" textLength="56" x="355" y="465.4189">void &lt;init&gt;()</text><ellipse cx="346" cy="476.2539" fill="#84BE84" rx="3" ry="3" style="stroke: #038048; stroke-width: 1.0;"/><text fill="#000000" font-family="sans-serif" font-size="11" lengthAdjust="spacingAndGlyphs" textLength="72" x="355" y="479.2549">void testStart()</text><!--class problem.AppLauncherSupportTest--><rect fill="#FEFECE" filter="url(#f4h7f1kxrz8o2)" height="200.1953" id="problem.AppLauncherSupportTest" style="stroke: #A80036; stroke-width: 1.5;" width="188" x="558" y="348"/><ellipse cx="580.2" cy="364" fill="#ADD1B2" rx="11" ry="11" style="stroke: #A80036; stroke-width: 1.0;"/><path d="M582.9656,359.875 Q583.1219,359.6563 583.3094,359.5469 Q583.4969,359.4375 583.7156,359.4375 Q584.0906,359.4375 584.325,359.6953 Q584.5594,359.9531 584.5594,360.5625 L584.5594,362.0156 Q584.5594,362.625 584.325,362.8906 Q584.0906,363.1563 583.7156,363.1563 Q583.3719,363.1563 583.1688,362.9531 Q582.9656,362.7656 582.8563,362.25 Q582.8094,361.8906 582.6219,361.7031 Q582.2938,361.3281 581.6844,361.1094 Q581.075,360.8906 580.45,360.8906 Q579.6844,360.8906 579.0516,361.2188 Q578.4188,361.5469 577.9266,362.2969 Q577.4344,363.0469 577.4344,364.0781 L577.4344,365.1719 Q577.4344,366.4063 578.325,367.2266 Q579.2156,368.0469 580.8094,368.0469 Q581.7469,368.0469 582.4031,367.7969 Q582.7938,367.6406 583.2156,367.2031 Q583.4813,366.9375 583.6297,366.8594 Q583.7781,366.7813 583.9813,366.7813 Q584.3094,366.7813 584.5672,367.0391 Q584.825,367.2969 584.825,367.6406 Q584.825,367.9844 584.4813,368.3906 Q583.9813,368.9688 583.1844,369.2969 Q582.1063,369.75 580.8094,369.75 Q579.2938,369.75 578.0906,369.125 Q577.1063,368.625 576.4188,367.5547 Q575.7313,366.4844 575.7313,365.2031 L575.7313,364.0469 Q575.7313,362.7188 576.3484,361.5703 Q576.9656,360.4219 578.0594,359.8047 Q579.1531,359.1875 580.3875,359.1875 Q581.1219,359.1875 581.7703,359.3516 Q582.4188,359.5156 582.9656,359.875 Z "/><text fill="#000000" font-family="sans-serif" font-size="12" lengthAdjust="spacingAndGlyphs" textLength="140" x="595.8" y="368.9102">AppLauncherSupportTest</text><line style="stroke: #A80036; stroke-width: 1.5;" x1="559" x2="745" y1="380" y2="380"/><rect fill="none" height="6" style="stroke: #C82930; stroke-width: 1.0;" width="6" x="566" y="389.418"/><text fill="#000000" font-family="sans-serif" font-size="11" lengthAdjust="spacingAndGlyphs" textLength="152" x="578" y="395.4189">problem.AppLauncher launcher</text><rect fill="none" height="6" style="stroke: #C82930; stroke-width: 1.0;" width="6" x="566" y="403.2539"/><text fill="#000000" font-family="sans-serif" font-size="11" lengthAdjust="spacingAndGlyphs" textLength="114" x="578" y="409.2549">java.lang.String baseDir</text><rect fill="none" height="6" style="stroke: #C82930; stroke-width: 1.0;" width="6" x="566" y="417.0898"/><text fill="#000000" font-family="sans-serif" font-size="11" lengthAdjust="spacingAndGlyphs" textLength="124" x="578" y="423.0908">java.lang.String srcTxtFile</text><rect fill="none" height="6" style="stroke: #C82930; stroke-width: 1.0;" width="6" x="566" y="430.9258"/><text fill="#000000" font-family="sans-serif" font-size="11" lengthAdjust="spacingAndGlyphs" textLength="129" x="578" y="436.9268">java.lang.String destTxtFile</text><rect fill="none" height="6" style="stroke: #C82930; stroke-width: 1.0;" width="6" x="566" y="444.7617"/><text fill="#000000" font-family="sans-serif" font-size="11" lengthAdjust="spacingAndGlyphs" textLength="129" x="578" y="450.7627">java.lang.String srcHtmlFile</text><rect fill="none" height="6" style="stroke: #C82930; stroke-width: 1.0;" width="6" x="566" y="458.5977"/><text fill="#000000" font-family="sans-serif" font-size="11" lengthAdjust="spacingAndGlyphs" textLength="134" x="578" y="464.5986">java.lang.String destHtmlFile</text><line style="stroke: #A80036; stroke-width: 1.5;" x1="559" x2="745" y1="471.0156" y2="471.0156"/><ellipse cx="569" cy="483.4336" fill="#84BE84" rx="3" ry="3" style="stroke: #038048; stroke-width: 1.0;"/><text fill="#000000" font-family="sans-serif" font-size="11" lengthAdjust="spacingAndGlyphs" textLength="56" x="578" y="486.4346">void &lt;init&gt;()</text><ellipse cx="569" cy="497.2695" fill="#84BE84" rx="3" ry="3" style="stroke: #038048; stroke-width: 1.0;"/><text fill="#000000" font-family="sans-serif" font-size="11" lengthAdjust="spacingAndGlyphs" textLength="59" x="578" y="500.2705">void setUp()</text><ellipse cx="569" cy="511.1055" fill="#84BE84" rx="3" ry="3" style="stroke: #038048; stroke-width: 1.0;"/><text fill="#000000" font-family="sans-serif" font-size="11" lengthAdjust="spacingAndGlyphs" textLength="79" x="578" y="514.1064">void tearDown()</text><ellipse cx="569" cy="524.9414" fill="#84BE84" rx="3" ry="3" style="stroke: #038048; stroke-width: 1.0;"/><text fill="#000000" font-family="sans-serif" font-size="11" lengthAdjust="spacingAndGlyphs" textLength="125" x="578" y="527.9424">void testLaunchNotepad()</text><ellipse cx="569" cy="538.7773" fill="#84BE84" rx="3" ry="3" style="stroke: #038048; stroke-width: 1.0;"/><text fill="#000000" font-family="sans-serif" font-size="11" lengthAdjust="spacingAndGlyphs" textLength="162" x="578" y="541.7783">void testLaunchDefaultBrowser()</text><!--class problem.ApplicationLauncher--><rect fill="#FEFECE" filter="url(#f4h7f1kxrz8o2)" height="186.3594" id="problem.ApplicationLauncher" style="stroke: #A80036; stroke-width: 1.5;" width="303" x="38.5" y="608"/><ellipse cx="129.75" cy="624" fill="#ADD1B2" rx="11" ry="11" style="stroke: #A80036; stroke-width: 1.0;"/><path d="M132.5156,619.875 Q132.6719,619.6563 132.8594,619.5469 Q133.0469,619.4375 133.2656,619.4375 Q133.6406,619.4375 133.875,619.6953 Q134.1094,619.9531 134.1094,620.5625 L134.1094,622.0156 Q134.1094,622.625 133.875,622.8906 Q133.6406,623.1563 133.2656,623.1563 Q132.9219,623.1563 132.7188,622.9531 Q132.5156,622.7656 132.4063,622.25 Q132.3594,621.8906 132.1719,621.7031 Q131.8438,621.3281 131.2344,621.1094 Q130.625,620.8906 130,620.8906 Q129.2344,620.8906 128.6016,621.2188 Q127.9688,621.5469 127.4766,622.2969 Q126.9844,623.0469 126.9844,624.0781 L126.9844,625.1719 Q126.9844,626.4063 127.875,627.2266 Q128.7656,628.0469 130.3594,628.0469 Q131.2969,628.0469 131.9531,627.7969 Q132.3438,627.6406 132.7656,627.2031 Q133.0313,626.9375 133.1797,626.8594 Q133.3281,626.7813 133.5313,626.7813 Q133.8594,626.7813 134.1172,627.0391 Q134.375,627.2969 134.375,627.6406 Q134.375,627.9844 134.0313,628.3906 Q133.5313,628.9688 132.7344,629.2969 Q131.6563,629.75 130.3594,629.75 Q128.8438,629.75 127.6406,629.125 Q126.6563,628.625 125.9688,627.5547 Q125.2813,626.4844 125.2813,625.2031 L125.2813,624.0469 Q125.2813,622.7188 125.8984,621.5703 Q126.5156,620.4219 127.6094,619.8047 Q128.7031,619.1875 129.9375,619.1875 Q130.6719,619.1875 131.3203,619.3516 Q131.9688,619.5156 132.5156,619.875 Z "/><text fill="#000000" font-family="sans-serif" font-size="12" lengthAdjust="spacingAndGlyphs" textLength="112" x="150.25" y="628.9102">ApplicationLauncher</text><line style="stroke: #A80036; stroke-width: 1.5;" x1="39.5" x2="340.5" y1="640" y2="640"/><rect fill="none" height="6" style="stroke: #C82930; stroke-width: 1.0;" width="6" x="46.5" y="649.418"/><text fill="#000000" font-family="sans-serif" font-size="11" lengthAdjust="spacingAndGlyphs" textLength="176" x="58.5" y="655.4189">java.util.Map extensionToRunnerMap</text><rect fill="none" height="6" style="stroke: #C82930; stroke-width: 1.0;" width="6" x="46.5" y="663.2539"/><text fill="#000000" font-family="sans-serif" font-size="11" lengthAdjust="spacingAndGlyphs" textLength="77" x="58.5" y="669.2549">boolean running</text><line style="stroke: #A80036; stroke-width: 1.5;" x1="39.5" x2="340.5" y1="675.6719" y2="675.6719"/><ellipse cx="49.5" cy="688.0898" fill="#84BE84" rx="3" ry="3" style="stroke: #038048; stroke-width: 1.0;"/><text fill="#000000" font-family="sans-serif" font-size="11" lengthAdjust="spacingAndGlyphs" textLength="56" x="58.5" y="691.0908">void &lt;init&gt;()</text><ellipse cx="49.5" cy="701.9258" fill="#84BE84" rx="3" ry="3" style="stroke: #038048; stroke-width: 1.0;"/><text fill="#000000" font-family="sans-serif" font-size="11" lengthAdjust="spacingAndGlyphs" textLength="230" x="58.5" y="704.9268">void DirectoryChanged(problem.DirectoryEvent)</text><ellipse cx="49.5" cy="715.7617" fill="#84BE84" rx="3" ry="3" style="stroke: #038048; stroke-width: 1.0;"/><text fill="#000000" font-family="sans-serif" font-size="11" lengthAdjust="spacingAndGlyphs" textLength="96" x="58.5" y="718.7627">boolean isRunning()</text><ellipse cx="49.5" cy="729.5977" fill="#84BE84" rx="3" ry="3" style="stroke: #038048; stroke-width: 1.0;"/><text fill="#000000" font-family="sans-serif" font-size="11" lengthAdjust="spacingAndGlyphs" textLength="152" x="58.5" y="732.5986">java.util.Collection getRunners()</text><ellipse cx="49.5" cy="743.4336" fill="#84BE84" rx="3" ry="3" style="stroke: #038048; stroke-width: 1.0;"/><text fill="#000000" font-family="sans-serif" font-size="11" lengthAdjust="spacingAndGlyphs" textLength="277" x="58.5" y="746.4346">void addRunner(java.lang.String,problem.ProcessRunner)</text><ellipse cx="49.5" cy="757.2695" fill="#84BE84" rx="3" ry="3" style="stroke: #038048; stroke-width: 1.0;"/><text fill="#000000" font-family="sans-serif" font-size="11" lengthAdjust="spacingAndGlyphs" textLength="80" x="58.5" y="760.2705">void shutdown()</text><rect fill="#F24D5C" height="6" style="stroke: #C82930; stroke-width: 1.0;" width="6" x="46.5" y="768.1055"/><text fill="#000000" font-family="sans-serif" font-size="11" lengthAdjust="spacingAndGlyphs" text-decoration="underline" textLength="193" x="58.5" y="774.1064">void lambda$0(problem.ProcessRunner)</text><line style="stroke: #000000; stroke-width: 1.0;" x1="58.5" x2="251.5" y1="776.1064" y2="776.1064"/><rect fill="#F24D5C" height="6" style="stroke: #C82930; stroke-width: 1.0;" width="6" x="46.5" y="781.9414"/><text fill="#000000" font-family="sans-serif" font-size="11" lengthAdjust="spacingAndGlyphs" text-decoration="underline" textLength="163" x="58.5" y="787.9424">void lambda$1(java.lang.Process)</text><line style="stroke: #000000; stroke-width: 1.0;" x1="58.5" x2="221.5" y1="789.9424" y2="789.9424"/><!--class problem.IDirectoryListener--><rect fill="#FEFECE" filter="url(#f4h7f1kxrz8o2)" height="75.6719" id="problem.IDirectoryListener" style="stroke: #A80036; stroke-width: 1.5;" width="262" x="38" y="410"/><ellipse cx="116.25" cy="426" fill="#B4A7E5" rx="11" ry="11" style="stroke: #A80036; stroke-width: 1.0;"/><path d="M117.2031,422.6406 L117.2031,429.2969 L118.9219,429.2969 Q119.5313,429.2969 119.7969,429.5313 Q120.0625,429.7656 120.0625,430.1563 Q120.0625,430.5313 119.7969,430.7656 Q119.5313,431 118.9219,431 L113.7813,431 Q113.1719,431 112.9063,430.7656 Q112.6406,430.5313 112.6406,430.1406 Q112.6406,429.7656 112.9063,429.5313 Q113.1719,429.2969 113.7813,429.2969 L115.5,429.2969 L115.5,422.6406 L113.7813,422.6406 Q113.1719,422.6406 112.9063,422.4063 Q112.6406,422.1719 112.6406,421.7813 Q112.6406,421.4063 112.9063,421.1719 Q113.1719,420.9375 113.7813,420.9375 L118.9219,420.9375 Q119.5313,420.9375 119.7969,421.1719 Q120.0625,421.4063 120.0625,421.7813 Q120.0625,422.1719 119.7969,422.4063 Q119.5313,422.6406 118.9219,422.6406 L117.2031,422.6406 Z "/><text fill="#000000" font-family="sans-serif" font-size="12" font-style="italic" lengthAdjust="spacingAndGlyphs" textLength="97" x="136.75" y="430.9102">IDirectoryListener</text><line style="stroke: #A80036; stroke-width: 1.5;" x1="39" x2="299" y1="442" y2="442"/><line style="stroke: #A80036; stroke-width: 1.5;" x1="39" x2="299" y1="450" y2="450"/><ellipse cx="49" cy="462.418" fill="#84BE84" rx="3" ry="3" style="stroke: #038048; stroke-width: 1.0;"/><text fill="#000000" font-family="sans-serif" font-size="11" font-style="italic" lengthAdjust="spacingAndGlyphs" textLength="236" x="58" y="465.4189">void DirectoryChanged(problem.DirectoryEvent)</text><ellipse cx="49" cy="476.2539" fill="#84BE84" rx="3" ry="3" style="stroke: #038048; stroke-width: 1.0;"/><text fill="#000000" font-family="sans-serif" font-size="11" font-style="italic" lengthAdjust="spacingAndGlyphs" textLength="101" x="58" y="479.2549">boolean isRunning()</text><!--class problem.DataFileRunner--><rect fill="#FEFECE" filter="url(#f4h7f1kxrz8o2)" height="75.6719" id="problem.DataFileRunner" style="stroke: #A80036; stroke-width: 1.5;" width="174" x="70" y="1045"/><ellipse cx="109.75" cy="1061" fill="#ADD1B2" rx="11" ry="11" style="stroke: #A80036; stroke-width: 1.0;"/><path d="M112.5156,1056.875 Q112.6719,1056.6563 112.8594,1056.5469 Q113.0469,1056.4375 113.2656,1056.4375 Q113.6406,1056.4375 113.875,1056.6953 Q114.1094,1056.9531 114.1094,1057.5625 L114.1094,1059.0156 Q114.1094,1059.625 113.875,1059.8906 Q113.6406,1060.1563 113.2656,1060.1563 Q112.9219,1060.1563 112.7188,1059.9531 Q112.5156,1059.7656 112.4063,1059.25 Q112.3594,1058.8906 112.1719,1058.7031 Q111.8438,1058.3281 111.2344,1058.1094 Q110.625,1057.8906 110,1057.8906 Q109.2344,1057.8906 108.6016,1058.2188 Q107.9688,1058.5469 107.4766,1059.2969 Q106.9844,1060.0469 106.9844,1061.0781 L106.9844,1062.1719 Q106.9844,1063.4063 107.875,1064.2266 Q108.7656,1065.0469 110.3594,1065.0469 Q111.2969,1065.0469 111.9531,1064.7969 Q112.3438,1064.6406 112.7656,1064.2031 Q113.0313,1063.9375 113.1797,1063.8594 Q113.3281,1063.7813 113.5313,1063.7813 Q113.8594,1063.7813 114.1172,1064.0391 Q114.375,1064.2969 114.375,1064.6406 Q114.375,1064.9844 114.0313,1065.3906 Q113.5313,1065.9688 112.7344,1066.2969 Q111.6563,1066.75 110.3594,1066.75 Q108.8438,1066.75 107.6406,1066.125 Q106.6563,1065.625 105.9688,1064.5547 Q105.2813,1063.4844 105.2813,1062.2031 L105.2813,1061.0469 Q105.2813,1059.7188 105.8984,1058.5703 Q106.5156,1057.4219 107.6094,1056.8047 Q108.7031,1056.1875 109.9375,1056.1875 Q110.6719,1056.1875 111.3203,1056.3516 Q111.9688,1056.5156 112.5156,1056.875 Z "/><text fill="#000000" font-family="sans-serif" font-size="12" lengthAdjust="spacingAndGlyphs" textLength="87" x="129.25" y="1065.9102">DataFileRunner</text><line style="stroke: #A80036; stroke-width: 1.5;" x1="71" x2="243" y1="1077" y2="1077"/><line style="stroke: #A80036; stroke-width: 1.5;" x1="71" x2="243" y1="1085" y2="1085"/><ellipse cx="81" cy="1097.418" fill="#84BE84" rx="3" ry="3" style="stroke: #038048; stroke-width: 1.0;"/><text fill="#000000" font-family="sans-serif" font-size="11" lengthAdjust="spacingAndGlyphs" textLength="56" x="90" y="1100.4189">void &lt;init&gt;()</text><ellipse cx="81" cy="1111.2539" fill="#84BE84" rx="3" ry="3" style="stroke: #038048; stroke-width: 1.0;"/><text fill="#000000" font-family="sans-serif" font-size="11" lengthAdjust="spacingAndGlyphs" textLength="148" x="90" y="1114.2549">void execute(java.nio.file.Path)</text><!--class problem.ProcessRunner--><rect fill="#FEFECE" filter="url(#f4h7f1kxrz8o2)" height="131.0156" id="problem.ProcessRunner" style="stroke: #A80036; stroke-width: 1.5;" width="177" x="101.5" y="854"/><ellipse cx="143.5" cy="870" fill="#A9DCDF" rx="11" ry="11" style="stroke: #A80036; stroke-width: 1.0;"/><path d="M145.6875,871.7656 L141.5469,871.7656 L141.125,872.7969 L141.5469,872.7969 Q142.1563,872.7969 142.4219,873.0313 Q142.6875,873.2656 142.6875,873.6563 Q142.6875,874.0313 142.4219,874.2656 Q142.1563,874.5 141.5469,874.5 L139.25,874.5 Q138.6406,874.5 138.3828,874.2656 Q138.125,874.0313 138.125,873.6406 Q138.125,873.2656 138.3984,873.0234 Q138.6719,872.7813 139.2969,872.7969 L141.9688,866.1406 L140.8594,866.1406 Q140.25,866.1406 139.9844,865.9063 Q139.7188,865.6719 139.7188,865.2813 Q139.7188,864.9063 139.9844,864.6719 Q140.25,864.4375 140.8594,864.4375 L144.5313,864.4375 L147.9219,872.7969 Q148.5156,872.7969 148.7031,872.9375 Q149.0938,873.2031 149.0938,873.6563 Q149.0938,874.0313 148.8359,874.2656 Q148.5781,874.5 147.9688,874.5 L145.6719,874.5 Q145.0625,874.5 144.7969,874.2656 Q144.5313,874.0313 144.5313,873.6406 Q144.5313,873.2656 144.7969,873.0313 Q145.0625,872.7969 145.6719,872.7969 L146.0938,872.7969 L145.6875,871.7656 Z M144.9688,870.0625 L143.6094,866.6875 L142.2344,870.0625 L144.9688,870.0625 Z "/><text fill="#000000" font-family="sans-serif" font-size="12" font-style="italic" lengthAdjust="spacingAndGlyphs" textLength="85" x="163.5" y="874.9102">ProcessRunner</text><line style="stroke: #A80036; stroke-width: 1.5;" x1="102.5" x2="277.5" y1="886" y2="886"/><rect fill="none" height="6" style="stroke: #C82930; stroke-width: 1.0;" width="6" x="109.5" y="895.418"/><text fill="#000000" font-family="sans-serif" font-size="11" lengthAdjust="spacingAndGlyphs" textLength="111" x="121.5" y="901.4189">java.util.List processes</text><rect fill="none" height="6" style="stroke: #C82930; stroke-width: 1.0;" width="6" x="109.5" y="909.2539"/><text fill="#000000" font-family="sans-serif" font-size="11" lengthAdjust="spacingAndGlyphs" textLength="123" x="121.5" y="915.2549">java.lang.String command</text><line style="stroke: #A80036; stroke-width: 1.5;" x1="102.5" x2="277.5" y1="921.6719" y2="921.6719"/><ellipse cx="112.5" cy="934.0898" fill="#84BE84" rx="3" ry="3" style="stroke: #038048; stroke-width: 1.0;"/><text fill="#000000" font-family="sans-serif" font-size="11" lengthAdjust="spacingAndGlyphs" textLength="56" x="121.5" y="937.0908">void &lt;init&gt;()</text><ellipse cx="112.5" cy="947.9258" fill="#84BE84" rx="3" ry="3" style="stroke: #038048; stroke-width: 1.0;"/><text fill="#000000" font-family="sans-serif" font-size="11" lengthAdjust="spacingAndGlyphs" textLength="134" x="121.5" y="950.9268">java.util.List getProcesses()</text><ellipse cx="112.5" cy="961.7617" fill="#84BE84" rx="3" ry="3" style="stroke: #038048; stroke-width: 1.0;"/><text fill="#000000" font-family="sans-serif" font-size="11" lengthAdjust="spacingAndGlyphs" textLength="147" x="121.5" y="964.7627">java.lang.String getCommand()</text><ellipse cx="112.5" cy="975.5977" fill="#84BE84" rx="3" ry="3" style="stroke: #038048; stroke-width: 1.0;"/><text fill="#000000" font-family="sans-serif" font-size="11" font-style="italic" lengthAdjust="spacingAndGlyphs" textLength="151" x="121.5" y="978.5986">void execute(java.nio.file.Path)</text><!--class problem.DirectoryChangeLogger--><rect fill="#FEFECE" filter="url(#f4h7f1kxrz8o2)" height="117.1797" id="problem.DirectoryChangeLogger" style="stroke: #A80036; stroke-width: 1.5;" width="256" x="377" y="642.5"/><ellipse cx="435.25" cy="658.5" fill="#ADD1B2" rx="11" ry="11" style="stroke: #A80036; stroke-width: 1.0;"/><path d="M438.0156,654.375 Q438.1719,654.1563 438.3594,654.0469 Q438.5469,653.9375 438.7656,653.9375 Q439.1406,653.9375 439.375,654.1953 Q439.6094,654.4531 439.6094,655.0625 L439.6094,656.5156 Q439.6094,657.125 439.375,657.3906 Q439.1406,657.6563 438.7656,657.6563 Q438.4219,657.6563 438.2188,657.4531 Q438.0156,657.2656 437.9063,656.75 Q437.8594,656.3906 437.6719,656.2031 Q437.3438,655.8281 436.7344,655.6094 Q436.125,655.3906 435.5,655.3906 Q434.7344,655.3906 434.1016,655.7188 Q433.4688,656.0469 432.9766,656.7969 Q432.4844,657.5469 432.4844,658.5781 L432.4844,659.6719 Q432.4844,660.9063 433.375,661.7266 Q434.2656,662.5469 435.8594,662.5469 Q436.7969,662.5469 437.4531,662.2969 Q437.8438,662.1406 438.2656,661.7031 Q438.5313,661.4375 438.6797,661.3594 Q438.8281,661.2813 439.0313,661.2813 Q439.3594,661.2813 439.6172,661.5391 Q439.875,661.7969 439.875,662.1406 Q439.875,662.4844 439.5313,662.8906 Q439.0313,663.4688 438.2344,663.7969 Q437.1563,664.25 435.8594,664.25 Q434.3438,664.25 433.1406,663.625 Q432.1563,663.125 431.4688,662.0547 Q430.7813,660.9844 430.7813,659.7031 L430.7813,658.5469 Q430.7813,657.2188 431.3984,656.0703 Q432.0156,654.9219 433.1094,654.3047 Q434.2031,653.6875 435.4375,653.6875 Q436.1719,653.6875 436.8203,653.8516 Q437.4688,654.0156 438.0156,654.375 Z "/><text fill="#000000" font-family="sans-serif" font-size="12" lengthAdjust="spacingAndGlyphs" textLength="131" x="455.75" y="663.4102">DirectoryChangeLogger</text><line style="stroke: #A80036; stroke-width: 1.5;" x1="378" x2="632" y1="674.5" y2="674.5"/><rect fill="none" height="6" style="stroke: #C82930; stroke-width: 1.0;" width="6" x="385" y="683.918"/><text fill="#000000" font-family="sans-serif" font-size="11" lengthAdjust="spacingAndGlyphs" textLength="87" x="397" y="689.9189">java.nio.file.Path p</text><rect fill="none" height="6" style="stroke: #C82930; stroke-width: 1.0;" width="6" x="385" y="697.7539"/><text fill="#000000" font-family="sans-serif" font-size="11" lengthAdjust="spacingAndGlyphs" textLength="77" x="397" y="703.7549">boolean running</text><line style="stroke: #A80036; stroke-width: 1.5;" x1="378" x2="632" y1="710.1719" y2="710.1719"/><ellipse cx="388" cy="722.5898" fill="#84BE84" rx="3" ry="3" style="stroke: #038048; stroke-width: 1.0;"/><text fill="#000000" font-family="sans-serif" font-size="11" lengthAdjust="spacingAndGlyphs" textLength="56" x="397" y="725.5908">void &lt;init&gt;()</text><ellipse cx="388" cy="736.4258" fill="#84BE84" rx="3" ry="3" style="stroke: #038048; stroke-width: 1.0;"/><text fill="#000000" font-family="sans-serif" font-size="11" lengthAdjust="spacingAndGlyphs" textLength="230" x="397" y="739.4268">void DirectoryChanged(problem.DirectoryEvent)</text><ellipse cx="388" cy="750.2617" fill="#84BE84" rx="3" ry="3" style="stroke: #038048; stroke-width: 1.0;"/><text fill="#000000" font-family="sans-serif" font-size="11" lengthAdjust="spacingAndGlyphs" textLength="96" x="397" y="753.2627">boolean isRunning()</text><!--class problem.DirectoryEvent--><rect fill="#FEFECE" filter="url(#f4h7f1kxrz8o2)" height="144.8516" id="problem.DirectoryEvent" style="stroke: #A80036; stroke-width: 1.5;" width="397" x="781.5" y="375.5"/><ellipse cx="936.75" cy="391.5" fill="#ADD1B2" rx="11" ry="11" style="stroke: #A80036; stroke-width: 1.0;"/><path d="M939.5156,387.375 Q939.6719,387.1563 939.8594,387.0469 Q940.0469,386.9375 940.2656,386.9375 Q940.6406,386.9375 940.875,387.1953 Q941.1094,387.4531 941.1094,388.0625 L941.1094,389.5156 Q941.1094,390.125 940.875,390.3906 Q940.6406,390.6563 940.2656,390.6563 Q939.9219,390.6563 939.7188,390.4531 Q939.5156,390.2656 939.4063,389.75 Q939.3594,389.3906 939.1719,389.2031 Q938.8438,388.8281 938.2344,388.6094 Q937.625,388.3906 937,388.3906 Q936.2344,388.3906 935.6016,388.7188 Q934.9688,389.0469 934.4766,389.7969 Q933.9844,390.5469 933.9844,391.5781 L933.9844,392.6719 Q933.9844,393.9063 934.875,394.7266 Q935.7656,395.5469 937.3594,395.5469 Q938.2969,395.5469 938.9531,395.2969 Q939.3438,395.1406 939.7656,394.7031 Q940.0313,394.4375 940.1797,394.3594 Q940.3281,394.2813 940.5313,394.2813 Q940.8594,394.2813 941.1172,394.5391 Q941.375,394.7969 941.375,395.1406 Q941.375,395.4844 941.0313,395.8906 Q940.5313,396.4688 939.7344,396.7969 Q938.6563,397.25 937.3594,397.25 Q935.8438,397.25 934.6406,396.625 Q933.6563,396.125 932.9688,395.0547 Q932.2813,393.9844 932.2813,392.7031 L932.2813,391.5469 Q932.2813,390.2188 932.8984,389.0703 Q933.5156,387.9219 934.6094,387.3047 Q935.7031,386.6875 936.9375,386.6875 Q937.6719,386.6875 938.3203,386.8516 Q938.9688,387.0156 939.5156,387.375 Z "/><text fill="#000000" font-family="sans-serif" font-size="12" lengthAdjust="spacingAndGlyphs" textLength="78" x="957.25" y="396.4102">DirectoryEvent</text><line style="stroke: #A80036; stroke-width: 1.5;" x1="782.5" x2="1177.5" y1="407.5" y2="407.5"/><rect fill="none" height="6" style="stroke: #C82930; stroke-width: 1.0;" width="6" x="789.5" y="416.918"/><text fill="#000000" font-family="sans-serif" font-size="11" lengthAdjust="spacingAndGlyphs" textLength="128" x="801.5" y="422.9189">java.lang.String eventType</text><rect fill="none" height="6" style="stroke: #C82930; stroke-width: 1.0;" width="6" x="789.5" y="430.7539"/><text fill="#000000" font-family="sans-serif" font-size="11" lengthAdjust="spacingAndGlyphs" textLength="95" x="801.5" y="436.7549">java.nio.file.Path file</text><rect fill="none" height="6" style="stroke: #C82930; stroke-width: 1.0;" width="6" x="789.5" y="444.5898"/><text fill="#000000" font-family="sans-serif" font-size="11" lengthAdjust="spacingAndGlyphs" textLength="194" x="801.5" y="450.5908">problem.DirectoryMonitorService source</text><line style="stroke: #A80036; stroke-width: 1.5;" x1="782.5" x2="1177.5" y1="457.0078" y2="457.0078"/><ellipse cx="792.5" cy="469.4258" fill="#84BE84" rx="3" ry="3" style="stroke: #038048; stroke-width: 1.0;"/><text fill="#000000" font-family="sans-serif" font-size="11" lengthAdjust="spacingAndGlyphs" textLength="371" x="801.5" y="472.4268">void &lt;init&gt;(java.lang.String,java.nio.file.Path,problem.DirectoryMonitorService)</text><ellipse cx="792.5" cy="483.2617" fill="#84BE84" rx="3" ry="3" style="stroke: #038048; stroke-width: 1.0;"/><text fill="#000000" font-family="sans-serif" font-size="11" lengthAdjust="spacingAndGlyphs" textLength="151" x="801.5" y="486.2627">java.lang.String getEventType()</text><ellipse cx="792.5" cy="497.0977" fill="#84BE84" rx="3" ry="3" style="stroke: #038048; stroke-width: 1.0;"/><text fill="#000000" font-family="sans-serif" font-size="11" lengthAdjust="spacingAndGlyphs" textLength="120" x="801.5" y="500.0986">java.nio.file.Path getFile()</text><ellipse cx="792.5" cy="510.9336" fill="#84BE84" rx="3" ry="3" style="stroke: #038048; stroke-width: 1.0;"/><text fill="#000000" font-family="sans-serif" font-size="11" lengthAdjust="spacingAndGlyphs" textLength="218" x="801.5" y="513.9346">problem.DirectoryMonitorService getSource()</text><!--class problem.DirectoryMonitorService--><rect fill="#FEFECE" filter="url(#f4h7f1kxrz8o2)" height="227.8672" id="problem.DirectoryMonitorService" style="stroke: #A80036; stroke-width: 1.5;" width="344" x="38" y="60"/><ellipse cx="141.75" cy="76" fill="#ADD1B2" rx="11" ry="11" style="stroke: #A80036; stroke-width: 1.0;"/><path d="M144.5156,71.875 Q144.6719,71.6563 144.8594,71.5469 Q145.0469,71.4375 145.2656,71.4375 Q145.6406,71.4375 145.875,71.6953 Q146.1094,71.9531 146.1094,72.5625 L146.1094,74.0156 Q146.1094,74.625 145.875,74.8906 Q145.6406,75.1563 145.2656,75.1563 Q144.9219,75.1563 144.7188,74.9531 Q144.5156,74.7656 144.4063,74.25 Q144.3594,73.8906 144.1719,73.7031 Q143.8438,73.3281 143.2344,73.1094 Q142.625,72.8906 142,72.8906 Q141.2344,72.8906 140.6016,73.2188 Q139.9688,73.5469 139.4766,74.2969 Q138.9844,75.0469 138.9844,76.0781 L138.9844,77.1719 Q138.9844,78.4063 139.875,79.2266 Q140.7656,80.0469 142.3594,80.0469 Q143.2969,80.0469 143.9531,79.7969 Q144.3438,79.6406 144.7656,79.2031 Q145.0313,78.9375 145.1797,78.8594 Q145.3281,78.7813 145.5313,78.7813 Q145.8594,78.7813 146.1172,79.0391 Q146.375,79.2969 146.375,79.6406 Q146.375,79.9844 146.0313,80.3906 Q145.5313,80.9688 144.7344,81.2969 Q143.6563,81.75 142.3594,81.75 Q140.8438,81.75 139.6406,81.125 Q138.6563,80.625 137.9688,79.5547 Q137.2813,78.4844 137.2813,77.2031 L137.2813,76.0469 Q137.2813,74.7188 137.8984,73.5703 Q138.5156,72.4219 139.6094,71.8047 Q140.7031,71.1875 141.9375,71.1875 Q142.6719,71.1875 143.3203,71.3516 Q143.9688,71.5156 144.5156,71.875 Z "/><text fill="#000000" font-family="sans-serif" font-size="12" lengthAdjust="spacingAndGlyphs" textLength="128" x="162.25" y="80.9102">DirectoryMonitorService</text><line style="stroke: #A80036; stroke-width: 1.5;" x1="39" x2="381" y1="92" y2="92"/><rect fill="none" height="6" style="stroke: #C82930; stroke-width: 1.0;" width="6" x="46" y="101.418"/><text fill="#000000" font-family="sans-serif" font-size="11" lengthAdjust="spacingAndGlyphs" textLength="77" x="58" y="107.4189">boolean running</text><rect fill="none" height="6" style="stroke: #C82930; stroke-width: 1.0;" width="6" x="46" y="115.2539"/><text fill="#000000" font-family="sans-serif" font-size="11" lengthAdjust="spacingAndGlyphs" textLength="129" x="58" y="121.2549">java.util.Collection listeners</text><rect fill="none" height="6" style="stroke: #C82930; stroke-width: 1.0;" width="6" x="46" y="129.0898"/><text fill="#000000" font-family="sans-serif" font-size="11" lengthAdjust="spacingAndGlyphs" textLength="93" x="58" y="135.0908">java.nio.file.Path dir</text><rect fill="none" height="6" style="stroke: #C82930; stroke-width: 1.0;" width="6" x="46" y="142.9258"/><text fill="#000000" font-family="sans-serif" font-size="11" lengthAdjust="spacingAndGlyphs" textLength="169" x="58" y="148.9268">java.nio.file.WatchService watcher</text><line style="stroke: #A80036; stroke-width: 1.5;" x1="39" x2="381" y1="155.3438" y2="155.3438"/><ellipse cx="49" cy="167.7617" fill="#84BE84" rx="3" ry="3" style="stroke: #038048; stroke-width: 1.0;"/><text fill="#000000" font-family="sans-serif" font-size="11" lengthAdjust="spacingAndGlyphs" textLength="134" x="58" y="170.7627">void &lt;init&gt;(java.nio.file.Path)</text><ellipse cx="49" cy="181.5977" fill="#84BE84" rx="3" ry="3" style="stroke: #038048; stroke-width: 1.0;"/><text fill="#000000" font-family="sans-serif" font-size="11" lengthAdjust="spacingAndGlyphs" textLength="47" x="58" y="184.5986">void run()</text><ellipse cx="49" cy="195.4336" fill="#84BE84" rx="3" ry="3" style="stroke: #038048; stroke-width: 1.0;"/><text fill="#000000" font-family="sans-serif" font-size="11" lengthAdjust="spacingAndGlyphs" textLength="96" x="58" y="198.4346">boolean isRunning()</text><ellipse cx="49" cy="209.2695" fill="#84BE84" rx="3" ry="3" style="stroke: #038048; stroke-width: 1.0;"/><text fill="#000000" font-family="sans-serif" font-size="11" lengthAdjust="spacingAndGlyphs" textLength="102" x="58" y="212.2705">void stopGracefully()</text><ellipse cx="49" cy="223.1055" fill="#84BE84" rx="3" ry="3" style="stroke: #038048; stroke-width: 1.0;"/><text fill="#000000" font-family="sans-serif" font-size="11" lengthAdjust="spacingAndGlyphs" textLength="118" x="58" y="226.1064">int getApplicationCount()</text><ellipse cx="49" cy="236.9414" fill="#84BE84" rx="3" ry="3" style="stroke: #038048; stroke-width: 1.0;"/><text fill="#000000" font-family="sans-serif" font-size="11" lengthAdjust="spacingAndGlyphs" textLength="214" x="58" y="239.9424">void addListener(problem.IDirectoryListener)</text><ellipse cx="49" cy="250.7773" fill="#84BE84" rx="3" ry="3" style="stroke: #038048; stroke-width: 1.0;"/><text fill="#000000" font-family="sans-serif" font-size="11" lengthAdjust="spacingAndGlyphs" textLength="232" x="58" y="253.7783">void removeListener(problem.IDirectoryListener)</text><rect fill="#F24D5C" height="6" style="stroke: #C82930; stroke-width: 1.0;" width="6" x="46" y="261.6133"/><text fill="#000000" font-family="sans-serif" font-size="11" lengthAdjust="spacingAndGlyphs" textLength="215" x="58" y="267.6143">void notifyListeners(problem.DirectoryEvent)</text><rect fill="#F24D5C" height="6" style="stroke: #C82930; stroke-width: 1.0;" width="6" x="46" y="275.4492"/><text fill="#000000" font-family="sans-serif" font-size="11" lengthAdjust="spacingAndGlyphs" text-decoration="underline" textLength="318" x="58" y="281.4502">void lambda$0(problem.DirectoryEvent,problem.IDirectoryListener)</text><line style="stroke: #000000; stroke-width: 1.0;" x1="58" x2="376" y1="283.4502" y2="283.4502"/><!--class problem.ExecutableFileListener--><rect fill="#FEFECE" filter="url(#f4h7f1kxrz8o2)" height="75.6719" id="problem.ExecutableFileListener" style="stroke: #A80036; stroke-width: 1.5;" width="174" x="279" y="1045"/><ellipse cx="301.65" cy="1061" fill="#ADD1B2" rx="11" ry="11" style="stroke: #A80036; stroke-width: 1.0;"/><path d="M304.4156,1056.875 Q304.5719,1056.6563 304.7594,1056.5469 Q304.9469,1056.4375 305.1656,1056.4375 Q305.5406,1056.4375 305.775,1056.6953 Q306.0094,1056.9531 306.0094,1057.5625 L306.0094,1059.0156 Q306.0094,1059.625 305.775,1059.8906 Q305.5406,1060.1563 305.1656,1060.1563 Q304.8219,1060.1563 304.6188,1059.9531 Q304.4156,1059.7656 304.3063,1059.25 Q304.2594,1058.8906 304.0719,1058.7031 Q303.7438,1058.3281 303.1344,1058.1094 Q302.525,1057.8906 301.9,1057.8906 Q301.1344,1057.8906 300.5016,1058.2188 Q299.8688,1058.5469 299.3766,1059.2969 Q298.8844,1060.0469 298.8844,1061.0781 L298.8844,1062.1719 Q298.8844,1063.4063 299.775,1064.2266 Q300.6656,1065.0469 302.2594,1065.0469 Q303.1969,1065.0469 303.8531,1064.7969 Q304.2438,1064.6406 304.6656,1064.2031 Q304.9313,1063.9375 305.0797,1063.8594 Q305.2281,1063.7813 305.4313,1063.7813 Q305.7594,1063.7813 306.0172,1064.0391 Q306.275,1064.2969 306.275,1064.6406 Q306.275,1064.9844 305.9313,1065.3906 Q305.4313,1065.9688 304.6344,1066.2969 Q303.5563,1066.75 302.2594,1066.75 Q300.7438,1066.75 299.5406,1066.125 Q298.5563,1065.625 297.8688,1064.5547 Q297.1813,1063.4844 297.1813,1062.2031 L297.1813,1061.0469 Q297.1813,1059.7188 297.7984,1058.5703 Q298.4156,1057.4219 299.5094,1056.8047 Q300.6031,1056.1875 301.8375,1056.1875 Q302.5719,1056.1875 303.2203,1056.3516 Q303.8688,1056.5156 304.4156,1056.875 Z "/><text fill="#000000" font-family="sans-serif" font-size="12" lengthAdjust="spacingAndGlyphs" textLength="125" x="317.35" y="1065.9102">ExecutableFileListener</text><line style="stroke: #A80036; stroke-width: 1.5;" x1="280" x2="452" y1="1077" y2="1077"/><line style="stroke: #A80036; stroke-width: 1.5;" x1="280" x2="452" y1="1085" y2="1085"/><ellipse cx="290" cy="1097.418" fill="#84BE84" rx="3" ry="3" style="stroke: #038048; stroke-width: 1.0;"/><text fill="#000000" font-family="sans-serif" font-size="11" lengthAdjust="spacingAndGlyphs" textLength="56" x="299" y="1100.4189">void &lt;init&gt;()</text><ellipse cx="290" cy="1111.2539" fill="#84BE84" rx="3" ry="3" style="stroke: #038048; stroke-width: 1.0;"/><text fill="#000000" font-family="sans-serif" font-size="11" lengthAdjust="spacingAndGlyphs" textLength="148" x="299" y="1114.2549">void execute(java.nio.file.Path)</text><!--class NewTestStructure.DataFileRunnerTest--><rect fill="#FEFECE" filter="url(#f4h7f1kxrz8o2)" height="200.1953" id="NewTestStructure.DataFileRunnerTest" style="stroke: #A80036; stroke-width: 1.5;" width="228" x="1235" y="74"/><ellipse cx="1289.25" cy="90" fill="#ADD1B2" rx="11" ry="11" style="stroke: #A80036; stroke-width: 1.0;"/><path d="M1292.0156,85.875 Q1292.1719,85.6563 1292.3594,85.5469 Q1292.5469,85.4375 1292.7656,85.4375 Q1293.1406,85.4375 1293.375,85.6953 Q1293.6094,85.9531 1293.6094,86.5625 L1293.6094,88.0156 Q1293.6094,88.625 1293.375,88.8906 Q1293.1406,89.1563 1292.7656,89.1563 Q1292.4219,89.1563 1292.2188,88.9531 Q1292.0156,88.7656 1291.9063,88.25 Q1291.8594,87.8906 1291.6719,87.7031 Q1291.3438,87.3281 1290.7344,87.1094 Q1290.125,86.8906 1289.5,86.8906 Q1288.7344,86.8906 1288.1016,87.2188 Q1287.4688,87.5469 1286.9766,88.2969 Q1286.4844,89.0469 1286.4844,90.0781 L1286.4844,91.1719 Q1286.4844,92.4063 1287.375,93.2266 Q1288.2656,94.0469 1289.8594,94.0469 Q1290.7969,94.0469 1291.4531,93.7969 Q1291.8438,93.6406 1292.2656,93.2031 Q1292.5313,92.9375 1292.6797,92.8594 Q1292.8281,92.7813 1293.0313,92.7813 Q1293.3594,92.7813 1293.6172,93.0391 Q1293.875,93.2969 1293.875,93.6406 Q1293.875,93.9844 1293.5313,94.3906 Q1293.0313,94.9688 1292.2344,95.2969 Q1291.1563,95.75 1289.8594,95.75 Q1288.3438,95.75 1287.1406,95.125 Q1286.1563,94.625 1285.4688,93.5547 Q1284.7813,92.4844 1284.7813,91.2031 L1284.7813,90.0469 Q1284.7813,88.7188 1285.3984,87.5703 Q1286.0156,86.4219 1287.1094,85.8047 Q1288.2031,85.1875 1289.4375,85.1875 Q1290.1719,85.1875 1290.8203,85.3516 Q1291.4688,85.5156 1292.0156,85.875 Z "/><text fill="#000000" font-family="sans-serif" font-size="12" lengthAdjust="spacingAndGlyphs" textLength="111" x="1309.75" y="94.9102">DataFileRunnerTest</text><line style="stroke: #A80036; stroke-width: 1.5;" x1="1236" x2="1462" y1="106" y2="106"/><rect fill="none" height="6" style="stroke: #C82930; stroke-width: 1.0;" width="6" x="1243" y="115.418"/><text fill="#000000" font-family="sans-serif" font-size="11" lengthAdjust="spacingAndGlyphs" textLength="202" x="1255" y="121.4189">problem.DirectoryMonitorService launcher</text><rect fill="none" height="6" style="stroke: #C82930; stroke-width: 1.0;" width="6" x="1243" y="129.2539"/><text fill="#000000" font-family="sans-serif" font-size="11" lengthAdjust="spacingAndGlyphs" textLength="114" x="1255" y="135.2549">java.lang.String baseDir</text><rect fill="none" height="6" style="stroke: #C82930; stroke-width: 1.0;" width="6" x="1243" y="143.0898"/><text fill="#000000" font-family="sans-serif" font-size="11" lengthAdjust="spacingAndGlyphs" textLength="124" x="1255" y="149.0908">java.lang.String srcTxtFile</text><rect fill="none" height="6" style="stroke: #C82930; stroke-width: 1.0;" width="6" x="1243" y="156.9258"/><text fill="#000000" font-family="sans-serif" font-size="11" lengthAdjust="spacingAndGlyphs" textLength="129" x="1255" y="162.9268">java.lang.String destTxtFile</text><rect fill="none" height="6" style="stroke: #C82930; stroke-width: 1.0;" width="6" x="1243" y="170.7617"/><text fill="#000000" font-family="sans-serif" font-size="11" lengthAdjust="spacingAndGlyphs" textLength="129" x="1255" y="176.7627">java.lang.String srcHtmlFile</text><rect fill="none" height="6" style="stroke: #C82930; stroke-width: 1.0;" width="6" x="1243" y="184.5977"/><text fill="#000000" font-family="sans-serif" font-size="11" lengthAdjust="spacingAndGlyphs" textLength="134" x="1255" y="190.5986">java.lang.String destHtmlFile</text><line style="stroke: #A80036; stroke-width: 1.5;" x1="1236" x2="1462" y1="197.0156" y2="197.0156"/><ellipse cx="1246" cy="209.4336" fill="#84BE84" rx="3" ry="3" style="stroke: #038048; stroke-width: 1.0;"/><text fill="#000000" font-family="sans-serif" font-size="11" lengthAdjust="spacingAndGlyphs" textLength="56" x="1255" y="212.4346">void &lt;init&gt;()</text><ellipse cx="1246" cy="223.2695" fill="#84BE84" rx="3" ry="3" style="stroke: #038048; stroke-width: 1.0;"/><text fill="#000000" font-family="sans-serif" font-size="11" lengthAdjust="spacingAndGlyphs" textLength="59" x="1255" y="226.2705">void setUp()</text><ellipse cx="1246" cy="237.1055" fill="#84BE84" rx="3" ry="3" style="stroke: #038048; stroke-width: 1.0;"/><text fill="#000000" font-family="sans-serif" font-size="11" lengthAdjust="spacingAndGlyphs" textLength="79" x="1255" y="240.1064">void tearDown()</text><ellipse cx="1246" cy="250.9414" fill="#84BE84" rx="3" ry="3" style="stroke: #038048; stroke-width: 1.0;"/><text fill="#000000" font-family="sans-serif" font-size="11" lengthAdjust="spacingAndGlyphs" textLength="162" x="1255" y="253.9424">void testLaunchDefaultBrowser()</text><ellipse cx="1246" cy="264.7773" fill="#84BE84" rx="3" ry="3" style="stroke: #038048; stroke-width: 1.0;"/><text fill="#000000" font-family="sans-serif" font-size="11" lengthAdjust="spacingAndGlyphs" textLength="125" x="1255" y="267.7783">void testLaunchNotepad()</text><!--class NewTestStructure.DirectoryChangeLoggerTest--><rect fill="#FEFECE" filter="url(#f4h7f1kxrz8o2)" height="186.3594" id="NewTestStructure.DirectoryChangeLoggerTest" style="stroke: #A80036; stroke-width: 1.5;" width="228" x="1498" y="81"/><ellipse cx="1531.45" cy="97" fill="#ADD1B2" rx="11" ry="11" style="stroke: #A80036; stroke-width: 1.0;"/><path d="M1534.2156,92.875 Q1534.3719,92.6563 1534.5594,92.5469 Q1534.7469,92.4375 1534.9656,92.4375 Q1535.3406,92.4375 1535.575,92.6953 Q1535.8094,92.9531 1535.8094,93.5625 L1535.8094,95.0156 Q1535.8094,95.625 1535.575,95.8906 Q1535.3406,96.1563 1534.9656,96.1563 Q1534.6219,96.1563 1534.4188,95.9531 Q1534.2156,95.7656 1534.1063,95.25 Q1534.0594,94.8906 1533.8719,94.7031 Q1533.5438,94.3281 1532.9344,94.1094 Q1532.325,93.8906 1531.7,93.8906 Q1530.9344,93.8906 1530.3016,94.2188 Q1529.6688,94.5469 1529.1766,95.2969 Q1528.6844,96.0469 1528.6844,97.0781 L1528.6844,98.1719 Q1528.6844,99.4063 1529.575,100.2266 Q1530.4656,101.0469 1532.0594,101.0469 Q1532.9969,101.0469 1533.6531,100.7969 Q1534.0438,100.6406 1534.4656,100.2031 Q1534.7313,99.9375 1534.8797,99.8594 Q1535.0281,99.7813 1535.2313,99.7813 Q1535.5594,99.7813 1535.8172,100.0391 Q1536.075,100.2969 1536.075,100.6406 Q1536.075,100.9844 1535.7313,101.3906 Q1535.2313,101.9688 1534.4344,102.2969 Q1533.3563,102.75 1532.0594,102.75 Q1530.5438,102.75 1529.3406,102.125 Q1528.3563,101.625 1527.6688,100.5547 Q1526.9813,99.4844 1526.9813,98.2031 L1526.9813,97.0469 Q1526.9813,95.7188 1527.5984,94.5703 Q1528.2156,93.4219 1529.3094,92.8047 Q1530.4031,92.1875 1531.6375,92.1875 Q1532.3719,92.1875 1533.0203,92.3516 Q1533.6688,92.5156 1534.2156,92.875 Z "/><text fill="#000000" font-family="sans-serif" font-size="12" lengthAdjust="spacingAndGlyphs" textLength="155" x="1549.55" y="101.9102">DirectoryChangeLoggerTest</text><line style="stroke: #A80036; stroke-width: 1.5;" x1="1499" x2="1725" y1="113" y2="113"/><rect fill="none" height="6" style="stroke: #C82930; stroke-width: 1.0;" width="6" x="1506" y="122.418"/><text fill="#000000" font-family="sans-serif" font-size="11" lengthAdjust="spacingAndGlyphs" textLength="202" x="1518" y="128.4189">problem.DirectoryMonitorService launcher</text><rect fill="none" height="6" style="stroke: #C82930; stroke-width: 1.0;" width="6" x="1506" y="136.2539"/><text fill="#000000" font-family="sans-serif" font-size="11" lengthAdjust="spacingAndGlyphs" textLength="114" x="1518" y="142.2549">java.lang.String baseDir</text><rect fill="none" height="6" style="stroke: #C82930; stroke-width: 1.0;" width="6" x="1506" y="150.0898"/><text fill="#000000" font-family="sans-serif" font-size="11" lengthAdjust="spacingAndGlyphs" textLength="124" x="1518" y="156.0908">java.lang.String srcTxtFile</text><rect fill="none" height="6" style="stroke: #C82930; stroke-width: 1.0;" width="6" x="1506" y="163.9258"/><text fill="#000000" font-family="sans-serif" font-size="11" lengthAdjust="spacingAndGlyphs" textLength="129" x="1518" y="169.9268">java.lang.String destTxtFile</text><rect fill="none" height="6" style="stroke: #C82930; stroke-width: 1.0;" width="6" x="1506" y="177.7617"/><text fill="#000000" font-family="sans-serif" font-size="11" lengthAdjust="spacingAndGlyphs" textLength="129" x="1518" y="183.7627">java.lang.String srcHtmlFile</text><rect fill="none" height="6" style="stroke: #C82930; stroke-width: 1.0;" width="6" x="1506" y="191.5977"/><text fill="#000000" font-family="sans-serif" font-size="11" lengthAdjust="spacingAndGlyphs" textLength="134" x="1518" y="197.5986">java.lang.String destHtmlFile</text><line style="stroke: #A80036; stroke-width: 1.5;" x1="1499" x2="1725" y1="204.0156" y2="204.0156"/><ellipse cx="1509" cy="216.4336" fill="#84BE84" rx="3" ry="3" style="stroke: #038048; stroke-width: 1.0;"/><text fill="#000000" font-family="sans-serif" font-size="11" lengthAdjust="spacingAndGlyphs" textLength="56" x="1518" y="219.4346">void &lt;init&gt;()</text><ellipse cx="1509" cy="230.2695" fill="#84BE84" rx="3" ry="3" style="stroke: #038048; stroke-width: 1.0;"/><text fill="#000000" font-family="sans-serif" font-size="11" lengthAdjust="spacingAndGlyphs" textLength="59" x="1518" y="233.2705">void setUp()</text><ellipse cx="1509" cy="244.1055" fill="#84BE84" rx="3" ry="3" style="stroke: #038048; stroke-width: 1.0;"/><text fill="#000000" font-family="sans-serif" font-size="11" lengthAdjust="spacingAndGlyphs" textLength="79" x="1518" y="247.1064">void tearDown()</text><ellipse cx="1509" cy="257.9414" fill="#84BE84" rx="3" ry="3" style="stroke: #038048; stroke-width: 1.0;"/><text fill="#000000" font-family="sans-serif" font-size="11" lengthAdjust="spacingAndGlyphs" textLength="125" x="1518" y="260.9424">void testLaunchNotepad()</text><!--class NewTestStructure.DirectoryEventTest--><rect fill="#FEFECE" filter="url(#f4h7f1kxrz8o2)" height="75.6719" id="NewTestStructure.DirectoryEventTest" style="stroke: #A80036; stroke-width: 1.5;" width="134" x="1761" y="136"/><ellipse cx="1776" cy="152" fill="#ADD1B2" rx="11" ry="11" style="stroke: #A80036; stroke-width: 1.0;"/><path d="M1778.7656,147.875 Q1778.9219,147.6563 1779.1094,147.5469 Q1779.2969,147.4375 1779.5156,147.4375 Q1779.8906,147.4375 1780.125,147.6953 Q1780.3594,147.9531 1780.3594,148.5625 L1780.3594,150.0156 Q1780.3594,150.625 1780.125,150.8906 Q1779.8906,151.1563 1779.5156,151.1563 Q1779.1719,151.1563 1778.9688,150.9531 Q1778.7656,150.7656 1778.6563,150.25 Q1778.6094,149.8906 1778.4219,149.7031 Q1778.0938,149.3281 1777.4844,149.1094 Q1776.875,148.8906 1776.25,148.8906 Q1775.4844,148.8906 1774.8516,149.2188 Q1774.2188,149.5469 1773.7266,150.2969 Q1773.2344,151.0469 1773.2344,152.0781 L1773.2344,153.1719 Q1773.2344,154.4063 1774.125,155.2266 Q1775.0156,156.0469 1776.6094,156.0469 Q1777.5469,156.0469 1778.2031,155.7969 Q1778.5938,155.6406 1779.0156,155.2031 Q1779.2813,154.9375 1779.4297,154.8594 Q1779.5781,154.7813 1779.7813,154.7813 Q1780.1094,154.7813 1780.3672,155.0391 Q1780.625,155.2969 1780.625,155.6406 Q1780.625,155.9844 1780.2813,156.3906 Q1779.7813,156.9688 1778.9844,157.2969 Q1777.9063,157.75 1776.6094,157.75 Q1775.0938,157.75 1773.8906,157.125 Q1772.9063,156.625 1772.2188,155.5547 Q1771.5313,154.4844 1771.5313,153.2031 L1771.5313,152.0469 Q1771.5313,150.7188 1772.1484,149.5703 Q1772.7656,148.4219 1773.8594,147.8047 Q1774.9531,147.1875 1776.1875,147.1875 Q1776.9219,147.1875 1777.5703,147.3516 Q1778.2188,147.5156 1778.7656,147.875 Z "/><text fill="#000000" font-family="sans-serif" font-size="12" lengthAdjust="spacingAndGlyphs" textLength="102" x="1790" y="156.9102">DirectoryEventTest</text><line style="stroke: #A80036; stroke-width: 1.5;" x1="1762" x2="1894" y1="168" y2="168"/><line style="stroke: #A80036; stroke-width: 1.5;" x1="1762" x2="1894" y1="176" y2="176"/><ellipse cx="1772" cy="188.418" fill="#84BE84" rx="3" ry="3" style="stroke: #038048; stroke-width: 1.0;"/><text fill="#000000" font-family="sans-serif" font-size="11" lengthAdjust="spacingAndGlyphs" textLength="56" x="1781" y="191.4189">void &lt;init&gt;()</text><ellipse cx="1772" cy="202.2539" fill="#84BE84" rx="3" ry="3" style="stroke: #038048; stroke-width: 1.0;"/><text fill="#000000" font-family="sans-serif" font-size="11" lengthAdjust="spacingAndGlyphs" textLength="49" x="1781" y="205.2549">void test()</text><!--class NewTestStructure.DirectoryMonitorServiceTest--><rect fill="#FEFECE" filter="url(#f4h7f1kxrz8o2)" height="75.6719" id="NewTestStructure.DirectoryMonitorServiceTest" style="stroke: #A80036; stroke-width: 1.5;" width="184" x="1257" y="410"/><ellipse cx="1272" cy="426" fill="#ADD1B2" rx="11" ry="11" style="stroke: #A80036; stroke-width: 1.0;"/><path d="M1274.7656,421.875 Q1274.9219,421.6563 1275.1094,421.5469 Q1275.2969,421.4375 1275.5156,421.4375 Q1275.8906,421.4375 1276.125,421.6953 Q1276.3594,421.9531 1276.3594,422.5625 L1276.3594,424.0156 Q1276.3594,424.625 1276.125,424.8906 Q1275.8906,425.1563 1275.5156,425.1563 Q1275.1719,425.1563 1274.9688,424.9531 Q1274.7656,424.7656 1274.6563,424.25 Q1274.6094,423.8906 1274.4219,423.7031 Q1274.0938,423.3281 1273.4844,423.1094 Q1272.875,422.8906 1272.25,422.8906 Q1271.4844,422.8906 1270.8516,423.2188 Q1270.2188,423.5469 1269.7266,424.2969 Q1269.2344,425.0469 1269.2344,426.0781 L1269.2344,427.1719 Q1269.2344,428.4063 1270.125,429.2266 Q1271.0156,430.0469 1272.6094,430.0469 Q1273.5469,430.0469 1274.2031,429.7969 Q1274.5938,429.6406 1275.0156,429.2031 Q1275.2813,428.9375 1275.4297,428.8594 Q1275.5781,428.7813 1275.7813,428.7813 Q1276.1094,428.7813 1276.3672,429.0391 Q1276.625,429.2969 1276.625,429.6406 Q1276.625,429.9844 1276.2813,430.3906 Q1275.7813,430.9688 1274.9844,431.2969 Q1273.9063,431.75 1272.6094,431.75 Q1271.0938,431.75 1269.8906,431.125 Q1268.9063,430.625 1268.2188,429.5547 Q1267.5313,428.4844 1267.5313,427.2031 L1267.5313,426.0469 Q1267.5313,424.7188 1268.1484,423.5703 Q1268.7656,422.4219 1269.8594,421.8047 Q1270.9531,421.1875 1272.1875,421.1875 Q1272.9219,421.1875 1273.5703,421.3516 Q1274.2188,421.5156 1274.7656,421.875 Z "/><text fill="#000000" font-family="sans-serif" font-size="12" lengthAdjust="spacingAndGlyphs" textLength="152" x="1286" y="430.9102">DirectoryMonitorServiceTest</text><line style="stroke: #A80036; stroke-width: 1.5;" x1="1258" x2="1440" y1="442" y2="442"/><line style="stroke: #A80036; stroke-width: 1.5;" x1="1258" x2="1440" y1="450" y2="450"/><ellipse cx="1268" cy="462.418" fill="#84BE84" rx="3" ry="3" style="stroke: #038048; stroke-width: 1.0;"/><text fill="#000000" font-family="sans-serif" font-size="11" lengthAdjust="spacingAndGlyphs" textLength="56" x="1277" y="465.4189">void &lt;init&gt;()</text><ellipse cx="1268" cy="476.2539" fill="#84BE84" rx="3" ry="3" style="stroke: #038048; stroke-width: 1.0;"/><text fill="#000000" font-family="sans-serif" font-size="11" lengthAdjust="spacingAndGlyphs" textLength="72" x="1277" y="479.2549">void testStart()</text><!--class NewTestStructure.ExecutableFileListenerTest--><rect fill="#FEFECE" filter="url(#f4h7f1kxrz8o2)" height="186.3594" id="NewTestStructure.ExecutableFileListenerTest" style="stroke: #A80036; stroke-width: 1.5;" width="228" x="1476" y="355"/><ellipse cx="1512.15" cy="371" fill="#ADD1B2" rx="11" ry="11" style="stroke: #A80036; stroke-width: 1.0;"/><path d="M1514.9156,366.875 Q1515.0719,366.6563 1515.2594,366.5469 Q1515.4469,366.4375 1515.6656,366.4375 Q1516.0406,366.4375 1516.275,366.6953 Q1516.5094,366.9531 1516.5094,367.5625 L1516.5094,369.0156 Q1516.5094,369.625 1516.275,369.8906 Q1516.0406,370.1563 1515.6656,370.1563 Q1515.3219,370.1563 1515.1188,369.9531 Q1514.9156,369.7656 1514.8063,369.25 Q1514.7594,368.8906 1514.5719,368.7031 Q1514.2438,368.3281 1513.6344,368.1094 Q1513.025,367.8906 1512.4,367.8906 Q1511.6344,367.8906 1511.0016,368.2188 Q1510.3688,368.5469 1509.8766,369.2969 Q1509.3844,370.0469 1509.3844,371.0781 L1509.3844,372.1719 Q1509.3844,373.4063 1510.275,374.2266 Q1511.1656,375.0469 1512.7594,375.0469 Q1513.6969,375.0469 1514.3531,374.7969 Q1514.7438,374.6406 1515.1656,374.2031 Q1515.4313,373.9375 1515.5797,373.8594 Q1515.7281,373.7813 1515.9313,373.7813 Q1516.2594,373.7813 1516.5172,374.0391 Q1516.775,374.2969 1516.775,374.6406 Q1516.775,374.9844 1516.4313,375.3906 Q1515.9313,375.9688 1515.1344,376.2969 Q1514.0563,376.75 1512.7594,376.75 Q1511.2438,376.75 1510.0406,376.125 Q1509.0563,375.625 1508.3688,374.5547 Q1507.6813,373.4844 1507.6813,372.2031 L1507.6813,371.0469 Q1507.6813,369.7188 1508.2984,368.5703 Q1508.9156,367.4219 1510.0094,366.8047 Q1511.1031,366.1875 1512.3375,366.1875 Q1513.0719,366.1875 1513.7203,366.3516 Q1514.3688,366.5156 1514.9156,366.875 Z "/><text fill="#000000" font-family="sans-serif" font-size="12" lengthAdjust="spacingAndGlyphs" textLength="149" x="1530.85" y="375.9102">ExecutableFileListenerTest</text><line style="stroke: #A80036; stroke-width: 1.5;" x1="1477" x2="1703" y1="387" y2="387"/><rect fill="none" height="6" style="stroke: #C82930; stroke-width: 1.0;" width="6" x="1484" y="396.418"/><text fill="#000000" font-family="sans-serif" font-size="11" lengthAdjust="spacingAndGlyphs" textLength="202" x="1496" y="402.4189">problem.DirectoryMonitorService launcher</text><rect fill="none" height="6" style="stroke: #C82930; stroke-width: 1.0;" width="6" x="1484" y="410.2539"/><text fill="#000000" font-family="sans-serif" font-size="11" lengthAdjust="spacingAndGlyphs" textLength="114" x="1496" y="416.2549">java.lang.String baseDir</text><rect fill="none" height="6" style="stroke: #C82930; stroke-width: 1.0;" width="6" x="1484" y="424.0898"/><text fill="#000000" font-family="sans-serif" font-size="11" lengthAdjust="spacingAndGlyphs" textLength="124" x="1496" y="430.0908">java.lang.String srcTxtFile</text><rect fill="none" height="6" style="stroke: #C82930; stroke-width: 1.0;" width="6" x="1484" y="437.9258"/><text fill="#000000" font-family="sans-serif" font-size="11" lengthAdjust="spacingAndGlyphs" textLength="129" x="1496" y="443.9268">java.lang.String destTxtFile</text><rect fill="none" height="6" style="stroke: #C82930; stroke-width: 1.0;" width="6" x="1484" y="451.7617"/><text fill="#000000" font-family="sans-serif" font-size="11" lengthAdjust="spacingAndGlyphs" textLength="129" x="1496" y="457.7627">java.lang.String srcHtmlFile</text><rect fill="none" height="6" style="stroke: #C82930; stroke-width: 1.0;" width="6" x="1484" y="465.5977"/><text fill="#000000" font-family="sans-serif" font-size="11" lengthAdjust="spacingAndGlyphs" textLength="134" x="1496" y="471.5986">java.lang.String destHtmlFile</text><line style="stroke: #A80036; stroke-width: 1.5;" x1="1477" x2="1703" y1="478.0156" y2="478.0156"/><ellipse cx="1487" cy="490.4336" fill="#84BE84" rx="3" ry="3" style="stroke: #038048; stroke-width: 1.0;"/><text fill="#000000" font-family="sans-serif" font-size="11" lengthAdjust="spacingAndGlyphs" textLength="56" x="1496" y="493.4346">void &lt;init&gt;()</text><ellipse cx="1487" cy="504.2695" fill="#84BE84" rx="3" ry="3" style="stroke: #038048; stroke-width: 1.0;"/><text fill="#000000" font-family="sans-serif" font-size="11" lengthAdjust="spacingAndGlyphs" textLength="59" x="1496" y="507.2705">void setUp()</text><ellipse cx="1487" cy="518.1055" fill="#84BE84" rx="3" ry="3" style="stroke: #038048; stroke-width: 1.0;"/><text fill="#000000" font-family="sans-serif" font-size="11" lengthAdjust="spacingAndGlyphs" textLength="79" x="1496" y="521.1064">void tearDown()</text><ellipse cx="1487" cy="531.9414" fill="#84BE84" rx="3" ry="3" style="stroke: #038048; stroke-width: 1.0;"/><text fill="#000000" font-family="sans-serif" font-size="11" lengthAdjust="spacingAndGlyphs" textLength="49" x="1496" y="534.9424">void test()</text><!--link problem.IDirectoryListener to problem.ApplicationLauncher--><path d="M173.802,506.401 C176.311,536.39 179.443,573.82 182.282,607.754 " fill="none" id="problem.IDirectoryListener-problem.ApplicationLauncher" style="stroke: #A80036; stroke-width: 1.0; stroke-dasharray: 7.0,7.0;"/><polygon fill="none" points="166.791,506.55,172.099,486.036,180.742,505.383,166.791,506.55" style="stroke: #A80036; stroke-width: 1.0;"/><!--link problem.ProcessRunner to problem.DataFileRunner--><path d="M172.753,1004.905 C169.902,1018.858 167.081,1032.664 164.631,1044.654 " fill="none" id="problem.ProcessRunner-problem.DataFileRunner" style="stroke: #A80036; stroke-width: 1.0;"/><polygon fill="none" points="165.905,1003.451,176.768,985.258,179.622,1006.254,165.905,1003.451" style="stroke: #A80036; stroke-width: 1.0;"/><!--link problem.IDirectoryListener to problem.DirectoryChangeLogger--><path d="M230.976,498.514 C257.304,519.303 288.457,543.581 317,565 C351.389,590.806 389.874,618.624 423.024,642.264 " fill="none" id="problem.IDirectoryListener-problem.DirectoryChangeLogger" style="stroke: #A80036; stroke-width: 1.0; stroke-dasharray: 7.0,7.0;"/><polygon fill="none" points="226.605,503.981,215.272,486.077,235.297,493.006,226.605,503.981" style="stroke: #A80036; stroke-width: 1.0;"/><!--link problem.ProcessRunner to problem.ExecutableFileListener--><path d="M275.259,998.734 C292.762,1014.796 310.41,1030.99 325.43,1044.772 " fill="none" id="problem.ProcessRunner-problem.ExecutableFileListener" style="stroke: #A80036; stroke-width: 1.0;"/><polygon fill="none" points="270.322,1003.705,260.319,985.025,279.788,993.39,270.322,1003.705" style="stroke: #A80036; stroke-width: 1.0;"/><!--link problem.DirectoryMonitorService to problem.IDirectoryListener--><path d="M192.909,288.383 C186.719,329.446 180.103,373.34 175.403,404.519 " fill="none" id="problem.DirectoryMonitorService-problem.IDirectoryListener" style="stroke: #A80036; stroke-width: 1.0;"/><polygon fill="#A80036" points="174.607,409.8,179.9045,401.4972,175.3527,404.8559,171.994,400.3041,174.607,409.8" style="stroke: #A80036; stroke-width: 1.0;"/><text fill="#000000" font-family="sans-serif" font-size="13" lengthAdjust="spacingAndGlyphs" textLength="5" x="170.1604" y="399.1263">*</text><!--link problem.ApplicationLauncher to problem.ProcessRunner--><path d="M190,794.129 C190,812.382 190,831.26 190,848.625 " fill="none" id="problem.ApplicationLauncher-problem.ProcessRunner" style="stroke: #A80036; stroke-width: 1.0;"/><polygon fill="#A80036" points="190,853.963,194,844.963,190,848.963,186,844.963,190,853.963" style="stroke: #A80036; stroke-width: 1.0;"/><text fill="#000000" font-family="sans-serif" font-size="13" lengthAdjust="spacingAndGlyphs" textLength="5" x="184.7109" y="842.9748">*</text><!--link problem.AppLauncherApplication to problem.AllTests--><!--link problem.AllTests to problem.AppLauncher--><!--link problem.AppLauncherApplication to problem.AppLauncherBaseCaseTest--><!--link problem.AppLauncherBaseCaseTest to problem.AppLauncherSupportTest--><!--link problem.AppLauncherSupportTest to problem.DirectoryEvent--><!--link NewTestStructure.DataFileRunnerTest to NewTestStructure.DirectoryChangeLoggerTest--><!--link NewTestStructure.DirectoryChangeLoggerTest to NewTestStructure.DirectoryEventTest--><!--link NewTestStructure.DataFileRunnerTest to NewTestStructure.DirectoryMonitorServiceTest--><!--link NewTestStructure.DirectoryMonitorServiceTest to NewTestStructure.ExecutableFileListenerTest--></g></svg>