<?xml version="1.0" encoding="UTF-8" standalone="no"?><svg xmlns="http://www.w3.org/2000/svg" xmlns:xlink="http://www.w3.org/1999/xlink" contentScriptType="application/ecmascript" contentStyleType="text/css" height="1957px" preserveAspectRatio="none" style="width:689px;height:1957px;" version="1.1" viewBox="0 0 689 1957" width="689px" zoomAndPan="magnify"><defs><filter height="300%" id="f19it2awx7wlc9" width="300%" x="-1" y="-1"><feGaussianBlur result="blurOut" stdDeviation="2.0"/><feColorMatrix in="blurOut" result="blurOut2" type="matrix" values="0 0 0 0 0 0 0 0 0 0 0 0 0 0 0 0 0 0 .4 0"/><feOffset dx="4.0" dy="4.0" in="blurOut2" result="blurOut3"/><feBlend in="SourceGraphic" in2="blurOut3" mode="normal"/></filter></defs><g><!--class String--><rect fill="#FEFECE" filter="url(#f19it2awx7wlc9)" height="1417.7578" id="String" style="stroke: #A80036; stroke-width: 1.5;" width="386" x="9.0582" y="529"/><ellipse cx="181.8082" cy="545" fill="#ADD1B2" rx="11" ry="11" style="stroke: #A80036; stroke-width: 1.0;"/><path d="M184.5738,540.875 Q184.73,540.6563 184.9175,540.5469 Q185.105,540.4375 185.3238,540.4375 Q185.6988,540.4375 185.9332,540.6953 Q186.1675,540.9531 186.1675,541.5625 L186.1675,543.0156 Q186.1675,543.625 185.9332,543.8906 Q185.6988,544.1563 185.3238,544.1563 Q184.98,544.1563 184.7769,543.9531 Q184.5738,543.7656 184.4644,543.25 Q184.4175,542.8906 184.23,542.7031 Q183.9019,542.3281 183.2925,542.1094 Q182.6832,541.8906 182.0582,541.8906 Q181.2925,541.8906 180.6597,542.2188 Q180.0269,542.5469 179.5347,543.2969 Q179.0425,544.0469 179.0425,545.0781 L179.0425,546.1719 Q179.0425,547.4063 179.9332,548.2266 Q180.8238,549.0469 182.4175,549.0469 Q183.355,549.0469 184.0113,548.7969 Q184.4019,548.6406 184.8238,548.2031 Q185.0894,547.9375 185.2378,547.8594 Q185.3863,547.7813 185.5894,547.7813 Q185.9175,547.7813 186.1753,548.0391 Q186.4332,548.2969 186.4332,548.6406 Q186.4332,548.9844 186.0894,549.3906 Q185.5894,549.9688 184.7925,550.2969 Q183.7144,550.75 182.4175,550.75 Q180.9019,550.75 179.6988,550.125 Q178.7144,549.625 178.0269,548.5547 Q177.3394,547.4844 177.3394,546.2031 L177.3394,545.0469 Q177.3394,543.7188 177.9566,542.5703 Q178.5738,541.4219 179.6675,540.8047 Q180.7613,540.1875 181.9957,540.1875 Q182.73,540.1875 183.3785,540.3516 Q184.0269,540.5156 184.5738,540.875 Z "/><text fill="#000000" font-family="sans-serif" font-size="12" lengthAdjust="spacingAndGlyphs" textLength="32" x="202.3082" y="549.9102">String</text><line style="stroke: #A80036; stroke-width: 1.5;" x1="10.0582" x2="394.0582" y1="561" y2="561"/><rect fill="none" height="6" style="stroke: #C82930; stroke-width: 1.0;" width="6" x="17.0582" y="570.418"/><text fill="#000000" font-family="sans-serif" font-size="11" lengthAdjust="spacingAndGlyphs" textLength="57" x="29.0582" y="576.4189">char[] value</text><rect fill="none" height="6" style="stroke: #C82930; stroke-width: 1.0;" width="6" x="17.0582" y="584.2539"/><text fill="#000000" font-family="sans-serif" font-size="11" lengthAdjust="spacingAndGlyphs" textLength="38" x="29.0582" y="590.2549">int hash</text><rect fill="none" height="6" style="stroke: #C82930; stroke-width: 1.0;" width="6" x="17.0582" y="598.0898"/><text fill="#000000" font-family="sans-serif" font-size="11" lengthAdjust="spacingAndGlyphs" text-decoration="underline" textLength="103" x="29.0582" y="604.0908">long serialVersionUID</text><line style="stroke: #000000; stroke-width: 1.0;" x1="29.0582" x2="132.0582" y1="606.0908" y2="606.0908"/><rect fill="none" height="6" style="stroke: #C82930; stroke-width: 1.0;" width="6" x="17.0582" y="611.9258"/><text fill="#000000" font-family="sans-serif" font-size="11" lengthAdjust="spacingAndGlyphs" text-decoration="underline" textLength="232" x="29.0582" y="617.9268">java.io.ObjectStreamField[] serialPersistentFields</text><line style="stroke: #000000; stroke-width: 1.0;" x1="29.0582" x2="261.0582" y1="619.9268" y2="619.9268"/><ellipse cx="20.0582" cy="628.7617" fill="none" rx="3" ry="3" style="stroke: #038048; stroke-width: 1.0;"/><text fill="#000000" font-family="sans-serif" font-size="11" lengthAdjust="spacingAndGlyphs" text-decoration="underline" textLength="233" x="29.0582" y="631.7627">java.util.Comparator CASE_INSENSITIVE_ORDER</text><line style="stroke: #000000; stroke-width: 1.0;" x1="29.0582" x2="262.0582" y1="633.7627" y2="633.7627"/><line style="stroke: #A80036; stroke-width: 1.5;" x1="10.0582" x2="394.0582" y1="638.1797" y2="638.1797"/><ellipse cx="20.0582" cy="650.5977" fill="#84BE84" rx="3" ry="3" style="stroke: #038048; stroke-width: 1.0;"/><text fill="#000000" font-family="sans-serif" font-size="11" lengthAdjust="spacingAndGlyphs" textLength="56" x="29.0582" y="653.5986">void &lt;init&gt;()</text><ellipse cx="20.0582" cy="664.4336" fill="#84BE84" rx="3" ry="3" style="stroke: #038048; stroke-width: 1.0;"/><text fill="#000000" font-family="sans-serif" font-size="11" lengthAdjust="spacingAndGlyphs" textLength="130" x="29.0582" y="667.4346">void &lt;init&gt;(java.lang.String)</text><ellipse cx="20.0582" cy="678.2695" fill="#84BE84" rx="3" ry="3" style="stroke: #038048; stroke-width: 1.0;"/><text fill="#000000" font-family="sans-serif" font-size="11" lengthAdjust="spacingAndGlyphs" textLength="84" x="29.0582" y="681.2705">void &lt;init&gt;(char[])</text><ellipse cx="20.0582" cy="692.1055" fill="#84BE84" rx="3" ry="3" style="stroke: #038048; stroke-width: 1.0;"/><text fill="#000000" font-family="sans-serif" font-size="11" lengthAdjust="spacingAndGlyphs" textLength="112" x="29.0582" y="695.1064">void &lt;init&gt;(char[],int,int)</text><ellipse cx="20.0582" cy="705.9414" fill="#84BE84" rx="3" ry="3" style="stroke: #038048; stroke-width: 1.0;"/><text fill="#000000" font-family="sans-serif" font-size="11" lengthAdjust="spacingAndGlyphs" textLength="101" x="29.0582" y="708.9424">void &lt;init&gt;(int[],int,int)</text><ellipse cx="20.0582" cy="719.7773" fill="#84BE84" rx="3" ry="3" style="stroke: #038048; stroke-width: 1.0;"/><text fill="#000000" font-family="sans-serif" font-size="11" lengthAdjust="spacingAndGlyphs" textLength="125" x="29.0582" y="722.7783">void &lt;init&gt;(byte[],int,int,int)</text><ellipse cx="20.0582" cy="733.6133" fill="#84BE84" rx="3" ry="3" style="stroke: #038048; stroke-width: 1.0;"/><text fill="#000000" font-family="sans-serif" font-size="11" lengthAdjust="spacingAndGlyphs" textLength="97" x="29.0582" y="736.6143">void &lt;init&gt;(byte[],int)</text><rect fill="#F24D5C" height="6" style="stroke: #C82930; stroke-width: 1.0;" width="6" x="17.0582" y="744.4492"/><text fill="#000000" font-family="sans-serif" font-size="11" lengthAdjust="spacingAndGlyphs" text-decoration="underline" textLength="152" x="29.0582" y="750.4502">void checkBounds(byte[],int,int)</text><line style="stroke: #000000; stroke-width: 1.0;" x1="29.0582" x2="181.0582" y1="752.4502" y2="752.4502"/><ellipse cx="20.0582" cy="761.2852" fill="#84BE84" rx="3" ry="3" style="stroke: #038048; stroke-width: 1.0;"/><text fill="#000000" font-family="sans-serif" font-size="11" lengthAdjust="spacingAndGlyphs" textLength="188" x="29.0582" y="764.2861">void &lt;init&gt;(byte[],int,int,java.lang.String)</text><ellipse cx="20.0582" cy="775.1211" fill="#84BE84" rx="3" ry="3" style="stroke: #038048; stroke-width: 1.0;"/><text fill="#000000" font-family="sans-serif" font-size="11" lengthAdjust="spacingAndGlyphs" textLength="232" x="29.0582" y="778.1221">void &lt;init&gt;(byte[],int,int,java.nio.charset.Charset)</text><ellipse cx="20.0582" cy="788.957" fill="#84BE84" rx="3" ry="3" style="stroke: #038048; stroke-width: 1.0;"/><text fill="#000000" font-family="sans-serif" font-size="11" lengthAdjust="spacingAndGlyphs" textLength="160" x="29.0582" y="791.958">void &lt;init&gt;(byte[],java.lang.String)</text><ellipse cx="20.0582" cy="802.793" fill="#84BE84" rx="3" ry="3" style="stroke: #038048; stroke-width: 1.0;"/><text fill="#000000" font-family="sans-serif" font-size="11" lengthAdjust="spacingAndGlyphs" textLength="204" x="29.0582" y="805.7939">void &lt;init&gt;(byte[],java.nio.charset.Charset)</text><ellipse cx="20.0582" cy="816.6289" fill="#84BE84" rx="3" ry="3" style="stroke: #038048; stroke-width: 1.0;"/><text fill="#000000" font-family="sans-serif" font-size="11" lengthAdjust="spacingAndGlyphs" textLength="111" x="29.0582" y="819.6299">void &lt;init&gt;(byte[],int,int)</text><ellipse cx="20.0582" cy="830.4648" fill="#84BE84" rx="3" ry="3" style="stroke: #038048; stroke-width: 1.0;"/><text fill="#000000" font-family="sans-serif" font-size="11" lengthAdjust="spacingAndGlyphs" textLength="83" x="29.0582" y="833.4658">void &lt;init&gt;(byte[])</text><ellipse cx="20.0582" cy="844.3008" fill="#84BE84" rx="3" ry="3" style="stroke: #038048; stroke-width: 1.0;"/><text fill="#000000" font-family="sans-serif" font-size="11" lengthAdjust="spacingAndGlyphs" textLength="161" x="29.0582" y="847.3018">void &lt;init&gt;(java.lang.StringBuffer)</text><ellipse cx="20.0582" cy="858.1367" fill="#84BE84" rx="3" ry="3" style="stroke: #038048; stroke-width: 1.0;"/><text fill="#000000" font-family="sans-serif" font-size="11" lengthAdjust="spacingAndGlyphs" textLength="163" x="29.0582" y="861.1377">void &lt;init&gt;(java.lang.StringBuilder)</text><rect fill="#F24D5C" height="6" style="stroke: #C82930; stroke-width: 1.0;" width="6" x="17.0582" y="868.9727"/><text fill="#000000" font-family="sans-serif" font-size="11" lengthAdjust="spacingAndGlyphs" textLength="125" x="29.0582" y="874.9736">void &lt;init&gt;(char[],boolean)</text><ellipse cx="20.0582" cy="885.8086" fill="#84BE84" rx="3" ry="3" style="stroke: #038048; stroke-width: 1.0;"/><text fill="#000000" font-family="sans-serif" font-size="11" lengthAdjust="spacingAndGlyphs" textLength="51" x="29.0582" y="888.8096">int length()</text><ellipse cx="20.0582" cy="899.6445" fill="#84BE84" rx="3" ry="3" style="stroke: #038048; stroke-width: 1.0;"/><text fill="#000000" font-family="sans-serif" font-size="11" lengthAdjust="spacingAndGlyphs" textLength="86" x="29.0582" y="902.6455">boolean isEmpty()</text><ellipse cx="20.0582" cy="913.4805" fill="#84BE84" rx="3" ry="3" style="stroke: #038048; stroke-width: 1.0;"/><text fill="#000000" font-family="sans-serif" font-size="11" lengthAdjust="spacingAndGlyphs" textLength="77" x="29.0582" y="916.4814">char charAt(int)</text><ellipse cx="20.0582" cy="927.3164" fill="#84BE84" rx="3" ry="3" style="stroke: #038048; stroke-width: 1.0;"/><text fill="#000000" font-family="sans-serif" font-size="11" lengthAdjust="spacingAndGlyphs" textLength="91" x="29.0582" y="930.3174">int codePointAt(int)</text><ellipse cx="20.0582" cy="941.1523" fill="#84BE84" rx="3" ry="3" style="stroke: #038048; stroke-width: 1.0;"/><text fill="#000000" font-family="sans-serif" font-size="11" lengthAdjust="spacingAndGlyphs" textLength="113" x="29.0582" y="944.1533">int codePointBefore(int)</text><ellipse cx="20.0582" cy="954.9883" fill="#84BE84" rx="3" ry="3" style="stroke: #038048; stroke-width: 1.0;"/><text fill="#000000" font-family="sans-serif" font-size="11" lengthAdjust="spacingAndGlyphs" textLength="122" x="29.0582" y="957.9893">int codePointCount(int,int)</text><ellipse cx="20.0582" cy="968.8242" fill="#84BE84" rx="3" ry="3" style="stroke: #038048; stroke-width: 1.0;"/><text fill="#000000" font-family="sans-serif" font-size="11" lengthAdjust="spacingAndGlyphs" textLength="143" x="29.0582" y="971.8252">int offsetByCodePoints(int,int)</text><rect fill="#F24D5C" height="6" style="stroke: #C82930; stroke-width: 1.0;" width="6" x="17.0582" y="979.6602"/><text fill="#000000" font-family="sans-serif" font-size="11" lengthAdjust="spacingAndGlyphs" textLength="117" x="29.0582" y="985.6611">void getChars(char[],int)</text><ellipse cx="20.0582" cy="996.4961" fill="#84BE84" rx="3" ry="3" style="stroke: #038048; stroke-width: 1.0;"/><text fill="#000000" font-family="sans-serif" font-size="11" lengthAdjust="spacingAndGlyphs" textLength="145" x="29.0582" y="999.4971">void getChars(int,int,char[],int)</text><ellipse cx="20.0582" cy="1010.332" fill="#84BE84" rx="3" ry="3" style="stroke: #038048; stroke-width: 1.0;"/><text fill="#000000" font-family="sans-serif" font-size="11" lengthAdjust="spacingAndGlyphs" textLength="143" x="29.0582" y="1013.333">void getBytes(int,int,byte[],int)</text><ellipse cx="20.0582" cy="1024.168" fill="#84BE84" rx="3" ry="3" style="stroke: #038048; stroke-width: 1.0;"/><text fill="#000000" font-family="sans-serif" font-size="11" lengthAdjust="spacingAndGlyphs" textLength="155" x="29.0582" y="1027.1689">byte[] getBytes(java.lang.String)</text><ellipse cx="20.0582" cy="1038.0039" fill="#84BE84" rx="3" ry="3" style="stroke: #038048; stroke-width: 1.0;"/><text fill="#000000" font-family="sans-serif" font-size="11" lengthAdjust="spacingAndGlyphs" textLength="199" x="29.0582" y="1041.0049">byte[] getBytes(java.nio.charset.Charset)</text><ellipse cx="20.0582" cy="1051.8398" fill="#84BE84" rx="3" ry="3" style="stroke: #038048; stroke-width: 1.0;"/><text fill="#000000" font-family="sans-serif" font-size="11" lengthAdjust="spacingAndGlyphs" textLength="81" x="29.0582" y="1054.8408">byte[] getBytes()</text><ellipse cx="20.0582" cy="1065.6758" fill="#84BE84" rx="3" ry="3" style="stroke: #038048; stroke-width: 1.0;"/><text fill="#000000" font-family="sans-serif" font-size="11" lengthAdjust="spacingAndGlyphs" textLength="158" x="29.0582" y="1068.6768">boolean equals(java.lang.Object)</text><ellipse cx="20.0582" cy="1079.5117" fill="#84BE84" rx="3" ry="3" style="stroke: #038048; stroke-width: 1.0;"/><text fill="#000000" font-family="sans-serif" font-size="11" lengthAdjust="spacingAndGlyphs" textLength="222" x="29.0582" y="1082.5127">boolean contentEquals(java.lang.StringBuffer)</text><rect fill="#F24D5C" height="6" style="stroke: #C82930; stroke-width: 1.0;" width="6" x="17.0582" y="1090.3477"/><text fill="#000000" font-family="sans-serif" font-size="11" lengthAdjust="spacingAndGlyphs" textLength="310" x="29.0582" y="1096.3486">boolean nonSyncContentEquals(java.lang.AbstractStringBuilder)</text><ellipse cx="20.0582" cy="1107.1836" fill="#84BE84" rx="3" ry="3" style="stroke: #038048; stroke-width: 1.0;"/><text fill="#000000" font-family="sans-serif" font-size="11" lengthAdjust="spacingAndGlyphs" textLength="235" x="29.0582" y="1110.1846">boolean contentEquals(java.lang.CharSequence)</text><ellipse cx="20.0582" cy="1121.0195" fill="#84BE84" rx="3" ry="3" style="stroke: #038048; stroke-width: 1.0;"/><text fill="#000000" font-family="sans-serif" font-size="11" lengthAdjust="spacingAndGlyphs" textLength="210" x="29.0582" y="1124.0205">boolean equalsIgnoreCase(java.lang.String)</text><ellipse cx="20.0582" cy="1134.8555" fill="#84BE84" rx="3" ry="3" style="stroke: #038048; stroke-width: 1.0;"/><text fill="#000000" font-family="sans-serif" font-size="11" lengthAdjust="spacingAndGlyphs" textLength="150" x="29.0582" y="1137.8564">int compareTo(java.lang.String)</text><ellipse cx="20.0582" cy="1148.6914" fill="#84BE84" rx="3" ry="3" style="stroke: #038048; stroke-width: 1.0;"/><text fill="#000000" font-family="sans-serif" font-size="11" lengthAdjust="spacingAndGlyphs" textLength="205" x="29.0582" y="1151.6924">int compareToIgnoreCase(java.lang.String)</text><ellipse cx="20.0582" cy="1162.5273" fill="#84BE84" rx="3" ry="3" style="stroke: #038048; stroke-width: 1.0;"/><text fill="#000000" font-family="sans-serif" font-size="11" lengthAdjust="spacingAndGlyphs" textLength="236" x="29.0582" y="1165.5283">boolean regionMatches(int,java.lang.String,int,int)</text><ellipse cx="20.0582" cy="1176.3633" fill="#84BE84" rx="3" ry="3" style="stroke: #038048; stroke-width: 1.0;"/><text fill="#000000" font-family="sans-serif" font-size="11" lengthAdjust="spacingAndGlyphs" textLength="277" x="29.0582" y="1179.3643">boolean regionMatches(boolean,int,java.lang.String,int,int)</text><ellipse cx="20.0582" cy="1190.1992" fill="#84BE84" rx="3" ry="3" style="stroke: #038048; stroke-width: 1.0;"/><text fill="#000000" font-family="sans-serif" font-size="11" lengthAdjust="spacingAndGlyphs" textLength="186" x="29.0582" y="1193.2002">boolean startsWith(java.lang.String,int)</text><ellipse cx="20.0582" cy="1204.0352" fill="#84BE84" rx="3" ry="3" style="stroke: #038048; stroke-width: 1.0;"/><text fill="#000000" font-family="sans-serif" font-size="11" lengthAdjust="spacingAndGlyphs" textLength="172" x="29.0582" y="1207.0361">boolean startsWith(java.lang.String)</text><ellipse cx="20.0582" cy="1217.8711" fill="#84BE84" rx="3" ry="3" style="stroke: #038048; stroke-width: 1.0;"/><text fill="#000000" font-family="sans-serif" font-size="11" lengthAdjust="spacingAndGlyphs" textLength="168" x="29.0582" y="1220.8721">boolean endsWith(java.lang.String)</text><ellipse cx="20.0582" cy="1231.707" fill="#84BE84" rx="3" ry="3" style="stroke: #038048; stroke-width: 1.0;"/><text fill="#000000" font-family="sans-serif" font-size="11" lengthAdjust="spacingAndGlyphs" textLength="71" x="29.0582" y="1234.708">int hashCode()</text><ellipse cx="20.0582" cy="1245.543" fill="#84BE84" rx="3" ry="3" style="stroke: #038048; stroke-width: 1.0;"/><text fill="#000000" font-family="sans-serif" font-size="11" lengthAdjust="spacingAndGlyphs" textLength="71" x="29.0582" y="1248.5439">int indexOf(int)</text><ellipse cx="20.0582" cy="1259.3789" fill="#84BE84" rx="3" ry="3" style="stroke: #038048; stroke-width: 1.0;"/><text fill="#000000" font-family="sans-serif" font-size="11" lengthAdjust="spacingAndGlyphs" textLength="85" x="29.0582" y="1262.3799">int indexOf(int,int)</text><rect fill="#F24D5C" height="6" style="stroke: #C82930; stroke-width: 1.0;" width="6" x="17.0582" y="1270.2148"/><text fill="#000000" font-family="sans-serif" font-size="11" lengthAdjust="spacingAndGlyphs" textLength="157" x="29.0582" y="1276.2158">int indexOfSupplementary(int,int)</text><ellipse cx="20.0582" cy="1287.0508" fill="#84BE84" rx="3" ry="3" style="stroke: #038048; stroke-width: 1.0;"/><text fill="#000000" font-family="sans-serif" font-size="11" lengthAdjust="spacingAndGlyphs" textLength="88" x="29.0582" y="1290.0518">int lastIndexOf(int)</text><ellipse cx="20.0582" cy="1300.8867" fill="#84BE84" rx="3" ry="3" style="stroke: #038048; stroke-width: 1.0;"/><text fill="#000000" font-family="sans-serif" font-size="11" lengthAdjust="spacingAndGlyphs" textLength="102" x="29.0582" y="1303.8877">int lastIndexOf(int,int)</text><rect fill="#F24D5C" height="6" style="stroke: #C82930; stroke-width: 1.0;" width="6" x="17.0582" y="1311.7227"/><text fill="#000000" font-family="sans-serif" font-size="11" lengthAdjust="spacingAndGlyphs" textLength="174" x="29.0582" y="1317.7236">int lastIndexOfSupplementary(int,int)</text><ellipse cx="20.0582" cy="1328.5586" fill="#84BE84" rx="3" ry="3" style="stroke: #038048; stroke-width: 1.0;"/><text fill="#000000" font-family="sans-serif" font-size="11" lengthAdjust="spacingAndGlyphs" textLength="134" x="29.0582" y="1331.5596">int indexOf(java.lang.String)</text><ellipse cx="20.0582" cy="1342.3945" fill="#84BE84" rx="3" ry="3" style="stroke: #038048; stroke-width: 1.0;"/><text fill="#000000" font-family="sans-serif" font-size="11" lengthAdjust="spacingAndGlyphs" textLength="148" x="29.0582" y="1345.3955">int indexOf(java.lang.String,int)</text><rect fill="#F24D5C" height="6" style="stroke: #C82930; stroke-width: 1.0;" width="6" x="17.0582" y="1353.2305"/><text fill="#000000" font-family="sans-serif" font-size="11" lengthAdjust="spacingAndGlyphs" text-decoration="underline" textLength="207" x="29.0582" y="1359.2314">int indexOf(char[],int,int,java.lang.String,int)</text><line style="stroke: #000000; stroke-width: 1.0;" x1="29.0582" x2="236.0582" y1="1361.2314" y2="1361.2314"/><rect fill="#F24D5C" height="6" style="stroke: #C82930; stroke-width: 1.0;" width="6" x="17.0582" y="1367.0664"/><text fill="#000000" font-family="sans-serif" font-size="11" lengthAdjust="spacingAndGlyphs" text-decoration="underline" textLength="189" x="29.0582" y="1373.0674">int indexOf(char[],int,int,char[],int,int,int)</text><line style="stroke: #000000; stroke-width: 1.0;" x1="29.0582" x2="218.0582" y1="1375.0674" y2="1375.0674"/><ellipse cx="20.0582" cy="1383.9023" fill="#84BE84" rx="3" ry="3" style="stroke: #038048; stroke-width: 1.0;"/><text fill="#000000" font-family="sans-serif" font-size="11" lengthAdjust="spacingAndGlyphs" textLength="151" x="29.0582" y="1386.9033">int lastIndexOf(java.lang.String)</text><ellipse cx="20.0582" cy="1397.7383" fill="#84BE84" rx="3" ry="3" style="stroke: #038048; stroke-width: 1.0;"/><text fill="#000000" font-family="sans-serif" font-size="11" lengthAdjust="spacingAndGlyphs" textLength="165" x="29.0582" y="1400.7393">int lastIndexOf(java.lang.String,int)</text><rect fill="#F24D5C" height="6" style="stroke: #C82930; stroke-width: 1.0;" width="6" x="17.0582" y="1408.5742"/><text fill="#000000" font-family="sans-serif" font-size="11" lengthAdjust="spacingAndGlyphs" text-decoration="underline" textLength="224" x="29.0582" y="1414.5752">int lastIndexOf(char[],int,int,java.lang.String,int)</text><line style="stroke: #000000; stroke-width: 1.0;" x1="29.0582" x2="253.0582" y1="1416.5752" y2="1416.5752"/><rect fill="#F24D5C" height="6" style="stroke: #C82930; stroke-width: 1.0;" width="6" x="17.0582" y="1422.4102"/><text fill="#000000" font-family="sans-serif" font-size="11" lengthAdjust="spacingAndGlyphs" text-decoration="underline" textLength="206" x="29.0582" y="1428.4111">int lastIndexOf(char[],int,int,char[],int,int,int)</text><line style="stroke: #000000; stroke-width: 1.0;" x1="29.0582" x2="235.0582" y1="1430.4111" y2="1430.4111"/><ellipse cx="20.0582" cy="1439.2461" fill="#84BE84" rx="3" ry="3" style="stroke: #038048; stroke-width: 1.0;"/><text fill="#000000" font-family="sans-serif" font-size="11" lengthAdjust="spacingAndGlyphs" textLength="141" x="29.0582" y="1442.2471">java.lang.String substring(int)</text><ellipse cx="20.0582" cy="1453.082" fill="#84BE84" rx="3" ry="3" style="stroke: #038048; stroke-width: 1.0;"/><text fill="#000000" font-family="sans-serif" font-size="11" lengthAdjust="spacingAndGlyphs" textLength="155" x="29.0582" y="1456.083">java.lang.String substring(int,int)</text><ellipse cx="20.0582" cy="1466.918" fill="#84BE84" rx="3" ry="3" style="stroke: #038048; stroke-width: 1.0;"/><text fill="#000000" font-family="sans-serif" font-size="11" lengthAdjust="spacingAndGlyphs" textLength="221" x="29.0582" y="1469.9189">java.lang.CharSequence subSequence(int,int)</text><ellipse cx="20.0582" cy="1480.7539" fill="#84BE84" rx="3" ry="3" style="stroke: #038048; stroke-width: 1.0;"/><text fill="#000000" font-family="sans-serif" font-size="11" lengthAdjust="spacingAndGlyphs" textLength="192" x="29.0582" y="1483.7549">java.lang.String concat(java.lang.String)</text><ellipse cx="20.0582" cy="1494.5898" fill="#84BE84" rx="3" ry="3" style="stroke: #038048; stroke-width: 1.0;"/><text fill="#000000" font-family="sans-serif" font-size="11" lengthAdjust="spacingAndGlyphs" textLength="168" x="29.0582" y="1497.5908">java.lang.String replace(char,char)</text><ellipse cx="20.0582" cy="1508.4258" fill="#84BE84" rx="3" ry="3" style="stroke: #038048; stroke-width: 1.0;"/><text fill="#000000" font-family="sans-serif" font-size="11" lengthAdjust="spacingAndGlyphs" textLength="164" x="29.0582" y="1511.4268">boolean matches(java.lang.String)</text><ellipse cx="20.0582" cy="1522.2617" fill="#84BE84" rx="3" ry="3" style="stroke: #038048; stroke-width: 1.0;"/><text fill="#000000" font-family="sans-serif" font-size="11" lengthAdjust="spacingAndGlyphs" textLength="208" x="29.0582" y="1525.2627">boolean contains(java.lang.CharSequence)</text><ellipse cx="20.0582" cy="1536.0977" fill="#84BE84" rx="3" ry="3" style="stroke: #038048; stroke-width: 1.0;"/><text fill="#000000" font-family="sans-serif" font-size="11" lengthAdjust="spacingAndGlyphs" textLength="293" x="29.0582" y="1539.0986">java.lang.String replaceFirst(java.lang.String,java.lang.String)</text><ellipse cx="20.0582" cy="1549.9336" fill="#84BE84" rx="3" ry="3" style="stroke: #038048; stroke-width: 1.0;"/><text fill="#000000" font-family="sans-serif" font-size="11" lengthAdjust="spacingAndGlyphs" textLength="284" x="29.0582" y="1552.9346">java.lang.String replaceAll(java.lang.String,java.lang.String)</text><ellipse cx="20.0582" cy="1563.7695" fill="#84BE84" rx="3" ry="3" style="stroke: #038048; stroke-width: 1.0;"/><text fill="#000000" font-family="sans-serif" font-size="11" lengthAdjust="spacingAndGlyphs" textLength="360" x="29.0582" y="1566.7705">java.lang.String replace(java.lang.CharSequence,java.lang.CharSequence)</text><ellipse cx="20.0582" cy="1577.6055" fill="#84BE84" rx="3" ry="3" style="stroke: #038048; stroke-width: 1.0;"/><text fill="#000000" font-family="sans-serif" font-size="11" lengthAdjust="spacingAndGlyphs" textLength="198" x="29.0582" y="1580.6064">java.lang.String[] split(java.lang.String,int)</text><ellipse cx="20.0582" cy="1591.4414" fill="#84BE84" rx="3" ry="3" style="stroke: #038048; stroke-width: 1.0;"/><text fill="#000000" font-family="sans-serif" font-size="11" lengthAdjust="spacingAndGlyphs" textLength="184" x="29.0582" y="1594.4424">java.lang.String[] split(java.lang.String)</text><ellipse cx="20.0582" cy="1605.2773" fill="#84BE84" rx="3" ry="3" style="stroke: #038048; stroke-width: 1.0;"/><text fill="#000000" font-family="sans-serif" font-size="11" lengthAdjust="spacingAndGlyphs" text-decoration="underline" textLength="346" x="29.0582" y="1608.2783">java.lang.String join(java.lang.CharSequence,java.lang.CharSequence[])</text><line style="stroke: #000000; stroke-width: 1.0;" x1="29.0582" x2="375.0582" y1="1610.2783" y2="1610.2783"/><ellipse cx="20.0582" cy="1619.1133" fill="#84BE84" rx="3" ry="3" style="stroke: #038048; stroke-width: 1.0;"/><text fill="#000000" font-family="sans-serif" font-size="11" lengthAdjust="spacingAndGlyphs" text-decoration="underline" textLength="303" x="29.0582" y="1622.1143">java.lang.String join(java.lang.CharSequence,java.lang.Iterable)</text><line style="stroke: #000000; stroke-width: 1.0;" x1="29.0582" x2="332.0582" y1="1624.1143" y2="1624.1143"/><ellipse cx="20.0582" cy="1632.9492" fill="#84BE84" rx="3" ry="3" style="stroke: #038048; stroke-width: 1.0;"/><text fill="#000000" font-family="sans-serif" font-size="11" lengthAdjust="spacingAndGlyphs" textLength="222" x="29.0582" y="1635.9502">java.lang.String toLowerCase(java.util.Locale)</text><ellipse cx="20.0582" cy="1646.7852" fill="#84BE84" rx="3" ry="3" style="stroke: #038048; stroke-width: 1.0;"/><text fill="#000000" font-family="sans-serif" font-size="11" lengthAdjust="spacingAndGlyphs" textLength="151" x="29.0582" y="1649.7861">java.lang.String toLowerCase()</text><ellipse cx="20.0582" cy="1660.6211" fill="#84BE84" rx="3" ry="3" style="stroke: #038048; stroke-width: 1.0;"/><text fill="#000000" font-family="sans-serif" font-size="11" lengthAdjust="spacingAndGlyphs" textLength="219" x="29.0582" y="1663.6221">java.lang.String toUpperCase(java.util.Locale)</text><ellipse cx="20.0582" cy="1674.457" fill="#84BE84" rx="3" ry="3" style="stroke: #038048; stroke-width: 1.0;"/><text fill="#000000" font-family="sans-serif" font-size="11" lengthAdjust="spacingAndGlyphs" textLength="148" x="29.0582" y="1677.458">java.lang.String toUpperCase()</text><ellipse cx="20.0582" cy="1688.293" fill="#84BE84" rx="3" ry="3" style="stroke: #038048; stroke-width: 1.0;"/><text fill="#000000" font-family="sans-serif" font-size="11" lengthAdjust="spacingAndGlyphs" textLength="102" x="29.0582" y="1691.2939">java.lang.String trim()</text><ellipse cx="20.0582" cy="1702.1289" fill="#84BE84" rx="3" ry="3" style="stroke: #038048; stroke-width: 1.0;"/><text fill="#000000" font-family="sans-serif" font-size="11" lengthAdjust="spacingAndGlyphs" textLength="122" x="29.0582" y="1705.1299">java.lang.String toString()</text><ellipse cx="20.0582" cy="1715.9648" fill="#84BE84" rx="3" ry="3" style="stroke: #038048; stroke-width: 1.0;"/><text fill="#000000" font-family="sans-serif" font-size="11" lengthAdjust="spacingAndGlyphs" textLength="99" x="29.0582" y="1718.9658">char[] toCharArray()</text><ellipse cx="20.0582" cy="1729.8008" fill="#84BE84" rx="3" ry="3" style="stroke: #038048; stroke-width: 1.0;"/><text fill="#000000" font-family="sans-serif" font-size="11" lengthAdjust="spacingAndGlyphs" text-decoration="underline" textLength="276" x="29.0582" y="1732.8018">java.lang.String format(java.lang.String,java.lang.Object[])</text><line style="stroke: #000000; stroke-width: 1.0;" x1="29.0582" x2="305.0582" y1="1734.8018" y2="1734.8018"/><ellipse cx="20.0582" cy="1743.6367" fill="#84BE84" rx="3" ry="3" style="stroke: #038048; stroke-width: 1.0;"/><text fill="#000000" font-family="sans-serif" font-size="11" lengthAdjust="spacingAndGlyphs" text-decoration="underline" textLength="350" x="29.0582" y="1746.6377">java.lang.String format(java.util.Locale,java.lang.String,java.lang.Object[])</text><line style="stroke: #000000; stroke-width: 1.0;" x1="29.0582" x2="379.0582" y1="1748.6377" y2="1748.6377"/><ellipse cx="20.0582" cy="1757.4727" fill="#84BE84" rx="3" ry="3" style="stroke: #038048; stroke-width: 1.0;"/><text fill="#000000" font-family="sans-serif" font-size="11" lengthAdjust="spacingAndGlyphs" text-decoration="underline" textLength="200" x="29.0582" y="1760.4736">java.lang.String valueOf(java.lang.Object)</text><line style="stroke: #000000; stroke-width: 1.0;" x1="29.0582" x2="229.0582" y1="1762.4736" y2="1762.4736"/><ellipse cx="20.0582" cy="1771.3086" fill="#84BE84" rx="3" ry="3" style="stroke: #038048; stroke-width: 1.0;"/><text fill="#000000" font-family="sans-serif" font-size="11" lengthAdjust="spacingAndGlyphs" text-decoration="underline" textLength="151" x="29.0582" y="1774.3096">java.lang.String valueOf(char[])</text><line style="stroke: #000000; stroke-width: 1.0;" x1="29.0582" x2="180.0582" y1="1776.3096" y2="1776.3096"/><ellipse cx="20.0582" cy="1785.1445" fill="#84BE84" rx="3" ry="3" style="stroke: #038048; stroke-width: 1.0;"/><text fill="#000000" font-family="sans-serif" font-size="11" lengthAdjust="spacingAndGlyphs" text-decoration="underline" textLength="179" x="29.0582" y="1788.1455">java.lang.String valueOf(char[],int,int)</text><line style="stroke: #000000; stroke-width: 1.0;" x1="29.0582" x2="208.0582" y1="1790.1455" y2="1790.1455"/><ellipse cx="20.0582" cy="1798.9805" fill="#84BE84" rx="3" ry="3" style="stroke: #038048; stroke-width: 1.0;"/><text fill="#000000" font-family="sans-serif" font-size="11" lengthAdjust="spacingAndGlyphs" text-decoration="underline" textLength="205" x="29.0582" y="1801.9814">java.lang.String copyValueOf(char[],int,int)</text><line style="stroke: #000000; stroke-width: 1.0;" x1="29.0582" x2="234.0582" y1="1803.9814" y2="1803.9814"/><ellipse cx="20.0582" cy="1812.8164" fill="#84BE84" rx="3" ry="3" style="stroke: #038048; stroke-width: 1.0;"/><text fill="#000000" font-family="sans-serif" font-size="11" lengthAdjust="spacingAndGlyphs" text-decoration="underline" textLength="177" x="29.0582" y="1815.8174">java.lang.String copyValueOf(char[])</text><line style="stroke: #000000; stroke-width: 1.0;" x1="29.0582" x2="206.0582" y1="1817.8174" y2="1817.8174"/><ellipse cx="20.0582" cy="1826.6523" fill="#84BE84" rx="3" ry="3" style="stroke: #038048; stroke-width: 1.0;"/><text fill="#000000" font-family="sans-serif" font-size="11" lengthAdjust="spacingAndGlyphs" text-decoration="underline" textLength="161" x="29.0582" y="1829.6533">java.lang.String valueOf(boolean)</text><line style="stroke: #000000; stroke-width: 1.0;" x1="29.0582" x2="190.0582" y1="1831.6533" y2="1831.6533"/><ellipse cx="20.0582" cy="1840.4883" fill="#84BE84" rx="3" ry="3" style="stroke: #038048; stroke-width: 1.0;"/><text fill="#000000" font-family="sans-serif" font-size="11" lengthAdjust="spacingAndGlyphs" text-decoration="underline" textLength="145" x="29.0582" y="1843.4893">java.lang.String valueOf(char)</text><line style="stroke: #000000; stroke-width: 1.0;" x1="29.0582" x2="174.0582" y1="1845.4893" y2="1845.4893"/><ellipse cx="20.0582" cy="1854.3242" fill="#84BE84" rx="3" ry="3" style="stroke: #038048; stroke-width: 1.0;"/><text fill="#000000" font-family="sans-serif" font-size="11" lengthAdjust="spacingAndGlyphs" text-decoration="underline" textLength="134" x="29.0582" y="1857.3252">java.lang.String valueOf(int)</text><line style="stroke: #000000; stroke-width: 1.0;" x1="29.0582" x2="163.0582" y1="1859.3252" y2="1859.3252"/><ellipse cx="20.0582" cy="1868.1602" fill="#84BE84" rx="3" ry="3" style="stroke: #038048; stroke-width: 1.0;"/><text fill="#000000" font-family="sans-serif" font-size="11" lengthAdjust="spacingAndGlyphs" text-decoration="underline" textLength="143" x="29.0582" y="1871.1611">java.lang.String valueOf(long)</text><line style="stroke: #000000; stroke-width: 1.0;" x1="29.0582" x2="172.0582" y1="1873.1611" y2="1873.1611"/><ellipse cx="20.0582" cy="1881.9961" fill="#84BE84" rx="3" ry="3" style="stroke: #038048; stroke-width: 1.0;"/><text fill="#000000" font-family="sans-serif" font-size="11" lengthAdjust="spacingAndGlyphs" text-decoration="underline" textLength="144" x="29.0582" y="1884.9971">java.lang.String valueOf(float)</text><line style="stroke: #000000; stroke-width: 1.0;" x1="29.0582" x2="173.0582" y1="1886.9971" y2="1886.9971"/><ellipse cx="20.0582" cy="1895.832" fill="#84BE84" rx="3" ry="3" style="stroke: #038048; stroke-width: 1.0;"/><text fill="#000000" font-family="sans-serif" font-size="11" lengthAdjust="spacingAndGlyphs" text-decoration="underline" textLength="155" x="29.0582" y="1898.833">java.lang.String valueOf(double)</text><line style="stroke: #000000; stroke-width: 1.0;" x1="29.0582" x2="184.0582" y1="1900.833" y2="1900.833"/><ellipse cx="20.0582" cy="1909.668" fill="#84BE84" rx="3" ry="3" style="stroke: #038048; stroke-width: 1.0;"/><text fill="#000000" font-family="sans-serif" font-size="11" lengthAdjust="spacingAndGlyphs" textLength="112" x="29.0582" y="1912.6689">java.lang.String intern()</text><ellipse cx="20.0582" cy="1923.5039" fill="#84BE84" rx="3" ry="3" style="stroke: #038048; stroke-width: 1.0;"/><text fill="#000000" font-family="sans-serif" font-size="11" lengthAdjust="spacingAndGlyphs" textLength="153" x="29.0582" y="1926.5049">int compareTo(java.lang.Object)</text><rect fill="#F24D5C" height="6" style="stroke: #C82930; stroke-width: 1.0;" width="6" x="17.0582" y="1934.3398"/><text fill="#000000" font-family="sans-serif" font-size="11" lengthAdjust="spacingAndGlyphs" text-decoration="underline" textLength="64" x="29.0582" y="1940.3408">void &lt;clinit&gt;()</text><line style="stroke: #000000; stroke-width: 1.0;" x1="29.0582" x2="93.0582" y1="1942.3408" y2="1942.3408"/><!--class Object--><rect fill="#FEFECE" filter="url(#f19it2awx7wlc9)" height="241.7031" id="Object" style="stroke: #A80036; stroke-width: 1.5;" width="184" x="110.058" y="8"/><ellipse cx="180.308" cy="24" fill="#ADD1B2" rx="11" ry="11" style="stroke: #A80036; stroke-width: 1.0;"/><path d="M183.0736,19.875 Q183.2299,19.6563 183.4174,19.5469 Q183.6049,19.4375 183.8236,19.4375 Q184.1986,19.4375 184.433,19.6953 Q184.6674,19.9531 184.6674,20.5625 L184.6674,22.0156 Q184.6674,22.625 184.433,22.8906 Q184.1986,23.1563 183.8236,23.1563 Q183.4799,23.1563 183.2768,22.9531 Q183.0736,22.7656 182.9643,22.25 Q182.9174,21.8906 182.7299,21.7031 Q182.4018,21.3281 181.7924,21.1094 Q181.183,20.8906 180.558,20.8906 Q179.7924,20.8906 179.1596,21.2188 Q178.5268,21.5469 178.0346,22.2969 Q177.5424,23.0469 177.5424,24.0781 L177.5424,25.1719 Q177.5424,26.4063 178.433,27.2266 Q179.3236,28.0469 180.9174,28.0469 Q181.8549,28.0469 182.5111,27.7969 Q182.9018,27.6406 183.3236,27.2031 Q183.5893,26.9375 183.7377,26.8594 Q183.8861,26.7813 184.0893,26.7813 Q184.4174,26.7813 184.6752,27.0391 Q184.933,27.2969 184.933,27.6406 Q184.933,27.9844 184.5893,28.3906 Q184.0893,28.9688 183.2924,29.2969 Q182.2143,29.75 180.9174,29.75 Q179.4018,29.75 178.1986,29.125 Q177.2143,28.625 176.5268,27.5547 Q175.8393,26.4844 175.8393,25.2031 L175.8393,24.0469 Q175.8393,22.7188 176.4564,21.5703 Q177.0736,20.4219 178.1674,19.8047 Q179.2611,19.1875 180.4955,19.1875 Q181.2299,19.1875 181.8783,19.3516 Q182.5268,19.5156 183.0736,19.875 Z "/><text fill="#000000" font-family="sans-serif" font-size="12" lengthAdjust="spacingAndGlyphs" textLength="35" x="200.808" y="28.9102">Object</text><line style="stroke: #A80036; stroke-width: 1.5;" x1="111.058" x2="293.058" y1="40" y2="40"/><line style="stroke: #A80036; stroke-width: 1.5;" x1="111.058" x2="293.058" y1="48" y2="48"/><ellipse cx="121.058" cy="60.418" fill="#84BE84" rx="3" ry="3" style="stroke: #038048; stroke-width: 1.0;"/><text fill="#000000" font-family="sans-serif" font-size="11" lengthAdjust="spacingAndGlyphs" textLength="56" x="130.058" y="63.4189">void &lt;init&gt;()</text><rect fill="#F24D5C" height="6" style="stroke: #C82930; stroke-width: 1.0;" width="6" x="118.058" y="71.2539"/><text fill="#000000" font-family="sans-serif" font-size="11" lengthAdjust="spacingAndGlyphs" text-decoration="underline" textLength="104" x="130.058" y="77.2549">void registerNatives()</text><line style="stroke: #000000; stroke-width: 1.0;" x1="130.058" x2="234.058" y1="79.2549" y2="79.2549"/><ellipse cx="121.058" cy="88.0898" fill="#84BE84" rx="3" ry="3" style="stroke: #038048; stroke-width: 1.0;"/><text fill="#000000" font-family="sans-serif" font-size="11" lengthAdjust="spacingAndGlyphs" textLength="126" x="130.058" y="91.0908">java.lang.Class getClass()</text><ellipse cx="121.058" cy="101.9258" fill="#84BE84" rx="3" ry="3" style="stroke: #038048; stroke-width: 1.0;"/><text fill="#000000" font-family="sans-serif" font-size="11" lengthAdjust="spacingAndGlyphs" textLength="71" x="130.058" y="104.9268">int hashCode()</text><ellipse cx="121.058" cy="115.7617" fill="#84BE84" rx="3" ry="3" style="stroke: #038048; stroke-width: 1.0;"/><text fill="#000000" font-family="sans-serif" font-size="11" lengthAdjust="spacingAndGlyphs" textLength="158" x="130.058" y="118.7627">boolean equals(java.lang.Object)</text><polygon fill="#FFFF44" points="121.058,124.5977,125.058,128.5977,121.058,132.5977,117.058,128.5977" style="stroke: #B38D22; stroke-width: 1.0;"/><text fill="#000000" font-family="sans-serif" font-size="11" lengthAdjust="spacingAndGlyphs" textLength="114" x="130.058" y="132.5986">java.lang.Object clone()</text><ellipse cx="121.058" cy="143.4336" fill="#84BE84" rx="3" ry="3" style="stroke: #038048; stroke-width: 1.0;"/><text fill="#000000" font-family="sans-serif" font-size="11" lengthAdjust="spacingAndGlyphs" textLength="122" x="130.058" y="146.4346">java.lang.String toString()</text><ellipse cx="121.058" cy="157.2695" fill="#84BE84" rx="3" ry="3" style="stroke: #038048; stroke-width: 1.0;"/><text fill="#000000" font-family="sans-serif" font-size="11" lengthAdjust="spacingAndGlyphs" textLength="58" x="130.058" y="160.2705">void notify()</text><ellipse cx="121.058" cy="171.1055" fill="#84BE84" rx="3" ry="3" style="stroke: #038048; stroke-width: 1.0;"/><text fill="#000000" font-family="sans-serif" font-size="11" lengthAdjust="spacingAndGlyphs" textLength="70" x="130.058" y="174.1064">void notifyAll()</text><ellipse cx="121.058" cy="184.9414" fill="#84BE84" rx="3" ry="3" style="stroke: #038048; stroke-width: 1.0;"/><text fill="#000000" font-family="sans-serif" font-size="11" lengthAdjust="spacingAndGlyphs" textLength="72" x="130.058" y="187.9424">void wait(long)</text><ellipse cx="121.058" cy="198.7773" fill="#84BE84" rx="3" ry="3" style="stroke: #038048; stroke-width: 1.0;"/><text fill="#000000" font-family="sans-serif" font-size="11" lengthAdjust="spacingAndGlyphs" textLength="86" x="130.058" y="201.7783">void wait(long,int)</text><ellipse cx="121.058" cy="212.6133" fill="#84BE84" rx="3" ry="3" style="stroke: #038048; stroke-width: 1.0;"/><text fill="#000000" font-family="sans-serif" font-size="11" lengthAdjust="spacingAndGlyphs" textLength="52" x="130.058" y="215.6143">void wait()</text><polygon fill="#FFFF44" points="121.058,221.4492,125.058,225.4492,121.058,229.4492,117.058,225.4492" style="stroke: #B38D22; stroke-width: 1.0;"/><text fill="#000000" font-family="sans-serif" font-size="11" lengthAdjust="spacingAndGlyphs" textLength="65" x="130.058" y="229.4502">void finalize()</text><rect fill="#F24D5C" height="6" style="stroke: #C82930; stroke-width: 1.0;" width="6" x="118.058" y="237.2852"/><text fill="#000000" font-family="sans-serif" font-size="11" lengthAdjust="spacingAndGlyphs" text-decoration="underline" textLength="64" x="130.058" y="243.2861">void &lt;clinit&gt;()</text><line style="stroke: #000000; stroke-width: 1.0;" x1="130.058" x2="194.058" y1="245.2861" y2="245.2861"/><!--class Serializable--><rect fill="#FEFECE" filter="url(#f19it2awx7wlc9)" height="48" id="Serializable" style="stroke: #A80036; stroke-width: 1.5;" width="99" x="63.5582" y="365.5"/><ellipse cx="78.5582" cy="381.5" fill="#B4A7E5" rx="11" ry="11" style="stroke: #A80036; stroke-width: 1.0;"/><path d="M79.5113,378.1406 L79.5113,384.7969 L81.2301,384.7969 Q81.8395,384.7969 82.1051,385.0313 Q82.3707,385.2656 82.3707,385.6563 Q82.3707,386.0313 82.1051,386.2656 Q81.8395,386.5 81.2301,386.5 L76.0895,386.5 Q75.4801,386.5 75.2145,386.2656 Q74.9488,386.0313 74.9488,385.6406 Q74.9488,385.2656 75.2145,385.0313 Q75.4801,384.7969 76.0895,384.7969 L77.8082,384.7969 L77.8082,378.1406 L76.0895,378.1406 Q75.4801,378.1406 75.2145,377.9063 Q74.9488,377.6719 74.9488,377.2813 Q74.9488,376.9063 75.2145,376.6719 Q75.4801,376.4375 76.0895,376.4375 L81.2301,376.4375 Q81.8395,376.4375 82.1051,376.6719 Q82.3707,376.9063 82.3707,377.2813 Q82.3707,377.6719 82.1051,377.9063 Q81.8395,378.1406 81.2301,378.1406 L79.5113,378.1406 Z "/><text fill="#000000" font-family="sans-serif" font-size="12" font-style="italic" lengthAdjust="spacingAndGlyphs" textLength="67" x="92.5582" y="386.4102">Serializable</text><line style="stroke: #A80036; stroke-width: 1.5;" x1="64.5582" x2="161.5582" y1="397.5" y2="397.5"/><line style="stroke: #A80036; stroke-width: 1.5;" x1="64.5582" x2="161.5582" y1="405.5" y2="405.5"/><!--class Comparable--><rect fill="#FEFECE" filter="url(#f19it2awx7wlc9)" height="61.8359" id="Comparable" style="stroke: #A80036; stroke-width: 1.5;" width="186" x="198.058" y="358.5"/><ellipse cx="251.808" cy="374.5" fill="#B4A7E5" rx="11" ry="11" style="stroke: #A80036; stroke-width: 1.0;"/><path d="M252.7611,371.1406 L252.7611,377.7969 L254.4799,377.7969 Q255.0893,377.7969 255.3549,378.0313 Q255.6205,378.2656 255.6205,378.6563 Q255.6205,379.0313 255.3549,379.2656 Q255.0893,379.5 254.4799,379.5 L249.3393,379.5 Q248.7299,379.5 248.4643,379.2656 Q248.1986,379.0313 248.1986,378.6406 Q248.1986,378.2656 248.4643,378.0313 Q248.7299,377.7969 249.3393,377.7969 L251.058,377.7969 L251.058,371.1406 L249.3393,371.1406 Q248.7299,371.1406 248.4643,370.9063 Q248.1986,370.6719 248.1986,370.2813 Q248.1986,369.9063 248.4643,369.6719 Q248.7299,369.4375 249.3393,369.4375 L254.4799,369.4375 Q255.0893,369.4375 255.3549,369.6719 Q255.6205,369.9063 255.6205,370.2813 Q255.6205,370.6719 255.3549,370.9063 Q255.0893,371.1406 254.4799,371.1406 L252.7611,371.1406 Z "/><text fill="#000000" font-family="sans-serif" font-size="12" font-style="italic" lengthAdjust="spacingAndGlyphs" textLength="70" x="272.308" y="379.4102">Comparable</text><line style="stroke: #A80036; stroke-width: 1.5;" x1="199.058" x2="383.058" y1="390.5" y2="390.5"/><line style="stroke: #A80036; stroke-width: 1.5;" x1="199.058" x2="383.058" y1="398.5" y2="398.5"/><ellipse cx="209.058" cy="410.918" fill="#84BE84" rx="3" ry="3" style="stroke: #038048; stroke-width: 1.0;"/><text fill="#000000" font-family="sans-serif" font-size="11" font-style="italic" lengthAdjust="spacingAndGlyphs" textLength="160" x="218.058" y="413.9189">int compareTo(java.lang.Object)</text><!--class CharSequence--><rect fill="#FEFECE" filter="url(#f19it2awx7wlc9)" height="158.6875" id="CharSequence" style="stroke: #A80036; stroke-width: 1.5;" width="259" x="419.558" y="310"/><ellipse cx="503.308" cy="326" fill="#B4A7E5" rx="11" ry="11" style="stroke: #A80036; stroke-width: 1.0;"/><path d="M504.2611,322.6406 L504.2611,329.2969 L505.9799,329.2969 Q506.5893,329.2969 506.8549,329.5313 Q507.1205,329.7656 507.1205,330.1563 Q507.1205,330.5313 506.8549,330.7656 Q506.5893,331 505.9799,331 L500.8393,331 Q500.2299,331 499.9643,330.7656 Q499.6986,330.5313 499.6986,330.1406 Q499.6986,329.7656 499.9643,329.5313 Q500.2299,329.2969 500.8393,329.2969 L502.558,329.2969 L502.558,322.6406 L500.8393,322.6406 Q500.2299,322.6406 499.9643,322.4063 Q499.6986,322.1719 499.6986,321.7813 Q499.6986,321.4063 499.9643,321.1719 Q500.2299,320.9375 500.8393,320.9375 L505.9799,320.9375 Q506.5893,320.9375 506.8549,321.1719 Q507.1205,321.4063 507.1205,321.7813 Q507.1205,322.1719 506.8549,322.4063 Q506.5893,322.6406 505.9799,322.6406 L504.2611,322.6406 Z "/><text fill="#000000" font-family="sans-serif" font-size="12" font-style="italic" lengthAdjust="spacingAndGlyphs" textLength="83" x="523.808" y="330.9102">CharSequence</text><line style="stroke: #A80036; stroke-width: 1.5;" x1="420.558" x2="677.558" y1="342" y2="342"/><line style="stroke: #A80036; stroke-width: 1.5;" x1="420.558" x2="677.558" y1="350" y2="350"/><ellipse cx="430.558" cy="362.418" fill="#84BE84" rx="3" ry="3" style="stroke: #038048; stroke-width: 1.0;"/><text fill="#000000" font-family="sans-serif" font-size="11" font-style="italic" lengthAdjust="spacingAndGlyphs" textLength="53" x="439.558" y="365.4189">int length()</text><ellipse cx="430.558" cy="376.2539" fill="#84BE84" rx="3" ry="3" style="stroke: #038048; stroke-width: 1.0;"/><text fill="#000000" font-family="sans-serif" font-size="11" font-style="italic" lengthAdjust="spacingAndGlyphs" textLength="77" x="439.558" y="379.2549">char charAt(int)</text><ellipse cx="430.558" cy="390.0898" fill="#84BE84" rx="3" ry="3" style="stroke: #038048; stroke-width: 1.0;"/><text fill="#000000" font-family="sans-serif" font-size="11" font-style="italic" lengthAdjust="spacingAndGlyphs" textLength="226" x="439.558" y="393.0908">java.lang.CharSequence subSequence(int,int)</text><ellipse cx="430.558" cy="403.9258" fill="#84BE84" rx="3" ry="3" style="stroke: #038048; stroke-width: 1.0;"/><text fill="#000000" font-family="sans-serif" font-size="11" font-style="italic" lengthAdjust="spacingAndGlyphs" textLength="125" x="439.558" y="406.9268">java.lang.String toString()</text><ellipse cx="430.558" cy="417.7617" fill="#84BE84" rx="3" ry="3" style="stroke: #038048; stroke-width: 1.0;"/><text fill="#000000" font-family="sans-serif" font-size="11" lengthAdjust="spacingAndGlyphs" textLength="159" x="439.558" y="420.7627">java.util.stream.IntStream chars()</text><ellipse cx="430.558" cy="431.5977" fill="#84BE84" rx="3" ry="3" style="stroke: #038048; stroke-width: 1.0;"/><text fill="#000000" font-family="sans-serif" font-size="11" lengthAdjust="spacingAndGlyphs" textLength="184" x="439.558" y="434.5986">java.util.stream.IntStream codePoints()</text><rect fill="#F24D5C" height="6" style="stroke: #C82930; stroke-width: 1.0;" width="6" x="427.558" y="442.4336"/><text fill="#000000" font-family="sans-serif" font-size="11" lengthAdjust="spacingAndGlyphs" textLength="233" x="439.558" y="448.4346">java.util.Spliterator$OfInt lambda$codePoints$1()</text><rect fill="#F24D5C" height="6" style="stroke: #C82930; stroke-width: 1.0;" width="6" x="427.558" y="456.2695"/><text fill="#000000" font-family="sans-serif" font-size="11" lengthAdjust="spacingAndGlyphs" textLength="208" x="439.558" y="462.2705">java.util.Spliterator$OfInt lambda$chars$0()</text><!--link Object to String--><path d="M96.9054,226.37 C76.1419,251.38 57.3091,279.84 46.0582,310 C9.2319,408.72 0.9027,516.61 9.0391,622.76 " fill="none" id="Object-String" style="stroke: #A80036; stroke-width: 1.0;"/><polygon fill="none" points="91.6309,221.77,110.033,211.26,102.199,230.95,91.6309,221.77" style="stroke: #A80036; stroke-width: 1.0;"/><!--link Serializable to String--><path d="M117.599,433.69 C120.108,457.56 123.54,490.19 127.59,528.71 " fill="none" id="Serializable-String" style="stroke: #A80036; stroke-width: 1.0; stroke-dasharray: 7.0,7.0;"/><polygon fill="none" points="110.615,434.2,115.485,413.58,124.538,432.74,110.615,434.2" style="stroke: #A80036; stroke-width: 1.0;"/><!--link Comparable to String--><path d="M285.795,440.56 C283.366,463.66 280.202,493.75 276.53,528.68 " fill="none" id="Comparable-String" style="stroke: #A80036; stroke-width: 1.0; stroke-dasharray: 7.0,7.0;"/><polygon fill="none" points="278.838,439.79,287.891,420.63,292.761,441.25,278.838,439.79" style="stroke: #A80036; stroke-width: 1.0;"/><!--link CharSequence to String--><path d="M509.067,488.06 C480.042,558.86 438.42,660.4 395.151,765.95 " fill="none" id="CharSequence-String" style="stroke: #A80036; stroke-width: 1.0; stroke-dasharray: 7.0,7.0;"/><polygon fill="none" points="502.662,485.23,516.725,469.38,515.616,490.54,502.662,485.23" style="stroke: #A80036; stroke-width: 1.0;"/><!--link Object to Serializable--><path d="M154.141,269.17 C141.254,306.61 128.751,342.92 120.991,365.46 " fill="none" id="Object-Serializable" style="stroke: #A80036; stroke-width: 1.0;"/><polygon fill="none" points="147.555,266.8,160.685,250.17,160.793,271.36,147.555,266.8" style="stroke: #A80036; stroke-width: 1.0;"/><!--link Object to Comparable--><path d="M250.071,269.45 C261.654,303.1 272.918,335.81 280.696,358.4 " fill="none" id="Object-Comparable" style="stroke: #A80036; stroke-width: 1.0;"/><polygon fill="none" points="243.324,271.36,243.432,250.17,256.561,266.8,243.324,271.36" style="stroke: #A80036; stroke-width: 1.0;"/><!--link Object to CharSequence--><path d="M310.397,210.71 C352.878,242.35 401.457,278.54 443.65,309.98 " fill="none" id="Object-CharSequence" style="stroke: #A80036; stroke-width: 1.0;"/><polygon fill="none" points="305.994,216.16,294.137,198.59,314.357,204.93,305.994,216.16" style="stroke: #A80036; stroke-width: 1.0;"/></g></svg>