<?xml version="1.0" encoding="UTF-8" standalone="no"?><svg xmlns="http://www.w3.org/2000/svg" xmlns:xlink="http://www.w3.org/1999/xlink" contentScriptType="application/ecmascript" contentStyleType="text/css" height="570px" preserveAspectRatio="none" style="width:3307px;height:570px;" version="1.1" viewBox="0 0 3307 570" width="3307px" zoomAndPan="magnify"><defs><filter height="300%" id="fyppx5bzgjahh" width="300%" x="-1" y="-1"><feGaussianBlur result="blurOut" stdDeviation="2.0"/><feColorMatrix in="blurOut" result="blurOut2" type="matrix" values="0 0 0 0 0 0 0 0 0 0 0 0 0 0 0 0 0 0 .4 0"/><feOffset dx="4.0" dy="4.0" in="blurOut2" result="blurOut3"/><feBlend in="SourceGraphic" in2="blurOut3" mode="normal"/></filter></defs><g><!--cluster ourStuff--><polygon fill="#FFFFFF" filter="url(#fyppx5bzgjahh)" points="2127.5,24.5,2190.5,24.5,2197.5,48.1094,2730.5,48.1094,2730.5,513.5,2127.5,513.5,2127.5,24.5" style="stroke: #000000; stroke-width: 1.5;"/><line style="stroke: #000000; stroke-width: 1.5;" x1="2127.5" x2="2197.5" y1="48.1094" y2="48.1094"/><text fill="#000000" font-family="sans-serif" font-size="14" font-weight="bold" lengthAdjust="spacingAndGlyphs" textLength="57" x="2131.5" y="41.0332">ourStuff</text><!--cluster java.util--><polygon fill="#FFFFFF" filter="url(#fyppx5bzgjahh)" points="2754.5,413.5,2815.5,413.5,2822.5,437.1094,3165.5,437.1094,3165.5,513.5,2754.5,513.5,2754.5,413.5" style="stroke: #000000; stroke-width: 1.5;"/><line style="stroke: #000000; stroke-width: 1.5;" x1="2754.5" x2="2822.5" y1="437.1094" y2="437.1094"/><text fill="#000000" font-family="sans-serif" font-size="14" font-weight="bold" lengthAdjust="spacingAndGlyphs" textLength="55" x="2758.5" y="430.0332">java.util</text><!--cluster soot--><polygon fill="#FFFFFF" filter="url(#fyppx5bzgjahh)" points="3051.5,208.5,3088.5,208.5,3095.5,232.1094,3173.5,232.1094,3173.5,308.5,3051.5,308.5,3051.5,208.5" style="stroke: #000000; stroke-width: 1.5;"/><line style="stroke: #000000; stroke-width: 1.5;" x1="3051.5" x2="3095.5" y1="232.1094" y2="232.1094"/><text fill="#000000" font-family="sans-serif" font-size="14" font-weight="bold" lengthAdjust="spacingAndGlyphs" textLength="31" x="3055.5" y="225.0332">soot</text><!--cluster java.lang--><polygon fill="#FFFFFF" filter="url(#fyppx5bzgjahh)" points="3189.5,413.5,3258.5,413.5,3265.5,437.1094,3285.5,437.1094,3285.5,513.5,3189.5,513.5,3189.5,413.5" style="stroke: #000000; stroke-width: 1.5;"/><line style="stroke: #000000; stroke-width: 1.5;" x1="3189.5" x2="3265.5" y1="437.1094" y2="437.1094"/><text fill="#000000" font-family="sans-serif" font-size="14" font-weight="bold" lengthAdjust="spacingAndGlyphs" textLength="63" x="3193.5" y="430.0332">java.lang</text><!--class ourStuff.AbstractAnalyzer--><rect fill="#FEFECE" filter="url(#fyppx5bzgjahh)" height="48" id="ourStuff.AbstractAnalyzer" style="stroke: #A80036; stroke-width: 1.5;" width="121" x="2314" y="244.5"/><ellipse cx="2329" cy="260.5" fill="#ADD1B2" rx="11" ry="11" style="stroke: #A80036; stroke-width: 1.0;"/><path d="M2331.7656,256.375 Q2331.9219,256.1563 2332.1094,256.0469 Q2332.2969,255.9375 2332.5156,255.9375 Q2332.8906,255.9375 2333.125,256.1953 Q2333.3594,256.4531 2333.3594,257.0625 L2333.3594,258.5156 Q2333.3594,259.125 2333.125,259.3906 Q2332.8906,259.6563 2332.5156,259.6563 Q2332.1719,259.6563 2331.9688,259.4531 Q2331.7656,259.2656 2331.6563,258.75 Q2331.6094,258.3906 2331.4219,258.2031 Q2331.0938,257.8281 2330.4844,257.6094 Q2329.875,257.3906 2329.25,257.3906 Q2328.4844,257.3906 2327.8516,257.7188 Q2327.2188,258.0469 2326.7266,258.7969 Q2326.2344,259.5469 2326.2344,260.5781 L2326.2344,261.6719 Q2326.2344,262.9063 2327.125,263.7266 Q2328.0156,264.5469 2329.6094,264.5469 Q2330.5469,264.5469 2331.2031,264.2969 Q2331.5938,264.1406 2332.0156,263.7031 Q2332.2813,263.4375 2332.4297,263.3594 Q2332.5781,263.2813 2332.7813,263.2813 Q2333.1094,263.2813 2333.3672,263.5391 Q2333.625,263.7969 2333.625,264.1406 Q2333.625,264.4844 2333.2813,264.8906 Q2332.7813,265.4688 2331.9844,265.7969 Q2330.9063,266.25 2329.6094,266.25 Q2328.0938,266.25 2326.8906,265.625 Q2325.9063,265.125 2325.2188,264.0547 Q2324.5313,262.9844 2324.5313,261.7031 L2324.5313,260.5469 Q2324.5313,259.2188 2325.1484,258.0703 Q2325.7656,256.9219 2326.8594,256.3047 Q2327.9531,255.6875 2329.1875,255.6875 Q2329.9219,255.6875 2330.5703,255.8516 Q2331.2188,256.0156 2331.7656,256.375 Z "/><text fill="#000000" font-family="sans-serif" font-size="12" lengthAdjust="spacingAndGlyphs" textLength="89" x="2343" y="265.4102">AbstractAnalyzer</text><line style="stroke: #A80036; stroke-width: 1.5;" x1="2315" x2="2434" y1="276.5" y2="276.5"/><line style="stroke: #A80036; stroke-width: 1.5;" x1="2315" x2="2434" y1="284.5" y2="284.5"/><!--class ourStuff.Filter--><rect fill="#FEFECE" filter="url(#fyppx5bzgjahh)" height="48" id="ourStuff.Filter" style="stroke: #A80036; stroke-width: 1.5;" width="59" x="2345" y="449.5"/><ellipse cx="2360" cy="465.5" fill="#ADD1B2" rx="11" ry="11" style="stroke: #A80036; stroke-width: 1.0;"/><path d="M2362.7656,461.375 Q2362.9219,461.1563 2363.1094,461.0469 Q2363.2969,460.9375 2363.5156,460.9375 Q2363.8906,460.9375 2364.125,461.1953 Q2364.3594,461.4531 2364.3594,462.0625 L2364.3594,463.5156 Q2364.3594,464.125 2364.125,464.3906 Q2363.8906,464.6563 2363.5156,464.6563 Q2363.1719,464.6563 2362.9688,464.4531 Q2362.7656,464.2656 2362.6563,463.75 Q2362.6094,463.3906 2362.4219,463.2031 Q2362.0938,462.8281 2361.4844,462.6094 Q2360.875,462.3906 2360.25,462.3906 Q2359.4844,462.3906 2358.8516,462.7188 Q2358.2188,463.0469 2357.7266,463.7969 Q2357.2344,464.5469 2357.2344,465.5781 L2357.2344,466.6719 Q2357.2344,467.9063 2358.125,468.7266 Q2359.0156,469.5469 2360.6094,469.5469 Q2361.5469,469.5469 2362.2031,469.2969 Q2362.5938,469.1406 2363.0156,468.7031 Q2363.2813,468.4375 2363.4297,468.3594 Q2363.5781,468.2813 2363.7813,468.2813 Q2364.1094,468.2813 2364.3672,468.5391 Q2364.625,468.7969 2364.625,469.1406 Q2364.625,469.4844 2364.2813,469.8906 Q2363.7813,470.4688 2362.9844,470.7969 Q2361.9063,471.25 2360.6094,471.25 Q2359.0938,471.25 2357.8906,470.625 Q2356.9063,470.125 2356.2188,469.0547 Q2355.5313,467.9844 2355.5313,466.7031 L2355.5313,465.5469 Q2355.5313,464.2188 2356.1484,463.0703 Q2356.7656,461.9219 2357.8594,461.3047 Q2358.9531,460.6875 2360.1875,460.6875 Q2360.9219,460.6875 2361.5703,460.8516 Q2362.2188,461.0156 2362.7656,461.375 Z "/><text fill="#000000" font-family="sans-serif" font-size="12" lengthAdjust="spacingAndGlyphs" textLength="27" x="2374" y="470.4102">Filter</text><line style="stroke: #A80036; stroke-width: 1.5;" x1="2346" x2="2403" y1="481.5" y2="481.5"/><line style="stroke: #A80036; stroke-width: 1.5;" x1="2346" x2="2403" y1="489.5" y2="489.5"/><!--class ourStuff.AnalyzerChain--><rect fill="#FEFECE" filter="url(#fyppx5bzgjahh)" height="48" id="ourStuff.AnalyzerChain" style="stroke: #A80036; stroke-width: 1.5;" width="110" x="2415.5" y="60.5"/><ellipse cx="2430.5" cy="76.5" fill="#ADD1B2" rx="11" ry="11" style="stroke: #A80036; stroke-width: 1.0;"/><path d="M2433.2656,72.375 Q2433.4219,72.1563 2433.6094,72.0469 Q2433.7969,71.9375 2434.0156,71.9375 Q2434.3906,71.9375 2434.625,72.1953 Q2434.8594,72.4531 2434.8594,73.0625 L2434.8594,74.5156 Q2434.8594,75.125 2434.625,75.3906 Q2434.3906,75.6563 2434.0156,75.6563 Q2433.6719,75.6563 2433.4688,75.4531 Q2433.2656,75.2656 2433.1563,74.75 Q2433.1094,74.3906 2432.9219,74.2031 Q2432.5938,73.8281 2431.9844,73.6094 Q2431.375,73.3906 2430.75,73.3906 Q2429.9844,73.3906 2429.3516,73.7188 Q2428.7188,74.0469 2428.2266,74.7969 Q2427.7344,75.5469 2427.7344,76.5781 L2427.7344,77.6719 Q2427.7344,78.9063 2428.625,79.7266 Q2429.5156,80.5469 2431.1094,80.5469 Q2432.0469,80.5469 2432.7031,80.2969 Q2433.0938,80.1406 2433.5156,79.7031 Q2433.7813,79.4375 2433.9297,79.3594 Q2434.0781,79.2813 2434.2813,79.2813 Q2434.6094,79.2813 2434.8672,79.5391 Q2435.125,79.7969 2435.125,80.1406 Q2435.125,80.4844 2434.7813,80.8906 Q2434.2813,81.4688 2433.4844,81.7969 Q2432.4063,82.25 2431.1094,82.25 Q2429.5938,82.25 2428.3906,81.625 Q2427.4063,81.125 2426.7188,80.0547 Q2426.0313,78.9844 2426.0313,77.7031 L2426.0313,76.5469 Q2426.0313,75.2188 2426.6484,74.0703 Q2427.2656,72.9219 2428.3594,72.3047 Q2429.4531,71.6875 2430.6875,71.6875 Q2431.4219,71.6875 2432.0703,71.8516 Q2432.7188,72.0156 2433.2656,72.375 Z "/><text fill="#000000" font-family="sans-serif" font-size="12" lengthAdjust="spacingAndGlyphs" textLength="78" x="2444.5" y="81.4102">AnalyzerChain</text><line style="stroke: #A80036; stroke-width: 1.5;" x1="2416.5" x2="2524.5" y1="92.5" y2="92.5"/><line style="stroke: #A80036; stroke-width: 1.5;" x1="2416.5" x2="2524.5" y1="100.5" y2="100.5"/><!--class ourStuff.Data--><rect fill="#FEFECE" filter="url(#fyppx5bzgjahh)" height="48" id="ourStuff.Data" style="stroke: #A80036; stroke-width: 1.5;" width="58" x="2656.5" y="60.5"/><ellipse cx="2671.5" cy="76.5" fill="#ADD1B2" rx="11" ry="11" style="stroke: #A80036; stroke-width: 1.0;"/><path d="M2674.2656,72.375 Q2674.4219,72.1563 2674.6094,72.0469 Q2674.7969,71.9375 2675.0156,71.9375 Q2675.3906,71.9375 2675.625,72.1953 Q2675.8594,72.4531 2675.8594,73.0625 L2675.8594,74.5156 Q2675.8594,75.125 2675.625,75.3906 Q2675.3906,75.6563 2675.0156,75.6563 Q2674.6719,75.6563 2674.4688,75.4531 Q2674.2656,75.2656 2674.1563,74.75 Q2674.1094,74.3906 2673.9219,74.2031 Q2673.5938,73.8281 2672.9844,73.6094 Q2672.375,73.3906 2671.75,73.3906 Q2670.9844,73.3906 2670.3516,73.7188 Q2669.7188,74.0469 2669.2266,74.7969 Q2668.7344,75.5469 2668.7344,76.5781 L2668.7344,77.6719 Q2668.7344,78.9063 2669.625,79.7266 Q2670.5156,80.5469 2672.1094,80.5469 Q2673.0469,80.5469 2673.7031,80.2969 Q2674.0938,80.1406 2674.5156,79.7031 Q2674.7813,79.4375 2674.9297,79.3594 Q2675.0781,79.2813 2675.2813,79.2813 Q2675.6094,79.2813 2675.8672,79.5391 Q2676.125,79.7969 2676.125,80.1406 Q2676.125,80.4844 2675.7813,80.8906 Q2675.2813,81.4688 2674.4844,81.7969 Q2673.4063,82.25 2672.1094,82.25 Q2670.5938,82.25 2669.3906,81.625 Q2668.4063,81.125 2667.7188,80.0547 Q2667.0313,78.9844 2667.0313,77.7031 L2667.0313,76.5469 Q2667.0313,75.2188 2667.6484,74.0703 Q2668.2656,72.9219 2669.3594,72.3047 Q2670.4531,71.6875 2671.6875,71.6875 Q2672.4219,71.6875 2673.0703,71.8516 Q2673.7188,72.0156 2674.2656,72.375 Z "/><text fill="#000000" font-family="sans-serif" font-size="12" lengthAdjust="spacingAndGlyphs" textLength="26" x="2685.5" y="81.4102">Data</text><line style="stroke: #A80036; stroke-width: 1.5;" x1="2657.5" x2="2713.5" y1="92.5" y2="92.5"/><line style="stroke: #A80036; stroke-width: 1.5;" x1="2657.5" x2="2713.5" y1="100.5" y2="100.5"/><!--class ourStuff.Relationship--><rect fill="#FEFECE" filter="url(#fyppx5bzgjahh)" height="48" id="ourStuff.Relationship" style="stroke: #A80036; stroke-width: 1.5;" width="102" x="2612.5" y="244.5"/><ellipse cx="2627.5" cy="260.5" fill="#ADD1B2" rx="11" ry="11" style="stroke: #A80036; stroke-width: 1.0;"/><path d="M2630.2656,256.375 Q2630.4219,256.1563 2630.6094,256.0469 Q2630.7969,255.9375 2631.0156,255.9375 Q2631.3906,255.9375 2631.625,256.1953 Q2631.8594,256.4531 2631.8594,257.0625 L2631.8594,258.5156 Q2631.8594,259.125 2631.625,259.3906 Q2631.3906,259.6563 2631.0156,259.6563 Q2630.6719,259.6563 2630.4688,259.4531 Q2630.2656,259.2656 2630.1563,258.75 Q2630.1094,258.3906 2629.9219,258.2031 Q2629.5938,257.8281 2628.9844,257.6094 Q2628.375,257.3906 2627.75,257.3906 Q2626.9844,257.3906 2626.3516,257.7188 Q2625.7188,258.0469 2625.2266,258.7969 Q2624.7344,259.5469 2624.7344,260.5781 L2624.7344,261.6719 Q2624.7344,262.9063 2625.625,263.7266 Q2626.5156,264.5469 2628.1094,264.5469 Q2629.0469,264.5469 2629.7031,264.2969 Q2630.0938,264.1406 2630.5156,263.7031 Q2630.7813,263.4375 2630.9297,263.3594 Q2631.0781,263.2813 2631.2813,263.2813 Q2631.6094,263.2813 2631.8672,263.5391 Q2632.125,263.7969 2632.125,264.1406 Q2632.125,264.4844 2631.7813,264.8906 Q2631.2813,265.4688 2630.4844,265.7969 Q2629.4063,266.25 2628.1094,266.25 Q2626.5938,266.25 2625.3906,265.625 Q2624.4063,265.125 2623.7188,264.0547 Q2623.0313,262.9844 2623.0313,261.7031 L2623.0313,260.5469 Q2623.0313,259.2188 2623.6484,258.0703 Q2624.2656,256.9219 2625.3594,256.3047 Q2626.4531,255.6875 2627.6875,255.6875 Q2628.4219,255.6875 2629.0703,255.8516 Q2629.7188,256.0156 2630.2656,256.375 Z "/><text fill="#000000" font-family="sans-serif" font-size="12" lengthAdjust="spacingAndGlyphs" textLength="70" x="2641.5" y="265.4102">Relationship</text><line style="stroke: #A80036; stroke-width: 1.5;" x1="2613.5" x2="2713.5" y1="276.5" y2="276.5"/><line style="stroke: #A80036; stroke-width: 1.5;" x1="2613.5" x2="2713.5" y1="284.5" y2="284.5"/><!--class ourStuff.Preprocessor--><rect fill="#FEFECE" filter="url(#fyppx5bzgjahh)" height="48" id="ourStuff.Preprocessor" style="stroke: #A80036; stroke-width: 1.5;" width="107" x="2470" y="244.5"/><ellipse cx="2485" cy="260.5" fill="#ADD1B2" rx="11" ry="11" style="stroke: #A80036; stroke-width: 1.0;"/><path d="M2487.7656,256.375 Q2487.9219,256.1563 2488.1094,256.0469 Q2488.2969,255.9375 2488.5156,255.9375 Q2488.8906,255.9375 2489.125,256.1953 Q2489.3594,256.4531 2489.3594,257.0625 L2489.3594,258.5156 Q2489.3594,259.125 2489.125,259.3906 Q2488.8906,259.6563 2488.5156,259.6563 Q2488.1719,259.6563 2487.9688,259.4531 Q2487.7656,259.2656 2487.6563,258.75 Q2487.6094,258.3906 2487.4219,258.2031 Q2487.0938,257.8281 2486.4844,257.6094 Q2485.875,257.3906 2485.25,257.3906 Q2484.4844,257.3906 2483.8516,257.7188 Q2483.2188,258.0469 2482.7266,258.7969 Q2482.2344,259.5469 2482.2344,260.5781 L2482.2344,261.6719 Q2482.2344,262.9063 2483.125,263.7266 Q2484.0156,264.5469 2485.6094,264.5469 Q2486.5469,264.5469 2487.2031,264.2969 Q2487.5938,264.1406 2488.0156,263.7031 Q2488.2813,263.4375 2488.4297,263.3594 Q2488.5781,263.2813 2488.7813,263.2813 Q2489.1094,263.2813 2489.3672,263.5391 Q2489.625,263.7969 2489.625,264.1406 Q2489.625,264.4844 2489.2813,264.8906 Q2488.7813,265.4688 2487.9844,265.7969 Q2486.9063,266.25 2485.6094,266.25 Q2484.0938,266.25 2482.8906,265.625 Q2481.9063,265.125 2481.2188,264.0547 Q2480.5313,262.9844 2480.5313,261.7031 L2480.5313,260.5469 Q2480.5313,259.2188 2481.1484,258.0703 Q2481.7656,256.9219 2482.8594,256.3047 Q2483.9531,255.6875 2485.1875,255.6875 Q2485.9219,255.6875 2486.5703,255.8516 Q2487.2188,256.0156 2487.7656,256.375 Z "/><text fill="#000000" font-family="sans-serif" font-size="12" lengthAdjust="spacingAndGlyphs" textLength="75" x="2499" y="265.4102">Preprocessor</text><line style="stroke: #A80036; stroke-width: 1.5;" x1="2471" x2="2576" y1="276.5" y2="276.5"/><line style="stroke: #A80036; stroke-width: 1.5;" x1="2471" x2="2576" y1="284.5" y2="284.5"/><!--class ourStuff.SootClassAnalyzer--><rect fill="#FEFECE" filter="url(#fyppx5bzgjahh)" height="48" id="ourStuff.SootClassAnalyzer" style="stroke: #A80036; stroke-width: 1.5;" width="135" x="2144" y="244.5"/><ellipse cx="2159" cy="260.5" fill="#ADD1B2" rx="11" ry="11" style="stroke: #A80036; stroke-width: 1.0;"/><path d="M2161.7656,256.375 Q2161.9219,256.1563 2162.1094,256.0469 Q2162.2969,255.9375 2162.5156,255.9375 Q2162.8906,255.9375 2163.125,256.1953 Q2163.3594,256.4531 2163.3594,257.0625 L2163.3594,258.5156 Q2163.3594,259.125 2163.125,259.3906 Q2162.8906,259.6563 2162.5156,259.6563 Q2162.1719,259.6563 2161.9688,259.4531 Q2161.7656,259.2656 2161.6563,258.75 Q2161.6094,258.3906 2161.4219,258.2031 Q2161.0938,257.8281 2160.4844,257.6094 Q2159.875,257.3906 2159.25,257.3906 Q2158.4844,257.3906 2157.8516,257.7188 Q2157.2188,258.0469 2156.7266,258.7969 Q2156.2344,259.5469 2156.2344,260.5781 L2156.2344,261.6719 Q2156.2344,262.9063 2157.125,263.7266 Q2158.0156,264.5469 2159.6094,264.5469 Q2160.5469,264.5469 2161.2031,264.2969 Q2161.5938,264.1406 2162.0156,263.7031 Q2162.2813,263.4375 2162.4297,263.3594 Q2162.5781,263.2813 2162.7813,263.2813 Q2163.1094,263.2813 2163.3672,263.5391 Q2163.625,263.7969 2163.625,264.1406 Q2163.625,264.4844 2163.2813,264.8906 Q2162.7813,265.4688 2161.9844,265.7969 Q2160.9063,266.25 2159.6094,266.25 Q2158.0938,266.25 2156.8906,265.625 Q2155.9063,265.125 2155.2188,264.0547 Q2154.5313,262.9844 2154.5313,261.7031 L2154.5313,260.5469 Q2154.5313,259.2188 2155.1484,258.0703 Q2155.7656,256.9219 2156.8594,256.3047 Q2157.9531,255.6875 2159.1875,255.6875 Q2159.9219,255.6875 2160.5703,255.8516 Q2161.2188,256.0156 2161.7656,256.375 Z "/><text fill="#000000" font-family="sans-serif" font-size="12" lengthAdjust="spacingAndGlyphs" textLength="103" x="2173" y="265.4102">SootClassAnalyzer</text><line style="stroke: #A80036; stroke-width: 1.5;" x1="2145" x2="2278" y1="276.5" y2="276.5"/><line style="stroke: #A80036; stroke-width: 1.5;" x1="2145" x2="2278" y1="284.5" y2="284.5"/><!--class java.util.ArrayList--><rect fill="#FEFECE" filter="url(#fyppx5bzgjahh)" height="48" id="java.util.ArrayList" style="stroke: #A80036; stroke-width: 1.5;" width="79" x="2858" y="449.5"/><ellipse cx="2873" cy="465.5" fill="#ADD1B2" rx="11" ry="11" style="stroke: #A80036; stroke-width: 1.0;"/><path d="M2875.7656,461.375 Q2875.9219,461.1563 2876.1094,461.0469 Q2876.2969,460.9375 2876.5156,460.9375 Q2876.8906,460.9375 2877.125,461.1953 Q2877.3594,461.4531 2877.3594,462.0625 L2877.3594,463.5156 Q2877.3594,464.125 2877.125,464.3906 Q2876.8906,464.6563 2876.5156,464.6563 Q2876.1719,464.6563 2875.9688,464.4531 Q2875.7656,464.2656 2875.6563,463.75 Q2875.6094,463.3906 2875.4219,463.2031 Q2875.0938,462.8281 2874.4844,462.6094 Q2873.875,462.3906 2873.25,462.3906 Q2872.4844,462.3906 2871.8516,462.7188 Q2871.2188,463.0469 2870.7266,463.7969 Q2870.2344,464.5469 2870.2344,465.5781 L2870.2344,466.6719 Q2870.2344,467.9063 2871.125,468.7266 Q2872.0156,469.5469 2873.6094,469.5469 Q2874.5469,469.5469 2875.2031,469.2969 Q2875.5938,469.1406 2876.0156,468.7031 Q2876.2813,468.4375 2876.4297,468.3594 Q2876.5781,468.2813 2876.7813,468.2813 Q2877.1094,468.2813 2877.3672,468.5391 Q2877.625,468.7969 2877.625,469.1406 Q2877.625,469.4844 2877.2813,469.8906 Q2876.7813,470.4688 2875.9844,470.7969 Q2874.9063,471.25 2873.6094,471.25 Q2872.0938,471.25 2870.8906,470.625 Q2869.9063,470.125 2869.2188,469.0547 Q2868.5313,467.9844 2868.5313,466.7031 L2868.5313,465.5469 Q2868.5313,464.2188 2869.1484,463.0703 Q2869.7656,461.9219 2870.8594,461.3047 Q2871.9531,460.6875 2873.1875,460.6875 Q2873.9219,460.6875 2874.5703,460.8516 Q2875.2188,461.0156 2875.7656,461.375 Z "/><text fill="#000000" font-family="sans-serif" font-size="12" lengthAdjust="spacingAndGlyphs" textLength="47" x="2887" y="470.4102">ArrayList</text><line style="stroke: #A80036; stroke-width: 1.5;" x1="2859" x2="2936" y1="481.5" y2="481.5"/><line style="stroke: #A80036; stroke-width: 1.5;" x1="2859" x2="2936" y1="489.5" y2="489.5"/><!--class java.util.List--><rect fill="#FEFECE" filter="url(#fyppx5bzgjahh)" height="48" id="java.util.List" style="stroke: #A80036; stroke-width: 1.5;" width="52" x="2770.5" y="449.5"/><ellipse cx="2785.5" cy="465.5" fill="#ADD1B2" rx="11" ry="11" style="stroke: #A80036; stroke-width: 1.0;"/><path d="M2788.2656,461.375 Q2788.4219,461.1563 2788.6094,461.0469 Q2788.7969,460.9375 2789.0156,460.9375 Q2789.3906,460.9375 2789.625,461.1953 Q2789.8594,461.4531 2789.8594,462.0625 L2789.8594,463.5156 Q2789.8594,464.125 2789.625,464.3906 Q2789.3906,464.6563 2789.0156,464.6563 Q2788.6719,464.6563 2788.4688,464.4531 Q2788.2656,464.2656 2788.1563,463.75 Q2788.1094,463.3906 2787.9219,463.2031 Q2787.5938,462.8281 2786.9844,462.6094 Q2786.375,462.3906 2785.75,462.3906 Q2784.9844,462.3906 2784.3516,462.7188 Q2783.7188,463.0469 2783.2266,463.7969 Q2782.7344,464.5469 2782.7344,465.5781 L2782.7344,466.6719 Q2782.7344,467.9063 2783.625,468.7266 Q2784.5156,469.5469 2786.1094,469.5469 Q2787.0469,469.5469 2787.7031,469.2969 Q2788.0938,469.1406 2788.5156,468.7031 Q2788.7813,468.4375 2788.9297,468.3594 Q2789.0781,468.2813 2789.2813,468.2813 Q2789.6094,468.2813 2789.8672,468.5391 Q2790.125,468.7969 2790.125,469.1406 Q2790.125,469.4844 2789.7813,469.8906 Q2789.2813,470.4688 2788.4844,470.7969 Q2787.4063,471.25 2786.1094,471.25 Q2784.5938,471.25 2783.3906,470.625 Q2782.4063,470.125 2781.7188,469.0547 Q2781.0313,467.9844 2781.0313,466.7031 L2781.0313,465.5469 Q2781.0313,464.2188 2781.6484,463.0703 Q2782.2656,461.9219 2783.3594,461.3047 Q2784.4531,460.6875 2785.6875,460.6875 Q2786.4219,460.6875 2787.0703,460.8516 Q2787.7188,461.0156 2788.2656,461.375 Z "/><text fill="#000000" font-family="sans-serif" font-size="12" lengthAdjust="spacingAndGlyphs" textLength="20" x="2799.5" y="470.4102">List</text><line style="stroke: #A80036; stroke-width: 1.5;" x1="2771.5" x2="2821.5" y1="481.5" y2="481.5"/><line style="stroke: #A80036; stroke-width: 1.5;" x1="2771.5" x2="2821.5" y1="489.5" y2="489.5"/><!--class java.util.Collection--><rect fill="#FEFECE" filter="url(#fyppx5bzgjahh)" height="48" id="java.util.Collection" style="stroke: #A80036; stroke-width: 1.5;" width="87" x="3062" y="449.5"/><ellipse cx="3077" cy="465.5" fill="#ADD1B2" rx="11" ry="11" style="stroke: #A80036; stroke-width: 1.0;"/><path d="M3079.7656,461.375 Q3079.9219,461.1563 3080.1094,461.0469 Q3080.2969,460.9375 3080.5156,460.9375 Q3080.8906,460.9375 3081.125,461.1953 Q3081.3594,461.4531 3081.3594,462.0625 L3081.3594,463.5156 Q3081.3594,464.125 3081.125,464.3906 Q3080.8906,464.6563 3080.5156,464.6563 Q3080.1719,464.6563 3079.9688,464.4531 Q3079.7656,464.2656 3079.6563,463.75 Q3079.6094,463.3906 3079.4219,463.2031 Q3079.0938,462.8281 3078.4844,462.6094 Q3077.875,462.3906 3077.25,462.3906 Q3076.4844,462.3906 3075.8516,462.7188 Q3075.2188,463.0469 3074.7266,463.7969 Q3074.2344,464.5469 3074.2344,465.5781 L3074.2344,466.6719 Q3074.2344,467.9063 3075.125,468.7266 Q3076.0156,469.5469 3077.6094,469.5469 Q3078.5469,469.5469 3079.2031,469.2969 Q3079.5938,469.1406 3080.0156,468.7031 Q3080.2813,468.4375 3080.4297,468.3594 Q3080.5781,468.2813 3080.7813,468.2813 Q3081.1094,468.2813 3081.3672,468.5391 Q3081.625,468.7969 3081.625,469.1406 Q3081.625,469.4844 3081.2813,469.8906 Q3080.7813,470.4688 3079.9844,470.7969 Q3078.9063,471.25 3077.6094,471.25 Q3076.0938,471.25 3074.8906,470.625 Q3073.9063,470.125 3073.2188,469.0547 Q3072.5313,467.9844 3072.5313,466.7031 L3072.5313,465.5469 Q3072.5313,464.2188 3073.1484,463.0703 Q3073.7656,461.9219 3074.8594,461.3047 Q3075.9531,460.6875 3077.1875,460.6875 Q3077.9219,460.6875 3078.5703,460.8516 Q3079.2188,461.0156 3079.7656,461.375 Z "/><text fill="#000000" font-family="sans-serif" font-size="12" lengthAdjust="spacingAndGlyphs" textLength="55" x="3091" y="470.4102">Collection</text><line style="stroke: #A80036; stroke-width: 1.5;" x1="3063" x2="3148" y1="481.5" y2="481.5"/><line style="stroke: #A80036; stroke-width: 1.5;" x1="3063" x2="3148" y1="489.5" y2="489.5"/><!--class java.util.Map--><rect fill="#FEFECE" filter="url(#fyppx5bzgjahh)" height="48" id="java.util.Map" style="stroke: #A80036; stroke-width: 1.5;" width="55" x="2972" y="449.5"/><ellipse cx="2987" cy="465.5" fill="#ADD1B2" rx="11" ry="11" style="stroke: #A80036; stroke-width: 1.0;"/><path d="M2989.7656,461.375 Q2989.9219,461.1563 2990.1094,461.0469 Q2990.2969,460.9375 2990.5156,460.9375 Q2990.8906,460.9375 2991.125,461.1953 Q2991.3594,461.4531 2991.3594,462.0625 L2991.3594,463.5156 Q2991.3594,464.125 2991.125,464.3906 Q2990.8906,464.6563 2990.5156,464.6563 Q2990.1719,464.6563 2989.9688,464.4531 Q2989.7656,464.2656 2989.6563,463.75 Q2989.6094,463.3906 2989.4219,463.2031 Q2989.0938,462.8281 2988.4844,462.6094 Q2987.875,462.3906 2987.25,462.3906 Q2986.4844,462.3906 2985.8516,462.7188 Q2985.2188,463.0469 2984.7266,463.7969 Q2984.2344,464.5469 2984.2344,465.5781 L2984.2344,466.6719 Q2984.2344,467.9063 2985.125,468.7266 Q2986.0156,469.5469 2987.6094,469.5469 Q2988.5469,469.5469 2989.2031,469.2969 Q2989.5938,469.1406 2990.0156,468.7031 Q2990.2813,468.4375 2990.4297,468.3594 Q2990.5781,468.2813 2990.7813,468.2813 Q2991.1094,468.2813 2991.3672,468.5391 Q2991.625,468.7969 2991.625,469.1406 Q2991.625,469.4844 2991.2813,469.8906 Q2990.7813,470.4688 2989.9844,470.7969 Q2988.9063,471.25 2987.6094,471.25 Q2986.0938,471.25 2984.8906,470.625 Q2983.9063,470.125 2983.2188,469.0547 Q2982.5313,467.9844 2982.5313,466.7031 L2982.5313,465.5469 Q2982.5313,464.2188 2983.1484,463.0703 Q2983.7656,461.9219 2984.8594,461.3047 Q2985.9531,460.6875 2987.1875,460.6875 Q2987.9219,460.6875 2988.5703,460.8516 Q2989.2188,461.0156 2989.7656,461.375 Z "/><text fill="#000000" font-family="sans-serif" font-size="12" lengthAdjust="spacingAndGlyphs" textLength="23" x="3001" y="470.4102">Map</text><line style="stroke: #A80036; stroke-width: 1.5;" x1="2973" x2="3026" y1="481.5" y2="481.5"/><line style="stroke: #A80036; stroke-width: 1.5;" x1="2973" x2="3026" y1="489.5" y2="489.5"/><!--class soot.SootClass--><rect fill="#FEFECE" filter="url(#fyppx5bzgjahh)" height="48" id="soot.SootClass" style="stroke: #A80036; stroke-width: 1.5;" width="90" x="3067.5" y="244.5"/><ellipse cx="3082.5" cy="260.5" fill="#ADD1B2" rx="11" ry="11" style="stroke: #A80036; stroke-width: 1.0;"/><path d="M3085.2656,256.375 Q3085.4219,256.1563 3085.6094,256.0469 Q3085.7969,255.9375 3086.0156,255.9375 Q3086.3906,255.9375 3086.625,256.1953 Q3086.8594,256.4531 3086.8594,257.0625 L3086.8594,258.5156 Q3086.8594,259.125 3086.625,259.3906 Q3086.3906,259.6563 3086.0156,259.6563 Q3085.6719,259.6563 3085.4688,259.4531 Q3085.2656,259.2656 3085.1563,258.75 Q3085.1094,258.3906 3084.9219,258.2031 Q3084.5938,257.8281 3083.9844,257.6094 Q3083.375,257.3906 3082.75,257.3906 Q3081.9844,257.3906 3081.3516,257.7188 Q3080.7188,258.0469 3080.2266,258.7969 Q3079.7344,259.5469 3079.7344,260.5781 L3079.7344,261.6719 Q3079.7344,262.9063 3080.625,263.7266 Q3081.5156,264.5469 3083.1094,264.5469 Q3084.0469,264.5469 3084.7031,264.2969 Q3085.0938,264.1406 3085.5156,263.7031 Q3085.7813,263.4375 3085.9297,263.3594 Q3086.0781,263.2813 3086.2813,263.2813 Q3086.6094,263.2813 3086.8672,263.5391 Q3087.125,263.7969 3087.125,264.1406 Q3087.125,264.4844 3086.7813,264.8906 Q3086.2813,265.4688 3085.4844,265.7969 Q3084.4063,266.25 3083.1094,266.25 Q3081.5938,266.25 3080.3906,265.625 Q3079.4063,265.125 3078.7188,264.0547 Q3078.0313,262.9844 3078.0313,261.7031 L3078.0313,260.5469 Q3078.0313,259.2188 3078.6484,258.0703 Q3079.2656,256.9219 3080.3594,256.3047 Q3081.4531,255.6875 3082.6875,255.6875 Q3083.4219,255.6875 3084.0703,255.8516 Q3084.7188,256.0156 3085.2656,256.375 Z "/><text fill="#000000" font-family="sans-serif" font-size="12" lengthAdjust="spacingAndGlyphs" textLength="58" x="3096.5" y="265.4102">SootClass</text><line style="stroke: #A80036; stroke-width: 1.5;" x1="3068.5" x2="3156.5" y1="276.5" y2="276.5"/><line style="stroke: #A80036; stroke-width: 1.5;" x1="3068.5" x2="3156.5" y1="284.5" y2="284.5"/><!--class java.lang.String--><rect fill="#FEFECE" filter="url(#fyppx5bzgjahh)" height="48" id="java.lang.String" style="stroke: #A80036; stroke-width: 1.5;" width="64" x="3205.5" y="449.5"/><ellipse cx="3220.5" cy="465.5" fill="#ADD1B2" rx="11" ry="11" style="stroke: #A80036; stroke-width: 1.0;"/><path d="M3223.2656,461.375 Q3223.4219,461.1563 3223.6094,461.0469 Q3223.7969,460.9375 3224.0156,460.9375 Q3224.3906,460.9375 3224.625,461.1953 Q3224.8594,461.4531 3224.8594,462.0625 L3224.8594,463.5156 Q3224.8594,464.125 3224.625,464.3906 Q3224.3906,464.6563 3224.0156,464.6563 Q3223.6719,464.6563 3223.4688,464.4531 Q3223.2656,464.2656 3223.1563,463.75 Q3223.1094,463.3906 3222.9219,463.2031 Q3222.5938,462.8281 3221.9844,462.6094 Q3221.375,462.3906 3220.75,462.3906 Q3219.9844,462.3906 3219.3516,462.7188 Q3218.7188,463.0469 3218.2266,463.7969 Q3217.7344,464.5469 3217.7344,465.5781 L3217.7344,466.6719 Q3217.7344,467.9063 3218.625,468.7266 Q3219.5156,469.5469 3221.1094,469.5469 Q3222.0469,469.5469 3222.7031,469.2969 Q3223.0938,469.1406 3223.5156,468.7031 Q3223.7813,468.4375 3223.9297,468.3594 Q3224.0781,468.2813 3224.2813,468.2813 Q3224.6094,468.2813 3224.8672,468.5391 Q3225.125,468.7969 3225.125,469.1406 Q3225.125,469.4844 3224.7813,469.8906 Q3224.2813,470.4688 3223.4844,470.7969 Q3222.4063,471.25 3221.1094,471.25 Q3219.5938,471.25 3218.3906,470.625 Q3217.4063,470.125 3216.7188,469.0547 Q3216.0313,467.9844 3216.0313,466.7031 L3216.0313,465.5469 Q3216.0313,464.2188 3216.6484,463.0703 Q3217.2656,461.9219 3218.3594,461.3047 Q3219.4531,460.6875 3220.6875,460.6875 Q3221.4219,460.6875 3222.0703,460.8516 Q3222.7188,461.0156 3223.2656,461.375 Z "/><text fill="#000000" font-family="sans-serif" font-size="12" lengthAdjust="spacingAndGlyphs" textLength="32" x="3234.5" y="470.4102">String</text><line style="stroke: #A80036; stroke-width: 1.5;" x1="3206.5" x2="3268.5" y1="481.5" y2="481.5"/><line style="stroke: #A80036; stroke-width: 1.5;" x1="3206.5" x2="3268.5" y1="489.5" y2="489.5"/><!--class App--><rect fill="#FEFECE" filter="url(#fyppx5bzgjahh)" height="75.6719" id="App" style="stroke: #A80036; stroke-width: 1.5;" width="159" x="11" y="46.5"/><ellipse cx="75.75" cy="62.5" fill="#ADD1B2" rx="11" ry="11" style="stroke: #A80036; stroke-width: 1.0;"/><path d="M78.5156,58.375 Q78.6719,58.1563 78.8594,58.0469 Q79.0469,57.9375 79.2656,57.9375 Q79.6406,57.9375 79.875,58.1953 Q80.1094,58.4531 80.1094,59.0625 L80.1094,60.5156 Q80.1094,61.125 79.875,61.3906 Q79.6406,61.6563 79.2656,61.6563 Q78.9219,61.6563 78.7188,61.4531 Q78.5156,61.2656 78.4063,60.75 Q78.3594,60.3906 78.1719,60.2031 Q77.8438,59.8281 77.2344,59.6094 Q76.625,59.3906 76,59.3906 Q75.2344,59.3906 74.6016,59.7188 Q73.9688,60.0469 73.4766,60.7969 Q72.9844,61.5469 72.9844,62.5781 L72.9844,63.6719 Q72.9844,64.9063 73.875,65.7266 Q74.7656,66.5469 76.3594,66.5469 Q77.2969,66.5469 77.9531,66.2969 Q78.3438,66.1406 78.7656,65.7031 Q79.0313,65.4375 79.1797,65.3594 Q79.3281,65.2813 79.5313,65.2813 Q79.8594,65.2813 80.1172,65.5391 Q80.375,65.7969 80.375,66.1406 Q80.375,66.4844 80.0313,66.8906 Q79.5313,67.4688 78.7344,67.7969 Q77.6563,68.25 76.3594,68.25 Q74.8438,68.25 73.6406,67.625 Q72.6563,67.125 71.9688,66.0547 Q71.2813,64.9844 71.2813,63.7031 L71.2813,62.5469 Q71.2813,61.2188 71.8984,60.0703 Q72.5156,58.9219 73.6094,58.3047 Q74.7031,57.6875 75.9375,57.6875 Q76.6719,57.6875 77.3203,57.8516 Q77.9688,58.0156 78.5156,58.375 Z "/><text fill="#000000" font-family="sans-serif" font-size="12" lengthAdjust="spacingAndGlyphs" textLength="21" x="96.25" y="67.4102">App</text><line style="stroke: #A80036; stroke-width: 1.5;" x1="12" x2="169" y1="78.5" y2="78.5"/><line style="stroke: #A80036; stroke-width: 1.5;" x1="12" x2="169" y1="86.5" y2="86.5"/><ellipse cx="22" cy="98.918" fill="#84BE84" rx="3" ry="3" style="stroke: #038048; stroke-width: 1.0;"/><text fill="#000000" font-family="sans-serif" font-size="11" lengthAdjust="spacingAndGlyphs" textLength="56" x="31" y="101.9189">void &lt;init&gt;()</text><ellipse cx="22" cy="112.7539" fill="#84BE84" rx="3" ry="3" style="stroke: #038048; stroke-width: 1.0;"/><text fill="#000000" font-family="sans-serif" font-size="11" lengthAdjust="spacingAndGlyphs" text-decoration="underline" textLength="133" x="31" y="115.7549">void main(java.lang.String[])</text><line style="stroke: #000000; stroke-width: 1.0;" x1="31" x2="164" y1="117.7549" y2="117.7549"/><!--class AbstractAnalyzer--><rect fill="#FEFECE" filter="url(#fyppx5bzgjahh)" height="89.5078" id="AbstractAnalyzer" style="stroke: #A80036; stroke-width: 1.5;" width="164" x="1060.5" y="223.5"/><ellipse cx="1092.6" cy="239.5" fill="#A9DCDF" rx="11" ry="11" style="stroke: #A80036; stroke-width: 1.0;"/><path d="M1094.7875,241.2656 L1090.6469,241.2656 L1090.225,242.2969 L1090.6469,242.2969 Q1091.2563,242.2969 1091.5219,242.5313 Q1091.7875,242.7656 1091.7875,243.1563 Q1091.7875,243.5313 1091.5219,243.7656 Q1091.2563,244 1090.6469,244 L1088.35,244 Q1087.7406,244 1087.4828,243.7656 Q1087.225,243.5313 1087.225,243.1406 Q1087.225,242.7656 1087.4984,242.5234 Q1087.7719,242.2813 1088.3969,242.2969 L1091.0688,235.6406 L1089.9594,235.6406 Q1089.35,235.6406 1089.0844,235.4063 Q1088.8188,235.1719 1088.8188,234.7813 Q1088.8188,234.4063 1089.0844,234.1719 Q1089.35,233.9375 1089.9594,233.9375 L1093.6313,233.9375 L1097.0219,242.2969 Q1097.6156,242.2969 1097.8031,242.4375 Q1098.1938,242.7031 1098.1938,243.1563 Q1098.1938,243.5313 1097.9359,243.7656 Q1097.6781,244 1097.0688,244 L1094.7719,244 Q1094.1625,244 1093.8969,243.7656 Q1093.6313,243.5313 1093.6313,243.1406 Q1093.6313,242.7656 1093.8969,242.5313 Q1094.1625,242.2969 1094.7719,242.2969 L1095.1938,242.2969 L1094.7875,241.2656 Z M1094.0688,239.5625 L1092.7094,236.1875 L1091.3344,239.5625 L1094.0688,239.5625 Z "/><text fill="#000000" font-family="sans-serif" font-size="12" font-style="italic" lengthAdjust="spacingAndGlyphs" textLength="94" x="1110.4" y="244.4102">AbstractAnalyzer</text><line style="stroke: #A80036; stroke-width: 1.5;" x1="1061.5" x2="1223.5" y1="255.5" y2="255.5"/><polygon fill="none" points="1071.5,262.918,1075.5,266.918,1071.5,270.918,1067.5,266.918" style="stroke: #B38D22; stroke-width: 1.0;"/><text fill="#000000" font-family="sans-serif" font-size="11" lengthAdjust="spacingAndGlyphs" textLength="114" x="1080.5" y="270.9189">java.util.ArrayList filters</text><line style="stroke: #A80036; stroke-width: 1.5;" x1="1061.5" x2="1223.5" y1="277.3359" y2="277.3359"/><ellipse cx="1071.5" cy="289.7539" fill="#84BE84" rx="3" ry="3" style="stroke: #038048; stroke-width: 1.0;"/><text fill="#000000" font-family="sans-serif" font-size="11" lengthAdjust="spacingAndGlyphs" textLength="56" x="1080.5" y="292.7549">void &lt;init&gt;()</text><ellipse cx="1071.5" cy="303.5898" fill="#84BE84" rx="3" ry="3" style="stroke: #038048; stroke-width: 1.0;"/><text fill="#000000" font-family="sans-serif" font-size="11" lengthAdjust="spacingAndGlyphs" textLength="138" x="1080.5" y="306.5908">void addFilter(ourStuff.Filter)</text><!--class Analyzer--><rect fill="#FEFECE" filter="url(#fyppx5bzgjahh)" height="61.8359" id="Analyzer" style="stroke: #A80036; stroke-width: 1.5;" width="203" x="1041" y="53.5"/><ellipse cx="1113.75" cy="69.5" fill="#B4A7E5" rx="11" ry="11" style="stroke: #A80036; stroke-width: 1.0;"/><path d="M1114.7031,66.1406 L1114.7031,72.7969 L1116.4219,72.7969 Q1117.0313,72.7969 1117.2969,73.0313 Q1117.5625,73.2656 1117.5625,73.6563 Q1117.5625,74.0313 1117.2969,74.2656 Q1117.0313,74.5 1116.4219,74.5 L1111.2813,74.5 Q1110.6719,74.5 1110.4063,74.2656 Q1110.1406,74.0313 1110.1406,73.6406 Q1110.1406,73.2656 1110.4063,73.0313 Q1110.6719,72.7969 1111.2813,72.7969 L1113,72.7969 L1113,66.1406 L1111.2813,66.1406 Q1110.6719,66.1406 1110.4063,65.9063 Q1110.1406,65.6719 1110.1406,65.2813 Q1110.1406,64.9063 1110.4063,64.6719 Q1110.6719,64.4375 1111.2813,64.4375 L1116.4219,64.4375 Q1117.0313,64.4375 1117.2969,64.6719 Q1117.5625,64.9063 1117.5625,65.2813 Q1117.5625,65.6719 1117.2969,65.9063 Q1117.0313,66.1406 1116.4219,66.1406 L1114.7031,66.1406 Z "/><text fill="#000000" font-family="sans-serif" font-size="12" font-style="italic" lengthAdjust="spacingAndGlyphs" textLength="49" x="1134.25" y="74.4102">Analyzer</text><line style="stroke: #A80036; stroke-width: 1.5;" x1="1042" x2="1243" y1="85.5" y2="85.5"/><line style="stroke: #A80036; stroke-width: 1.5;" x1="1042" x2="1243" y1="93.5" y2="93.5"/><ellipse cx="1052" cy="105.918" fill="#84BE84" rx="3" ry="3" style="stroke: #038048; stroke-width: 1.0;"/><text fill="#000000" font-family="sans-serif" font-size="11" font-style="italic" lengthAdjust="spacingAndGlyphs" textLength="177" x="1061" y="108.9189">ourStuff.Data analyze(ourStuff.Data)</text><!--class AnalyzerChain--><rect fill="#FEFECE" filter="url(#fyppx5bzgjahh)" height="117.1797" id="AnalyzerChain" style="stroke: #A80036; stroke-width: 1.5;" width="204" x="205.5" y="26"/><ellipse cx="264.25" cy="42" fill="#ADD1B2" rx="11" ry="11" style="stroke: #A80036; stroke-width: 1.0;"/><path d="M267.0156,37.875 Q267.1719,37.6563 267.3594,37.5469 Q267.5469,37.4375 267.7656,37.4375 Q268.1406,37.4375 268.375,37.6953 Q268.6094,37.9531 268.6094,38.5625 L268.6094,40.0156 Q268.6094,40.625 268.375,40.8906 Q268.1406,41.1563 267.7656,41.1563 Q267.4219,41.1563 267.2188,40.9531 Q267.0156,40.7656 266.9063,40.25 Q266.8594,39.8906 266.6719,39.7031 Q266.3438,39.3281 265.7344,39.1094 Q265.125,38.8906 264.5,38.8906 Q263.7344,38.8906 263.1016,39.2188 Q262.4688,39.5469 261.9766,40.2969 Q261.4844,41.0469 261.4844,42.0781 L261.4844,43.1719 Q261.4844,44.4063 262.375,45.2266 Q263.2656,46.0469 264.8594,46.0469 Q265.7969,46.0469 266.4531,45.7969 Q266.8438,45.6406 267.2656,45.2031 Q267.5313,44.9375 267.6797,44.8594 Q267.8281,44.7813 268.0313,44.7813 Q268.3594,44.7813 268.6172,45.0391 Q268.875,45.2969 268.875,45.6406 Q268.875,45.9844 268.5313,46.3906 Q268.0313,46.9688 267.2344,47.2969 Q266.1563,47.75 264.8594,47.75 Q263.3438,47.75 262.1406,47.125 Q261.1563,46.625 260.4688,45.5547 Q259.7813,44.4844 259.7813,43.2031 L259.7813,42.0469 Q259.7813,40.7188 260.3984,39.5703 Q261.0156,38.4219 262.1094,37.8047 Q263.2031,37.1875 264.4375,37.1875 Q265.1719,37.1875 265.8203,37.3516 Q266.4688,37.5156 267.0156,37.875 Z "/><text fill="#000000" font-family="sans-serif" font-size="12" lengthAdjust="spacingAndGlyphs" textLength="78" x="284.75" y="46.9102">AnalyzerChain</text><line style="stroke: #A80036; stroke-width: 1.5;" x1="206.5" x2="408.5" y1="58" y2="58"/><rect fill="none" height="6" style="stroke: #C82930; stroke-width: 1.0;" width="6" x="213.5" y="67.418"/><text fill="#000000" font-family="sans-serif" font-size="11" lengthAdjust="spacingAndGlyphs" textLength="147" x="225.5" y="73.4189">java.util.List analyzerCollection</text><line style="stroke: #A80036; stroke-width: 1.5;" x1="206.5" x2="408.5" y1="79.8359" y2="79.8359"/><ellipse cx="216.5" cy="92.2539" fill="#84BE84" rx="3" ry="3" style="stroke: #038048; stroke-width: 1.0;"/><text fill="#000000" font-family="sans-serif" font-size="11" lengthAdjust="spacingAndGlyphs" textLength="56" x="225.5" y="95.2549">void &lt;init&gt;()</text><ellipse cx="216.5" cy="106.0898" fill="#84BE84" rx="3" ry="3" style="stroke: #038048; stroke-width: 1.0;"/><text fill="#000000" font-family="sans-serif" font-size="11" lengthAdjust="spacingAndGlyphs" textLength="178" x="225.5" y="109.0908">void add(ourStuff.AbstractAnalyzer)</text><ellipse cx="216.5" cy="119.9258" fill="#84BE84" rx="3" ry="3" style="stroke: #038048; stroke-width: 1.0;"/><text fill="#000000" font-family="sans-serif" font-size="11" lengthAdjust="spacingAndGlyphs" textLength="112" x="225.5" y="122.9268">void run(ourStuff.Data)</text><ellipse cx="216.5" cy="133.7617" fill="#84BE84" rx="3" ry="3" style="stroke: #038048; stroke-width: 1.0;"/><text fill="#000000" font-family="sans-serif" font-size="11" lengthAdjust="spacingAndGlyphs" textLength="42" x="225.5" y="136.7627">int size()</text><!--class AssociationAnalyzer--><rect fill="#FEFECE" filter="url(#fyppx5bzgjahh)" height="75.6719" id="AssociationAnalyzer" style="stroke: #A80036; stroke-width: 1.5;" width="205" x="270" y="435.5"/><ellipse cx="313.8" cy="451.5" fill="#ADD1B2" rx="11" ry="11" style="stroke: #A80036; stroke-width: 1.0;"/><path d="M316.5656,447.375 Q316.7219,447.1563 316.9094,447.0469 Q317.0969,446.9375 317.3156,446.9375 Q317.6906,446.9375 317.925,447.1953 Q318.1594,447.4531 318.1594,448.0625 L318.1594,449.5156 Q318.1594,450.125 317.925,450.3906 Q317.6906,450.6563 317.3156,450.6563 Q316.9719,450.6563 316.7688,450.4531 Q316.5656,450.2656 316.4563,449.75 Q316.4094,449.3906 316.2219,449.2031 Q315.8938,448.8281 315.2844,448.6094 Q314.675,448.3906 314.05,448.3906 Q313.2844,448.3906 312.6516,448.7188 Q312.0188,449.0469 311.5266,449.7969 Q311.0344,450.5469 311.0344,451.5781 L311.0344,452.6719 Q311.0344,453.9063 311.925,454.7266 Q312.8156,455.5469 314.4094,455.5469 Q315.3469,455.5469 316.0031,455.2969 Q316.3938,455.1406 316.8156,454.7031 Q317.0813,454.4375 317.2297,454.3594 Q317.3781,454.2813 317.5813,454.2813 Q317.9094,454.2813 318.1672,454.5391 Q318.425,454.7969 318.425,455.1406 Q318.425,455.4844 318.0813,455.8906 Q317.5813,456.4688 316.7844,456.7969 Q315.7063,457.25 314.4094,457.25 Q312.8938,457.25 311.6906,456.625 Q310.7063,456.125 310.0188,455.0547 Q309.3313,453.9844 309.3313,452.7031 L309.3313,451.5469 Q309.3313,450.2188 309.9484,449.0703 Q310.5656,447.9219 311.6594,447.3047 Q312.7531,446.6875 313.9875,446.6875 Q314.7219,446.6875 315.3703,446.8516 Q316.0188,447.0156 316.5656,447.375 Z "/><text fill="#000000" font-family="sans-serif" font-size="12" lengthAdjust="spacingAndGlyphs" textLength="109" x="334.2" y="456.4102">AssociationAnalyzer</text><line style="stroke: #A80036; stroke-width: 1.5;" x1="271" x2="474" y1="467.5" y2="467.5"/><line style="stroke: #A80036; stroke-width: 1.5;" x1="271" x2="474" y1="475.5" y2="475.5"/><ellipse cx="281" cy="487.918" fill="#84BE84" rx="3" ry="3" style="stroke: #038048; stroke-width: 1.0;"/><text fill="#000000" font-family="sans-serif" font-size="11" lengthAdjust="spacingAndGlyphs" textLength="56" x="290" y="490.9189">void &lt;init&gt;()</text><ellipse cx="281" cy="501.7539" fill="#84BE84" rx="3" ry="3" style="stroke: #038048; stroke-width: 1.0;"/><text fill="#000000" font-family="sans-serif" font-size="11" lengthAdjust="spacingAndGlyphs" textLength="179" x="290" y="504.7549">ourStuff.Data analyze(ourStuff.Data)</text><!--class ClassCodeGenAnalyzer--><rect fill="#FEFECE" filter="url(#fyppx5bzgjahh)" height="172.5234" id="ClassCodeGenAnalyzer" style="stroke: #A80036; stroke-width: 1.5;" width="299" x="510" y="387"/><ellipse cx="589.75" cy="403" fill="#ADD1B2" rx="11" ry="11" style="stroke: #A80036; stroke-width: 1.0;"/><path d="M592.5156,398.875 Q592.6719,398.6563 592.8594,398.5469 Q593.0469,398.4375 593.2656,398.4375 Q593.6406,398.4375 593.875,398.6953 Q594.1094,398.9531 594.1094,399.5625 L594.1094,401.0156 Q594.1094,401.625 593.875,401.8906 Q593.6406,402.1563 593.2656,402.1563 Q592.9219,402.1563 592.7188,401.9531 Q592.5156,401.7656 592.4063,401.25 Q592.3594,400.8906 592.1719,400.7031 Q591.8438,400.3281 591.2344,400.1094 Q590.625,399.8906 590,399.8906 Q589.2344,399.8906 588.6016,400.2188 Q587.9688,400.5469 587.4766,401.2969 Q586.9844,402.0469 586.9844,403.0781 L586.9844,404.1719 Q586.9844,405.4063 587.875,406.2266 Q588.7656,407.0469 590.3594,407.0469 Q591.2969,407.0469 591.9531,406.7969 Q592.3438,406.6406 592.7656,406.2031 Q593.0313,405.9375 593.1797,405.8594 Q593.3281,405.7813 593.5313,405.7813 Q593.8594,405.7813 594.1172,406.0391 Q594.375,406.2969 594.375,406.6406 Q594.375,406.9844 594.0313,407.3906 Q593.5313,407.9688 592.7344,408.2969 Q591.6563,408.75 590.3594,408.75 Q588.8438,408.75 587.6406,408.125 Q586.6563,407.625 585.9688,406.5547 Q585.2813,405.4844 585.2813,404.2031 L585.2813,403.0469 Q585.2813,401.7188 585.8984,400.5703 Q586.5156,399.4219 587.6094,398.8047 Q588.7031,398.1875 589.9375,398.1875 Q590.6719,398.1875 591.3203,398.3516 Q591.9688,398.5156 592.5156,398.875 Z "/><text fill="#000000" font-family="sans-serif" font-size="12" lengthAdjust="spacingAndGlyphs" textLength="131" x="610.25" y="407.9102">ClassCodeGenAnalyzer</text><line style="stroke: #A80036; stroke-width: 1.5;" x1="511" x2="808" y1="419" y2="419"/><line style="stroke: #A80036; stroke-width: 1.5;" x1="511" x2="808" y1="427" y2="427"/><ellipse cx="521" cy="439.418" fill="#84BE84" rx="3" ry="3" style="stroke: #038048; stroke-width: 1.0;"/><text fill="#000000" font-family="sans-serif" font-size="11" lengthAdjust="spacingAndGlyphs" textLength="56" x="530" y="442.4189">void &lt;init&gt;()</text><ellipse cx="521" cy="453.2539" fill="#84BE84" rx="3" ry="3" style="stroke: #038048; stroke-width: 1.0;"/><text fill="#000000" font-family="sans-serif" font-size="11" lengthAdjust="spacingAndGlyphs" textLength="179" x="530" y="456.2549">ourStuff.Data analyze(ourStuff.Data)</text><rect fill="#F24D5C" height="6" style="stroke: #C82930; stroke-width: 1.0;" width="6" x="518" y="464.0898"/><text fill="#000000" font-family="sans-serif" font-size="11" lengthAdjust="spacingAndGlyphs" textLength="272" x="530" y="470.0908">java.lang.String genString(soot.SootClass,ourStuff.Data)</text><rect fill="#F24D5C" height="6" style="stroke: #C82930; stroke-width: 1.0;" width="6" x="518" y="477.9258"/><text fill="#000000" font-family="sans-serif" font-size="11" lengthAdjust="spacingAndGlyphs" textLength="273" x="530" y="483.9268">java.lang.String genMethodDeclaration(soot.SootMethod)</text><rect fill="#F24D5C" height="6" style="stroke: #C82930; stroke-width: 1.0;" width="6" x="518" y="491.7617"/><text fill="#000000" font-family="sans-serif" font-size="11" lengthAdjust="spacingAndGlyphs" textLength="170" x="530" y="497.7627">boolean filterClass(soot.SootClass)</text><rect fill="#F24D5C" height="6" style="stroke: #C82930; stroke-width: 1.0;" width="6" x="518" y="505.5977"/><text fill="#000000" font-family="sans-serif" font-size="11" lengthAdjust="spacingAndGlyphs" textLength="263" x="530" y="511.5986">java.lang.String addAssociationArrows(ourStuff.Data)</text><rect fill="#F24D5C" height="6" style="stroke: #C82930; stroke-width: 1.0;" width="6" x="518" y="519.4336"/><text fill="#000000" font-family="sans-serif" font-size="11" lengthAdjust="spacingAndGlyphs" text-decoration="underline" textLength="260" x="530" y="525.4346">void lambda$0(java.lang.StringBuilder,soot.SootClass)</text><line style="stroke: #000000; stroke-width: 1.0;" x1="530" x2="790" y1="527.4346" y2="527.4346"/><rect fill="#F24D5C" height="6" style="stroke: #C82930; stroke-width: 1.0;" width="6" x="518" y="533.2695"/><text fill="#000000" font-family="sans-serif" font-size="11" lengthAdjust="spacingAndGlyphs" text-decoration="underline" textLength="234" x="530" y="539.2705">void lambda$1(soot.SootClass,soot.SootMethod)</text><line style="stroke: #000000; stroke-width: 1.0;" x1="530" x2="764" y1="541.2705" y2="541.2705"/><rect fill="#F24D5C" height="6" style="stroke: #C82930; stroke-width: 1.0;" width="6" x="518" y="547.1055"/><text fill="#000000" font-family="sans-serif" font-size="11" lengthAdjust="spacingAndGlyphs" text-decoration="underline" textLength="221" x="530" y="553.1064">void lambda$2(soot.SootClass,soot.SootField)</text><line style="stroke: #000000; stroke-width: 1.0;" x1="530" x2="751" y1="555.1064" y2="555.1064"/><!--class Data--><rect fill="#FEFECE" filter="url(#fyppx5bzgjahh)" height="131.0156" id="Data" style="stroke: #A80036; stroke-width: 1.5;" width="175" x="445" y="19"/><ellipse cx="515.25" cy="35" fill="#ADD1B2" rx="11" ry="11" style="stroke: #A80036; stroke-width: 1.0;"/><path d="M518.0156,30.875 Q518.1719,30.6563 518.3594,30.5469 Q518.5469,30.4375 518.7656,30.4375 Q519.1406,30.4375 519.375,30.6953 Q519.6094,30.9531 519.6094,31.5625 L519.6094,33.0156 Q519.6094,33.625 519.375,33.8906 Q519.1406,34.1563 518.7656,34.1563 Q518.4219,34.1563 518.2188,33.9531 Q518.0156,33.7656 517.9063,33.25 Q517.8594,32.8906 517.6719,32.7031 Q517.3438,32.3281 516.7344,32.1094 Q516.125,31.8906 515.5,31.8906 Q514.7344,31.8906 514.1016,32.2188 Q513.4688,32.5469 512.9766,33.2969 Q512.4844,34.0469 512.4844,35.0781 L512.4844,36.1719 Q512.4844,37.4063 513.375,38.2266 Q514.2656,39.0469 515.8594,39.0469 Q516.7969,39.0469 517.4531,38.7969 Q517.8438,38.6406 518.2656,38.2031 Q518.5313,37.9375 518.6797,37.8594 Q518.8281,37.7813 519.0313,37.7813 Q519.3594,37.7813 519.6172,38.0391 Q519.875,38.2969 519.875,38.6406 Q519.875,38.9844 519.5313,39.3906 Q519.0313,39.9688 518.2344,40.2969 Q517.1563,40.75 515.8594,40.75 Q514.3438,40.75 513.1406,40.125 Q512.1563,39.625 511.4688,38.5547 Q510.7813,37.4844 510.7813,36.2031 L510.7813,35.0469 Q510.7813,33.7188 511.3984,32.5703 Q512.0156,31.4219 513.1094,30.8047 Q514.2031,30.1875 515.4375,30.1875 Q516.1719,30.1875 516.8203,30.3516 Q517.4688,30.5156 518.0156,30.875 Z "/><text fill="#000000" font-family="sans-serif" font-size="12" lengthAdjust="spacingAndGlyphs" textLength="26" x="535.75" y="39.9102">Data</text><line style="stroke: #A80036; stroke-width: 1.5;" x1="446" x2="619" y1="51" y2="51"/><ellipse cx="456" cy="63.418" fill="none" rx="3" ry="3" style="stroke: #038048; stroke-width: 1.0;"/><text fill="#000000" font-family="sans-serif" font-size="11" lengthAdjust="spacingAndGlyphs" textLength="126" x="465" y="66.4189">java.util.Collection classes</text><ellipse cx="456" cy="77.2539" fill="none" rx="3" ry="3" style="stroke: #038048; stroke-width: 1.0;"/><text fill="#000000" font-family="sans-serif" font-size="11" lengthAdjust="spacingAndGlyphs" textLength="149" x="465" y="80.2549">java.util.Collection relationships</text><ellipse cx="456" cy="91.0898" fill="none" rx="3" ry="3" style="stroke: #038048; stroke-width: 1.0;"/><text fill="#000000" font-family="sans-serif" font-size="11" lengthAdjust="spacingAndGlyphs" textLength="92" x="465" y="94.0908">java.util.Map config</text><ellipse cx="456" cy="104.9258" fill="none" rx="3" ry="3" style="stroke: #038048; stroke-width: 1.0;"/><text fill="#000000" font-family="sans-serif" font-size="11" lengthAdjust="spacingAndGlyphs" textLength="88" x="465" y="107.9268">soot.Scene scene</text><ellipse cx="456" cy="118.7617" fill="none" rx="3" ry="3" style="stroke: #038048; stroke-width: 1.0;"/><text fill="#000000" font-family="sans-serif" font-size="11" lengthAdjust="spacingAndGlyphs" textLength="102" x="465" y="121.7627">java.nio.file.Path path</text><line style="stroke: #A80036; stroke-width: 1.5;" x1="446" x2="619" y1="128.1797" y2="128.1797"/><ellipse cx="456" cy="140.5977" fill="#84BE84" rx="3" ry="3" style="stroke: #038048; stroke-width: 1.0;"/><text fill="#000000" font-family="sans-serif" font-size="11" lengthAdjust="spacingAndGlyphs" textLength="56" x="465" y="143.5986">void &lt;init&gt;()</text><!--class FileCreator--><rect fill="#FEFECE" filter="url(#fyppx5bzgjahh)" height="75.6719" id="FileCreator" style="stroke: #A80036; stroke-width: 1.5;" width="169" x="6" y="230.5"/><ellipse cx="55.75" cy="246.5" fill="#ADD1B2" rx="11" ry="11" style="stroke: #A80036; stroke-width: 1.0;"/><path d="M58.5156,242.375 Q58.6719,242.1563 58.8594,242.0469 Q59.0469,241.9375 59.2656,241.9375 Q59.6406,241.9375 59.875,242.1953 Q60.1094,242.4531 60.1094,243.0625 L60.1094,244.5156 Q60.1094,245.125 59.875,245.3906 Q59.6406,245.6563 59.2656,245.6563 Q58.9219,245.6563 58.7188,245.4531 Q58.5156,245.2656 58.4063,244.75 Q58.3594,244.3906 58.1719,244.2031 Q57.8438,243.8281 57.2344,243.6094 Q56.625,243.3906 56,243.3906 Q55.2344,243.3906 54.6016,243.7188 Q53.9688,244.0469 53.4766,244.7969 Q52.9844,245.5469 52.9844,246.5781 L52.9844,247.6719 Q52.9844,248.9063 53.875,249.7266 Q54.7656,250.5469 56.3594,250.5469 Q57.2969,250.5469 57.9531,250.2969 Q58.3438,250.1406 58.7656,249.7031 Q59.0313,249.4375 59.1797,249.3594 Q59.3281,249.2813 59.5313,249.2813 Q59.8594,249.2813 60.1172,249.5391 Q60.375,249.7969 60.375,250.1406 Q60.375,250.4844 60.0313,250.8906 Q59.5313,251.4688 58.7344,251.7969 Q57.6563,252.25 56.3594,252.25 Q54.8438,252.25 53.6406,251.625 Q52.6563,251.125 51.9688,250.0547 Q51.2813,248.9844 51.2813,247.7031 L51.2813,246.5469 Q51.2813,245.2188 51.8984,244.0703 Q52.5156,242.9219 53.6094,242.3047 Q54.7031,241.6875 55.9375,241.6875 Q56.6719,241.6875 57.3203,241.8516 Q57.9688,242.0156 58.5156,242.375 Z "/><text fill="#000000" font-family="sans-serif" font-size="12" lengthAdjust="spacingAndGlyphs" textLength="61" x="76.25" y="251.4102">FileCreator</text><line style="stroke: #A80036; stroke-width: 1.5;" x1="7" x2="174" y1="262.5" y2="262.5"/><line style="stroke: #A80036; stroke-width: 1.5;" x1="7" x2="174" y1="270.5" y2="270.5"/><ellipse cx="17" cy="282.918" fill="#84BE84" rx="3" ry="3" style="stroke: #038048; stroke-width: 1.0;"/><text fill="#000000" font-family="sans-serif" font-size="11" lengthAdjust="spacingAndGlyphs" textLength="56" x="26" y="285.9189">void &lt;init&gt;()</text><ellipse cx="17" cy="296.7539" fill="#84BE84" rx="3" ry="3" style="stroke: #038048; stroke-width: 1.0;"/><text fill="#000000" font-family="sans-serif" font-size="11" lengthAdjust="spacingAndGlyphs" textLength="143" x="26" y="299.7549">void getSVG(java.lang.String)</text><!--class Filter--><rect fill="#FEFECE" filter="url(#fyppx5bzgjahh)" height="89.5078" id="Filter" style="stroke: #A80036; stroke-width: 1.5;" width="190" x="1588.5" y="39.5"/><ellipse cx="1665.75" cy="55.5" fill="#B4A7E5" rx="11" ry="11" style="stroke: #A80036; stroke-width: 1.0;"/><path d="M1666.7031,52.1406 L1666.7031,58.7969 L1668.4219,58.7969 Q1669.0313,58.7969 1669.2969,59.0313 Q1669.5625,59.2656 1669.5625,59.6563 Q1669.5625,60.0313 1669.2969,60.2656 Q1669.0313,60.5 1668.4219,60.5 L1663.2813,60.5 Q1662.6719,60.5 1662.4063,60.2656 Q1662.1406,60.0313 1662.1406,59.6406 Q1662.1406,59.2656 1662.4063,59.0313 Q1662.6719,58.7969 1663.2813,58.7969 L1665,58.7969 L1665,52.1406 L1663.2813,52.1406 Q1662.6719,52.1406 1662.4063,51.9063 Q1662.1406,51.6719 1662.1406,51.2813 Q1662.1406,50.9063 1662.4063,50.6719 Q1662.6719,50.4375 1663.2813,50.4375 L1668.4219,50.4375 Q1669.0313,50.4375 1669.2969,50.6719 Q1669.5625,50.9063 1669.5625,51.2813 Q1669.5625,51.6719 1669.2969,51.9063 Q1669.0313,52.1406 1668.4219,52.1406 L1666.7031,52.1406 Z "/><text fill="#000000" font-family="sans-serif" font-size="12" font-style="italic" lengthAdjust="spacingAndGlyphs" textLength="27" x="1686.25" y="60.4102">Filter</text><line style="stroke: #A80036; stroke-width: 1.5;" x1="1589.5" x2="1777.5" y1="71.5" y2="71.5"/><line style="stroke: #A80036; stroke-width: 1.5;" x1="1589.5" x2="1777.5" y1="79.5" y2="79.5"/><ellipse cx="1599.5" cy="91.918" fill="#84BE84" rx="3" ry="3" style="stroke: #038048; stroke-width: 1.0;"/><text fill="#000000" font-family="sans-serif" font-size="11" font-style="italic" lengthAdjust="spacingAndGlyphs" textLength="157" x="1608.5" y="94.9189">boolean ignore(soot.SootClass)</text><ellipse cx="1599.5" cy="105.7539" fill="#84BE84" rx="3" ry="3" style="stroke: #038048; stroke-width: 1.0;"/><text fill="#000000" font-family="sans-serif" font-size="11" font-style="italic" lengthAdjust="spacingAndGlyphs" textLength="164" x="1608.5" y="108.7549">boolean ignore(soot.SootMethod)</text><ellipse cx="1599.5" cy="119.5898" fill="#84BE84" rx="3" ry="3" style="stroke: #038048; stroke-width: 1.0;"/><text fill="#000000" font-family="sans-serif" font-size="11" font-style="italic" lengthAdjust="spacingAndGlyphs" textLength="153" x="1608.5" y="122.5908">boolean ignore(soot.SootField)</text><!--class ImplementationAnalyzer--><rect fill="#FEFECE" filter="url(#fyppx5bzgjahh)" height="103.3438" id="ImplementationAnalyzer" style="stroke: #A80036; stroke-width: 1.5;" width="286" x="844.5" y="422"/><ellipse cx="917.75" cy="438" fill="#ADD1B2" rx="11" ry="11" style="stroke: #A80036; stroke-width: 1.0;"/><path d="M920.5156,433.875 Q920.6719,433.6563 920.8594,433.5469 Q921.0469,433.4375 921.2656,433.4375 Q921.6406,433.4375 921.875,433.6953 Q922.1094,433.9531 922.1094,434.5625 L922.1094,436.0156 Q922.1094,436.625 921.875,436.8906 Q921.6406,437.1563 921.2656,437.1563 Q920.9219,437.1563 920.7188,436.9531 Q920.5156,436.7656 920.4063,436.25 Q920.3594,435.8906 920.1719,435.7031 Q919.8438,435.3281 919.2344,435.1094 Q918.625,434.8906 918,434.8906 Q917.2344,434.8906 916.6016,435.2188 Q915.9688,435.5469 915.4766,436.2969 Q914.9844,437.0469 914.9844,438.0781 L914.9844,439.1719 Q914.9844,440.4063 915.875,441.2266 Q916.7656,442.0469 918.3594,442.0469 Q919.2969,442.0469 919.9531,441.7969 Q920.3438,441.6406 920.7656,441.2031 Q921.0313,440.9375 921.1797,440.8594 Q921.3281,440.7813 921.5313,440.7813 Q921.8594,440.7813 922.1172,441.0391 Q922.375,441.2969 922.375,441.6406 Q922.375,441.9844 922.0313,442.3906 Q921.5313,442.9688 920.7344,443.2969 Q919.6563,443.75 918.3594,443.75 Q916.8438,443.75 915.6406,443.125 Q914.6563,442.625 913.9688,441.5547 Q913.2813,440.4844 913.2813,439.2031 L913.2813,438.0469 Q913.2813,436.7188 913.8984,435.5703 Q914.5156,434.4219 915.6094,433.8047 Q916.7031,433.1875 917.9375,433.1875 Q918.6719,433.1875 919.3203,433.3516 Q919.9688,433.5156 920.5156,433.875 Z "/><text fill="#000000" font-family="sans-serif" font-size="12" lengthAdjust="spacingAndGlyphs" textLength="131" x="938.25" y="442.9102">ImplementationAnalyzer</text><line style="stroke: #A80036; stroke-width: 1.5;" x1="845.5" x2="1129.5" y1="454" y2="454"/><line style="stroke: #A80036; stroke-width: 1.5;" x1="845.5" x2="1129.5" y1="462" y2="462"/><ellipse cx="855.5" cy="474.418" fill="#84BE84" rx="3" ry="3" style="stroke: #038048; stroke-width: 1.0;"/><text fill="#000000" font-family="sans-serif" font-size="11" lengthAdjust="spacingAndGlyphs" textLength="56" x="864.5" y="477.4189">void &lt;init&gt;()</text><ellipse cx="855.5" cy="488.2539" fill="#84BE84" rx="3" ry="3" style="stroke: #038048; stroke-width: 1.0;"/><text fill="#000000" font-family="sans-serif" font-size="11" lengthAdjust="spacingAndGlyphs" textLength="179" x="864.5" y="491.2549">ourStuff.Data analyze(ourStuff.Data)</text><rect fill="#F24D5C" height="6" style="stroke: #C82930; stroke-width: 1.0;" width="6" x="852.5" y="499.0898"/><text fill="#000000" font-family="sans-serif" font-size="11" lengthAdjust="spacingAndGlyphs" textLength="260" x="864.5" y="505.0908">java.util.Collection getImplementations(soot.SootClass)</text><rect fill="#F24D5C" height="6" style="stroke: #C82930; stroke-width: 1.0;" width="6" x="852.5" y="512.9258"/><text fill="#000000" font-family="sans-serif" font-size="11" lengthAdjust="spacingAndGlyphs" textLength="218" x="864.5" y="518.9268">void lambda$0(ourStuff.Data,soot.SootClass)</text><!--class InheritenceAnalyzer--><rect fill="#FEFECE" filter="url(#fyppx5bzgjahh)" height="103.3438" id="InheritenceAnalyzer" style="stroke: #A80036; stroke-width: 1.5;" width="263" x="1166" y="422"/><ellipse cx="1240.25" cy="438" fill="#ADD1B2" rx="11" ry="11" style="stroke: #A80036; stroke-width: 1.0;"/><path d="M1243.0156,433.875 Q1243.1719,433.6563 1243.3594,433.5469 Q1243.5469,433.4375 1243.7656,433.4375 Q1244.1406,433.4375 1244.375,433.6953 Q1244.6094,433.9531 1244.6094,434.5625 L1244.6094,436.0156 Q1244.6094,436.625 1244.375,436.8906 Q1244.1406,437.1563 1243.7656,437.1563 Q1243.4219,437.1563 1243.2188,436.9531 Q1243.0156,436.7656 1242.9063,436.25 Q1242.8594,435.8906 1242.6719,435.7031 Q1242.3438,435.3281 1241.7344,435.1094 Q1241.125,434.8906 1240.5,434.8906 Q1239.7344,434.8906 1239.1016,435.2188 Q1238.4688,435.5469 1237.9766,436.2969 Q1237.4844,437.0469 1237.4844,438.0781 L1237.4844,439.1719 Q1237.4844,440.4063 1238.375,441.2266 Q1239.2656,442.0469 1240.8594,442.0469 Q1241.7969,442.0469 1242.4531,441.7969 Q1242.8438,441.6406 1243.2656,441.2031 Q1243.5313,440.9375 1243.6797,440.8594 Q1243.8281,440.7813 1244.0313,440.7813 Q1244.3594,440.7813 1244.6172,441.0391 Q1244.875,441.2969 1244.875,441.6406 Q1244.875,441.9844 1244.5313,442.3906 Q1244.0313,442.9688 1243.2344,443.2969 Q1242.1563,443.75 1240.8594,443.75 Q1239.3438,443.75 1238.1406,443.125 Q1237.1563,442.625 1236.4688,441.5547 Q1235.7813,440.4844 1235.7813,439.2031 L1235.7813,438.0469 Q1235.7813,436.7188 1236.3984,435.5703 Q1237.0156,434.4219 1238.1094,433.8047 Q1239.2031,433.1875 1240.4375,433.1875 Q1241.1719,433.1875 1241.8203,433.3516 Q1242.4688,433.5156 1243.0156,433.875 Z "/><text fill="#000000" font-family="sans-serif" font-size="12" lengthAdjust="spacingAndGlyphs" textLength="106" x="1260.75" y="442.9102">InheritenceAnalyzer</text><line style="stroke: #A80036; stroke-width: 1.5;" x1="1167" x2="1428" y1="454" y2="454"/><line style="stroke: #A80036; stroke-width: 1.5;" x1="1167" x2="1428" y1="462" y2="462"/><ellipse cx="1177" cy="474.418" fill="#84BE84" rx="3" ry="3" style="stroke: #038048; stroke-width: 1.0;"/><text fill="#000000" font-family="sans-serif" font-size="11" lengthAdjust="spacingAndGlyphs" textLength="56" x="1186" y="477.4189">void &lt;init&gt;()</text><ellipse cx="1177" cy="488.2539" fill="#84BE84" rx="3" ry="3" style="stroke: #038048; stroke-width: 1.0;"/><text fill="#000000" font-family="sans-serif" font-size="11" lengthAdjust="spacingAndGlyphs" textLength="179" x="1186" y="491.2549">ourStuff.Data analyze(ourStuff.Data)</text><rect fill="#F24D5C" height="6" style="stroke: #C82930; stroke-width: 1.0;" width="6" x="1174" y="499.0898"/><text fill="#000000" font-family="sans-serif" font-size="11" lengthAdjust="spacingAndGlyphs" textLength="237" x="1186" y="505.0908">java.util.Collection getInheritance(soot.SootClass)</text><rect fill="#F24D5C" height="6" style="stroke: #C82930; stroke-width: 1.0;" width="6" x="1174" y="512.9258"/><text fill="#000000" font-family="sans-serif" font-size="11" lengthAdjust="spacingAndGlyphs" textLength="218" x="1186" y="518.9268">void lambda$0(ourStuff.Data,soot.SootClass)</text><!--class JDKFilter--><rect fill="#FEFECE" filter="url(#fyppx5bzgjahh)" height="103.3438" id="JDKFilter" style="stroke: #A80036; stroke-width: 1.5;" width="186" x="1259.5" y="217"/><ellipse cx="1323.25" cy="233" fill="#ADD1B2" rx="11" ry="11" style="stroke: #A80036; stroke-width: 1.0;"/><path d="M1326.0156,228.875 Q1326.1719,228.6563 1326.3594,228.5469 Q1326.5469,228.4375 1326.7656,228.4375 Q1327.1406,228.4375 1327.375,228.6953 Q1327.6094,228.9531 1327.6094,229.5625 L1327.6094,231.0156 Q1327.6094,231.625 1327.375,231.8906 Q1327.1406,232.1563 1326.7656,232.1563 Q1326.4219,232.1563 1326.2188,231.9531 Q1326.0156,231.7656 1325.9063,231.25 Q1325.8594,230.8906 1325.6719,230.7031 Q1325.3438,230.3281 1324.7344,230.1094 Q1324.125,229.8906 1323.5,229.8906 Q1322.7344,229.8906 1322.1016,230.2188 Q1321.4688,230.5469 1320.9766,231.2969 Q1320.4844,232.0469 1320.4844,233.0781 L1320.4844,234.1719 Q1320.4844,235.4063 1321.375,236.2266 Q1322.2656,237.0469 1323.8594,237.0469 Q1324.7969,237.0469 1325.4531,236.7969 Q1325.8438,236.6406 1326.2656,236.2031 Q1326.5313,235.9375 1326.6797,235.8594 Q1326.8281,235.7813 1327.0313,235.7813 Q1327.3594,235.7813 1327.6172,236.0391 Q1327.875,236.2969 1327.875,236.6406 Q1327.875,236.9844 1327.5313,237.3906 Q1327.0313,237.9688 1326.2344,238.2969 Q1325.1563,238.75 1323.8594,238.75 Q1322.3438,238.75 1321.1406,238.125 Q1320.1563,237.625 1319.4688,236.5547 Q1318.7813,235.4844 1318.7813,234.2031 L1318.7813,233.0469 Q1318.7813,231.7188 1319.3984,230.5703 Q1320.0156,229.4219 1321.1094,228.8047 Q1322.2031,228.1875 1323.4375,228.1875 Q1324.1719,228.1875 1324.8203,228.3516 Q1325.4688,228.5156 1326.0156,228.875 Z "/><text fill="#000000" font-family="sans-serif" font-size="12" lengthAdjust="spacingAndGlyphs" textLength="50" x="1343.75" y="237.9102">JDKFilter</text><line style="stroke: #A80036; stroke-width: 1.5;" x1="1260.5" x2="1444.5" y1="249" y2="249"/><line style="stroke: #A80036; stroke-width: 1.5;" x1="1260.5" x2="1444.5" y1="257" y2="257"/><ellipse cx="1270.5" cy="269.418" fill="#84BE84" rx="3" ry="3" style="stroke: #038048; stroke-width: 1.0;"/><text fill="#000000" font-family="sans-serif" font-size="11" lengthAdjust="spacingAndGlyphs" textLength="56" x="1279.5" y="272.4189">void &lt;init&gt;()</text><ellipse cx="1270.5" cy="283.2539" fill="#84BE84" rx="3" ry="3" style="stroke: #038048; stroke-width: 1.0;"/><text fill="#000000" font-family="sans-serif" font-size="11" lengthAdjust="spacingAndGlyphs" textLength="152" x="1279.5" y="286.2549">boolean ignore(soot.SootClass)</text><ellipse cx="1270.5" cy="297.0898" fill="#84BE84" rx="3" ry="3" style="stroke: #038048; stroke-width: 1.0;"/><text fill="#000000" font-family="sans-serif" font-size="11" lengthAdjust="spacingAndGlyphs" textLength="160" x="1279.5" y="300.0908">boolean ignore(soot.SootMethod)</text><ellipse cx="1270.5" cy="310.9258" fill="#84BE84" rx="3" ry="3" style="stroke: #038048; stroke-width: 1.0;"/><text fill="#000000" font-family="sans-serif" font-size="11" lengthAdjust="spacingAndGlyphs" textLength="147" x="1279.5" y="313.9268">boolean ignore(soot.SootField)</text><!--class Preprocessor--><rect fill="#FEFECE" filter="url(#fyppx5bzgjahh)" height="117.1797" id="Preprocessor" style="stroke: #A80036; stroke-width: 1.5;" width="356" x="210.5" y="210"/><ellipse cx="346.75" cy="226" fill="#ADD1B2" rx="11" ry="11" style="stroke: #A80036; stroke-width: 1.0;"/><path d="M349.5156,221.875 Q349.6719,221.6563 349.8594,221.5469 Q350.0469,221.4375 350.2656,221.4375 Q350.6406,221.4375 350.875,221.6953 Q351.1094,221.9531 351.1094,222.5625 L351.1094,224.0156 Q351.1094,224.625 350.875,224.8906 Q350.6406,225.1563 350.2656,225.1563 Q349.9219,225.1563 349.7188,224.9531 Q349.5156,224.7656 349.4063,224.25 Q349.3594,223.8906 349.1719,223.7031 Q348.8438,223.3281 348.2344,223.1094 Q347.625,222.8906 347,222.8906 Q346.2344,222.8906 345.6016,223.2188 Q344.9688,223.5469 344.4766,224.2969 Q343.9844,225.0469 343.9844,226.0781 L343.9844,227.1719 Q343.9844,228.4063 344.875,229.2266 Q345.7656,230.0469 347.3594,230.0469 Q348.2969,230.0469 348.9531,229.7969 Q349.3438,229.6406 349.7656,229.2031 Q350.0313,228.9375 350.1797,228.8594 Q350.3281,228.7813 350.5313,228.7813 Q350.8594,228.7813 351.1172,229.0391 Q351.375,229.2969 351.375,229.6406 Q351.375,229.9844 351.0313,230.3906 Q350.5313,230.9688 349.7344,231.2969 Q348.6563,231.75 347.3594,231.75 Q345.8438,231.75 344.6406,231.125 Q343.6563,230.625 342.9688,229.5547 Q342.2813,228.4844 342.2813,227.2031 L342.2813,226.0469 Q342.2813,224.7188 342.8984,223.5703 Q343.5156,222.4219 344.6094,221.8047 Q345.7031,221.1875 346.9375,221.1875 Q347.6719,221.1875 348.3203,221.3516 Q348.9688,221.5156 349.5156,221.875 Z "/><text fill="#000000" font-family="sans-serif" font-size="12" lengthAdjust="spacingAndGlyphs" textLength="75" x="367.25" y="230.9102">Preprocessor</text><line style="stroke: #A80036; stroke-width: 1.5;" x1="211.5" x2="565.5" y1="242" y2="242"/><rect fill="none" height="6" style="stroke: #C82930; stroke-width: 1.0;" width="6" x="218.5" y="251.418"/><text fill="#000000" font-family="sans-serif" font-size="11" lengthAdjust="spacingAndGlyphs" textLength="103" x="230.5" y="257.4189">java.util.Map filterMap</text><line style="stroke: #A80036; stroke-width: 1.5;" x1="211.5" x2="565.5" y1="263.8359" y2="263.8359"/><ellipse cx="221.5" cy="276.2539" fill="#84BE84" rx="3" ry="3" style="stroke: #038048; stroke-width: 1.0;"/><text fill="#000000" font-family="sans-serif" font-size="11" lengthAdjust="spacingAndGlyphs" textLength="56" x="230.5" y="279.2549">void &lt;init&gt;()</text><ellipse cx="221.5" cy="290.0898" fill="#84BE84" rx="3" ry="3" style="stroke: #038048; stroke-width: 1.0;"/><text fill="#000000" font-family="sans-serif" font-size="11" lengthAdjust="spacingAndGlyphs" textLength="330" x="230.5" y="293.0908">ourStuff.AnalyzerChain makePileline(java.lang.String[],ourStuff.Data)</text><rect fill="#F24D5C" height="6" style="stroke: #C82930; stroke-width: 1.0;" width="6" x="218.5" y="300.9258"/><text fill="#000000" font-family="sans-serif" font-size="11" lengthAdjust="spacingAndGlyphs" textLength="200" x="230.5" y="306.9268">java.util.Map configGen(java.lang.String[])</text><ellipse cx="221.5" cy="317.7617" fill="#84BE84" rx="3" ry="3" style="stroke: #038048; stroke-width: 1.0;"/><text fill="#000000" font-family="sans-serif" font-size="11" lengthAdjust="spacingAndGlyphs" textLength="215" x="230.5" y="320.7627">void addFilter(java.lang.String,ourStuff.Filter)</text><!--class PrivateFilter--><rect fill="#FEFECE" filter="url(#fyppx5bzgjahh)" height="103.3438" id="PrivateFilter" style="stroke: #A80036; stroke-width: 1.5;" width="186" x="1701.5" y="217"/><ellipse cx="1758.25" cy="233" fill="#ADD1B2" rx="11" ry="11" style="stroke: #A80036; stroke-width: 1.0;"/><path d="M1761.0156,228.875 Q1761.1719,228.6563 1761.3594,228.5469 Q1761.5469,228.4375 1761.7656,228.4375 Q1762.1406,228.4375 1762.375,228.6953 Q1762.6094,228.9531 1762.6094,229.5625 L1762.6094,231.0156 Q1762.6094,231.625 1762.375,231.8906 Q1762.1406,232.1563 1761.7656,232.1563 Q1761.4219,232.1563 1761.2188,231.9531 Q1761.0156,231.7656 1760.9063,231.25 Q1760.8594,230.8906 1760.6719,230.7031 Q1760.3438,230.3281 1759.7344,230.1094 Q1759.125,229.8906 1758.5,229.8906 Q1757.7344,229.8906 1757.1016,230.2188 Q1756.4688,230.5469 1755.9766,231.2969 Q1755.4844,232.0469 1755.4844,233.0781 L1755.4844,234.1719 Q1755.4844,235.4063 1756.375,236.2266 Q1757.2656,237.0469 1758.8594,237.0469 Q1759.7969,237.0469 1760.4531,236.7969 Q1760.8438,236.6406 1761.2656,236.2031 Q1761.5313,235.9375 1761.6797,235.8594 Q1761.8281,235.7813 1762.0313,235.7813 Q1762.3594,235.7813 1762.6172,236.0391 Q1762.875,236.2969 1762.875,236.6406 Q1762.875,236.9844 1762.5313,237.3906 Q1762.0313,237.9688 1761.2344,238.2969 Q1760.1563,238.75 1758.8594,238.75 Q1757.3438,238.75 1756.1406,238.125 Q1755.1563,237.625 1754.4688,236.5547 Q1753.7813,235.4844 1753.7813,234.2031 L1753.7813,233.0469 Q1753.7813,231.7188 1754.3984,230.5703 Q1755.0156,229.4219 1756.1094,228.8047 Q1757.2031,228.1875 1758.4375,228.1875 Q1759.1719,228.1875 1759.8203,228.3516 Q1760.4688,228.5156 1761.0156,228.875 Z "/><text fill="#000000" font-family="sans-serif" font-size="12" lengthAdjust="spacingAndGlyphs" textLength="64" x="1778.75" y="237.9102">PrivateFilter</text><line style="stroke: #A80036; stroke-width: 1.5;" x1="1702.5" x2="1886.5" y1="249" y2="249"/><line style="stroke: #A80036; stroke-width: 1.5;" x1="1702.5" x2="1886.5" y1="257" y2="257"/><ellipse cx="1712.5" cy="269.418" fill="#84BE84" rx="3" ry="3" style="stroke: #038048; stroke-width: 1.0;"/><text fill="#000000" font-family="sans-serif" font-size="11" lengthAdjust="spacingAndGlyphs" textLength="56" x="1721.5" y="272.4189">void &lt;init&gt;()</text><ellipse cx="1712.5" cy="283.2539" fill="#84BE84" rx="3" ry="3" style="stroke: #038048; stroke-width: 1.0;"/><text fill="#000000" font-family="sans-serif" font-size="11" lengthAdjust="spacingAndGlyphs" textLength="152" x="1721.5" y="286.2549">boolean ignore(soot.SootClass)</text><ellipse cx="1712.5" cy="297.0898" fill="#84BE84" rx="3" ry="3" style="stroke: #038048; stroke-width: 1.0;"/><text fill="#000000" font-family="sans-serif" font-size="11" lengthAdjust="spacingAndGlyphs" textLength="160" x="1721.5" y="300.0908">boolean ignore(soot.SootMethod)</text><ellipse cx="1712.5" cy="310.9258" fill="#84BE84" rx="3" ry="3" style="stroke: #038048; stroke-width: 1.0;"/><text fill="#000000" font-family="sans-serif" font-size="11" lengthAdjust="spacingAndGlyphs" textLength="147" x="1721.5" y="313.9268">boolean ignore(soot.SootField)</text><!--class ProtectedFilter--><rect fill="#FEFECE" filter="url(#fyppx5bzgjahh)" height="103.3438" id="ProtectedFilter" style="stroke: #A80036; stroke-width: 1.5;" width="186" x="1922.5" y="217"/><ellipse cx="1971.75" cy="233" fill="#ADD1B2" rx="11" ry="11" style="stroke: #A80036; stroke-width: 1.0;"/><path d="M1974.5156,228.875 Q1974.6719,228.6563 1974.8594,228.5469 Q1975.0469,228.4375 1975.2656,228.4375 Q1975.6406,228.4375 1975.875,228.6953 Q1976.1094,228.9531 1976.1094,229.5625 L1976.1094,231.0156 Q1976.1094,231.625 1975.875,231.8906 Q1975.6406,232.1563 1975.2656,232.1563 Q1974.9219,232.1563 1974.7188,231.9531 Q1974.5156,231.7656 1974.4063,231.25 Q1974.3594,230.8906 1974.1719,230.7031 Q1973.8438,230.3281 1973.2344,230.1094 Q1972.625,229.8906 1972,229.8906 Q1971.2344,229.8906 1970.6016,230.2188 Q1969.9688,230.5469 1969.4766,231.2969 Q1968.9844,232.0469 1968.9844,233.0781 L1968.9844,234.1719 Q1968.9844,235.4063 1969.875,236.2266 Q1970.7656,237.0469 1972.3594,237.0469 Q1973.2969,237.0469 1973.9531,236.7969 Q1974.3438,236.6406 1974.7656,236.2031 Q1975.0313,235.9375 1975.1797,235.8594 Q1975.3281,235.7813 1975.5313,235.7813 Q1975.8594,235.7813 1976.1172,236.0391 Q1976.375,236.2969 1976.375,236.6406 Q1976.375,236.9844 1976.0313,237.3906 Q1975.5313,237.9688 1974.7344,238.2969 Q1973.6563,238.75 1972.3594,238.75 Q1970.8438,238.75 1969.6406,238.125 Q1968.6563,237.625 1967.9688,236.5547 Q1967.2813,235.4844 1967.2813,234.2031 L1967.2813,233.0469 Q1967.2813,231.7188 1967.8984,230.5703 Q1968.5156,229.4219 1969.6094,228.8047 Q1970.7031,228.1875 1971.9375,228.1875 Q1972.6719,228.1875 1973.3203,228.3516 Q1973.9688,228.5156 1974.5156,228.875 Z "/><text fill="#000000" font-family="sans-serif" font-size="12" lengthAdjust="spacingAndGlyphs" textLength="79" x="1992.25" y="237.9102">ProtectedFilter</text><line style="stroke: #A80036; stroke-width: 1.5;" x1="1923.5" x2="2107.5" y1="249" y2="249"/><line style="stroke: #A80036; stroke-width: 1.5;" x1="1923.5" x2="2107.5" y1="257" y2="257"/><ellipse cx="1933.5" cy="269.418" fill="#84BE84" rx="3" ry="3" style="stroke: #038048; stroke-width: 1.0;"/><text fill="#000000" font-family="sans-serif" font-size="11" lengthAdjust="spacingAndGlyphs" textLength="56" x="1942.5" y="272.4189">void &lt;init&gt;()</text><ellipse cx="1933.5" cy="283.2539" fill="#84BE84" rx="3" ry="3" style="stroke: #038048; stroke-width: 1.0;"/><text fill="#000000" font-family="sans-serif" font-size="11" lengthAdjust="spacingAndGlyphs" textLength="152" x="1942.5" y="286.2549">boolean ignore(soot.SootClass)</text><ellipse cx="1933.5" cy="297.0898" fill="#84BE84" rx="3" ry="3" style="stroke: #038048; stroke-width: 1.0;"/><text fill="#000000" font-family="sans-serif" font-size="11" lengthAdjust="spacingAndGlyphs" textLength="160" x="1942.5" y="300.0908">boolean ignore(soot.SootMethod)</text><ellipse cx="1933.5" cy="310.9258" fill="#84BE84" rx="3" ry="3" style="stroke: #038048; stroke-width: 1.0;"/><text fill="#000000" font-family="sans-serif" font-size="11" lengthAdjust="spacingAndGlyphs" textLength="147" x="1942.5" y="313.9268">boolean ignore(soot.SootField)</text><!--class PublicFilter--><rect fill="#FEFECE" filter="url(#fyppx5bzgjahh)" height="103.3438" id="PublicFilter" style="stroke: #A80036; stroke-width: 1.5;" width="186" x="1480.5" y="217"/><ellipse cx="1538.75" cy="233" fill="#ADD1B2" rx="11" ry="11" style="stroke: #A80036; stroke-width: 1.0;"/><path d="M1541.5156,228.875 Q1541.6719,228.6563 1541.8594,228.5469 Q1542.0469,228.4375 1542.2656,228.4375 Q1542.6406,228.4375 1542.875,228.6953 Q1543.1094,228.9531 1543.1094,229.5625 L1543.1094,231.0156 Q1543.1094,231.625 1542.875,231.8906 Q1542.6406,232.1563 1542.2656,232.1563 Q1541.9219,232.1563 1541.7188,231.9531 Q1541.5156,231.7656 1541.4063,231.25 Q1541.3594,230.8906 1541.1719,230.7031 Q1540.8438,230.3281 1540.2344,230.1094 Q1539.625,229.8906 1539,229.8906 Q1538.2344,229.8906 1537.6016,230.2188 Q1536.9688,230.5469 1536.4766,231.2969 Q1535.9844,232.0469 1535.9844,233.0781 L1535.9844,234.1719 Q1535.9844,235.4063 1536.875,236.2266 Q1537.7656,237.0469 1539.3594,237.0469 Q1540.2969,237.0469 1540.9531,236.7969 Q1541.3438,236.6406 1541.7656,236.2031 Q1542.0313,235.9375 1542.1797,235.8594 Q1542.3281,235.7813 1542.5313,235.7813 Q1542.8594,235.7813 1543.1172,236.0391 Q1543.375,236.2969 1543.375,236.6406 Q1543.375,236.9844 1543.0313,237.3906 Q1542.5313,237.9688 1541.7344,238.2969 Q1540.6563,238.75 1539.3594,238.75 Q1537.8438,238.75 1536.6406,238.125 Q1535.6563,237.625 1534.9688,236.5547 Q1534.2813,235.4844 1534.2813,234.2031 L1534.2813,233.0469 Q1534.2813,231.7188 1534.8984,230.5703 Q1535.5156,229.4219 1536.6094,228.8047 Q1537.7031,228.1875 1538.9375,228.1875 Q1539.6719,228.1875 1540.3203,228.3516 Q1540.9688,228.5156 1541.5156,228.875 Z "/><text fill="#000000" font-family="sans-serif" font-size="12" lengthAdjust="spacingAndGlyphs" textLength="61" x="1559.25" y="237.9102">PublicFilter</text><line style="stroke: #A80036; stroke-width: 1.5;" x1="1481.5" x2="1665.5" y1="249" y2="249"/><line style="stroke: #A80036; stroke-width: 1.5;" x1="1481.5" x2="1665.5" y1="257" y2="257"/><ellipse cx="1491.5" cy="269.418" fill="#84BE84" rx="3" ry="3" style="stroke: #038048; stroke-width: 1.0;"/><text fill="#000000" font-family="sans-serif" font-size="11" lengthAdjust="spacingAndGlyphs" textLength="56" x="1500.5" y="272.4189">void &lt;init&gt;()</text><ellipse cx="1491.5" cy="283.2539" fill="#84BE84" rx="3" ry="3" style="stroke: #038048; stroke-width: 1.0;"/><text fill="#000000" font-family="sans-serif" font-size="11" lengthAdjust="spacingAndGlyphs" textLength="152" x="1500.5" y="286.2549">boolean ignore(soot.SootClass)</text><ellipse cx="1491.5" cy="297.0898" fill="#84BE84" rx="3" ry="3" style="stroke: #038048; stroke-width: 1.0;"/><text fill="#000000" font-family="sans-serif" font-size="11" lengthAdjust="spacingAndGlyphs" textLength="160" x="1500.5" y="300.0908">boolean ignore(soot.SootMethod)</text><ellipse cx="1491.5" cy="310.9258" fill="#84BE84" rx="3" ry="3" style="stroke: #038048; stroke-width: 1.0;"/><text fill="#000000" font-family="sans-serif" font-size="11" lengthAdjust="spacingAndGlyphs" textLength="147" x="1500.5" y="313.9268">boolean ignore(soot.SootField)</text><!--class RecursiveAnalyzer--><rect fill="#FEFECE" filter="url(#fyppx5bzgjahh)" height="75.6719" id="RecursiveAnalyzer" style="stroke: #A80036; stroke-width: 1.5;" width="205" x="1464" y="435.5"/><ellipse cx="1512.25" cy="451.5" fill="#ADD1B2" rx="11" ry="11" style="stroke: #A80036; stroke-width: 1.0;"/><path d="M1515.0156,447.375 Q1515.1719,447.1563 1515.3594,447.0469 Q1515.5469,446.9375 1515.7656,446.9375 Q1516.1406,446.9375 1516.375,447.1953 Q1516.6094,447.4531 1516.6094,448.0625 L1516.6094,449.5156 Q1516.6094,450.125 1516.375,450.3906 Q1516.1406,450.6563 1515.7656,450.6563 Q1515.4219,450.6563 1515.2188,450.4531 Q1515.0156,450.2656 1514.9063,449.75 Q1514.8594,449.3906 1514.6719,449.2031 Q1514.3438,448.8281 1513.7344,448.6094 Q1513.125,448.3906 1512.5,448.3906 Q1511.7344,448.3906 1511.1016,448.7188 Q1510.4688,449.0469 1509.9766,449.7969 Q1509.4844,450.5469 1509.4844,451.5781 L1509.4844,452.6719 Q1509.4844,453.9063 1510.375,454.7266 Q1511.2656,455.5469 1512.8594,455.5469 Q1513.7969,455.5469 1514.4531,455.2969 Q1514.8438,455.1406 1515.2656,454.7031 Q1515.5313,454.4375 1515.6797,454.3594 Q1515.8281,454.2813 1516.0313,454.2813 Q1516.3594,454.2813 1516.6172,454.5391 Q1516.875,454.7969 1516.875,455.1406 Q1516.875,455.4844 1516.5313,455.8906 Q1516.0313,456.4688 1515.2344,456.7969 Q1514.1563,457.25 1512.8594,457.25 Q1511.3438,457.25 1510.1406,456.625 Q1509.1563,456.125 1508.4688,455.0547 Q1507.7813,453.9844 1507.7813,452.7031 L1507.7813,451.5469 Q1507.7813,450.2188 1508.3984,449.0703 Q1509.0156,447.9219 1510.1094,447.3047 Q1511.2031,446.6875 1512.4375,446.6875 Q1513.1719,446.6875 1513.8203,446.8516 Q1514.4688,447.0156 1515.0156,447.375 Z "/><text fill="#000000" font-family="sans-serif" font-size="12" lengthAdjust="spacingAndGlyphs" textLength="100" x="1532.75" y="456.4102">RecursiveAnalyzer</text><line style="stroke: #A80036; stroke-width: 1.5;" x1="1465" x2="1668" y1="467.5" y2="467.5"/><line style="stroke: #A80036; stroke-width: 1.5;" x1="1465" x2="1668" y1="475.5" y2="475.5"/><ellipse cx="1475" cy="487.918" fill="#84BE84" rx="3" ry="3" style="stroke: #038048; stroke-width: 1.0;"/><text fill="#000000" font-family="sans-serif" font-size="11" lengthAdjust="spacingAndGlyphs" textLength="56" x="1484" y="490.9189">void &lt;init&gt;()</text><ellipse cx="1475" cy="501.7539" fill="#84BE84" rx="3" ry="3" style="stroke: #038048; stroke-width: 1.0;"/><text fill="#000000" font-family="sans-serif" font-size="11" lengthAdjust="spacingAndGlyphs" textLength="179" x="1484" y="504.7549">ourStuff.Data analyze(ourStuff.Data)</text><!--class Relationship--><rect fill="#FEFECE" filter="url(#fyppx5bzgjahh)" height="103.3438" id="Relationship" style="stroke: #A80036; stroke-width: 1.5;" width="423" x="602" y="217"/><ellipse cx="774.25" cy="233" fill="#ADD1B2" rx="11" ry="11" style="stroke: #A80036; stroke-width: 1.0;"/><path d="M777.0156,228.875 Q777.1719,228.6563 777.3594,228.5469 Q777.5469,228.4375 777.7656,228.4375 Q778.1406,228.4375 778.375,228.6953 Q778.6094,228.9531 778.6094,229.5625 L778.6094,231.0156 Q778.6094,231.625 778.375,231.8906 Q778.1406,232.1563 777.7656,232.1563 Q777.4219,232.1563 777.2188,231.9531 Q777.0156,231.7656 776.9063,231.25 Q776.8594,230.8906 776.6719,230.7031 Q776.3438,230.3281 775.7344,230.1094 Q775.125,229.8906 774.5,229.8906 Q773.7344,229.8906 773.1016,230.2188 Q772.4688,230.5469 771.9766,231.2969 Q771.4844,232.0469 771.4844,233.0781 L771.4844,234.1719 Q771.4844,235.4063 772.375,236.2266 Q773.2656,237.0469 774.8594,237.0469 Q775.7969,237.0469 776.4531,236.7969 Q776.8438,236.6406 777.2656,236.2031 Q777.5313,235.9375 777.6797,235.8594 Q777.8281,235.7813 778.0313,235.7813 Q778.3594,235.7813 778.6172,236.0391 Q778.875,236.2969 778.875,236.6406 Q778.875,236.9844 778.5313,237.3906 Q778.0313,237.9688 777.2344,238.2969 Q776.1563,238.75 774.8594,238.75 Q773.3438,238.75 772.1406,238.125 Q771.1563,237.625 770.4688,236.5547 Q769.7813,235.4844 769.7813,234.2031 L769.7813,233.0469 Q769.7813,231.7188 770.3984,230.5703 Q771.0156,229.4219 772.1094,228.8047 Q773.2031,228.1875 774.4375,228.1875 Q775.1719,228.1875 775.8203,228.3516 Q776.4688,228.5156 777.0156,228.875 Z "/><text fill="#000000" font-family="sans-serif" font-size="12" lengthAdjust="spacingAndGlyphs" textLength="70" x="794.75" y="237.9102">Relationship</text><line style="stroke: #A80036; stroke-width: 1.5;" x1="603" x2="1024" y1="249" y2="249"/><ellipse cx="613" cy="261.418" fill="none" rx="3" ry="3" style="stroke: #038048; stroke-width: 1.0;"/><text fill="#000000" font-family="sans-serif" font-size="11" lengthAdjust="spacingAndGlyphs" textLength="85" x="622" y="264.4189">soot.SootClass to</text><ellipse cx="613" cy="275.2539" fill="none" rx="3" ry="3" style="stroke: #038048; stroke-width: 1.0;"/><text fill="#000000" font-family="sans-serif" font-size="11" lengthAdjust="spacingAndGlyphs" textLength="98" x="622" y="278.2549">soot.SootClass from</text><ellipse cx="613" cy="289.0898" fill="none" rx="3" ry="3" style="stroke: #038048; stroke-width: 1.0;"/><text fill="#000000" font-family="sans-serif" font-size="11" lengthAdjust="spacingAndGlyphs" textLength="213" x="622" y="292.0908">ourStuff.Relationship$RelationshipType type</text><line style="stroke: #A80036; stroke-width: 1.5;" x1="603" x2="1024" y1="298.5078" y2="298.5078"/><ellipse cx="613" cy="310.9258" fill="#84BE84" rx="3" ry="3" style="stroke: #038048; stroke-width: 1.0;"/><text fill="#000000" font-family="sans-serif" font-size="11" lengthAdjust="spacingAndGlyphs" textLength="397" x="622" y="313.9268">void &lt;init&gt;(soot.SootClass,soot.SootClass,ourStuff.Relationship$RelationshipType)</text><!--class SootClassAnalyzer--><rect fill="#FEFECE" filter="url(#fyppx5bzgjahh)" height="89.5078" id="SootClassAnalyzer" style="stroke: #A80036; stroke-width: 1.5;" width="205" x="1704" y="428.5"/><ellipse cx="1750.75" cy="444.5" fill="#ADD1B2" rx="11" ry="11" style="stroke: #A80036; stroke-width: 1.0;"/><path d="M1753.5156,440.375 Q1753.6719,440.1563 1753.8594,440.0469 Q1754.0469,439.9375 1754.2656,439.9375 Q1754.6406,439.9375 1754.875,440.1953 Q1755.1094,440.4531 1755.1094,441.0625 L1755.1094,442.5156 Q1755.1094,443.125 1754.875,443.3906 Q1754.6406,443.6563 1754.2656,443.6563 Q1753.9219,443.6563 1753.7188,443.4531 Q1753.5156,443.2656 1753.4063,442.75 Q1753.3594,442.3906 1753.1719,442.2031 Q1752.8438,441.8281 1752.2344,441.6094 Q1751.625,441.3906 1751,441.3906 Q1750.2344,441.3906 1749.6016,441.7188 Q1748.9688,442.0469 1748.4766,442.7969 Q1747.9844,443.5469 1747.9844,444.5781 L1747.9844,445.6719 Q1747.9844,446.9063 1748.875,447.7266 Q1749.7656,448.5469 1751.3594,448.5469 Q1752.2969,448.5469 1752.9531,448.2969 Q1753.3438,448.1406 1753.7656,447.7031 Q1754.0313,447.4375 1754.1797,447.3594 Q1754.3281,447.2813 1754.5313,447.2813 Q1754.8594,447.2813 1755.1172,447.5391 Q1755.375,447.7969 1755.375,448.1406 Q1755.375,448.4844 1755.0313,448.8906 Q1754.5313,449.4688 1753.7344,449.7969 Q1752.6563,450.25 1751.3594,450.25 Q1749.8438,450.25 1748.6406,449.625 Q1747.6563,449.125 1746.9688,448.0547 Q1746.2813,446.9844 1746.2813,445.7031 L1746.2813,444.5469 Q1746.2813,443.2188 1746.8984,442.0703 Q1747.5156,440.9219 1748.6094,440.3047 Q1749.7031,439.6875 1750.9375,439.6875 Q1751.6719,439.6875 1752.3203,439.8516 Q1752.9688,440.0156 1753.5156,440.375 Z "/><text fill="#000000" font-family="sans-serif" font-size="12" lengthAdjust="spacingAndGlyphs" textLength="103" x="1771.25" y="449.4102">SootClassAnalyzer</text><line style="stroke: #A80036; stroke-width: 1.5;" x1="1705" x2="1908" y1="460.5" y2="460.5"/><rect fill="none" height="6" style="stroke: #C82930; stroke-width: 1.0;" width="6" x="1712" y="469.918"/><text fill="#000000" font-family="sans-serif" font-size="11" lengthAdjust="spacingAndGlyphs" textLength="86" x="1724" y="475.9189">java.util.List filters</text><line style="stroke: #A80036; stroke-width: 1.5;" x1="1705" x2="1908" y1="482.3359" y2="482.3359"/><ellipse cx="1715" cy="494.7539" fill="#84BE84" rx="3" ry="3" style="stroke: #038048; stroke-width: 1.0;"/><text fill="#000000" font-family="sans-serif" font-size="11" lengthAdjust="spacingAndGlyphs" textLength="56" x="1724" y="497.7549">void &lt;init&gt;()</text><ellipse cx="1715" cy="508.5898" fill="#84BE84" rx="3" ry="3" style="stroke: #038048; stroke-width: 1.0;"/><text fill="#000000" font-family="sans-serif" font-size="11" lengthAdjust="spacingAndGlyphs" textLength="179" x="1724" y="511.5908">ourStuff.Data analyze(ourStuff.Data)</text><!--link Analyzer to AbstractAnalyzer--><path d="M1142.5,135.576 C1142.5,163.096 1142.5,196.922 1142.5,223.432 " fill="none" id="Analyzer-AbstractAnalyzer" style="stroke: #A80036; stroke-width: 1.0; stroke-dasharray: 7.0,7.0;"/><polygon fill="none" points="1135.5,135.554,1142.5,115.554,1149.5,135.554,1135.5,135.554" style="stroke: #A80036; stroke-width: 1.0;"/><!--link AbstractAnalyzer to AssociationAnalyzer--><path d="M1056.02,321.995 C1051.52,323.847 1047,325.533 1042.5,327 C808.723,403.24 722.296,299.489 492.5,387 C463.574,398.016 435.184,417.719 413.285,435.437 " fill="none" id="AbstractAnalyzer-AssociationAnalyzer" style="stroke: #A80036; stroke-width: 1.0;"/><polygon fill="none" points="1053.19,315.59,1074.28,313.582,1059.05,328.306,1053.19,315.59" style="stroke: #A80036; stroke-width: 1.0;"/><!--link AbstractAnalyzer to ClassCodeGenAnalyzer--><path d="M1052.62,322.54 C1049.23,324.103 1045.85,325.597 1042.5,327 C950.591,365.468 919.318,350.779 826.5,387 C820.735,389.25 814.905,391.637 809.053,394.128 " fill="none" id="AbstractAnalyzer-ClassCodeGenAnalyzer" style="stroke: #A80036; stroke-width: 1.0;"/><polygon fill="none" points="1049.64,316.203,1070.67,313.622,1055.84,328.755,1049.64,316.203" style="stroke: #A80036; stroke-width: 1.0;"/><!--link AbstractAnalyzer to ImplementationAnalyzer--><path d="M1096.59,329.622 C1074.22,358.929 1047.6,393.789 1026.26,421.739 " fill="none" id="AbstractAnalyzer-ImplementationAnalyzer" style="stroke: #A80036; stroke-width: 1.0;"/><polygon fill="none" points="1091.17,325.196,1108.87,313.548,1102.29,333.692,1091.17,325.196" style="stroke: #A80036; stroke-width: 1.0;"/><!--link AbstractAnalyzer to InheritenceAnalyzer--><path d="M1188.41,329.622 C1210.78,358.929 1237.4,393.789 1258.74,421.739 " fill="none" id="AbstractAnalyzer-InheritenceAnalyzer" style="stroke: #A80036; stroke-width: 1.0;"/><polygon fill="none" points="1182.71,333.692,1176.13,313.548,1193.83,325.196,1182.71,333.692" style="stroke: #A80036; stroke-width: 1.0;"/><!--link Filter to JDKFilter--><path d="M1577.49,138.828 C1540.79,157.776 1499.57,179.598 1462.5,200.5 C1453.25,205.717 1443.64,211.305 1434.13,216.946 " fill="none" id="Filter-JDKFilter" style="stroke: #A80036; stroke-width: 1.0; stroke-dasharray: 7.0,7.0;"/><polygon fill="none" points="1574.4,132.547,1595.39,129.632,1580.8,144.999,1574.4,132.547" style="stroke: #A80036; stroke-width: 1.0;"/><!--link Filter to PrivateFilter--><path d="M1720.83,146.7 C1734.71,169.469 1750.3,195.035 1763.56,216.765 " fill="none" id="Filter-PrivateFilter" style="stroke: #A80036; stroke-width: 1.0; stroke-dasharray: 7.0,7.0;"/><polygon fill="none" points="1714.81,150.277,1710.37,129.557,1726.76,142.987,1714.81,150.277" style="stroke: #A80036; stroke-width: 1.0;"/><!--link Filter to ProtectedFilter--><path d="M1789.22,138.789 C1825.98,157.772 1867.31,179.627 1904.5,200.5 C1913.82,205.733 1923.51,211.331 1933.1,216.978 " fill="none" id="Filter-ProtectedFilter" style="stroke: #A80036; stroke-width: 1.0; stroke-dasharray: 7.0,7.0;"/><polygon fill="none" points="1785.89,144.946,1771.3,129.575,1792.29,132.495,1785.89,144.946" style="stroke: #A80036; stroke-width: 1.0;"/><!--link Filter to PublicFilter--><path d="M1646.51,146.7 C1632.75,169.469 1617.3,195.035 1604.16,216.765 " fill="none" id="Filter-PublicFilter" style="stroke: #A80036; stroke-width: 1.0; stroke-dasharray: 7.0,7.0;"/><polygon fill="none" points="1640.54,143.053,1656.87,129.557,1652.52,150.295,1640.54,143.053" style="stroke: #A80036; stroke-width: 1.0;"/><!--link AbstractAnalyzer to RecursiveAnalyzer--><path d="M1231.93,322.695 C1235.13,324.198 1238.33,325.639 1241.5,327 C1328.74,364.446 1361.1,345.545 1446.5,387 C1473.19,399.958 1500.34,418.727 1522.04,435.382 " fill="none" id="AbstractAnalyzer-RecursiveAnalyzer" style="stroke: #A80036; stroke-width: 1.0;"/><polygon fill="none" points="1228.37,328.74,1213.63,313.516,1234.65,316.226,1228.37,328.74" style="stroke: #A80036; stroke-width: 1.0;"/><!--link AbstractAnalyzer to SootClassAnalyzer--><path d="M1228.87,322.165 C1233.08,323.934 1237.3,325.56 1241.5,327 C1430.29,391.688 1500.91,313.617 1686.5,387 C1711.36,396.829 1735.92,412.881 1756.28,428.437 " fill="none" id="AbstractAnalyzer-SootClassAnalyzer" style="stroke: #A80036; stroke-width: 1.0;"/><polygon fill="none" points="1225.77,328.445,1210.63,313.625,1231.71,315.765,1225.77,328.445" style="stroke: #A80036; stroke-width: 1.0;"/><!--link ourStuff.AbstractAnalyzer to java.util.ArrayList--><path d="M2399.27,292.62 C2413.73,304.796 2432.93,318.852 2452.5,327 C2613.18,393.902 2692.43,293.915 2839.5,387 C2860.88,400.53 2876.3,425.106 2885.85,444.448 " fill="none" id="ourStuff.AbstractAnalyzer-java.util.ArrayList" style="stroke: #A80036; stroke-width: 1.0;"/><polygon fill="#A80036" points="2888.15,449.243,2887.8711,439.3981,2885.9908,444.7333,2880.6556,442.8529,2888.15,449.243" style="stroke: #A80036; stroke-width: 1.0;"/><!--link ourStuff.AbstractAnalyzer to ourStuff.Filter--><path d="M2374.5,292.787 C2374.5,330.262 2374.5,403.831 2374.5,444.248 " fill="none" id="ourStuff.AbstractAnalyzer-ourStuff.Filter" style="stroke: #A80036; stroke-width: 1.0;"/><polygon fill="#A80036" points="2374.5,449.485,2378.5,440.485,2374.5,444.485,2370.5,440.485,2374.5,449.485" style="stroke: #A80036; stroke-width: 1.0;"/><text fill="#000000" font-family="sans-serif" font-size="13" lengthAdjust="spacingAndGlyphs" textLength="5" x="2368.8594" y="438.8213">*</text><!--link ourStuff.AnalyzerChain to java.util.List--><path d="M2525.72,106.788 C2598.07,135.14 2717.47,183.674 2731.5,200.5 C2791.48,272.414 2797.98,390.364 2797.53,444.16 " fill="none" id="ourStuff.AnalyzerChain-java.util.List" style="stroke: #A80036; stroke-width: 1.0;"/><polygon fill="#A80036" points="2797.47,449.471,2801.5879,440.5243,2797.5357,444.4714,2793.5886,440.4192,2797.47,449.471" style="stroke: #A80036; stroke-width: 1.0;"/><!--link ourStuff.AnalyzerChain to ourStuff.AbstractAnalyzer--><path d="M2458.34,108.55 C2440.72,141.963 2408.12,203.771 2389.18,239.675 " fill="none" id="ourStuff.AnalyzerChain-ourStuff.AbstractAnalyzer" style="stroke: #A80036; stroke-width: 1.0;"/><polygon fill="#A80036" points="2386.71,244.35,2394.4517,238.2618,2389.0462,239.9294,2387.3787,234.5239,2386.71,244.35" style="stroke: #A80036; stroke-width: 1.0;"/><text fill="#000000" font-family="sans-serif" font-size="13" lengthAdjust="spacingAndGlyphs" textLength="5" x="2384.1982" y="233.6517">*</text><!--link ourStuff.Data to java.util.Collection--><path d="M2714.67,98.57 C2759.3,115.864 2843.35,150.162 2901.5,200.5 C2985.36,273.095 3049.31,391.408 3082.87,444.804 " fill="none" id="ourStuff.Data-java.util.Collection" style="stroke: #A80036; stroke-width: 1.0;"/><polygon fill="#A80036" points="3085.63,449.151,3084.1781,439.4097,3082.9479,444.9312,3077.4265,443.701,3085.63,449.151" style="stroke: #A80036; stroke-width: 1.0;"/><!--link ourStuff.Data to java.util.Collection--><path d="M2714.85,91.429 C2766,105.032 2868.8,141.895 2936.5,200.5 C3020.03,272.803 3083.8,390.458 3102.52,444.158 " fill="none" id="ourStuff.Data-java.util.Collection" style="stroke: #A80036; stroke-width: 1.0;"/><polygon fill="#A80036" points="3104.18,449.151,3105.1198,439.3471,3102.5946,444.409,3097.5326,441.8838,3104.18,449.151" style="stroke: #A80036; stroke-width: 1.0;"/><!--link ourStuff.Data to soot.SootClass--><path d="M2714.88,90.525 C2778.03,102.254 2929.91,135.503 3040.5,200.5 C3058.53,211.097 3075.79,226.891 3088.89,240.484 " fill="none" id="ourStuff.Data-soot.SootClass" style="stroke: #A80036; stroke-width: 1.0;"/><polygon fill="#A80036" points="3092.47,244.253,3089.1568,234.9782,3089.0206,240.6334,3083.3654,240.4972,3092.47,244.253" style="stroke: #A80036; stroke-width: 1.0;"/><text fill="#000000" font-family="sans-serif" font-size="13" lengthAdjust="spacingAndGlyphs" textLength="5" x="3081.6967" y="233.5299">*</text><!--link ourStuff.Data to ourStuff.Relationship--><path d="M2682.71,108.55 C2678.69,141.827 2671.26,203.267 2666.92,239.235 " fill="none" id="ourStuff.Data-ourStuff.Relationship" style="stroke: #A80036; stroke-width: 1.0;"/><polygon fill="#A80036" points="2666.3,244.35,2671.3496,235.8941,2666.8991,239.386,2663.4072,234.9356,2666.3,244.35" style="stroke: #A80036; stroke-width: 1.0;"/><text fill="#000000" font-family="sans-serif" font-size="13" lengthAdjust="spacingAndGlyphs" textLength="5" x="2661.3769" y="233.6517">*</text><!--link ourStuff.Data to java.util.Map--><path d="M2714.53,100.539 C2749.82,119.922 2809.58,156.428 2849.5,200.5 C2918.94,277.164 2968.53,391.645 2989.04,444.234 " fill="none" id="ourStuff.Data-java.util.Map" style="stroke: #A80036; stroke-width: 1.0;"/><polygon fill="#A80036" points="2990.93,449.127,2991.4187,439.2903,2989.1285,444.4628,2983.956,442.1727,2990.93,449.127" style="stroke: #A80036; stroke-width: 1.0;"/><!--link ourStuff.Data to java.util.ArrayList--><path d="M2712.61,108.697 C2736.57,130.399 2771.11,164.754 2793.5,200.5 C2844.62,282.101 2877.24,392.837 2890.59,444.189 " fill="none" id="ourStuff.Data-java.util.ArrayList" style="stroke: #A80036; stroke-width: 1.0;"/><polygon fill="#A80036" points="2891.9,449.266,2893.5291,439.5528,2890.6531,444.424,2885.7819,441.5479,2891.9,449.266" style="stroke: #A80036; stroke-width: 1.0;"/><!--link ourStuff.Data to java.lang.String--><path d="M2714.61,88.381 C2809.5,98.357 3107.5,134.478 3173.5,200.5 C3240.12,267.14 3242.49,389.238 3239.75,444.277 " fill="none" id="ourStuff.Data-java.lang.String" style="stroke: #A80036; stroke-width: 1.0;"/><polygon fill="#A80036" points="3239.48,449.39,3243.9645,440.6213,3239.7525,444.3974,3235.9764,440.1854,3239.48,449.39" style="stroke: #A80036; stroke-width: 1.0;"/><text fill="#000000" font-family="sans-serif" font-size="13" lengthAdjust="spacingAndGlyphs" textLength="5" x="3234.3468" y="438.702">*</text><!--link ourStuff.Preprocessor to java.util.Map--><path d="M2545.73,292.578 C2558.79,304.74 2576.28,318.797 2594.5,327 C2742.41,393.576 2823.03,291.997 2954.5,387 C2973.68,400.857 2985.38,425.399 2992.03,444.646 " fill="none" id="ourStuff.Preprocessor-java.util.Map" style="stroke: #A80036; stroke-width: 1.0;"/><polygon fill="#A80036" points="2993.61,449.415,2994.5799,439.614,2992.0391,444.6682,2986.985,442.1274,2993.61,449.415" style="stroke: #A80036; stroke-width: 1.0;"/><!--link ourStuff.Preprocessor to ourStuff.Filter--><path d="M2506.41,292.787 C2478.68,330.568 2424.02,405.035 2394.52,445.231 " fill="none" id="ourStuff.Preprocessor-ourStuff.Filter" style="stroke: #A80036; stroke-width: 1.0;"/><polygon fill="#A80036" points="2391.39,449.485,2399.9413,444.5987,2394.3496,445.455,2393.4933,439.8634,2391.39,449.485" style="stroke: #A80036; stroke-width: 1.0;"/><text fill="#000000" font-family="sans-serif" font-size="13" lengthAdjust="spacingAndGlyphs" textLength="5" x="2390.0774" y="438.8213">*</text><!--link ourStuff.Preprocessor to java.lang.String--><path d="M2545.24,292.714 C2558.27,305.079 2575.89,319.291 2594.5,327 C2830.25,424.654 2940.09,267.404 3165.5,387 C3190.04,400.022 3209.65,425.221 3222.17,444.903 " fill="none" id="ourStuff.Preprocessor-java.lang.String" style="stroke: #A80036; stroke-width: 1.0;"/><polygon fill="#A80036" points="3224.89,449.267,3223.5268,439.5129,3222.2464,445.023,3216.7364,443.7427,3224.89,449.267" style="stroke: #A80036; stroke-width: 1.0;"/><text fill="#000000" font-family="sans-serif" font-size="13" lengthAdjust="spacingAndGlyphs" textLength="5" x="3216.0181" y="438.5475">*</text><!--link ourStuff.SootClassAnalyzer to java.util.List--><path d="M2238.78,292.707 C2254.62,304.91 2275.54,318.965 2296.5,327 C2478.32,396.701 2562.04,289.336 2730.5,387 C2753.53,400.352 2771.32,425.19 2782.59,444.668 " fill="none" id="ourStuff.SootClassAnalyzer-java.util.List" style="stroke: #A80036; stroke-width: 1.0;"/><polygon fill="#A80036" points="2785.31,449.494,2784.3708,439.69,2782.8529,445.1394,2777.4035,443.6214,2785.31,449.494" style="stroke: #A80036; stroke-width: 1.0;"/><!--link ourStuff.SootClassAnalyzer to ourStuff.Filter--><path d="M2230.2,292.787 C2260.53,330.568 2320.33,405.035 2352.6,445.231 " fill="none" id="ourStuff.SootClassAnalyzer-ourStuff.Filter" style="stroke: #A80036; stroke-width: 1.0;"/><polygon fill="#A80036" points="2356.02,449.485,2353.5042,439.9629,2352.8896,445.5862,2347.2662,444.9716,2356.02,449.485" style="stroke: #A80036; stroke-width: 1.0;"/><text fill="#000000" font-family="sans-serif" font-size="13" lengthAdjust="spacingAndGlyphs" textLength="5" x="2345.6439" y="438.8213">*</text><!--link App to AnalyzerChain--><!--link AnalyzerChain to Data--><!--link App to FileCreator--><!--link FileCreator to Preprocessor--><!--link Preprocessor to Relationship--></g></svg>