<?xml version="1.0" encoding="UTF-8" standalone="no"?><svg xmlns="http://www.w3.org/2000/svg" xmlns:xlink="http://www.w3.org/1999/xlink" contentScriptType="application/ecmascript" contentStyleType="text/css" height="1368px" preserveAspectRatio="none" style="width:2184px;height:1368px;" version="1.1" viewBox="0 0 2184 1368" width="2184px" zoomAndPan="magnify"><defs><filter height="300%" id="f14gxianca0ymb" width="300%" x="-1" y="-1"><feGaussianBlur result="blurOut" stdDeviation="2.0"/><feColorMatrix in="blurOut" result="blurOut2" type="matrix" values="0 0 0 0 0 0 0 0 0 0 0 0 0 0 0 0 0 0 .4 0"/><feOffset dx="4.0" dy="4.0" in="blurOut2" result="blurOut3"/><feBlend in="SourceGraphic" in2="blurOut3" mode="normal"/></filter></defs><g><!--cluster problem--><polygon fill="#FFFFFF" filter="url(#f14gxianca0ymb)" points="22,24,86,24,93,47.6094,964,47.6094,964,1356,22,1356,22,24" style="stroke: #000000; stroke-width: 1.5;"/><line style="stroke: #000000; stroke-width: 1.5;" x1="22" x2="93" y1="47.6094" y2="47.6094"/><text fill="#000000" font-family="sans-serif" font-size="14" font-weight="bold" lengthAdjust="spacingAndGlyphs" textLength="58" x="26" y="40.5332">problem</text><!--cluster NewTestStructure--><polygon fill="#FFFFFF" filter="url(#f14gxianca0ymb)" points="988,24,1120,24,1127,47.6094,2162,47.6094,2162,276,988,276,988,24" style="stroke: #000000; stroke-width: 1.5;"/><line style="stroke: #000000; stroke-width: 1.5;" x1="988" x2="1127" y1="47.6094" y2="47.6094"/><text fill="#000000" font-family="sans-serif" font-size="14" font-weight="bold" lengthAdjust="spacingAndGlyphs" textLength="126" x="992" y="40.5332">NewTestStructure</text><!--class problem.AppLauncherApplication--><rect fill="#FEFECE" filter="url(#f14gxianca0ymb)" height="75.6719" id="problem.AppLauncherApplication" style="stroke: #A80036; stroke-width: 1.5;" width="165" x="601.5" y="122"/><ellipse cx="616.5" cy="138" fill="#ADD1B2" rx="11" ry="11" style="stroke: #A80036; stroke-width: 1.0;"/><path d="M619.2656,133.875 Q619.4219,133.6563 619.6094,133.5469 Q619.7969,133.4375 620.0156,133.4375 Q620.3906,133.4375 620.625,133.6953 Q620.8594,133.9531 620.8594,134.5625 L620.8594,136.0156 Q620.8594,136.625 620.625,136.8906 Q620.3906,137.1563 620.0156,137.1563 Q619.6719,137.1563 619.4688,136.9531 Q619.2656,136.7656 619.1563,136.25 Q619.1094,135.8906 618.9219,135.7031 Q618.5938,135.3281 617.9844,135.1094 Q617.375,134.8906 616.75,134.8906 Q615.9844,134.8906 615.3516,135.2188 Q614.7188,135.5469 614.2266,136.2969 Q613.7344,137.0469 613.7344,138.0781 L613.7344,139.1719 Q613.7344,140.4063 614.625,141.2266 Q615.5156,142.0469 617.1094,142.0469 Q618.0469,142.0469 618.7031,141.7969 Q619.0938,141.6406 619.5156,141.2031 Q619.7813,140.9375 619.9297,140.8594 Q620.0781,140.7813 620.2813,140.7813 Q620.6094,140.7813 620.8672,141.0391 Q621.125,141.2969 621.125,141.6406 Q621.125,141.9844 620.7813,142.3906 Q620.2813,142.9688 619.4844,143.2969 Q618.4063,143.75 617.1094,143.75 Q615.5938,143.75 614.3906,143.125 Q613.4063,142.625 612.7188,141.5547 Q612.0313,140.4844 612.0313,139.2031 L612.0313,138.0469 Q612.0313,136.7188 612.6484,135.5703 Q613.2656,134.4219 614.3594,133.8047 Q615.4531,133.1875 616.6875,133.1875 Q617.4219,133.1875 618.0703,133.3516 Q618.7188,133.5156 619.2656,133.875 Z "/><text fill="#000000" font-family="sans-serif" font-size="12" lengthAdjust="spacingAndGlyphs" textLength="133" x="630.5" y="142.9102">AppLauncherApplication</text><line style="stroke: #A80036; stroke-width: 1.5;" x1="602.5" x2="765.5" y1="154" y2="154"/><line style="stroke: #A80036; stroke-width: 1.5;" x1="602.5" x2="765.5" y1="162" y2="162"/><ellipse cx="612.5" cy="174.418" fill="#84BE84" rx="3" ry="3" style="stroke: #038048; stroke-width: 1.0;"/><text fill="#000000" font-family="sans-serif" font-size="11" lengthAdjust="spacingAndGlyphs" textLength="56" x="621.5" y="177.4189">void &lt;init&gt;()</text><ellipse cx="612.5" cy="188.2539" fill="#84BE84" rx="3" ry="3" style="stroke: #038048; stroke-width: 1.0;"/><text fill="#000000" font-family="sans-serif" font-size="11" lengthAdjust="spacingAndGlyphs" text-decoration="underline" textLength="133" x="621.5" y="191.2549">void main(java.lang.String[])</text><line style="stroke: #000000; stroke-width: 1.0;" x1="621.5" x2="754.5" y1="193.2549" y2="193.2549"/><!--class problem.AllTests--><rect fill="#FEFECE" filter="url(#f14gxianca0ymb)" height="61.8359" id="problem.AllTests" style="stroke: #A80036; stroke-width: 1.5;" width="82" x="484" y="129"/><ellipse cx="501.7" cy="145" fill="#ADD1B2" rx="11" ry="11" style="stroke: #A80036; stroke-width: 1.0;"/><path d="M504.4656,140.875 Q504.6219,140.6563 504.8094,140.5469 Q504.9969,140.4375 505.2156,140.4375 Q505.5906,140.4375 505.825,140.6953 Q506.0594,140.9531 506.0594,141.5625 L506.0594,143.0156 Q506.0594,143.625 505.825,143.8906 Q505.5906,144.1563 505.2156,144.1563 Q504.8719,144.1563 504.6688,143.9531 Q504.4656,143.7656 504.3563,143.25 Q504.3094,142.8906 504.1219,142.7031 Q503.7938,142.3281 503.1844,142.1094 Q502.575,141.8906 501.95,141.8906 Q501.1844,141.8906 500.5516,142.2188 Q499.9188,142.5469 499.4266,143.2969 Q498.9344,144.0469 498.9344,145.0781 L498.9344,146.1719 Q498.9344,147.4063 499.825,148.2266 Q500.7156,149.0469 502.3094,149.0469 Q503.2469,149.0469 503.9031,148.7969 Q504.2938,148.6406 504.7156,148.2031 Q504.9813,147.9375 505.1297,147.8594 Q505.2781,147.7813 505.4813,147.7813 Q505.8094,147.7813 506.0672,148.0391 Q506.325,148.2969 506.325,148.6406 Q506.325,148.9844 505.9813,149.3906 Q505.4813,149.9688 504.6844,150.2969 Q503.6063,150.75 502.3094,150.75 Q500.7938,150.75 499.5906,150.125 Q498.6063,149.625 497.9188,148.5547 Q497.2313,147.4844 497.2313,146.2031 L497.2313,145.0469 Q497.2313,143.7188 497.8484,142.5703 Q498.4656,141.4219 499.5594,140.8047 Q500.6531,140.1875 501.8875,140.1875 Q502.6219,140.1875 503.2703,140.3516 Q503.9188,140.5156 504.4656,140.875 Z "/><text fill="#000000" font-family="sans-serif" font-size="12" lengthAdjust="spacingAndGlyphs" textLength="44" x="516.3" y="149.9102">AllTests</text><line style="stroke: #A80036; stroke-width: 1.5;" x1="485" x2="565" y1="161" y2="161"/><line style="stroke: #A80036; stroke-width: 1.5;" x1="485" x2="565" y1="169" y2="169"/><ellipse cx="495" cy="181.418" fill="#84BE84" rx="3" ry="3" style="stroke: #038048; stroke-width: 1.0;"/><text fill="#000000" font-family="sans-serif" font-size="11" lengthAdjust="spacingAndGlyphs" textLength="56" x="504" y="184.4189">void &lt;init&gt;()</text><!--class problem.AppLauncher--><rect fill="#FEFECE" filter="url(#f14gxianca0ymb)" height="214.0313" id="problem.AppLauncher" style="stroke: #A80036; stroke-width: 1.5;" width="315" x="38.5" y="320"/><ellipse cx="155.25" cy="336" fill="#ADD1B2" rx="11" ry="11" style="stroke: #A80036; stroke-width: 1.0;"/><path d="M158.0156,331.875 Q158.1719,331.6563 158.3594,331.5469 Q158.5469,331.4375 158.7656,331.4375 Q159.1406,331.4375 159.375,331.6953 Q159.6094,331.9531 159.6094,332.5625 L159.6094,334.0156 Q159.6094,334.625 159.375,334.8906 Q159.1406,335.1563 158.7656,335.1563 Q158.4219,335.1563 158.2188,334.9531 Q158.0156,334.7656 157.9063,334.25 Q157.8594,333.8906 157.6719,333.7031 Q157.3438,333.3281 156.7344,333.1094 Q156.125,332.8906 155.5,332.8906 Q154.7344,332.8906 154.1016,333.2188 Q153.4688,333.5469 152.9766,334.2969 Q152.4844,335.0469 152.4844,336.0781 L152.4844,337.1719 Q152.4844,338.4063 153.375,339.2266 Q154.2656,340.0469 155.8594,340.0469 Q156.7969,340.0469 157.4531,339.7969 Q157.8438,339.6406 158.2656,339.2031 Q158.5313,338.9375 158.6797,338.8594 Q158.8281,338.7813 159.0313,338.7813 Q159.3594,338.7813 159.6172,339.0391 Q159.875,339.2969 159.875,339.6406 Q159.875,339.9844 159.5313,340.3906 Q159.0313,340.9688 158.2344,341.2969 Q157.1563,341.75 155.8594,341.75 Q154.3438,341.75 153.1406,341.125 Q152.1563,340.625 151.4688,339.5547 Q150.7813,338.4844 150.7813,337.2031 L150.7813,336.0469 Q150.7813,334.7188 151.3984,333.5703 Q152.0156,332.4219 153.1094,331.8047 Q154.2031,331.1875 155.4375,331.1875 Q156.1719,331.1875 156.8203,331.3516 Q157.4688,331.5156 158.0156,331.875 Z "/><text fill="#000000" font-family="sans-serif" font-size="12" lengthAdjust="spacingAndGlyphs" textLength="73" x="175.75" y="340.9102">AppLauncher</text><line style="stroke: #A80036; stroke-width: 1.5;" x1="39.5" x2="352.5" y1="352" y2="352"/><rect fill="none" height="6" style="stroke: #C82930; stroke-width: 1.0;" width="6" x="46.5" y="361.418"/><text fill="#000000" font-family="sans-serif" font-size="11" lengthAdjust="spacingAndGlyphs" textLength="169" x="58.5" y="367.4189">java.nio.file.WatchService watcher</text><rect fill="none" height="6" style="stroke: #C82930; stroke-width: 1.0;" width="6" x="46.5" y="375.2539"/><text fill="#000000" font-family="sans-serif" font-size="11" lengthAdjust="spacingAndGlyphs" textLength="93" x="58.5" y="381.2549">java.nio.file.Path dir</text><rect fill="none" height="6" style="stroke: #C82930; stroke-width: 1.0;" width="6" x="46.5" y="389.0898"/><text fill="#000000" font-family="sans-serif" font-size="11" lengthAdjust="spacingAndGlyphs" textLength="62" x="58.5" y="395.0908">boolean stop</text><rect fill="none" height="6" style="stroke: #C82930; stroke-width: 1.0;" width="6" x="46.5" y="402.9258"/><text fill="#000000" font-family="sans-serif" font-size="11" lengthAdjust="spacingAndGlyphs" textLength="111" x="58.5" y="408.9268">java.util.List processes</text><line style="stroke: #A80036; stroke-width: 1.5;" x1="39.5" x2="352.5" y1="415.3438" y2="415.3438"/><rect fill="#F24D5C" height="6" style="stroke: #C82930; stroke-width: 1.0;" width="6" x="46.5" y="424.7617"/><text fill="#000000" font-family="sans-serif" font-size="11" lengthAdjust="spacingAndGlyphs" textLength="134" x="58.5" y="430.7627">void &lt;init&gt;(java.nio.file.Path)</text><ellipse cx="49.5" cy="441.5977" fill="#84BE84" rx="3" ry="3" style="stroke: #038048; stroke-width: 1.0;"/><text fill="#000000" font-family="sans-serif" font-size="11" lengthAdjust="spacingAndGlyphs" textLength="47" x="58.5" y="444.5986">void run()</text><polygon fill="#FFFF44" points="49.5,450.4336,53.5,454.4336,49.5,458.4336,45.5,454.4336" style="stroke: #B38D22; stroke-width: 1.0;"/><text fill="#000000" font-family="sans-serif" font-size="11" lengthAdjust="spacingAndGlyphs" textLength="106" x="58.5" y="458.4346">void clearEverything()</text><ellipse cx="49.5" cy="469.2695" fill="#84BE84" rx="3" ry="3" style="stroke: #038048; stroke-width: 1.0;"/><text fill="#000000" font-family="sans-serif" font-size="11" lengthAdjust="spacingAndGlyphs" textLength="102" x="58.5" y="472.2705">void stopGracefully()</text><ellipse cx="49.5" cy="483.1055" fill="#84BE84" rx="3" ry="3" style="stroke: #038048; stroke-width: 1.0;"/><text fill="#000000" font-family="sans-serif" font-size="11" lengthAdjust="spacingAndGlyphs" textLength="96" x="58.5" y="486.1064">boolean isRunning()</text><ellipse cx="49.5" cy="496.9414" fill="#84BE84" rx="3" ry="3" style="stroke: #038048; stroke-width: 1.0;"/><text fill="#000000" font-family="sans-serif" font-size="11" lengthAdjust="spacingAndGlyphs" textLength="124" x="58.5" y="499.9424">int getApplicationsCount()</text><ellipse cx="49.5" cy="510.7773" fill="#84BE84" rx="3" ry="3" style="stroke: #038048; stroke-width: 1.0;"/><text fill="#000000" font-family="sans-serif" font-size="11" lengthAdjust="spacingAndGlyphs" textLength="289" x="58.5" y="513.7783">void handleDirectoryEvent(java.lang.String,java.nio.file.Path)</text><ellipse cx="49.5" cy="524.6133" fill="#84BE84" rx="3" ry="3" style="stroke: #038048; stroke-width: 1.0;"/><text fill="#000000" font-family="sans-serif" font-size="11" lengthAdjust="spacingAndGlyphs" text-decoration="underline" textLength="133" x="58.5" y="527.6143">void main(java.lang.String[])</text><line style="stroke: #000000; stroke-width: 1.0;" x1="58.5" x2="191.5" y1="529.6143" y2="529.6143"/><!--class problem.AppLauncherBaseCaseTest--><rect fill="#FEFECE" filter="url(#f14gxianca0ymb)" height="75.6719" id="problem.AppLauncherBaseCaseTest" style="stroke: #A80036; stroke-width: 1.5;" width="188" x="38" y="122"/><ellipse cx="53" cy="138" fill="#ADD1B2" rx="11" ry="11" style="stroke: #A80036; stroke-width: 1.0;"/><path d="M55.7656,133.875 Q55.9219,133.6563 56.1094,133.5469 Q56.2969,133.4375 56.5156,133.4375 Q56.8906,133.4375 57.125,133.6953 Q57.3594,133.9531 57.3594,134.5625 L57.3594,136.0156 Q57.3594,136.625 57.125,136.8906 Q56.8906,137.1563 56.5156,137.1563 Q56.1719,137.1563 55.9688,136.9531 Q55.7656,136.7656 55.6563,136.25 Q55.6094,135.8906 55.4219,135.7031 Q55.0938,135.3281 54.4844,135.1094 Q53.875,134.8906 53.25,134.8906 Q52.4844,134.8906 51.8516,135.2188 Q51.2188,135.5469 50.7266,136.2969 Q50.2344,137.0469 50.2344,138.0781 L50.2344,139.1719 Q50.2344,140.4063 51.125,141.2266 Q52.0156,142.0469 53.6094,142.0469 Q54.5469,142.0469 55.2031,141.7969 Q55.5938,141.6406 56.0156,141.2031 Q56.2813,140.9375 56.4297,140.8594 Q56.5781,140.7813 56.7813,140.7813 Q57.1094,140.7813 57.3672,141.0391 Q57.625,141.2969 57.625,141.6406 Q57.625,141.9844 57.2813,142.3906 Q56.7813,142.9688 55.9844,143.2969 Q54.9063,143.75 53.6094,143.75 Q52.0938,143.75 50.8906,143.125 Q49.9063,142.625 49.2188,141.5547 Q48.5313,140.4844 48.5313,139.2031 L48.5313,138.0469 Q48.5313,136.7188 49.1484,135.5703 Q49.7656,134.4219 50.8594,133.8047 Q51.9531,133.1875 53.1875,133.1875 Q53.9219,133.1875 54.5703,133.3516 Q55.2188,133.5156 55.7656,133.875 Z "/><text fill="#000000" font-family="sans-serif" font-size="12" lengthAdjust="spacingAndGlyphs" textLength="156" x="67" y="142.9102">AppLauncherBaseCaseTest</text><line style="stroke: #A80036; stroke-width: 1.5;" x1="39" x2="225" y1="154" y2="154"/><line style="stroke: #A80036; stroke-width: 1.5;" x1="39" x2="225" y1="162" y2="162"/><ellipse cx="49" cy="174.418" fill="#84BE84" rx="3" ry="3" style="stroke: #038048; stroke-width: 1.0;"/><text fill="#000000" font-family="sans-serif" font-size="11" lengthAdjust="spacingAndGlyphs" textLength="56" x="58" y="177.4189">void &lt;init&gt;()</text><ellipse cx="49" cy="188.2539" fill="#84BE84" rx="3" ry="3" style="stroke: #038048; stroke-width: 1.0;"/><text fill="#000000" font-family="sans-serif" font-size="11" lengthAdjust="spacingAndGlyphs" textLength="72" x="58" y="191.2549">void testStart()</text><!--class problem.AppLauncherSupportTest--><rect fill="#FEFECE" filter="url(#f14gxianca0ymb)" height="200.1953" id="problem.AppLauncherSupportTest" style="stroke: #A80036; stroke-width: 1.5;" width="188" x="261" y="60"/><ellipse cx="283.2" cy="76" fill="#ADD1B2" rx="11" ry="11" style="stroke: #A80036; stroke-width: 1.0;"/><path d="M285.9656,71.875 Q286.1219,71.6563 286.3094,71.5469 Q286.4969,71.4375 286.7156,71.4375 Q287.0906,71.4375 287.325,71.6953 Q287.5594,71.9531 287.5594,72.5625 L287.5594,74.0156 Q287.5594,74.625 287.325,74.8906 Q287.0906,75.1563 286.7156,75.1563 Q286.3719,75.1563 286.1688,74.9531 Q285.9656,74.7656 285.8563,74.25 Q285.8094,73.8906 285.6219,73.7031 Q285.2938,73.3281 284.6844,73.1094 Q284.075,72.8906 283.45,72.8906 Q282.6844,72.8906 282.0516,73.2188 Q281.4188,73.5469 280.9266,74.2969 Q280.4344,75.0469 280.4344,76.0781 L280.4344,77.1719 Q280.4344,78.4063 281.325,79.2266 Q282.2156,80.0469 283.8094,80.0469 Q284.7469,80.0469 285.4031,79.7969 Q285.7938,79.6406 286.2156,79.2031 Q286.4813,78.9375 286.6297,78.8594 Q286.7781,78.7813 286.9813,78.7813 Q287.3094,78.7813 287.5672,79.0391 Q287.825,79.2969 287.825,79.6406 Q287.825,79.9844 287.4813,80.3906 Q286.9813,80.9688 286.1844,81.2969 Q285.1063,81.75 283.8094,81.75 Q282.2938,81.75 281.0906,81.125 Q280.1063,80.625 279.4188,79.5547 Q278.7313,78.4844 278.7313,77.2031 L278.7313,76.0469 Q278.7313,74.7188 279.3484,73.5703 Q279.9656,72.4219 281.0594,71.8047 Q282.1531,71.1875 283.3875,71.1875 Q284.1219,71.1875 284.7703,71.3516 Q285.4188,71.5156 285.9656,71.875 Z "/><text fill="#000000" font-family="sans-serif" font-size="12" lengthAdjust="spacingAndGlyphs" textLength="140" x="298.8" y="80.9102">AppLauncherSupportTest</text><line style="stroke: #A80036; stroke-width: 1.5;" x1="262" x2="448" y1="92" y2="92"/><rect fill="none" height="6" style="stroke: #C82930; stroke-width: 1.0;" width="6" x="269" y="101.418"/><text fill="#000000" font-family="sans-serif" font-size="11" lengthAdjust="spacingAndGlyphs" textLength="152" x="281" y="107.4189">problem.AppLauncher launcher</text><rect fill="none" height="6" style="stroke: #C82930; stroke-width: 1.0;" width="6" x="269" y="115.2539"/><text fill="#000000" font-family="sans-serif" font-size="11" lengthAdjust="spacingAndGlyphs" textLength="114" x="281" y="121.2549">java.lang.String baseDir</text><rect fill="none" height="6" style="stroke: #C82930; stroke-width: 1.0;" width="6" x="269" y="129.0898"/><text fill="#000000" font-family="sans-serif" font-size="11" lengthAdjust="spacingAndGlyphs" textLength="124" x="281" y="135.0908">java.lang.String srcTxtFile</text><rect fill="none" height="6" style="stroke: #C82930; stroke-width: 1.0;" width="6" x="269" y="142.9258"/><text fill="#000000" font-family="sans-serif" font-size="11" lengthAdjust="spacingAndGlyphs" textLength="129" x="281" y="148.9268">java.lang.String destTxtFile</text><rect fill="none" height="6" style="stroke: #C82930; stroke-width: 1.0;" width="6" x="269" y="156.7617"/><text fill="#000000" font-family="sans-serif" font-size="11" lengthAdjust="spacingAndGlyphs" textLength="129" x="281" y="162.7627">java.lang.String srcHtmlFile</text><rect fill="none" height="6" style="stroke: #C82930; stroke-width: 1.0;" width="6" x="269" y="170.5977"/><text fill="#000000" font-family="sans-serif" font-size="11" lengthAdjust="spacingAndGlyphs" textLength="134" x="281" y="176.5986">java.lang.String destHtmlFile</text><line style="stroke: #A80036; stroke-width: 1.5;" x1="262" x2="448" y1="183.0156" y2="183.0156"/><ellipse cx="272" cy="195.4336" fill="#84BE84" rx="3" ry="3" style="stroke: #038048; stroke-width: 1.0;"/><text fill="#000000" font-family="sans-serif" font-size="11" lengthAdjust="spacingAndGlyphs" textLength="56" x="281" y="198.4346">void &lt;init&gt;()</text><ellipse cx="272" cy="209.2695" fill="#84BE84" rx="3" ry="3" style="stroke: #038048; stroke-width: 1.0;"/><text fill="#000000" font-family="sans-serif" font-size="11" lengthAdjust="spacingAndGlyphs" textLength="59" x="281" y="212.2705">void setUp()</text><ellipse cx="272" cy="223.1055" fill="#84BE84" rx="3" ry="3" style="stroke: #038048; stroke-width: 1.0;"/><text fill="#000000" font-family="sans-serif" font-size="11" lengthAdjust="spacingAndGlyphs" textLength="79" x="281" y="226.1064">void tearDown()</text><ellipse cx="272" cy="236.9414" fill="#84BE84" rx="3" ry="3" style="stroke: #038048; stroke-width: 1.0;"/><text fill="#000000" font-family="sans-serif" font-size="11" lengthAdjust="spacingAndGlyphs" textLength="125" x="281" y="239.9424">void testLaunchNotepad()</text><ellipse cx="272" cy="250.7773" fill="#84BE84" rx="3" ry="3" style="stroke: #038048; stroke-width: 1.0;"/><text fill="#000000" font-family="sans-serif" font-size="11" lengthAdjust="spacingAndGlyphs" textLength="162" x="281" y="253.7783">void testLaunchDefaultBrowser()</text><!--class problem.ApplicationLauncher--><rect fill="#FEFECE" filter="url(#f14gxianca0ymb)" height="186.3594" id="problem.ApplicationLauncher" style="stroke: #A80036; stroke-width: 1.5;" width="303" x="546.5" y="334"/><ellipse cx="637.75" cy="350" fill="#ADD1B2" rx="11" ry="11" style="stroke: #A80036; stroke-width: 1.0;"/><path d="M640.5156,345.875 Q640.6719,345.6563 640.8594,345.5469 Q641.0469,345.4375 641.2656,345.4375 Q641.6406,345.4375 641.875,345.6953 Q642.1094,345.9531 642.1094,346.5625 L642.1094,348.0156 Q642.1094,348.625 641.875,348.8906 Q641.6406,349.1563 641.2656,349.1563 Q640.9219,349.1563 640.7188,348.9531 Q640.5156,348.7656 640.4063,348.25 Q640.3594,347.8906 640.1719,347.7031 Q639.8438,347.3281 639.2344,347.1094 Q638.625,346.8906 638,346.8906 Q637.2344,346.8906 636.6016,347.2188 Q635.9688,347.5469 635.4766,348.2969 Q634.9844,349.0469 634.9844,350.0781 L634.9844,351.1719 Q634.9844,352.4063 635.875,353.2266 Q636.7656,354.0469 638.3594,354.0469 Q639.2969,354.0469 639.9531,353.7969 Q640.3438,353.6406 640.7656,353.2031 Q641.0313,352.9375 641.1797,352.8594 Q641.3281,352.7813 641.5313,352.7813 Q641.8594,352.7813 642.1172,353.0391 Q642.375,353.2969 642.375,353.6406 Q642.375,353.9844 642.0313,354.3906 Q641.5313,354.9688 640.7344,355.2969 Q639.6563,355.75 638.3594,355.75 Q636.8438,355.75 635.6406,355.125 Q634.6563,354.625 633.9688,353.5547 Q633.2813,352.4844 633.2813,351.2031 L633.2813,350.0469 Q633.2813,348.7188 633.8984,347.5703 Q634.5156,346.4219 635.6094,345.8047 Q636.7031,345.1875 637.9375,345.1875 Q638.6719,345.1875 639.3203,345.3516 Q639.9688,345.5156 640.5156,345.875 Z "/><text fill="#000000" font-family="sans-serif" font-size="12" lengthAdjust="spacingAndGlyphs" textLength="112" x="658.25" y="354.9102">ApplicationLauncher</text><line style="stroke: #A80036; stroke-width: 1.5;" x1="547.5" x2="848.5" y1="366" y2="366"/><rect fill="none" height="6" style="stroke: #C82930; stroke-width: 1.0;" width="6" x="554.5" y="375.418"/><text fill="#000000" font-family="sans-serif" font-size="11" lengthAdjust="spacingAndGlyphs" textLength="176" x="566.5" y="381.4189">java.util.Map extensionToRunnerMap</text><rect fill="none" height="6" style="stroke: #C82930; stroke-width: 1.0;" width="6" x="554.5" y="389.2539"/><text fill="#000000" font-family="sans-serif" font-size="11" lengthAdjust="spacingAndGlyphs" textLength="77" x="566.5" y="395.2549">boolean running</text><line style="stroke: #A80036; stroke-width: 1.5;" x1="547.5" x2="848.5" y1="401.6719" y2="401.6719"/><ellipse cx="557.5" cy="414.0898" fill="#84BE84" rx="3" ry="3" style="stroke: #038048; stroke-width: 1.0;"/><text fill="#000000" font-family="sans-serif" font-size="11" lengthAdjust="spacingAndGlyphs" textLength="56" x="566.5" y="417.0908">void &lt;init&gt;()</text><ellipse cx="557.5" cy="427.9258" fill="#84BE84" rx="3" ry="3" style="stroke: #038048; stroke-width: 1.0;"/><text fill="#000000" font-family="sans-serif" font-size="11" lengthAdjust="spacingAndGlyphs" textLength="230" x="566.5" y="430.9268">void DirectoryChanged(problem.DirectoryEvent)</text><ellipse cx="557.5" cy="441.7617" fill="#84BE84" rx="3" ry="3" style="stroke: #038048; stroke-width: 1.0;"/><text fill="#000000" font-family="sans-serif" font-size="11" lengthAdjust="spacingAndGlyphs" textLength="96" x="566.5" y="444.7627">boolean isRunning()</text><ellipse cx="557.5" cy="455.5977" fill="#84BE84" rx="3" ry="3" style="stroke: #038048; stroke-width: 1.0;"/><text fill="#000000" font-family="sans-serif" font-size="11" lengthAdjust="spacingAndGlyphs" textLength="152" x="566.5" y="458.5986">java.util.Collection getRunners()</text><ellipse cx="557.5" cy="469.4336" fill="#84BE84" rx="3" ry="3" style="stroke: #038048; stroke-width: 1.0;"/><text fill="#000000" font-family="sans-serif" font-size="11" lengthAdjust="spacingAndGlyphs" textLength="277" x="566.5" y="472.4346">void addRunner(java.lang.String,problem.ProcessRunner)</text><ellipse cx="557.5" cy="483.2695" fill="#84BE84" rx="3" ry="3" style="stroke: #038048; stroke-width: 1.0;"/><text fill="#000000" font-family="sans-serif" font-size="11" lengthAdjust="spacingAndGlyphs" textLength="80" x="566.5" y="486.2705">void shutdown()</text><rect fill="#F24D5C" height="6" style="stroke: #C82930; stroke-width: 1.0;" width="6" x="554.5" y="494.1055"/><text fill="#000000" font-family="sans-serif" font-size="11" lengthAdjust="spacingAndGlyphs" text-decoration="underline" textLength="193" x="566.5" y="500.1064">void lambda$0(problem.ProcessRunner)</text><line style="stroke: #000000; stroke-width: 1.0;" x1="566.5" x2="759.5" y1="502.1064" y2="502.1064"/><rect fill="#F24D5C" height="6" style="stroke: #C82930; stroke-width: 1.0;" width="6" x="554.5" y="507.9414"/><text fill="#000000" font-family="sans-serif" font-size="11" lengthAdjust="spacingAndGlyphs" text-decoration="underline" textLength="163" x="566.5" y="513.9424">void lambda$1(java.lang.Process)</text><line style="stroke: #000000; stroke-width: 1.0;" x1="566.5" x2="729.5" y1="515.9424" y2="515.9424"/><!--class problem.IDirectoryListener--><rect fill="#FEFECE" filter="url(#f14gxianca0ymb)" height="75.6719" id="problem.IDirectoryListener" style="stroke: #A80036; stroke-width: 1.5;" width="262" x="530" y="1087"/><ellipse cx="608.25" cy="1103" fill="#B4A7E5" rx="11" ry="11" style="stroke: #A80036; stroke-width: 1.0;"/><path d="M609.2031,1099.6406 L609.2031,1106.2969 L610.9219,1106.2969 Q611.5313,1106.2969 611.7969,1106.5313 Q612.0625,1106.7656 612.0625,1107.1563 Q612.0625,1107.5313 611.7969,1107.7656 Q611.5313,1108 610.9219,1108 L605.7813,1108 Q605.1719,1108 604.9063,1107.7656 Q604.6406,1107.5313 604.6406,1107.1406 Q604.6406,1106.7656 604.9063,1106.5313 Q605.1719,1106.2969 605.7813,1106.2969 L607.5,1106.2969 L607.5,1099.6406 L605.7813,1099.6406 Q605.1719,1099.6406 604.9063,1099.4063 Q604.6406,1099.1719 604.6406,1098.7813 Q604.6406,1098.4063 604.9063,1098.1719 Q605.1719,1097.9375 605.7813,1097.9375 L610.9219,1097.9375 Q611.5313,1097.9375 611.7969,1098.1719 Q612.0625,1098.4063 612.0625,1098.7813 Q612.0625,1099.1719 611.7969,1099.4063 Q611.5313,1099.6406 610.9219,1099.6406 L609.2031,1099.6406 Z "/><text fill="#000000" font-family="sans-serif" font-size="12" font-style="italic" lengthAdjust="spacingAndGlyphs" textLength="97" x="628.75" y="1107.9102">IDirectoryListener</text><line style="stroke: #A80036; stroke-width: 1.5;" x1="531" x2="791" y1="1119" y2="1119"/><line style="stroke: #A80036; stroke-width: 1.5;" x1="531" x2="791" y1="1127" y2="1127"/><ellipse cx="541" cy="1139.418" fill="#84BE84" rx="3" ry="3" style="stroke: #038048; stroke-width: 1.0;"/><text fill="#000000" font-family="sans-serif" font-size="11" font-style="italic" lengthAdjust="spacingAndGlyphs" textLength="236" x="550" y="1142.4189">void DirectoryChanged(problem.DirectoryEvent)</text><ellipse cx="541" cy="1153.2539" fill="#84BE84" rx="3" ry="3" style="stroke: #038048; stroke-width: 1.0;"/><text fill="#000000" font-family="sans-serif" font-size="11" font-style="italic" lengthAdjust="spacingAndGlyphs" textLength="101" x="550" y="1156.2549">boolean isRunning()</text><!--class problem.DataFileRunner--><rect fill="#FEFECE" filter="url(#f14gxianca0ymb)" height="75.6719" id="problem.DataFileRunner" style="stroke: #A80036; stroke-width: 1.5;" width="174" x="284" y="875"/><ellipse cx="323.75" cy="891" fill="#ADD1B2" rx="11" ry="11" style="stroke: #A80036; stroke-width: 1.0;"/><path d="M326.5156,886.875 Q326.6719,886.6563 326.8594,886.5469 Q327.0469,886.4375 327.2656,886.4375 Q327.6406,886.4375 327.875,886.6953 Q328.1094,886.9531 328.1094,887.5625 L328.1094,889.0156 Q328.1094,889.625 327.875,889.8906 Q327.6406,890.1563 327.2656,890.1563 Q326.9219,890.1563 326.7188,889.9531 Q326.5156,889.7656 326.4063,889.25 Q326.3594,888.8906 326.1719,888.7031 Q325.8438,888.3281 325.2344,888.1094 Q324.625,887.8906 324,887.8906 Q323.2344,887.8906 322.6016,888.2188 Q321.9688,888.5469 321.4766,889.2969 Q320.9844,890.0469 320.9844,891.0781 L320.9844,892.1719 Q320.9844,893.4063 321.875,894.2266 Q322.7656,895.0469 324.3594,895.0469 Q325.2969,895.0469 325.9531,894.7969 Q326.3438,894.6406 326.7656,894.2031 Q327.0313,893.9375 327.1797,893.8594 Q327.3281,893.7813 327.5313,893.7813 Q327.8594,893.7813 328.1172,894.0391 Q328.375,894.2969 328.375,894.6406 Q328.375,894.9844 328.0313,895.3906 Q327.5313,895.9688 326.7344,896.2969 Q325.6563,896.75 324.3594,896.75 Q322.8438,896.75 321.6406,896.125 Q320.6563,895.625 319.9688,894.5547 Q319.2813,893.4844 319.2813,892.2031 L319.2813,891.0469 Q319.2813,889.7188 319.8984,888.5703 Q320.5156,887.4219 321.6094,886.8047 Q322.7031,886.1875 323.9375,886.1875 Q324.6719,886.1875 325.3203,886.3516 Q325.9688,886.5156 326.5156,886.875 Z "/><text fill="#000000" font-family="sans-serif" font-size="12" lengthAdjust="spacingAndGlyphs" textLength="87" x="343.25" y="895.9102">DataFileRunner</text><line style="stroke: #A80036; stroke-width: 1.5;" x1="285" x2="457" y1="907" y2="907"/><line style="stroke: #A80036; stroke-width: 1.5;" x1="285" x2="457" y1="915" y2="915"/><ellipse cx="295" cy="927.418" fill="#84BE84" rx="3" ry="3" style="stroke: #038048; stroke-width: 1.0;"/><text fill="#000000" font-family="sans-serif" font-size="11" lengthAdjust="spacingAndGlyphs" textLength="56" x="304" y="930.4189">void &lt;init&gt;()</text><ellipse cx="295" cy="941.2539" fill="#84BE84" rx="3" ry="3" style="stroke: #038048; stroke-width: 1.0;"/><text fill="#000000" font-family="sans-serif" font-size="11" lengthAdjust="spacingAndGlyphs" textLength="148" x="304" y="944.2549">void execute(java.nio.file.Path)</text><!--class problem.ProcessRunner--><rect fill="#FEFECE" filter="url(#f14gxianca0ymb)" height="131.0156" id="problem.ProcessRunner" style="stroke: #A80036; stroke-width: 1.5;" width="177" x="263.5" y="601"/><ellipse cx="305.5" cy="617" fill="#A9DCDF" rx="11" ry="11" style="stroke: #A80036; stroke-width: 1.0;"/><path d="M307.6875,618.7656 L303.5469,618.7656 L303.125,619.7969 L303.5469,619.7969 Q304.1563,619.7969 304.4219,620.0313 Q304.6875,620.2656 304.6875,620.6563 Q304.6875,621.0313 304.4219,621.2656 Q304.1563,621.5 303.5469,621.5 L301.25,621.5 Q300.6406,621.5 300.3828,621.2656 Q300.125,621.0313 300.125,620.6406 Q300.125,620.2656 300.3984,620.0234 Q300.6719,619.7813 301.2969,619.7969 L303.9688,613.1406 L302.8594,613.1406 Q302.25,613.1406 301.9844,612.9063 Q301.7188,612.6719 301.7188,612.2813 Q301.7188,611.9063 301.9844,611.6719 Q302.25,611.4375 302.8594,611.4375 L306.5313,611.4375 L309.9219,619.7969 Q310.5156,619.7969 310.7031,619.9375 Q311.0938,620.2031 311.0938,620.6563 Q311.0938,621.0313 310.8359,621.2656 Q310.5781,621.5 309.9688,621.5 L307.6719,621.5 Q307.0625,621.5 306.7969,621.2656 Q306.5313,621.0313 306.5313,620.6406 Q306.5313,620.2656 306.7969,620.0313 Q307.0625,619.7969 307.6719,619.7969 L308.0938,619.7969 L307.6875,618.7656 Z M306.9688,617.0625 L305.6094,613.6875 L304.2344,617.0625 L306.9688,617.0625 Z "/><text fill="#000000" font-family="sans-serif" font-size="12" font-style="italic" lengthAdjust="spacingAndGlyphs" textLength="85" x="325.5" y="621.9102">ProcessRunner</text><line style="stroke: #A80036; stroke-width: 1.5;" x1="264.5" x2="439.5" y1="633" y2="633"/><rect fill="none" height="6" style="stroke: #C82930; stroke-width: 1.0;" width="6" x="271.5" y="642.418"/><text fill="#000000" font-family="sans-serif" font-size="11" lengthAdjust="spacingAndGlyphs" textLength="111" x="283.5" y="648.4189">java.util.List processes</text><rect fill="none" height="6" style="stroke: #C82930; stroke-width: 1.0;" width="6" x="271.5" y="656.2539"/><text fill="#000000" font-family="sans-serif" font-size="11" lengthAdjust="spacingAndGlyphs" textLength="123" x="283.5" y="662.2549">java.lang.String command</text><line style="stroke: #A80036; stroke-width: 1.5;" x1="264.5" x2="439.5" y1="668.6719" y2="668.6719"/><ellipse cx="274.5" cy="681.0898" fill="#84BE84" rx="3" ry="3" style="stroke: #038048; stroke-width: 1.0;"/><text fill="#000000" font-family="sans-serif" font-size="11" lengthAdjust="spacingAndGlyphs" textLength="56" x="283.5" y="684.0908">void &lt;init&gt;()</text><ellipse cx="274.5" cy="694.9258" fill="#84BE84" rx="3" ry="3" style="stroke: #038048; stroke-width: 1.0;"/><text fill="#000000" font-family="sans-serif" font-size="11" lengthAdjust="spacingAndGlyphs" textLength="134" x="283.5" y="697.9268">java.util.List getProcesses()</text><ellipse cx="274.5" cy="708.7617" fill="#84BE84" rx="3" ry="3" style="stroke: #038048; stroke-width: 1.0;"/><text fill="#000000" font-family="sans-serif" font-size="11" lengthAdjust="spacingAndGlyphs" textLength="147" x="283.5" y="711.7627">java.lang.String getCommand()</text><ellipse cx="274.5" cy="722.5977" fill="#84BE84" rx="3" ry="3" style="stroke: #038048; stroke-width: 1.0;"/><text fill="#000000" font-family="sans-serif" font-size="11" font-style="italic" lengthAdjust="spacingAndGlyphs" textLength="151" x="283.5" y="725.5986">void execute(java.nio.file.Path)</text><!--class problem.DirectoryChangeLogger--><rect fill="#FEFECE" filter="url(#f14gxianca0ymb)" height="117.1797" id="problem.DirectoryChangeLogger" style="stroke: #A80036; stroke-width: 1.5;" width="256" x="449" y="1223"/><ellipse cx="507.25" cy="1239" fill="#ADD1B2" rx="11" ry="11" style="stroke: #A80036; stroke-width: 1.0;"/><path d="M510.0156,1234.875 Q510.1719,1234.6563 510.3594,1234.5469 Q510.5469,1234.4375 510.7656,1234.4375 Q511.1406,1234.4375 511.375,1234.6953 Q511.6094,1234.9531 511.6094,1235.5625 L511.6094,1237.0156 Q511.6094,1237.625 511.375,1237.8906 Q511.1406,1238.1563 510.7656,1238.1563 Q510.4219,1238.1563 510.2188,1237.9531 Q510.0156,1237.7656 509.9063,1237.25 Q509.8594,1236.8906 509.6719,1236.7031 Q509.3438,1236.3281 508.7344,1236.1094 Q508.125,1235.8906 507.5,1235.8906 Q506.7344,1235.8906 506.1016,1236.2188 Q505.4688,1236.5469 504.9766,1237.2969 Q504.4844,1238.0469 504.4844,1239.0781 L504.4844,1240.1719 Q504.4844,1241.4063 505.375,1242.2266 Q506.2656,1243.0469 507.8594,1243.0469 Q508.7969,1243.0469 509.4531,1242.7969 Q509.8438,1242.6406 510.2656,1242.2031 Q510.5313,1241.9375 510.6797,1241.8594 Q510.8281,1241.7813 511.0313,1241.7813 Q511.3594,1241.7813 511.6172,1242.0391 Q511.875,1242.2969 511.875,1242.6406 Q511.875,1242.9844 511.5313,1243.3906 Q511.0313,1243.9688 510.2344,1244.2969 Q509.1563,1244.75 507.8594,1244.75 Q506.3438,1244.75 505.1406,1244.125 Q504.1563,1243.625 503.4688,1242.5547 Q502.7813,1241.4844 502.7813,1240.2031 L502.7813,1239.0469 Q502.7813,1237.7188 503.3984,1236.5703 Q504.0156,1235.4219 505.1094,1234.8047 Q506.2031,1234.1875 507.4375,1234.1875 Q508.1719,1234.1875 508.8203,1234.3516 Q509.4688,1234.5156 510.0156,1234.875 Z "/><text fill="#000000" font-family="sans-serif" font-size="12" lengthAdjust="spacingAndGlyphs" textLength="131" x="527.75" y="1243.9102">DirectoryChangeLogger</text><line style="stroke: #A80036; stroke-width: 1.5;" x1="450" x2="704" y1="1255" y2="1255"/><rect fill="none" height="6" style="stroke: #C82930; stroke-width: 1.0;" width="6" x="457" y="1264.418"/><text fill="#000000" font-family="sans-serif" font-size="11" lengthAdjust="spacingAndGlyphs" textLength="87" x="469" y="1270.4189">java.nio.file.Path p</text><rect fill="none" height="6" style="stroke: #C82930; stroke-width: 1.0;" width="6" x="457" y="1278.2539"/><text fill="#000000" font-family="sans-serif" font-size="11" lengthAdjust="spacingAndGlyphs" textLength="77" x="469" y="1284.2549">boolean running</text><line style="stroke: #A80036; stroke-width: 1.5;" x1="450" x2="704" y1="1290.6719" y2="1290.6719"/><ellipse cx="460" cy="1303.0898" fill="#84BE84" rx="3" ry="3" style="stroke: #038048; stroke-width: 1.0;"/><text fill="#000000" font-family="sans-serif" font-size="11" lengthAdjust="spacingAndGlyphs" textLength="56" x="469" y="1306.0908">void &lt;init&gt;()</text><ellipse cx="460" cy="1316.9258" fill="#84BE84" rx="3" ry="3" style="stroke: #038048; stroke-width: 1.0;"/><text fill="#000000" font-family="sans-serif" font-size="11" lengthAdjust="spacingAndGlyphs" textLength="230" x="469" y="1319.9268">void DirectoryChanged(problem.DirectoryEvent)</text><ellipse cx="460" cy="1330.7617" fill="#84BE84" rx="3" ry="3" style="stroke: #038048; stroke-width: 1.0;"/><text fill="#000000" font-family="sans-serif" font-size="11" lengthAdjust="spacingAndGlyphs" textLength="96" x="469" y="1333.7627">boolean isRunning()</text><!--class problem.DirectoryEvent--><rect fill="#FEFECE" filter="url(#f14gxianca0ymb)" height="144.8516" id="problem.DirectoryEvent" style="stroke: #A80036; stroke-width: 1.5;" width="397" x="513.5" y="594"/><ellipse cx="668.75" cy="610" fill="#ADD1B2" rx="11" ry="11" style="stroke: #A80036; stroke-width: 1.0;"/><path d="M671.5156,605.875 Q671.6719,605.6563 671.8594,605.5469 Q672.0469,605.4375 672.2656,605.4375 Q672.6406,605.4375 672.875,605.6953 Q673.1094,605.9531 673.1094,606.5625 L673.1094,608.0156 Q673.1094,608.625 672.875,608.8906 Q672.6406,609.1563 672.2656,609.1563 Q671.9219,609.1563 671.7188,608.9531 Q671.5156,608.7656 671.4063,608.25 Q671.3594,607.8906 671.1719,607.7031 Q670.8438,607.3281 670.2344,607.1094 Q669.625,606.8906 669,606.8906 Q668.2344,606.8906 667.6016,607.2188 Q666.9688,607.5469 666.4766,608.2969 Q665.9844,609.0469 665.9844,610.0781 L665.9844,611.1719 Q665.9844,612.4063 666.875,613.2266 Q667.7656,614.0469 669.3594,614.0469 Q670.2969,614.0469 670.9531,613.7969 Q671.3438,613.6406 671.7656,613.2031 Q672.0313,612.9375 672.1797,612.8594 Q672.3281,612.7813 672.5313,612.7813 Q672.8594,612.7813 673.1172,613.0391 Q673.375,613.2969 673.375,613.6406 Q673.375,613.9844 673.0313,614.3906 Q672.5313,614.9688 671.7344,615.2969 Q670.6563,615.75 669.3594,615.75 Q667.8438,615.75 666.6406,615.125 Q665.6563,614.625 664.9688,613.5547 Q664.2813,612.4844 664.2813,611.2031 L664.2813,610.0469 Q664.2813,608.7188 664.8984,607.5703 Q665.5156,606.4219 666.6094,605.8047 Q667.7031,605.1875 668.9375,605.1875 Q669.6719,605.1875 670.3203,605.3516 Q670.9688,605.5156 671.5156,605.875 Z "/><text fill="#000000" font-family="sans-serif" font-size="12" lengthAdjust="spacingAndGlyphs" textLength="78" x="689.25" y="614.9102">DirectoryEvent</text><line style="stroke: #A80036; stroke-width: 1.5;" x1="514.5" x2="909.5" y1="626" y2="626"/><rect fill="none" height="6" style="stroke: #C82930; stroke-width: 1.0;" width="6" x="521.5" y="635.418"/><text fill="#000000" font-family="sans-serif" font-size="11" lengthAdjust="spacingAndGlyphs" textLength="128" x="533.5" y="641.4189">java.lang.String eventType</text><rect fill="none" height="6" style="stroke: #C82930; stroke-width: 1.0;" width="6" x="521.5" y="649.2539"/><text fill="#000000" font-family="sans-serif" font-size="11" lengthAdjust="spacingAndGlyphs" textLength="95" x="533.5" y="655.2549">java.nio.file.Path file</text><rect fill="none" height="6" style="stroke: #C82930; stroke-width: 1.0;" width="6" x="521.5" y="663.0898"/><text fill="#000000" font-family="sans-serif" font-size="11" lengthAdjust="spacingAndGlyphs" textLength="194" x="533.5" y="669.0908">problem.DirectoryMonitorService source</text><line style="stroke: #A80036; stroke-width: 1.5;" x1="514.5" x2="909.5" y1="675.5078" y2="675.5078"/><ellipse cx="524.5" cy="687.9258" fill="#84BE84" rx="3" ry="3" style="stroke: #038048; stroke-width: 1.0;"/><text fill="#000000" font-family="sans-serif" font-size="11" lengthAdjust="spacingAndGlyphs" textLength="371" x="533.5" y="690.9268">void &lt;init&gt;(java.lang.String,java.nio.file.Path,problem.DirectoryMonitorService)</text><ellipse cx="524.5" cy="701.7617" fill="#84BE84" rx="3" ry="3" style="stroke: #038048; stroke-width: 1.0;"/><text fill="#000000" font-family="sans-serif" font-size="11" lengthAdjust="spacingAndGlyphs" textLength="151" x="533.5" y="704.7627">java.lang.String getEventType()</text><ellipse cx="524.5" cy="715.5977" fill="#84BE84" rx="3" ry="3" style="stroke: #038048; stroke-width: 1.0;"/><text fill="#000000" font-family="sans-serif" font-size="11" lengthAdjust="spacingAndGlyphs" textLength="120" x="533.5" y="718.5986">java.nio.file.Path getFile()</text><ellipse cx="524.5" cy="729.4336" fill="#84BE84" rx="3" ry="3" style="stroke: #038048; stroke-width: 1.0;"/><text fill="#000000" font-family="sans-serif" font-size="11" lengthAdjust="spacingAndGlyphs" textLength="218" x="533.5" y="732.4346">problem.DirectoryMonitorService getSource()</text><!--class problem.DirectoryMonitorService--><rect fill="#FEFECE" filter="url(#f14gxianca0ymb)" height="227.8672" id="problem.DirectoryMonitorService" style="stroke: #A80036; stroke-width: 1.5;" width="344" x="604" y="799"/><ellipse cx="707.75" cy="815" fill="#ADD1B2" rx="11" ry="11" style="stroke: #A80036; stroke-width: 1.0;"/><path d="M710.5156,810.875 Q710.6719,810.6563 710.8594,810.5469 Q711.0469,810.4375 711.2656,810.4375 Q711.6406,810.4375 711.875,810.6953 Q712.1094,810.9531 712.1094,811.5625 L712.1094,813.0156 Q712.1094,813.625 711.875,813.8906 Q711.6406,814.1563 711.2656,814.1563 Q710.9219,814.1563 710.7188,813.9531 Q710.5156,813.7656 710.4063,813.25 Q710.3594,812.8906 710.1719,812.7031 Q709.8438,812.3281 709.2344,812.1094 Q708.625,811.8906 708,811.8906 Q707.2344,811.8906 706.6016,812.2188 Q705.9688,812.5469 705.4766,813.2969 Q704.9844,814.0469 704.9844,815.0781 L704.9844,816.1719 Q704.9844,817.4063 705.875,818.2266 Q706.7656,819.0469 708.3594,819.0469 Q709.2969,819.0469 709.9531,818.7969 Q710.3438,818.6406 710.7656,818.2031 Q711.0313,817.9375 711.1797,817.8594 Q711.3281,817.7813 711.5313,817.7813 Q711.8594,817.7813 712.1172,818.0391 Q712.375,818.2969 712.375,818.6406 Q712.375,818.9844 712.0313,819.3906 Q711.5313,819.9688 710.7344,820.2969 Q709.6563,820.75 708.3594,820.75 Q706.8438,820.75 705.6406,820.125 Q704.6563,819.625 703.9688,818.5547 Q703.2813,817.4844 703.2813,816.2031 L703.2813,815.0469 Q703.2813,813.7188 703.8984,812.5703 Q704.5156,811.4219 705.6094,810.8047 Q706.7031,810.1875 707.9375,810.1875 Q708.6719,810.1875 709.3203,810.3516 Q709.9688,810.5156 710.5156,810.875 Z "/><text fill="#000000" font-family="sans-serif" font-size="12" lengthAdjust="spacingAndGlyphs" textLength="128" x="728.25" y="819.9102">DirectoryMonitorService</text><line style="stroke: #A80036; stroke-width: 1.5;" x1="605" x2="947" y1="831" y2="831"/><rect fill="none" height="6" style="stroke: #C82930; stroke-width: 1.0;" width="6" x="612" y="840.418"/><text fill="#000000" font-family="sans-serif" font-size="11" lengthAdjust="spacingAndGlyphs" textLength="77" x="624" y="846.4189">boolean running</text><rect fill="none" height="6" style="stroke: #C82930; stroke-width: 1.0;" width="6" x="612" y="854.2539"/><text fill="#000000" font-family="sans-serif" font-size="11" lengthAdjust="spacingAndGlyphs" textLength="129" x="624" y="860.2549">java.util.Collection listeners</text><rect fill="none" height="6" style="stroke: #C82930; stroke-width: 1.0;" width="6" x="612" y="868.0898"/><text fill="#000000" font-family="sans-serif" font-size="11" lengthAdjust="spacingAndGlyphs" textLength="93" x="624" y="874.0908">java.nio.file.Path dir</text><rect fill="none" height="6" style="stroke: #C82930; stroke-width: 1.0;" width="6" x="612" y="881.9258"/><text fill="#000000" font-family="sans-serif" font-size="11" lengthAdjust="spacingAndGlyphs" textLength="169" x="624" y="887.9268">java.nio.file.WatchService watcher</text><line style="stroke: #A80036; stroke-width: 1.5;" x1="605" x2="947" y1="894.3438" y2="894.3438"/><ellipse cx="615" cy="906.7617" fill="#84BE84" rx="3" ry="3" style="stroke: #038048; stroke-width: 1.0;"/><text fill="#000000" font-family="sans-serif" font-size="11" lengthAdjust="spacingAndGlyphs" textLength="134" x="624" y="909.7627">void &lt;init&gt;(java.nio.file.Path)</text><ellipse cx="615" cy="920.5977" fill="#84BE84" rx="3" ry="3" style="stroke: #038048; stroke-width: 1.0;"/><text fill="#000000" font-family="sans-serif" font-size="11" lengthAdjust="spacingAndGlyphs" textLength="47" x="624" y="923.5986">void run()</text><ellipse cx="615" cy="934.4336" fill="#84BE84" rx="3" ry="3" style="stroke: #038048; stroke-width: 1.0;"/><text fill="#000000" font-family="sans-serif" font-size="11" lengthAdjust="spacingAndGlyphs" textLength="96" x="624" y="937.4346">boolean isRunning()</text><ellipse cx="615" cy="948.2695" fill="#84BE84" rx="3" ry="3" style="stroke: #038048; stroke-width: 1.0;"/><text fill="#000000" font-family="sans-serif" font-size="11" lengthAdjust="spacingAndGlyphs" textLength="102" x="624" y="951.2705">void stopGracefully()</text><ellipse cx="615" cy="962.1055" fill="#84BE84" rx="3" ry="3" style="stroke: #038048; stroke-width: 1.0;"/><text fill="#000000" font-family="sans-serif" font-size="11" lengthAdjust="spacingAndGlyphs" textLength="118" x="624" y="965.1064">int getApplicationCount()</text><ellipse cx="615" cy="975.9414" fill="#84BE84" rx="3" ry="3" style="stroke: #038048; stroke-width: 1.0;"/><text fill="#000000" font-family="sans-serif" font-size="11" lengthAdjust="spacingAndGlyphs" textLength="214" x="624" y="978.9424">void addListener(problem.IDirectoryListener)</text><ellipse cx="615" cy="989.7773" fill="#84BE84" rx="3" ry="3" style="stroke: #038048; stroke-width: 1.0;"/><text fill="#000000" font-family="sans-serif" font-size="11" lengthAdjust="spacingAndGlyphs" textLength="232" x="624" y="992.7783">void removeListener(problem.IDirectoryListener)</text><rect fill="#F24D5C" height="6" style="stroke: #C82930; stroke-width: 1.0;" width="6" x="612" y="1000.6133"/><text fill="#000000" font-family="sans-serif" font-size="11" lengthAdjust="spacingAndGlyphs" textLength="215" x="624" y="1006.6143">void notifyListeners(problem.DirectoryEvent)</text><rect fill="#F24D5C" height="6" style="stroke: #C82930; stroke-width: 1.0;" width="6" x="612" y="1014.4492"/><text fill="#000000" font-family="sans-serif" font-size="11" lengthAdjust="spacingAndGlyphs" text-decoration="underline" textLength="318" x="624" y="1020.4502">void lambda$0(problem.DirectoryEvent,problem.IDirectoryListener)</text><line style="stroke: #000000; stroke-width: 1.0;" x1="624" x2="942" y1="1022.4502" y2="1022.4502"/><!--class problem.ExecutableFileListener--><rect fill="#FEFECE" filter="url(#f14gxianca0ymb)" height="75.6719" id="problem.ExecutableFileListener" style="stroke: #A80036; stroke-width: 1.5;" width="174" x="75" y="875"/><ellipse cx="97.65" cy="891" fill="#ADD1B2" rx="11" ry="11" style="stroke: #A80036; stroke-width: 1.0;"/><path d="M100.4156,886.875 Q100.5719,886.6563 100.7594,886.5469 Q100.9469,886.4375 101.1656,886.4375 Q101.5406,886.4375 101.775,886.6953 Q102.0094,886.9531 102.0094,887.5625 L102.0094,889.0156 Q102.0094,889.625 101.775,889.8906 Q101.5406,890.1563 101.1656,890.1563 Q100.8219,890.1563 100.6188,889.9531 Q100.4156,889.7656 100.3063,889.25 Q100.2594,888.8906 100.0719,888.7031 Q99.7438,888.3281 99.1344,888.1094 Q98.525,887.8906 97.9,887.8906 Q97.1344,887.8906 96.5016,888.2188 Q95.8688,888.5469 95.3766,889.2969 Q94.8844,890.0469 94.8844,891.0781 L94.8844,892.1719 Q94.8844,893.4063 95.775,894.2266 Q96.6656,895.0469 98.2594,895.0469 Q99.1969,895.0469 99.8531,894.7969 Q100.2438,894.6406 100.6656,894.2031 Q100.9313,893.9375 101.0797,893.8594 Q101.2281,893.7813 101.4313,893.7813 Q101.7594,893.7813 102.0172,894.0391 Q102.275,894.2969 102.275,894.6406 Q102.275,894.9844 101.9313,895.3906 Q101.4313,895.9688 100.6344,896.2969 Q99.5563,896.75 98.2594,896.75 Q96.7438,896.75 95.5406,896.125 Q94.5563,895.625 93.8688,894.5547 Q93.1813,893.4844 93.1813,892.2031 L93.1813,891.0469 Q93.1813,889.7188 93.7984,888.5703 Q94.4156,887.4219 95.5094,886.8047 Q96.6031,886.1875 97.8375,886.1875 Q98.5719,886.1875 99.2203,886.3516 Q99.8688,886.5156 100.4156,886.875 Z "/><text fill="#000000" font-family="sans-serif" font-size="12" lengthAdjust="spacingAndGlyphs" textLength="125" x="113.35" y="895.9102">ExecutableFileListener</text><line style="stroke: #A80036; stroke-width: 1.5;" x1="76" x2="248" y1="907" y2="907"/><line style="stroke: #A80036; stroke-width: 1.5;" x1="76" x2="248" y1="915" y2="915"/><ellipse cx="86" cy="927.418" fill="#84BE84" rx="3" ry="3" style="stroke: #038048; stroke-width: 1.0;"/><text fill="#000000" font-family="sans-serif" font-size="11" lengthAdjust="spacingAndGlyphs" textLength="56" x="95" y="930.4189">void &lt;init&gt;()</text><ellipse cx="86" cy="941.2539" fill="#84BE84" rx="3" ry="3" style="stroke: #038048; stroke-width: 1.0;"/><text fill="#000000" font-family="sans-serif" font-size="11" lengthAdjust="spacingAndGlyphs" textLength="148" x="95" y="944.2549">void execute(java.nio.file.Path)</text><!--class NewTestStructure.DataFileRunnerTest--><rect fill="#FEFECE" filter="url(#f14gxianca0ymb)" height="200.1953" id="NewTestStructure.DataFileRunnerTest" style="stroke: #A80036; stroke-width: 1.5;" width="228" x="1004" y="60"/><ellipse cx="1058.25" cy="76" fill="#ADD1B2" rx="11" ry="11" style="stroke: #A80036; stroke-width: 1.0;"/><path d="M1061.0156,71.875 Q1061.1719,71.6563 1061.3594,71.5469 Q1061.5469,71.4375 1061.7656,71.4375 Q1062.1406,71.4375 1062.375,71.6953 Q1062.6094,71.9531 1062.6094,72.5625 L1062.6094,74.0156 Q1062.6094,74.625 1062.375,74.8906 Q1062.1406,75.1563 1061.7656,75.1563 Q1061.4219,75.1563 1061.2188,74.9531 Q1061.0156,74.7656 1060.9063,74.25 Q1060.8594,73.8906 1060.6719,73.7031 Q1060.3438,73.3281 1059.7344,73.1094 Q1059.125,72.8906 1058.5,72.8906 Q1057.7344,72.8906 1057.1016,73.2188 Q1056.4688,73.5469 1055.9766,74.2969 Q1055.4844,75.0469 1055.4844,76.0781 L1055.4844,77.1719 Q1055.4844,78.4063 1056.375,79.2266 Q1057.2656,80.0469 1058.8594,80.0469 Q1059.7969,80.0469 1060.4531,79.7969 Q1060.8438,79.6406 1061.2656,79.2031 Q1061.5313,78.9375 1061.6797,78.8594 Q1061.8281,78.7813 1062.0313,78.7813 Q1062.3594,78.7813 1062.6172,79.0391 Q1062.875,79.2969 1062.875,79.6406 Q1062.875,79.9844 1062.5313,80.3906 Q1062.0313,80.9688 1061.2344,81.2969 Q1060.1563,81.75 1058.8594,81.75 Q1057.3438,81.75 1056.1406,81.125 Q1055.1563,80.625 1054.4688,79.5547 Q1053.7813,78.4844 1053.7813,77.2031 L1053.7813,76.0469 Q1053.7813,74.7188 1054.3984,73.5703 Q1055.0156,72.4219 1056.1094,71.8047 Q1057.2031,71.1875 1058.4375,71.1875 Q1059.1719,71.1875 1059.8203,71.3516 Q1060.4688,71.5156 1061.0156,71.875 Z "/><text fill="#000000" font-family="sans-serif" font-size="12" lengthAdjust="spacingAndGlyphs" textLength="111" x="1078.75" y="80.9102">DataFileRunnerTest</text><line style="stroke: #A80036; stroke-width: 1.5;" x1="1005" x2="1231" y1="92" y2="92"/><rect fill="none" height="6" style="stroke: #C82930; stroke-width: 1.0;" width="6" x="1012" y="101.418"/><text fill="#000000" font-family="sans-serif" font-size="11" lengthAdjust="spacingAndGlyphs" textLength="202" x="1024" y="107.4189">problem.DirectoryMonitorService launcher</text><rect fill="none" height="6" style="stroke: #C82930; stroke-width: 1.0;" width="6" x="1012" y="115.2539"/><text fill="#000000" font-family="sans-serif" font-size="11" lengthAdjust="spacingAndGlyphs" textLength="114" x="1024" y="121.2549">java.lang.String baseDir</text><rect fill="none" height="6" style="stroke: #C82930; stroke-width: 1.0;" width="6" x="1012" y="129.0898"/><text fill="#000000" font-family="sans-serif" font-size="11" lengthAdjust="spacingAndGlyphs" textLength="124" x="1024" y="135.0908">java.lang.String srcTxtFile</text><rect fill="none" height="6" style="stroke: #C82930; stroke-width: 1.0;" width="6" x="1012" y="142.9258"/><text fill="#000000" font-family="sans-serif" font-size="11" lengthAdjust="spacingAndGlyphs" textLength="129" x="1024" y="148.9268">java.lang.String destTxtFile</text><rect fill="none" height="6" style="stroke: #C82930; stroke-width: 1.0;" width="6" x="1012" y="156.7617"/><text fill="#000000" font-family="sans-serif" font-size="11" lengthAdjust="spacingAndGlyphs" textLength="129" x="1024" y="162.7627">java.lang.String srcHtmlFile</text><rect fill="none" height="6" style="stroke: #C82930; stroke-width: 1.0;" width="6" x="1012" y="170.5977"/><text fill="#000000" font-family="sans-serif" font-size="11" lengthAdjust="spacingAndGlyphs" textLength="134" x="1024" y="176.5986">java.lang.String destHtmlFile</text><line style="stroke: #A80036; stroke-width: 1.5;" x1="1005" x2="1231" y1="183.0156" y2="183.0156"/><ellipse cx="1015" cy="195.4336" fill="#84BE84" rx="3" ry="3" style="stroke: #038048; stroke-width: 1.0;"/><text fill="#000000" font-family="sans-serif" font-size="11" lengthAdjust="spacingAndGlyphs" textLength="56" x="1024" y="198.4346">void &lt;init&gt;()</text><ellipse cx="1015" cy="209.2695" fill="#84BE84" rx="3" ry="3" style="stroke: #038048; stroke-width: 1.0;"/><text fill="#000000" font-family="sans-serif" font-size="11" lengthAdjust="spacingAndGlyphs" textLength="59" x="1024" y="212.2705">void setUp()</text><ellipse cx="1015" cy="223.1055" fill="#84BE84" rx="3" ry="3" style="stroke: #038048; stroke-width: 1.0;"/><text fill="#000000" font-family="sans-serif" font-size="11" lengthAdjust="spacingAndGlyphs" textLength="79" x="1024" y="226.1064">void tearDown()</text><ellipse cx="1015" cy="236.9414" fill="#84BE84" rx="3" ry="3" style="stroke: #038048; stroke-width: 1.0;"/><text fill="#000000" font-family="sans-serif" font-size="11" lengthAdjust="spacingAndGlyphs" textLength="162" x="1024" y="239.9424">void testLaunchDefaultBrowser()</text><ellipse cx="1015" cy="250.7773" fill="#84BE84" rx="3" ry="3" style="stroke: #038048; stroke-width: 1.0;"/><text fill="#000000" font-family="sans-serif" font-size="11" lengthAdjust="spacingAndGlyphs" textLength="125" x="1024" y="253.7783">void testLaunchNotepad()</text><!--class NewTestStructure.DirectoryChangeLoggerTest--><rect fill="#FEFECE" filter="url(#f14gxianca0ymb)" height="186.3594" id="NewTestStructure.DirectoryChangeLoggerTest" style="stroke: #A80036; stroke-width: 1.5;" width="228" x="1918" y="67"/><ellipse cx="1951.45" cy="83" fill="#ADD1B2" rx="11" ry="11" style="stroke: #A80036; stroke-width: 1.0;"/><path d="M1954.2156,78.875 Q1954.3719,78.6563 1954.5594,78.5469 Q1954.7469,78.4375 1954.9656,78.4375 Q1955.3406,78.4375 1955.575,78.6953 Q1955.8094,78.9531 1955.8094,79.5625 L1955.8094,81.0156 Q1955.8094,81.625 1955.575,81.8906 Q1955.3406,82.1563 1954.9656,82.1563 Q1954.6219,82.1563 1954.4188,81.9531 Q1954.2156,81.7656 1954.1063,81.25 Q1954.0594,80.8906 1953.8719,80.7031 Q1953.5438,80.3281 1952.9344,80.1094 Q1952.325,79.8906 1951.7,79.8906 Q1950.9344,79.8906 1950.3016,80.2188 Q1949.6688,80.5469 1949.1766,81.2969 Q1948.6844,82.0469 1948.6844,83.0781 L1948.6844,84.1719 Q1948.6844,85.4063 1949.575,86.2266 Q1950.4656,87.0469 1952.0594,87.0469 Q1952.9969,87.0469 1953.6531,86.7969 Q1954.0438,86.6406 1954.4656,86.2031 Q1954.7313,85.9375 1954.8797,85.8594 Q1955.0281,85.7813 1955.2313,85.7813 Q1955.5594,85.7813 1955.8172,86.0391 Q1956.075,86.2969 1956.075,86.6406 Q1956.075,86.9844 1955.7313,87.3906 Q1955.2313,87.9688 1954.4344,88.2969 Q1953.3563,88.75 1952.0594,88.75 Q1950.5438,88.75 1949.3406,88.125 Q1948.3563,87.625 1947.6688,86.5547 Q1946.9813,85.4844 1946.9813,84.2031 L1946.9813,83.0469 Q1946.9813,81.7188 1947.5984,80.5703 Q1948.2156,79.4219 1949.3094,78.8047 Q1950.4031,78.1875 1951.6375,78.1875 Q1952.3719,78.1875 1953.0203,78.3516 Q1953.6688,78.5156 1954.2156,78.875 Z "/><text fill="#000000" font-family="sans-serif" font-size="12" lengthAdjust="spacingAndGlyphs" textLength="155" x="1969.55" y="87.9102">DirectoryChangeLoggerTest</text><line style="stroke: #A80036; stroke-width: 1.5;" x1="1919" x2="2145" y1="99" y2="99"/><rect fill="none" height="6" style="stroke: #C82930; stroke-width: 1.0;" width="6" x="1926" y="108.418"/><text fill="#000000" font-family="sans-serif" font-size="11" lengthAdjust="spacingAndGlyphs" textLength="202" x="1938" y="114.4189">problem.DirectoryMonitorService launcher</text><rect fill="none" height="6" style="stroke: #C82930; stroke-width: 1.0;" width="6" x="1926" y="122.2539"/><text fill="#000000" font-family="sans-serif" font-size="11" lengthAdjust="spacingAndGlyphs" textLength="114" x="1938" y="128.2549">java.lang.String baseDir</text><rect fill="none" height="6" style="stroke: #C82930; stroke-width: 1.0;" width="6" x="1926" y="136.0898"/><text fill="#000000" font-family="sans-serif" font-size="11" lengthAdjust="spacingAndGlyphs" textLength="124" x="1938" y="142.0908">java.lang.String srcTxtFile</text><rect fill="none" height="6" style="stroke: #C82930; stroke-width: 1.0;" width="6" x="1926" y="149.9258"/><text fill="#000000" font-family="sans-serif" font-size="11" lengthAdjust="spacingAndGlyphs" textLength="129" x="1938" y="155.9268">java.lang.String destTxtFile</text><rect fill="none" height="6" style="stroke: #C82930; stroke-width: 1.0;" width="6" x="1926" y="163.7617"/><text fill="#000000" font-family="sans-serif" font-size="11" lengthAdjust="spacingAndGlyphs" textLength="129" x="1938" y="169.7627">java.lang.String srcHtmlFile</text><rect fill="none" height="6" style="stroke: #C82930; stroke-width: 1.0;" width="6" x="1926" y="177.5977"/><text fill="#000000" font-family="sans-serif" font-size="11" lengthAdjust="spacingAndGlyphs" textLength="134" x="1938" y="183.5986">java.lang.String destHtmlFile</text><line style="stroke: #A80036; stroke-width: 1.5;" x1="1919" x2="2145" y1="190.0156" y2="190.0156"/><ellipse cx="1929" cy="202.4336" fill="#84BE84" rx="3" ry="3" style="stroke: #038048; stroke-width: 1.0;"/><text fill="#000000" font-family="sans-serif" font-size="11" lengthAdjust="spacingAndGlyphs" textLength="56" x="1938" y="205.4346">void &lt;init&gt;()</text><ellipse cx="1929" cy="216.2695" fill="#84BE84" rx="3" ry="3" style="stroke: #038048; stroke-width: 1.0;"/><text fill="#000000" font-family="sans-serif" font-size="11" lengthAdjust="spacingAndGlyphs" textLength="59" x="1938" y="219.2705">void setUp()</text><ellipse cx="1929" cy="230.1055" fill="#84BE84" rx="3" ry="3" style="stroke: #038048; stroke-width: 1.0;"/><text fill="#000000" font-family="sans-serif" font-size="11" lengthAdjust="spacingAndGlyphs" textLength="79" x="1938" y="233.1064">void tearDown()</text><ellipse cx="1929" cy="243.9414" fill="#84BE84" rx="3" ry="3" style="stroke: #038048; stroke-width: 1.0;"/><text fill="#000000" font-family="sans-serif" font-size="11" lengthAdjust="spacingAndGlyphs" textLength="125" x="1938" y="246.9424">void testLaunchNotepad()</text><!--class NewTestStructure.DirectoryEventTest--><rect fill="#FEFECE" filter="url(#f14gxianca0ymb)" height="75.6719" id="NewTestStructure.DirectoryEventTest" style="stroke: #A80036; stroke-width: 1.5;" width="134" x="1530" y="122"/><ellipse cx="1545" cy="138" fill="#ADD1B2" rx="11" ry="11" style="stroke: #A80036; stroke-width: 1.0;"/><path d="M1547.7656,133.875 Q1547.9219,133.6563 1548.1094,133.5469 Q1548.2969,133.4375 1548.5156,133.4375 Q1548.8906,133.4375 1549.125,133.6953 Q1549.3594,133.9531 1549.3594,134.5625 L1549.3594,136.0156 Q1549.3594,136.625 1549.125,136.8906 Q1548.8906,137.1563 1548.5156,137.1563 Q1548.1719,137.1563 1547.9688,136.9531 Q1547.7656,136.7656 1547.6563,136.25 Q1547.6094,135.8906 1547.4219,135.7031 Q1547.0938,135.3281 1546.4844,135.1094 Q1545.875,134.8906 1545.25,134.8906 Q1544.4844,134.8906 1543.8516,135.2188 Q1543.2188,135.5469 1542.7266,136.2969 Q1542.2344,137.0469 1542.2344,138.0781 L1542.2344,139.1719 Q1542.2344,140.4063 1543.125,141.2266 Q1544.0156,142.0469 1545.6094,142.0469 Q1546.5469,142.0469 1547.2031,141.7969 Q1547.5938,141.6406 1548.0156,141.2031 Q1548.2813,140.9375 1548.4297,140.8594 Q1548.5781,140.7813 1548.7813,140.7813 Q1549.1094,140.7813 1549.3672,141.0391 Q1549.625,141.2969 1549.625,141.6406 Q1549.625,141.9844 1549.2813,142.3906 Q1548.7813,142.9688 1547.9844,143.2969 Q1546.9063,143.75 1545.6094,143.75 Q1544.0938,143.75 1542.8906,143.125 Q1541.9063,142.625 1541.2188,141.5547 Q1540.5313,140.4844 1540.5313,139.2031 L1540.5313,138.0469 Q1540.5313,136.7188 1541.1484,135.5703 Q1541.7656,134.4219 1542.8594,133.8047 Q1543.9531,133.1875 1545.1875,133.1875 Q1545.9219,133.1875 1546.5703,133.3516 Q1547.2188,133.5156 1547.7656,133.875 Z "/><text fill="#000000" font-family="sans-serif" font-size="12" lengthAdjust="spacingAndGlyphs" textLength="102" x="1559" y="142.9102">DirectoryEventTest</text><line style="stroke: #A80036; stroke-width: 1.5;" x1="1531" x2="1663" y1="154" y2="154"/><line style="stroke: #A80036; stroke-width: 1.5;" x1="1531" x2="1663" y1="162" y2="162"/><ellipse cx="1541" cy="174.418" fill="#84BE84" rx="3" ry="3" style="stroke: #038048; stroke-width: 1.0;"/><text fill="#000000" font-family="sans-serif" font-size="11" lengthAdjust="spacingAndGlyphs" textLength="56" x="1550" y="177.4189">void &lt;init&gt;()</text><ellipse cx="1541" cy="188.2539" fill="#84BE84" rx="3" ry="3" style="stroke: #038048; stroke-width: 1.0;"/><text fill="#000000" font-family="sans-serif" font-size="11" lengthAdjust="spacingAndGlyphs" textLength="49" x="1550" y="191.2549">void test()</text><!--class NewTestStructure.DirectoryMonitorServiceTest--><rect fill="#FEFECE" filter="url(#f14gxianca0ymb)" height="75.6719" id="NewTestStructure.DirectoryMonitorServiceTest" style="stroke: #A80036; stroke-width: 1.5;" width="184" x="1699" y="122"/><ellipse cx="1714" cy="138" fill="#ADD1B2" rx="11" ry="11" style="stroke: #A80036; stroke-width: 1.0;"/><path d="M1716.7656,133.875 Q1716.9219,133.6563 1717.1094,133.5469 Q1717.2969,133.4375 1717.5156,133.4375 Q1717.8906,133.4375 1718.125,133.6953 Q1718.3594,133.9531 1718.3594,134.5625 L1718.3594,136.0156 Q1718.3594,136.625 1718.125,136.8906 Q1717.8906,137.1563 1717.5156,137.1563 Q1717.1719,137.1563 1716.9688,136.9531 Q1716.7656,136.7656 1716.6563,136.25 Q1716.6094,135.8906 1716.4219,135.7031 Q1716.0938,135.3281 1715.4844,135.1094 Q1714.875,134.8906 1714.25,134.8906 Q1713.4844,134.8906 1712.8516,135.2188 Q1712.2188,135.5469 1711.7266,136.2969 Q1711.2344,137.0469 1711.2344,138.0781 L1711.2344,139.1719 Q1711.2344,140.4063 1712.125,141.2266 Q1713.0156,142.0469 1714.6094,142.0469 Q1715.5469,142.0469 1716.2031,141.7969 Q1716.5938,141.6406 1717.0156,141.2031 Q1717.2813,140.9375 1717.4297,140.8594 Q1717.5781,140.7813 1717.7813,140.7813 Q1718.1094,140.7813 1718.3672,141.0391 Q1718.625,141.2969 1718.625,141.6406 Q1718.625,141.9844 1718.2813,142.3906 Q1717.7813,142.9688 1716.9844,143.2969 Q1715.9063,143.75 1714.6094,143.75 Q1713.0938,143.75 1711.8906,143.125 Q1710.9063,142.625 1710.2188,141.5547 Q1709.5313,140.4844 1709.5313,139.2031 L1709.5313,138.0469 Q1709.5313,136.7188 1710.1484,135.5703 Q1710.7656,134.4219 1711.8594,133.8047 Q1712.9531,133.1875 1714.1875,133.1875 Q1714.9219,133.1875 1715.5703,133.3516 Q1716.2188,133.5156 1716.7656,133.875 Z "/><text fill="#000000" font-family="sans-serif" font-size="12" lengthAdjust="spacingAndGlyphs" textLength="152" x="1728" y="142.9102">DirectoryMonitorServiceTest</text><line style="stroke: #A80036; stroke-width: 1.5;" x1="1700" x2="1882" y1="154" y2="154"/><line style="stroke: #A80036; stroke-width: 1.5;" x1="1700" x2="1882" y1="162" y2="162"/><ellipse cx="1710" cy="174.418" fill="#84BE84" rx="3" ry="3" style="stroke: #038048; stroke-width: 1.0;"/><text fill="#000000" font-family="sans-serif" font-size="11" lengthAdjust="spacingAndGlyphs" textLength="56" x="1719" y="177.4189">void &lt;init&gt;()</text><ellipse cx="1710" cy="188.2539" fill="#84BE84" rx="3" ry="3" style="stroke: #038048; stroke-width: 1.0;"/><text fill="#000000" font-family="sans-serif" font-size="11" lengthAdjust="spacingAndGlyphs" textLength="72" x="1719" y="191.2549">void testStart()</text><!--class NewTestStructure.ExecutableFileListenerTest--><rect fill="#FEFECE" filter="url(#f14gxianca0ymb)" height="186.3594" id="NewTestStructure.ExecutableFileListenerTest" style="stroke: #A80036; stroke-width: 1.5;" width="228" x="1267" y="67"/><ellipse cx="1303.15" cy="83" fill="#ADD1B2" rx="11" ry="11" style="stroke: #A80036; stroke-width: 1.0;"/><path d="M1305.9156,78.875 Q1306.0719,78.6563 1306.2594,78.5469 Q1306.4469,78.4375 1306.6656,78.4375 Q1307.0406,78.4375 1307.275,78.6953 Q1307.5094,78.9531 1307.5094,79.5625 L1307.5094,81.0156 Q1307.5094,81.625 1307.275,81.8906 Q1307.0406,82.1563 1306.6656,82.1563 Q1306.3219,82.1563 1306.1188,81.9531 Q1305.9156,81.7656 1305.8063,81.25 Q1305.7594,80.8906 1305.5719,80.7031 Q1305.2438,80.3281 1304.6344,80.1094 Q1304.025,79.8906 1303.4,79.8906 Q1302.6344,79.8906 1302.0016,80.2188 Q1301.3688,80.5469 1300.8766,81.2969 Q1300.3844,82.0469 1300.3844,83.0781 L1300.3844,84.1719 Q1300.3844,85.4063 1301.275,86.2266 Q1302.1656,87.0469 1303.7594,87.0469 Q1304.6969,87.0469 1305.3531,86.7969 Q1305.7438,86.6406 1306.1656,86.2031 Q1306.4313,85.9375 1306.5797,85.8594 Q1306.7281,85.7813 1306.9313,85.7813 Q1307.2594,85.7813 1307.5172,86.0391 Q1307.775,86.2969 1307.775,86.6406 Q1307.775,86.9844 1307.4313,87.3906 Q1306.9313,87.9688 1306.1344,88.2969 Q1305.0563,88.75 1303.7594,88.75 Q1302.2438,88.75 1301.0406,88.125 Q1300.0563,87.625 1299.3688,86.5547 Q1298.6813,85.4844 1298.6813,84.2031 L1298.6813,83.0469 Q1298.6813,81.7188 1299.2984,80.5703 Q1299.9156,79.4219 1301.0094,78.8047 Q1302.1031,78.1875 1303.3375,78.1875 Q1304.0719,78.1875 1304.7203,78.3516 Q1305.3688,78.5156 1305.9156,78.875 Z "/><text fill="#000000" font-family="sans-serif" font-size="12" lengthAdjust="spacingAndGlyphs" textLength="149" x="1321.85" y="87.9102">ExecutableFileListenerTest</text><line style="stroke: #A80036; stroke-width: 1.5;" x1="1268" x2="1494" y1="99" y2="99"/><rect fill="none" height="6" style="stroke: #C82930; stroke-width: 1.0;" width="6" x="1275" y="108.418"/><text fill="#000000" font-family="sans-serif" font-size="11" lengthAdjust="spacingAndGlyphs" textLength="202" x="1287" y="114.4189">problem.DirectoryMonitorService launcher</text><rect fill="none" height="6" style="stroke: #C82930; stroke-width: 1.0;" width="6" x="1275" y="122.2539"/><text fill="#000000" font-family="sans-serif" font-size="11" lengthAdjust="spacingAndGlyphs" textLength="114" x="1287" y="128.2549">java.lang.String baseDir</text><rect fill="none" height="6" style="stroke: #C82930; stroke-width: 1.0;" width="6" x="1275" y="136.0898"/><text fill="#000000" font-family="sans-serif" font-size="11" lengthAdjust="spacingAndGlyphs" textLength="124" x="1287" y="142.0908">java.lang.String srcTxtFile</text><rect fill="none" height="6" style="stroke: #C82930; stroke-width: 1.0;" width="6" x="1275" y="149.9258"/><text fill="#000000" font-family="sans-serif" font-size="11" lengthAdjust="spacingAndGlyphs" textLength="129" x="1287" y="155.9268">java.lang.String destTxtFile</text><rect fill="none" height="6" style="stroke: #C82930; stroke-width: 1.0;" width="6" x="1275" y="163.7617"/><text fill="#000000" font-family="sans-serif" font-size="11" lengthAdjust="spacingAndGlyphs" textLength="129" x="1287" y="169.7627">java.lang.String srcHtmlFile</text><rect fill="none" height="6" style="stroke: #C82930; stroke-width: 1.0;" width="6" x="1275" y="177.5977"/><text fill="#000000" font-family="sans-serif" font-size="11" lengthAdjust="spacingAndGlyphs" textLength="134" x="1287" y="183.5986">java.lang.String destHtmlFile</text><line style="stroke: #A80036; stroke-width: 1.5;" x1="1268" x2="1494" y1="190.0156" y2="190.0156"/><ellipse cx="1278" cy="202.4336" fill="#84BE84" rx="3" ry="3" style="stroke: #038048; stroke-width: 1.0;"/><text fill="#000000" font-family="sans-serif" font-size="11" lengthAdjust="spacingAndGlyphs" textLength="56" x="1287" y="205.4346">void &lt;init&gt;()</text><ellipse cx="1278" cy="216.2695" fill="#84BE84" rx="3" ry="3" style="stroke: #038048; stroke-width: 1.0;"/><text fill="#000000" font-family="sans-serif" font-size="11" lengthAdjust="spacingAndGlyphs" textLength="59" x="1287" y="219.2705">void setUp()</text><ellipse cx="1278" cy="230.1055" fill="#84BE84" rx="3" ry="3" style="stroke: #038048; stroke-width: 1.0;"/><text fill="#000000" font-family="sans-serif" font-size="11" lengthAdjust="spacingAndGlyphs" textLength="79" x="1287" y="233.1064">void tearDown()</text><ellipse cx="1278" cy="243.9414" fill="#84BE84" rx="3" ry="3" style="stroke: #038048; stroke-width: 1.0;"/><text fill="#000000" font-family="sans-serif" font-size="11" lengthAdjust="spacingAndGlyphs" textLength="49" x="1287" y="246.9424">void test()</text><!--link problem.IDirectoryListener to problem.ApplicationLauncher--><path d="M590.545,1073.585 C575.827,1060.001 561.818,1044.235 552,1027 C545.867,1016.233 449.988,691.367 496,594 C509.139,566.195 529.472,541.481 552.27,520.169 " fill="none" id="problem.IDirectoryListener-problem.ApplicationLauncher" style="stroke: #A80036; stroke-width: 1.0; stroke-dasharray: 7.0,7.0;"/><polygon fill="none" points="595.429,1068.553,605.994,1086.921,586.28,1079.15,595.429,1068.553" style="stroke: #A80036; stroke-width: 1.0;"/><!--link problem.ProcessRunner to problem.DataFileRunner--><path d="M358.567,752.003 C361.823,793.903 365.588,842.362 368.115,874.873 " fill="none" id="problem.ProcessRunner-problem.DataFileRunner" style="stroke: #A80036; stroke-width: 1.0;"/><polygon fill="none" points="351.588,752.542,357.017,732.059,365.545,751.457,351.588,752.542" style="stroke: #A80036; stroke-width: 1.0;"/><!--link problem.IDirectoryListener to problem.DirectoryChangeLogger--><path d="M631.192,1180.826 C623.762,1194.491 615.775,1209.182 608.276,1222.974 " fill="none" id="problem.IDirectoryListener-problem.DirectoryChangeLogger" style="stroke: #A80036; stroke-width: 1.0; stroke-dasharray: 7.0,7.0;"/><polygon fill="none" points="625.177,1177.234,640.88,1163.007,637.477,1183.921,625.177,1177.234" style="stroke: #A80036; stroke-width: 1.0;"/><!--link problem.ProcessRunner to problem.ExecutableFileListener--><path d="M289.425,748.024 C256.182,790.803 216.919,841.327 190.851,874.873 " fill="none" id="problem.ProcessRunner-problem.ExecutableFileListener" style="stroke: #A80036; stroke-width: 1.0;"/><polygon fill="none" points="284.032,743.556,301.831,732.059,295.086,752.147,284.032,743.556" style="stroke: #A80036; stroke-width: 1.0;"/><!--link problem.DirectoryMonitorService to problem.IDirectoryListener--><path d="M713.956,1027.298 C703.192,1046.953 692.642,1066.218 683.827,1082.315 " fill="none" id="problem.DirectoryMonitorService-problem.IDirectoryListener" style="stroke: #A80036; stroke-width: 1.0;"/><polygon fill="#A80036" points="681.388,1086.769,689.2189,1080.796,683.7894,1082.3834,682.202,1076.9538,681.388,1086.769" style="stroke: #A80036; stroke-width: 1.0;"/><text fill="#000000" font-family="sans-serif" font-size="13" lengthAdjust="spacingAndGlyphs" textLength="5" x="679.5743" y="1076.0898">*</text><!--link problem.ApplicationLauncher to problem.ProcessRunner--><path d="M563.732,520.164 C524.03,547.416 481.46,576.637 444.978,601.678 " fill="none" id="problem.ApplicationLauncher-problem.ProcessRunner" style="stroke: #A80036; stroke-width: 1.0;"/><polygon fill="#A80036" points="440.56,604.711,450.2438,602.9155,444.6823,601.8814,445.7164,596.3199,440.56,604.711" style="stroke: #A80036; stroke-width: 1.0;"/><text fill="#000000" font-family="sans-serif" font-size="13" lengthAdjust="spacingAndGlyphs" textLength="5" x="448.3855" y="596.2231">*</text><!--link NewTestStructure.DataFileRunnerTest to problem.ApplicationLauncher--><path d="M1003.671,256.04 C990.542,265.83 977.147,275.35 964,284 C929.44,306.75 890.865,328.99 854.049,348.86 " fill="none" id="NewTestStructure.DataFileRunnerTest-problem.ApplicationLauncher" style="stroke: #A80036; stroke-width: 1.0; stroke-dasharray: 7.0,7.0;"/><polygon fill="#A80036" points="849.568,351.27,859.3885,350.5237,853.97,348.8989,855.5948,343.4804,849.568,351.27" style="stroke: #A80036; stroke-width: 1.0;"/><text fill="#000000" font-family="sans-serif" font-size="13" lengthAdjust="spacingAndGlyphs" textLength="7" x="857.5637" y="344.4476">1</text><!--link problem.AppLauncher to problem.AppLauncher--><path d="M353.849,387.648 C374.683,394.359 388.5,407.477 388.5,427 C388.5,444.998 376.757,457.552 358.6,464.662 " fill="none" id="problem.AppLauncher-problem.AppLauncher" style="stroke: #A80036; stroke-width: 1.0; stroke-dasharray: 7.0,7.0;"/><polygon fill="#A80036" points="353.849,466.352,363.6692,467.1021,358.5595,464.6752,360.9864,459.5654,353.849,466.352" style="stroke: #A80036; stroke-width: 1.0;"/><text fill="#000000" font-family="sans-serif" font-size="13" lengthAdjust="spacingAndGlyphs" textLength="7" x="361.6643" y="465.3735">1</text><!--link NewTestStructure.DataFileRunnerTest to problem.DirectoryMonitorService--><path d="M1102.72,260.03 C1081.01,379.941 1033.44,584.955 943,739 C931.702,758.244 917.84,776.995 902.978,794.62 " fill="none" id="NewTestStructure.DataFileRunnerTest-problem.DirectoryMonitorService" style="stroke: #A80036; stroke-width: 1.0; stroke-dasharray: 7.0,7.0;"/><polygon fill="#A80036" points="899.59,798.599,908.471,794.3413,902.8322,794.7927,902.3808,789.1538,899.59,798.599" style="stroke: #A80036; stroke-width: 1.0;"/><text fill="#000000" font-family="sans-serif" font-size="13" lengthAdjust="spacingAndGlyphs" textLength="7" x="907.7317" y="788.2683">1</text><!--link NewTestStructure.DirectoryChangeLoggerTest to problem.DirectoryMonitorService--><path d="M1937.23,253.02 C1925.26,263.73 1913,274.28 1901,284 C1617.49,513.478 1543.31,574.039 1218,739 C1133.24,781.981 1035.14,821.346 952.931,851.631 " fill="none" id="NewTestStructure.DirectoryChangeLoggerTest-problem.DirectoryMonitorService" style="stroke: #A80036; stroke-width: 1.0; stroke-dasharray: 7.0,7.0;"/><polygon fill="#A80036" points="948.037,853.43,957.8643,854.0806,952.7302,851.7056,955.1053,846.5715,948.037,853.43" style="stroke: #A80036; stroke-width: 1.0;"/><text fill="#000000" font-family="sans-serif" font-size="13" lengthAdjust="spacingAndGlyphs" textLength="7" x="955.991" y="847.8743">1</text><!--link NewTestStructure.DirectoryMonitorServiceTest to problem.DirectoryMonitorService--><path d="M1761.26,198.23 C1740.27,223.56 1710.85,257.21 1682,284 C1437.55,511.023 1363.9,555.948 1085,739 C1043.13,766.478 996.627,793.984 952.672,818.718 " fill="none" id="NewTestStructure.DirectoryMonitorServiceTest-problem.DirectoryMonitorService" style="stroke: #A80036; stroke-width: 1.0; stroke-dasharray: 7.0,7.0;"/><polygon fill="#A80036" points="948.153,821.257,957.9587,820.3363,952.5122,818.8081,954.0404,813.3616,948.153,821.257" style="stroke: #A80036; stroke-width: 1.0;"/><text fill="#000000" font-family="sans-serif" font-size="13" lengthAdjust="spacingAndGlyphs" textLength="7" x="956.1123" y="814.2435">1</text><!--link problem.ApplicationLauncher to problem.DirectoryEvent--><path d="M703.433,520.164 C704.763,542.737 706.174,566.661 707.458,588.442 " fill="none" id="problem.ApplicationLauncher-problem.DirectoryEvent" style="stroke: #A80036; stroke-width: 1.0; stroke-dasharray: 7.0,7.0;"/><polygon fill="#A80036" points="707.764,593.637,711.2274,584.4172,707.4697,588.6457,703.2412,584.888,707.764,593.637" style="stroke: #A80036; stroke-width: 1.0;"/><text fill="#000000" font-family="sans-serif" font-size="13" lengthAdjust="spacingAndGlyphs" textLength="7" x="700.0025" y="583.1968">1</text><!--link problem.AppLauncherSupportTest to problem.AppLauncher--><path d="M295.568,260.05 C284.753,278.08 273.408,296.99 262.407,315.32 " fill="none" id="problem.AppLauncherSupportTest-problem.AppLauncher" style="stroke: #A80036; stroke-width: 1.0; stroke-dasharray: 7.0,7.0;"/><polygon fill="#A80036" points="259.618,319.97,267.6776,314.3094,262.1898,315.6822,260.8171,310.1944,259.618,319.97" style="stroke: #A80036; stroke-width: 1.0;"/><text fill="#000000" font-family="sans-serif" font-size="13" lengthAdjust="spacingAndGlyphs" textLength="7" x="257.0329" y="309.0294">1</text><!--link problem.AppLauncherApplication to problem.DirectoryMonitorService--><path d="M744.096,198.17 C784.941,226.57 836.844,269.38 867,320 C930.849,427.183 914.363,469.988 928,594 C935.044,658.058 950.728,678.697 928,739 C920.721,758.314 910.196,776.873 898.031,794.197 " fill="none" id="problem.AppLauncherApplication-problem.DirectoryMonitorService" style="stroke: #A80036; stroke-width: 1.0; stroke-dasharray: 7.0,7.0;"/><polygon fill="#A80036" points="894.903,798.575,903.3899,793.5778,897.8099,794.5068,896.8808,788.9268,894.903,798.575" style="stroke: #A80036; stroke-width: 1.0;"/><text fill="#000000" font-family="sans-serif" font-size="13" lengthAdjust="spacingAndGlyphs" textLength="7" x="895.296" y="788.2428">1</text><!--link problem.AppLauncherBaseCaseTest to problem.AppLauncher--><path d="M140.966,198.13 C148.305,228.51 159.082,273.14 169.159,314.86 " fill="none" id="problem.AppLauncherBaseCaseTest-problem.AppLauncher" style="stroke: #A80036; stroke-width: 1.0; stroke-dasharray: 7.0,7.0;"/><polygon fill="#A80036" points="170.384,319.93,172.1637,310.2433,169.2124,315.0692,164.3865,312.1179,170.384,319.93" style="stroke: #A80036; stroke-width: 1.0;"/><text fill="#000000" font-family="sans-serif" font-size="13" lengthAdjust="spacingAndGlyphs" textLength="7" x="161.2458" y="308.9864">1</text><!--link problem.IDirectoryListener to problem.DirectoryEvent--><path d="M623.026,1086.959 C608.479,1070.185 593.568,1049.159 586,1027 C553.251,931.105 548.223,893.029 586,799 C594.164,778.679 607.134,759.729 621.711,742.894 " fill="none" id="problem.IDirectoryListener-problem.DirectoryEvent" style="stroke: #A80036; stroke-width: 1.0; stroke-dasharray: 7.0,7.0;"/><polygon fill="#A80036" points="625.044,739.111,616.092,743.2172,621.7376,742.8617,622.0931,748.5074,625.044,739.111" style="stroke: #A80036; stroke-width: 1.0;"/><text fill="#000000" font-family="sans-serif" font-size="13" lengthAdjust="spacingAndGlyphs" textLength="7" x="609.4224" y="760.3132">1</text><!--link problem.DirectoryChangeLogger to problem.DirectoryEvent--><path d="M537.58,1222.886 C527.156,1204.554 517.332,1183.654 512,1163 C471.318,1005.415 472.487,941.006 552,799 C563.677,778.146 580.077,759.256 597.961,742.715 " fill="none" id="problem.DirectoryChangeLogger-problem.DirectoryEvent" style="stroke: #A80036; stroke-width: 1.0; stroke-dasharray: 7.0,7.0;"/><polygon fill="#A80036" points="602.043,739.003,592.6937,742.1,598.3443,742.3674,598.0768,748.018,602.043,739.003" style="stroke: #A80036; stroke-width: 1.0;"/><text fill="#000000" font-family="sans-serif" font-size="13" lengthAdjust="spacingAndGlyphs" textLength="7" x="583.8746" y="760.4472">1</text><!--link problem.AppLauncherApplication to problem.DirectoryChangeLogger--><path d="M663.178,198.01 C645.479,225.99 617.476,263.05 583,284 C516.997,324.1 464.899,262.81 413,320 C348.685,390.877 451.947,461.906 389,534 C317.253,616.173 234.861,524.233 151,594 C73.9459,658.104 78.381,701.074 57,799 C35.3842,898.001 3.2934,941.07 57,1027 C141.135,1161.616 319.604,1226.638 443.847,1256.688 " fill="none" id="problem.AppLauncherApplication-problem.DirectoryChangeLogger" style="stroke: #A80036; stroke-width: 1.0; stroke-dasharray: 7.0,7.0;"/><polygon fill="#A80036" points="448.982,1257.918,441.1607,1251.9324,444.1194,1256.7538,439.298,1259.7125,448.982,1257.918" style="stroke: #A80036; stroke-width: 1.0;"/><text fill="#000000" font-family="sans-serif" font-size="13" lengthAdjust="spacingAndGlyphs" textLength="7" x="433.9676" y="1253.4938">1</text><!--link NewTestStructure.DirectoryChangeLoggerTest to problem.DirectoryChangeLogger--><path d="M2008.43,253.29 C1984.83,353.92 1952,520.063 1952,665.5 C1952,665.5 1952,665.5 1952,914 C1952,1169.37 1055.29,1251.301 710.162,1273.3774 " fill="none" id="NewTestStructure.DirectoryChangeLoggerTest-problem.DirectoryChangeLogger" style="stroke: #A80036; stroke-width: 1.0; stroke-dasharray: 7.0,7.0;"/><polygon fill="#A80036" points="705.122,1273.698,714.3576,1277.1191,710.1119,1273.3809,713.8502,1269.1352,705.122,1273.698" style="stroke: #A80036; stroke-width: 1.0;"/><text fill="#000000" font-family="sans-serif" font-size="13" lengthAdjust="spacingAndGlyphs" textLength="7" x="713.1427" y="1270.2354">1</text><!--link problem.DirectoryEvent to problem.DirectoryMonitorService--><path d="M719.042,739.206 C722.793,756.336 727.359,775.074 732.287,793.689 " fill="none" id="problem.DirectoryEvent-problem.DirectoryMonitorService" style="stroke: #A80036; stroke-width: 1.0; stroke-dasharray: 7.0,7.0;"/><polygon fill="#A80036" points="733.686,798.935,735.2309,789.2081,732.3972,794.104,727.5012,791.2702,733.686,798.935" style="stroke: #A80036; stroke-width: 1.0;"/><text fill="#000000" font-family="sans-serif" font-size="13" lengthAdjust="spacingAndGlyphs" textLength="7" x="723.6079" y="788.2451">1</text><!--link problem.DirectoryMonitorService to problem.DirectoryEvent--><path d="M759.87,798.935 C755.145,780.358 749.928,761.496 744.67,744.079 " fill="none" id="problem.DirectoryMonitorService-problem.DirectoryEvent" style="stroke: #A80036; stroke-width: 1.0; stroke-dasharray: 7.0,7.0;"/><polygon fill="#A80036" points="743.187,739.206,741.9809,748.9807,744.6429,743.9894,749.6342,746.6513,743.187,739.206" style="stroke: #A80036; stroke-width: 1.0;"/><text fill="#000000" font-family="sans-serif" font-size="13" lengthAdjust="spacingAndGlyphs" textLength="7" x="738.8259" y="760.4172">1</text><!--link NewTestStructure.ExecutableFileListenerTest to problem.ApplicationLauncher--><path d="M1296.42,253.24 C1281.67,265.19 1265.67,276.02 1249,284 C1147.34,332.64 1107.44,293.1 998,320 C950.643,331.64 900.271,347.86 854.596,364.11 " fill="none" id="NewTestStructure.ExecutableFileListenerTest-problem.ApplicationLauncher" style="stroke: #A80036; stroke-width: 1.0; stroke-dasharray: 7.0,7.0;"/><polygon fill="#A80036" points="849.622,365.89,859.4427,366.6341,854.3314,364.2103,856.7552,359.099,849.622,365.89" style="stroke: #A80036; stroke-width: 1.0;"/><text fill="#000000" font-family="sans-serif" font-size="13" lengthAdjust="spacingAndGlyphs" textLength="7" x="857.6205" y="376.6464">1</text><!--link problem.AppLauncherApplication to problem.DataFileRunner--><path d="M658.042,198.16 C639.001,223.93 611.577,258.13 583,284 C561.615,303.36 546.684,297.21 529,320 C467.213,399.621 527.24,464.768 454,534 C384.08,600.093 303.842,517.114 246,594 C180.439,681.146 273.5,807.12 331.175,871.215 " fill="none" id="problem.AppLauncherApplication-problem.DataFileRunner" style="stroke: #A80036; stroke-width: 1.0; stroke-dasharray: 7.0,7.0;"/><polygon fill="#A80036" points="334.578,874.971,331.4981,865.6161,331.2203,871.2661,325.5703,870.9884,334.578,874.971" style="stroke: #A80036; stroke-width: 1.0;"/><text fill="#000000" font-family="sans-serif" font-size="13" lengthAdjust="spacingAndGlyphs" textLength="7" x="320.2174" y="864.0422">1</text><!--link problem.AppLauncherApplication to problem.ExecutableFileListener--><path d="M662.479,198.05 C644.581,225.68 616.648,262.25 583,284 C531.57,317.24 490.825,274.36 450,320 C385.843,391.73 480.228,461.451 417,534 C355.747,604.283 277.785,524.185 216,594 C147.458,671.449 149.708,802.66 156.28,869.75 " fill="none" id="problem.AppLauncherApplication-problem.ExecutableFileListener" style="stroke: #A80036; stroke-width: 1.0; stroke-dasharray: 7.0,7.0;"/><polygon fill="#A80036" points="156.802,874.861,159.8685,865.5017,156.2949,869.8868,151.9098,866.3131,156.802,874.861" style="stroke: #A80036; stroke-width: 1.0;"/><text fill="#000000" font-family="sans-serif" font-size="13" lengthAdjust="spacingAndGlyphs" textLength="7" x="148.2527" y="864.1981">1</text><!--link problem.AppLauncherApplication to problem.ApplicationLauncher--><path d="M685.961,198.13 C687.744,231.87 690.454,283.16 692.851,328.55 " fill="none" id="problem.AppLauncherApplication-problem.ApplicationLauncher" style="stroke: #A80036; stroke-width: 1.0; stroke-dasharray: 7.0,7.0;"/><polygon fill="#A80036" points="693.127,333.76,696.6588,324.5662,692.8698,328.7666,688.6694,324.9776,693.127,333.76" style="stroke: #A80036; stroke-width: 1.0;"/><text fill="#000000" font-family="sans-serif" font-size="13" lengthAdjust="spacingAndGlyphs" textLength="7" x="685.4598" y="323.1872">1</text><!--link NewTestStructure.ExecutableFileListenerTest to problem.DirectoryMonitorService--><path d="M1333.66,253.13 C1269.2,373.215 1145.42,585.932 1003,739 C984.729,758.637 964.036,777.704 942.762,795.565 " fill="none" id="NewTestStructure.ExecutableFileListenerTest-problem.DirectoryMonitorService" style="stroke: #A80036; stroke-width: 1.0; stroke-dasharray: 7.0,7.0;"/><polygon fill="#A80036" points="938.783,798.886,948.2555,796.1893,942.6214,795.6818,943.1288,790.0478,938.783,798.886" style="stroke: #A80036; stroke-width: 1.0;"/><text fill="#000000" font-family="sans-serif" font-size="13" lengthAdjust="spacingAndGlyphs" textLength="7" x="942.4848" y="788.1929">1</text><!--link NewTestStructure.DirectoryEventTest to problem.DirectoryEvent--><path d="M1578.46,198.24 C1563.69,224.89 1540.89,260.12 1513,284 C1335.93,435.597 1088.3,541.278 915.406,602.354 " fill="none" id="NewTestStructure.DirectoryEventTest-problem.DirectoryEvent" style="stroke: #A80036; stroke-width: 1.0; stroke-dasharray: 7.0,7.0;"/><polygon fill="#A80036" points="910.569,604.058,920.3868,604.84,915.2849,602.3965,917.7284,597.2946,910.569,604.058" style="stroke: #A80036; stroke-width: 1.0;"/><text fill="#000000" font-family="sans-serif" font-size="13" lengthAdjust="spacingAndGlyphs" textLength="7" x="918.4623" y="598.8112">1</text></g></svg>