<?xml version="1.0" encoding="UTF-8" standalone="no"?><svg xmlns="http://www.w3.org/2000/svg" xmlns:xlink="http://www.w3.org/1999/xlink" contentScriptType="application/ecmascript" contentStyleType="text/css" height="793px" preserveAspectRatio="none" style="width:1162px;height:793px;" version="1.1" viewBox="0 0 1162 793" width="1162px" zoomAndPan="magnify"><defs><filter height="300%" id="f13yyhpp47mjoe" width="300%" x="-1" y="-1"><feGaussianBlur result="blurOut" stdDeviation="2.0"/><feColorMatrix in="blurOut" result="blurOut2" type="matrix" values="0 0 0 0 0 0 0 0 0 0 0 0 0 0 0 0 0 0 .4 0"/><feOffset dx="4.0" dy="4.0" in="blurOut2" result="blurOut3"/><feBlend in="SourceGraphic" in2="blurOut3" mode="normal"/></filter></defs><g><!--cluster problem.client--><polygon fill="#FFFFFF" filter="url(#f13yyhpp47mjoe)" points="69,24,176,24,183,47.6094,432,47.6094,432,567,69,567,69,24" style="stroke: #000000; stroke-width: 1.5;"/><line style="stroke: #000000; stroke-width: 1.5;" x1="69" x2="183" y1="47.6094" y2="47.6094"/><text fill="#000000" font-family="sans-serif" font-size="14" font-weight="bold" lengthAdjust="spacingAndGlyphs" textLength="101" x="73" y="40.5332">problem.client</text><!--cluster problem.lib--><polygon fill="#FFFFFF" filter="url(#f13yyhpp47mjoe)" points="563,197,648,197,655,220.6094,911,220.6094,911,556,563,556,563,197" style="stroke: #000000; stroke-width: 1.5;"/><line style="stroke: #000000; stroke-width: 1.5;" x1="563" x2="655" y1="220.6094" y2="220.6094"/><text fill="#000000" font-family="sans-serif" font-size="14" font-weight="bold" lengthAdjust="spacingAndGlyphs" textLength="79" x="567" y="213.5332">problem.lib</text><!--cluster java.util--><polygon fill="#FFFFFF" filter="url(#f13yyhpp47mjoe)" points="22,617,83,617,90,640.6094,607,640.6094,607,781,22,781,22,617" style="stroke: #000000; stroke-width: 1.5;"/><line style="stroke: #000000; stroke-width: 1.5;" x1="22" x2="90" y1="640.6094" y2="640.6094"/><text fill="#000000" font-family="sans-serif" font-size="14" font-weight="bold" lengthAdjust="spacingAndGlyphs" textLength="55" x="26" y="633.5332">java.util</text><!--cluster java.io--><polygon fill="#FFFFFF" filter="url(#f13yyhpp47mjoe)" points="674,649,726,649,733,672.6094,1140,672.6094,1140,749,674,749,674,649" style="stroke: #000000; stroke-width: 1.5;"/><line style="stroke: #000000; stroke-width: 1.5;" x1="674" x2="733" y1="672.6094" y2="672.6094"/><text fill="#000000" font-family="sans-serif" font-size="14" font-weight="bold" lengthAdjust="spacingAndGlyphs" textLength="46" x="678" y="665.5332">java.io</text><!--class problem.client.App--><rect fill="#FEFECE" filter="url(#f13yyhpp47mjoe)" height="75.6719" id="problem.client.App" style="stroke: #A80036; stroke-width: 1.5;" width="159" x="256.5" y="67"/><ellipse cx="321.25" cy="83" fill="#ADD1B2" rx="11" ry="11" style="stroke: #A80036; stroke-width: 1.0;"/><path d="M324.0156,78.875 Q324.1719,78.6563 324.3594,78.5469 Q324.5469,78.4375 324.7656,78.4375 Q325.1406,78.4375 325.375,78.6953 Q325.6094,78.9531 325.6094,79.5625 L325.6094,81.0156 Q325.6094,81.625 325.375,81.8906 Q325.1406,82.1563 324.7656,82.1563 Q324.4219,82.1563 324.2188,81.9531 Q324.0156,81.7656 323.9063,81.25 Q323.8594,80.8906 323.6719,80.7031 Q323.3438,80.3281 322.7344,80.1094 Q322.125,79.8906 321.5,79.8906 Q320.7344,79.8906 320.1016,80.2188 Q319.4688,80.5469 318.9766,81.2969 Q318.4844,82.0469 318.4844,83.0781 L318.4844,84.1719 Q318.4844,85.4063 319.375,86.2266 Q320.2656,87.0469 321.8594,87.0469 Q322.7969,87.0469 323.4531,86.7969 Q323.8438,86.6406 324.2656,86.2031 Q324.5313,85.9375 324.6797,85.8594 Q324.8281,85.7813 325.0313,85.7813 Q325.3594,85.7813 325.6172,86.0391 Q325.875,86.2969 325.875,86.6406 Q325.875,86.9844 325.5313,87.3906 Q325.0313,87.9688 324.2344,88.2969 Q323.1563,88.75 321.8594,88.75 Q320.3438,88.75 319.1406,88.125 Q318.1563,87.625 317.4688,86.5547 Q316.7813,85.4844 316.7813,84.2031 L316.7813,83.0469 Q316.7813,81.7188 317.3984,80.5703 Q318.0156,79.4219 319.1094,78.8047 Q320.2031,78.1875 321.4375,78.1875 Q322.1719,78.1875 322.8203,78.3516 Q323.4688,78.5156 324.0156,78.875 Z "/><text fill="#000000" font-family="sans-serif" font-size="12" lengthAdjust="spacingAndGlyphs" textLength="21" x="341.75" y="87.9102">App</text><line style="stroke: #A80036; stroke-width: 1.5;" x1="257.5" x2="414.5" y1="99" y2="99"/><line style="stroke: #A80036; stroke-width: 1.5;" x1="257.5" x2="414.5" y1="107" y2="107"/><ellipse cx="267.5" cy="119.418" fill="#84BE84" rx="3" ry="3" style="stroke: #038048; stroke-width: 1.0;"/><text fill="#000000" font-family="sans-serif" font-size="11" lengthAdjust="spacingAndGlyphs" textLength="56" x="276.5" y="122.4189">void &lt;init&gt;()</text><ellipse cx="267.5" cy="133.2539" fill="#84BE84" rx="3" ry="3" style="stroke: #038048; stroke-width: 1.0;"/><text fill="#000000" font-family="sans-serif" font-size="11" lengthAdjust="spacingAndGlyphs" text-decoration="underline" textLength="133" x="276.5" y="136.2549">void main(java.lang.String[])</text><line style="stroke: #000000; stroke-width: 1.0;" x1="276.5" x2="409.5" y1="138.2549" y2="138.2549"/><!--class problem.client.EnumerationAdapter--><rect fill="#FF0000" filter="url(#f13yyhpp47mjoe)" height="111.5313" id="problem.client.EnumerationAdapter" style="stroke: #A80036; stroke-width: 1.5;" width="172" x="159" y="439"/><rect fill="#FF0000" height="40.1875" style="stroke: #A80036; stroke-width: 1.5;" width="172" x="159" y="439"/><ellipse cx="186.15" cy="459.0938" fill="#ADD1B2" rx="11" ry="11" style="stroke: #A80036; stroke-width: 1.0;"/><path d="M188.9156,454.9688 Q189.0719,454.75 189.2594,454.6406 Q189.4469,454.5313 189.6656,454.5313 Q190.0406,454.5313 190.275,454.7891 Q190.5094,455.0469 190.5094,455.6563 L190.5094,457.1094 Q190.5094,457.7188 190.275,457.9844 Q190.0406,458.25 189.6656,458.25 Q189.3219,458.25 189.1188,458.0469 Q188.9156,457.8594 188.8063,457.3438 Q188.7594,456.9844 188.5719,456.7969 Q188.2438,456.4219 187.6344,456.2031 Q187.025,455.9844 186.4,455.9844 Q185.6344,455.9844 185.0016,456.3125 Q184.3688,456.6406 183.8766,457.3906 Q183.3844,458.1406 183.3844,459.1719 L183.3844,460.2656 Q183.3844,461.5 184.275,462.3203 Q185.1656,463.1406 186.7594,463.1406 Q187.6969,463.1406 188.3531,462.8906 Q188.7438,462.7344 189.1656,462.2969 Q189.4313,462.0313 189.5797,461.9531 Q189.7281,461.875 189.9313,461.875 Q190.2594,461.875 190.5172,462.1328 Q190.775,462.3906 190.775,462.7344 Q190.775,463.0781 190.4313,463.4844 Q189.9313,464.0625 189.1344,464.3906 Q188.0563,464.8438 186.7594,464.8438 Q185.2438,464.8438 184.0406,464.2188 Q183.0563,463.7188 182.3688,462.6484 Q181.6813,461.5781 181.6813,460.2969 L181.6813,459.1406 Q181.6813,457.8125 182.2984,456.6641 Q182.9156,455.5156 184.0094,454.8984 Q185.1031,454.2813 186.3375,454.2813 Q187.0719,454.2813 187.7203,454.4453 Q188.3688,454.6094 188.9156,454.9688 Z "/><text fill="#000000" font-family="sans-serif" font-size="12" font-style="italic" lengthAdjust="spacingAndGlyphs" textLength="56" x="231.35" y="456.457">«adapter»</text><text fill="#000000" font-family="sans-serif" font-size="12" lengthAdjust="spacingAndGlyphs" textLength="113" x="202.85" y="471.5508">EnumerationAdapter</text><line style="stroke: #A80036; stroke-width: 1.5;" x1="160" x2="330" y1="479.1875" y2="479.1875"/><rect fill="none" height="6" style="stroke: #C82930; stroke-width: 1.0;" width="6" x="167" y="488.6055"/><text fill="#000000" font-family="sans-serif" font-size="11" lengthAdjust="spacingAndGlyphs" textLength="81" x="179" y="494.6064">java.util.Iterator it</text><line style="stroke: #A80036; stroke-width: 1.5;" x1="160" x2="330" y1="501.0234" y2="501.0234"/><ellipse cx="170" cy="513.4414" fill="#84BE84" rx="3" ry="3" style="stroke: #038048; stroke-width: 1.0;"/><text fill="#000000" font-family="sans-serif" font-size="11" lengthAdjust="spacingAndGlyphs" textLength="129" x="179" y="516.4424">void &lt;init&gt;(java.util.Iterator)</text><ellipse cx="170" cy="527.2773" fill="#84BE84" rx="3" ry="3" style="stroke: #038048; stroke-width: 1.0;"/><text fill="#000000" font-family="sans-serif" font-size="11" lengthAdjust="spacingAndGlyphs" textLength="134" x="179" y="530.2783">boolean hasMoreElements()</text><ellipse cx="170" cy="541.1133" fill="#84BE84" rx="3" ry="3" style="stroke: #038048; stroke-width: 1.0;"/><text fill="#000000" font-family="sans-serif" font-size="11" lengthAdjust="spacingAndGlyphs" textLength="146" x="179" y="544.1143">java.lang.Object nextElement()</text><!--class problem.client.EnumerationMaker--><rect fill="#FEFECE" filter="url(#f13yyhpp47mjoe)" height="75.6719" id="problem.client.EnumerationMaker" style="stroke: #A80036; stroke-width: 1.5;" width="260" x="115" y="267.5"/><ellipse cx="188.75" cy="283.5" fill="#ADD1B2" rx="11" ry="11" style="stroke: #A80036; stroke-width: 1.0;"/><path d="M191.5156,279.375 Q191.6719,279.1563 191.8594,279.0469 Q192.0469,278.9375 192.2656,278.9375 Q192.6406,278.9375 192.875,279.1953 Q193.1094,279.4531 193.1094,280.0625 L193.1094,281.5156 Q193.1094,282.125 192.875,282.3906 Q192.6406,282.6563 192.2656,282.6563 Q191.9219,282.6563 191.7188,282.4531 Q191.5156,282.2656 191.4063,281.75 Q191.3594,281.3906 191.1719,281.2031 Q190.8438,280.8281 190.2344,280.6094 Q189.625,280.3906 189,280.3906 Q188.2344,280.3906 187.6016,280.7188 Q186.9688,281.0469 186.4766,281.7969 Q185.9844,282.5469 185.9844,283.5781 L185.9844,284.6719 Q185.9844,285.9063 186.875,286.7266 Q187.7656,287.5469 189.3594,287.5469 Q190.2969,287.5469 190.9531,287.2969 Q191.3438,287.1406 191.7656,286.7031 Q192.0313,286.4375 192.1797,286.3594 Q192.3281,286.2813 192.5313,286.2813 Q192.8594,286.2813 193.1172,286.5391 Q193.375,286.7969 193.375,287.1406 Q193.375,287.4844 193.0313,287.8906 Q192.5313,288.4688 191.7344,288.7969 Q190.6563,289.25 189.3594,289.25 Q187.8438,289.25 186.6406,288.625 Q185.6563,288.125 184.9688,287.0547 Q184.2813,285.9844 184.2813,284.7031 L184.2813,283.5469 Q184.2813,282.2188 184.8984,281.0703 Q185.5156,279.9219 186.6094,279.3047 Q187.7031,278.6875 188.9375,278.6875 Q189.6719,278.6875 190.3203,278.8516 Q190.9688,279.0156 191.5156,279.375 Z "/><text fill="#000000" font-family="sans-serif" font-size="12" lengthAdjust="spacingAndGlyphs" textLength="104" x="209.25" y="288.4102">EnumerationMaker</text><line style="stroke: #A80036; stroke-width: 1.5;" x1="116" x2="374" y1="299.5" y2="299.5"/><line style="stroke: #A80036; stroke-width: 1.5;" x1="116" x2="374" y1="307.5" y2="307.5"/><ellipse cx="126" cy="319.918" fill="#84BE84" rx="3" ry="3" style="stroke: #038048; stroke-width: 1.0;"/><text fill="#000000" font-family="sans-serif" font-size="11" lengthAdjust="spacingAndGlyphs" textLength="56" x="135" y="322.9189">void &lt;init&gt;()</text><ellipse cx="126" cy="333.7539" fill="#84BE84" rx="3" ry="3" style="stroke: #038048; stroke-width: 1.0;"/><text fill="#000000" font-family="sans-serif" font-size="11" lengthAdjust="spacingAndGlyphs" textLength="234" x="135" y="336.7549">java.util.Enumeration make(java.util.ArrayList&lt;*&gt;)</text><!--class problem.client.EnumerationTests--><rect fill="#FEFECE" filter="url(#f13yyhpp47mjoe)" height="89.5078" id="problem.client.EnumerationTests" style="stroke: #A80036; stroke-width: 1.5;" width="136" x="85" y="60"/><ellipse cx="100.9" cy="76" fill="#ADD1B2" rx="11" ry="11" style="stroke: #A80036; stroke-width: 1.0;"/><path d="M103.6656,71.875 Q103.8219,71.6563 104.0094,71.5469 Q104.1969,71.4375 104.4156,71.4375 Q104.7906,71.4375 105.025,71.6953 Q105.2594,71.9531 105.2594,72.5625 L105.2594,74.0156 Q105.2594,74.625 105.025,74.8906 Q104.7906,75.1563 104.4156,75.1563 Q104.0719,75.1563 103.8688,74.9531 Q103.6656,74.7656 103.5563,74.25 Q103.5094,73.8906 103.3219,73.7031 Q102.9938,73.3281 102.3844,73.1094 Q101.775,72.8906 101.15,72.8906 Q100.3844,72.8906 99.7516,73.2188 Q99.1188,73.5469 98.6266,74.2969 Q98.1344,75.0469 98.1344,76.0781 L98.1344,77.1719 Q98.1344,78.4063 99.025,79.2266 Q99.9156,80.0469 101.5094,80.0469 Q102.4469,80.0469 103.1031,79.7969 Q103.4938,79.6406 103.9156,79.2031 Q104.1813,78.9375 104.3297,78.8594 Q104.4781,78.7813 104.6813,78.7813 Q105.0094,78.7813 105.2672,79.0391 Q105.525,79.2969 105.525,79.6406 Q105.525,79.9844 105.1813,80.3906 Q104.6813,80.9688 103.8844,81.2969 Q102.8063,81.75 101.5094,81.75 Q99.9938,81.75 98.7906,81.125 Q97.8063,80.625 97.1188,79.5547 Q96.4313,78.4844 96.4313,77.2031 L96.4313,76.0469 Q96.4313,74.7188 97.0484,73.5703 Q97.6656,72.4219 98.7594,71.8047 Q99.8531,71.1875 101.0875,71.1875 Q101.8219,71.1875 102.4703,71.3516 Q103.1188,71.5156 103.6656,71.875 Z "/><text fill="#000000" font-family="sans-serif" font-size="12" lengthAdjust="spacingAndGlyphs" textLength="102" x="115.1" y="80.9102">EnumerationTests</text><line style="stroke: #A80036; stroke-width: 1.5;" x1="86" x2="220" y1="92" y2="92"/><line style="stroke: #A80036; stroke-width: 1.5;" x1="86" x2="220" y1="100" y2="100"/><ellipse cx="96" cy="112.418" fill="#84BE84" rx="3" ry="3" style="stroke: #038048; stroke-width: 1.0;"/><text fill="#000000" font-family="sans-serif" font-size="11" lengthAdjust="spacingAndGlyphs" textLength="56" x="105" y="115.4189">void &lt;init&gt;()</text><ellipse cx="96" cy="126.2539" fill="#84BE84" rx="3" ry="3" style="stroke: #038048; stroke-width: 1.0;"/><text fill="#000000" font-family="sans-serif" font-size="11" lengthAdjust="spacingAndGlyphs" textLength="110" x="105" y="129.2549">void testMakerReturn()</text><ellipse cx="96" cy="140.0898" fill="#84BE84" rx="3" ry="3" style="stroke: #038048; stroke-width: 1.0;"/><text fill="#000000" font-family="sans-serif" font-size="11" lengthAdjust="spacingAndGlyphs" textLength="108" x="105" y="143.0908">void testEnumeration()</text><!--class problem.lib.LinearTransformer--><rect fill="#FEFECE" filter="url(#f13yyhpp47mjoe)" height="89.5078" id="problem.lib.LinearTransformer" style="stroke: #A80036; stroke-width: 1.5;" width="204" x="579" y="450"/><ellipse cx="625.25" cy="466" fill="#ADD1B2" rx="11" ry="11" style="stroke: #A80036; stroke-width: 1.0;"/><path d="M628.0156,461.875 Q628.1719,461.6563 628.3594,461.5469 Q628.5469,461.4375 628.7656,461.4375 Q629.1406,461.4375 629.375,461.6953 Q629.6094,461.9531 629.6094,462.5625 L629.6094,464.0156 Q629.6094,464.625 629.375,464.8906 Q629.1406,465.1563 628.7656,465.1563 Q628.4219,465.1563 628.2188,464.9531 Q628.0156,464.7656 627.9063,464.25 Q627.8594,463.8906 627.6719,463.7031 Q627.3438,463.3281 626.7344,463.1094 Q626.125,462.8906 625.5,462.8906 Q624.7344,462.8906 624.1016,463.2188 Q623.4688,463.5469 622.9766,464.2969 Q622.4844,465.0469 622.4844,466.0781 L622.4844,467.1719 Q622.4844,468.4063 623.375,469.2266 Q624.2656,470.0469 625.8594,470.0469 Q626.7969,470.0469 627.4531,469.7969 Q627.8438,469.6406 628.2656,469.2031 Q628.5313,468.9375 628.6797,468.8594 Q628.8281,468.7813 629.0313,468.7813 Q629.3594,468.7813 629.6172,469.0391 Q629.875,469.2969 629.875,469.6406 Q629.875,469.9844 629.5313,470.3906 Q629.0313,470.9688 628.2344,471.2969 Q627.1563,471.75 625.8594,471.75 Q624.3438,471.75 623.1406,471.125 Q622.1563,470.625 621.4688,469.5547 Q620.7813,468.4844 620.7813,467.2031 L620.7813,466.0469 Q620.7813,464.7188 621.3984,463.5703 Q622.0156,462.4219 623.1094,461.8047 Q624.2031,461.1875 625.4375,461.1875 Q626.1719,461.1875 626.8203,461.3516 Q627.4688,461.5156 628.0156,461.875 Z "/><text fill="#000000" font-family="sans-serif" font-size="12" lengthAdjust="spacingAndGlyphs" textLength="103" x="645.75" y="470.9102">LinearTransformer</text><line style="stroke: #A80036; stroke-width: 1.5;" x1="580" x2="782" y1="482" y2="482"/><rect fill="none" height="6" style="stroke: #C82930; stroke-width: 1.0;" width="6" x="587" y="491.418"/><text fill="#000000" font-family="sans-serif" font-size="11" lengthAdjust="spacingAndGlyphs" textLength="147" x="599" y="497.4189">java.util.Enumeration enumTion</text><line style="stroke: #A80036; stroke-width: 1.5;" x1="580" x2="782" y1="503.8359" y2="503.8359"/><ellipse cx="590" cy="516.2539" fill="#84BE84" rx="3" ry="3" style="stroke: #038048; stroke-width: 1.0;"/><text fill="#000000" font-family="sans-serif" font-size="11" lengthAdjust="spacingAndGlyphs" textLength="154" x="599" y="519.2549">void &lt;init&gt;(java.util.Enumeration)</text><ellipse cx="590" cy="530.0898" fill="#84BE84" rx="3" ry="3" style="stroke: #038048; stroke-width: 1.0;"/><text fill="#000000" font-family="sans-serif" font-size="11" lengthAdjust="spacingAndGlyphs" textLength="178" x="599" y="533.0908">void transform(java.io.OutputStream)</text><!--class problem.lib.LinearTransformerTest--><rect fill="#FEFECE" filter="url(#f13yyhpp47mjoe)" height="144.8516" id="problem.lib.LinearTransformerTest" style="stroke: #A80036; stroke-width: 1.5;" width="316" x="579" y="233"/><ellipse cx="669.25" cy="249" fill="#ADD1B2" rx="11" ry="11" style="stroke: #A80036; stroke-width: 1.0;"/><path d="M672.0156,244.875 Q672.1719,244.6563 672.3594,244.5469 Q672.5469,244.4375 672.7656,244.4375 Q673.1406,244.4375 673.375,244.6953 Q673.6094,244.9531 673.6094,245.5625 L673.6094,247.0156 Q673.6094,247.625 673.375,247.8906 Q673.1406,248.1563 672.7656,248.1563 Q672.4219,248.1563 672.2188,247.9531 Q672.0156,247.7656 671.9063,247.25 Q671.8594,246.8906 671.6719,246.7031 Q671.3438,246.3281 670.7344,246.1094 Q670.125,245.8906 669.5,245.8906 Q668.7344,245.8906 668.1016,246.2188 Q667.4688,246.5469 666.9766,247.2969 Q666.4844,248.0469 666.4844,249.0781 L666.4844,250.1719 Q666.4844,251.4063 667.375,252.2266 Q668.2656,253.0469 669.8594,253.0469 Q670.7969,253.0469 671.4531,252.7969 Q671.8438,252.6406 672.2656,252.2031 Q672.5313,251.9375 672.6797,251.8594 Q672.8281,251.7813 673.0313,251.7813 Q673.3594,251.7813 673.6172,252.0391 Q673.875,252.2969 673.875,252.6406 Q673.875,252.9844 673.5313,253.3906 Q673.0313,253.9688 672.2344,254.2969 Q671.1563,254.75 669.8594,254.75 Q668.3438,254.75 667.1406,254.125 Q666.1563,253.625 665.4688,252.5547 Q664.7813,251.4844 664.7813,250.2031 L664.7813,249.0469 Q664.7813,247.7188 665.3984,246.5703 Q666.0156,245.4219 667.1094,244.8047 Q668.2031,244.1875 669.4375,244.1875 Q670.1719,244.1875 670.8203,244.3516 Q671.4688,244.5156 672.0156,244.875 Z "/><text fill="#000000" font-family="sans-serif" font-size="12" lengthAdjust="spacingAndGlyphs" textLength="127" x="689.75" y="253.9102">LinearTransformerTest</text><line style="stroke: #A80036; stroke-width: 1.5;" x1="580" x2="894" y1="265" y2="265"/><rect fill="none" height="6" style="stroke: #C82930; stroke-width: 1.0;" width="6" x="587" y="274.418"/><text fill="#000000" font-family="sans-serif" font-size="11" lengthAdjust="spacingAndGlyphs" textLength="290" x="599" y="280.4189">problem.lib.LinearTransformer&lt;java.lang.String&gt; transformer</text><rect fill="none" height="6" style="stroke: #C82930; stroke-width: 1.0;" width="6" x="587" y="288.2539"/><text fill="#000000" font-family="sans-serif" font-size="11" lengthAdjust="spacingAndGlyphs" textLength="122" x="599" y="294.2549">java.lang.String expected</text><rect fill="none" height="6" style="stroke: #C82930; stroke-width: 1.0;" width="6" x="587" y="302.0898"/><text fill="#000000" font-family="sans-serif" font-size="11" lengthAdjust="spacingAndGlyphs" textLength="34" x="599" y="308.0908">int size</text><line style="stroke: #A80036; stroke-width: 1.5;" x1="580" x2="894" y1="314.5078" y2="314.5078"/><ellipse cx="590" cy="326.9258" fill="#84BE84" rx="3" ry="3" style="stroke: #038048; stroke-width: 1.0;"/><text fill="#000000" font-family="sans-serif" font-size="11" lengthAdjust="spacingAndGlyphs" textLength="56" x="599" y="329.9268">void &lt;init&gt;()</text><ellipse cx="590" cy="340.7617" fill="#84BE84" rx="3" ry="3" style="stroke: #038048; stroke-width: 1.0;"/><text fill="#000000" font-family="sans-serif" font-size="11" lengthAdjust="spacingAndGlyphs" textLength="59" x="599" y="343.7627">void setUp()</text><ellipse cx="590" cy="354.5977" fill="#84BE84" rx="3" ry="3" style="stroke: #038048; stroke-width: 1.0;"/><text fill="#000000" font-family="sans-serif" font-size="11" lengthAdjust="spacingAndGlyphs" textLength="79" x="599" y="357.5986">void tearDown()</text><ellipse cx="590" cy="368.4336" fill="#84BE84" rx="3" ry="3" style="stroke: #038048; stroke-width: 1.0;"/><text fill="#000000" font-family="sans-serif" font-size="11" lengthAdjust="spacingAndGlyphs" textLength="99" x="599" y="371.4346">void testTransform()</text><!--class java.util.Enumeration--><rect fill="#FF0000" filter="url(#f13yyhpp47mjoe)" height="83.8594" id="java.util.Enumeration" style="stroke: #A80036; stroke-width: 1.5;" width="166" x="209" y="667"/><rect fill="#FF0000" height="40.1875" style="stroke: #A80036; stroke-width: 1.5;" width="166" x="209" y="667"/><ellipse cx="252.35" cy="687.0938" fill="#B4A7E5" rx="11" ry="11" style="stroke: #A80036; stroke-width: 1.0;"/><path d="M253.3031,683.7344 L253.3031,690.3906 L255.0219,690.3906 Q255.6313,690.3906 255.8969,690.625 Q256.1625,690.8594 256.1625,691.25 Q256.1625,691.625 255.8969,691.8594 Q255.6313,692.0938 255.0219,692.0938 L249.8813,692.0938 Q249.2719,692.0938 249.0063,691.8594 Q248.7406,691.625 248.7406,691.2344 Q248.7406,690.8594 249.0063,690.625 Q249.2719,690.3906 249.8813,690.3906 L251.6,690.3906 L251.6,683.7344 L249.8813,683.7344 Q249.2719,683.7344 249.0063,683.5 Q248.7406,683.2656 248.7406,682.875 Q248.7406,682.5 249.0063,682.2656 Q249.2719,682.0313 249.8813,682.0313 L255.0219,682.0313 Q255.6313,682.0313 255.8969,682.2656 Q256.1625,682.5 256.1625,682.875 Q256.1625,683.2656 255.8969,683.5 Q255.6313,683.7344 255.0219,683.7344 L253.3031,683.7344 Z "/><text fill="#000000" font-family="sans-serif" font-size="12" font-style="italic" lengthAdjust="spacingAndGlyphs" textLength="45" x="285.65" y="684.457">«target»</text><text fill="#000000" font-family="sans-serif" font-size="12" font-style="italic" lengthAdjust="spacingAndGlyphs" textLength="71" x="272.65" y="699.5508">Enumeration</text><line style="stroke: #A80036; stroke-width: 1.5;" x1="210" x2="374" y1="707.1875" y2="707.1875"/><line style="stroke: #A80036; stroke-width: 1.5;" x1="210" x2="374" y1="715.1875" y2="715.1875"/><ellipse cx="220" cy="727.6055" fill="#84BE84" rx="3" ry="3" style="stroke: #038048; stroke-width: 1.0;"/><text fill="#000000" font-family="sans-serif" font-size="11" font-style="italic" lengthAdjust="spacingAndGlyphs" textLength="140" x="229" y="730.6064">boolean hasMoreElements()</text><ellipse cx="220" cy="741.4414" fill="#84BE84" rx="3" ry="3" style="stroke: #038048; stroke-width: 1.0;"/><text fill="#000000" font-family="sans-serif" font-size="11" font-style="italic" lengthAdjust="spacingAndGlyphs" textLength="72" x="229" y="744.4424">T nextElemen)</text><!--class java.util.Iterator--><rect fill="#FF0000" filter="url(#f13yyhpp47mjoe)" height="111.5313" id="java.util.Iterator" style="stroke: #A80036; stroke-width: 1.5;" width="136" x="38" y="653"/><rect fill="#FF0000" height="40.1875" style="stroke: #A80036; stroke-width: 1.5;" width="136" x="38" y="653"/><ellipse cx="75.05" cy="673.0938" fill="#B4A7E5" rx="11" ry="11" style="stroke: #A80036; stroke-width: 1.0;"/><path d="M76.0031,669.7344 L76.0031,676.3906 L77.7219,676.3906 Q78.3313,676.3906 78.5969,676.625 Q78.8625,676.8594 78.8625,677.25 Q78.8625,677.625 78.5969,677.8594 Q78.3313,678.0938 77.7219,678.0938 L72.5813,678.0938 Q71.9719,678.0938 71.7063,677.8594 Q71.4406,677.625 71.4406,677.2344 Q71.4406,676.8594 71.7063,676.625 Q71.9719,676.3906 72.5813,676.3906 L74.3,676.3906 L74.3,669.7344 L72.5813,669.7344 Q71.9719,669.7344 71.7063,669.5 Q71.4406,669.2656 71.4406,668.875 Q71.4406,668.5 71.7063,668.2656 Q71.9719,668.0313 72.5813,668.0313 L77.7219,668.0313 Q78.3313,668.0313 78.5969,668.2656 Q78.8625,668.5 78.8625,668.875 Q78.8625,669.2656 78.5969,669.5 Q78.3313,669.7344 77.7219,669.7344 L76.0031,669.7344 Z "/><text fill="#000000" font-family="sans-serif" font-size="12" font-style="italic" lengthAdjust="spacingAndGlyphs" textLength="59" x="91.95" y="670.457">«adaptee»</text><text fill="#000000" font-family="sans-serif" font-size="12" font-style="italic" lengthAdjust="spacingAndGlyphs" textLength="39" x="101.95" y="685.5508">Iterator</text><line style="stroke: #A80036; stroke-width: 1.5;" x1="39" x2="173" y1="693.1875" y2="693.1875"/><line style="stroke: #A80036; stroke-width: 1.5;" x1="39" x2="173" y1="701.1875" y2="701.1875"/><ellipse cx="49" cy="713.6055" fill="#84BE84" rx="3" ry="3" style="stroke: #038048; stroke-width: 1.0;"/><text fill="#000000" font-family="sans-serif" font-size="11" font-style="italic" lengthAdjust="spacingAndGlyphs" textLength="92" x="58" y="716.6064">boolean hasNext()</text><ellipse cx="49" cy="727.4414" fill="#84BE84" rx="3" ry="3" style="stroke: #038048; stroke-width: 1.0;"/><text fill="#000000" font-family="sans-serif" font-size="11" font-style="italic" lengthAdjust="spacingAndGlyphs" textLength="32" x="58" y="730.4424">T nex)</text><ellipse cx="49" cy="741.2773" fill="#84BE84" rx="3" ry="3" style="stroke: #038048; stroke-width: 1.0;"/><text fill="#000000" font-family="sans-serif" font-size="11" lengthAdjust="spacingAndGlyphs" textLength="67" x="58" y="744.2783">void remove()</text><ellipse cx="49" cy="755.1133" fill="#84BE84" rx="3" ry="3" style="stroke: #038048; stroke-width: 1.0;"/><text fill="#000000" font-family="sans-serif" font-size="11" lengthAdjust="spacingAndGlyphs" textLength="110" x="58" y="758.1143">T forEachRemaining(T)</text><!--class java.util.Vector--><rect fill="#FEFECE" filter="url(#f13yyhpp47mjoe)" height="48" id="java.util.Vector" style="stroke: #A80036; stroke-width: 1.5;" width="66" x="525" y="685"/><ellipse cx="540" cy="701" fill="#ADD1B2" rx="11" ry="11" style="stroke: #A80036; stroke-width: 1.0;"/><path d="M542.7656,696.875 Q542.9219,696.6563 543.1094,696.5469 Q543.2969,696.4375 543.5156,696.4375 Q543.8906,696.4375 544.125,696.6953 Q544.3594,696.9531 544.3594,697.5625 L544.3594,699.0156 Q544.3594,699.625 544.125,699.8906 Q543.8906,700.1563 543.5156,700.1563 Q543.1719,700.1563 542.9688,699.9531 Q542.7656,699.7656 542.6563,699.25 Q542.6094,698.8906 542.4219,698.7031 Q542.0938,698.3281 541.4844,698.1094 Q540.875,697.8906 540.25,697.8906 Q539.4844,697.8906 538.8516,698.2188 Q538.2188,698.5469 537.7266,699.2969 Q537.2344,700.0469 537.2344,701.0781 L537.2344,702.1719 Q537.2344,703.4063 538.125,704.2266 Q539.0156,705.0469 540.6094,705.0469 Q541.5469,705.0469 542.2031,704.7969 Q542.5938,704.6406 543.0156,704.2031 Q543.2813,703.9375 543.4297,703.8594 Q543.5781,703.7813 543.7813,703.7813 Q544.1094,703.7813 544.3672,704.0391 Q544.625,704.2969 544.625,704.6406 Q544.625,704.9844 544.2813,705.3906 Q543.7813,705.9688 542.9844,706.2969 Q541.9063,706.75 540.6094,706.75 Q539.0938,706.75 537.8906,706.125 Q536.9063,705.625 536.2188,704.5547 Q535.5313,703.4844 535.5313,702.2031 L535.5313,701.0469 Q535.5313,699.7188 536.1484,698.5703 Q536.7656,697.4219 537.8594,696.8047 Q538.9531,696.1875 540.1875,696.1875 Q540.9219,696.1875 541.5703,696.3516 Q542.2188,696.5156 542.7656,696.875 Z "/><text fill="#000000" font-family="sans-serif" font-size="12" lengthAdjust="spacingAndGlyphs" textLength="34" x="554" y="705.9102">Vector</text><line style="stroke: #A80036; stroke-width: 1.5;" x1="526" x2="590" y1="717" y2="717"/><line style="stroke: #A80036; stroke-width: 1.5;" x1="526" x2="590" y1="725" y2="725"/><!--class java.util.ArrayList--><rect fill="#FEFECE" filter="url(#f13yyhpp47mjoe)" height="48" id="java.util.ArrayList" style="stroke: #A80036; stroke-width: 1.5;" width="79" x="410.5" y="685"/><ellipse cx="425.5" cy="701" fill="#ADD1B2" rx="11" ry="11" style="stroke: #A80036; stroke-width: 1.0;"/><path d="M428.2656,696.875 Q428.4219,696.6563 428.6094,696.5469 Q428.7969,696.4375 429.0156,696.4375 Q429.3906,696.4375 429.625,696.6953 Q429.8594,696.9531 429.8594,697.5625 L429.8594,699.0156 Q429.8594,699.625 429.625,699.8906 Q429.3906,700.1563 429.0156,700.1563 Q428.6719,700.1563 428.4688,699.9531 Q428.2656,699.7656 428.1563,699.25 Q428.1094,698.8906 427.9219,698.7031 Q427.5938,698.3281 426.9844,698.1094 Q426.375,697.8906 425.75,697.8906 Q424.9844,697.8906 424.3516,698.2188 Q423.7188,698.5469 423.2266,699.2969 Q422.7344,700.0469 422.7344,701.0781 L422.7344,702.1719 Q422.7344,703.4063 423.625,704.2266 Q424.5156,705.0469 426.1094,705.0469 Q427.0469,705.0469 427.7031,704.7969 Q428.0938,704.6406 428.5156,704.2031 Q428.7813,703.9375 428.9297,703.8594 Q429.0781,703.7813 429.2813,703.7813 Q429.6094,703.7813 429.8672,704.0391 Q430.125,704.2969 430.125,704.6406 Q430.125,704.9844 429.7813,705.3906 Q429.2813,705.9688 428.4844,706.2969 Q427.4063,706.75 426.1094,706.75 Q424.5938,706.75 423.3906,706.125 Q422.4063,705.625 421.7188,704.5547 Q421.0313,703.4844 421.0313,702.2031 L421.0313,701.0469 Q421.0313,699.7188 421.6484,698.5703 Q422.2656,697.4219 423.3594,696.8047 Q424.4531,696.1875 425.6875,696.1875 Q426.4219,696.1875 427.0703,696.3516 Q427.7188,696.5156 428.2656,696.875 Z "/><text fill="#000000" font-family="sans-serif" font-size="12" lengthAdjust="spacingAndGlyphs" textLength="47" x="439.5" y="705.9102">ArrayList</text><line style="stroke: #A80036; stroke-width: 1.5;" x1="411.5" x2="488.5" y1="717" y2="717"/><line style="stroke: #A80036; stroke-width: 1.5;" x1="411.5" x2="488.5" y1="725" y2="725"/><!--class java.io.PrintStream--><rect fill="#FEFECE" filter="url(#f13yyhpp47mjoe)" height="48" id="java.io.PrintStream" style="stroke: #A80036; stroke-width: 1.5;" width="97" x="1026.5" y="685"/><ellipse cx="1041.5" cy="701" fill="#ADD1B2" rx="11" ry="11" style="stroke: #A80036; stroke-width: 1.0;"/><path d="M1044.2656,696.875 Q1044.4219,696.6563 1044.6094,696.5469 Q1044.7969,696.4375 1045.0156,696.4375 Q1045.3906,696.4375 1045.625,696.6953 Q1045.8594,696.9531 1045.8594,697.5625 L1045.8594,699.0156 Q1045.8594,699.625 1045.625,699.8906 Q1045.3906,700.1563 1045.0156,700.1563 Q1044.6719,700.1563 1044.4688,699.9531 Q1044.2656,699.7656 1044.1563,699.25 Q1044.1094,698.8906 1043.9219,698.7031 Q1043.5938,698.3281 1042.9844,698.1094 Q1042.375,697.8906 1041.75,697.8906 Q1040.9844,697.8906 1040.3516,698.2188 Q1039.7188,698.5469 1039.2266,699.2969 Q1038.7344,700.0469 1038.7344,701.0781 L1038.7344,702.1719 Q1038.7344,703.4063 1039.625,704.2266 Q1040.5156,705.0469 1042.1094,705.0469 Q1043.0469,705.0469 1043.7031,704.7969 Q1044.0938,704.6406 1044.5156,704.2031 Q1044.7813,703.9375 1044.9297,703.8594 Q1045.0781,703.7813 1045.2813,703.7813 Q1045.6094,703.7813 1045.8672,704.0391 Q1046.125,704.2969 1046.125,704.6406 Q1046.125,704.9844 1045.7813,705.3906 Q1045.2813,705.9688 1044.4844,706.2969 Q1043.4063,706.75 1042.1094,706.75 Q1040.5938,706.75 1039.3906,706.125 Q1038.4063,705.625 1037.7188,704.5547 Q1037.0313,703.4844 1037.0313,702.2031 L1037.0313,701.0469 Q1037.0313,699.7188 1037.6484,698.5703 Q1038.2656,697.4219 1039.3594,696.8047 Q1040.4531,696.1875 1041.6875,696.1875 Q1042.4219,696.1875 1043.0703,696.3516 Q1043.7188,696.5156 1044.2656,696.875 Z "/><text fill="#000000" font-family="sans-serif" font-size="12" lengthAdjust="spacingAndGlyphs" textLength="65" x="1055.5" y="705.9102">PrintStream</text><line style="stroke: #A80036; stroke-width: 1.5;" x1="1027.5" x2="1122.5" y1="717" y2="717"/><line style="stroke: #A80036; stroke-width: 1.5;" x1="1027.5" x2="1122.5" y1="725" y2="725"/><!--class java.io.OutputStream--><rect fill="#FEFECE" filter="url(#f13yyhpp47mjoe)" height="48" id="java.io.OutputStream" style="stroke: #A80036; stroke-width: 1.5;" width="108" x="690" y="685"/><ellipse cx="705" cy="701" fill="#ADD1B2" rx="11" ry="11" style="stroke: #A80036; stroke-width: 1.0;"/><path d="M707.7656,696.875 Q707.9219,696.6563 708.1094,696.5469 Q708.2969,696.4375 708.5156,696.4375 Q708.8906,696.4375 709.125,696.6953 Q709.3594,696.9531 709.3594,697.5625 L709.3594,699.0156 Q709.3594,699.625 709.125,699.8906 Q708.8906,700.1563 708.5156,700.1563 Q708.1719,700.1563 707.9688,699.9531 Q707.7656,699.7656 707.6563,699.25 Q707.6094,698.8906 707.4219,698.7031 Q707.0938,698.3281 706.4844,698.1094 Q705.875,697.8906 705.25,697.8906 Q704.4844,697.8906 703.8516,698.2188 Q703.2188,698.5469 702.7266,699.2969 Q702.2344,700.0469 702.2344,701.0781 L702.2344,702.1719 Q702.2344,703.4063 703.125,704.2266 Q704.0156,705.0469 705.6094,705.0469 Q706.5469,705.0469 707.2031,704.7969 Q707.5938,704.6406 708.0156,704.2031 Q708.2813,703.9375 708.4297,703.8594 Q708.5781,703.7813 708.7813,703.7813 Q709.1094,703.7813 709.3672,704.0391 Q709.625,704.2969 709.625,704.6406 Q709.625,704.9844 709.2813,705.3906 Q708.7813,705.9688 707.9844,706.2969 Q706.9063,706.75 705.6094,706.75 Q704.0938,706.75 702.8906,706.125 Q701.9063,705.625 701.2188,704.5547 Q700.5313,703.4844 700.5313,702.2031 L700.5313,701.0469 Q700.5313,699.7188 701.1484,698.5703 Q701.7656,697.4219 702.8594,696.8047 Q703.9531,696.1875 705.1875,696.1875 Q705.9219,696.1875 706.5703,696.3516 Q707.2188,696.5156 707.7656,696.875 Z "/><text fill="#000000" font-family="sans-serif" font-size="12" lengthAdjust="spacingAndGlyphs" textLength="76" x="719" y="705.9102">OutputStream</text><line style="stroke: #A80036; stroke-width: 1.5;" x1="691" x2="797" y1="717" y2="717"/><line style="stroke: #A80036; stroke-width: 1.5;" x1="691" x2="797" y1="725" y2="725"/><!--class java.io.ByteArrayOutputStream--><rect fill="#FEFECE" filter="url(#f13yyhpp47mjoe)" height="48" id="java.io.ByteArrayOutputStream" style="stroke: #A80036; stroke-width: 1.5;" width="158" x="833" y="685"/><ellipse cx="848" cy="701" fill="#ADD1B2" rx="11" ry="11" style="stroke: #A80036; stroke-width: 1.0;"/><path d="M850.7656,696.875 Q850.9219,696.6563 851.1094,696.5469 Q851.2969,696.4375 851.5156,696.4375 Q851.8906,696.4375 852.125,696.6953 Q852.3594,696.9531 852.3594,697.5625 L852.3594,699.0156 Q852.3594,699.625 852.125,699.8906 Q851.8906,700.1563 851.5156,700.1563 Q851.1719,700.1563 850.9688,699.9531 Q850.7656,699.7656 850.6563,699.25 Q850.6094,698.8906 850.4219,698.7031 Q850.0938,698.3281 849.4844,698.1094 Q848.875,697.8906 848.25,697.8906 Q847.4844,697.8906 846.8516,698.2188 Q846.2188,698.5469 845.7266,699.2969 Q845.2344,700.0469 845.2344,701.0781 L845.2344,702.1719 Q845.2344,703.4063 846.125,704.2266 Q847.0156,705.0469 848.6094,705.0469 Q849.5469,705.0469 850.2031,704.7969 Q850.5938,704.6406 851.0156,704.2031 Q851.2813,703.9375 851.4297,703.8594 Q851.5781,703.7813 851.7813,703.7813 Q852.1094,703.7813 852.3672,704.0391 Q852.625,704.2969 852.625,704.6406 Q852.625,704.9844 852.2813,705.3906 Q851.7813,705.9688 850.9844,706.2969 Q849.9063,706.75 848.6094,706.75 Q847.0938,706.75 845.8906,706.125 Q844.9063,705.625 844.2188,704.5547 Q843.5313,703.4844 843.5313,702.2031 L843.5313,701.0469 Q843.5313,699.7188 844.1484,698.5703 Q844.7656,697.4219 845.8594,696.8047 Q846.9531,696.1875 848.1875,696.1875 Q848.9219,696.1875 849.5703,696.3516 Q850.2188,696.5156 850.7656,696.875 Z "/><text fill="#000000" font-family="sans-serif" font-size="12" lengthAdjust="spacingAndGlyphs" textLength="126" x="862" y="705.9102">ByteArrayOutputStream</text><line style="stroke: #A80036; stroke-width: 1.5;" x1="834" x2="990" y1="717" y2="717"/><line style="stroke: #A80036; stroke-width: 1.5;" x1="834" x2="990" y1="725" y2="725"/><!--link problem.client.App to java.io.PrintStream--><path d="M415.788,105 C606.877,105 1075,105 1075,105 C1075,105 1075,679.95 1075,679.95 " fill="none" id="problem.client.App-java.io.PrintStream" style="stroke: #A80036; stroke-width: 1.0; stroke-dasharray: 7.0,7.0;"/><polygon fill="#A80036" points="1075,684.95,1079,675.95,1075,679.95,1071,675.95,1075,684.95" style="stroke: #A80036; stroke-width: 1.0;"/><text fill="#000000" font-family="sans-serif" font-size="13" lengthAdjust="spacingAndGlyphs" textLength="7" x="1067.1031" y="674.2773">1</text><!--link problem.lib.LinearTransformerTest to problem.lib.LinearTransformer--><path d="M681,378.224 C681,378.224 681,444.873 681,444.873 " fill="none" id="problem.lib.LinearTransformerTest-problem.lib.LinearTransformer" style="stroke: #A80036; stroke-width: 1.0;"/><polygon fill="#A80036" points="681,449.873,685,440.873,681,444.873,677,440.873,681,449.873" style="stroke: #A80036; stroke-width: 1.0;"/><text fill="#000000" font-family="sans-serif" font-size="13" lengthAdjust="spacingAndGlyphs" textLength="7" x="673.4641" y="439.2976">1</text><!--link problem.client.EnumerationTests to problem.client.EnumerationMaker--><path d="M168,150.246 C168,150.246 168,262.49 168,262.49 " fill="none" id="problem.client.EnumerationTests-problem.client.EnumerationMaker" style="stroke: #A80036; stroke-width: 1.0; stroke-dasharray: 7.0,7.0;"/><polygon fill="#A80036" points="168,267.49,172,258.49,168,262.49,164,258.49,168,267.49" style="stroke: #A80036; stroke-width: 1.0;"/><text fill="#000000" font-family="sans-serif" font-size="13" lengthAdjust="spacingAndGlyphs" textLength="7" x="146.1578" y="256.5647">1</text><!--link problem.lib.LinearTransformer to java.util.Enumeration--><path d="M585,540.011 C585,594.484 585,679 585,679 C585,679 380.178,679 380.178,679 " fill="none" id="problem.lib.LinearTransformer-java.util.Enumeration" style="stroke: #A80036; stroke-width: 1.0;"/><polygon fill="#A80036" points="375.178,679,384.178,683,380.178,679,384.178,675,375.178,679" style="stroke: #A80036; stroke-width: 1.0;"/><text fill="#000000" font-family="sans-serif" font-size="13" lengthAdjust="spacingAndGlyphs" textLength="7" x="382.8978" y="690.5577">1</text><!--link problem.lib.LinearTransformerTest to java.util.Vector--><path d="M578.901,367 C562.677,367 552,367 552,367 C552,367 552,679.951 552,679.951 " fill="none" id="problem.lib.LinearTransformerTest-java.util.Vector" style="stroke: #A80036; stroke-width: 1.0; stroke-dasharray: 7.0,7.0;"/><polygon fill="#A80036" points="552,684.951,556,675.951,552,679.951,548,675.951,552,684.951" style="stroke: #A80036; stroke-width: 1.0;"/><text fill="#000000" font-family="sans-serif" font-size="13" lengthAdjust="spacingAndGlyphs" textLength="7" x="542.5656" y="674.2786">1</text><!--link problem.lib.LinearTransformer to java.io.OutputStream--><path d="M736.5,540.122 C736.5,540.122 736.5,679.858 736.5,679.858 " fill="none" id="problem.lib.LinearTransformer-java.io.OutputStream" style="stroke: #A80036; stroke-width: 1.0; stroke-dasharray: 7.0,7.0;"/><polygon fill="#A80036" points="736.5,684.858,740.5,675.858,736.5,679.858,732.5,675.858,736.5,684.858" style="stroke: #A80036; stroke-width: 1.0;"/><text fill="#000000" font-family="sans-serif" font-size="13" lengthAdjust="spacingAndGlyphs" textLength="7" x="726.6813" y="674.1618">1</text><!--link problem.client.App to problem.client.EnumerationMaker--><path d="M315.75,143.184 C315.75,143.184 315.75,262.458 315.75,262.458 " fill="none" id="problem.client.App-problem.client.EnumerationMaker" style="stroke: #A80036; stroke-width: 1.0; stroke-dasharray: 7.0,7.0;"/><polygon fill="#A80036" points="315.75,267.458,319.75,258.458,315.75,262.458,311.75,258.458,315.75,267.458" style="stroke: #A80036; stroke-width: 1.0;"/><text fill="#000000" font-family="sans-serif" font-size="13" lengthAdjust="spacingAndGlyphs" textLength="7" x="321.1492" y="256.5268">1</text><!--link problem.client.EnumerationTests to java.util.Enumeration--><path d="M100,150.423 C100,273.113 100,602 100,602 C100,602 249.667,602 249.667,602 C249.667,602 249.667,661.711 249.667,661.711 " fill="none" id="problem.client.EnumerationTests-java.util.Enumeration" style="stroke: #A80036; stroke-width: 1.0; stroke-dasharray: 7.0,7.0;"/><polygon fill="#A80036" points="249.667,666.711,253.667,657.711,249.667,661.711,245.667,657.711,249.667,666.711" style="stroke: #A80036; stroke-width: 1.0;"/><text fill="#000000" font-family="sans-serif" font-size="13" lengthAdjust="spacingAndGlyphs" textLength="7" x="235.3624" y="656.2305">1</text><!--link problem.client.App to java.util.Enumeration--><path d="M383.875,143.15 C383.875,270.503 383.875,673 383.875,673 C383.875,673 380.066,673 380.066,673 " fill="none" id="problem.client.App-java.util.Enumeration" style="stroke: #A80036; stroke-width: 1.0; stroke-dasharray: 7.0,7.0;"/><polygon fill="#A80036" points="375.066,673,384.066,677,380.066,673,384.066,669,375.066,673" style="stroke: #A80036; stroke-width: 1.0;"/><text fill="#000000" font-family="sans-serif" font-size="13" lengthAdjust="spacingAndGlyphs" textLength="7" x="383.0463" y="666.4616">1</text><!--link problem.client.EnumerationAdapter to java.util.Enumeration--><path d="M290.333,551.226 C290.333,551.226 290.333,646.673 290.333,646.673 " fill="none" id="problem.client.EnumerationAdapter-java.util.Enumeration" style="stroke: #A80036; stroke-width: 1.0; stroke-dasharray: 7.0,7.0;"/><polygon fill="none" points="297.333,646.673,290.333,666.673,283.333,646.673,297.333,646.673" style="stroke: #A80036; stroke-width: 1.0;"/><!--link problem.client.App to java.util.ArrayList--><path d="M392.75,143.241 C392.75,276.013 392.75,709 392.75,709 C392.75,709 405.238,709 405.238,709 " fill="none" id="problem.client.App-java.util.ArrayList" style="stroke: #A80036; stroke-width: 1.0; stroke-dasharray: 7.0,7.0;"/><polygon fill="#A80036" points="410.238,709,401.238,705,405.238,709,401.238,713,410.238,709" style="stroke: #A80036; stroke-width: 1.0;"/><text fill="#000000" font-family="sans-serif" font-size="13" lengthAdjust="spacingAndGlyphs" textLength="7" x="395.532" y="705.1014">1</text><!--link problem.client.EnumerationMaker to problem.client.EnumerationAdapter--><path d="M245,343.848 C245,343.848 245,433.737 245,433.737 " fill="none" id="problem.client.EnumerationMaker-problem.client.EnumerationAdapter" style="stroke: #A80036; stroke-width: 1.0; stroke-dasharray: 7.0,7.0;"/><polygon fill="#A80036" points="245,438.737,249,429.737,245,433.737,241,429.737,245,438.737" style="stroke: #A80036; stroke-width: 1.0;"/><text fill="#000000" font-family="sans-serif" font-size="13" lengthAdjust="spacingAndGlyphs" textLength="7" x="237.5516" y="428.051">1</text><!--link problem.client.EnumerationMaker to java.util.ArrayList--><path d="M375.179,306 C410.979,306 440.167,306 440.167,306 C440.167,306 440.167,679.997 440.167,679.997 " fill="none" id="problem.client.EnumerationMaker-java.util.ArrayList" style="stroke: #A80036; stroke-width: 1.0; stroke-dasharray: 7.0,7.0;"/><polygon fill="#A80036" points="440.167,684.997,444.167,675.997,440.167,679.997,436.167,675.997,440.167,684.997" style="stroke: #A80036; stroke-width: 1.0;"/><text fill="#000000" font-family="sans-serif" font-size="13" lengthAdjust="spacingAndGlyphs" textLength="7" x="429.7504" y="674.3364">1</text><!--link problem.client.EnumerationMaker to java.util.Iterator--><path d="M137,343.824 C137,343.824 137,647.707 137,647.707 " fill="none" id="problem.client.EnumerationMaker-java.util.Iterator" style="stroke: #A80036; stroke-width: 1.0; stroke-dasharray: 7.0,7.0;"/><polygon fill="#A80036" points="137,652.707,141,643.707,137,647.707,133,643.707,137,652.707" style="stroke: #A80036; stroke-width: 1.0;"/><text fill="#000000" font-family="sans-serif" font-size="13" lengthAdjust="spacingAndGlyphs" textLength="7" x="133.5234" y="642.0171">1</text><!--link problem.lib.LinearTransformerTest to java.io.ByteArrayOutputStream--><path d="M864,378.104 C864,378.104 864,679.61 864,679.61 " fill="none" id="problem.lib.LinearTransformerTest-java.io.ByteArrayOutputStream" style="stroke: #A80036; stroke-width: 1.0; stroke-dasharray: 7.0,7.0;"/><polygon fill="#A80036" points="864,684.61,868,675.61,864,679.61,860,675.61,864,684.61" style="stroke: #A80036; stroke-width: 1.0;"/><text fill="#000000" font-family="sans-serif" font-size="13" lengthAdjust="spacingAndGlyphs" textLength="7" x="844.4469" y="674.2529">1</text><!--link problem.client.EnumerationAdapter to java.util.Iterator--><path d="M166.5,551.226 C166.5,551.226 166.5,647.778 166.5,647.778 " fill="none" id="problem.client.EnumerationAdapter-java.util.Iterator" style="stroke: #FF0000; stroke-width: 1.0;"/><polygon fill="#FF0000" points="166.5,652.778,170.5,643.778,166.5,647.778,162.5,643.778,166.5,652.778" style="stroke: #FF0000; stroke-width: 1.0;"/><text fill="#000000" font-family="sans-serif" font-size="13" lengthAdjust="spacingAndGlyphs" textLength="39" x="165" y="597.4951">adapts</text><text fill="#000000" font-family="sans-serif" font-size="13" lengthAdjust="spacingAndGlyphs" textLength="7" x="166.8031" y="642.0972">1</text><!--link problem.client.EnumerationTests to java.util.ArrayList--><path d="M221.048,147 C312.801,147 464.833,147 464.833,147 C464.833,147 464.833,679.852 464.833,679.852 " fill="none" id="problem.client.EnumerationTests-java.util.ArrayList" style="stroke: #A80036; stroke-width: 1.0; stroke-dasharray: 7.0,7.0;"/><polygon fill="#A80036" points="464.833,684.852,468.833,675.852,464.833,679.852,460.833,675.852,464.833,684.852" style="stroke: #A80036; stroke-width: 1.0;"/><text fill="#000000" font-family="sans-serif" font-size="13" lengthAdjust="spacingAndGlyphs" textLength="7" x="460.7371" y="674.1542">1</text><!--link problem.lib.LinearTransformerTest to java.util.Enumeration--><path d="M578.873,355 C473.028,355 353,355 353,355 C353,355 353,661.651 353,661.651 " fill="none" id="problem.lib.LinearTransformerTest-java.util.Enumeration" style="stroke: #A80036; stroke-width: 1.0; stroke-dasharray: 7.0,7.0;"/><polygon fill="#A80036" points="353,666.651,357,657.651,353,661.651,349,657.651,353,666.651" style="stroke: #A80036; stroke-width: 1.0;"/><text fill="#000000" font-family="sans-serif" font-size="13" lengthAdjust="spacingAndGlyphs" textLength="7" x="355.1641" y="656.161">1</text><!--link problem.client.App to problem.lib.LinearTransformer--><path d="M401.625,143.105 C401.625,241.239 401.625,495 401.625,495 C401.625,495 573.953,495 573.953,495 " fill="none" id="problem.client.App-problem.lib.LinearTransformer" style="stroke: #A80036; stroke-width: 1.0; stroke-dasharray: 7.0,7.0;"/><polygon fill="#A80036" points="578.953,495,569.953,491,573.953,495,569.953,499,578.953,495" style="stroke: #A80036; stroke-width: 1.0;"/><text fill="#000000" font-family="sans-serif" font-size="13" lengthAdjust="spacingAndGlyphs" textLength="7" x="563.8721" y="491.9149">1</text></g></svg>