<?xml version="1.0" encoding="UTF-8" standalone="no"?><svg xmlns="http://www.w3.org/2000/svg" xmlns:xlink="http://www.w3.org/1999/xlink" contentScriptType="application/ecmascript" contentStyleType="text/css" height="1309px" preserveAspectRatio="none" style="width:2921px;height:1309px;" version="1.1" viewBox="0 0 2921 1309" width="2921px" zoomAndPan="magnify"><defs><filter height="300%" id="f1ay84yl5g9jtf" width="300%" x="-1" y="-1"><feGaussianBlur result="blurOut" stdDeviation="2.0"/><feColorMatrix in="blurOut" result="blurOut2" type="matrix" values="0 0 0 0 0 0 0 0 0 0 0 0 0 0 0 0 0 0 .4 0"/><feOffset dx="4.0" dy="4.0" in="blurOut2" result="blurOut3"/><feBlend in="SourceGraphic" in2="blurOut3" mode="normal"/></filter></defs><g><!--cluster ourStuff--><polygon fill="#FFFFFF" filter="url(#f1ay84yl5g9jtf)" points="22,24,85,24,92,47.6094,2899,47.6094,2899,1297,22,1297,22,24" style="stroke: #000000; stroke-width: 1.5;"/><line style="stroke: #000000; stroke-width: 1.5;" x1="22" x2="92" y1="47.6094" y2="47.6094"/><text fill="#000000" font-family="sans-serif" font-size="14" font-weight="bold" lengthAdjust="spacingAndGlyphs" textLength="57" x="26" y="40.5332">ourStuff</text><!--class ourStuff.App--><rect fill="#FEFECE" filter="url(#f1ay84yl5g9jtf)" height="75.6719" id="ourStuff.App" style="stroke: #A80036; stroke-width: 1.5;" width="159" x="1272.5" y="60"/><ellipse cx="1337.25" cy="76" fill="#ADD1B2" rx="11" ry="11" style="stroke: #A80036; stroke-width: 1.0;"/><path d="M1340.0156,71.875 Q1340.1719,71.6563 1340.3594,71.5469 Q1340.5469,71.4375 1340.7656,71.4375 Q1341.1406,71.4375 1341.375,71.6953 Q1341.6094,71.9531 1341.6094,72.5625 L1341.6094,74.0156 Q1341.6094,74.625 1341.375,74.8906 Q1341.1406,75.1563 1340.7656,75.1563 Q1340.4219,75.1563 1340.2188,74.9531 Q1340.0156,74.7656 1339.9063,74.25 Q1339.8594,73.8906 1339.6719,73.7031 Q1339.3438,73.3281 1338.7344,73.1094 Q1338.125,72.8906 1337.5,72.8906 Q1336.7344,72.8906 1336.1016,73.2188 Q1335.4688,73.5469 1334.9766,74.2969 Q1334.4844,75.0469 1334.4844,76.0781 L1334.4844,77.1719 Q1334.4844,78.4063 1335.375,79.2266 Q1336.2656,80.0469 1337.8594,80.0469 Q1338.7969,80.0469 1339.4531,79.7969 Q1339.8438,79.6406 1340.2656,79.2031 Q1340.5313,78.9375 1340.6797,78.8594 Q1340.8281,78.7813 1341.0313,78.7813 Q1341.3594,78.7813 1341.6172,79.0391 Q1341.875,79.2969 1341.875,79.6406 Q1341.875,79.9844 1341.5313,80.3906 Q1341.0313,80.9688 1340.2344,81.2969 Q1339.1563,81.75 1337.8594,81.75 Q1336.3438,81.75 1335.1406,81.125 Q1334.1563,80.625 1333.4688,79.5547 Q1332.7813,78.4844 1332.7813,77.2031 L1332.7813,76.0469 Q1332.7813,74.7188 1333.3984,73.5703 Q1334.0156,72.4219 1335.1094,71.8047 Q1336.2031,71.1875 1337.4375,71.1875 Q1338.1719,71.1875 1338.8203,71.3516 Q1339.4688,71.5156 1340.0156,71.875 Z "/><text fill="#000000" font-family="sans-serif" font-size="12" lengthAdjust="spacingAndGlyphs" textLength="21" x="1357.75" y="80.9102">App</text><line style="stroke: #A80036; stroke-width: 1.5;" x1="1273.5" x2="1430.5" y1="92" y2="92"/><line style="stroke: #A80036; stroke-width: 1.5;" x1="1273.5" x2="1430.5" y1="100" y2="100"/><ellipse cx="1283.5" cy="112.418" fill="#84BE84" rx="3" ry="3" style="stroke: #038048; stroke-width: 1.0;"/><text fill="#000000" font-family="sans-serif" font-size="11" lengthAdjust="spacingAndGlyphs" textLength="56" x="1292.5" y="115.4189">void &lt;init&gt;()</text><ellipse cx="1283.5" cy="126.2539" fill="#84BE84" rx="3" ry="3" style="stroke: #038048; stroke-width: 1.0;"/><text fill="#000000" font-family="sans-serif" font-size="11" lengthAdjust="spacingAndGlyphs" text-decoration="underline" textLength="133" x="1292.5" y="129.2549">void main(java.lang.String[])</text><line style="stroke: #000000; stroke-width: 1.0;" x1="1292.5" x2="1425.5" y1="131.2549" y2="131.2549"/><!--class ourStuff.AbstractAnalyzer--><rect fill="#FEFECE" filter="url(#f1ay84yl5g9jtf)" height="131.0156" id="ourStuff.AbstractAnalyzer" style="stroke: #A80036; stroke-width: 1.5;" width="211" x="1239.5" y="564"/><ellipse cx="1293.75" cy="580" fill="#A9DCDF" rx="11" ry="11" style="stroke: #A80036; stroke-width: 1.0;"/><path d="M1295.9375,581.7656 L1291.7969,581.7656 L1291.375,582.7969 L1291.7969,582.7969 Q1292.4063,582.7969 1292.6719,583.0313 Q1292.9375,583.2656 1292.9375,583.6563 Q1292.9375,584.0313 1292.6719,584.2656 Q1292.4063,584.5 1291.7969,584.5 L1289.5,584.5 Q1288.8906,584.5 1288.6328,584.2656 Q1288.375,584.0313 1288.375,583.6406 Q1288.375,583.2656 1288.6484,583.0234 Q1288.9219,582.7813 1289.5469,582.7969 L1292.2188,576.1406 L1291.1094,576.1406 Q1290.5,576.1406 1290.2344,575.9063 Q1289.9688,575.6719 1289.9688,575.2813 Q1289.9688,574.9063 1290.2344,574.6719 Q1290.5,574.4375 1291.1094,574.4375 L1294.7813,574.4375 L1298.1719,582.7969 Q1298.7656,582.7969 1298.9531,582.9375 Q1299.3438,583.2031 1299.3438,583.6563 Q1299.3438,584.0313 1299.0859,584.2656 Q1298.8281,584.5 1298.2188,584.5 L1295.9219,584.5 Q1295.3125,584.5 1295.0469,584.2656 Q1294.7813,584.0313 1294.7813,583.6406 Q1294.7813,583.2656 1295.0469,583.0313 Q1295.3125,582.7969 1295.9219,582.7969 L1296.3438,582.7969 L1295.9375,581.7656 Z M1295.2188,580.0625 L1293.8594,576.6875 L1292.4844,580.0625 L1295.2188,580.0625 Z "/><text fill="#000000" font-family="sans-serif" font-size="12" font-style="italic" lengthAdjust="spacingAndGlyphs" textLength="94" x="1314.25" y="584.9102">AbstractAnalyzer</text><line style="stroke: #A80036; stroke-width: 1.5;" x1="1240.5" x2="1449.5" y1="596" y2="596"/><polygon fill="none" points="1250.5,603.418,1254.5,607.418,1250.5,611.418,1246.5,607.418" style="stroke: #B38D22; stroke-width: 1.0;"/><text fill="#000000" font-family="sans-serif" font-size="11" lengthAdjust="spacingAndGlyphs" textLength="114" x="1259.5" y="611.4189">java.util.ArrayList filters</text><line style="stroke: #A80036; stroke-width: 1.5;" x1="1240.5" x2="1449.5" y1="617.8359" y2="617.8359"/><ellipse cx="1250.5" cy="630.2539" fill="#84BE84" rx="3" ry="3" style="stroke: #038048; stroke-width: 1.0;"/><text fill="#000000" font-family="sans-serif" font-size="11" lengthAdjust="spacingAndGlyphs" textLength="56" x="1259.5" y="633.2549">void &lt;init&gt;()</text><ellipse cx="1250.5" cy="644.0898" fill="#84BE84" rx="3" ry="3" style="stroke: #038048; stroke-width: 1.0;"/><text fill="#000000" font-family="sans-serif" font-size="11" lengthAdjust="spacingAndGlyphs" textLength="138" x="1259.5" y="647.0908">void addFilter(ourStuff.Filter)</text><polygon fill="#FFFF44" points="1250.5,652.9258,1254.5,656.9258,1250.5,660.9258,1246.5,656.9258" style="stroke: #B38D22; stroke-width: 1.0;"/><text fill="#000000" font-family="sans-serif" font-size="11" lengthAdjust="spacingAndGlyphs" textLength="177" x="1259.5" y="660.9268">boolean applyFilters(soot.SootClass)</text><polygon fill="#FFFF44" points="1250.5,666.7617,1254.5,670.7617,1250.5,674.7617,1246.5,670.7617" style="stroke: #B38D22; stroke-width: 1.0;"/><text fill="#000000" font-family="sans-serif" font-size="11" lengthAdjust="spacingAndGlyphs" textLength="185" x="1259.5" y="674.7627">boolean applyFilters(soot.SootMethod)</text><polygon fill="#FFFF44" points="1250.5,680.5977,1254.5,684.5977,1250.5,688.5977,1246.5,684.5977" style="stroke: #B38D22; stroke-width: 1.0;"/><text fill="#000000" font-family="sans-serif" font-size="11" lengthAdjust="spacingAndGlyphs" textLength="172" x="1259.5" y="688.5986">boolean applyFilters(soot.SootField)</text><!--class ourStuff.Analyzer--><rect fill="#FEFECE" filter="url(#f1ay84yl5g9jtf)" height="61.8359" id="ourStuff.Analyzer" style="stroke: #A80036; stroke-width: 1.5;" width="203" x="1243.5" y="414.5"/><ellipse cx="1316.25" cy="430.5" fill="#B4A7E5" rx="11" ry="11" style="stroke: #A80036; stroke-width: 1.0;"/><path d="M1317.2031,427.1406 L1317.2031,433.7969 L1318.9219,433.7969 Q1319.5313,433.7969 1319.7969,434.0313 Q1320.0625,434.2656 1320.0625,434.6563 Q1320.0625,435.0313 1319.7969,435.2656 Q1319.5313,435.5 1318.9219,435.5 L1313.7813,435.5 Q1313.1719,435.5 1312.9063,435.2656 Q1312.6406,435.0313 1312.6406,434.6406 Q1312.6406,434.2656 1312.9063,434.0313 Q1313.1719,433.7969 1313.7813,433.7969 L1315.5,433.7969 L1315.5,427.1406 L1313.7813,427.1406 Q1313.1719,427.1406 1312.9063,426.9063 Q1312.6406,426.6719 1312.6406,426.2813 Q1312.6406,425.9063 1312.9063,425.6719 Q1313.1719,425.4375 1313.7813,425.4375 L1318.9219,425.4375 Q1319.5313,425.4375 1319.7969,425.6719 Q1320.0625,425.9063 1320.0625,426.2813 Q1320.0625,426.6719 1319.7969,426.9063 Q1319.5313,427.1406 1318.9219,427.1406 L1317.2031,427.1406 Z "/><text fill="#000000" font-family="sans-serif" font-size="12" font-style="italic" lengthAdjust="spacingAndGlyphs" textLength="49" x="1336.75" y="435.4102">Analyzer</text><line style="stroke: #A80036; stroke-width: 1.5;" x1="1244.5" x2="1445.5" y1="446.5" y2="446.5"/><line style="stroke: #A80036; stroke-width: 1.5;" x1="1244.5" x2="1445.5" y1="454.5" y2="454.5"/><ellipse cx="1254.5" cy="466.918" fill="#84BE84" rx="3" ry="3" style="stroke: #038048; stroke-width: 1.0;"/><text fill="#000000" font-family="sans-serif" font-size="11" font-style="italic" lengthAdjust="spacingAndGlyphs" textLength="177" x="1263.5" y="469.9189">ourStuff.Data analyze(ourStuff.Data)</text><!--class ourStuff.AnalyzerChain--><rect fill="#FEFECE" filter="url(#f1ay84yl5g9jtf)" height="117.1797" id="ourStuff.AnalyzerChain" style="stroke: #A80036; stroke-width: 1.5;" width="204" x="1482" y="387"/><ellipse cx="1540.75" cy="403" fill="#ADD1B2" rx="11" ry="11" style="stroke: #A80036; stroke-width: 1.0;"/><path d="M1543.5156,398.875 Q1543.6719,398.6563 1543.8594,398.5469 Q1544.0469,398.4375 1544.2656,398.4375 Q1544.6406,398.4375 1544.875,398.6953 Q1545.1094,398.9531 1545.1094,399.5625 L1545.1094,401.0156 Q1545.1094,401.625 1544.875,401.8906 Q1544.6406,402.1563 1544.2656,402.1563 Q1543.9219,402.1563 1543.7188,401.9531 Q1543.5156,401.7656 1543.4063,401.25 Q1543.3594,400.8906 1543.1719,400.7031 Q1542.8438,400.3281 1542.2344,400.1094 Q1541.625,399.8906 1541,399.8906 Q1540.2344,399.8906 1539.6016,400.2188 Q1538.9688,400.5469 1538.4766,401.2969 Q1537.9844,402.0469 1537.9844,403.0781 L1537.9844,404.1719 Q1537.9844,405.4063 1538.875,406.2266 Q1539.7656,407.0469 1541.3594,407.0469 Q1542.2969,407.0469 1542.9531,406.7969 Q1543.3438,406.6406 1543.7656,406.2031 Q1544.0313,405.9375 1544.1797,405.8594 Q1544.3281,405.7813 1544.5313,405.7813 Q1544.8594,405.7813 1545.1172,406.0391 Q1545.375,406.2969 1545.375,406.6406 Q1545.375,406.9844 1545.0313,407.3906 Q1544.5313,407.9688 1543.7344,408.2969 Q1542.6563,408.75 1541.3594,408.75 Q1539.8438,408.75 1538.6406,408.125 Q1537.6563,407.625 1536.9688,406.5547 Q1536.2813,405.4844 1536.2813,404.2031 L1536.2813,403.0469 Q1536.2813,401.7188 1536.8984,400.5703 Q1537.5156,399.4219 1538.6094,398.8047 Q1539.7031,398.1875 1540.9375,398.1875 Q1541.6719,398.1875 1542.3203,398.3516 Q1542.9688,398.5156 1543.5156,398.875 Z "/><text fill="#000000" font-family="sans-serif" font-size="12" lengthAdjust="spacingAndGlyphs" textLength="78" x="1561.25" y="407.9102">AnalyzerChain</text><line style="stroke: #A80036; stroke-width: 1.5;" x1="1483" x2="1685" y1="419" y2="419"/><rect fill="none" height="6" style="stroke: #C82930; stroke-width: 1.0;" width="6" x="1490" y="428.418"/><text fill="#000000" font-family="sans-serif" font-size="11" lengthAdjust="spacingAndGlyphs" textLength="147" x="1502" y="434.4189">java.util.List analyzerCollection</text><line style="stroke: #A80036; stroke-width: 1.5;" x1="1483" x2="1685" y1="440.8359" y2="440.8359"/><ellipse cx="1493" cy="453.2539" fill="#84BE84" rx="3" ry="3" style="stroke: #038048; stroke-width: 1.0;"/><text fill="#000000" font-family="sans-serif" font-size="11" lengthAdjust="spacingAndGlyphs" textLength="56" x="1502" y="456.2549">void &lt;init&gt;()</text><ellipse cx="1493" cy="467.0898" fill="#84BE84" rx="3" ry="3" style="stroke: #038048; stroke-width: 1.0;"/><text fill="#000000" font-family="sans-serif" font-size="11" lengthAdjust="spacingAndGlyphs" textLength="178" x="1502" y="470.0908">void add(ourStuff.AbstractAnalyzer)</text><ellipse cx="1493" cy="480.9258" fill="#84BE84" rx="3" ry="3" style="stroke: #038048; stroke-width: 1.0;"/><text fill="#000000" font-family="sans-serif" font-size="11" lengthAdjust="spacingAndGlyphs" textLength="112" x="1502" y="483.9268">void run(ourStuff.Data)</text><ellipse cx="1493" cy="494.7617" fill="#84BE84" rx="3" ry="3" style="stroke: #038048; stroke-width: 1.0;"/><text fill="#000000" font-family="sans-serif" font-size="11" lengthAdjust="spacingAndGlyphs" textLength="42" x="1502" y="497.7627">int size()</text><!--class ourStuff.AssociationAnalyzer--><rect fill="#FEFECE" filter="url(#f1ay84yl5g9jtf)" height="75.6719" id="ourStuff.AssociationAnalyzer" style="stroke: #A80036; stroke-width: 1.5;" width="205" x="149.5" y="810"/><ellipse cx="193.3" cy="826" fill="#ADD1B2" rx="11" ry="11" style="stroke: #A80036; stroke-width: 1.0;"/><path d="M196.0656,821.875 Q196.2219,821.6563 196.4094,821.5469 Q196.5969,821.4375 196.8156,821.4375 Q197.1906,821.4375 197.425,821.6953 Q197.6594,821.9531 197.6594,822.5625 L197.6594,824.0156 Q197.6594,824.625 197.425,824.8906 Q197.1906,825.1563 196.8156,825.1563 Q196.4719,825.1563 196.2688,824.9531 Q196.0656,824.7656 195.9563,824.25 Q195.9094,823.8906 195.7219,823.7031 Q195.3938,823.3281 194.7844,823.1094 Q194.175,822.8906 193.55,822.8906 Q192.7844,822.8906 192.1516,823.2188 Q191.5188,823.5469 191.0266,824.2969 Q190.5344,825.0469 190.5344,826.0781 L190.5344,827.1719 Q190.5344,828.4063 191.425,829.2266 Q192.3156,830.0469 193.9094,830.0469 Q194.8469,830.0469 195.5031,829.7969 Q195.8938,829.6406 196.3156,829.2031 Q196.5813,828.9375 196.7297,828.8594 Q196.8781,828.7813 197.0813,828.7813 Q197.4094,828.7813 197.6672,829.0391 Q197.925,829.2969 197.925,829.6406 Q197.925,829.9844 197.5813,830.3906 Q197.0813,830.9688 196.2844,831.2969 Q195.2063,831.75 193.9094,831.75 Q192.3938,831.75 191.1906,831.125 Q190.2063,830.625 189.5188,829.5547 Q188.8313,828.4844 188.8313,827.2031 L188.8313,826.0469 Q188.8313,824.7188 189.4484,823.5703 Q190.0656,822.4219 191.1594,821.8047 Q192.2531,821.1875 193.4875,821.1875 Q194.2219,821.1875 194.8703,821.3516 Q195.5188,821.5156 196.0656,821.875 Z "/><text fill="#000000" font-family="sans-serif" font-size="12" lengthAdjust="spacingAndGlyphs" textLength="109" x="213.7" y="830.9102">AssociationAnalyzer</text><line style="stroke: #A80036; stroke-width: 1.5;" x1="150.5" x2="353.5" y1="842" y2="842"/><line style="stroke: #A80036; stroke-width: 1.5;" x1="150.5" x2="353.5" y1="850" y2="850"/><ellipse cx="160.5" cy="862.418" fill="#84BE84" rx="3" ry="3" style="stroke: #038048; stroke-width: 1.0;"/><text fill="#000000" font-family="sans-serif" font-size="11" lengthAdjust="spacingAndGlyphs" textLength="56" x="169.5" y="865.4189">void &lt;init&gt;()</text><ellipse cx="160.5" cy="876.2539" fill="#84BE84" rx="3" ry="3" style="stroke: #038048; stroke-width: 1.0;"/><text fill="#000000" font-family="sans-serif" font-size="11" lengthAdjust="spacingAndGlyphs" textLength="179" x="169.5" y="879.2549">ourStuff.Data analyze(ourStuff.Data)</text><!--class ourStuff.ClassCodeGenAnalyzer--><rect fill="#FEFECE" filter="url(#f1ay84yl5g9jtf)" height="186.3594" id="ourStuff.ClassCodeGenAnalyzer" style="stroke: #A80036; stroke-width: 1.5;" width="299" x="389.5" y="755"/><ellipse cx="469.25" cy="771" fill="#ADD1B2" rx="11" ry="11" style="stroke: #A80036; stroke-width: 1.0;"/><path d="M472.0156,766.875 Q472.1719,766.6563 472.3594,766.5469 Q472.5469,766.4375 472.7656,766.4375 Q473.1406,766.4375 473.375,766.6953 Q473.6094,766.9531 473.6094,767.5625 L473.6094,769.0156 Q473.6094,769.625 473.375,769.8906 Q473.1406,770.1563 472.7656,770.1563 Q472.4219,770.1563 472.2188,769.9531 Q472.0156,769.7656 471.9063,769.25 Q471.8594,768.8906 471.6719,768.7031 Q471.3438,768.3281 470.7344,768.1094 Q470.125,767.8906 469.5,767.8906 Q468.7344,767.8906 468.1016,768.2188 Q467.4688,768.5469 466.9766,769.2969 Q466.4844,770.0469 466.4844,771.0781 L466.4844,772.1719 Q466.4844,773.4063 467.375,774.2266 Q468.2656,775.0469 469.8594,775.0469 Q470.7969,775.0469 471.4531,774.7969 Q471.8438,774.6406 472.2656,774.2031 Q472.5313,773.9375 472.6797,773.8594 Q472.8281,773.7813 473.0313,773.7813 Q473.3594,773.7813 473.6172,774.0391 Q473.875,774.2969 473.875,774.6406 Q473.875,774.9844 473.5313,775.3906 Q473.0313,775.9688 472.2344,776.2969 Q471.1563,776.75 469.8594,776.75 Q468.3438,776.75 467.1406,776.125 Q466.1563,775.625 465.4688,774.5547 Q464.7813,773.4844 464.7813,772.2031 L464.7813,771.0469 Q464.7813,769.7188 465.3984,768.5703 Q466.0156,767.4219 467.1094,766.8047 Q468.2031,766.1875 469.4375,766.1875 Q470.1719,766.1875 470.8203,766.3516 Q471.4688,766.5156 472.0156,766.875 Z "/><text fill="#000000" font-family="sans-serif" font-size="12" lengthAdjust="spacingAndGlyphs" textLength="131" x="489.75" y="775.9102">ClassCodeGenAnalyzer</text><line style="stroke: #A80036; stroke-width: 1.5;" x1="390.5" x2="687.5" y1="787" y2="787"/><line style="stroke: #A80036; stroke-width: 1.5;" x1="390.5" x2="687.5" y1="795" y2="795"/><ellipse cx="400.5" cy="807.418" fill="#84BE84" rx="3" ry="3" style="stroke: #038048; stroke-width: 1.0;"/><text fill="#000000" font-family="sans-serif" font-size="11" lengthAdjust="spacingAndGlyphs" textLength="56" x="409.5" y="810.4189">void &lt;init&gt;()</text><ellipse cx="400.5" cy="821.2539" fill="#84BE84" rx="3" ry="3" style="stroke: #038048; stroke-width: 1.0;"/><text fill="#000000" font-family="sans-serif" font-size="11" lengthAdjust="spacingAndGlyphs" textLength="179" x="409.5" y="824.2549">ourStuff.Data analyze(ourStuff.Data)</text><rect fill="#F24D5C" height="6" style="stroke: #C82930; stroke-width: 1.0;" width="6" x="397.5" y="832.0898"/><text fill="#000000" font-family="sans-serif" font-size="11" lengthAdjust="spacingAndGlyphs" textLength="272" x="409.5" y="838.0908">java.lang.String genString(soot.SootClass,ourStuff.Data)</text><rect fill="#F24D5C" height="6" style="stroke: #C82930; stroke-width: 1.0;" width="6" x="397.5" y="845.9258"/><text fill="#000000" font-family="sans-serif" font-size="11" lengthAdjust="spacingAndGlyphs" textLength="273" x="409.5" y="851.9268">java.lang.String genMethodDeclaration(soot.SootMethod)</text><rect fill="#F24D5C" height="6" style="stroke: #C82930; stroke-width: 1.0;" width="6" x="397.5" y="859.7617"/><text fill="#000000" font-family="sans-serif" font-size="11" lengthAdjust="spacingAndGlyphs" textLength="170" x="409.5" y="865.7627">boolean filterClass(soot.SootClass)</text><rect fill="#F24D5C" height="6" style="stroke: #C82930; stroke-width: 1.0;" width="6" x="397.5" y="873.5977"/><text fill="#000000" font-family="sans-serif" font-size="11" lengthAdjust="spacingAndGlyphs" textLength="267" x="409.5" y="879.5986">java.lang.String addDependencyArrows(ourStuff.Data)</text><rect fill="#F24D5C" height="6" style="stroke: #C82930; stroke-width: 1.0;" width="6" x="397.5" y="887.4336"/><text fill="#000000" font-family="sans-serif" font-size="11" lengthAdjust="spacingAndGlyphs" textLength="263" x="409.5" y="893.4346">java.lang.String addAssociationArrows(ourStuff.Data)</text><rect fill="#F24D5C" height="6" style="stroke: #C82930; stroke-width: 1.0;" width="6" x="397.5" y="901.2695"/><text fill="#000000" font-family="sans-serif" font-size="11" lengthAdjust="spacingAndGlyphs" text-decoration="underline" textLength="260" x="409.5" y="907.2705">void lambda$0(java.lang.StringBuilder,soot.SootClass)</text><line style="stroke: #000000; stroke-width: 1.0;" x1="409.5" x2="669.5" y1="909.2705" y2="909.2705"/><rect fill="#F24D5C" height="6" style="stroke: #C82930; stroke-width: 1.0;" width="6" x="397.5" y="915.1055"/><text fill="#000000" font-family="sans-serif" font-size="11" lengthAdjust="spacingAndGlyphs" text-decoration="underline" textLength="234" x="409.5" y="921.1064">void lambda$1(soot.SootClass,soot.SootMethod)</text><line style="stroke: #000000; stroke-width: 1.0;" x1="409.5" x2="643.5" y1="923.1064" y2="923.1064"/><rect fill="#F24D5C" height="6" style="stroke: #C82930; stroke-width: 1.0;" width="6" x="397.5" y="928.9414"/><text fill="#000000" font-family="sans-serif" font-size="11" lengthAdjust="spacingAndGlyphs" text-decoration="underline" textLength="221" x="409.5" y="934.9424">void lambda$2(soot.SootClass,soot.SootField)</text><line style="stroke: #000000; stroke-width: 1.0;" x1="409.5" x2="630.5" y1="936.9424" y2="936.9424"/><!--class ourStuff.Data--><rect fill="#FEFECE" filter="url(#f1ay84yl5g9jtf)" height="131.0156" id="ourStuff.Data" style="stroke: #A80036; stroke-width: 1.5;" width="175" x="69.5" y="196"/><ellipse cx="139.75" cy="212" fill="#ADD1B2" rx="11" ry="11" style="stroke: #A80036; stroke-width: 1.0;"/><path d="M142.5156,207.875 Q142.6719,207.6563 142.8594,207.5469 Q143.0469,207.4375 143.2656,207.4375 Q143.6406,207.4375 143.875,207.6953 Q144.1094,207.9531 144.1094,208.5625 L144.1094,210.0156 Q144.1094,210.625 143.875,210.8906 Q143.6406,211.1563 143.2656,211.1563 Q142.9219,211.1563 142.7188,210.9531 Q142.5156,210.7656 142.4063,210.25 Q142.3594,209.8906 142.1719,209.7031 Q141.8438,209.3281 141.2344,209.1094 Q140.625,208.8906 140,208.8906 Q139.2344,208.8906 138.6016,209.2188 Q137.9688,209.5469 137.4766,210.2969 Q136.9844,211.0469 136.9844,212.0781 L136.9844,213.1719 Q136.9844,214.4063 137.875,215.2266 Q138.7656,216.0469 140.3594,216.0469 Q141.2969,216.0469 141.9531,215.7969 Q142.3438,215.6406 142.7656,215.2031 Q143.0313,214.9375 143.1797,214.8594 Q143.3281,214.7813 143.5313,214.7813 Q143.8594,214.7813 144.1172,215.0391 Q144.375,215.2969 144.375,215.6406 Q144.375,215.9844 144.0313,216.3906 Q143.5313,216.9688 142.7344,217.2969 Q141.6563,217.75 140.3594,217.75 Q138.8438,217.75 137.6406,217.125 Q136.6563,216.625 135.9688,215.5547 Q135.2813,214.4844 135.2813,213.2031 L135.2813,212.0469 Q135.2813,210.7188 135.8984,209.5703 Q136.5156,208.4219 137.6094,207.8047 Q138.7031,207.1875 139.9375,207.1875 Q140.6719,207.1875 141.3203,207.3516 Q141.9688,207.5156 142.5156,207.875 Z "/><text fill="#000000" font-family="sans-serif" font-size="12" lengthAdjust="spacingAndGlyphs" textLength="26" x="160.25" y="216.9102">Data</text><line style="stroke: #A80036; stroke-width: 1.5;" x1="70.5" x2="243.5" y1="228" y2="228"/><ellipse cx="80.5" cy="240.418" fill="none" rx="3" ry="3" style="stroke: #038048; stroke-width: 1.0;"/><text fill="#000000" font-family="sans-serif" font-size="11" lengthAdjust="spacingAndGlyphs" textLength="126" x="89.5" y="243.4189">java.util.Collection classes</text><ellipse cx="80.5" cy="254.2539" fill="none" rx="3" ry="3" style="stroke: #038048; stroke-width: 1.0;"/><text fill="#000000" font-family="sans-serif" font-size="11" lengthAdjust="spacingAndGlyphs" textLength="149" x="89.5" y="257.2549">java.util.Collection relationships</text><ellipse cx="80.5" cy="268.0898" fill="none" rx="3" ry="3" style="stroke: #038048; stroke-width: 1.0;"/><text fill="#000000" font-family="sans-serif" font-size="11" lengthAdjust="spacingAndGlyphs" textLength="92" x="89.5" y="271.0908">java.util.Map config</text><ellipse cx="80.5" cy="281.9258" fill="none" rx="3" ry="3" style="stroke: #038048; stroke-width: 1.0;"/><text fill="#000000" font-family="sans-serif" font-size="11" lengthAdjust="spacingAndGlyphs" textLength="88" x="89.5" y="284.9268">soot.Scene scene</text><ellipse cx="80.5" cy="295.7617" fill="none" rx="3" ry="3" style="stroke: #038048; stroke-width: 1.0;"/><text fill="#000000" font-family="sans-serif" font-size="11" lengthAdjust="spacingAndGlyphs" textLength="102" x="89.5" y="298.7627">java.nio.file.Path path</text><line style="stroke: #A80036; stroke-width: 1.5;" x1="70.5" x2="243.5" y1="305.1797" y2="305.1797"/><ellipse cx="80.5" cy="317.5977" fill="#84BE84" rx="3" ry="3" style="stroke: #038048; stroke-width: 1.0;"/><text fill="#000000" font-family="sans-serif" font-size="11" lengthAdjust="spacingAndGlyphs" textLength="56" x="89.5" y="320.5986">void &lt;init&gt;()</text><!--class ourStuff.DependencyAnalyzer--><rect fill="#FEFECE" filter="url(#f1ay84yl5g9jtf)" height="103.3438" id="ourStuff.DependencyAnalyzer" style="stroke: #A80036; stroke-width: 1.5;" width="532" x="1381" y="796.5"/><ellipse cx="1585.75" cy="812.5" fill="#ADD1B2" rx="11" ry="11" style="stroke: #A80036; stroke-width: 1.0;"/><path d="M1588.5156,808.375 Q1588.6719,808.1563 1588.8594,808.0469 Q1589.0469,807.9375 1589.2656,807.9375 Q1589.6406,807.9375 1589.875,808.1953 Q1590.1094,808.4531 1590.1094,809.0625 L1590.1094,810.5156 Q1590.1094,811.125 1589.875,811.3906 Q1589.6406,811.6563 1589.2656,811.6563 Q1588.9219,811.6563 1588.7188,811.4531 Q1588.5156,811.2656 1588.4063,810.75 Q1588.3594,810.3906 1588.1719,810.2031 Q1587.8438,809.8281 1587.2344,809.6094 Q1586.625,809.3906 1586,809.3906 Q1585.2344,809.3906 1584.6016,809.7188 Q1583.9688,810.0469 1583.4766,810.7969 Q1582.9844,811.5469 1582.9844,812.5781 L1582.9844,813.6719 Q1582.9844,814.9063 1583.875,815.7266 Q1584.7656,816.5469 1586.3594,816.5469 Q1587.2969,816.5469 1587.9531,816.2969 Q1588.3438,816.1406 1588.7656,815.7031 Q1589.0313,815.4375 1589.1797,815.3594 Q1589.3281,815.2813 1589.5313,815.2813 Q1589.8594,815.2813 1590.1172,815.5391 Q1590.375,815.7969 1590.375,816.1406 Q1590.375,816.4844 1590.0313,816.8906 Q1589.5313,817.4688 1588.7344,817.7969 Q1587.6563,818.25 1586.3594,818.25 Q1584.8438,818.25 1583.6406,817.625 Q1582.6563,817.125 1581.9688,816.0547 Q1581.2813,814.9844 1581.2813,813.7031 L1581.2813,812.5469 Q1581.2813,811.2188 1581.8984,810.0703 Q1582.5156,808.9219 1583.6094,808.3047 Q1584.7031,807.6875 1585.9375,807.6875 Q1586.6719,807.6875 1587.3203,807.8516 Q1587.9688,808.0156 1588.5156,808.375 Z "/><text fill="#000000" font-family="sans-serif" font-size="12" lengthAdjust="spacingAndGlyphs" textLength="114" x="1606.25" y="817.4102">DependencyAnalyzer</text><line style="stroke: #A80036; stroke-width: 1.5;" x1="1382" x2="1912" y1="828.5" y2="828.5"/><line style="stroke: #A80036; stroke-width: 1.5;" x1="1382" x2="1912" y1="836.5" y2="836.5"/><ellipse cx="1392" cy="848.918" fill="#84BE84" rx="3" ry="3" style="stroke: #038048; stroke-width: 1.0;"/><text fill="#000000" font-family="sans-serif" font-size="11" lengthAdjust="spacingAndGlyphs" textLength="56" x="1401" y="851.9189">void &lt;init&gt;()</text><ellipse cx="1392" cy="862.7539" fill="#84BE84" rx="3" ry="3" style="stroke: #038048; stroke-width: 1.0;"/><text fill="#000000" font-family="sans-serif" font-size="11" lengthAdjust="spacingAndGlyphs" textLength="179" x="1401" y="865.7549">ourStuff.Data analyze(ourStuff.Data)</text><rect fill="#F24D5C" height="6" style="stroke: #C82930; stroke-width: 1.0;" width="6" x="1389" y="873.5898"/><text fill="#000000" font-family="sans-serif" font-size="11" lengthAdjust="spacingAndGlyphs" textLength="506" x="1401" y="879.5908">void getTypeDependencies(ourStuff.Data,soot.SootClass,edu.rosehulman.jvm.sigevaluator.GenericType)</text><rect fill="#F24D5C" height="6" style="stroke: #C82930; stroke-width: 1.0;" width="6" x="1389" y="887.4258"/><text fill="#000000" font-family="sans-serif" font-size="11" lengthAdjust="spacingAndGlyphs" text-decoration="underline" textLength="151" x="1401" y="893.4268">void lambda$0(java.lang.String)</text><line style="stroke: #000000; stroke-width: 1.0;" x1="1401" x2="1552" y1="895.4268" y2="895.4268"/><!--class ourStuff.FileCreator--><rect fill="#FEFECE" filter="url(#f1ay84yl5g9jtf)" height="75.6719" id="ourStuff.FileCreator" style="stroke: #A80036; stroke-width: 1.5;" width="169" x="553.5" y="60"/><ellipse cx="603.25" cy="76" fill="#ADD1B2" rx="11" ry="11" style="stroke: #A80036; stroke-width: 1.0;"/><path d="M606.0156,71.875 Q606.1719,71.6563 606.3594,71.5469 Q606.5469,71.4375 606.7656,71.4375 Q607.1406,71.4375 607.375,71.6953 Q607.6094,71.9531 607.6094,72.5625 L607.6094,74.0156 Q607.6094,74.625 607.375,74.8906 Q607.1406,75.1563 606.7656,75.1563 Q606.4219,75.1563 606.2188,74.9531 Q606.0156,74.7656 605.9063,74.25 Q605.8594,73.8906 605.6719,73.7031 Q605.3438,73.3281 604.7344,73.1094 Q604.125,72.8906 603.5,72.8906 Q602.7344,72.8906 602.1016,73.2188 Q601.4688,73.5469 600.9766,74.2969 Q600.4844,75.0469 600.4844,76.0781 L600.4844,77.1719 Q600.4844,78.4063 601.375,79.2266 Q602.2656,80.0469 603.8594,80.0469 Q604.7969,80.0469 605.4531,79.7969 Q605.8438,79.6406 606.2656,79.2031 Q606.5313,78.9375 606.6797,78.8594 Q606.8281,78.7813 607.0313,78.7813 Q607.3594,78.7813 607.6172,79.0391 Q607.875,79.2969 607.875,79.6406 Q607.875,79.9844 607.5313,80.3906 Q607.0313,80.9688 606.2344,81.2969 Q605.1563,81.75 603.8594,81.75 Q602.3438,81.75 601.1406,81.125 Q600.1563,80.625 599.4688,79.5547 Q598.7813,78.4844 598.7813,77.2031 L598.7813,76.0469 Q598.7813,74.7188 599.3984,73.5703 Q600.0156,72.4219 601.1094,71.8047 Q602.2031,71.1875 603.4375,71.1875 Q604.1719,71.1875 604.8203,71.3516 Q605.4688,71.5156 606.0156,71.875 Z "/><text fill="#000000" font-family="sans-serif" font-size="12" lengthAdjust="spacingAndGlyphs" textLength="61" x="623.75" y="80.9102">FileCreator</text><line style="stroke: #A80036; stroke-width: 1.5;" x1="554.5" x2="721.5" y1="92" y2="92"/><line style="stroke: #A80036; stroke-width: 1.5;" x1="554.5" x2="721.5" y1="100" y2="100"/><ellipse cx="564.5" cy="112.418" fill="#84BE84" rx="3" ry="3" style="stroke: #038048; stroke-width: 1.0;"/><text fill="#000000" font-family="sans-serif" font-size="11" lengthAdjust="spacingAndGlyphs" textLength="56" x="573.5" y="115.4189">void &lt;init&gt;()</text><ellipse cx="564.5" cy="126.2539" fill="#84BE84" rx="3" ry="3" style="stroke: #038048; stroke-width: 1.0;"/><text fill="#000000" font-family="sans-serif" font-size="11" lengthAdjust="spacingAndGlyphs" textLength="143" x="573.5" y="129.2549">void getSVG(java.lang.String)</text><!--class ourStuff.Filter--><rect fill="#FEFECE" filter="url(#f1ay84yl5g9jtf)" height="89.5078" id="ourStuff.Filter" style="stroke: #A80036; stroke-width: 1.5;" width="190" x="2474" y="1014.5"/><ellipse cx="2551.25" cy="1030.5" fill="#B4A7E5" rx="11" ry="11" style="stroke: #A80036; stroke-width: 1.0;"/><path d="M2552.2031,1027.1406 L2552.2031,1033.7969 L2553.9219,1033.7969 Q2554.5313,1033.7969 2554.7969,1034.0313 Q2555.0625,1034.2656 2555.0625,1034.6563 Q2555.0625,1035.0313 2554.7969,1035.2656 Q2554.5313,1035.5 2553.9219,1035.5 L2548.7813,1035.5 Q2548.1719,1035.5 2547.9063,1035.2656 Q2547.6406,1035.0313 2547.6406,1034.6406 Q2547.6406,1034.2656 2547.9063,1034.0313 Q2548.1719,1033.7969 2548.7813,1033.7969 L2550.5,1033.7969 L2550.5,1027.1406 L2548.7813,1027.1406 Q2548.1719,1027.1406 2547.9063,1026.9063 Q2547.6406,1026.6719 2547.6406,1026.2813 Q2547.6406,1025.9063 2547.9063,1025.6719 Q2548.1719,1025.4375 2548.7813,1025.4375 L2553.9219,1025.4375 Q2554.5313,1025.4375 2554.7969,1025.6719 Q2555.0625,1025.9063 2555.0625,1026.2813 Q2555.0625,1026.6719 2554.7969,1026.9063 Q2554.5313,1027.1406 2553.9219,1027.1406 L2552.2031,1027.1406 Z "/><text fill="#000000" font-family="sans-serif" font-size="12" font-style="italic" lengthAdjust="spacingAndGlyphs" textLength="27" x="2571.75" y="1035.4102">Filter</text><line style="stroke: #A80036; stroke-width: 1.5;" x1="2475" x2="2663" y1="1046.5" y2="1046.5"/><line style="stroke: #A80036; stroke-width: 1.5;" x1="2475" x2="2663" y1="1054.5" y2="1054.5"/><ellipse cx="2485" cy="1066.918" fill="#84BE84" rx="3" ry="3" style="stroke: #038048; stroke-width: 1.0;"/><text fill="#000000" font-family="sans-serif" font-size="11" font-style="italic" lengthAdjust="spacingAndGlyphs" textLength="157" x="2494" y="1069.9189">boolean ignore(soot.SootClass)</text><ellipse cx="2485" cy="1080.7539" fill="#84BE84" rx="3" ry="3" style="stroke: #038048; stroke-width: 1.0;"/><text fill="#000000" font-family="sans-serif" font-size="11" font-style="italic" lengthAdjust="spacingAndGlyphs" textLength="164" x="2494" y="1083.7549">boolean ignore(soot.SootMethod)</text><ellipse cx="2485" cy="1094.5898" fill="#84BE84" rx="3" ry="3" style="stroke: #038048; stroke-width: 1.0;"/><text fill="#000000" font-family="sans-serif" font-size="11" font-style="italic" lengthAdjust="spacingAndGlyphs" textLength="153" x="2494" y="1097.5908">boolean ignore(soot.SootField)</text><!--class ourStuff.ImplementationAnalyzer--><rect fill="#FEFECE" filter="url(#f1ay84yl5g9jtf)" height="103.3438" id="ourStuff.ImplementationAnalyzer" style="stroke: #A80036; stroke-width: 1.5;" width="286" x="724" y="796.5"/><ellipse cx="797.25" cy="812.5" fill="#ADD1B2" rx="11" ry="11" style="stroke: #A80036; stroke-width: 1.0;"/><path d="M800.0156,808.375 Q800.1719,808.1563 800.3594,808.0469 Q800.5469,807.9375 800.7656,807.9375 Q801.1406,807.9375 801.375,808.1953 Q801.6094,808.4531 801.6094,809.0625 L801.6094,810.5156 Q801.6094,811.125 801.375,811.3906 Q801.1406,811.6563 800.7656,811.6563 Q800.4219,811.6563 800.2188,811.4531 Q800.0156,811.2656 799.9063,810.75 Q799.8594,810.3906 799.6719,810.2031 Q799.3438,809.8281 798.7344,809.6094 Q798.125,809.3906 797.5,809.3906 Q796.7344,809.3906 796.1016,809.7188 Q795.4688,810.0469 794.9766,810.7969 Q794.4844,811.5469 794.4844,812.5781 L794.4844,813.6719 Q794.4844,814.9063 795.375,815.7266 Q796.2656,816.5469 797.8594,816.5469 Q798.7969,816.5469 799.4531,816.2969 Q799.8438,816.1406 800.2656,815.7031 Q800.5313,815.4375 800.6797,815.3594 Q800.8281,815.2813 801.0313,815.2813 Q801.3594,815.2813 801.6172,815.5391 Q801.875,815.7969 801.875,816.1406 Q801.875,816.4844 801.5313,816.8906 Q801.0313,817.4688 800.2344,817.7969 Q799.1563,818.25 797.8594,818.25 Q796.3438,818.25 795.1406,817.625 Q794.1563,817.125 793.4688,816.0547 Q792.7813,814.9844 792.7813,813.7031 L792.7813,812.5469 Q792.7813,811.2188 793.3984,810.0703 Q794.0156,808.9219 795.1094,808.3047 Q796.2031,807.6875 797.4375,807.6875 Q798.1719,807.6875 798.8203,807.8516 Q799.4688,808.0156 800.0156,808.375 Z "/><text fill="#000000" font-family="sans-serif" font-size="12" lengthAdjust="spacingAndGlyphs" textLength="131" x="817.75" y="817.4102">ImplementationAnalyzer</text><line style="stroke: #A80036; stroke-width: 1.5;" x1="725" x2="1009" y1="828.5" y2="828.5"/><line style="stroke: #A80036; stroke-width: 1.5;" x1="725" x2="1009" y1="836.5" y2="836.5"/><ellipse cx="735" cy="848.918" fill="#84BE84" rx="3" ry="3" style="stroke: #038048; stroke-width: 1.0;"/><text fill="#000000" font-family="sans-serif" font-size="11" lengthAdjust="spacingAndGlyphs" textLength="56" x="744" y="851.9189">void &lt;init&gt;()</text><ellipse cx="735" cy="862.7539" fill="#84BE84" rx="3" ry="3" style="stroke: #038048; stroke-width: 1.0;"/><text fill="#000000" font-family="sans-serif" font-size="11" lengthAdjust="spacingAndGlyphs" textLength="179" x="744" y="865.7549">ourStuff.Data analyze(ourStuff.Data)</text><rect fill="#F24D5C" height="6" style="stroke: #C82930; stroke-width: 1.0;" width="6" x="732" y="873.5898"/><text fill="#000000" font-family="sans-serif" font-size="11" lengthAdjust="spacingAndGlyphs" textLength="260" x="744" y="879.5908">java.util.Collection getImplementations(soot.SootClass)</text><rect fill="#F24D5C" height="6" style="stroke: #C82930; stroke-width: 1.0;" width="6" x="732" y="887.4258"/><text fill="#000000" font-family="sans-serif" font-size="11" lengthAdjust="spacingAndGlyphs" textLength="218" x="744" y="893.4268">void lambda$0(ourStuff.Data,soot.SootClass)</text><!--class ourStuff.InheritenceAnalyzer--><rect fill="#FEFECE" filter="url(#f1ay84yl5g9jtf)" height="103.3438" id="ourStuff.InheritenceAnalyzer" style="stroke: #A80036; stroke-width: 1.5;" width="263" x="1045.5" y="796.5"/><ellipse cx="1119.75" cy="812.5" fill="#ADD1B2" rx="11" ry="11" style="stroke: #A80036; stroke-width: 1.0;"/><path d="M1122.5156,808.375 Q1122.6719,808.1563 1122.8594,808.0469 Q1123.0469,807.9375 1123.2656,807.9375 Q1123.6406,807.9375 1123.875,808.1953 Q1124.1094,808.4531 1124.1094,809.0625 L1124.1094,810.5156 Q1124.1094,811.125 1123.875,811.3906 Q1123.6406,811.6563 1123.2656,811.6563 Q1122.9219,811.6563 1122.7188,811.4531 Q1122.5156,811.2656 1122.4063,810.75 Q1122.3594,810.3906 1122.1719,810.2031 Q1121.8438,809.8281 1121.2344,809.6094 Q1120.625,809.3906 1120,809.3906 Q1119.2344,809.3906 1118.6016,809.7188 Q1117.9688,810.0469 1117.4766,810.7969 Q1116.9844,811.5469 1116.9844,812.5781 L1116.9844,813.6719 Q1116.9844,814.9063 1117.875,815.7266 Q1118.7656,816.5469 1120.3594,816.5469 Q1121.2969,816.5469 1121.9531,816.2969 Q1122.3438,816.1406 1122.7656,815.7031 Q1123.0313,815.4375 1123.1797,815.3594 Q1123.3281,815.2813 1123.5313,815.2813 Q1123.8594,815.2813 1124.1172,815.5391 Q1124.375,815.7969 1124.375,816.1406 Q1124.375,816.4844 1124.0313,816.8906 Q1123.5313,817.4688 1122.7344,817.7969 Q1121.6563,818.25 1120.3594,818.25 Q1118.8438,818.25 1117.6406,817.625 Q1116.6563,817.125 1115.9688,816.0547 Q1115.2813,814.9844 1115.2813,813.7031 L1115.2813,812.5469 Q1115.2813,811.2188 1115.8984,810.0703 Q1116.5156,808.9219 1117.6094,808.3047 Q1118.7031,807.6875 1119.9375,807.6875 Q1120.6719,807.6875 1121.3203,807.8516 Q1121.9688,808.0156 1122.5156,808.375 Z "/><text fill="#000000" font-family="sans-serif" font-size="12" lengthAdjust="spacingAndGlyphs" textLength="106" x="1140.25" y="817.4102">InheritenceAnalyzer</text><line style="stroke: #A80036; stroke-width: 1.5;" x1="1046.5" x2="1307.5" y1="828.5" y2="828.5"/><line style="stroke: #A80036; stroke-width: 1.5;" x1="1046.5" x2="1307.5" y1="836.5" y2="836.5"/><ellipse cx="1056.5" cy="848.918" fill="#84BE84" rx="3" ry="3" style="stroke: #038048; stroke-width: 1.0;"/><text fill="#000000" font-family="sans-serif" font-size="11" lengthAdjust="spacingAndGlyphs" textLength="56" x="1065.5" y="851.9189">void &lt;init&gt;()</text><ellipse cx="1056.5" cy="862.7539" fill="#84BE84" rx="3" ry="3" style="stroke: #038048; stroke-width: 1.0;"/><text fill="#000000" font-family="sans-serif" font-size="11" lengthAdjust="spacingAndGlyphs" textLength="179" x="1065.5" y="865.7549">ourStuff.Data analyze(ourStuff.Data)</text><rect fill="#F24D5C" height="6" style="stroke: #C82930; stroke-width: 1.0;" width="6" x="1053.5" y="873.5898"/><text fill="#000000" font-family="sans-serif" font-size="11" lengthAdjust="spacingAndGlyphs" textLength="237" x="1065.5" y="879.5908">java.util.Collection getInheritance(soot.SootClass)</text><rect fill="#F24D5C" height="6" style="stroke: #C82930; stroke-width: 1.0;" width="6" x="1053.5" y="887.4258"/><text fill="#000000" font-family="sans-serif" font-size="11" lengthAdjust="spacingAndGlyphs" textLength="218" x="1065.5" y="893.4268">void lambda$0(ourStuff.Data,soot.SootClass)</text><!--class ourStuff.JDKFilter--><rect fill="#FEFECE" filter="url(#f1ay84yl5g9jtf)" height="103.3438" id="ourStuff.JDKFilter" style="stroke: #A80036; stroke-width: 1.5;" width="186" x="2476" y="1178"/><ellipse cx="2539.75" cy="1194" fill="#ADD1B2" rx="11" ry="11" style="stroke: #A80036; stroke-width: 1.0;"/><path d="M2542.5156,1189.875 Q2542.6719,1189.6563 2542.8594,1189.5469 Q2543.0469,1189.4375 2543.2656,1189.4375 Q2543.6406,1189.4375 2543.875,1189.6953 Q2544.1094,1189.9531 2544.1094,1190.5625 L2544.1094,1192.0156 Q2544.1094,1192.625 2543.875,1192.8906 Q2543.6406,1193.1563 2543.2656,1193.1563 Q2542.9219,1193.1563 2542.7188,1192.9531 Q2542.5156,1192.7656 2542.4063,1192.25 Q2542.3594,1191.8906 2542.1719,1191.7031 Q2541.8438,1191.3281 2541.2344,1191.1094 Q2540.625,1190.8906 2540,1190.8906 Q2539.2344,1190.8906 2538.6016,1191.2188 Q2537.9688,1191.5469 2537.4766,1192.2969 Q2536.9844,1193.0469 2536.9844,1194.0781 L2536.9844,1195.1719 Q2536.9844,1196.4063 2537.875,1197.2266 Q2538.7656,1198.0469 2540.3594,1198.0469 Q2541.2969,1198.0469 2541.9531,1197.7969 Q2542.3438,1197.6406 2542.7656,1197.2031 Q2543.0313,1196.9375 2543.1797,1196.8594 Q2543.3281,1196.7813 2543.5313,1196.7813 Q2543.8594,1196.7813 2544.1172,1197.0391 Q2544.375,1197.2969 2544.375,1197.6406 Q2544.375,1197.9844 2544.0313,1198.3906 Q2543.5313,1198.9688 2542.7344,1199.2969 Q2541.6563,1199.75 2540.3594,1199.75 Q2538.8438,1199.75 2537.6406,1199.125 Q2536.6563,1198.625 2535.9688,1197.5547 Q2535.2813,1196.4844 2535.2813,1195.2031 L2535.2813,1194.0469 Q2535.2813,1192.7188 2535.8984,1191.5703 Q2536.5156,1190.4219 2537.6094,1189.8047 Q2538.7031,1189.1875 2539.9375,1189.1875 Q2540.6719,1189.1875 2541.3203,1189.3516 Q2541.9688,1189.5156 2542.5156,1189.875 Z "/><text fill="#000000" font-family="sans-serif" font-size="12" lengthAdjust="spacingAndGlyphs" textLength="50" x="2560.25" y="1198.9102">JDKFilter</text><line style="stroke: #A80036; stroke-width: 1.5;" x1="2477" x2="2661" y1="1210" y2="1210"/><line style="stroke: #A80036; stroke-width: 1.5;" x1="2477" x2="2661" y1="1218" y2="1218"/><ellipse cx="2487" cy="1230.418" fill="#84BE84" rx="3" ry="3" style="stroke: #038048; stroke-width: 1.0;"/><text fill="#000000" font-family="sans-serif" font-size="11" lengthAdjust="spacingAndGlyphs" textLength="56" x="2496" y="1233.4189">void &lt;init&gt;()</text><ellipse cx="2487" cy="1244.2539" fill="#84BE84" rx="3" ry="3" style="stroke: #038048; stroke-width: 1.0;"/><text fill="#000000" font-family="sans-serif" font-size="11" lengthAdjust="spacingAndGlyphs" textLength="152" x="2496" y="1247.2549">boolean ignore(soot.SootClass)</text><ellipse cx="2487" cy="1258.0898" fill="#84BE84" rx="3" ry="3" style="stroke: #038048; stroke-width: 1.0;"/><text fill="#000000" font-family="sans-serif" font-size="11" lengthAdjust="spacingAndGlyphs" textLength="160" x="2496" y="1261.0908">boolean ignore(soot.SootMethod)</text><ellipse cx="2487" cy="1271.9258" fill="#84BE84" rx="3" ry="3" style="stroke: #038048; stroke-width: 1.0;"/><text fill="#000000" font-family="sans-serif" font-size="11" lengthAdjust="spacingAndGlyphs" textLength="147" x="2496" y="1274.9268">boolean ignore(soot.SootField)</text><!--class ourStuff.Preprocessor--><rect fill="#FEFECE" filter="url(#f1ay84yl5g9jtf)" height="117.1797" id="ourStuff.Preprocessor" style="stroke: #A80036; stroke-width: 1.5;" width="356" x="1174" y="203"/><ellipse cx="1310.25" cy="219" fill="#ADD1B2" rx="11" ry="11" style="stroke: #A80036; stroke-width: 1.0;"/><path d="M1313.0156,214.875 Q1313.1719,214.6563 1313.3594,214.5469 Q1313.5469,214.4375 1313.7656,214.4375 Q1314.1406,214.4375 1314.375,214.6953 Q1314.6094,214.9531 1314.6094,215.5625 L1314.6094,217.0156 Q1314.6094,217.625 1314.375,217.8906 Q1314.1406,218.1563 1313.7656,218.1563 Q1313.4219,218.1563 1313.2188,217.9531 Q1313.0156,217.7656 1312.9063,217.25 Q1312.8594,216.8906 1312.6719,216.7031 Q1312.3438,216.3281 1311.7344,216.1094 Q1311.125,215.8906 1310.5,215.8906 Q1309.7344,215.8906 1309.1016,216.2188 Q1308.4688,216.5469 1307.9766,217.2969 Q1307.4844,218.0469 1307.4844,219.0781 L1307.4844,220.1719 Q1307.4844,221.4063 1308.375,222.2266 Q1309.2656,223.0469 1310.8594,223.0469 Q1311.7969,223.0469 1312.4531,222.7969 Q1312.8438,222.6406 1313.2656,222.2031 Q1313.5313,221.9375 1313.6797,221.8594 Q1313.8281,221.7813 1314.0313,221.7813 Q1314.3594,221.7813 1314.6172,222.0391 Q1314.875,222.2969 1314.875,222.6406 Q1314.875,222.9844 1314.5313,223.3906 Q1314.0313,223.9688 1313.2344,224.2969 Q1312.1563,224.75 1310.8594,224.75 Q1309.3438,224.75 1308.1406,224.125 Q1307.1563,223.625 1306.4688,222.5547 Q1305.7813,221.4844 1305.7813,220.2031 L1305.7813,219.0469 Q1305.7813,217.7188 1306.3984,216.5703 Q1307.0156,215.4219 1308.1094,214.8047 Q1309.2031,214.1875 1310.4375,214.1875 Q1311.1719,214.1875 1311.8203,214.3516 Q1312.4688,214.5156 1313.0156,214.875 Z "/><text fill="#000000" font-family="sans-serif" font-size="12" lengthAdjust="spacingAndGlyphs" textLength="75" x="1330.75" y="223.9102">Preprocessor</text><line style="stroke: #A80036; stroke-width: 1.5;" x1="1175" x2="1529" y1="235" y2="235"/><rect fill="none" height="6" style="stroke: #C82930; stroke-width: 1.0;" width="6" x="1182" y="244.418"/><text fill="#000000" font-family="sans-serif" font-size="11" lengthAdjust="spacingAndGlyphs" textLength="103" x="1194" y="250.4189">java.util.Map filterMap</text><line style="stroke: #A80036; stroke-width: 1.5;" x1="1175" x2="1529" y1="256.8359" y2="256.8359"/><ellipse cx="1185" cy="269.2539" fill="#84BE84" rx="3" ry="3" style="stroke: #038048; stroke-width: 1.0;"/><text fill="#000000" font-family="sans-serif" font-size="11" lengthAdjust="spacingAndGlyphs" textLength="56" x="1194" y="272.2549">void &lt;init&gt;()</text><ellipse cx="1185" cy="283.0898" fill="#84BE84" rx="3" ry="3" style="stroke: #038048; stroke-width: 1.0;"/><text fill="#000000" font-family="sans-serif" font-size="11" lengthAdjust="spacingAndGlyphs" textLength="330" x="1194" y="286.0908">ourStuff.AnalyzerChain makePileline(java.lang.String[],ourStuff.Data)</text><rect fill="#F24D5C" height="6" style="stroke: #C82930; stroke-width: 1.0;" width="6" x="1182" y="293.9258"/><text fill="#000000" font-family="sans-serif" font-size="11" lengthAdjust="spacingAndGlyphs" textLength="200" x="1194" y="299.9268">java.util.Map configGen(java.lang.String[])</text><ellipse cx="1185" cy="310.7617" fill="#84BE84" rx="3" ry="3" style="stroke: #038048; stroke-width: 1.0;"/><text fill="#000000" font-family="sans-serif" font-size="11" lengthAdjust="spacingAndGlyphs" textLength="215" x="1194" y="313.7627">void addFilter(java.lang.String,ourStuff.Filter)</text><!--class ourStuff.PrivateFilter--><rect fill="#FEFECE" filter="url(#f1ay84yl5g9jtf)" height="103.3438" id="ourStuff.PrivateFilter" style="stroke: #A80036; stroke-width: 1.5;" width="186" x="537" y="1178"/><ellipse cx="593.75" cy="1194" fill="#ADD1B2" rx="11" ry="11" style="stroke: #A80036; stroke-width: 1.0;"/><path d="M596.5156,1189.875 Q596.6719,1189.6563 596.8594,1189.5469 Q597.0469,1189.4375 597.2656,1189.4375 Q597.6406,1189.4375 597.875,1189.6953 Q598.1094,1189.9531 598.1094,1190.5625 L598.1094,1192.0156 Q598.1094,1192.625 597.875,1192.8906 Q597.6406,1193.1563 597.2656,1193.1563 Q596.9219,1193.1563 596.7188,1192.9531 Q596.5156,1192.7656 596.4063,1192.25 Q596.3594,1191.8906 596.1719,1191.7031 Q595.8438,1191.3281 595.2344,1191.1094 Q594.625,1190.8906 594,1190.8906 Q593.2344,1190.8906 592.6016,1191.2188 Q591.9688,1191.5469 591.4766,1192.2969 Q590.9844,1193.0469 590.9844,1194.0781 L590.9844,1195.1719 Q590.9844,1196.4063 591.875,1197.2266 Q592.7656,1198.0469 594.3594,1198.0469 Q595.2969,1198.0469 595.9531,1197.7969 Q596.3438,1197.6406 596.7656,1197.2031 Q597.0313,1196.9375 597.1797,1196.8594 Q597.3281,1196.7813 597.5313,1196.7813 Q597.8594,1196.7813 598.1172,1197.0391 Q598.375,1197.2969 598.375,1197.6406 Q598.375,1197.9844 598.0313,1198.3906 Q597.5313,1198.9688 596.7344,1199.2969 Q595.6563,1199.75 594.3594,1199.75 Q592.8438,1199.75 591.6406,1199.125 Q590.6563,1198.625 589.9688,1197.5547 Q589.2813,1196.4844 589.2813,1195.2031 L589.2813,1194.0469 Q589.2813,1192.7188 589.8984,1191.5703 Q590.5156,1190.4219 591.6094,1189.8047 Q592.7031,1189.1875 593.9375,1189.1875 Q594.6719,1189.1875 595.3203,1189.3516 Q595.9688,1189.5156 596.5156,1189.875 Z "/><text fill="#000000" font-family="sans-serif" font-size="12" lengthAdjust="spacingAndGlyphs" textLength="64" x="614.25" y="1198.9102">PrivateFilter</text><line style="stroke: #A80036; stroke-width: 1.5;" x1="538" x2="722" y1="1210" y2="1210"/><line style="stroke: #A80036; stroke-width: 1.5;" x1="538" x2="722" y1="1218" y2="1218"/><ellipse cx="548" cy="1230.418" fill="#84BE84" rx="3" ry="3" style="stroke: #038048; stroke-width: 1.0;"/><text fill="#000000" font-family="sans-serif" font-size="11" lengthAdjust="spacingAndGlyphs" textLength="56" x="557" y="1233.4189">void &lt;init&gt;()</text><ellipse cx="548" cy="1244.2539" fill="#84BE84" rx="3" ry="3" style="stroke: #038048; stroke-width: 1.0;"/><text fill="#000000" font-family="sans-serif" font-size="11" lengthAdjust="spacingAndGlyphs" textLength="152" x="557" y="1247.2549">boolean ignore(soot.SootClass)</text><ellipse cx="548" cy="1258.0898" fill="#84BE84" rx="3" ry="3" style="stroke: #038048; stroke-width: 1.0;"/><text fill="#000000" font-family="sans-serif" font-size="11" lengthAdjust="spacingAndGlyphs" textLength="160" x="557" y="1261.0908">boolean ignore(soot.SootMethod)</text><ellipse cx="548" cy="1271.9258" fill="#84BE84" rx="3" ry="3" style="stroke: #038048; stroke-width: 1.0;"/><text fill="#000000" font-family="sans-serif" font-size="11" lengthAdjust="spacingAndGlyphs" textLength="147" x="557" y="1274.9268">boolean ignore(soot.SootField)</text><!--class ourStuff.ProtectedFilter--><rect fill="#FEFECE" filter="url(#f1ay84yl5g9jtf)" height="103.3438" id="ourStuff.ProtectedFilter" style="stroke: #A80036; stroke-width: 1.5;" width="186" x="1756" y="1178"/><ellipse cx="1805.25" cy="1194" fill="#ADD1B2" rx="11" ry="11" style="stroke: #A80036; stroke-width: 1.0;"/><path d="M1808.0156,1189.875 Q1808.1719,1189.6563 1808.3594,1189.5469 Q1808.5469,1189.4375 1808.7656,1189.4375 Q1809.1406,1189.4375 1809.375,1189.6953 Q1809.6094,1189.9531 1809.6094,1190.5625 L1809.6094,1192.0156 Q1809.6094,1192.625 1809.375,1192.8906 Q1809.1406,1193.1563 1808.7656,1193.1563 Q1808.4219,1193.1563 1808.2188,1192.9531 Q1808.0156,1192.7656 1807.9063,1192.25 Q1807.8594,1191.8906 1807.6719,1191.7031 Q1807.3438,1191.3281 1806.7344,1191.1094 Q1806.125,1190.8906 1805.5,1190.8906 Q1804.7344,1190.8906 1804.1016,1191.2188 Q1803.4688,1191.5469 1802.9766,1192.2969 Q1802.4844,1193.0469 1802.4844,1194.0781 L1802.4844,1195.1719 Q1802.4844,1196.4063 1803.375,1197.2266 Q1804.2656,1198.0469 1805.8594,1198.0469 Q1806.7969,1198.0469 1807.4531,1197.7969 Q1807.8438,1197.6406 1808.2656,1197.2031 Q1808.5313,1196.9375 1808.6797,1196.8594 Q1808.8281,1196.7813 1809.0313,1196.7813 Q1809.3594,1196.7813 1809.6172,1197.0391 Q1809.875,1197.2969 1809.875,1197.6406 Q1809.875,1197.9844 1809.5313,1198.3906 Q1809.0313,1198.9688 1808.2344,1199.2969 Q1807.1563,1199.75 1805.8594,1199.75 Q1804.3438,1199.75 1803.1406,1199.125 Q1802.1563,1198.625 1801.4688,1197.5547 Q1800.7813,1196.4844 1800.7813,1195.2031 L1800.7813,1194.0469 Q1800.7813,1192.7188 1801.3984,1191.5703 Q1802.0156,1190.4219 1803.1094,1189.8047 Q1804.2031,1189.1875 1805.4375,1189.1875 Q1806.1719,1189.1875 1806.8203,1189.3516 Q1807.4688,1189.5156 1808.0156,1189.875 Z "/><text fill="#000000" font-family="sans-serif" font-size="12" lengthAdjust="spacingAndGlyphs" textLength="79" x="1825.75" y="1198.9102">ProtectedFilter</text><line style="stroke: #A80036; stroke-width: 1.5;" x1="1757" x2="1941" y1="1210" y2="1210"/><line style="stroke: #A80036; stroke-width: 1.5;" x1="1757" x2="1941" y1="1218" y2="1218"/><ellipse cx="1767" cy="1230.418" fill="#84BE84" rx="3" ry="3" style="stroke: #038048; stroke-width: 1.0;"/><text fill="#000000" font-family="sans-serif" font-size="11" lengthAdjust="spacingAndGlyphs" textLength="56" x="1776" y="1233.4189">void &lt;init&gt;()</text><ellipse cx="1767" cy="1244.2539" fill="#84BE84" rx="3" ry="3" style="stroke: #038048; stroke-width: 1.0;"/><text fill="#000000" font-family="sans-serif" font-size="11" lengthAdjust="spacingAndGlyphs" textLength="152" x="1776" y="1247.2549">boolean ignore(soot.SootClass)</text><ellipse cx="1767" cy="1258.0898" fill="#84BE84" rx="3" ry="3" style="stroke: #038048; stroke-width: 1.0;"/><text fill="#000000" font-family="sans-serif" font-size="11" lengthAdjust="spacingAndGlyphs" textLength="160" x="1776" y="1261.0908">boolean ignore(soot.SootMethod)</text><ellipse cx="1767" cy="1271.9258" fill="#84BE84" rx="3" ry="3" style="stroke: #038048; stroke-width: 1.0;"/><text fill="#000000" font-family="sans-serif" font-size="11" lengthAdjust="spacingAndGlyphs" textLength="147" x="1776" y="1274.9268">boolean ignore(soot.SootField)</text><!--class ourStuff.PublicFilter--><rect fill="#FEFECE" filter="url(#f1ay84yl5g9jtf)" height="103.3438" id="ourStuff.PublicFilter" style="stroke: #A80036; stroke-width: 1.5;" width="186" x="2697" y="1178"/><ellipse cx="2755.25" cy="1194" fill="#ADD1B2" rx="11" ry="11" style="stroke: #A80036; stroke-width: 1.0;"/><path d="M2758.0156,1189.875 Q2758.1719,1189.6563 2758.3594,1189.5469 Q2758.5469,1189.4375 2758.7656,1189.4375 Q2759.1406,1189.4375 2759.375,1189.6953 Q2759.6094,1189.9531 2759.6094,1190.5625 L2759.6094,1192.0156 Q2759.6094,1192.625 2759.375,1192.8906 Q2759.1406,1193.1563 2758.7656,1193.1563 Q2758.4219,1193.1563 2758.2188,1192.9531 Q2758.0156,1192.7656 2757.9063,1192.25 Q2757.8594,1191.8906 2757.6719,1191.7031 Q2757.3438,1191.3281 2756.7344,1191.1094 Q2756.125,1190.8906 2755.5,1190.8906 Q2754.7344,1190.8906 2754.1016,1191.2188 Q2753.4688,1191.5469 2752.9766,1192.2969 Q2752.4844,1193.0469 2752.4844,1194.0781 L2752.4844,1195.1719 Q2752.4844,1196.4063 2753.375,1197.2266 Q2754.2656,1198.0469 2755.8594,1198.0469 Q2756.7969,1198.0469 2757.4531,1197.7969 Q2757.8438,1197.6406 2758.2656,1197.2031 Q2758.5313,1196.9375 2758.6797,1196.8594 Q2758.8281,1196.7813 2759.0313,1196.7813 Q2759.3594,1196.7813 2759.6172,1197.0391 Q2759.875,1197.2969 2759.875,1197.6406 Q2759.875,1197.9844 2759.5313,1198.3906 Q2759.0313,1198.9688 2758.2344,1199.2969 Q2757.1563,1199.75 2755.8594,1199.75 Q2754.3438,1199.75 2753.1406,1199.125 Q2752.1563,1198.625 2751.4688,1197.5547 Q2750.7813,1196.4844 2750.7813,1195.2031 L2750.7813,1194.0469 Q2750.7813,1192.7188 2751.3984,1191.5703 Q2752.0156,1190.4219 2753.1094,1189.8047 Q2754.2031,1189.1875 2755.4375,1189.1875 Q2756.1719,1189.1875 2756.8203,1189.3516 Q2757.4688,1189.5156 2758.0156,1189.875 Z "/><text fill="#000000" font-family="sans-serif" font-size="12" lengthAdjust="spacingAndGlyphs" textLength="61" x="2775.75" y="1198.9102">PublicFilter</text><line style="stroke: #A80036; stroke-width: 1.5;" x1="2698" x2="2882" y1="1210" y2="1210"/><line style="stroke: #A80036; stroke-width: 1.5;" x1="2698" x2="2882" y1="1218" y2="1218"/><ellipse cx="2708" cy="1230.418" fill="#84BE84" rx="3" ry="3" style="stroke: #038048; stroke-width: 1.0;"/><text fill="#000000" font-family="sans-serif" font-size="11" lengthAdjust="spacingAndGlyphs" textLength="56" x="2717" y="1233.4189">void &lt;init&gt;()</text><ellipse cx="2708" cy="1244.2539" fill="#84BE84" rx="3" ry="3" style="stroke: #038048; stroke-width: 1.0;"/><text fill="#000000" font-family="sans-serif" font-size="11" lengthAdjust="spacingAndGlyphs" textLength="152" x="2717" y="1247.2549">boolean ignore(soot.SootClass)</text><ellipse cx="2708" cy="1258.0898" fill="#84BE84" rx="3" ry="3" style="stroke: #038048; stroke-width: 1.0;"/><text fill="#000000" font-family="sans-serif" font-size="11" lengthAdjust="spacingAndGlyphs" textLength="160" x="2717" y="1261.0908">boolean ignore(soot.SootMethod)</text><ellipse cx="2708" cy="1271.9258" fill="#84BE84" rx="3" ry="3" style="stroke: #038048; stroke-width: 1.0;"/><text fill="#000000" font-family="sans-serif" font-size="11" lengthAdjust="spacingAndGlyphs" textLength="147" x="2717" y="1274.9268">boolean ignore(soot.SootField)</text><!--class ourStuff.RecursiveAnalyzer--><rect fill="#FEFECE" filter="url(#f1ay84yl5g9jtf)" height="75.6719" id="ourStuff.RecursiveAnalyzer" style="stroke: #A80036; stroke-width: 1.5;" width="205" x="1948.5" y="810"/><ellipse cx="1996.75" cy="826" fill="#ADD1B2" rx="11" ry="11" style="stroke: #A80036; stroke-width: 1.0;"/><path d="M1999.5156,821.875 Q1999.6719,821.6563 1999.8594,821.5469 Q2000.0469,821.4375 2000.2656,821.4375 Q2000.6406,821.4375 2000.875,821.6953 Q2001.1094,821.9531 2001.1094,822.5625 L2001.1094,824.0156 Q2001.1094,824.625 2000.875,824.8906 Q2000.6406,825.1563 2000.2656,825.1563 Q1999.9219,825.1563 1999.7188,824.9531 Q1999.5156,824.7656 1999.4063,824.25 Q1999.3594,823.8906 1999.1719,823.7031 Q1998.8438,823.3281 1998.2344,823.1094 Q1997.625,822.8906 1997,822.8906 Q1996.2344,822.8906 1995.6016,823.2188 Q1994.9688,823.5469 1994.4766,824.2969 Q1993.9844,825.0469 1993.9844,826.0781 L1993.9844,827.1719 Q1993.9844,828.4063 1994.875,829.2266 Q1995.7656,830.0469 1997.3594,830.0469 Q1998.2969,830.0469 1998.9531,829.7969 Q1999.3438,829.6406 1999.7656,829.2031 Q2000.0313,828.9375 2000.1797,828.8594 Q2000.3281,828.7813 2000.5313,828.7813 Q2000.8594,828.7813 2001.1172,829.0391 Q2001.375,829.2969 2001.375,829.6406 Q2001.375,829.9844 2001.0313,830.3906 Q2000.5313,830.9688 1999.7344,831.2969 Q1998.6563,831.75 1997.3594,831.75 Q1995.8438,831.75 1994.6406,831.125 Q1993.6563,830.625 1992.9688,829.5547 Q1992.2813,828.4844 1992.2813,827.2031 L1992.2813,826.0469 Q1992.2813,824.7188 1992.8984,823.5703 Q1993.5156,822.4219 1994.6094,821.8047 Q1995.7031,821.1875 1996.9375,821.1875 Q1997.6719,821.1875 1998.3203,821.3516 Q1998.9688,821.5156 1999.5156,821.875 Z "/><text fill="#000000" font-family="sans-serif" font-size="12" lengthAdjust="spacingAndGlyphs" textLength="100" x="2017.25" y="830.9102">RecursiveAnalyzer</text><line style="stroke: #A80036; stroke-width: 1.5;" x1="1949.5" x2="2152.5" y1="842" y2="842"/><line style="stroke: #A80036; stroke-width: 1.5;" x1="1949.5" x2="2152.5" y1="850" y2="850"/><ellipse cx="1959.5" cy="862.418" fill="#84BE84" rx="3" ry="3" style="stroke: #038048; stroke-width: 1.0;"/><text fill="#000000" font-family="sans-serif" font-size="11" lengthAdjust="spacingAndGlyphs" textLength="56" x="1968.5" y="865.4189">void &lt;init&gt;()</text><ellipse cx="1959.5" cy="876.2539" fill="#84BE84" rx="3" ry="3" style="stroke: #038048; stroke-width: 1.0;"/><text fill="#000000" font-family="sans-serif" font-size="11" lengthAdjust="spacingAndGlyphs" textLength="179" x="1968.5" y="879.2549">ourStuff.Data analyze(ourStuff.Data)</text><!--class ourStuff.Relationship--><rect fill="#FEFECE" filter="url(#f1ay84yl5g9jtf)" height="117.1797" id="ourStuff.Relationship" style="stroke: #A80036; stroke-width: 1.5;" width="423" x="655.5" y="1001"/><ellipse cx="827.75" cy="1017" fill="#ADD1B2" rx="11" ry="11" style="stroke: #A80036; stroke-width: 1.0;"/><path d="M830.5156,1012.875 Q830.6719,1012.6563 830.8594,1012.5469 Q831.0469,1012.4375 831.2656,1012.4375 Q831.6406,1012.4375 831.875,1012.6953 Q832.1094,1012.9531 832.1094,1013.5625 L832.1094,1015.0156 Q832.1094,1015.625 831.875,1015.8906 Q831.6406,1016.1563 831.2656,1016.1563 Q830.9219,1016.1563 830.7188,1015.9531 Q830.5156,1015.7656 830.4063,1015.25 Q830.3594,1014.8906 830.1719,1014.7031 Q829.8438,1014.3281 829.2344,1014.1094 Q828.625,1013.8906 828,1013.8906 Q827.2344,1013.8906 826.6016,1014.2188 Q825.9688,1014.5469 825.4766,1015.2969 Q824.9844,1016.0469 824.9844,1017.0781 L824.9844,1018.1719 Q824.9844,1019.4063 825.875,1020.2266 Q826.7656,1021.0469 828.3594,1021.0469 Q829.2969,1021.0469 829.9531,1020.7969 Q830.3438,1020.6406 830.7656,1020.2031 Q831.0313,1019.9375 831.1797,1019.8594 Q831.3281,1019.7813 831.5313,1019.7813 Q831.8594,1019.7813 832.1172,1020.0391 Q832.375,1020.2969 832.375,1020.6406 Q832.375,1020.9844 832.0313,1021.3906 Q831.5313,1021.9688 830.7344,1022.2969 Q829.6563,1022.75 828.3594,1022.75 Q826.8438,1022.75 825.6406,1022.125 Q824.6563,1021.625 823.9688,1020.5547 Q823.2813,1019.4844 823.2813,1018.2031 L823.2813,1017.0469 Q823.2813,1015.7188 823.8984,1014.5703 Q824.5156,1013.4219 825.6094,1012.8047 Q826.7031,1012.1875 827.9375,1012.1875 Q828.6719,1012.1875 829.3203,1012.3516 Q829.9688,1012.5156 830.5156,1012.875 Z "/><text fill="#000000" font-family="sans-serif" font-size="12" lengthAdjust="spacingAndGlyphs" textLength="70" x="848.25" y="1021.9102">Relationship</text><line style="stroke: #A80036; stroke-width: 1.5;" x1="656.5" x2="1077.5" y1="1033" y2="1033"/><ellipse cx="666.5" cy="1045.418" fill="none" rx="3" ry="3" style="stroke: #038048; stroke-width: 1.0;"/><text fill="#000000" font-family="sans-serif" font-size="11" lengthAdjust="spacingAndGlyphs" textLength="85" x="675.5" y="1048.4189">soot.SootClass to</text><ellipse cx="666.5" cy="1059.2539" fill="none" rx="3" ry="3" style="stroke: #038048; stroke-width: 1.0;"/><text fill="#000000" font-family="sans-serif" font-size="11" lengthAdjust="spacingAndGlyphs" textLength="98" x="675.5" y="1062.2549">soot.SootClass from</text><ellipse cx="666.5" cy="1073.0898" fill="none" rx="3" ry="3" style="stroke: #038048; stroke-width: 1.0;"/><text fill="#000000" font-family="sans-serif" font-size="11" lengthAdjust="spacingAndGlyphs" textLength="213" x="675.5" y="1076.0908">ourStuff.Relationship$RelationshipType type</text><line style="stroke: #A80036; stroke-width: 1.5;" x1="656.5" x2="1077.5" y1="1082.5078" y2="1082.5078"/><ellipse cx="666.5" cy="1094.9258" fill="#84BE84" rx="3" ry="3" style="stroke: #038048; stroke-width: 1.0;"/><text fill="#000000" font-family="sans-serif" font-size="11" lengthAdjust="spacingAndGlyphs" textLength="397" x="675.5" y="1097.9268">void &lt;init&gt;(soot.SootClass,soot.SootClass,ourStuff.Relationship$RelationshipType)</text><ellipse cx="666.5" cy="1108.7617" fill="#84BE84" rx="3" ry="3" style="stroke: #038048; stroke-width: 1.0;"/><text fill="#000000" font-family="sans-serif" font-size="11" lengthAdjust="spacingAndGlyphs" textLength="71" x="675.5" y="1111.7627">int hashCode()</text><!--class ourStuff.SequenceDiagramAnalyzer--><rect fill="#FEFECE" filter="url(#f1ay84yl5g9jtf)" height="144.8516" id="ourStuff.SequenceDiagramAnalyzer" style="stroke: #A80036; stroke-width: 1.5;" width="343" x="2188.5" y="775.5"/><ellipse cx="2281.25" cy="791.5" fill="#ADD1B2" rx="11" ry="11" style="stroke: #A80036; stroke-width: 1.0;"/><path d="M2284.0156,787.375 Q2284.1719,787.1563 2284.3594,787.0469 Q2284.5469,786.9375 2284.7656,786.9375 Q2285.1406,786.9375 2285.375,787.1953 Q2285.6094,787.4531 2285.6094,788.0625 L2285.6094,789.5156 Q2285.6094,790.125 2285.375,790.3906 Q2285.1406,790.6563 2284.7656,790.6563 Q2284.4219,790.6563 2284.2188,790.4531 Q2284.0156,790.2656 2283.9063,789.75 Q2283.8594,789.3906 2283.6719,789.2031 Q2283.3438,788.8281 2282.7344,788.6094 Q2282.125,788.3906 2281.5,788.3906 Q2280.7344,788.3906 2280.1016,788.7188 Q2279.4688,789.0469 2278.9766,789.7969 Q2278.4844,790.5469 2278.4844,791.5781 L2278.4844,792.6719 Q2278.4844,793.9063 2279.375,794.7266 Q2280.2656,795.5469 2281.8594,795.5469 Q2282.7969,795.5469 2283.4531,795.2969 Q2283.8438,795.1406 2284.2656,794.7031 Q2284.5313,794.4375 2284.6797,794.3594 Q2284.8281,794.2813 2285.0313,794.2813 Q2285.3594,794.2813 2285.6172,794.5391 Q2285.875,794.7969 2285.875,795.1406 Q2285.875,795.4844 2285.5313,795.8906 Q2285.0313,796.4688 2284.2344,796.7969 Q2283.1563,797.25 2281.8594,797.25 Q2280.3438,797.25 2279.1406,796.625 Q2278.1563,796.125 2277.4688,795.0547 Q2276.7813,793.9844 2276.7813,792.7031 L2276.7813,791.5469 Q2276.7813,790.2188 2277.3984,789.0703 Q2278.0156,787.9219 2279.1094,787.3047 Q2280.2031,786.6875 2281.4375,786.6875 Q2282.1719,786.6875 2282.8203,786.8516 Q2283.4688,787.0156 2284.0156,787.375 Z "/><text fill="#000000" font-family="sans-serif" font-size="12" lengthAdjust="spacingAndGlyphs" textLength="149" x="2301.75" y="796.4102">SequenceDiagramAnalyzer</text><line style="stroke: #A80036; stroke-width: 1.5;" x1="2189.5" x2="2530.5" y1="807.5" y2="807.5"/><rect fill="none" height="6" style="stroke: #C82930; stroke-width: 1.0;" width="6" x="2196.5" y="816.918"/><text fill="#000000" font-family="sans-serif" font-size="11" lengthAdjust="spacingAndGlyphs" textLength="98" x="2208.5" y="822.9189">int DEFAULT_DEPTH</text><rect fill="none" height="6" style="stroke: #C82930; stroke-width: 1.0;" width="6" x="2196.5" y="830.7539"/><text fill="#000000" font-family="sans-serif" font-size="11" lengthAdjust="spacingAndGlyphs" textLength="136" x="2208.5" y="836.7549">java.lang.String DEPTH_KEY</text><rect fill="none" height="6" style="stroke: #C82930; stroke-width: 1.0;" width="6" x="2196.5" y="844.5898"/><text fill="#000000" font-family="sans-serif" font-size="11" lengthAdjust="spacingAndGlyphs" textLength="100" x="2208.5" y="850.5908">java.lang.String mSig</text><rect fill="none" height="6" style="stroke: #C82930; stroke-width: 1.0;" width="6" x="2196.5" y="858.4258"/><text fill="#000000" font-family="sans-serif" font-size="11" lengthAdjust="spacingAndGlyphs" textLength="62" x="2208.5" y="864.4268">int maxDepth</text><line style="stroke: #A80036; stroke-width: 1.5;" x1="2189.5" x2="2530.5" y1="870.8438" y2="870.8438"/><ellipse cx="2199.5" cy="883.2617" fill="#84BE84" rx="3" ry="3" style="stroke: #038048; stroke-width: 1.0;"/><text fill="#000000" font-family="sans-serif" font-size="11" lengthAdjust="spacingAndGlyphs" textLength="130" x="2208.5" y="886.2627">void &lt;init&gt;(java.lang.String)</text><ellipse cx="2199.5" cy="897.0977" fill="#84BE84" rx="3" ry="3" style="stroke: #038048; stroke-width: 1.0;"/><text fill="#000000" font-family="sans-serif" font-size="11" lengthAdjust="spacingAndGlyphs" textLength="179" x="2208.5" y="900.0986">ourStuff.Data analyze(ourStuff.Data)</text><rect fill="#F24D5C" height="6" style="stroke: #C82930; stroke-width: 1.0;" width="6" x="2196.5" y="907.9336"/><text fill="#000000" font-family="sans-serif" font-size="11" lengthAdjust="spacingAndGlyphs" textLength="317" x="2208.5" y="913.9346">java.lang.String recursiveBuilder(soot.SootMethod,int,soot.Scene)</text><!--class ourStuff.SootClassAnalyzer--><rect fill="#FEFECE" filter="url(#f1ay84yl5g9jtf)" height="89.5078" id="ourStuff.SootClassAnalyzer" style="stroke: #A80036; stroke-width: 1.5;" width="205" x="2566.5" y="803"/><ellipse cx="2613.25" cy="819" fill="#ADD1B2" rx="11" ry="11" style="stroke: #A80036; stroke-width: 1.0;"/><path d="M2616.0156,814.875 Q2616.1719,814.6563 2616.3594,814.5469 Q2616.5469,814.4375 2616.7656,814.4375 Q2617.1406,814.4375 2617.375,814.6953 Q2617.6094,814.9531 2617.6094,815.5625 L2617.6094,817.0156 Q2617.6094,817.625 2617.375,817.8906 Q2617.1406,818.1563 2616.7656,818.1563 Q2616.4219,818.1563 2616.2188,817.9531 Q2616.0156,817.7656 2615.9063,817.25 Q2615.8594,816.8906 2615.6719,816.7031 Q2615.3438,816.3281 2614.7344,816.1094 Q2614.125,815.8906 2613.5,815.8906 Q2612.7344,815.8906 2612.1016,816.2188 Q2611.4688,816.5469 2610.9766,817.2969 Q2610.4844,818.0469 2610.4844,819.0781 L2610.4844,820.1719 Q2610.4844,821.4063 2611.375,822.2266 Q2612.2656,823.0469 2613.8594,823.0469 Q2614.7969,823.0469 2615.4531,822.7969 Q2615.8438,822.6406 2616.2656,822.2031 Q2616.5313,821.9375 2616.6797,821.8594 Q2616.8281,821.7813 2617.0313,821.7813 Q2617.3594,821.7813 2617.6172,822.0391 Q2617.875,822.2969 2617.875,822.6406 Q2617.875,822.9844 2617.5313,823.3906 Q2617.0313,823.9688 2616.2344,824.2969 Q2615.1563,824.75 2613.8594,824.75 Q2612.3438,824.75 2611.1406,824.125 Q2610.1563,823.625 2609.4688,822.5547 Q2608.7813,821.4844 2608.7813,820.2031 L2608.7813,819.0469 Q2608.7813,817.7188 2609.3984,816.5703 Q2610.0156,815.4219 2611.1094,814.8047 Q2612.2031,814.1875 2613.4375,814.1875 Q2614.1719,814.1875 2614.8203,814.3516 Q2615.4688,814.5156 2616.0156,814.875 Z "/><text fill="#000000" font-family="sans-serif" font-size="12" lengthAdjust="spacingAndGlyphs" textLength="103" x="2633.75" y="823.9102">SootClassAnalyzer</text><line style="stroke: #A80036; stroke-width: 1.5;" x1="2567.5" x2="2770.5" y1="835" y2="835"/><rect fill="none" height="6" style="stroke: #C82930; stroke-width: 1.0;" width="6" x="2574.5" y="844.418"/><text fill="#000000" font-family="sans-serif" font-size="11" lengthAdjust="spacingAndGlyphs" textLength="86" x="2586.5" y="850.4189">java.util.List filters</text><line style="stroke: #A80036; stroke-width: 1.5;" x1="2567.5" x2="2770.5" y1="856.8359" y2="856.8359"/><ellipse cx="2577.5" cy="869.2539" fill="#84BE84" rx="3" ry="3" style="stroke: #038048; stroke-width: 1.0;"/><text fill="#000000" font-family="sans-serif" font-size="11" lengthAdjust="spacingAndGlyphs" textLength="56" x="2586.5" y="872.2549">void &lt;init&gt;()</text><ellipse cx="2577.5" cy="883.0898" fill="#84BE84" rx="3" ry="3" style="stroke: #038048; stroke-width: 1.0;"/><text fill="#000000" font-family="sans-serif" font-size="11" lengthAdjust="spacingAndGlyphs" textLength="179" x="2586.5" y="886.0908">ourStuff.Data analyze(ourStuff.Data)</text><!--class ourStuff.Data$CustomCollection--><rect fill="#FEFECE" filter="url(#f1ay84yl5g9jtf)" height="48" id="ourStuff.Data$CustomCollection" style="stroke: #A80036; stroke-width: 1.5;" width="164" x="75" y="421.5"/><ellipse cx="90" cy="437.5" fill="#ADD1B2" rx="11" ry="11" style="stroke: #A80036; stroke-width: 1.0;"/><path d="M92.7656,433.375 Q92.9219,433.1563 93.1094,433.0469 Q93.2969,432.9375 93.5156,432.9375 Q93.8906,432.9375 94.125,433.1953 Q94.3594,433.4531 94.3594,434.0625 L94.3594,435.5156 Q94.3594,436.125 94.125,436.3906 Q93.8906,436.6563 93.5156,436.6563 Q93.1719,436.6563 92.9688,436.4531 Q92.7656,436.2656 92.6563,435.75 Q92.6094,435.3906 92.4219,435.2031 Q92.0938,434.8281 91.4844,434.6094 Q90.875,434.3906 90.25,434.3906 Q89.4844,434.3906 88.8516,434.7188 Q88.2188,435.0469 87.7266,435.7969 Q87.2344,436.5469 87.2344,437.5781 L87.2344,438.6719 Q87.2344,439.9063 88.125,440.7266 Q89.0156,441.5469 90.6094,441.5469 Q91.5469,441.5469 92.2031,441.2969 Q92.5938,441.1406 93.0156,440.7031 Q93.2813,440.4375 93.4297,440.3594 Q93.5781,440.2813 93.7813,440.2813 Q94.1094,440.2813 94.3672,440.5391 Q94.625,440.7969 94.625,441.1406 Q94.625,441.4844 94.2813,441.8906 Q93.7813,442.4688 92.9844,442.7969 Q91.9063,443.25 90.6094,443.25 Q89.0938,443.25 87.8906,442.625 Q86.9063,442.125 86.2188,441.0547 Q85.5313,439.9844 85.5313,438.7031 L85.5313,437.5469 Q85.5313,436.2188 86.1484,435.0703 Q86.7656,433.9219 87.8594,433.3047 Q88.9531,432.6875 90.1875,432.6875 Q90.9219,432.6875 91.5703,432.8516 Q92.2188,433.0156 92.7656,433.375 Z "/><text fill="#000000" font-family="sans-serif" font-size="12" lengthAdjust="spacingAndGlyphs" textLength="132" x="104" y="442.4102">Data$CustomCollection</text><line style="stroke: #A80036; stroke-width: 1.5;" x1="76" x2="238" y1="453.5" y2="453.5"/><line style="stroke: #A80036; stroke-width: 1.5;" x1="76" x2="238" y1="461.5" y2="461.5"/><!--link ourStuff.Analyzer to ourStuff.AbstractAnalyzer--><path d="M1345,496.605 C1345,517.321 1345,541.606 1345,563.653 " fill="none" id="ourStuff.Analyzer-ourStuff.AbstractAnalyzer" style="stroke: #A80036; stroke-width: 1.0; stroke-dasharray: 7.0,7.0;"/><polygon fill="none" points="1338,496.554,1345,476.554,1352,496.554,1338,496.554" style="stroke: #A80036; stroke-width: 1.0;"/><!--link ourStuff.AbstractAnalyzer to ourStuff.AssociationAnalyzer--><path d="M1219.42,641.954 C970.577,666.167 432.817,722.952 355,755 C324.415,767.596 294.868,790.08 274.772,809.667 " fill="none" id="ourStuff.AbstractAnalyzer-ourStuff.AssociationAnalyzer" style="stroke: #A80036; stroke-width: 1.0;"/><polygon fill="none" points="1218.77,634.985,1239.35,640.025,1220.12,648.919,1218.77,634.985" style="stroke: #A80036; stroke-width: 1.0;"/><!--link ourStuff.AssociationAnalyzer to ourStuff.AbstractAnalyzer--><path d="M305.31,809.9 C329.633,790.258 359.294,767.646 390,755 C467.376,723.133 999.497,666.81 1234.32,642.369 " fill="none" id="ourStuff.AssociationAnalyzer-ourStuff.AbstractAnalyzer" style="stroke: #A80036; stroke-width: 1.0; stroke-dasharray: 7.0,7.0;"/><polygon fill="#A80036" points="1239.47,641.833,1230.1063,638.78,1234.4965,642.3473,1230.9292,646.7376,1239.47,641.833" style="stroke: #A80036; stroke-width: 1.0;"/><!--link ourStuff.AbstractAnalyzer to ourStuff.ClassCodeGenAnalyzer--><path d="M1219.18,641.829 C1084.43,657.246 866.489,690.618 689,755 C688.844,755.056 688.689,755.113 688.533,755.17 " fill="none" id="ourStuff.AbstractAnalyzer-ourStuff.ClassCodeGenAnalyzer" style="stroke: #A80036; stroke-width: 1.0;"/><polygon fill="none" points="1218.61,634.849,1239.26,639.594,1220.15,648.764,1218.61,634.849" style="stroke: #A80036; stroke-width: 1.0;"/><!--link ourStuff.ClassCodeGenAnalyzer to ourStuff.AbstractAnalyzer--><path d="M688.741,769.595 C700.497,764.2 712.331,759.233 724,755 C896.653,692.372 1107.58,659.088 1234.03,643.129 " fill="none" id="ourStuff.ClassCodeGenAnalyzer-ourStuff.AbstractAnalyzer" style="stroke: #A80036; stroke-width: 1.0; stroke-dasharray: 7.0,7.0;"/><polygon fill="#A80036" points="1239.24,642.476,1229.8086,639.6389,1234.2797,643.1044,1230.8141,647.5755,1239.24,642.476" style="stroke: #A80036; stroke-width: 1.0;"/><!--link ourStuff.AbstractAnalyzer to ourStuff.DependencyAnalyzer--><path d="M1439.71,707.182 C1480.07,736.796 1526.62,769.865 1565.44,796.405 " fill="none" id="ourStuff.AbstractAnalyzer-ourStuff.DependencyAnalyzer" style="stroke: #A80036; stroke-width: 1.0;"/><polygon fill="none" points="1435.36,712.67,1423.42,695.164,1443.67,701.403,1435.36,712.67" style="stroke: #A80036; stroke-width: 1.0;"/><!--link ourStuff.DependencyAnalyzer to ourStuff.AbstractAnalyzer--><path d="M1588.05,796.405 C1549.27,767.093 1497.6,729.817 1451.81,698.027 " fill="none" id="ourStuff.DependencyAnalyzer-ourStuff.AbstractAnalyzer" style="stroke: #A80036; stroke-width: 1.0; stroke-dasharray: 7.0,7.0;"/><polygon fill="#A80036" points="1447.68,695.164,1452.8064,703.5735,1451.7921,698.0083,1457.3573,696.9941,1447.68,695.164" style="stroke: #A80036; stroke-width: 1.0;"/><!--link ourStuff.AbstractAnalyzer to ourStuff.ImplementationAnalyzer--><path d="M1220.5,669.058 C1156.61,691.927 1078.44,722.698 1011,755 C985.159,767.377 957.827,782.268 933.877,796.428 " fill="none" id="ourStuff.AbstractAnalyzer-ourStuff.ImplementationAnalyzer" style="stroke: #A80036; stroke-width: 1.0;"/><polygon fill="none" points="1218.22,662.439,1239.41,662.372,1222.89,675.638,1218.22,662.439" style="stroke: #A80036; stroke-width: 1.0;"/><!--link ourStuff.ImplementationAnalyzer to ourStuff.AbstractAnalyzer--><path d="M967.407,796.428 C992.827,782.268 1020.16,767.377 1046,755 C1107.33,725.623 1177.54,697.512 1234.64,675.459 " fill="none" id="ourStuff.ImplementationAnalyzer-ourStuff.AbstractAnalyzer" style="stroke: #A80036; stroke-width: 1.0; stroke-dasharray: 7.0,7.0;"/><polygon fill="#A80036" points="1239.42,673.614,1229.5834,673.1225,1234.7553,675.4142,1232.4637,680.586,1239.42,673.614" style="stroke: #A80036; stroke-width: 1.0;"/><!--link ourStuff.AbstractAnalyzer to ourStuff.InheritenceAnalyzer--><path d="M1270.36,710.751 C1247.3,739.431 1223.32,770.926 1205.28,796.405 " fill="none" id="ourStuff.AbstractAnalyzer-ourStuff.InheritenceAnalyzer" style="stroke: #A80036; stroke-width: 1.0;"/><polygon fill="none" points="1264.99,706.264,1283.04,695.164,1275.85,715.097,1264.99,706.264" style="stroke: #A80036; stroke-width: 1.0;"/><!--link ourStuff.InheritenceAnalyzer to ourStuff.AbstractAnalyzer--><path d="M1227.89,796.405 C1252.39,767.506 1281.17,730.866 1304.23,699.373 " fill="none" id="ourStuff.InheritenceAnalyzer-ourStuff.AbstractAnalyzer" style="stroke: #A80036; stroke-width: 1.0; stroke-dasharray: 7.0,7.0;"/><polygon fill="#A80036" points="1307.3,695.164,1298.766,700.0804,1304.3546,699.2044,1305.2307,704.793,1307.3,695.164" style="stroke: #A80036; stroke-width: 1.0;"/><!--link ourStuff.Filter to ourStuff.JDKFilter--><path d="M2569,1124.849 C2569,1142.395 2569,1161.152 2569,1177.82 " fill="none" id="ourStuff.Filter-ourStuff.JDKFilter" style="stroke: #A80036; stroke-width: 1.0; stroke-dasharray: 7.0,7.0;"/><polygon fill="none" points="2562,1124.64,2569,1104.64,2576,1124.64,2562,1124.64" style="stroke: #A80036; stroke-width: 1.0;"/><!--link ourStuff.Filter to ourStuff.PrivateFilter--><path d="M2453.89,1070.473 C2101.82,1100.977 1043.92,1192.637 723.182,1220.4264 " fill="none" id="ourStuff.Filter-ourStuff.PrivateFilter" style="stroke: #A80036; stroke-width: 1.0; stroke-dasharray: 7.0,7.0;"/><polygon fill="none" points="2453.31,1063.498,2473.84,1068.745,2454.51,1077.446,2453.31,1063.498" style="stroke: #A80036; stroke-width: 1.0;"/><!--link ourStuff.Filter to ourStuff.ProtectedFilter--><path d="M2453.97,1087.341 C2312.01,1120.465 2073.37,1176.147 1942.26,1206.74 " fill="none" id="ourStuff.Filter-ourStuff.ProtectedFilter" style="stroke: #A80036; stroke-width: 1.0; stroke-dasharray: 7.0,7.0;"/><polygon fill="none" points="2452.69,1080.45,2473.76,1082.722,2455.87,1094.084,2452.69,1080.45" style="stroke: #A80036; stroke-width: 1.0;"/><!--link ourStuff.Filter to ourStuff.PublicFilter--><path d="M2643.18,1116.892 C2669.12,1136.606 2698.05,1158.602 2723.33,1177.82 " fill="none" id="ourStuff.Filter-ourStuff.PublicFilter" style="stroke: #A80036; stroke-width: 1.0; stroke-dasharray: 7.0,7.0;"/><polygon fill="none" points="2638.75,1122.316,2627.07,1104.64,2647.22,1111.171,2638.75,1122.316" style="stroke: #A80036; stroke-width: 1.0;"/><!--link ourStuff.AbstractAnalyzer to ourStuff.RecursiveAnalyzer--><path d="M1470.46,642.503 C1589.17,657.086 1769.78,688.56 1914,755 C1943.68,768.676 1972.88,790.809 1996.99,809.939 " fill="none" id="ourStuff.AbstractAnalyzer-ourStuff.RecursiveAnalyzer" style="stroke: #A80036; stroke-width: 1.0;"/><polygon fill="none" points="1469.54,649.443,1450.5,640.138,1471.19,635.54,1469.54,649.443" style="stroke: #A80036; stroke-width: 1.0;"/><!--link ourStuff.RecursiveAnalyzer to ourStuff.AbstractAnalyzer--><path d="M2027.72,809.708 C2007.64,790.631 1978.57,768.621 1949,755 C1787.81,680.741 1581.15,650.163 1455.92,638.027 " fill="none" id="ourStuff.RecursiveAnalyzer-ourStuff.AbstractAnalyzer" style="stroke: #A80036; stroke-width: 1.0; stroke-dasharray: 7.0,7.0;"/><polygon fill="#A80036" points="1450.76,637.533,1459.3289,642.3882,1455.7364,638.0186,1460.106,634.4261,1450.76,637.533" style="stroke: #A80036; stroke-width: 1.0;"/><!--link ourStuff.AbstractAnalyzer to ourStuff.SequenceDiagramAnalyzer--><path d="M1470.69,638.471 C1632.04,650.992 1918.76,681.896 2154,755 C2172.03,760.605 2190.5,767.703 2208.63,775.462 " fill="none" id="ourStuff.AbstractAnalyzer-ourStuff.SequenceDiagramAnalyzer" style="stroke: #A80036; stroke-width: 1.0;"/><polygon fill="none" points="1470.11,645.447,1450.69,636.964,1471.16,631.487,1470.11,645.447" style="stroke: #A80036; stroke-width: 1.0;"/><!--link ourStuff.SequenceDiagramAnalyzer to ourStuff.AbstractAnalyzer--><path d="M2243.34,775.462 C2225.5,767.703 2207.03,760.605 2189,755 C1934.69,675.969 1620.21,646.258 1456.1,635.776 " fill="none" id="ourStuff.SequenceDiagramAnalyzer-ourStuff.AbstractAnalyzer" style="stroke: #A80036; stroke-width: 1.0; stroke-dasharray: 7.0,7.0;"/><polygon fill="#A80036" points="1450.8,635.441,1459.5308,639.9988,1455.7901,635.7553,1460.0336,632.0146,1450.8,635.441" style="stroke: #A80036; stroke-width: 1.0;"/><!--link ourStuff.AbstractAnalyzer to ourStuff.SootClassAnalyzer--><path d="M1470.94,635.245 C1735.67,646.296 2340.5,678.834 2532,755 C2559.44,765.915 2585.94,785.004 2608.47,802.974 " fill="none" id="ourStuff.AbstractAnalyzer-ourStuff.SootClassAnalyzer" style="stroke: #A80036; stroke-width: 1.0;"/><polygon fill="none" points="1470.65,642.239,1450.95,634.424,1471.22,628.251,1470.65,642.239" style="stroke: #A80036; stroke-width: 1.0;"/><!--link ourStuff.SootClassAnalyzer to ourStuff.AbstractAnalyzer--><path d="M2640.5,802.974 C2620.94,785.004 2594.44,765.915 2567,755 C2367.37,675.6 1718.57,643.612 1456.28,633.951 " fill="none" id="ourStuff.SootClassAnalyzer-ourStuff.AbstractAnalyzer" style="stroke: #A80036; stroke-width: 1.0; stroke-dasharray: 7.0,7.0;"/><polygon fill="#A80036" points="1450.92,633.755,1459.7652,638.0865,1455.9166,633.9407,1460.0623,630.092,1450.92,633.755" style="stroke: #A80036; stroke-width: 1.0;"/><!--link ourStuff.SootClassAnalyzer to ourStuff.Filter--><path d="M2647.91,893.174 C2631.63,927.296 2609.1,974.485 2592.29,1009.716 " fill="none" id="ourStuff.SootClassAnalyzer-ourStuff.Filter" style="stroke: #A80036; stroke-width: 1.0;"/><polygon fill="#A80036" points="2590.06,1014.387,2597.5445,1007.9853,2592.2123,1009.8739,2590.3236,1004.5417,2590.06,1014.387" style="stroke: #A80036; stroke-width: 1.0;"/><text fill="#000000" font-family="sans-serif" font-size="13" lengthAdjust="spacingAndGlyphs" textLength="5" x="2588.018" y="1003.4845">*</text><!--link ourStuff.AbstractAnalyzer to ourStuff.Filter--><path d="M1339.56,695.254 C1334.33,775.892 1331.38,907.182 1364,941 C1440.12,1019.921 2192.75,1048.251 2468.46,1056.029 " fill="none" id="ourStuff.AbstractAnalyzer-ourStuff.Filter" style="stroke: #A80036; stroke-width: 1.0;"/><polygon fill="#A80036" points="2473.68,1056.175,2464.7859,1051.9448,2468.6817,1056.0464,2464.5801,1059.9422,2473.68,1056.175" style="stroke: #A80036; stroke-width: 1.0;"/><text fill="#000000" font-family="sans-serif" font-size="13" lengthAdjust="spacingAndGlyphs" textLength="5" x="2460.885" y="1052.8013">*</text><!--link ourStuff.Preprocessor to ourStuff.Filter--><path d="M1530.05,281.4 C1669.85,299.45 1868.09,332.21 2035,387 C2389.29,503.301 2591.44,438.742 2789,755 C2832.8,825.111 2831.51,870.101 2789,941 C2762.74,984.803 2713.97,1013.186 2669.01,1031.059 " fill="none" id="ourStuff.Preprocessor-ourStuff.Filter" style="stroke: #A80036; stroke-width: 1.0;"/><polygon fill="#A80036" points="2664.12,1032.971,2673.9581,1033.4312,2668.7789,1031.156,2671.0541,1025.9769,2664.12,1032.971" style="stroke: #A80036; stroke-width: 1.0;"/><text fill="#000000" font-family="sans-serif" font-size="13" lengthAdjust="spacingAndGlyphs" textLength="5" x="2671.8991" y="1027.7482">*</text><!--link ourStuff.AnalyzerChain to ourStuff.AbstractAnalyzer--><path d="M1508.38,504.086 C1484.85,522.003 1458.69,541.927 1434.31,560.486 " fill="none" id="ourStuff.AnalyzerChain-ourStuff.AbstractAnalyzer" style="stroke: #A80036; stroke-width: 1.0;"/><polygon fill="#A80036" points="1430.1,563.693,1439.684,561.4245,1434.0785,560.6645,1434.8385,555.0589,1430.1,563.693" style="stroke: #A80036; stroke-width: 1.0;"/><text fill="#000000" font-family="sans-serif" font-size="13" lengthAdjust="spacingAndGlyphs" textLength="5" x="1434.1344" y="553.1338">*</text><!--link ourStuff.Data to ourStuff.Relationship--><path d="M91.6652,327.142 C77.5177,345.075 64.5459,365.556 57,387 C1.0888,545.893 28.9118,839.085 132,941 C203.562,1011.748 460.089,1039.902 650.039,1051.104 " fill="none" id="ourStuff.Data-ourStuff.Relationship" style="stroke: #A80036; stroke-width: 1.0;"/><polygon fill="#A80036" points="655.076,1051.398,646.3244,1046.8802,650.0845,1051.1066,645.8582,1054.8666,655.076,1051.398" style="stroke: #A80036; stroke-width: 1.0;"/><text fill="#000000" font-family="sans-serif" font-size="13" lengthAdjust="spacingAndGlyphs" textLength="5" x="642.3701" y="1048.3175">*</text><!--link ourStuff.ImplementationAnalyzer to ourStuff.Relationship--><path d="M867,899.714 C867,928.562 867,964.939 867,995.594 " fill="none" id="ourStuff.ImplementationAnalyzer-ourStuff.Relationship" style="stroke: #A80036; stroke-width: 1.0; stroke-dasharray: 7.0,7.0;"/><polygon fill="#A80036" points="867,1000.855,871,991.855,867,995.855,863,991.855,867,1000.855" style="stroke: #A80036; stroke-width: 1.0;"/><text fill="#000000" font-family="sans-serif" font-size="13" lengthAdjust="spacingAndGlyphs" textLength="5" x="861.6953" y="990.2382">*</text><!--link ourStuff.Preprocessor to ourStuff.ClassCodeGenAnalyzer--><path d="M1186.65,320.113 C1142.08,338.671 1094.91,361.214 1054,387 C888.283,491.45 724.303,649.967 627.355,750.979 " fill="none" id="ourStuff.Preprocessor-ourStuff.ClassCodeGenAnalyzer" style="stroke: #A80036; stroke-width: 1.0; stroke-dasharray: 7.0,7.0;"/><polygon fill="#A80036" points="623.649,754.846,632.7643,751.1163,627.1087,751.2363,626.9888,745.5807,623.649,754.846" style="stroke: #A80036; stroke-width: 1.0;"/><!--link ourStuff.Preprocessor to ourStuff.RecursiveAnalyzer--><path d="M1530.21,295.48 C1598.06,314.254 1673.14,343.126 1732,387 C1886.63,502.26 1993.22,715.247 2033.33,805.185 " fill="none" id="ourStuff.Preprocessor-ourStuff.RecursiveAnalyzer" style="stroke: #A80036; stroke-width: 1.0; stroke-dasharray: 7.0,7.0;"/><polygon fill="#A80036" points="2035.42,809.893,2035.4283,800.0441,2033.3932,805.3222,2028.1151,803.2871,2035.42,809.893" style="stroke: #A80036; stroke-width: 1.0;"/><!--link ourStuff.App to ourStuff.Data--><path d="M1272.2,109.78 C1058.98,138.6 476.789,217.28 249.572,247.99 " fill="none" id="ourStuff.App-ourStuff.Data" style="stroke: #A80036; stroke-width: 1.0; stroke-dasharray: 7.0,7.0;"/><polygon fill="#A80036" points="244.6,248.66,254.0547,251.4185,249.5549,247.9903,252.9831,243.4906,244.6,248.66" style="stroke: #A80036; stroke-width: 1.0;"/><!--link ourStuff.App to ourStuff.Preprocessor--><path d="M1352,136.05 C1352,154.25 1352,176.69 1352,197.48 " fill="none" id="ourStuff.App-ourStuff.Preprocessor" style="stroke: #A80036; stroke-width: 1.0; stroke-dasharray: 7.0,7.0;"/><polygon fill="#A80036" points="1352,202.73,1356,193.73,1352,197.73,1348,193.73,1352,202.73" style="stroke: #A80036; stroke-width: 1.0;"/><!--link ourStuff.Preprocessor to ourStuff.Preprocessor--><path d="M1530.3,235.49 C1551.31,240.25 1565,248.92 1565,261.5 C1565,273 1553.56,281.23 1535.55,286.2 " fill="none" id="ourStuff.Preprocessor-ourStuff.Preprocessor" style="stroke: #A80036; stroke-width: 1.0; stroke-dasharray: 7.0,7.0;"/><polygon fill="#A80036" points="1530.3,287.51,1540.0014,289.2077,1535.1507,286.2973,1538.0611,281.4466,1530.3,287.51" style="stroke: #A80036; stroke-width: 1.0;"/><!--link ourStuff.Preprocessor to ourStuff.SootClassAnalyzer--><path d="M1530.11,289.74 C1638.49,309.59 1778.43,341.116 1897,387 C2207.32,507.084 2271.39,571.544 2549,755 C2569.67,768.658 2591.4,784.747 2610.61,799.619 " fill="none" id="ourStuff.Preprocessor-ourStuff.SootClassAnalyzer" style="stroke: #A80036; stroke-width: 1.0; stroke-dasharray: 7.0,7.0;"/><polygon fill="#A80036" points="2614.92,802.971,2610.272,794.2879,2610.9734,799.9011,2605.3602,800.6025,2614.92,802.971" style="stroke: #A80036; stroke-width: 1.0;"/><!--link ourStuff.Preprocessor to ourStuff.AssociationAnalyzer--><path d="M1173.76,295.39 C1086.29,315.33 980.885,345.144 892,387 C645.109,503.26 394.473,717.556 295.768,806.579 " fill="none" id="ourStuff.Preprocessor-ourStuff.AssociationAnalyzer" style="stroke: #A80036; stroke-width: 1.0; stroke-dasharray: 7.0,7.0;"/><polygon fill="#A80036" points="292.036,809.951,301.3952,806.8842,295.7456,806.5985,296.0313,800.9489,292.036,809.951" style="stroke: #A80036; stroke-width: 1.0;"/><!--link ourStuff.Preprocessor to ourStuff.DependencyAnalyzer--><path d="M1530.23,282.38 C1595.9,299.33 1663.96,330.367 1704,387 C1790.92,509.934 1720.35,698.87 1676.06,791.677 " fill="none" id="ourStuff.Preprocessor-ourStuff.DependencyAnalyzer" style="stroke: #A80036; stroke-width: 1.0; stroke-dasharray: 7.0,7.0;"/><polygon fill="#A80036" points="1673.84,796.294,1681.3489,789.9209,1676.0095,791.7892,1674.1412,786.4497,1673.84,796.294" style="stroke: #A80036; stroke-width: 1.0;"/><!--link ourStuff.Preprocessor to ourStuff.InheritenceAnalyzer--><path d="M1259.37,320.019 C1237.1,338.545 1216.02,361.096 1203,387 C1136.47,519.404 1152.61,701.057 1166.62,791.353 " fill="none" id="ourStuff.Preprocessor-ourStuff.InheritenceAnalyzer" style="stroke: #A80036; stroke-width: 1.0; stroke-dasharray: 7.0,7.0;"/><polygon fill="#A80036" points="1167.41,796.375,1169.9609,786.8622,1166.632,791.4359,1162.0584,788.107,1167.41,796.375" style="stroke: #A80036; stroke-width: 1.0;"/><!--link ourStuff.Preprocessor to ourStuff.PublicFilter--><path d="M1530.16,266.95 C1833.97,276.65 2438.31,305.8 2633,387 C2775.29,446.342 2882,474.333 2882,628.5 C2882,628.5 2882,628.5 2882,849 C2882,967.08 2839.41,1100.157 2812.19,1173.163 " fill="none" id="ourStuff.Preprocessor-ourStuff.PublicFilter" style="stroke: #A80036; stroke-width: 1.0; stroke-dasharray: 7.0,7.0;"/><polygon fill="#A80036" points="2810.42,1177.884,2817.3236,1170.8597,2812.1744,1173.2019,2809.8322,1168.0527,2810.42,1177.884" style="stroke: #A80036; stroke-width: 1.0;"/><!--link ourStuff.Preprocessor to ourStuff.AbstractAnalyzer--><path d="M1274.57,320.078 C1254.99,339.003 1236.55,361.745 1226,387 C1205.96,434.982 1206.64,455.737 1226,504 C1234.17,524.382 1247.45,543.317 1262.23,559.957 " fill="none" id="ourStuff.Preprocessor-ourStuff.AbstractAnalyzer" style="stroke: #A80036; stroke-width: 1.0; stroke-dasharray: 7.0,7.0;"/><polygon fill="#A80036" points="1265.61,563.692,1262.5486,554.331,1262.2597,559.9805,1256.6102,559.6916,1265.61,563.692" style="stroke: #A80036; stroke-width: 1.0;"/><!--link ourStuff.Preprocessor to ourStuff.AnalyzerChain--><path d="M1425.41,320.086 C1451.24,340.351 1480.34,363.183 1506.5,383.704 " fill="none" id="ourStuff.Preprocessor-ourStuff.AnalyzerChain" style="stroke: #A80036; stroke-width: 1.0; stroke-dasharray: 7.0,7.0;"/><polygon fill="#A80036" points="1510.67,386.977,1506.0584,378.2745,1506.7363,383.8906,1501.1202,384.5685,1510.67,386.977" style="stroke: #A80036; stroke-width: 1.0;"/><!--link ourStuff.InheritenceAnalyzer to ourStuff.Relationship--><path d="M1101.96,899.714 C1058.12,929.337 1002.544,966.899 956.446,998.052 " fill="none" id="ourStuff.InheritenceAnalyzer-ourStuff.Relationship" style="stroke: #A80036; stroke-width: 1.0; stroke-dasharray: 7.0,7.0;"/><polygon fill="#A80036" points="952.298,1000.855,961.9945,999.1294,956.4406,998.0552,957.5148,992.5013,952.298,1000.855" style="stroke: #A80036; stroke-width: 1.0;"/><text fill="#000000" font-family="sans-serif" font-size="13" lengthAdjust="spacingAndGlyphs" textLength="5" x="957.389" y="990.2382">*</text><!--link ourStuff.Preprocessor to ourStuff.SequenceDiagramAnalyzer--><path d="M1530.27,294.32 C1614.81,313.801 1715.36,343.541 1799,387 C1996.71,489.735 2189.06,670.142 2289.05,771.817 " fill="none" id="ourStuff.Preprocessor-ourStuff.SequenceDiagramAnalyzer" style="stroke: #A80036; stroke-width: 1.0; stroke-dasharray: 7.0,7.0;"/><polygon fill="#A80036" points="2292.57,775.401,2289.1053,766.1817,2289.0618,771.8384,2283.4051,771.7949,2292.57,775.401" style="stroke: #A80036; stroke-width: 1.0;"/><!--link ourStuff.Preprocessor to ourStuff.ProtectedFilter--><path d="M1173.95,275.93 C1035.89,290.97 841.946,322.329 683,387 C361.336,517.876 -68.969,657.791 132,941 C320.976,1207.308 1414.23,1228.8811 1750.57,1229.1341 " fill="none" id="ourStuff.Preprocessor-ourStuff.ProtectedFilter" style="stroke: #A80036; stroke-width: 1.0; stroke-dasharray: 7.0,7.0;"/><polygon fill="#A80036" points="1755.95,1229.1364,1746.95,1225.1364,1750.95,1229.1364,1746.95,1233.1364,1755.95,1229.1364" style="stroke: #A80036; stroke-width: 1.0;"/><!--link ourStuff.Data to ourStuff.Data$CustomCollection--><path d="M157,327.179 C157,357.575 157,392.258 157,415.984 " fill="none" id="ourStuff.Data-ourStuff.Data$CustomCollection" style="stroke: #A80036; stroke-width: 1.0; stroke-dasharray: 7.0,7.0;"/><polygon fill="#A80036" points="157,421.172,161,412.172,157,416.172,153,412.172,157,421.172" style="stroke: #A80036; stroke-width: 1.0;"/><!--link ourStuff.Preprocessor to ourStuff.ImplementationAnalyzer--><path d="M1244.09,320.062 C1214.2,338.987 1183.1,361.733 1158,387 C1033.55,512.258 935.749,699.717 891.989,791.855 " fill="none" id="ourStuff.Preprocessor-ourStuff.ImplementationAnalyzer" style="stroke: #A80036; stroke-width: 1.0; stroke-dasharray: 7.0,7.0;"/><polygon fill="#A80036" points="889.819,796.439,897.2846,790.0153,891.958,791.9196,890.0536,786.5929,889.819,796.439" style="stroke: #A80036; stroke-width: 1.0;"/><!--link ourStuff.Preprocessor to ourStuff.PrivateFilter--><path d="M1173.9,273.57 C936.326,290.39 529.853,326.945 394,387 C320.455,419.511 324.593,462.039 256,504 C196.856,540.181 156.064,510.47 112,564 C-46.1081,756.071 -11.4791,974.871 192,1118 C293.615,1189.477 437.191,1214.8059 531.885,1223.7302 " fill="none" id="ourStuff.Preprocessor-ourStuff.PrivateFilter" style="stroke: #A80036; stroke-width: 1.0; stroke-dasharray: 7.0,7.0;"/><polygon fill="#A80036" points="536.921,1224.1936,528.3258,1219.385,531.9421,1223.735,527.5921,1227.3513,536.921,1224.1936" style="stroke: #A80036; stroke-width: 1.0;"/><!--link ourStuff.App to ourStuff.AnalyzerChain--><path d="M1431.51,113.91 C1478.64,127.14 1535.03,151.58 1566,196 C1603.62,249.97 1602.89,327.525 1596.1,381.591 " fill="none" id="ourStuff.App-ourStuff.AnalyzerChain" style="stroke: #A80036; stroke-width: 1.0; stroke-dasharray: 7.0,7.0;"/><polygon fill="#A80036" points="1595.43,386.748,1600.5638,378.343,1596.0787,381.7903,1592.6314,377.3051,1595.43,386.748" style="stroke: #A80036; stroke-width: 1.0;"/><!--link ourStuff.Preprocessor to ourStuff.JDKFilter--><path d="M1530.24,268.84 C1926.33,287.76 2845,360.54 2845,628.5 C2845,628.5 2845,628.5 2845,849 C2845,986.66 2724.75,1107.934 2643,1174.477 " fill="none" id="ourStuff.Preprocessor-ourStuff.JDKFilter" style="stroke: #A80036; stroke-width: 1.0; stroke-dasharray: 7.0,7.0;"/><polygon fill="#A80036" points="2638.65,1177.996,2648.1635,1175.4479,2642.5381,1174.8524,2643.1337,1169.2269,2638.65,1177.996" style="stroke: #A80036; stroke-width: 1.0;"/></g></svg>