<?xml version="1.0" encoding="UTF-8" standalone="no"?><svg xmlns="http://www.w3.org/2000/svg" xmlns:xlink="http://www.w3.org/1999/xlink" contentScriptType="application/ecmascript" contentStyleType="text/css" height="2176px" preserveAspectRatio="none" style="width:4336px;height:2176px;" version="1.1" viewBox="0 0 4336 2176" width="4336px" zoomAndPan="magnify"><defs><filter height="300%" id="f1pvvtqr3lh64p" width="300%" x="-1" y="-1"><feGaussianBlur result="blurOut" stdDeviation="2.0"/><feColorMatrix in="blurOut" result="blurOut2" type="matrix" values="0 0 0 0 0 0 0 0 0 0 0 0 0 0 0 0 0 0 .4 0"/><feOffset dx="4.0" dy="4.0" in="blurOut2" result="blurOut3"/><feBlend in="SourceGraphic" in2="blurOut3" mode="normal"/></filter></defs><g><rect fill="#FFFFFF" filter="url(#f1pvvtqr3lh64p)" height="2067.25" style="stroke: #A80036; stroke-width: 1.0;" width="10" x="121.5" y="49.6094"/><rect fill="#FFFFFF" filter="url(#f1pvvtqr3lh64p)" height="851.9219" style="stroke: #A80036; stroke-width: 1.0;" width="10" x="126.5" y="79.6094"/><rect fill="#FFFFFF" filter="url(#f1pvvtqr3lh64p)" height="30" style="stroke: #A80036; stroke-width: 1.0;" width="10" x="488.5" y="114.9609"/><rect fill="#FFFFFF" filter="url(#f1pvvtqr3lh64p)" height="74.7031" style="stroke: #A80036; stroke-width: 1.0;" width="10" x="807.5" y="189.3125"/><rect fill="#FFFFFF" filter="url(#f1pvvtqr3lh64p)" height="30" style="stroke: #A80036; stroke-width: 1.0;" width="10" x="1045" y="219.6641"/><rect fill="#FFFFFF" filter="url(#f1pvvtqr3lh64p)" height="30" style="stroke: #A80036; stroke-width: 1.0;" width="10" x="1045" y="308.0156"/><rect fill="#FFFFFF" filter="url(#f1pvvtqr3lh64p)" height="30" style="stroke: #A80036; stroke-width: 1.0;" width="10" x="1045" y="412.7188"/><rect fill="#FFFFFF" filter="url(#f1pvvtqr3lh64p)" height="30" style="stroke: #A80036; stroke-width: 1.0;" width="10" x="1045" y="501.0703"/><rect fill="#FFFFFF" filter="url(#f1pvvtqr3lh64p)" height="30" style="stroke: #A80036; stroke-width: 1.0;" width="10" x="1045" y="605.7734"/><rect fill="#FFFFFF" filter="url(#f1pvvtqr3lh64p)" height="30" style="stroke: #A80036; stroke-width: 1.0;" width="10" x="1045" y="694.125"/><rect fill="#FFFFFF" filter="url(#f1pvvtqr3lh64p)" height="30" style="stroke: #A80036; stroke-width: 1.0;" width="10" x="1045" y="798.8281"/><rect fill="#FFFFFF" filter="url(#f1pvvtqr3lh64p)" height="30" style="stroke: #A80036; stroke-width: 1.0;" width="10" x="1045" y="887.1797"/><rect fill="#FFFFFF" filter="url(#f1pvvtqr3lh64p)" height="30" style="stroke: #A80036; stroke-width: 1.0;" width="10" x="1045" y="988.5313"/><rect fill="#FFFFFF" filter="url(#f1pvvtqr3lh64p)" height="816.9219" style="stroke: #A80036; stroke-width: 1.0;" width="10" x="1045" y="1062.8828"/><rect fill="#FFFFFF" filter="url(#f1pvvtqr3lh64p)" height="30" style="stroke: #A80036; stroke-width: 1.0;" width="10" x="1045" y="1923.8047"/><rect fill="#FFFFFF" filter="url(#f1pvvtqr3lh64p)" height="30" style="stroke: #A80036; stroke-width: 1.0;" width="10" x="1045" y="1998.1563"/><rect fill="#FFFFFF" filter="url(#f1pvvtqr3lh64p)" height="30" style="stroke: #A80036; stroke-width: 1.0;" width="10" x="1045" y="2072.5078"/><rect fill="#FFFFFF" filter="url(#f1pvvtqr3lh64p)" height="74.7031" style="stroke: #A80036; stroke-width: 1.0;" width="10" x="1280" y="382.3672"/><rect fill="#FFFFFF" filter="url(#f1pvvtqr3lh64p)" height="74.7031" style="stroke: #A80036; stroke-width: 1.0;" width="10" x="1531" y="575.4219"/><rect fill="#FFFFFF" filter="url(#f1pvvtqr3lh64p)" height="74.7031" style="stroke: #A80036; stroke-width: 1.0;" width="10" x="1792.5" y="768.4766"/><rect fill="#FFFFFF" filter="url(#f1pvvtqr3lh64p)" height="74.7031" style="stroke: #A80036; stroke-width: 1.0;" width="10" x="2093.5" y="1093.2344"/><rect fill="#FFFFFF" filter="url(#f1pvvtqr3lh64p)" height="74.7031" style="stroke: #A80036; stroke-width: 1.0;" width="10" x="2093.5" y="1211.9375"/><rect fill="#FFFFFF" filter="url(#f1pvvtqr3lh64p)" height="74.7031" style="stroke: #A80036; stroke-width: 1.0;" width="10" x="2093.5" y="1330.6406"/><rect fill="#FFFFFF" filter="url(#f1pvvtqr3lh64p)" height="297.7578" style="stroke: #A80036; stroke-width: 1.0;" width="10" x="2093.5" y="1449.3438"/><rect fill="#FFFFFF" filter="url(#f1pvvtqr3lh64p)" height="74.7031" style="stroke: #A80036; stroke-width: 1.0;" width="10" x="2093.5" y="1791.1016"/><rect fill="#FFFFFF" filter="url(#f1pvvtqr3lh64p)" height="30" style="stroke: #A80036; stroke-width: 1.0;" width="10" x="2398" y="1123.5859"/><rect fill="#FFFFFF" filter="url(#f1pvvtqr3lh64p)" height="30" style="stroke: #A80036; stroke-width: 1.0;" width="10" x="2679" y="1242.2891"/><rect fill="#FFFFFF" filter="url(#f1pvvtqr3lh64p)" height="30" style="stroke: #A80036; stroke-width: 1.0;" width="10" x="2963" y="1360.9922"/><rect fill="#FFFFFF" filter="url(#f1pvvtqr3lh64p)" height="30" style="stroke: #A80036; stroke-width: 1.0;" width="10" x="3217.5" y="1479.6953"/><rect fill="#FFFFFF" filter="url(#f1pvvtqr3lh64p)" height="30" style="stroke: #A80036; stroke-width: 1.0;" width="10" x="3436" y="1554.0469"/><rect fill="#FFFFFF" filter="url(#f1pvvtqr3lh64p)" height="30" style="stroke: #A80036; stroke-width: 1.0;" width="10" x="3669" y="1628.3984"/><rect fill="#FFFFFF" filter="url(#f1pvvtqr3lh64p)" height="30" style="stroke: #A80036; stroke-width: 1.0;" width="10" x="3919" y="1702.75"/><rect fill="#FFFFFF" filter="url(#f1pvvtqr3lh64p)" height="30" style="stroke: #A80036; stroke-width: 1.0;" width="10" x="4187.5" y="1821.4531"/><line style="stroke: #A80036; stroke-width: 1.0; stroke-dasharray: 5.0,5.0;" x1="126" x2="126" y1="39.6094" y2="2134.8594"/><line style="stroke: #A80036; stroke-width: 1.0; stroke-dasharray: 5.0,5.0;" x1="493.5" x2="493.5" y1="39.6094" y2="2134.8594"/><line style="stroke: #A80036; stroke-width: 1.0; stroke-dasharray: 5.0,5.0;" x1="812.5" x2="812.5" y1="39.6094" y2="2134.8594"/><line style="stroke: #A80036; stroke-width: 1.0; stroke-dasharray: 5.0,5.0;" x1="1049.5" x2="1049.5" y1="39.6094" y2="2134.8594"/><line style="stroke: #A80036; stroke-width: 1.0; stroke-dasharray: 5.0,5.0;" x1="1284.5" x2="1284.5" y1="39.6094" y2="2134.8594"/><line style="stroke: #A80036; stroke-width: 1.0; stroke-dasharray: 5.0,5.0;" x1="1535.5" x2="1535.5" y1="39.6094" y2="2134.8594"/><line style="stroke: #A80036; stroke-width: 1.0; stroke-dasharray: 5.0,5.0;" x1="1797.5" x2="1797.5" y1="39.6094" y2="2134.8594"/><line style="stroke: #A80036; stroke-width: 1.0; stroke-dasharray: 5.0,5.0;" x1="2098.5" x2="2098.5" y1="39.6094" y2="2134.8594"/><line style="stroke: #A80036; stroke-width: 1.0; stroke-dasharray: 5.0,5.0;" x1="2402.5" x2="2402.5" y1="39.6094" y2="2134.8594"/><line style="stroke: #A80036; stroke-width: 1.0; stroke-dasharray: 5.0,5.0;" x1="2683.5" x2="2683.5" y1="39.6094" y2="2134.8594"/><line style="stroke: #A80036; stroke-width: 1.0; stroke-dasharray: 5.0,5.0;" x1="2967.5" x2="2967.5" y1="39.6094" y2="2134.8594"/><line style="stroke: #A80036; stroke-width: 1.0; stroke-dasharray: 5.0,5.0;" x1="3222.5" x2="3222.5" y1="39.6094" y2="2134.8594"/><line style="stroke: #A80036; stroke-width: 1.0; stroke-dasharray: 5.0,5.0;" x1="3440.5" x2="3440.5" y1="39.6094" y2="2134.8594"/><line style="stroke: #A80036; stroke-width: 1.0; stroke-dasharray: 5.0,5.0;" x1="3673.5" x2="3673.5" y1="39.6094" y2="2134.8594"/><line style="stroke: #A80036; stroke-width: 1.0; stroke-dasharray: 5.0,5.0;" x1="3923.5" x2="3923.5" y1="39.6094" y2="2134.8594"/><line style="stroke: #A80036; stroke-width: 1.0; stroke-dasharray: 5.0,5.0;" x1="4192.5" x2="4192.5" y1="39.6094" y2="2134.8594"/><rect fill="#FEFECE" filter="url(#f1pvvtqr3lh64p)" height="31.6094" style="stroke: #A80036; stroke-width: 1.5;" width="233" x="8" y="3"/><text fill="#000000" font-family="sans-serif" font-size="14" lengthAdjust="spacingAndGlyphs" textLength="219" x="15" y="24.5332">headfirst.factory.pizzaaf.PizzaStore</text><rect fill="#FEFECE" filter="url(#f1pvvtqr3lh64p)" height="31.6094" style="stroke: #A80036; stroke-width: 1.5;" width="233" x="8" y="2133.8594"/><text fill="#000000" font-family="sans-serif" font-size="14" lengthAdjust="spacingAndGlyphs" textLength="219" x="15" y="2155.3926">headfirst.factory.pizzaaf.PizzaStore</text><rect fill="#FEFECE" filter="url(#f1pvvtqr3lh64p)" height="31.6094" style="stroke: #A80036; stroke-width: 1.5;" width="362" x="310.5" y="3"/><text fill="#000000" font-family="sans-serif" font-size="14" lengthAdjust="spacingAndGlyphs" textLength="348" x="317.5" y="24.5332">headfirst.factory.pizzaaf.ChicagoPizzaIngredientFactory</text><rect fill="#FEFECE" filter="url(#f1pvvtqr3lh64p)" height="31.6094" style="stroke: #A80036; stroke-width: 1.5;" width="362" x="310.5" y="2133.8594"/><text fill="#000000" font-family="sans-serif" font-size="14" lengthAdjust="spacingAndGlyphs" textLength="348" x="317.5" y="2155.3926">headfirst.factory.pizzaaf.ChicagoPizzaIngredientFactory</text><rect fill="#FEFECE" filter="url(#f1pvvtqr3lh64p)" height="31.6094" style="stroke: #A80036; stroke-width: 1.5;" width="248" x="686.5" y="3"/><text fill="#000000" font-family="sans-serif" font-size="14" lengthAdjust="spacingAndGlyphs" textLength="234" x="693.5" y="24.5332">headfirst.factory.pizzaaf.CheesePizza</text><rect fill="#FEFECE" filter="url(#f1pvvtqr3lh64p)" height="31.6094" style="stroke: #A80036; stroke-width: 1.5;" width="248" x="686.5" y="2133.8594"/><text fill="#000000" font-family="sans-serif" font-size="14" lengthAdjust="spacingAndGlyphs" textLength="234" x="693.5" y="2155.3926">headfirst.factory.pizzaaf.CheesePizza</text><rect fill="#FEFECE" filter="url(#f1pvvtqr3lh64p)" height="31.6094" style="stroke: #A80036; stroke-width: 1.5;" width="199" x="948.5" y="3"/><text fill="#000000" font-family="sans-serif" font-size="14" lengthAdjust="spacingAndGlyphs" textLength="185" x="955.5" y="24.5332">headfirst.factory.pizzaaf.Pizza</text><rect fill="#FEFECE" filter="url(#f1pvvtqr3lh64p)" height="31.6094" style="stroke: #A80036; stroke-width: 1.5;" width="199" x="948.5" y="2133.8594"/><text fill="#000000" font-family="sans-serif" font-size="14" lengthAdjust="spacingAndGlyphs" textLength="185" x="955.5" y="2155.3926">headfirst.factory.pizzaaf.Pizza</text><rect fill="#FEFECE" filter="url(#f1pvvtqr3lh64p)" height="31.6094" style="stroke: #A80036; stroke-width: 1.5;" width="243" x="1161.5" y="3"/><text fill="#000000" font-family="sans-serif" font-size="14" lengthAdjust="spacingAndGlyphs" textLength="229" x="1168.5" y="24.5332">headfirst.factory.pizzaaf.VeggiePizza</text><rect fill="#FEFECE" filter="url(#f1pvvtqr3lh64p)" height="31.6094" style="stroke: #A80036; stroke-width: 1.5;" width="243" x="1161.5" y="2133.8594"/><text fill="#000000" font-family="sans-serif" font-size="14" lengthAdjust="spacingAndGlyphs" textLength="229" x="1168.5" y="2155.3926">headfirst.factory.pizzaaf.VeggiePizza</text><rect fill="#FEFECE" filter="url(#f1pvvtqr3lh64p)" height="31.6094" style="stroke: #A80036; stroke-width: 1.5;" width="231" x="1418.5" y="3"/><text fill="#000000" font-family="sans-serif" font-size="14" lengthAdjust="spacingAndGlyphs" textLength="217" x="1425.5" y="24.5332">headfirst.factory.pizzaaf.ClamPizza</text><rect fill="#FEFECE" filter="url(#f1pvvtqr3lh64p)" height="31.6094" style="stroke: #A80036; stroke-width: 1.5;" width="231" x="1418.5" y="2133.8594"/><text fill="#000000" font-family="sans-serif" font-size="14" lengthAdjust="spacingAndGlyphs" textLength="217" x="1425.5" y="2155.3926">headfirst.factory.pizzaaf.ClamPizza</text><rect fill="#FEFECE" filter="url(#f1pvvtqr3lh64p)" height="31.6094" style="stroke: #A80036; stroke-width: 1.5;" width="264" x="1663.5" y="3"/><text fill="#000000" font-family="sans-serif" font-size="14" lengthAdjust="spacingAndGlyphs" textLength="250" x="1670.5" y="24.5332">headfirst.factory.pizzaaf.PepperoniPizza</text><rect fill="#FEFECE" filter="url(#f1pvvtqr3lh64p)" height="31.6094" style="stroke: #A80036; stroke-width: 1.5;" width="264" x="1663.5" y="2133.8594"/><text fill="#000000" font-family="sans-serif" font-size="14" lengthAdjust="spacingAndGlyphs" textLength="250" x="1670.5" y="2155.3926">headfirst.factory.pizzaaf.PepperoniPizza</text><rect fill="#FEFECE" filter="url(#f1pvvtqr3lh64p)" height="31.6094" style="stroke: #A80036; stroke-width: 1.5;" width="310" x="1941.5" y="3"/><text fill="#000000" font-family="sans-serif" font-size="14" lengthAdjust="spacingAndGlyphs" textLength="296" x="1948.5" y="24.5332">headfirst.factory.pizzaaf.PizzaIngredientFactory</text><rect fill="#FEFECE" filter="url(#f1pvvtqr3lh64p)" height="31.6094" style="stroke: #A80036; stroke-width: 1.5;" width="310" x="1941.5" y="2133.8594"/><text fill="#000000" font-family="sans-serif" font-size="14" lengthAdjust="spacingAndGlyphs" textLength="296" x="1948.5" y="2155.3926">headfirst.factory.pizzaaf.PizzaIngredientFactory</text><rect fill="#FEFECE" filter="url(#f1pvvtqr3lh64p)" height="31.6094" style="stroke: #A80036; stroke-width: 1.5;" width="271" x="2265.5" y="3"/><text fill="#000000" font-family="sans-serif" font-size="14" lengthAdjust="spacingAndGlyphs" textLength="257" x="2272.5" y="24.5332">headfirst.factory.pizzaaf.ThinCrustDough</text><rect fill="#FEFECE" filter="url(#f1pvvtqr3lh64p)" height="31.6094" style="stroke: #A80036; stroke-width: 1.5;" width="271" x="2265.5" y="2133.8594"/><text fill="#000000" font-family="sans-serif" font-size="14" lengthAdjust="spacingAndGlyphs" textLength="257" x="2272.5" y="2155.3926">headfirst.factory.pizzaaf.ThinCrustDough</text><rect fill="#FEFECE" filter="url(#f1pvvtqr3lh64p)" height="31.6094" style="stroke: #A80036; stroke-width: 1.5;" width="263" x="2550.5" y="3"/><text fill="#000000" font-family="sans-serif" font-size="14" lengthAdjust="spacingAndGlyphs" textLength="249" x="2557.5" y="24.5332">headfirst.factory.pizzaaf.MarinaraSauce</text><rect fill="#FEFECE" filter="url(#f1pvvtqr3lh64p)" height="31.6094" style="stroke: #A80036; stroke-width: 1.5;" width="263" x="2550.5" y="2133.8594"/><text fill="#000000" font-family="sans-serif" font-size="14" lengthAdjust="spacingAndGlyphs" textLength="249" x="2557.5" y="2155.3926">headfirst.factory.pizzaaf.MarinaraSauce</text><rect fill="#FEFECE" filter="url(#f1pvvtqr3lh64p)" height="31.6094" style="stroke: #A80036; stroke-width: 1.5;" width="277" x="2827.5" y="3"/><text fill="#000000" font-family="sans-serif" font-size="14" lengthAdjust="spacingAndGlyphs" textLength="263" x="2834.5" y="24.5332">headfirst.factory.pizzaaf.ReggianoCheese</text><rect fill="#FEFECE" filter="url(#f1pvvtqr3lh64p)" height="31.6094" style="stroke: #A80036; stroke-width: 1.5;" width="277" x="2827.5" y="2133.8594"/><text fill="#000000" font-family="sans-serif" font-size="14" lengthAdjust="spacingAndGlyphs" textLength="263" x="2834.5" y="2155.3926">headfirst.factory.pizzaaf.ReggianoCheese</text><rect fill="#FEFECE" filter="url(#f1pvvtqr3lh64p)" height="31.6094" style="stroke: #A80036; stroke-width: 1.5;" width="204" x="3118.5" y="3"/><text fill="#000000" font-family="sans-serif" font-size="14" lengthAdjust="spacingAndGlyphs" textLength="190" x="3125.5" y="24.5332">headfirst.factory.pizzaaf.Garlic</text><rect fill="#FEFECE" filter="url(#f1pvvtqr3lh64p)" height="31.6094" style="stroke: #A80036; stroke-width: 1.5;" width="204" x="3118.5" y="2133.8594"/><text fill="#000000" font-family="sans-serif" font-size="14" lengthAdjust="spacingAndGlyphs" textLength="190" x="3125.5" y="2155.3926">headfirst.factory.pizzaaf.Garlic</text><rect fill="#FEFECE" filter="url(#f1pvvtqr3lh64p)" height="31.6094" style="stroke: #A80036; stroke-width: 1.5;" width="205" x="3336.5" y="3"/><text fill="#000000" font-family="sans-serif" font-size="14" lengthAdjust="spacingAndGlyphs" textLength="191" x="3343.5" y="24.5332">headfirst.factory.pizzaaf.Onion</text><rect fill="#FEFECE" filter="url(#f1pvvtqr3lh64p)" height="31.6094" style="stroke: #A80036; stroke-width: 1.5;" width="205" x="3336.5" y="2133.8594"/><text fill="#000000" font-family="sans-serif" font-size="14" lengthAdjust="spacingAndGlyphs" textLength="191" x="3343.5" y="2155.3926">headfirst.factory.pizzaaf.Onion</text><rect fill="#FEFECE" filter="url(#f1pvvtqr3lh64p)" height="31.6094" style="stroke: #A80036; stroke-width: 1.5;" width="233" x="3555.5" y="3"/><text fill="#000000" font-family="sans-serif" font-size="14" lengthAdjust="spacingAndGlyphs" textLength="219" x="3562.5" y="24.5332">headfirst.factory.pizzaaf.Mushroom</text><rect fill="#FEFECE" filter="url(#f1pvvtqr3lh64p)" height="31.6094" style="stroke: #A80036; stroke-width: 1.5;" width="233" x="3555.5" y="2133.8594"/><text fill="#000000" font-family="sans-serif" font-size="14" lengthAdjust="spacingAndGlyphs" textLength="219" x="3562.5" y="2155.3926">headfirst.factory.pizzaaf.Mushroom</text><rect fill="#FEFECE" filter="url(#f1pvvtqr3lh64p)" height="31.6094" style="stroke: #A80036; stroke-width: 1.5;" width="239" x="3802.5" y="3"/><text fill="#000000" font-family="sans-serif" font-size="14" lengthAdjust="spacingAndGlyphs" textLength="225" x="3809.5" y="24.5332">headfirst.factory.pizzaaf.RedPepper</text><rect fill="#FEFECE" filter="url(#f1pvvtqr3lh64p)" height="31.6094" style="stroke: #A80036; stroke-width: 1.5;" width="239" x="3802.5" y="2133.8594"/><text fill="#000000" font-family="sans-serif" font-size="14" lengthAdjust="spacingAndGlyphs" textLength="225" x="3809.5" y="2155.3926">headfirst.factory.pizzaaf.RedPepper</text><rect fill="#FEFECE" filter="url(#f1pvvtqr3lh64p)" height="31.6094" style="stroke: #A80036; stroke-width: 1.5;" width="270" x="4055.5" y="3"/><text fill="#000000" font-family="sans-serif" font-size="14" lengthAdjust="spacingAndGlyphs" textLength="256" x="4062.5" y="24.5332">headfirst.factory.pizzaaf.SlicedPepperoni</text><rect fill="#FEFECE" filter="url(#f1pvvtqr3lh64p)" height="31.6094" style="stroke: #A80036; stroke-width: 1.5;" width="270" x="4055.5" y="2133.8594"/><text fill="#000000" font-family="sans-serif" font-size="14" lengthAdjust="spacingAndGlyphs" textLength="256" x="4062.5" y="2155.3926">headfirst.factory.pizzaaf.SlicedPepperoni</text><rect fill="#FFFFFF" filter="url(#f1pvvtqr3lh64p)" height="2067.25" style="stroke: #A80036; stroke-width: 1.0;" width="10" x="121.5" y="49.6094"/><rect fill="#FFFFFF" filter="url(#f1pvvtqr3lh64p)" height="851.9219" style="stroke: #A80036; stroke-width: 1.0;" width="10" x="126.5" y="79.6094"/><rect fill="#FFFFFF" filter="url(#f1pvvtqr3lh64p)" height="30" style="stroke: #A80036; stroke-width: 1.0;" width="10" x="488.5" y="114.9609"/><rect fill="#FFFFFF" filter="url(#f1pvvtqr3lh64p)" height="74.7031" style="stroke: #A80036; stroke-width: 1.0;" width="10" x="807.5" y="189.3125"/><rect fill="#FFFFFF" filter="url(#f1pvvtqr3lh64p)" height="30" style="stroke: #A80036; stroke-width: 1.0;" width="10" x="1045" y="219.6641"/><rect fill="#FFFFFF" filter="url(#f1pvvtqr3lh64p)" height="30" style="stroke: #A80036; stroke-width: 1.0;" width="10" x="1045" y="308.0156"/><rect fill="#FFFFFF" filter="url(#f1pvvtqr3lh64p)" height="30" style="stroke: #A80036; stroke-width: 1.0;" width="10" x="1045" y="412.7188"/><rect fill="#FFFFFF" filter="url(#f1pvvtqr3lh64p)" height="30" style="stroke: #A80036; stroke-width: 1.0;" width="10" x="1045" y="501.0703"/><rect fill="#FFFFFF" filter="url(#f1pvvtqr3lh64p)" height="30" style="stroke: #A80036; stroke-width: 1.0;" width="10" x="1045" y="605.7734"/><rect fill="#FFFFFF" filter="url(#f1pvvtqr3lh64p)" height="30" style="stroke: #A80036; stroke-width: 1.0;" width="10" x="1045" y="694.125"/><rect fill="#FFFFFF" filter="url(#f1pvvtqr3lh64p)" height="30" style="stroke: #A80036; stroke-width: 1.0;" width="10" x="1045" y="798.8281"/><rect fill="#FFFFFF" filter="url(#f1pvvtqr3lh64p)" height="30" style="stroke: #A80036; stroke-width: 1.0;" width="10" x="1045" y="887.1797"/><rect fill="#FFFFFF" filter="url(#f1pvvtqr3lh64p)" height="30" style="stroke: #A80036; stroke-width: 1.0;" width="10" x="1045" y="988.5313"/><rect fill="#FFFFFF" filter="url(#f1pvvtqr3lh64p)" height="816.9219" style="stroke: #A80036; stroke-width: 1.0;" width="10" x="1045" y="1062.8828"/><rect fill="#FFFFFF" filter="url(#f1pvvtqr3lh64p)" height="30" style="stroke: #A80036; stroke-width: 1.0;" width="10" x="1045" y="1923.8047"/><rect fill="#FFFFFF" filter="url(#f1pvvtqr3lh64p)" height="30" style="stroke: #A80036; stroke-width: 1.0;" width="10" x="1045" y="1998.1563"/><rect fill="#FFFFFF" filter="url(#f1pvvtqr3lh64p)" height="30" style="stroke: #A80036; stroke-width: 1.0;" width="10" x="1045" y="2072.5078"/><rect fill="#FFFFFF" filter="url(#f1pvvtqr3lh64p)" height="74.7031" style="stroke: #A80036; stroke-width: 1.0;" width="10" x="1280" y="382.3672"/><rect fill="#FFFFFF" filter="url(#f1pvvtqr3lh64p)" height="74.7031" style="stroke: #A80036; stroke-width: 1.0;" width="10" x="1531" y="575.4219"/><rect fill="#FFFFFF" filter="url(#f1pvvtqr3lh64p)" height="74.7031" style="stroke: #A80036; stroke-width: 1.0;" width="10" x="1792.5" y="768.4766"/><rect fill="#FFFFFF" filter="url(#f1pvvtqr3lh64p)" height="74.7031" style="stroke: #A80036; stroke-width: 1.0;" width="10" x="2093.5" y="1093.2344"/><rect fill="#FFFFFF" filter="url(#f1pvvtqr3lh64p)" height="74.7031" style="stroke: #A80036; stroke-width: 1.0;" width="10" x="2093.5" y="1211.9375"/><rect fill="#FFFFFF" filter="url(#f1pvvtqr3lh64p)" height="74.7031" style="stroke: #A80036; stroke-width: 1.0;" width="10" x="2093.5" y="1330.6406"/><rect fill="#FFFFFF" filter="url(#f1pvvtqr3lh64p)" height="297.7578" style="stroke: #A80036; stroke-width: 1.0;" width="10" x="2093.5" y="1449.3438"/><rect fill="#FFFFFF" filter="url(#f1pvvtqr3lh64p)" height="74.7031" style="stroke: #A80036; stroke-width: 1.0;" width="10" x="2093.5" y="1791.1016"/><rect fill="#FFFFFF" filter="url(#f1pvvtqr3lh64p)" height="30" style="stroke: #A80036; stroke-width: 1.0;" width="10" x="2398" y="1123.5859"/><rect fill="#FFFFFF" filter="url(#f1pvvtqr3lh64p)" height="30" style="stroke: #A80036; stroke-width: 1.0;" width="10" x="2679" y="1242.2891"/><rect fill="#FFFFFF" filter="url(#f1pvvtqr3lh64p)" height="30" style="stroke: #A80036; stroke-width: 1.0;" width="10" x="2963" y="1360.9922"/><rect fill="#FFFFFF" filter="url(#f1pvvtqr3lh64p)" height="30" style="stroke: #A80036; stroke-width: 1.0;" width="10" x="3217.5" y="1479.6953"/><rect fill="#FFFFFF" filter="url(#f1pvvtqr3lh64p)" height="30" style="stroke: #A80036; stroke-width: 1.0;" width="10" x="3436" y="1554.0469"/><rect fill="#FFFFFF" filter="url(#f1pvvtqr3lh64p)" height="30" style="stroke: #A80036; stroke-width: 1.0;" width="10" x="3669" y="1628.3984"/><rect fill="#FFFFFF" filter="url(#f1pvvtqr3lh64p)" height="30" style="stroke: #A80036; stroke-width: 1.0;" width="10" x="3919" y="1702.75"/><rect fill="#FFFFFF" filter="url(#f1pvvtqr3lh64p)" height="30" style="stroke: #A80036; stroke-width: 1.0;" width="10" x="4187.5" y="1821.4531"/><line style="stroke: #A80036; stroke-width: 1.0; stroke-dasharray: 2.0,2.0;" x1="131.5" x2="178.5" y1="66.9609" y2="66.9609"/><line style="stroke: #A80036; stroke-width: 1.0; stroke-dasharray: 2.0,2.0;" x1="178.5" x2="178.5" y1="66.9609" y2="79.9609"/><line style="stroke: #A80036; stroke-width: 1.0; stroke-dasharray: 2.0,2.0;" x1="137.5" x2="178.5" y1="79.9609" y2="79.9609"/><polygon fill="#A80036" points="147.5,75.9609,137.5,79.9609,147.5,83.9609,143.5,79.9609" style="stroke: #A80036; stroke-width: 1.0;"/><text fill="#000000" font-family="sans-serif" font-size="13" lengthAdjust="spacingAndGlyphs" textLength="343" x="143.5" y="62.1045">headfirst.factory.pizzaaf.Pizza createPizza(java.lang.String)</text><polygon fill="#A80036" points="476.5,110.9609,486.5,114.9609,476.5,118.9609,480.5,114.9609" style="stroke: #A80036; stroke-width: 1.0;"/><line style="stroke: #A80036; stroke-width: 1.0; stroke-dasharray: 2.0,2.0;" x1="136.5" x2="482.5" y1="114.9609" y2="114.9609"/><text fill="#000000" font-family="sans-serif" font-size="13" lengthAdjust="spacingAndGlyphs" textLength="67" x="143.5" y="110.4561">void &lt;init&gt;()</text><polygon fill="#A80036" points="147.5,155.3125,137.5,159.3125,147.5,163.3125,143.5,159.3125" style="stroke: #A80036; stroke-width: 1.0;"/><line style="stroke: #A80036; stroke-width: 1.0;" x1="141.5" x2="492.5" y1="159.3125" y2="159.3125"/><polygon fill="#A80036" points="795.5,185.3125,805.5,189.3125,795.5,193.3125,799.5,189.3125" style="stroke: #A80036; stroke-width: 1.0;"/><line style="stroke: #A80036; stroke-width: 1.0; stroke-dasharray: 2.0,2.0;" x1="136.5" x2="801.5" y1="189.3125" y2="189.3125"/><text fill="#000000" font-family="sans-serif" font-size="13" lengthAdjust="spacingAndGlyphs" textLength="341" x="143.5" y="184.8076">void &lt;init&gt;(headfirst.factory.pizzaaf.PizzaIngredientFactory)</text><polygon fill="#A80036" points="1033,215.6641,1043,219.6641,1033,223.6641,1037,219.6641" style="stroke: #A80036; stroke-width: 1.0;"/><line style="stroke: #A80036; stroke-width: 1.0; stroke-dasharray: 2.0,2.0;" x1="817.5" x2="1039" y1="219.6641" y2="219.6641"/><text fill="#000000" font-family="sans-serif" font-size="13" lengthAdjust="spacingAndGlyphs" textLength="67" x="824.5" y="215.1592">void &lt;init&gt;()</text><polygon fill="#A80036" points="823.5,260.0156,813.5,264.0156,823.5,268.0156,819.5,264.0156" style="stroke: #A80036; stroke-width: 1.0;"/><line style="stroke: #A80036; stroke-width: 1.0;" x1="817.5" x2="1049" y1="264.0156" y2="264.0156"/><polygon fill="#A80036" points="147.5,274.0156,137.5,278.0156,147.5,282.0156,143.5,278.0156" style="stroke: #A80036; stroke-width: 1.0;"/><line style="stroke: #A80036; stroke-width: 1.0;" x1="141.5" x2="811.5" y1="278.0156" y2="278.0156"/><polygon fill="#A80036" points="1033,304.0156,1043,308.0156,1033,312.0156,1037,308.0156" style="stroke: #A80036; stroke-width: 1.0;"/><line style="stroke: #A80036; stroke-width: 1.0; stroke-dasharray: 2.0,2.0;" x1="136.5" x2="1039" y1="308.0156" y2="308.0156"/><text fill="#000000" font-family="sans-serif" font-size="13" lengthAdjust="spacingAndGlyphs" textLength="174" x="143.5" y="303.5107">void setName(java.lang.String)</text><polygon fill="#A80036" points="147.5,348.3672,137.5,352.3672,147.5,356.3672,143.5,352.3672" style="stroke: #A80036; stroke-width: 1.0;"/><line style="stroke: #A80036; stroke-width: 1.0;" x1="141.5" x2="1049" y1="352.3672" y2="352.3672"/><polygon fill="#A80036" points="1268,378.3672,1278,382.3672,1268,386.3672,1272,382.3672" style="stroke: #A80036; stroke-width: 1.0;"/><line style="stroke: #A80036; stroke-width: 1.0; stroke-dasharray: 2.0,2.0;" x1="136.5" x2="1274" y1="382.3672" y2="382.3672"/><text fill="#000000" font-family="sans-serif" font-size="13" lengthAdjust="spacingAndGlyphs" textLength="341" x="143.5" y="377.8623">void &lt;init&gt;(headfirst.factory.pizzaaf.PizzaIngredientFactory)</text><polygon fill="#A80036" points="1066,408.7188,1056,412.7188,1066,416.7188,1062,412.7188" style="stroke: #A80036; stroke-width: 1.0;"/><line style="stroke: #A80036; stroke-width: 1.0; stroke-dasharray: 2.0,2.0;" x1="1060" x2="1279" y1="412.7188" y2="412.7188"/><text fill="#000000" font-family="sans-serif" font-size="13" lengthAdjust="spacingAndGlyphs" textLength="67" x="1072" y="408.2139">void &lt;init&gt;()</text><polygon fill="#A80036" points="1273,453.0703,1283,457.0703,1273,461.0703,1277,457.0703" style="stroke: #A80036; stroke-width: 1.0;"/><line style="stroke: #A80036; stroke-width: 1.0;" x1="1050" x2="1279" y1="457.0703" y2="457.0703"/><polygon fill="#A80036" points="147.5,467.0703,137.5,471.0703,147.5,475.0703,143.5,471.0703" style="stroke: #A80036; stroke-width: 1.0;"/><line style="stroke: #A80036; stroke-width: 1.0;" x1="141.5" x2="1284" y1="471.0703" y2="471.0703"/><polygon fill="#A80036" points="1033,497.0703,1043,501.0703,1033,505.0703,1037,501.0703" style="stroke: #A80036; stroke-width: 1.0;"/><line style="stroke: #A80036; stroke-width: 1.0; stroke-dasharray: 2.0,2.0;" x1="136.5" x2="1039" y1="501.0703" y2="501.0703"/><text fill="#000000" font-family="sans-serif" font-size="13" lengthAdjust="spacingAndGlyphs" textLength="174" x="143.5" y="496.5654">void setName(java.lang.String)</text><polygon fill="#A80036" points="147.5,541.4219,137.5,545.4219,147.5,549.4219,143.5,545.4219" style="stroke: #A80036; stroke-width: 1.0;"/><line style="stroke: #A80036; stroke-width: 1.0;" x1="141.5" x2="1049" y1="545.4219" y2="545.4219"/><polygon fill="#A80036" points="1519,571.4219,1529,575.4219,1519,579.4219,1523,575.4219" style="stroke: #A80036; stroke-width: 1.0;"/><line style="stroke: #A80036; stroke-width: 1.0; stroke-dasharray: 2.0,2.0;" x1="136.5" x2="1525" y1="575.4219" y2="575.4219"/><text fill="#000000" font-family="sans-serif" font-size="13" lengthAdjust="spacingAndGlyphs" textLength="341" x="143.5" y="570.917">void &lt;init&gt;(headfirst.factory.pizzaaf.PizzaIngredientFactory)</text><polygon fill="#A80036" points="1066,601.7734,1056,605.7734,1066,609.7734,1062,605.7734" style="stroke: #A80036; stroke-width: 1.0;"/><line style="stroke: #A80036; stroke-width: 1.0; stroke-dasharray: 2.0,2.0;" x1="1060" x2="1530" y1="605.7734" y2="605.7734"/><text fill="#000000" font-family="sans-serif" font-size="13" lengthAdjust="spacingAndGlyphs" textLength="67" x="1072" y="601.2686">void &lt;init&gt;()</text><polygon fill="#A80036" points="1524,646.125,1534,650.125,1524,654.125,1528,650.125" style="stroke: #A80036; stroke-width: 1.0;"/><line style="stroke: #A80036; stroke-width: 1.0;" x1="1050" x2="1530" y1="650.125" y2="650.125"/><polygon fill="#A80036" points="147.5,660.125,137.5,664.125,147.5,668.125,143.5,664.125" style="stroke: #A80036; stroke-width: 1.0;"/><line style="stroke: #A80036; stroke-width: 1.0;" x1="141.5" x2="1535" y1="664.125" y2="664.125"/><polygon fill="#A80036" points="1033,690.125,1043,694.125,1033,698.125,1037,694.125" style="stroke: #A80036; stroke-width: 1.0;"/><line style="stroke: #A80036; stroke-width: 1.0; stroke-dasharray: 2.0,2.0;" x1="136.5" x2="1039" y1="694.125" y2="694.125"/><text fill="#000000" font-family="sans-serif" font-size="13" lengthAdjust="spacingAndGlyphs" textLength="174" x="143.5" y="689.6201">void setName(java.lang.String)</text><polygon fill="#A80036" points="147.5,734.4766,137.5,738.4766,147.5,742.4766,143.5,738.4766" style="stroke: #A80036; stroke-width: 1.0;"/><line style="stroke: #A80036; stroke-width: 1.0;" x1="141.5" x2="1049" y1="738.4766" y2="738.4766"/><polygon fill="#A80036" points="1780.5,764.4766,1790.5,768.4766,1780.5,772.4766,1784.5,768.4766" style="stroke: #A80036; stroke-width: 1.0;"/><line style="stroke: #A80036; stroke-width: 1.0; stroke-dasharray: 2.0,2.0;" x1="136.5" x2="1786.5" y1="768.4766" y2="768.4766"/><text fill="#000000" font-family="sans-serif" font-size="13" lengthAdjust="spacingAndGlyphs" textLength="341" x="143.5" y="763.9717">void &lt;init&gt;(headfirst.factory.pizzaaf.PizzaIngredientFactory)</text><polygon fill="#A80036" points="1066,794.8281,1056,798.8281,1066,802.8281,1062,798.8281" style="stroke: #A80036; stroke-width: 1.0;"/><line style="stroke: #A80036; stroke-width: 1.0; stroke-dasharray: 2.0,2.0;" x1="1060" x2="1791.5" y1="798.8281" y2="798.8281"/><text fill="#000000" font-family="sans-serif" font-size="13" lengthAdjust="spacingAndGlyphs" textLength="67" x="1072" y="794.3232">void &lt;init&gt;()</text><polygon fill="#A80036" points="1785.5,839.1797,1795.5,843.1797,1785.5,847.1797,1789.5,843.1797" style="stroke: #A80036; stroke-width: 1.0;"/><line style="stroke: #A80036; stroke-width: 1.0;" x1="1050" x2="1791.5" y1="843.1797" y2="843.1797"/><polygon fill="#A80036" points="147.5,853.1797,137.5,857.1797,147.5,861.1797,143.5,857.1797" style="stroke: #A80036; stroke-width: 1.0;"/><line style="stroke: #A80036; stroke-width: 1.0;" x1="141.5" x2="1796.5" y1="857.1797" y2="857.1797"/><polygon fill="#A80036" points="1033,883.1797,1043,887.1797,1033,891.1797,1037,887.1797" style="stroke: #A80036; stroke-width: 1.0;"/><line style="stroke: #A80036; stroke-width: 1.0; stroke-dasharray: 2.0,2.0;" x1="136.5" x2="1039" y1="887.1797" y2="887.1797"/><text fill="#000000" font-family="sans-serif" font-size="13" lengthAdjust="spacingAndGlyphs" textLength="174" x="143.5" y="882.6748">void setName(java.lang.String)</text><polygon fill="#A80036" points="142.5,927.5313,132.5,931.5313,142.5,935.5313,138.5,931.5313" style="stroke: #A80036; stroke-width: 1.0;"/><line style="stroke: #A80036; stroke-width: 1.0;" x1="136.5" x2="1049" y1="931.5313" y2="931.5313"/><line style="stroke: #A80036; stroke-width: 1.0;" x1="131.5" x2="173.5" y1="945.5313" y2="945.5313"/><line style="stroke: #A80036; stroke-width: 1.0;" x1="173.5" x2="173.5" y1="945.5313" y2="958.5313"/><line style="stroke: #A80036; stroke-width: 1.0;" x1="132.5" x2="173.5" y1="958.5313" y2="958.5313"/><polygon fill="#A80036" points="142.5,954.5313,132.5,958.5313,142.5,962.5313,138.5,958.5313" style="stroke: #A80036; stroke-width: 1.0;"/><polygon fill="#A80036" points="1033,984.5313,1043,988.5313,1033,992.5313,1037,988.5313" style="stroke: #A80036; stroke-width: 1.0;"/><line style="stroke: #A80036; stroke-width: 1.0; stroke-dasharray: 2.0,2.0;" x1="131.5" x2="1039" y1="988.5313" y2="988.5313"/><text fill="#000000" font-family="sans-serif" font-size="13" lengthAdjust="spacingAndGlyphs" textLength="152" x="138.5" y="984.0264">java.lang.String getName()</text><polygon fill="#A80036" points="142.5,1028.8828,132.5,1032.8828,142.5,1036.8828,138.5,1032.8828" style="stroke: #A80036; stroke-width: 1.0;"/><line style="stroke: #A80036; stroke-width: 1.0;" x1="136.5" x2="1049" y1="1032.8828" y2="1032.8828"/><polygon fill="#A80036" points="1033,1058.8828,1043,1062.8828,1033,1066.8828,1037,1062.8828" style="stroke: #A80036; stroke-width: 1.0;"/><line style="stroke: #A80036; stroke-width: 1.0; stroke-dasharray: 2.0,2.0;" x1="131.5" x2="1039" y1="1062.8828" y2="1062.8828"/><text fill="#000000" font-family="sans-serif" font-size="13" lengthAdjust="spacingAndGlyphs" textLength="77" x="138.5" y="1058.3779">void prepare()</text><polygon fill="#A80036" points="2081.5,1089.2344,2091.5,1093.2344,2081.5,1097.2344,2085.5,1093.2344" style="stroke: #A80036; stroke-width: 1.0;"/><line style="stroke: #A80036; stroke-width: 1.0; stroke-dasharray: 2.0,2.0;" x1="1055" x2="2087.5" y1="1093.2344" y2="1093.2344"/><text fill="#000000" font-family="sans-serif" font-size="13" lengthAdjust="spacingAndGlyphs" textLength="263" x="1062" y="1088.7295">headfirst.factory.pizzaaf.Dough createDough()</text><polygon fill="#A80036" points="2386,1119.5859,2396,1123.5859,2386,1127.5859,2390,1123.5859" style="stroke: #A80036; stroke-width: 1.0;"/><line style="stroke: #A80036; stroke-width: 1.0; stroke-dasharray: 2.0,2.0;" x1="2103.5" x2="2392" y1="1123.5859" y2="1123.5859"/><text fill="#000000" font-family="sans-serif" font-size="13" lengthAdjust="spacingAndGlyphs" textLength="67" x="2110.5" y="1119.0811">void &lt;init&gt;()</text><polygon fill="#A80036" points="2109.5,1163.9375,2099.5,1167.9375,2109.5,1171.9375,2105.5,1167.9375" style="stroke: #A80036; stroke-width: 1.0;"/><line style="stroke: #A80036; stroke-width: 1.0;" x1="2103.5" x2="2402" y1="1167.9375" y2="1167.9375"/><polygon fill="#A80036" points="1066,1177.9375,1056,1181.9375,1066,1185.9375,1062,1181.9375" style="stroke: #A80036; stroke-width: 1.0;"/><line style="stroke: #A80036; stroke-width: 1.0;" x1="1060" x2="2097.5" y1="1181.9375" y2="1181.9375"/><polygon fill="#A80036" points="2081.5,1207.9375,2091.5,1211.9375,2081.5,1215.9375,2085.5,1211.9375" style="stroke: #A80036; stroke-width: 1.0;"/><line style="stroke: #A80036; stroke-width: 1.0; stroke-dasharray: 2.0,2.0;" x1="1055" x2="2087.5" y1="1211.9375" y2="1211.9375"/><text fill="#000000" font-family="sans-serif" font-size="13" lengthAdjust="spacingAndGlyphs" textLength="263" x="1062" y="1207.4326">headfirst.factory.pizzaaf.Sauce createSauce()</text><polygon fill="#A80036" points="2667,1238.2891,2677,1242.2891,2667,1246.2891,2671,1242.2891" style="stroke: #A80036; stroke-width: 1.0;"/><line style="stroke: #A80036; stroke-width: 1.0; stroke-dasharray: 2.0,2.0;" x1="2103.5" x2="2673" y1="1242.2891" y2="1242.2891"/><text fill="#000000" font-family="sans-serif" font-size="13" lengthAdjust="spacingAndGlyphs" textLength="67" x="2110.5" y="1237.7842">void &lt;init&gt;()</text><polygon fill="#A80036" points="2109.5,1282.6406,2099.5,1286.6406,2109.5,1290.6406,2105.5,1286.6406" style="stroke: #A80036; stroke-width: 1.0;"/><line style="stroke: #A80036; stroke-width: 1.0;" x1="2103.5" x2="2683" y1="1286.6406" y2="1286.6406"/><polygon fill="#A80036" points="1066,1296.6406,1056,1300.6406,1066,1304.6406,1062,1300.6406" style="stroke: #A80036; stroke-width: 1.0;"/><line style="stroke: #A80036; stroke-width: 1.0;" x1="1060" x2="2097.5" y1="1300.6406" y2="1300.6406"/><polygon fill="#A80036" points="2081.5,1326.6406,2091.5,1330.6406,2081.5,1334.6406,2085.5,1330.6406" style="stroke: #A80036; stroke-width: 1.0;"/><line style="stroke: #A80036; stroke-width: 1.0; stroke-dasharray: 2.0,2.0;" x1="1055" x2="2087.5" y1="1330.6406" y2="1330.6406"/><text fill="#000000" font-family="sans-serif" font-size="13" lengthAdjust="spacingAndGlyphs" textLength="277" x="1062" y="1326.1357">headfirst.factory.pizzaaf.Cheese createCheese()</text><polygon fill="#A80036" points="2951,1356.9922,2961,1360.9922,2951,1364.9922,2955,1360.9922" style="stroke: #A80036; stroke-width: 1.0;"/><line style="stroke: #A80036; stroke-width: 1.0; stroke-dasharray: 2.0,2.0;" x1="2103.5" x2="2957" y1="1360.9922" y2="1360.9922"/><text fill="#000000" font-family="sans-serif" font-size="13" lengthAdjust="spacingAndGlyphs" textLength="67" x="2110.5" y="1356.4873">void &lt;init&gt;()</text><polygon fill="#A80036" points="2109.5,1401.3438,2099.5,1405.3438,2109.5,1409.3438,2105.5,1405.3438" style="stroke: #A80036; stroke-width: 1.0;"/><line style="stroke: #A80036; stroke-width: 1.0;" x1="2103.5" x2="2967" y1="1405.3438" y2="1405.3438"/><polygon fill="#A80036" points="1066,1415.3438,1056,1419.3438,1066,1423.3438,1062,1419.3438" style="stroke: #A80036; stroke-width: 1.0;"/><line style="stroke: #A80036; stroke-width: 1.0;" x1="1060" x2="2097.5" y1="1419.3438" y2="1419.3438"/><polygon fill="#A80036" points="2081.5,1445.3438,2091.5,1449.3438,2081.5,1453.3438,2085.5,1449.3438" style="stroke: #A80036; stroke-width: 1.0;"/><line style="stroke: #A80036; stroke-width: 1.0; stroke-dasharray: 2.0,2.0;" x1="1055" x2="2087.5" y1="1449.3438" y2="1449.3438"/><text fill="#000000" font-family="sans-serif" font-size="13" lengthAdjust="spacingAndGlyphs" textLength="291" x="1062" y="1444.8389">headfirst.factory.pizzaaf.Veggies[] createVeggies()</text><polygon fill="#A80036" points="3205.5,1475.6953,3215.5,1479.6953,3205.5,1483.6953,3209.5,1479.6953" style="stroke: #A80036; stroke-width: 1.0;"/><line style="stroke: #A80036; stroke-width: 1.0; stroke-dasharray: 2.0,2.0;" x1="2103.5" x2="3211.5" y1="1479.6953" y2="1479.6953"/><text fill="#000000" font-family="sans-serif" font-size="13" lengthAdjust="spacingAndGlyphs" textLength="67" x="2110.5" y="1475.1904">void &lt;init&gt;()</text><polygon fill="#A80036" points="2114.5,1520.0469,2104.5,1524.0469,2114.5,1528.0469,2110.5,1524.0469" style="stroke: #A80036; stroke-width: 1.0;"/><line style="stroke: #A80036; stroke-width: 1.0;" x1="2108.5" x2="3221.5" y1="1524.0469" y2="1524.0469"/><polygon fill="#A80036" points="3424,1550.0469,3434,1554.0469,3424,1558.0469,3428,1554.0469" style="stroke: #A80036; stroke-width: 1.0;"/><line style="stroke: #A80036; stroke-width: 1.0; stroke-dasharray: 2.0,2.0;" x1="2103.5" x2="3430" y1="1554.0469" y2="1554.0469"/><text fill="#000000" font-family="sans-serif" font-size="13" lengthAdjust="spacingAndGlyphs" textLength="67" x="2110.5" y="1549.542">void &lt;init&gt;()</text><polygon fill="#A80036" points="2114.5,1594.3984,2104.5,1598.3984,2114.5,1602.3984,2110.5,1598.3984" style="stroke: #A80036; stroke-width: 1.0;"/><line style="stroke: #A80036; stroke-width: 1.0;" x1="2108.5" x2="3440" y1="1598.3984" y2="1598.3984"/><polygon fill="#A80036" points="3657,1624.3984,3667,1628.3984,3657,1632.3984,3661,1628.3984" style="stroke: #A80036; stroke-width: 1.0;"/><line style="stroke: #A80036; stroke-width: 1.0; stroke-dasharray: 2.0,2.0;" x1="2103.5" x2="3663" y1="1628.3984" y2="1628.3984"/><text fill="#000000" font-family="sans-serif" font-size="13" lengthAdjust="spacingAndGlyphs" textLength="67" x="2110.5" y="1623.8936">void &lt;init&gt;()</text><polygon fill="#A80036" points="2114.5,1668.75,2104.5,1672.75,2114.5,1676.75,2110.5,1672.75" style="stroke: #A80036; stroke-width: 1.0;"/><line style="stroke: #A80036; stroke-width: 1.0;" x1="2108.5" x2="3673" y1="1672.75" y2="1672.75"/><polygon fill="#A80036" points="3907,1698.75,3917,1702.75,3907,1706.75,3911,1702.75" style="stroke: #A80036; stroke-width: 1.0;"/><line style="stroke: #A80036; stroke-width: 1.0; stroke-dasharray: 2.0,2.0;" x1="2103.5" x2="3913" y1="1702.75" y2="1702.75"/><text fill="#000000" font-family="sans-serif" font-size="13" lengthAdjust="spacingAndGlyphs" textLength="67" x="2110.5" y="1698.2451">void &lt;init&gt;()</text><polygon fill="#A80036" points="2109.5,1743.1016,2099.5,1747.1016,2109.5,1751.1016,2105.5,1747.1016" style="stroke: #A80036; stroke-width: 1.0;"/><line style="stroke: #A80036; stroke-width: 1.0;" x1="2103.5" x2="3923" y1="1747.1016" y2="1747.1016"/><polygon fill="#A80036" points="1066,1757.1016,1056,1761.1016,1066,1765.1016,1062,1761.1016" style="stroke: #A80036; stroke-width: 1.0;"/><line style="stroke: #A80036; stroke-width: 1.0;" x1="1060" x2="2097.5" y1="1761.1016" y2="1761.1016"/><polygon fill="#A80036" points="2081.5,1787.1016,2091.5,1791.1016,2081.5,1795.1016,2085.5,1791.1016" style="stroke: #A80036; stroke-width: 1.0;"/><line style="stroke: #A80036; stroke-width: 1.0; stroke-dasharray: 2.0,2.0;" x1="1055" x2="2087.5" y1="1791.1016" y2="1791.1016"/><text fill="#000000" font-family="sans-serif" font-size="13" lengthAdjust="spacingAndGlyphs" textLength="305" x="1062" y="1786.5967">headfirst.factory.pizzaaf.Pepperoni createPepperoni()</text><polygon fill="#A80036" points="4175.5,1817.4531,4185.5,1821.4531,4175.5,1825.4531,4179.5,1821.4531" style="stroke: #A80036; stroke-width: 1.0;"/><line style="stroke: #A80036; stroke-width: 1.0; stroke-dasharray: 2.0,2.0;" x1="2103.5" x2="4181.5" y1="1821.4531" y2="1821.4531"/><text fill="#000000" font-family="sans-serif" font-size="13" lengthAdjust="spacingAndGlyphs" textLength="67" x="2110.5" y="1816.9482">void &lt;init&gt;()</text><polygon fill="#A80036" points="2109.5,1861.8047,2099.5,1865.8047,2109.5,1869.8047,2105.5,1865.8047" style="stroke: #A80036; stroke-width: 1.0;"/><line style="stroke: #A80036; stroke-width: 1.0;" x1="2103.5" x2="4191.5" y1="1865.8047" y2="1865.8047"/><polygon fill="#A80036" points="1061,1875.8047,1051,1879.8047,1061,1883.8047,1057,1879.8047" style="stroke: #A80036; stroke-width: 1.0;"/><line style="stroke: #A80036; stroke-width: 1.0;" x1="1055" x2="2097.5" y1="1879.8047" y2="1879.8047"/><polygon fill="#A80036" points="142.5,1889.8047,132.5,1893.8047,142.5,1897.8047,138.5,1893.8047" style="stroke: #A80036; stroke-width: 1.0;"/><line style="stroke: #A80036; stroke-width: 1.0;" x1="136.5" x2="1049" y1="1893.8047" y2="1893.8047"/><polygon fill="#A80036" points="1033,1919.8047,1043,1923.8047,1033,1927.8047,1037,1923.8047" style="stroke: #A80036; stroke-width: 1.0;"/><line style="stroke: #A80036; stroke-width: 1.0; stroke-dasharray: 2.0,2.0;" x1="131.5" x2="1039" y1="1923.8047" y2="1923.8047"/><text fill="#000000" font-family="sans-serif" font-size="13" lengthAdjust="spacingAndGlyphs" textLength="62" x="138.5" y="1919.2998">void bake()</text><polygon fill="#A80036" points="142.5,1964.1563,132.5,1968.1563,142.5,1972.1563,138.5,1968.1563" style="stroke: #A80036; stroke-width: 1.0;"/><line style="stroke: #A80036; stroke-width: 1.0;" x1="136.5" x2="1049" y1="1968.1563" y2="1968.1563"/><polygon fill="#A80036" points="1033,1994.1563,1043,1998.1563,1033,2002.1563,1037,1998.1563" style="stroke: #A80036; stroke-width: 1.0;"/><line style="stroke: #A80036; stroke-width: 1.0; stroke-dasharray: 2.0,2.0;" x1="131.5" x2="1039" y1="1998.1563" y2="1998.1563"/><text fill="#000000" font-family="sans-serif" font-size="13" lengthAdjust="spacingAndGlyphs" textLength="52" x="138.5" y="1993.6514">void cut()</text><polygon fill="#A80036" points="142.5,2038.5078,132.5,2042.5078,142.5,2046.5078,138.5,2042.5078" style="stroke: #A80036; stroke-width: 1.0;"/><line style="stroke: #A80036; stroke-width: 1.0;" x1="136.5" x2="1049" y1="2042.5078" y2="2042.5078"/><polygon fill="#A80036" points="1033,2068.5078,1043,2072.5078,1033,2076.5078,1037,2072.5078" style="stroke: #A80036; stroke-width: 1.0;"/><line style="stroke: #A80036; stroke-width: 1.0; stroke-dasharray: 2.0,2.0;" x1="131.5" x2="1039" y1="2072.5078" y2="2072.5078"/><text fill="#000000" font-family="sans-serif" font-size="13" lengthAdjust="spacingAndGlyphs" textLength="55" x="138.5" y="2068.0029">void box()</text><polygon fill="#A80036" points="137.5,2112.8594,127.5,2116.8594,137.5,2120.8594,133.5,2116.8594" style="stroke: #A80036; stroke-width: 1.0;"/><line style="stroke: #A80036; stroke-width: 1.0;" x1="131.5" x2="1049" y1="2116.8594" y2="2116.8594"/></g></svg>