<?xml version="1.0" encoding="UTF-8" standalone="no"?><svg xmlns="http://www.w3.org/2000/svg" xmlns:xlink="http://www.w3.org/1999/xlink" contentScriptType="application/ecmascript" contentStyleType="text/css" height="1822px" preserveAspectRatio="none" style="width:2503px;height:1822px;" version="1.1" viewBox="0 0 2503 1822" width="2503px" zoomAndPan="magnify"><defs><filter height="300%" id="fyf14uuv6ccsm" width="300%" x="-1" y="-1"><feGaussianBlur result="blurOut" stdDeviation="2.0"/><feColorMatrix in="blurOut" result="blurOut2" type="matrix" values="0 0 0 0 0 0 0 0 0 0 0 0 0 0 0 0 0 0 .4 0"/><feOffset dx="4.0" dy="4.0" in="blurOut2" result="blurOut3"/><feBlend in="SourceGraphic" in2="blurOut3" mode="normal"/></filter></defs><g><rect fill="#FFFFFF" filter="url(#fyf14uuv6ccsm)" height="1712.7891" style="stroke: #A80036; stroke-width: 1.0;" width="10" x="196.5" y="49.6094"/><rect fill="#FFFFFF" filter="url(#fyf14uuv6ccsm)" height="30" style="stroke: #A80036; stroke-width: 1.0;" width="10" x="586.5" y="71.6094"/><rect fill="#FFFFFF" filter="url(#fyf14uuv6ccsm)" height="30" style="stroke: #A80036; stroke-width: 1.0;" width="10" x="586.5" y="176.3125"/><rect fill="#FFFFFF" filter="url(#fyf14uuv6ccsm)" height="30" style="stroke: #A80036; stroke-width: 1.0;" width="10" x="586.5" y="295.0156"/><rect fill="#FFFFFF" filter="url(#fyf14uuv6ccsm)" height="30" style="stroke: #A80036; stroke-width: 1.0;" width="10" x="586.5" y="413.7188"/><rect fill="#FFFFFF" filter="url(#fyf14uuv6ccsm)" height="379.1094" style="stroke: #A80036; stroke-width: 1.0;" width="10" x="586.5" y="502.0703"/><rect fill="#FFFFFF" filter="url(#fyf14uuv6ccsm)" height="313.7578" style="stroke: #A80036; stroke-width: 1.0;" width="10" x="591.5" y="540.4219"/><rect fill="#FFFFFF" filter="url(#fyf14uuv6ccsm)" height="250.4063" style="stroke: #A80036; stroke-width: 1.0;" width="10" x="596.5" y="583.7734"/><rect fill="#FFFFFF" filter="url(#fyf14uuv6ccsm)" height="379.1094" style="stroke: #A80036; stroke-width: 1.0;" width="10" x="586.5" y="932.1797"/><rect fill="#FFFFFF" filter="url(#fyf14uuv6ccsm)" height="313.7578" style="stroke: #A80036; stroke-width: 1.0;" width="10" x="591.5" y="970.5313"/><rect fill="#FFFFFF" filter="url(#fyf14uuv6ccsm)" height="250.4063" style="stroke: #A80036; stroke-width: 1.0;" width="10" x="596.5" y="1013.8828"/><rect fill="#FFFFFF" filter="url(#fyf14uuv6ccsm)" height="379.1094" style="stroke: #A80036; stroke-width: 1.0;" width="10" x="586.5" y="1362.2891"/><rect fill="#FFFFFF" filter="url(#fyf14uuv6ccsm)" height="313.7578" style="stroke: #A80036; stroke-width: 1.0;" width="10" x="591.5" y="1400.6406"/><rect fill="#FFFFFF" filter="url(#fyf14uuv6ccsm)" height="250.4063" style="stroke: #A80036; stroke-width: 1.0;" width="10" x="596.5" y="1443.9922"/><rect fill="#FFFFFF" filter="url(#fyf14uuv6ccsm)" height="74.7031" style="stroke: #A80036; stroke-width: 1.0;" width="10" x="1037.5" y="145.9609"/><rect fill="#FFFFFF" filter="url(#fyf14uuv6ccsm)" height="74.7031" style="stroke: #A80036; stroke-width: 1.0;" width="10" x="1468" y="264.6641"/><rect fill="#FFFFFF" filter="url(#fyf14uuv6ccsm)" height="74.7031" style="stroke: #A80036; stroke-width: 1.0;" width="10" x="1869" y="383.3672"/><rect fill="#FFFFFF" filter="url(#fyf14uuv6ccsm)" height="194.0547" style="stroke: #A80036; stroke-width: 1.0;" width="10" x="2273" y="619.125"/><rect fill="#FFFFFF" filter="url(#fyf14uuv6ccsm)" height="28" style="stroke: #A80036; stroke-width: 1.0;" width="10" x="2278" y="657.4766"/><rect fill="#FFFFFF" filter="url(#fyf14uuv6ccsm)" height="28" style="stroke: #A80036; stroke-width: 1.0;" width="10" x="2278" y="757.8281"/><rect fill="#FFFFFF" filter="url(#fyf14uuv6ccsm)" height="194.0547" style="stroke: #A80036; stroke-width: 1.0;" width="10" x="2273" y="1049.2344"/><rect fill="#FFFFFF" filter="url(#fyf14uuv6ccsm)" height="28" style="stroke: #A80036; stroke-width: 1.0;" width="10" x="2278" y="1087.5859"/><rect fill="#FFFFFF" filter="url(#fyf14uuv6ccsm)" height="28" style="stroke: #A80036; stroke-width: 1.0;" width="10" x="2278" y="1187.9375"/><rect fill="#FFFFFF" filter="url(#fyf14uuv6ccsm)" height="194.0547" style="stroke: #A80036; stroke-width: 1.0;" width="10" x="2273" y="1479.3438"/><rect fill="#FFFFFF" filter="url(#fyf14uuv6ccsm)" height="28" style="stroke: #A80036; stroke-width: 1.0;" width="10" x="2278" y="1517.6953"/><rect fill="#FFFFFF" filter="url(#fyf14uuv6ccsm)" height="28" style="stroke: #A80036; stroke-width: 1.0;" width="10" x="2278" y="1618.0469"/><line style="stroke: #A80036; stroke-width: 1.0; stroke-dasharray: 5.0,5.0;" x1="201" x2="201" y1="39.6094" y2="1780.3984"/><line style="stroke: #A80036; stroke-width: 1.0; stroke-dasharray: 5.0,5.0;" x1="591" x2="591" y1="39.6094" y2="1780.3984"/><line style="stroke: #A80036; stroke-width: 1.0; stroke-dasharray: 5.0,5.0;" x1="1042.5" x2="1042.5" y1="39.6094" y2="1780.3984"/><line style="stroke: #A80036; stroke-width: 1.0; stroke-dasharray: 5.0,5.0;" x1="1472.5" x2="1472.5" y1="39.6094" y2="1780.3984"/><line style="stroke: #A80036; stroke-width: 1.0; stroke-dasharray: 5.0,5.0;" x1="1873.5" x2="1873.5" y1="39.6094" y2="1780.3984"/><line style="stroke: #A80036; stroke-width: 1.0; stroke-dasharray: 5.0,5.0;" x1="2277.5" x2="2277.5" y1="39.6094" y2="1780.3984"/><rect fill="#FEFECE" filter="url(#fyf14uuv6ccsm)" height="31.6094" style="stroke: #A80036; stroke-width: 1.5;" width="383" x="8" y="3"/><text fill="#000000" font-family="sans-serif" font-size="14" lengthAdjust="spacingAndGlyphs" textLength="369" x="15" y="24.5332">headfirst.designpatterns.observer.weather.WeatherStation</text><rect fill="#FEFECE" filter="url(#fyf14uuv6ccsm)" height="31.6094" style="stroke: #A80036; stroke-width: 1.5;" width="383" x="8" y="1779.3984"/><text fill="#000000" font-family="sans-serif" font-size="14" lengthAdjust="spacingAndGlyphs" textLength="369" x="15" y="1800.9316">headfirst.designpatterns.observer.weather.WeatherStation</text><rect fill="#FEFECE" filter="url(#fyf14uuv6ccsm)" height="31.6094" style="stroke: #A80036; stroke-width: 1.5;" width="369" x="405" y="3"/><text fill="#000000" font-family="sans-serif" font-size="14" lengthAdjust="spacingAndGlyphs" textLength="355" x="412" y="24.5332">headfirst.designpatterns.observer.weather.WeatherData</text><rect fill="#FEFECE" filter="url(#fyf14uuv6ccsm)" height="31.6094" style="stroke: #A80036; stroke-width: 1.5;" width="369" x="405" y="1779.3984"/><text fill="#000000" font-family="sans-serif" font-size="14" lengthAdjust="spacingAndGlyphs" textLength="355" x="412" y="1800.9316">headfirst.designpatterns.observer.weather.WeatherData</text><rect fill="#FEFECE" filter="url(#fyf14uuv6ccsm)" height="31.6094" style="stroke: #A80036; stroke-width: 1.5;" width="446" x="817.5" y="3"/><text fill="#000000" font-family="sans-serif" font-size="14" lengthAdjust="spacingAndGlyphs" textLength="432" x="824.5" y="24.5332">headfirst.designpatterns.observer.weather.CurrentConditionsDisplay</text><rect fill="#FEFECE" filter="url(#fyf14uuv6ccsm)" height="31.6094" style="stroke: #A80036; stroke-width: 1.5;" width="446" x="817.5" y="1779.3984"/><text fill="#000000" font-family="sans-serif" font-size="14" lengthAdjust="spacingAndGlyphs" textLength="432" x="824.5" y="1800.9316">headfirst.designpatterns.observer.weather.CurrentConditionsDisplay</text><rect fill="#FEFECE" filter="url(#fyf14uuv6ccsm)" height="31.6094" style="stroke: #A80036; stroke-width: 1.5;" width="387" x="1277.5" y="3"/><text fill="#000000" font-family="sans-serif" font-size="14" lengthAdjust="spacingAndGlyphs" textLength="373" x="1284.5" y="24.5332">headfirst.designpatterns.observer.weather.StatisticsDisplay</text><rect fill="#FEFECE" filter="url(#fyf14uuv6ccsm)" height="31.6094" style="stroke: #A80036; stroke-width: 1.5;" width="387" x="1277.5" y="1779.3984"/><text fill="#000000" font-family="sans-serif" font-size="14" lengthAdjust="spacingAndGlyphs" textLength="373" x="1284.5" y="1800.9316">headfirst.designpatterns.observer.weather.StatisticsDisplay</text><rect fill="#FEFECE" filter="url(#fyf14uuv6ccsm)" height="31.6094" style="stroke: #A80036; stroke-width: 1.5;" width="387" x="1678.5" y="3"/><text fill="#000000" font-family="sans-serif" font-size="14" lengthAdjust="spacingAndGlyphs" textLength="373" x="1685.5" y="24.5332">headfirst.designpatterns.observer.weather.ForecastDisplay</text><rect fill="#FEFECE" filter="url(#fyf14uuv6ccsm)" height="31.6094" style="stroke: #A80036; stroke-width: 1.5;" width="387" x="1678.5" y="1779.3984"/><text fill="#000000" font-family="sans-serif" font-size="14" lengthAdjust="spacingAndGlyphs" textLength="373" x="1685.5" y="1800.9316">headfirst.designpatterns.observer.weather.ForecastDisplay</text><rect fill="#FEFECE" filter="url(#fyf14uuv6ccsm)" height="31.6094" style="stroke: #A80036; stroke-width: 1.5;" width="393" x="2079.5" y="3"/><text fill="#000000" font-family="sans-serif" font-size="14" lengthAdjust="spacingAndGlyphs" textLength="379" x="2086.5" y="24.5332">headfirst.designpatterns.observer.weather.HeatIndexDisplay</text><rect fill="#FEFECE" filter="url(#fyf14uuv6ccsm)" height="31.6094" style="stroke: #A80036; stroke-width: 1.5;" width="393" x="2079.5" y="1779.3984"/><text fill="#000000" font-family="sans-serif" font-size="14" lengthAdjust="spacingAndGlyphs" textLength="379" x="2086.5" y="1800.9316">headfirst.designpatterns.observer.weather.HeatIndexDisplay</text><rect fill="#FFFFFF" filter="url(#fyf14uuv6ccsm)" height="1712.7891" style="stroke: #A80036; stroke-width: 1.0;" width="10" x="196.5" y="49.6094"/><rect fill="#FFFFFF" filter="url(#fyf14uuv6ccsm)" height="30" style="stroke: #A80036; stroke-width: 1.0;" width="10" x="586.5" y="71.6094"/><rect fill="#FFFFFF" filter="url(#fyf14uuv6ccsm)" height="30" style="stroke: #A80036; stroke-width: 1.0;" width="10" x="586.5" y="176.3125"/><rect fill="#FFFFFF" filter="url(#fyf14uuv6ccsm)" height="30" style="stroke: #A80036; stroke-width: 1.0;" width="10" x="586.5" y="295.0156"/><rect fill="#FFFFFF" filter="url(#fyf14uuv6ccsm)" height="30" style="stroke: #A80036; stroke-width: 1.0;" width="10" x="586.5" y="413.7188"/><rect fill="#FFFFFF" filter="url(#fyf14uuv6ccsm)" height="379.1094" style="stroke: #A80036; stroke-width: 1.0;" width="10" x="586.5" y="502.0703"/><rect fill="#FFFFFF" filter="url(#fyf14uuv6ccsm)" height="313.7578" style="stroke: #A80036; stroke-width: 1.0;" width="10" x="591.5" y="540.4219"/><rect fill="#FFFFFF" filter="url(#fyf14uuv6ccsm)" height="250.4063" style="stroke: #A80036; stroke-width: 1.0;" width="10" x="596.5" y="583.7734"/><rect fill="#FFFFFF" filter="url(#fyf14uuv6ccsm)" height="379.1094" style="stroke: #A80036; stroke-width: 1.0;" width="10" x="586.5" y="932.1797"/><rect fill="#FFFFFF" filter="url(#fyf14uuv6ccsm)" height="313.7578" style="stroke: #A80036; stroke-width: 1.0;" width="10" x="591.5" y="970.5313"/><rect fill="#FFFFFF" filter="url(#fyf14uuv6ccsm)" height="250.4063" style="stroke: #A80036; stroke-width: 1.0;" width="10" x="596.5" y="1013.8828"/><rect fill="#FFFFFF" filter="url(#fyf14uuv6ccsm)" height="379.1094" style="stroke: #A80036; stroke-width: 1.0;" width="10" x="586.5" y="1362.2891"/><rect fill="#FFFFFF" filter="url(#fyf14uuv6ccsm)" height="313.7578" style="stroke: #A80036; stroke-width: 1.0;" width="10" x="591.5" y="1400.6406"/><rect fill="#FFFFFF" filter="url(#fyf14uuv6ccsm)" height="250.4063" style="stroke: #A80036; stroke-width: 1.0;" width="10" x="596.5" y="1443.9922"/><rect fill="#FFFFFF" filter="url(#fyf14uuv6ccsm)" height="74.7031" style="stroke: #A80036; stroke-width: 1.0;" width="10" x="1037.5" y="145.9609"/><rect fill="#FFFFFF" filter="url(#fyf14uuv6ccsm)" height="74.7031" style="stroke: #A80036; stroke-width: 1.0;" width="10" x="1468" y="264.6641"/><rect fill="#FFFFFF" filter="url(#fyf14uuv6ccsm)" height="74.7031" style="stroke: #A80036; stroke-width: 1.0;" width="10" x="1869" y="383.3672"/><rect fill="#FFFFFF" filter="url(#fyf14uuv6ccsm)" height="194.0547" style="stroke: #A80036; stroke-width: 1.0;" width="10" x="2273" y="619.125"/><rect fill="#FFFFFF" filter="url(#fyf14uuv6ccsm)" height="28" style="stroke: #A80036; stroke-width: 1.0;" width="10" x="2278" y="657.4766"/><rect fill="#FFFFFF" filter="url(#fyf14uuv6ccsm)" height="28" style="stroke: #A80036; stroke-width: 1.0;" width="10" x="2278" y="757.8281"/><rect fill="#FFFFFF" filter="url(#fyf14uuv6ccsm)" height="194.0547" style="stroke: #A80036; stroke-width: 1.0;" width="10" x="2273" y="1049.2344"/><rect fill="#FFFFFF" filter="url(#fyf14uuv6ccsm)" height="28" style="stroke: #A80036; stroke-width: 1.0;" width="10" x="2278" y="1087.5859"/><rect fill="#FFFFFF" filter="url(#fyf14uuv6ccsm)" height="28" style="stroke: #A80036; stroke-width: 1.0;" width="10" x="2278" y="1187.9375"/><rect fill="#FFFFFF" filter="url(#fyf14uuv6ccsm)" height="194.0547" style="stroke: #A80036; stroke-width: 1.0;" width="10" x="2273" y="1479.3438"/><rect fill="#FFFFFF" filter="url(#fyf14uuv6ccsm)" height="28" style="stroke: #A80036; stroke-width: 1.0;" width="10" x="2278" y="1517.6953"/><rect fill="#FFFFFF" filter="url(#fyf14uuv6ccsm)" height="28" style="stroke: #A80036; stroke-width: 1.0;" width="10" x="2278" y="1618.0469"/><polygon fill="#A80036" points="574.5,67.6094,584.5,71.6094,574.5,75.6094,578.5,71.6094" style="stroke: #A80036; stroke-width: 1.0;"/><line style="stroke: #A80036; stroke-width: 1.0; stroke-dasharray: 2.0,2.0;" x1="206.5" x2="580.5" y1="71.6094" y2="71.6094"/><text fill="#000000" font-family="sans-serif" font-size="13" lengthAdjust="spacingAndGlyphs" textLength="67" x="213.5" y="67.1045">void &lt;init&gt;()</text><polygon fill="#A80036" points="217.5,111.9609,207.5,115.9609,217.5,119.9609,213.5,115.9609" style="stroke: #A80036; stroke-width: 1.0;"/><line style="stroke: #A80036; stroke-width: 1.0;" x1="211.5" x2="590.5" y1="115.9609" y2="115.9609"/><polygon fill="#A80036" points="1025.5,141.9609,1035.5,145.9609,1025.5,149.9609,1029.5,145.9609" style="stroke: #A80036; stroke-width: 1.0;"/><line style="stroke: #A80036; stroke-width: 1.0; stroke-dasharray: 2.0,2.0;" x1="206.5" x2="1031.5" y1="145.9609" y2="145.9609"/><text fill="#000000" font-family="sans-serif" font-size="13" lengthAdjust="spacingAndGlyphs" textLength="354" x="213.5" y="141.4561">void &lt;init&gt;(headfirst.designpatterns.observer.weather.Subject)</text><polygon fill="#A80036" points="607.5,172.3125,597.5,176.3125,607.5,180.3125,603.5,176.3125" style="stroke: #A80036; stroke-width: 1.0;"/><line style="stroke: #A80036; stroke-width: 1.0; stroke-dasharray: 2.0,2.0;" x1="601.5" x2="1036.5" y1="176.3125" y2="176.3125"/><text fill="#000000" font-family="sans-serif" font-size="13" lengthAdjust="spacingAndGlyphs" textLength="422" x="613.5" y="171.8076">void registerObserver(headfirst.designpatterns.observer.weather.Observer)</text><polygon fill="#A80036" points="1030.5,216.6641,1040.5,220.6641,1030.5,224.6641,1034.5,220.6641" style="stroke: #A80036; stroke-width: 1.0;"/><line style="stroke: #A80036; stroke-width: 1.0;" x1="591.5" x2="1036.5" y1="220.6641" y2="220.6641"/><polygon fill="#A80036" points="217.5,230.6641,207.5,234.6641,217.5,238.6641,213.5,234.6641" style="stroke: #A80036; stroke-width: 1.0;"/><line style="stroke: #A80036; stroke-width: 1.0;" x1="211.5" x2="1041.5" y1="234.6641" y2="234.6641"/><polygon fill="#A80036" points="1456,260.6641,1466,264.6641,1456,268.6641,1460,264.6641" style="stroke: #A80036; stroke-width: 1.0;"/><line style="stroke: #A80036; stroke-width: 1.0; stroke-dasharray: 2.0,2.0;" x1="206.5" x2="1462" y1="264.6641" y2="264.6641"/><text fill="#000000" font-family="sans-serif" font-size="13" lengthAdjust="spacingAndGlyphs" textLength="386" x="213.5" y="260.1592">void &lt;init&gt;(headfirst.designpatterns.observer.weather.WeatherData)</text><polygon fill="#A80036" points="607.5,291.0156,597.5,295.0156,607.5,299.0156,603.5,295.0156" style="stroke: #A80036; stroke-width: 1.0;"/><line style="stroke: #A80036; stroke-width: 1.0; stroke-dasharray: 2.0,2.0;" x1="601.5" x2="1467" y1="295.0156" y2="295.0156"/><text fill="#000000" font-family="sans-serif" font-size="13" lengthAdjust="spacingAndGlyphs" textLength="422" x="613.5" y="290.5107">void registerObserver(headfirst.designpatterns.observer.weather.Observer)</text><polygon fill="#A80036" points="1461,335.3672,1471,339.3672,1461,343.3672,1465,339.3672" style="stroke: #A80036; stroke-width: 1.0;"/><line style="stroke: #A80036; stroke-width: 1.0;" x1="591.5" x2="1467" y1="339.3672" y2="339.3672"/><polygon fill="#A80036" points="217.5,349.3672,207.5,353.3672,217.5,357.3672,213.5,353.3672" style="stroke: #A80036; stroke-width: 1.0;"/><line style="stroke: #A80036; stroke-width: 1.0;" x1="211.5" x2="1472" y1="353.3672" y2="353.3672"/><polygon fill="#A80036" points="1857,379.3672,1867,383.3672,1857,387.3672,1861,383.3672" style="stroke: #A80036; stroke-width: 1.0;"/><line style="stroke: #A80036; stroke-width: 1.0; stroke-dasharray: 2.0,2.0;" x1="206.5" x2="1863" y1="383.3672" y2="383.3672"/><text fill="#000000" font-family="sans-serif" font-size="13" lengthAdjust="spacingAndGlyphs" textLength="386" x="213.5" y="378.8623">void &lt;init&gt;(headfirst.designpatterns.observer.weather.WeatherData)</text><polygon fill="#A80036" points="607.5,409.7188,597.5,413.7188,607.5,417.7188,603.5,413.7188" style="stroke: #A80036; stroke-width: 1.0;"/><line style="stroke: #A80036; stroke-width: 1.0; stroke-dasharray: 2.0,2.0;" x1="601.5" x2="1868" y1="413.7188" y2="413.7188"/><text fill="#000000" font-family="sans-serif" font-size="13" lengthAdjust="spacingAndGlyphs" textLength="422" x="613.5" y="409.2139">void registerObserver(headfirst.designpatterns.observer.weather.Observer)</text><polygon fill="#A80036" points="1862,454.0703,1872,458.0703,1862,462.0703,1866,458.0703" style="stroke: #A80036; stroke-width: 1.0;"/><line style="stroke: #A80036; stroke-width: 1.0;" x1="591.5" x2="1868" y1="458.0703" y2="458.0703"/><polygon fill="#A80036" points="217.5,468.0703,207.5,472.0703,217.5,476.0703,213.5,472.0703" style="stroke: #A80036; stroke-width: 1.0;"/><line style="stroke: #A80036; stroke-width: 1.0;" x1="211.5" x2="1873" y1="472.0703" y2="472.0703"/><polygon fill="#A80036" points="574.5,498.0703,584.5,502.0703,574.5,506.0703,578.5,502.0703" style="stroke: #A80036; stroke-width: 1.0;"/><line style="stroke: #A80036; stroke-width: 1.0; stroke-dasharray: 2.0,2.0;" x1="206.5" x2="580.5" y1="502.0703" y2="502.0703"/><text fill="#000000" font-family="sans-serif" font-size="13" lengthAdjust="spacingAndGlyphs" textLength="218" x="213.5" y="497.5654">void setMeasurements(float,float,float)</text><line style="stroke: #A80036; stroke-width: 1.0; stroke-dasharray: 2.0,2.0;" x1="596.5" x2="643.5" y1="527.7734" y2="527.7734"/><line style="stroke: #A80036; stroke-width: 1.0; stroke-dasharray: 2.0,2.0;" x1="643.5" x2="643.5" y1="527.7734" y2="540.7734"/><line style="stroke: #A80036; stroke-width: 1.0; stroke-dasharray: 2.0,2.0;" x1="602.5" x2="643.5" y1="540.7734" y2="540.7734"/><polygon fill="#A80036" points="612.5,536.7734,602.5,540.7734,612.5,544.7734,608.5,540.7734" style="stroke: #A80036; stroke-width: 1.0;"/><text fill="#000000" font-family="sans-serif" font-size="13" lengthAdjust="spacingAndGlyphs" textLength="171" x="608.5" y="522.917">void measurementsChanged()</text><line style="stroke: #A80036; stroke-width: 1.0; stroke-dasharray: 2.0,2.0;" x1="601.5" x2="648.5" y1="571.125" y2="571.125"/><line style="stroke: #A80036; stroke-width: 1.0; stroke-dasharray: 2.0,2.0;" x1="648.5" x2="648.5" y1="571.125" y2="584.125"/><line style="stroke: #A80036; stroke-width: 1.0; stroke-dasharray: 2.0,2.0;" x1="607.5" x2="648.5" y1="584.125" y2="584.125"/><polygon fill="#A80036" points="617.5,580.125,607.5,584.125,617.5,588.125,613.5,584.125" style="stroke: #A80036; stroke-width: 1.0;"/><text fill="#000000" font-family="sans-serif" font-size="13" lengthAdjust="spacingAndGlyphs" textLength="123" x="613.5" y="566.2686">void notifyObservers()</text><polygon fill="#A80036" points="2261,615.125,2271,619.125,2261,623.125,2265,619.125" style="stroke: #A80036; stroke-width: 1.0;"/><line style="stroke: #A80036; stroke-width: 1.0; stroke-dasharray: 2.0,2.0;" x1="606.5" x2="2267" y1="619.125" y2="619.125"/><text fill="#000000" font-family="sans-serif" font-size="13" lengthAdjust="spacingAndGlyphs" textLength="153" x="613.5" y="614.6201">void update(float,float,float)</text><line style="stroke: #A80036; stroke-width: 1.0; stroke-dasharray: 2.0,2.0;" x1="2288" x2="2330" y1="649.8281" y2="649.8281"/><line style="stroke: #A80036; stroke-width: 1.0; stroke-dasharray: 2.0,2.0;" x1="2330" x2="2330" y1="649.8281" y2="662.8281"/><line style="stroke: #A80036; stroke-width: 1.0; stroke-dasharray: 2.0,2.0;" x1="2289" x2="2330" y1="662.8281" y2="662.8281"/><polygon fill="#A80036" points="2299,658.8281,2289,662.8281,2299,666.8281,2295,662.8281" style="stroke: #A80036; stroke-width: 1.0;"/><text fill="#000000" font-family="sans-serif" font-size="13" lengthAdjust="spacingAndGlyphs" textLength="196" x="2295" y="644.9717">float computeHeatIndex(float,float)</text><line style="stroke: #A80036; stroke-width: 1.0;" x1="2283" x2="2325" y1="706.8281" y2="706.8281"/><line style="stroke: #A80036; stroke-width: 1.0;" x1="2325" x2="2325" y1="706.8281" y2="719.8281"/><line style="stroke: #A80036; stroke-width: 1.0;" x1="2284" x2="2325" y1="719.8281" y2="719.8281"/><polygon fill="#A80036" points="2294,715.8281,2284,719.8281,2294,723.8281,2290,719.8281" style="stroke: #A80036; stroke-width: 1.0;"/><line style="stroke: #A80036; stroke-width: 1.0; stroke-dasharray: 2.0,2.0;" x1="2288" x2="2330" y1="750.1797" y2="750.1797"/><line style="stroke: #A80036; stroke-width: 1.0; stroke-dasharray: 2.0,2.0;" x1="2330" x2="2330" y1="750.1797" y2="763.1797"/><line style="stroke: #A80036; stroke-width: 1.0; stroke-dasharray: 2.0,2.0;" x1="2289" x2="2330" y1="763.1797" y2="763.1797"/><polygon fill="#A80036" points="2299,759.1797,2289,763.1797,2299,767.1797,2295,763.1797" style="stroke: #A80036; stroke-width: 1.0;"/><text fill="#000000" font-family="sans-serif" font-size="13" lengthAdjust="spacingAndGlyphs" textLength="75" x="2295" y="745.3232">void display()</text><line style="stroke: #A80036; stroke-width: 1.0;" x1="2283" x2="2325" y1="812.1797" y2="812.1797"/><line style="stroke: #A80036; stroke-width: 1.0;" x1="2325" x2="2325" y1="812.1797" y2="825.1797"/><line style="stroke: #A80036; stroke-width: 1.0;" x1="2278" x2="2325" y1="825.1797" y2="825.1797"/><polygon fill="#A80036" points="2288,821.1797,2278,825.1797,2288,829.1797,2284,825.1797" style="stroke: #A80036; stroke-width: 1.0;"/><polygon fill="#A80036" points="612.5,830.1797,602.5,834.1797,612.5,838.1797,608.5,834.1797" style="stroke: #A80036; stroke-width: 1.0;"/><line style="stroke: #A80036; stroke-width: 1.0;" x1="606.5" x2="2277" y1="834.1797" y2="834.1797"/><line style="stroke: #A80036; stroke-width: 1.0;" x1="601.5" x2="643.5" y1="853.1797" y2="853.1797"/><line style="stroke: #A80036; stroke-width: 1.0;" x1="643.5" x2="643.5" y1="853.1797" y2="866.1797"/><line style="stroke: #A80036; stroke-width: 1.0;" x1="596.5" x2="643.5" y1="866.1797" y2="866.1797"/><polygon fill="#A80036" points="606.5,862.1797,596.5,866.1797,606.5,870.1797,602.5,866.1797" style="stroke: #A80036; stroke-width: 1.0;"/><line style="stroke: #A80036; stroke-width: 1.0;" x1="596.5" x2="638.5" y1="880.1797" y2="880.1797"/><line style="stroke: #A80036; stroke-width: 1.0;" x1="638.5" x2="638.5" y1="880.1797" y2="893.1797"/><line style="stroke: #A80036; stroke-width: 1.0;" x1="591.5" x2="638.5" y1="893.1797" y2="893.1797"/><polygon fill="#A80036" points="601.5,889.1797,591.5,893.1797,601.5,897.1797,597.5,893.1797" style="stroke: #A80036; stroke-width: 1.0;"/><polygon fill="#A80036" points="217.5,898.1797,207.5,902.1797,217.5,906.1797,213.5,902.1797" style="stroke: #A80036; stroke-width: 1.0;"/><line style="stroke: #A80036; stroke-width: 1.0;" x1="211.5" x2="590.5" y1="902.1797" y2="902.1797"/><polygon fill="#A80036" points="574.5,928.1797,584.5,932.1797,574.5,936.1797,578.5,932.1797" style="stroke: #A80036; stroke-width: 1.0;"/><line style="stroke: #A80036; stroke-width: 1.0; stroke-dasharray: 2.0,2.0;" x1="206.5" x2="580.5" y1="932.1797" y2="932.1797"/><text fill="#000000" font-family="sans-serif" font-size="13" lengthAdjust="spacingAndGlyphs" textLength="218" x="213.5" y="927.6748">void setMeasurements(float,float,float)</text><line style="stroke: #A80036; stroke-width: 1.0; stroke-dasharray: 2.0,2.0;" x1="596.5" x2="643.5" y1="957.8828" y2="957.8828"/><line style="stroke: #A80036; stroke-width: 1.0; stroke-dasharray: 2.0,2.0;" x1="643.5" x2="643.5" y1="957.8828" y2="970.8828"/><line style="stroke: #A80036; stroke-width: 1.0; stroke-dasharray: 2.0,2.0;" x1="602.5" x2="643.5" y1="970.8828" y2="970.8828"/><polygon fill="#A80036" points="612.5,966.8828,602.5,970.8828,612.5,974.8828,608.5,970.8828" style="stroke: #A80036; stroke-width: 1.0;"/><text fill="#000000" font-family="sans-serif" font-size="13" lengthAdjust="spacingAndGlyphs" textLength="171" x="608.5" y="953.0264">void measurementsChanged()</text><line style="stroke: #A80036; stroke-width: 1.0; stroke-dasharray: 2.0,2.0;" x1="601.5" x2="648.5" y1="1001.2344" y2="1001.2344"/><line style="stroke: #A80036; stroke-width: 1.0; stroke-dasharray: 2.0,2.0;" x1="648.5" x2="648.5" y1="1001.2344" y2="1014.2344"/><line style="stroke: #A80036; stroke-width: 1.0; stroke-dasharray: 2.0,2.0;" x1="607.5" x2="648.5" y1="1014.2344" y2="1014.2344"/><polygon fill="#A80036" points="617.5,1010.2344,607.5,1014.2344,617.5,1018.2344,613.5,1014.2344" style="stroke: #A80036; stroke-width: 1.0;"/><text fill="#000000" font-family="sans-serif" font-size="13" lengthAdjust="spacingAndGlyphs" textLength="123" x="613.5" y="996.3779">void notifyObservers()</text><polygon fill="#A80036" points="2261,1045.2344,2271,1049.2344,2261,1053.2344,2265,1049.2344" style="stroke: #A80036; stroke-width: 1.0;"/><line style="stroke: #A80036; stroke-width: 1.0; stroke-dasharray: 2.0,2.0;" x1="606.5" x2="2267" y1="1049.2344" y2="1049.2344"/><text fill="#000000" font-family="sans-serif" font-size="13" lengthAdjust="spacingAndGlyphs" textLength="153" x="613.5" y="1044.7295">void update(float,float,float)</text><line style="stroke: #A80036; stroke-width: 1.0; stroke-dasharray: 2.0,2.0;" x1="2288" x2="2330" y1="1079.9375" y2="1079.9375"/><line style="stroke: #A80036; stroke-width: 1.0; stroke-dasharray: 2.0,2.0;" x1="2330" x2="2330" y1="1079.9375" y2="1092.9375"/><line style="stroke: #A80036; stroke-width: 1.0; stroke-dasharray: 2.0,2.0;" x1="2289" x2="2330" y1="1092.9375" y2="1092.9375"/><polygon fill="#A80036" points="2299,1088.9375,2289,1092.9375,2299,1096.9375,2295,1092.9375" style="stroke: #A80036; stroke-width: 1.0;"/><text fill="#000000" font-family="sans-serif" font-size="13" lengthAdjust="spacingAndGlyphs" textLength="196" x="2295" y="1075.0811">float computeHeatIndex(float,float)</text><line style="stroke: #A80036; stroke-width: 1.0;" x1="2283" x2="2325" y1="1136.9375" y2="1136.9375"/><line style="stroke: #A80036; stroke-width: 1.0;" x1="2325" x2="2325" y1="1136.9375" y2="1149.9375"/><line style="stroke: #A80036; stroke-width: 1.0;" x1="2284" x2="2325" y1="1149.9375" y2="1149.9375"/><polygon fill="#A80036" points="2294,1145.9375,2284,1149.9375,2294,1153.9375,2290,1149.9375" style="stroke: #A80036; stroke-width: 1.0;"/><line style="stroke: #A80036; stroke-width: 1.0; stroke-dasharray: 2.0,2.0;" x1="2288" x2="2330" y1="1180.2891" y2="1180.2891"/><line style="stroke: #A80036; stroke-width: 1.0; stroke-dasharray: 2.0,2.0;" x1="2330" x2="2330" y1="1180.2891" y2="1193.2891"/><line style="stroke: #A80036; stroke-width: 1.0; stroke-dasharray: 2.0,2.0;" x1="2289" x2="2330" y1="1193.2891" y2="1193.2891"/><polygon fill="#A80036" points="2299,1189.2891,2289,1193.2891,2299,1197.2891,2295,1193.2891" style="stroke: #A80036; stroke-width: 1.0;"/><text fill="#000000" font-family="sans-serif" font-size="13" lengthAdjust="spacingAndGlyphs" textLength="75" x="2295" y="1175.4326">void display()</text><line style="stroke: #A80036; stroke-width: 1.0;" x1="2283" x2="2325" y1="1242.2891" y2="1242.2891"/><line style="stroke: #A80036; stroke-width: 1.0;" x1="2325" x2="2325" y1="1242.2891" y2="1255.2891"/><line style="stroke: #A80036; stroke-width: 1.0;" x1="2278" x2="2325" y1="1255.2891" y2="1255.2891"/><polygon fill="#A80036" points="2288,1251.2891,2278,1255.2891,2288,1259.2891,2284,1255.2891" style="stroke: #A80036; stroke-width: 1.0;"/><polygon fill="#A80036" points="612.5,1260.2891,602.5,1264.2891,612.5,1268.2891,608.5,1264.2891" style="stroke: #A80036; stroke-width: 1.0;"/><line style="stroke: #A80036; stroke-width: 1.0;" x1="606.5" x2="2277" y1="1264.2891" y2="1264.2891"/><line style="stroke: #A80036; stroke-width: 1.0;" x1="601.5" x2="643.5" y1="1283.2891" y2="1283.2891"/><line style="stroke: #A80036; stroke-width: 1.0;" x1="643.5" x2="643.5" y1="1283.2891" y2="1296.2891"/><line style="stroke: #A80036; stroke-width: 1.0;" x1="596.5" x2="643.5" y1="1296.2891" y2="1296.2891"/><polygon fill="#A80036" points="606.5,1292.2891,596.5,1296.2891,606.5,1300.2891,602.5,1296.2891" style="stroke: #A80036; stroke-width: 1.0;"/><line style="stroke: #A80036; stroke-width: 1.0;" x1="596.5" x2="638.5" y1="1310.2891" y2="1310.2891"/><line style="stroke: #A80036; stroke-width: 1.0;" x1="638.5" x2="638.5" y1="1310.2891" y2="1323.2891"/><line style="stroke: #A80036; stroke-width: 1.0;" x1="591.5" x2="638.5" y1="1323.2891" y2="1323.2891"/><polygon fill="#A80036" points="601.5,1319.2891,591.5,1323.2891,601.5,1327.2891,597.5,1323.2891" style="stroke: #A80036; stroke-width: 1.0;"/><polygon fill="#A80036" points="217.5,1328.2891,207.5,1332.2891,217.5,1336.2891,213.5,1332.2891" style="stroke: #A80036; stroke-width: 1.0;"/><line style="stroke: #A80036; stroke-width: 1.0;" x1="211.5" x2="590.5" y1="1332.2891" y2="1332.2891"/><polygon fill="#A80036" points="574.5,1358.2891,584.5,1362.2891,574.5,1366.2891,578.5,1362.2891" style="stroke: #A80036; stroke-width: 1.0;"/><line style="stroke: #A80036; stroke-width: 1.0; stroke-dasharray: 2.0,2.0;" x1="206.5" x2="580.5" y1="1362.2891" y2="1362.2891"/><text fill="#000000" font-family="sans-serif" font-size="13" lengthAdjust="spacingAndGlyphs" textLength="218" x="213.5" y="1357.7842">void setMeasurements(float,float,float)</text><line style="stroke: #A80036; stroke-width: 1.0; stroke-dasharray: 2.0,2.0;" x1="596.5" x2="643.5" y1="1387.9922" y2="1387.9922"/><line style="stroke: #A80036; stroke-width: 1.0; stroke-dasharray: 2.0,2.0;" x1="643.5" x2="643.5" y1="1387.9922" y2="1400.9922"/><line style="stroke: #A80036; stroke-width: 1.0; stroke-dasharray: 2.0,2.0;" x1="602.5" x2="643.5" y1="1400.9922" y2="1400.9922"/><polygon fill="#A80036" points="612.5,1396.9922,602.5,1400.9922,612.5,1404.9922,608.5,1400.9922" style="stroke: #A80036; stroke-width: 1.0;"/><text fill="#000000" font-family="sans-serif" font-size="13" lengthAdjust="spacingAndGlyphs" textLength="171" x="608.5" y="1383.1357">void measurementsChanged()</text><line style="stroke: #A80036; stroke-width: 1.0; stroke-dasharray: 2.0,2.0;" x1="601.5" x2="648.5" y1="1431.3438" y2="1431.3438"/><line style="stroke: #A80036; stroke-width: 1.0; stroke-dasharray: 2.0,2.0;" x1="648.5" x2="648.5" y1="1431.3438" y2="1444.3438"/><line style="stroke: #A80036; stroke-width: 1.0; stroke-dasharray: 2.0,2.0;" x1="607.5" x2="648.5" y1="1444.3438" y2="1444.3438"/><polygon fill="#A80036" points="617.5,1440.3438,607.5,1444.3438,617.5,1448.3438,613.5,1444.3438" style="stroke: #A80036; stroke-width: 1.0;"/><text fill="#000000" font-family="sans-serif" font-size="13" lengthAdjust="spacingAndGlyphs" textLength="123" x="613.5" y="1426.4873">void notifyObservers()</text><polygon fill="#A80036" points="2261,1475.3438,2271,1479.3438,2261,1483.3438,2265,1479.3438" style="stroke: #A80036; stroke-width: 1.0;"/><line style="stroke: #A80036; stroke-width: 1.0; stroke-dasharray: 2.0,2.0;" x1="606.5" x2="2267" y1="1479.3438" y2="1479.3438"/><text fill="#000000" font-family="sans-serif" font-size="13" lengthAdjust="spacingAndGlyphs" textLength="153" x="613.5" y="1474.8389">void update(float,float,float)</text><line style="stroke: #A80036; stroke-width: 1.0; stroke-dasharray: 2.0,2.0;" x1="2288" x2="2330" y1="1510.0469" y2="1510.0469"/><line style="stroke: #A80036; stroke-width: 1.0; stroke-dasharray: 2.0,2.0;" x1="2330" x2="2330" y1="1510.0469" y2="1523.0469"/><line style="stroke: #A80036; stroke-width: 1.0; stroke-dasharray: 2.0,2.0;" x1="2289" x2="2330" y1="1523.0469" y2="1523.0469"/><polygon fill="#A80036" points="2299,1519.0469,2289,1523.0469,2299,1527.0469,2295,1523.0469" style="stroke: #A80036; stroke-width: 1.0;"/><text fill="#000000" font-family="sans-serif" font-size="13" lengthAdjust="spacingAndGlyphs" textLength="196" x="2295" y="1505.1904">float computeHeatIndex(float,float)</text><line style="stroke: #A80036; stroke-width: 1.0;" x1="2283" x2="2325" y1="1567.0469" y2="1567.0469"/><line style="stroke: #A80036; stroke-width: 1.0;" x1="2325" x2="2325" y1="1567.0469" y2="1580.0469"/><line style="stroke: #A80036; stroke-width: 1.0;" x1="2284" x2="2325" y1="1580.0469" y2="1580.0469"/><polygon fill="#A80036" points="2294,1576.0469,2284,1580.0469,2294,1584.0469,2290,1580.0469" style="stroke: #A80036; stroke-width: 1.0;"/><line style="stroke: #A80036; stroke-width: 1.0; stroke-dasharray: 2.0,2.0;" x1="2288" x2="2330" y1="1610.3984" y2="1610.3984"/><line style="stroke: #A80036; stroke-width: 1.0; stroke-dasharray: 2.0,2.0;" x1="2330" x2="2330" y1="1610.3984" y2="1623.3984"/><line style="stroke: #A80036; stroke-width: 1.0; stroke-dasharray: 2.0,2.0;" x1="2289" x2="2330" y1="1623.3984" y2="1623.3984"/><polygon fill="#A80036" points="2299,1619.3984,2289,1623.3984,2299,1627.3984,2295,1623.3984" style="stroke: #A80036; stroke-width: 1.0;"/><text fill="#000000" font-family="sans-serif" font-size="13" lengthAdjust="spacingAndGlyphs" textLength="75" x="2295" y="1605.542">void display()</text><line style="stroke: #A80036; stroke-width: 1.0;" x1="2283" x2="2325" y1="1672.3984" y2="1672.3984"/><line style="stroke: #A80036; stroke-width: 1.0;" x1="2325" x2="2325" y1="1672.3984" y2="1685.3984"/><line style="stroke: #A80036; stroke-width: 1.0;" x1="2278" x2="2325" y1="1685.3984" y2="1685.3984"/><polygon fill="#A80036" points="2288,1681.3984,2278,1685.3984,2288,1689.3984,2284,1685.3984" style="stroke: #A80036; stroke-width: 1.0;"/><polygon fill="#A80036" points="612.5,1690.3984,602.5,1694.3984,612.5,1698.3984,608.5,1694.3984" style="stroke: #A80036; stroke-width: 1.0;"/><line style="stroke: #A80036; stroke-width: 1.0;" x1="606.5" x2="2277" y1="1694.3984" y2="1694.3984"/><line style="stroke: #A80036; stroke-width: 1.0;" x1="601.5" x2="643.5" y1="1713.3984" y2="1713.3984"/><line style="stroke: #A80036; stroke-width: 1.0;" x1="643.5" x2="643.5" y1="1713.3984" y2="1726.3984"/><line style="stroke: #A80036; stroke-width: 1.0;" x1="596.5" x2="643.5" y1="1726.3984" y2="1726.3984"/><polygon fill="#A80036" points="606.5,1722.3984,596.5,1726.3984,606.5,1730.3984,602.5,1726.3984" style="stroke: #A80036; stroke-width: 1.0;"/><line style="stroke: #A80036; stroke-width: 1.0;" x1="596.5" x2="638.5" y1="1740.3984" y2="1740.3984"/><line style="stroke: #A80036; stroke-width: 1.0;" x1="638.5" x2="638.5" y1="1740.3984" y2="1753.3984"/><line style="stroke: #A80036; stroke-width: 1.0;" x1="591.5" x2="638.5" y1="1753.3984" y2="1753.3984"/><polygon fill="#A80036" points="601.5,1749.3984,591.5,1753.3984,601.5,1757.3984,597.5,1753.3984" style="stroke: #A80036; stroke-width: 1.0;"/><polygon fill="#A80036" points="212.5,1758.3984,202.5,1762.3984,212.5,1766.3984,208.5,1762.3984" style="stroke: #A80036; stroke-width: 1.0;"/><line style="stroke: #A80036; stroke-width: 1.0;" x1="206.5" x2="590.5" y1="1762.3984" y2="1762.3984"/></g></svg>