<?xml version="1.0" encoding="UTF-8" standalone="no"?><svg xmlns="http://www.w3.org/2000/svg" xmlns:xlink="http://www.w3.org/1999/xlink" contentScriptType="application/ecmascript" contentStyleType="text/css" height="1309px" preserveAspectRatio="none" style="width:2434px;height:1309px;" version="1.1" viewBox="0 0 2434 1309" width="2434px" zoomAndPan="magnify"><defs><filter height="300%" id="f1wqxczgda3a59" width="300%" x="-1" y="-1"><feGaussianBlur result="blurOut" stdDeviation="2.0"/><feColorMatrix in="blurOut" result="blurOut2" type="matrix" values="0 0 0 0 0 0 0 0 0 0 0 0 0 0 0 0 0 0 .4 0"/><feOffset dx="4.0" dy="4.0" in="blurOut2" result="blurOut3"/><feBlend in="SourceGraphic" in2="blurOut3" mode="normal"/></filter></defs><g><rect fill="#FFFFFF" filter="url(#f1wqxczgda3a59)" height="1200.6797" style="stroke: #A80036; stroke-width: 1.0;" width="10" x="196.5" y="49.6094"/><rect fill="#FFFFFF" filter="url(#f1wqxczgda3a59)" height="30" style="stroke: #A80036; stroke-width: 1.0;" width="10" x="586.5" y="71.6094"/><rect fill="#FFFFFF" filter="url(#f1wqxczgda3a59)" height="30" style="stroke: #A80036; stroke-width: 1.0;" width="10" x="586.5" y="176.3125"/><rect fill="#FFFFFF" filter="url(#f1wqxczgda3a59)" height="30" style="stroke: #A80036; stroke-width: 1.0;" width="10" x="586.5" y="295.0156"/><rect fill="#FFFFFF" filter="url(#f1wqxczgda3a59)" height="30" style="stroke: #A80036; stroke-width: 1.0;" width="10" x="586.5" y="413.7188"/><rect fill="#FFFFFF" filter="url(#f1wqxczgda3a59)" height="208.4063" style="stroke: #A80036; stroke-width: 1.0;" width="10" x="586.5" y="502.0703"/><rect fill="#FFFFFF" filter="url(#f1wqxczgda3a59)" height="143.0547" style="stroke: #A80036; stroke-width: 1.0;" width="10" x="591.5" y="540.4219"/><rect fill="#FFFFFF" filter="url(#f1wqxczgda3a59)" height="79.7031" style="stroke: #A80036; stroke-width: 1.0;" width="10" x="596.5" y="583.7734"/><rect fill="#FFFFFF" filter="url(#f1wqxczgda3a59)" height="208.4063" style="stroke: #A80036; stroke-width: 1.0;" width="10" x="586.5" y="761.4766"/><rect fill="#FFFFFF" filter="url(#f1wqxczgda3a59)" height="143.0547" style="stroke: #A80036; stroke-width: 1.0;" width="10" x="591.5" y="799.8281"/><rect fill="#FFFFFF" filter="url(#f1wqxczgda3a59)" height="79.7031" style="stroke: #A80036; stroke-width: 1.0;" width="10" x="596.5" y="843.1797"/><rect fill="#FFFFFF" filter="url(#f1wqxczgda3a59)" height="208.4063" style="stroke: #A80036; stroke-width: 1.0;" width="10" x="586.5" y="1020.8828"/><rect fill="#FFFFFF" filter="url(#f1wqxczgda3a59)" height="143.0547" style="stroke: #A80036; stroke-width: 1.0;" width="10" x="591.5" y="1059.2344"/><rect fill="#FFFFFF" filter="url(#f1wqxczgda3a59)" height="79.7031" style="stroke: #A80036; stroke-width: 1.0;" width="10" x="596.5" y="1102.5859"/><rect fill="#FFFFFF" filter="url(#f1wqxczgda3a59)" height="74.7031" style="stroke: #A80036; stroke-width: 1.0;" width="10" x="1037.5" y="145.9609"/><rect fill="#FFFFFF" filter="url(#f1wqxczgda3a59)" height="74.7031" style="stroke: #A80036; stroke-width: 1.0;" width="10" x="1468" y="264.6641"/><rect fill="#FFFFFF" filter="url(#f1wqxczgda3a59)" height="74.7031" style="stroke: #A80036; stroke-width: 1.0;" width="10" x="1869" y="383.3672"/><rect fill="#FFFFFF" filter="url(#f1wqxczgda3a59)" height="30" style="stroke: #A80036; stroke-width: 1.0;" width="10" x="2248.5" y="619.125"/><rect fill="#FFFFFF" filter="url(#f1wqxczgda3a59)" height="30" style="stroke: #A80036; stroke-width: 1.0;" width="10" x="2248.5" y="878.5313"/><rect fill="#FFFFFF" filter="url(#f1wqxczgda3a59)" height="30" style="stroke: #A80036; stroke-width: 1.0;" width="10" x="2248.5" y="1137.9375"/><line style="stroke: #A80036; stroke-width: 1.0; stroke-dasharray: 5.0,5.0;" x1="201" x2="201" y1="39.6094" y2="1268.2891"/><line style="stroke: #A80036; stroke-width: 1.0; stroke-dasharray: 5.0,5.0;" x1="591" x2="591" y1="39.6094" y2="1268.2891"/><line style="stroke: #A80036; stroke-width: 1.0; stroke-dasharray: 5.0,5.0;" x1="1042.5" x2="1042.5" y1="39.6094" y2="1268.2891"/><line style="stroke: #A80036; stroke-width: 1.0; stroke-dasharray: 5.0,5.0;" x1="1472.5" x2="1472.5" y1="39.6094" y2="1268.2891"/><line style="stroke: #A80036; stroke-width: 1.0; stroke-dasharray: 5.0,5.0;" x1="1873.5" x2="1873.5" y1="39.6094" y2="1268.2891"/><line style="stroke: #A80036; stroke-width: 1.0; stroke-dasharray: 5.0,5.0;" x1="2253.5" x2="2253.5" y1="39.6094" y2="1268.2891"/><rect fill="#FEFECE" filter="url(#f1wqxczgda3a59)" height="31.6094" style="stroke: #A80036; stroke-width: 1.5;" width="383" x="8" y="3"/><text fill="#000000" font-family="sans-serif" font-size="14" lengthAdjust="spacingAndGlyphs" textLength="369" x="15" y="24.5332">headfirst.designpatterns.observer.weather.WeatherStation</text><rect fill="#FEFECE" filter="url(#f1wqxczgda3a59)" height="31.6094" style="stroke: #A80036; stroke-width: 1.5;" width="383" x="8" y="1267.2891"/><text fill="#000000" font-family="sans-serif" font-size="14" lengthAdjust="spacingAndGlyphs" textLength="369" x="15" y="1288.8223">headfirst.designpatterns.observer.weather.WeatherStation</text><rect fill="#FEFECE" filter="url(#f1wqxczgda3a59)" height="31.6094" style="stroke: #A80036; stroke-width: 1.5;" width="369" x="405" y="3"/><text fill="#000000" font-family="sans-serif" font-size="14" lengthAdjust="spacingAndGlyphs" textLength="355" x="412" y="24.5332">headfirst.designpatterns.observer.weather.WeatherData</text><rect fill="#FEFECE" filter="url(#f1wqxczgda3a59)" height="31.6094" style="stroke: #A80036; stroke-width: 1.5;" width="369" x="405" y="1267.2891"/><text fill="#000000" font-family="sans-serif" font-size="14" lengthAdjust="spacingAndGlyphs" textLength="355" x="412" y="1288.8223">headfirst.designpatterns.observer.weather.WeatherData</text><rect fill="#FEFECE" filter="url(#f1wqxczgda3a59)" height="31.6094" style="stroke: #A80036; stroke-width: 1.5;" width="446" x="817.5" y="3"/><text fill="#000000" font-family="sans-serif" font-size="14" lengthAdjust="spacingAndGlyphs" textLength="432" x="824.5" y="24.5332">headfirst.designpatterns.observer.weather.CurrentConditionsDisplay</text><rect fill="#FEFECE" filter="url(#f1wqxczgda3a59)" height="31.6094" style="stroke: #A80036; stroke-width: 1.5;" width="446" x="817.5" y="1267.2891"/><text fill="#000000" font-family="sans-serif" font-size="14" lengthAdjust="spacingAndGlyphs" textLength="432" x="824.5" y="1288.8223">headfirst.designpatterns.observer.weather.CurrentConditionsDisplay</text><rect fill="#FEFECE" filter="url(#f1wqxczgda3a59)" height="31.6094" style="stroke: #A80036; stroke-width: 1.5;" width="387" x="1277.5" y="3"/><text fill="#000000" font-family="sans-serif" font-size="14" lengthAdjust="spacingAndGlyphs" textLength="373" x="1284.5" y="24.5332">headfirst.designpatterns.observer.weather.StatisticsDisplay</text><rect fill="#FEFECE" filter="url(#f1wqxczgda3a59)" height="31.6094" style="stroke: #A80036; stroke-width: 1.5;" width="387" x="1277.5" y="1267.2891"/><text fill="#000000" font-family="sans-serif" font-size="14" lengthAdjust="spacingAndGlyphs" textLength="373" x="1284.5" y="1288.8223">headfirst.designpatterns.observer.weather.StatisticsDisplay</text><rect fill="#FEFECE" filter="url(#f1wqxczgda3a59)" height="31.6094" style="stroke: #A80036; stroke-width: 1.5;" width="387" x="1678.5" y="3"/><text fill="#000000" font-family="sans-serif" font-size="14" lengthAdjust="spacingAndGlyphs" textLength="373" x="1685.5" y="24.5332">headfirst.designpatterns.observer.weather.ForecastDisplay</text><rect fill="#FEFECE" filter="url(#f1wqxczgda3a59)" height="31.6094" style="stroke: #A80036; stroke-width: 1.5;" width="387" x="1678.5" y="1267.2891"/><text fill="#000000" font-family="sans-serif" font-size="14" lengthAdjust="spacingAndGlyphs" textLength="373" x="1685.5" y="1288.8223">headfirst.designpatterns.observer.weather.ForecastDisplay</text><rect fill="#FEFECE" filter="url(#f1wqxczgda3a59)" height="31.6094" style="stroke: #A80036; stroke-width: 1.5;" width="344" x="2079.5" y="3"/><text fill="#000000" font-family="sans-serif" font-size="14" lengthAdjust="spacingAndGlyphs" textLength="330" x="2086.5" y="24.5332">headfirst.designpatterns.observer.weather.Observer</text><rect fill="#FEFECE" filter="url(#f1wqxczgda3a59)" height="31.6094" style="stroke: #A80036; stroke-width: 1.5;" width="344" x="2079.5" y="1267.2891"/><text fill="#000000" font-family="sans-serif" font-size="14" lengthAdjust="spacingAndGlyphs" textLength="330" x="2086.5" y="1288.8223">headfirst.designpatterns.observer.weather.Observer</text><rect fill="#FFFFFF" filter="url(#f1wqxczgda3a59)" height="1200.6797" style="stroke: #A80036; stroke-width: 1.0;" width="10" x="196.5" y="49.6094"/><rect fill="#FFFFFF" filter="url(#f1wqxczgda3a59)" height="30" style="stroke: #A80036; stroke-width: 1.0;" width="10" x="586.5" y="71.6094"/><rect fill="#FFFFFF" filter="url(#f1wqxczgda3a59)" height="30" style="stroke: #A80036; stroke-width: 1.0;" width="10" x="586.5" y="176.3125"/><rect fill="#FFFFFF" filter="url(#f1wqxczgda3a59)" height="30" style="stroke: #A80036; stroke-width: 1.0;" width="10" x="586.5" y="295.0156"/><rect fill="#FFFFFF" filter="url(#f1wqxczgda3a59)" height="30" style="stroke: #A80036; stroke-width: 1.0;" width="10" x="586.5" y="413.7188"/><rect fill="#FFFFFF" filter="url(#f1wqxczgda3a59)" height="208.4063" style="stroke: #A80036; stroke-width: 1.0;" width="10" x="586.5" y="502.0703"/><rect fill="#FFFFFF" filter="url(#f1wqxczgda3a59)" height="143.0547" style="stroke: #A80036; stroke-width: 1.0;" width="10" x="591.5" y="540.4219"/><rect fill="#FFFFFF" filter="url(#f1wqxczgda3a59)" height="79.7031" style="stroke: #A80036; stroke-width: 1.0;" width="10" x="596.5" y="583.7734"/><rect fill="#FFFFFF" filter="url(#f1wqxczgda3a59)" height="208.4063" style="stroke: #A80036; stroke-width: 1.0;" width="10" x="586.5" y="761.4766"/><rect fill="#FFFFFF" filter="url(#f1wqxczgda3a59)" height="143.0547" style="stroke: #A80036; stroke-width: 1.0;" width="10" x="591.5" y="799.8281"/><rect fill="#FFFFFF" filter="url(#f1wqxczgda3a59)" height="79.7031" style="stroke: #A80036; stroke-width: 1.0;" width="10" x="596.5" y="843.1797"/><rect fill="#FFFFFF" filter="url(#f1wqxczgda3a59)" height="208.4063" style="stroke: #A80036; stroke-width: 1.0;" width="10" x="586.5" y="1020.8828"/><rect fill="#FFFFFF" filter="url(#f1wqxczgda3a59)" height="143.0547" style="stroke: #A80036; stroke-width: 1.0;" width="10" x="591.5" y="1059.2344"/><rect fill="#FFFFFF" filter="url(#f1wqxczgda3a59)" height="79.7031" style="stroke: #A80036; stroke-width: 1.0;" width="10" x="596.5" y="1102.5859"/><rect fill="#FFFFFF" filter="url(#f1wqxczgda3a59)" height="74.7031" style="stroke: #A80036; stroke-width: 1.0;" width="10" x="1037.5" y="145.9609"/><rect fill="#FFFFFF" filter="url(#f1wqxczgda3a59)" height="74.7031" style="stroke: #A80036; stroke-width: 1.0;" width="10" x="1468" y="264.6641"/><rect fill="#FFFFFF" filter="url(#f1wqxczgda3a59)" height="74.7031" style="stroke: #A80036; stroke-width: 1.0;" width="10" x="1869" y="383.3672"/><rect fill="#FFFFFF" filter="url(#f1wqxczgda3a59)" height="30" style="stroke: #A80036; stroke-width: 1.0;" width="10" x="2248.5" y="619.125"/><rect fill="#FFFFFF" filter="url(#f1wqxczgda3a59)" height="30" style="stroke: #A80036; stroke-width: 1.0;" width="10" x="2248.5" y="878.5313"/><rect fill="#FFFFFF" filter="url(#f1wqxczgda3a59)" height="30" style="stroke: #A80036; stroke-width: 1.0;" width="10" x="2248.5" y="1137.9375"/><polygon fill="#A80036" points="574.5,67.6094,584.5,71.6094,574.5,75.6094,578.5,71.6094" style="stroke: #A80036; stroke-width: 1.0;"/><line style="stroke: #A80036; stroke-width: 1.0;" x1="206.5" x2="580.5" y1="71.6094" y2="71.6094"/><text fill="#000000" font-family="sans-serif" font-size="13" lengthAdjust="spacingAndGlyphs" textLength="67" x="213.5" y="67.1045">void &lt;init&gt;()</text><polygon fill="#A80036" points="217.5,111.9609,207.5,115.9609,217.5,119.9609,213.5,115.9609" style="stroke: #A80036; stroke-width: 1.0;"/><line style="stroke: #A80036; stroke-width: 1.0; stroke-dasharray: 2.0,2.0;" x1="211.5" x2="590.5" y1="115.9609" y2="115.9609"/><polygon fill="#A80036" points="1025.5,141.9609,1035.5,145.9609,1025.5,149.9609,1029.5,145.9609" style="stroke: #A80036; stroke-width: 1.0;"/><line style="stroke: #A80036; stroke-width: 1.0;" x1="206.5" x2="1031.5" y1="145.9609" y2="145.9609"/><text fill="#000000" font-family="sans-serif" font-size="13" lengthAdjust="spacingAndGlyphs" textLength="354" x="213.5" y="141.4561">void &lt;init&gt;(headfirst.designpatterns.observer.weather.Subject)</text><polygon fill="#A80036" points="607.5,172.3125,597.5,176.3125,607.5,180.3125,603.5,176.3125" style="stroke: #A80036; stroke-width: 1.0;"/><line style="stroke: #A80036; stroke-width: 1.0;" x1="601.5" x2="1036.5" y1="176.3125" y2="176.3125"/><text fill="#000000" font-family="sans-serif" font-size="13" lengthAdjust="spacingAndGlyphs" textLength="422" x="613.5" y="171.8076">void registerObserver(headfirst.designpatterns.observer.weather.Observer)</text><polygon fill="#A80036" points="1030.5,216.6641,1040.5,220.6641,1030.5,224.6641,1034.5,220.6641" style="stroke: #A80036; stroke-width: 1.0;"/><line style="stroke: #A80036; stroke-width: 1.0; stroke-dasharray: 2.0,2.0;" x1="591.5" x2="1036.5" y1="220.6641" y2="220.6641"/><polygon fill="#A80036" points="217.5,230.6641,207.5,234.6641,217.5,238.6641,213.5,234.6641" style="stroke: #A80036; stroke-width: 1.0;"/><line style="stroke: #A80036; stroke-width: 1.0; stroke-dasharray: 2.0,2.0;" x1="211.5" x2="1041.5" y1="234.6641" y2="234.6641"/><polygon fill="#A80036" points="1456,260.6641,1466,264.6641,1456,268.6641,1460,264.6641" style="stroke: #A80036; stroke-width: 1.0;"/><line style="stroke: #A80036; stroke-width: 1.0;" x1="206.5" x2="1462" y1="264.6641" y2="264.6641"/><text fill="#000000" font-family="sans-serif" font-size="13" lengthAdjust="spacingAndGlyphs" textLength="386" x="213.5" y="260.1592">void &lt;init&gt;(headfirst.designpatterns.observer.weather.WeatherData)</text><polygon fill="#A80036" points="607.5,291.0156,597.5,295.0156,607.5,299.0156,603.5,295.0156" style="stroke: #A80036; stroke-width: 1.0;"/><line style="stroke: #A80036; stroke-width: 1.0;" x1="601.5" x2="1467" y1="295.0156" y2="295.0156"/><text fill="#000000" font-family="sans-serif" font-size="13" lengthAdjust="spacingAndGlyphs" textLength="422" x="613.5" y="290.5107">void registerObserver(headfirst.designpatterns.observer.weather.Observer)</text><polygon fill="#A80036" points="1461,335.3672,1471,339.3672,1461,343.3672,1465,339.3672" style="stroke: #A80036; stroke-width: 1.0;"/><line style="stroke: #A80036; stroke-width: 1.0; stroke-dasharray: 2.0,2.0;" x1="591.5" x2="1467" y1="339.3672" y2="339.3672"/><polygon fill="#A80036" points="217.5,349.3672,207.5,353.3672,217.5,357.3672,213.5,353.3672" style="stroke: #A80036; stroke-width: 1.0;"/><line style="stroke: #A80036; stroke-width: 1.0; stroke-dasharray: 2.0,2.0;" x1="211.5" x2="1472" y1="353.3672" y2="353.3672"/><polygon fill="#A80036" points="1857,379.3672,1867,383.3672,1857,387.3672,1861,383.3672" style="stroke: #A80036; stroke-width: 1.0;"/><line style="stroke: #A80036; stroke-width: 1.0;" x1="206.5" x2="1863" y1="383.3672" y2="383.3672"/><text fill="#000000" font-family="sans-serif" font-size="13" lengthAdjust="spacingAndGlyphs" textLength="386" x="213.5" y="378.8623">void &lt;init&gt;(headfirst.designpatterns.observer.weather.WeatherData)</text><polygon fill="#A80036" points="607.5,409.7188,597.5,413.7188,607.5,417.7188,603.5,413.7188" style="stroke: #A80036; stroke-width: 1.0;"/><line style="stroke: #A80036; stroke-width: 1.0;" x1="601.5" x2="1868" y1="413.7188" y2="413.7188"/><text fill="#000000" font-family="sans-serif" font-size="13" lengthAdjust="spacingAndGlyphs" textLength="422" x="613.5" y="409.2139">void registerObserver(headfirst.designpatterns.observer.weather.Observer)</text><polygon fill="#A80036" points="1862,454.0703,1872,458.0703,1862,462.0703,1866,458.0703" style="stroke: #A80036; stroke-width: 1.0;"/><line style="stroke: #A80036; stroke-width: 1.0; stroke-dasharray: 2.0,2.0;" x1="591.5" x2="1868" y1="458.0703" y2="458.0703"/><polygon fill="#A80036" points="217.5,468.0703,207.5,472.0703,217.5,476.0703,213.5,472.0703" style="stroke: #A80036; stroke-width: 1.0;"/><line style="stroke: #A80036; stroke-width: 1.0; stroke-dasharray: 2.0,2.0;" x1="211.5" x2="1873" y1="472.0703" y2="472.0703"/><polygon fill="#A80036" points="574.5,498.0703,584.5,502.0703,574.5,506.0703,578.5,502.0703" style="stroke: #A80036; stroke-width: 1.0;"/><line style="stroke: #A80036; stroke-width: 1.0;" x1="206.5" x2="580.5" y1="502.0703" y2="502.0703"/><text fill="#000000" font-family="sans-serif" font-size="13" lengthAdjust="spacingAndGlyphs" textLength="218" x="213.5" y="497.5654">void setMeasurements(float,float,float)</text><line style="stroke: #A80036; stroke-width: 1.0;" x1="596.5" x2="643.5" y1="527.7734" y2="527.7734"/><line style="stroke: #A80036; stroke-width: 1.0;" x1="643.5" x2="643.5" y1="527.7734" y2="540.7734"/><line style="stroke: #A80036; stroke-width: 1.0;" x1="602.5" x2="643.5" y1="540.7734" y2="540.7734"/><polygon fill="#A80036" points="612.5,536.7734,602.5,540.7734,612.5,544.7734,608.5,540.7734" style="stroke: #A80036; stroke-width: 1.0;"/><text fill="#000000" font-family="sans-serif" font-size="13" lengthAdjust="spacingAndGlyphs" textLength="171" x="608.5" y="522.917">void measurementsChanged()</text><line style="stroke: #A80036; stroke-width: 1.0;" x1="601.5" x2="648.5" y1="571.125" y2="571.125"/><line style="stroke: #A80036; stroke-width: 1.0;" x1="648.5" x2="648.5" y1="571.125" y2="584.125"/><line style="stroke: #A80036; stroke-width: 1.0;" x1="607.5" x2="648.5" y1="584.125" y2="584.125"/><polygon fill="#A80036" points="617.5,580.125,607.5,584.125,617.5,588.125,613.5,584.125" style="stroke: #A80036; stroke-width: 1.0;"/><text fill="#000000" font-family="sans-serif" font-size="13" lengthAdjust="spacingAndGlyphs" textLength="123" x="613.5" y="566.2686">void notifyObservers()</text><polygon fill="#A80036" points="2236.5,615.125,2246.5,619.125,2236.5,623.125,2240.5,619.125" style="stroke: #A80036; stroke-width: 1.0;"/><line style="stroke: #A80036; stroke-width: 1.0;" x1="606.5" x2="2242.5" y1="619.125" y2="619.125"/><text fill="#000000" font-family="sans-serif" font-size="13" lengthAdjust="spacingAndGlyphs" textLength="153" x="613.5" y="614.6201">void update(float,float,float)</text><polygon fill="#A80036" points="612.5,659.4766,602.5,663.4766,612.5,667.4766,608.5,663.4766" style="stroke: #A80036; stroke-width: 1.0;"/><line style="stroke: #A80036; stroke-width: 1.0; stroke-dasharray: 2.0,2.0;" x1="606.5" x2="2252.5" y1="663.4766" y2="663.4766"/><line style="stroke: #A80036; stroke-width: 1.0; stroke-dasharray: 2.0,2.0;" x1="601.5" x2="643.5" y1="682.4766" y2="682.4766"/><line style="stroke: #A80036; stroke-width: 1.0; stroke-dasharray: 2.0,2.0;" x1="643.5" x2="643.5" y1="682.4766" y2="695.4766"/><line style="stroke: #A80036; stroke-width: 1.0; stroke-dasharray: 2.0,2.0;" x1="596.5" x2="643.5" y1="695.4766" y2="695.4766"/><polygon fill="#A80036" points="606.5,691.4766,596.5,695.4766,606.5,699.4766,602.5,695.4766" style="stroke: #A80036; stroke-width: 1.0;"/><line style="stroke: #A80036; stroke-width: 1.0; stroke-dasharray: 2.0,2.0;" x1="596.5" x2="638.5" y1="709.4766" y2="709.4766"/><line style="stroke: #A80036; stroke-width: 1.0; stroke-dasharray: 2.0,2.0;" x1="638.5" x2="638.5" y1="709.4766" y2="722.4766"/><line style="stroke: #A80036; stroke-width: 1.0; stroke-dasharray: 2.0,2.0;" x1="591.5" x2="638.5" y1="722.4766" y2="722.4766"/><polygon fill="#A80036" points="601.5,718.4766,591.5,722.4766,601.5,726.4766,597.5,722.4766" style="stroke: #A80036; stroke-width: 1.0;"/><polygon fill="#A80036" points="217.5,727.4766,207.5,731.4766,217.5,735.4766,213.5,731.4766" style="stroke: #A80036; stroke-width: 1.0;"/><line style="stroke: #A80036; stroke-width: 1.0; stroke-dasharray: 2.0,2.0;" x1="211.5" x2="590.5" y1="731.4766" y2="731.4766"/><polygon fill="#A80036" points="574.5,757.4766,584.5,761.4766,574.5,765.4766,578.5,761.4766" style="stroke: #A80036; stroke-width: 1.0;"/><line style="stroke: #A80036; stroke-width: 1.0;" x1="206.5" x2="580.5" y1="761.4766" y2="761.4766"/><text fill="#000000" font-family="sans-serif" font-size="13" lengthAdjust="spacingAndGlyphs" textLength="218" x="213.5" y="756.9717">void setMeasurements(float,float,float)</text><line style="stroke: #A80036; stroke-width: 1.0;" x1="596.5" x2="643.5" y1="787.1797" y2="787.1797"/><line style="stroke: #A80036; stroke-width: 1.0;" x1="643.5" x2="643.5" y1="787.1797" y2="800.1797"/><line style="stroke: #A80036; stroke-width: 1.0;" x1="602.5" x2="643.5" y1="800.1797" y2="800.1797"/><polygon fill="#A80036" points="612.5,796.1797,602.5,800.1797,612.5,804.1797,608.5,800.1797" style="stroke: #A80036; stroke-width: 1.0;"/><text fill="#000000" font-family="sans-serif" font-size="13" lengthAdjust="spacingAndGlyphs" textLength="171" x="608.5" y="782.3232">void measurementsChanged()</text><line style="stroke: #A80036; stroke-width: 1.0;" x1="601.5" x2="648.5" y1="830.5313" y2="830.5313"/><line style="stroke: #A80036; stroke-width: 1.0;" x1="648.5" x2="648.5" y1="830.5313" y2="843.5313"/><line style="stroke: #A80036; stroke-width: 1.0;" x1="607.5" x2="648.5" y1="843.5313" y2="843.5313"/><polygon fill="#A80036" points="617.5,839.5313,607.5,843.5313,617.5,847.5313,613.5,843.5313" style="stroke: #A80036; stroke-width: 1.0;"/><text fill="#000000" font-family="sans-serif" font-size="13" lengthAdjust="spacingAndGlyphs" textLength="123" x="613.5" y="825.6748">void notifyObservers()</text><polygon fill="#A80036" points="2236.5,874.5313,2246.5,878.5313,2236.5,882.5313,2240.5,878.5313" style="stroke: #A80036; stroke-width: 1.0;"/><line style="stroke: #A80036; stroke-width: 1.0;" x1="606.5" x2="2242.5" y1="878.5313" y2="878.5313"/><text fill="#000000" font-family="sans-serif" font-size="13" lengthAdjust="spacingAndGlyphs" textLength="153" x="613.5" y="874.0264">void update(float,float,float)</text><polygon fill="#A80036" points="612.5,918.8828,602.5,922.8828,612.5,926.8828,608.5,922.8828" style="stroke: #A80036; stroke-width: 1.0;"/><line style="stroke: #A80036; stroke-width: 1.0; stroke-dasharray: 2.0,2.0;" x1="606.5" x2="2252.5" y1="922.8828" y2="922.8828"/><line style="stroke: #A80036; stroke-width: 1.0; stroke-dasharray: 2.0,2.0;" x1="601.5" x2="643.5" y1="941.8828" y2="941.8828"/><line style="stroke: #A80036; stroke-width: 1.0; stroke-dasharray: 2.0,2.0;" x1="643.5" x2="643.5" y1="941.8828" y2="954.8828"/><line style="stroke: #A80036; stroke-width: 1.0; stroke-dasharray: 2.0,2.0;" x1="596.5" x2="643.5" y1="954.8828" y2="954.8828"/><polygon fill="#A80036" points="606.5,950.8828,596.5,954.8828,606.5,958.8828,602.5,954.8828" style="stroke: #A80036; stroke-width: 1.0;"/><line style="stroke: #A80036; stroke-width: 1.0; stroke-dasharray: 2.0,2.0;" x1="596.5" x2="638.5" y1="968.8828" y2="968.8828"/><line style="stroke: #A80036; stroke-width: 1.0; stroke-dasharray: 2.0,2.0;" x1="638.5" x2="638.5" y1="968.8828" y2="981.8828"/><line style="stroke: #A80036; stroke-width: 1.0; stroke-dasharray: 2.0,2.0;" x1="591.5" x2="638.5" y1="981.8828" y2="981.8828"/><polygon fill="#A80036" points="601.5,977.8828,591.5,981.8828,601.5,985.8828,597.5,981.8828" style="stroke: #A80036; stroke-width: 1.0;"/><polygon fill="#A80036" points="217.5,986.8828,207.5,990.8828,217.5,994.8828,213.5,990.8828" style="stroke: #A80036; stroke-width: 1.0;"/><line style="stroke: #A80036; stroke-width: 1.0; stroke-dasharray: 2.0,2.0;" x1="211.5" x2="590.5" y1="990.8828" y2="990.8828"/><polygon fill="#A80036" points="574.5,1016.8828,584.5,1020.8828,574.5,1024.8828,578.5,1020.8828" style="stroke: #A80036; stroke-width: 1.0;"/><line style="stroke: #A80036; stroke-width: 1.0;" x1="206.5" x2="580.5" y1="1020.8828" y2="1020.8828"/><text fill="#000000" font-family="sans-serif" font-size="13" lengthAdjust="spacingAndGlyphs" textLength="218" x="213.5" y="1016.3779">void setMeasurements(float,float,float)</text><line style="stroke: #A80036; stroke-width: 1.0;" x1="596.5" x2="643.5" y1="1046.5859" y2="1046.5859"/><line style="stroke: #A80036; stroke-width: 1.0;" x1="643.5" x2="643.5" y1="1046.5859" y2="1059.5859"/><line style="stroke: #A80036; stroke-width: 1.0;" x1="602.5" x2="643.5" y1="1059.5859" y2="1059.5859"/><polygon fill="#A80036" points="612.5,1055.5859,602.5,1059.5859,612.5,1063.5859,608.5,1059.5859" style="stroke: #A80036; stroke-width: 1.0;"/><text fill="#000000" font-family="sans-serif" font-size="13" lengthAdjust="spacingAndGlyphs" textLength="171" x="608.5" y="1041.7295">void measurementsChanged()</text><line style="stroke: #A80036; stroke-width: 1.0;" x1="601.5" x2="648.5" y1="1089.9375" y2="1089.9375"/><line style="stroke: #A80036; stroke-width: 1.0;" x1="648.5" x2="648.5" y1="1089.9375" y2="1102.9375"/><line style="stroke: #A80036; stroke-width: 1.0;" x1="607.5" x2="648.5" y1="1102.9375" y2="1102.9375"/><polygon fill="#A80036" points="617.5,1098.9375,607.5,1102.9375,617.5,1106.9375,613.5,1102.9375" style="stroke: #A80036; stroke-width: 1.0;"/><text fill="#000000" font-family="sans-serif" font-size="13" lengthAdjust="spacingAndGlyphs" textLength="123" x="613.5" y="1085.0811">void notifyObservers()</text><polygon fill="#A80036" points="2236.5,1133.9375,2246.5,1137.9375,2236.5,1141.9375,2240.5,1137.9375" style="stroke: #A80036; stroke-width: 1.0;"/><line style="stroke: #A80036; stroke-width: 1.0;" x1="606.5" x2="2242.5" y1="1137.9375" y2="1137.9375"/><text fill="#000000" font-family="sans-serif" font-size="13" lengthAdjust="spacingAndGlyphs" textLength="153" x="613.5" y="1133.4326">void update(float,float,float)</text><polygon fill="#A80036" points="612.5,1178.2891,602.5,1182.2891,612.5,1186.2891,608.5,1182.2891" style="stroke: #A80036; stroke-width: 1.0;"/><line style="stroke: #A80036; stroke-width: 1.0; stroke-dasharray: 2.0,2.0;" x1="606.5" x2="2252.5" y1="1182.2891" y2="1182.2891"/><line style="stroke: #A80036; stroke-width: 1.0; stroke-dasharray: 2.0,2.0;" x1="601.5" x2="643.5" y1="1201.2891" y2="1201.2891"/><line style="stroke: #A80036; stroke-width: 1.0; stroke-dasharray: 2.0,2.0;" x1="643.5" x2="643.5" y1="1201.2891" y2="1214.2891"/><line style="stroke: #A80036; stroke-width: 1.0; stroke-dasharray: 2.0,2.0;" x1="596.5" x2="643.5" y1="1214.2891" y2="1214.2891"/><polygon fill="#A80036" points="606.5,1210.2891,596.5,1214.2891,606.5,1218.2891,602.5,1214.2891" style="stroke: #A80036; stroke-width: 1.0;"/><line style="stroke: #A80036; stroke-width: 1.0; stroke-dasharray: 2.0,2.0;" x1="596.5" x2="638.5" y1="1228.2891" y2="1228.2891"/><line style="stroke: #A80036; stroke-width: 1.0; stroke-dasharray: 2.0,2.0;" x1="638.5" x2="638.5" y1="1228.2891" y2="1241.2891"/><line style="stroke: #A80036; stroke-width: 1.0; stroke-dasharray: 2.0,2.0;" x1="591.5" x2="638.5" y1="1241.2891" y2="1241.2891"/><polygon fill="#A80036" points="601.5,1237.2891,591.5,1241.2891,601.5,1245.2891,597.5,1241.2891" style="stroke: #A80036; stroke-width: 1.0;"/><polygon fill="#A80036" points="212.5,1246.2891,202.5,1250.2891,212.5,1254.2891,208.5,1250.2891" style="stroke: #A80036; stroke-width: 1.0;"/><line style="stroke: #A80036; stroke-width: 1.0; stroke-dasharray: 2.0,2.0;" x1="206.5" x2="590.5" y1="1250.2891" y2="1250.2891"/></g></svg>