<?xml version="1.0" encoding="UTF-8" standalone="no"?><svg xmlns="http://www.w3.org/2000/svg" xmlns:xlink="http://www.w3.org/1999/xlink" contentScriptType="application/ecmascript" contentStyleType="text/css" height="1354px" preserveAspectRatio="none" style="width:2135px;height:1354px;" version="1.1" viewBox="0 0 2135 1354" width="2135px" zoomAndPan="magnify"><defs><filter height="300%" id="f1nzuou9y3kyta" width="300%" x="-1" y="-1"><feGaussianBlur result="blurOut" stdDeviation="2.0"/><feColorMatrix in="blurOut" result="blurOut2" type="matrix" values="0 0 0 0 0 0 0 0 0 0 0 0 0 0 0 0 0 0 .4 0"/><feOffset dx="4.0" dy="4.0" in="blurOut2" result="blurOut3"/><feBlend in="SourceGraphic" in2="blurOut3" mode="normal"/></filter></defs><g><!--cluster problem--><polygon fill="#FFFFFF" filter="url(#f1nzuou9y3kyta)" points="22,24,86,24,93,47.6094,915,47.6094,915,1342,22,1342,22,24" style="stroke: #000000; stroke-width: 1.5;"/><line style="stroke: #000000; stroke-width: 1.5;" x1="22" x2="93" y1="47.6094" y2="47.6094"/><text fill="#000000" font-family="sans-serif" font-size="14" font-weight="bold" lengthAdjust="spacingAndGlyphs" textLength="58" x="26" y="40.5332">problem</text><!--cluster NewTestStructure--><polygon fill="#FFFFFF" filter="url(#f1nzuou9y3kyta)" points="939,24,1071,24,1078,47.6094,2113,47.6094,2113,276,939,276,939,24" style="stroke: #000000; stroke-width: 1.5;"/><line style="stroke: #000000; stroke-width: 1.5;" x1="939" x2="1078" y1="47.6094" y2="47.6094"/><text fill="#000000" font-family="sans-serif" font-size="14" font-weight="bold" lengthAdjust="spacingAndGlyphs" textLength="126" x="943" y="40.5332">NewTestStructure</text><!--class problem.AppLauncherApplication--><rect fill="#FEFECE" filter="url(#f1nzuou9y3kyta)" height="75.6719" id="problem.AppLauncherApplication" style="stroke: #A80036; stroke-width: 1.5;" width="165" x="601.5" y="122"/><ellipse cx="616.5" cy="138" fill="#ADD1B2" rx="11" ry="11" style="stroke: #A80036; stroke-width: 1.0;"/><path d="M619.2656,133.875 Q619.4219,133.6563 619.6094,133.5469 Q619.7969,133.4375 620.0156,133.4375 Q620.3906,133.4375 620.625,133.6953 Q620.8594,133.9531 620.8594,134.5625 L620.8594,136.0156 Q620.8594,136.625 620.625,136.8906 Q620.3906,137.1563 620.0156,137.1563 Q619.6719,137.1563 619.4688,136.9531 Q619.2656,136.7656 619.1563,136.25 Q619.1094,135.8906 618.9219,135.7031 Q618.5938,135.3281 617.9844,135.1094 Q617.375,134.8906 616.75,134.8906 Q615.9844,134.8906 615.3516,135.2188 Q614.7188,135.5469 614.2266,136.2969 Q613.7344,137.0469 613.7344,138.0781 L613.7344,139.1719 Q613.7344,140.4063 614.625,141.2266 Q615.5156,142.0469 617.1094,142.0469 Q618.0469,142.0469 618.7031,141.7969 Q619.0938,141.6406 619.5156,141.2031 Q619.7813,140.9375 619.9297,140.8594 Q620.0781,140.7813 620.2813,140.7813 Q620.6094,140.7813 620.8672,141.0391 Q621.125,141.2969 621.125,141.6406 Q621.125,141.9844 620.7813,142.3906 Q620.2813,142.9688 619.4844,143.2969 Q618.4063,143.75 617.1094,143.75 Q615.5938,143.75 614.3906,143.125 Q613.4063,142.625 612.7188,141.5547 Q612.0313,140.4844 612.0313,139.2031 L612.0313,138.0469 Q612.0313,136.7188 612.6484,135.5703 Q613.2656,134.4219 614.3594,133.8047 Q615.4531,133.1875 616.6875,133.1875 Q617.4219,133.1875 618.0703,133.3516 Q618.7188,133.5156 619.2656,133.875 Z "/><text fill="#000000" font-family="sans-serif" font-size="12" lengthAdjust="spacingAndGlyphs" textLength="133" x="630.5" y="142.9102">AppLauncherApplication</text><line style="stroke: #A80036; stroke-width: 1.5;" x1="602.5" x2="765.5" y1="154" y2="154"/><line style="stroke: #A80036; stroke-width: 1.5;" x1="602.5" x2="765.5" y1="162" y2="162"/><ellipse cx="612.5" cy="174.418" fill="#84BE84" rx="3" ry="3" style="stroke: #038048; stroke-width: 1.0;"/><text fill="#000000" font-family="sans-serif" font-size="11" lengthAdjust="spacingAndGlyphs" textLength="56" x="621.5" y="177.4189">void &lt;init&gt;()</text><ellipse cx="612.5" cy="188.2539" fill="#84BE84" rx="3" ry="3" style="stroke: #038048; stroke-width: 1.0;"/><text fill="#000000" font-family="sans-serif" font-size="11" lengthAdjust="spacingAndGlyphs" text-decoration="underline" textLength="133" x="621.5" y="191.2549">void main(java.lang.String[])</text><line style="stroke: #000000; stroke-width: 1.0;" x1="621.5" x2="754.5" y1="193.2549" y2="193.2549"/><!--class problem.AllTests--><rect fill="#FEFECE" filter="url(#f1nzuou9y3kyta)" height="61.8359" id="problem.AllTests" style="stroke: #A80036; stroke-width: 1.5;" width="82" x="484" y="129"/><ellipse cx="501.7" cy="145" fill="#ADD1B2" rx="11" ry="11" style="stroke: #A80036; stroke-width: 1.0;"/><path d="M504.4656,140.875 Q504.6219,140.6563 504.8094,140.5469 Q504.9969,140.4375 505.2156,140.4375 Q505.5906,140.4375 505.825,140.6953 Q506.0594,140.9531 506.0594,141.5625 L506.0594,143.0156 Q506.0594,143.625 505.825,143.8906 Q505.5906,144.1563 505.2156,144.1563 Q504.8719,144.1563 504.6688,143.9531 Q504.4656,143.7656 504.3563,143.25 Q504.3094,142.8906 504.1219,142.7031 Q503.7938,142.3281 503.1844,142.1094 Q502.575,141.8906 501.95,141.8906 Q501.1844,141.8906 500.5516,142.2188 Q499.9188,142.5469 499.4266,143.2969 Q498.9344,144.0469 498.9344,145.0781 L498.9344,146.1719 Q498.9344,147.4063 499.825,148.2266 Q500.7156,149.0469 502.3094,149.0469 Q503.2469,149.0469 503.9031,148.7969 Q504.2938,148.6406 504.7156,148.2031 Q504.9813,147.9375 505.1297,147.8594 Q505.2781,147.7813 505.4813,147.7813 Q505.8094,147.7813 506.0672,148.0391 Q506.325,148.2969 506.325,148.6406 Q506.325,148.9844 505.9813,149.3906 Q505.4813,149.9688 504.6844,150.2969 Q503.6063,150.75 502.3094,150.75 Q500.7938,150.75 499.5906,150.125 Q498.6063,149.625 497.9188,148.5547 Q497.2313,147.4844 497.2313,146.2031 L497.2313,145.0469 Q497.2313,143.7188 497.8484,142.5703 Q498.4656,141.4219 499.5594,140.8047 Q500.6531,140.1875 501.8875,140.1875 Q502.6219,140.1875 503.2703,140.3516 Q503.9188,140.5156 504.4656,140.875 Z "/><text fill="#000000" font-family="sans-serif" font-size="12" lengthAdjust="spacingAndGlyphs" textLength="44" x="516.3" y="149.9102">AllTests</text><line style="stroke: #A80036; stroke-width: 1.5;" x1="485" x2="565" y1="161" y2="161"/><line style="stroke: #A80036; stroke-width: 1.5;" x1="485" x2="565" y1="169" y2="169"/><ellipse cx="495" cy="181.418" fill="#84BE84" rx="3" ry="3" style="stroke: #038048; stroke-width: 1.0;"/><text fill="#000000" font-family="sans-serif" font-size="11" lengthAdjust="spacingAndGlyphs" textLength="56" x="504" y="184.4189">void &lt;init&gt;()</text><!--class problem.AppLauncher--><rect fill="#FEFECE" filter="url(#f1nzuou9y3kyta)" height="214.0313" id="problem.AppLauncher" style="stroke: #A80036; stroke-width: 1.5;" width="315" x="38.5" y="327"/><ellipse cx="155.25" cy="343" fill="#ADD1B2" rx="11" ry="11" style="stroke: #A80036; stroke-width: 1.0;"/><path d="M158.0156,338.875 Q158.1719,338.6563 158.3594,338.5469 Q158.5469,338.4375 158.7656,338.4375 Q159.1406,338.4375 159.375,338.6953 Q159.6094,338.9531 159.6094,339.5625 L159.6094,341.0156 Q159.6094,341.625 159.375,341.8906 Q159.1406,342.1563 158.7656,342.1563 Q158.4219,342.1563 158.2188,341.9531 Q158.0156,341.7656 157.9063,341.25 Q157.8594,340.8906 157.6719,340.7031 Q157.3438,340.3281 156.7344,340.1094 Q156.125,339.8906 155.5,339.8906 Q154.7344,339.8906 154.1016,340.2188 Q153.4688,340.5469 152.9766,341.2969 Q152.4844,342.0469 152.4844,343.0781 L152.4844,344.1719 Q152.4844,345.4063 153.375,346.2266 Q154.2656,347.0469 155.8594,347.0469 Q156.7969,347.0469 157.4531,346.7969 Q157.8438,346.6406 158.2656,346.2031 Q158.5313,345.9375 158.6797,345.8594 Q158.8281,345.7813 159.0313,345.7813 Q159.3594,345.7813 159.6172,346.0391 Q159.875,346.2969 159.875,346.6406 Q159.875,346.9844 159.5313,347.3906 Q159.0313,347.9688 158.2344,348.2969 Q157.1563,348.75 155.8594,348.75 Q154.3438,348.75 153.1406,348.125 Q152.1563,347.625 151.4688,346.5547 Q150.7813,345.4844 150.7813,344.2031 L150.7813,343.0469 Q150.7813,341.7188 151.3984,340.5703 Q152.0156,339.4219 153.1094,338.8047 Q154.2031,338.1875 155.4375,338.1875 Q156.1719,338.1875 156.8203,338.3516 Q157.4688,338.5156 158.0156,338.875 Z "/><text fill="#000000" font-family="sans-serif" font-size="12" lengthAdjust="spacingAndGlyphs" textLength="73" x="175.75" y="347.9102">AppLauncher</text><line style="stroke: #A80036; stroke-width: 1.5;" x1="39.5" x2="352.5" y1="359" y2="359"/><rect fill="none" height="6" style="stroke: #C82930; stroke-width: 1.0;" width="6" x="46.5" y="368.418"/><text fill="#000000" font-family="sans-serif" font-size="11" lengthAdjust="spacingAndGlyphs" textLength="169" x="58.5" y="374.4189">java.nio.file.WatchService watcher</text><rect fill="none" height="6" style="stroke: #C82930; stroke-width: 1.0;" width="6" x="46.5" y="382.2539"/><text fill="#000000" font-family="sans-serif" font-size="11" lengthAdjust="spacingAndGlyphs" textLength="93" x="58.5" y="388.2549">java.nio.file.Path dir</text><rect fill="none" height="6" style="stroke: #C82930; stroke-width: 1.0;" width="6" x="46.5" y="396.0898"/><text fill="#000000" font-family="sans-serif" font-size="11" lengthAdjust="spacingAndGlyphs" textLength="62" x="58.5" y="402.0908">boolean stop</text><rect fill="none" height="6" style="stroke: #C82930; stroke-width: 1.0;" width="6" x="46.5" y="409.9258"/><text fill="#000000" font-family="sans-serif" font-size="11" lengthAdjust="spacingAndGlyphs" textLength="111" x="58.5" y="415.9268">java.util.List processes</text><line style="stroke: #A80036; stroke-width: 1.5;" x1="39.5" x2="352.5" y1="422.3438" y2="422.3438"/><rect fill="#F24D5C" height="6" style="stroke: #C82930; stroke-width: 1.0;" width="6" x="46.5" y="431.7617"/><text fill="#000000" font-family="sans-serif" font-size="11" lengthAdjust="spacingAndGlyphs" textLength="134" x="58.5" y="437.7627">void &lt;init&gt;(java.nio.file.Path)</text><ellipse cx="49.5" cy="448.5977" fill="#84BE84" rx="3" ry="3" style="stroke: #038048; stroke-width: 1.0;"/><text fill="#000000" font-family="sans-serif" font-size="11" lengthAdjust="spacingAndGlyphs" textLength="47" x="58.5" y="451.5986">void run()</text><polygon fill="#FFFF44" points="49.5,457.4336,53.5,461.4336,49.5,465.4336,45.5,461.4336" style="stroke: #B38D22; stroke-width: 1.0;"/><text fill="#000000" font-family="sans-serif" font-size="11" lengthAdjust="spacingAndGlyphs" textLength="106" x="58.5" y="465.4346">void clearEverything()</text><ellipse cx="49.5" cy="476.2695" fill="#84BE84" rx="3" ry="3" style="stroke: #038048; stroke-width: 1.0;"/><text fill="#000000" font-family="sans-serif" font-size="11" lengthAdjust="spacingAndGlyphs" textLength="102" x="58.5" y="479.2705">void stopGracefully()</text><ellipse cx="49.5" cy="490.1055" fill="#84BE84" rx="3" ry="3" style="stroke: #038048; stroke-width: 1.0;"/><text fill="#000000" font-family="sans-serif" font-size="11" lengthAdjust="spacingAndGlyphs" textLength="96" x="58.5" y="493.1064">boolean isRunning()</text><ellipse cx="49.5" cy="503.9414" fill="#84BE84" rx="3" ry="3" style="stroke: #038048; stroke-width: 1.0;"/><text fill="#000000" font-family="sans-serif" font-size="11" lengthAdjust="spacingAndGlyphs" textLength="124" x="58.5" y="506.9424">int getApplicationsCount()</text><ellipse cx="49.5" cy="517.7773" fill="#84BE84" rx="3" ry="3" style="stroke: #038048; stroke-width: 1.0;"/><text fill="#000000" font-family="sans-serif" font-size="11" lengthAdjust="spacingAndGlyphs" textLength="289" x="58.5" y="520.7783">void handleDirectoryEvent(java.lang.String,java.nio.file.Path)</text><ellipse cx="49.5" cy="531.6133" fill="#84BE84" rx="3" ry="3" style="stroke: #038048; stroke-width: 1.0;"/><text fill="#000000" font-family="sans-serif" font-size="11" lengthAdjust="spacingAndGlyphs" text-decoration="underline" textLength="133" x="58.5" y="534.6143">void main(java.lang.String[])</text><line style="stroke: #000000; stroke-width: 1.0;" x1="58.5" x2="191.5" y1="536.6143" y2="536.6143"/><!--class problem.AppLauncherBaseCaseTest--><rect fill="#FEFECE" filter="url(#f1nzuou9y3kyta)" height="75.6719" id="problem.AppLauncherBaseCaseTest" style="stroke: #A80036; stroke-width: 1.5;" width="188" x="38" y="122"/><ellipse cx="53" cy="138" fill="#ADD1B2" rx="11" ry="11" style="stroke: #A80036; stroke-width: 1.0;"/><path d="M55.7656,133.875 Q55.9219,133.6563 56.1094,133.5469 Q56.2969,133.4375 56.5156,133.4375 Q56.8906,133.4375 57.125,133.6953 Q57.3594,133.9531 57.3594,134.5625 L57.3594,136.0156 Q57.3594,136.625 57.125,136.8906 Q56.8906,137.1563 56.5156,137.1563 Q56.1719,137.1563 55.9688,136.9531 Q55.7656,136.7656 55.6563,136.25 Q55.6094,135.8906 55.4219,135.7031 Q55.0938,135.3281 54.4844,135.1094 Q53.875,134.8906 53.25,134.8906 Q52.4844,134.8906 51.8516,135.2188 Q51.2188,135.5469 50.7266,136.2969 Q50.2344,137.0469 50.2344,138.0781 L50.2344,139.1719 Q50.2344,140.4063 51.125,141.2266 Q52.0156,142.0469 53.6094,142.0469 Q54.5469,142.0469 55.2031,141.7969 Q55.5938,141.6406 56.0156,141.2031 Q56.2813,140.9375 56.4297,140.8594 Q56.5781,140.7813 56.7813,140.7813 Q57.1094,140.7813 57.3672,141.0391 Q57.625,141.2969 57.625,141.6406 Q57.625,141.9844 57.2813,142.3906 Q56.7813,142.9688 55.9844,143.2969 Q54.9063,143.75 53.6094,143.75 Q52.0938,143.75 50.8906,143.125 Q49.9063,142.625 49.2188,141.5547 Q48.5313,140.4844 48.5313,139.2031 L48.5313,138.0469 Q48.5313,136.7188 49.1484,135.5703 Q49.7656,134.4219 50.8594,133.8047 Q51.9531,133.1875 53.1875,133.1875 Q53.9219,133.1875 54.5703,133.3516 Q55.2188,133.5156 55.7656,133.875 Z "/><text fill="#000000" font-family="sans-serif" font-size="12" lengthAdjust="spacingAndGlyphs" textLength="156" x="67" y="142.9102">AppLauncherBaseCaseTest</text><line style="stroke: #A80036; stroke-width: 1.5;" x1="39" x2="225" y1="154" y2="154"/><line style="stroke: #A80036; stroke-width: 1.5;" x1="39" x2="225" y1="162" y2="162"/><ellipse cx="49" cy="174.418" fill="#84BE84" rx="3" ry="3" style="stroke: #038048; stroke-width: 1.0;"/><text fill="#000000" font-family="sans-serif" font-size="11" lengthAdjust="spacingAndGlyphs" textLength="56" x="58" y="177.4189">void &lt;init&gt;()</text><ellipse cx="49" cy="188.2539" fill="#84BE84" rx="3" ry="3" style="stroke: #038048; stroke-width: 1.0;"/><text fill="#000000" font-family="sans-serif" font-size="11" lengthAdjust="spacingAndGlyphs" textLength="72" x="58" y="191.2549">void testStart()</text><!--class problem.AppLauncherSupportTest--><rect fill="#FEFECE" filter="url(#f1nzuou9y3kyta)" height="200.1953" id="problem.AppLauncherSupportTest" style="stroke: #A80036; stroke-width: 1.5;" width="188" x="261" y="60"/><ellipse cx="283.2" cy="76" fill="#ADD1B2" rx="11" ry="11" style="stroke: #A80036; stroke-width: 1.0;"/><path d="M285.9656,71.875 Q286.1219,71.6563 286.3094,71.5469 Q286.4969,71.4375 286.7156,71.4375 Q287.0906,71.4375 287.325,71.6953 Q287.5594,71.9531 287.5594,72.5625 L287.5594,74.0156 Q287.5594,74.625 287.325,74.8906 Q287.0906,75.1563 286.7156,75.1563 Q286.3719,75.1563 286.1688,74.9531 Q285.9656,74.7656 285.8563,74.25 Q285.8094,73.8906 285.6219,73.7031 Q285.2938,73.3281 284.6844,73.1094 Q284.075,72.8906 283.45,72.8906 Q282.6844,72.8906 282.0516,73.2188 Q281.4188,73.5469 280.9266,74.2969 Q280.4344,75.0469 280.4344,76.0781 L280.4344,77.1719 Q280.4344,78.4063 281.325,79.2266 Q282.2156,80.0469 283.8094,80.0469 Q284.7469,80.0469 285.4031,79.7969 Q285.7938,79.6406 286.2156,79.2031 Q286.4813,78.9375 286.6297,78.8594 Q286.7781,78.7813 286.9813,78.7813 Q287.3094,78.7813 287.5672,79.0391 Q287.825,79.2969 287.825,79.6406 Q287.825,79.9844 287.4813,80.3906 Q286.9813,80.9688 286.1844,81.2969 Q285.1063,81.75 283.8094,81.75 Q282.2938,81.75 281.0906,81.125 Q280.1063,80.625 279.4188,79.5547 Q278.7313,78.4844 278.7313,77.2031 L278.7313,76.0469 Q278.7313,74.7188 279.3484,73.5703 Q279.9656,72.4219 281.0594,71.8047 Q282.1531,71.1875 283.3875,71.1875 Q284.1219,71.1875 284.7703,71.3516 Q285.4188,71.5156 285.9656,71.875 Z "/><text fill="#000000" font-family="sans-serif" font-size="12" lengthAdjust="spacingAndGlyphs" textLength="140" x="298.8" y="80.9102">AppLauncherSupportTest</text><line style="stroke: #A80036; stroke-width: 1.5;" x1="262" x2="448" y1="92" y2="92"/><rect fill="none" height="6" style="stroke: #C82930; stroke-width: 1.0;" width="6" x="269" y="101.418"/><text fill="#000000" font-family="sans-serif" font-size="11" lengthAdjust="spacingAndGlyphs" textLength="152" x="281" y="107.4189">problem.AppLauncher launcher</text><rect fill="none" height="6" style="stroke: #C82930; stroke-width: 1.0;" width="6" x="269" y="115.2539"/><text fill="#000000" font-family="sans-serif" font-size="11" lengthAdjust="spacingAndGlyphs" textLength="114" x="281" y="121.2549">java.lang.String baseDir</text><rect fill="none" height="6" style="stroke: #C82930; stroke-width: 1.0;" width="6" x="269" y="129.0898"/><text fill="#000000" font-family="sans-serif" font-size="11" lengthAdjust="spacingAndGlyphs" textLength="124" x="281" y="135.0908">java.lang.String srcTxtFile</text><rect fill="none" height="6" style="stroke: #C82930; stroke-width: 1.0;" width="6" x="269" y="142.9258"/><text fill="#000000" font-family="sans-serif" font-size="11" lengthAdjust="spacingAndGlyphs" textLength="129" x="281" y="148.9268">java.lang.String destTxtFile</text><rect fill="none" height="6" style="stroke: #C82930; stroke-width: 1.0;" width="6" x="269" y="156.7617"/><text fill="#000000" font-family="sans-serif" font-size="11" lengthAdjust="spacingAndGlyphs" textLength="129" x="281" y="162.7627">java.lang.String srcHtmlFile</text><rect fill="none" height="6" style="stroke: #C82930; stroke-width: 1.0;" width="6" x="269" y="170.5977"/><text fill="#000000" font-family="sans-serif" font-size="11" lengthAdjust="spacingAndGlyphs" textLength="134" x="281" y="176.5986">java.lang.String destHtmlFile</text><line style="stroke: #A80036; stroke-width: 1.5;" x1="262" x2="448" y1="183.0156" y2="183.0156"/><ellipse cx="272" cy="195.4336" fill="#84BE84" rx="3" ry="3" style="stroke: #038048; stroke-width: 1.0;"/><text fill="#000000" font-family="sans-serif" font-size="11" lengthAdjust="spacingAndGlyphs" textLength="56" x="281" y="198.4346">void &lt;init&gt;()</text><ellipse cx="272" cy="209.2695" fill="#84BE84" rx="3" ry="3" style="stroke: #038048; stroke-width: 1.0;"/><text fill="#000000" font-family="sans-serif" font-size="11" lengthAdjust="spacingAndGlyphs" textLength="59" x="281" y="212.2705">void setUp()</text><ellipse cx="272" cy="223.1055" fill="#84BE84" rx="3" ry="3" style="stroke: #038048; stroke-width: 1.0;"/><text fill="#000000" font-family="sans-serif" font-size="11" lengthAdjust="spacingAndGlyphs" textLength="79" x="281" y="226.1064">void tearDown()</text><ellipse cx="272" cy="236.9414" fill="#84BE84" rx="3" ry="3" style="stroke: #038048; stroke-width: 1.0;"/><text fill="#000000" font-family="sans-serif" font-size="11" lengthAdjust="spacingAndGlyphs" textLength="125" x="281" y="239.9424">void testLaunchNotepad()</text><ellipse cx="272" cy="250.7773" fill="#84BE84" rx="3" ry="3" style="stroke: #038048; stroke-width: 1.0;"/><text fill="#000000" font-family="sans-serif" font-size="11" lengthAdjust="spacingAndGlyphs" textLength="162" x="281" y="253.7783">void testLaunchDefaultBrowser()</text><!--class problem.ApplicationLauncher--><rect fill="#FEFECE" filter="url(#f1nzuou9y3kyta)" height="186.3594" id="problem.ApplicationLauncher" style="stroke: #A80036; stroke-width: 1.5;" width="303" x="421.5" y="813"/><ellipse cx="512.75" cy="829" fill="#ADD1B2" rx="11" ry="11" style="stroke: #A80036; stroke-width: 1.0;"/><path d="M515.5156,824.875 Q515.6719,824.6563 515.8594,824.5469 Q516.0469,824.4375 516.2656,824.4375 Q516.6406,824.4375 516.875,824.6953 Q517.1094,824.9531 517.1094,825.5625 L517.1094,827.0156 Q517.1094,827.625 516.875,827.8906 Q516.6406,828.1563 516.2656,828.1563 Q515.9219,828.1563 515.7188,827.9531 Q515.5156,827.7656 515.4063,827.25 Q515.3594,826.8906 515.1719,826.7031 Q514.8438,826.3281 514.2344,826.1094 Q513.625,825.8906 513,825.8906 Q512.2344,825.8906 511.6016,826.2188 Q510.9688,826.5469 510.4766,827.2969 Q509.9844,828.0469 509.9844,829.0781 L509.9844,830.1719 Q509.9844,831.4063 510.875,832.2266 Q511.7656,833.0469 513.3594,833.0469 Q514.2969,833.0469 514.9531,832.7969 Q515.3438,832.6406 515.7656,832.2031 Q516.0313,831.9375 516.1797,831.8594 Q516.3281,831.7813 516.5313,831.7813 Q516.8594,831.7813 517.1172,832.0391 Q517.375,832.2969 517.375,832.6406 Q517.375,832.9844 517.0313,833.3906 Q516.5313,833.9688 515.7344,834.2969 Q514.6563,834.75 513.3594,834.75 Q511.8438,834.75 510.6406,834.125 Q509.6563,833.625 508.9688,832.5547 Q508.2813,831.4844 508.2813,830.2031 L508.2813,829.0469 Q508.2813,827.7188 508.8984,826.5703 Q509.5156,825.4219 510.6094,824.8047 Q511.7031,824.1875 512.9375,824.1875 Q513.6719,824.1875 514.3203,824.3516 Q514.9688,824.5156 515.5156,824.875 Z "/><text fill="#000000" font-family="sans-serif" font-size="12" lengthAdjust="spacingAndGlyphs" textLength="112" x="533.25" y="833.9102">ApplicationLauncher</text><line style="stroke: #A80036; stroke-width: 1.5;" x1="422.5" x2="723.5" y1="845" y2="845"/><rect fill="none" height="6" style="stroke: #C82930; stroke-width: 1.0;" width="6" x="429.5" y="854.418"/><text fill="#000000" font-family="sans-serif" font-size="11" lengthAdjust="spacingAndGlyphs" textLength="176" x="441.5" y="860.4189">java.util.Map extensionToRunnerMap</text><rect fill="none" height="6" style="stroke: #C82930; stroke-width: 1.0;" width="6" x="429.5" y="868.2539"/><text fill="#000000" font-family="sans-serif" font-size="11" lengthAdjust="spacingAndGlyphs" textLength="77" x="441.5" y="874.2549">boolean running</text><line style="stroke: #A80036; stroke-width: 1.5;" x1="422.5" x2="723.5" y1="880.6719" y2="880.6719"/><ellipse cx="432.5" cy="893.0898" fill="#84BE84" rx="3" ry="3" style="stroke: #038048; stroke-width: 1.0;"/><text fill="#000000" font-family="sans-serif" font-size="11" lengthAdjust="spacingAndGlyphs" textLength="56" x="441.5" y="896.0908">void &lt;init&gt;()</text><ellipse cx="432.5" cy="906.9258" fill="#84BE84" rx="3" ry="3" style="stroke: #038048; stroke-width: 1.0;"/><text fill="#000000" font-family="sans-serif" font-size="11" lengthAdjust="spacingAndGlyphs" textLength="230" x="441.5" y="909.9268">void DirectoryChanged(problem.DirectoryEvent)</text><ellipse cx="432.5" cy="920.7617" fill="#84BE84" rx="3" ry="3" style="stroke: #038048; stroke-width: 1.0;"/><text fill="#000000" font-family="sans-serif" font-size="11" lengthAdjust="spacingAndGlyphs" textLength="96" x="441.5" y="923.7627">boolean isRunning()</text><ellipse cx="432.5" cy="934.5977" fill="#84BE84" rx="3" ry="3" style="stroke: #038048; stroke-width: 1.0;"/><text fill="#000000" font-family="sans-serif" font-size="11" lengthAdjust="spacingAndGlyphs" textLength="152" x="441.5" y="937.5986">java.util.Collection getRunners()</text><ellipse cx="432.5" cy="948.4336" fill="#84BE84" rx="3" ry="3" style="stroke: #038048; stroke-width: 1.0;"/><text fill="#000000" font-family="sans-serif" font-size="11" lengthAdjust="spacingAndGlyphs" textLength="277" x="441.5" y="951.4346">void addRunner(java.lang.String,problem.ProcessRunner)</text><ellipse cx="432.5" cy="962.2695" fill="#84BE84" rx="3" ry="3" style="stroke: #038048; stroke-width: 1.0;"/><text fill="#000000" font-family="sans-serif" font-size="11" lengthAdjust="spacingAndGlyphs" textLength="80" x="441.5" y="965.2705">void shutdown()</text><rect fill="#F24D5C" height="6" style="stroke: #C82930; stroke-width: 1.0;" width="6" x="429.5" y="973.1055"/><text fill="#000000" font-family="sans-serif" font-size="11" lengthAdjust="spacingAndGlyphs" text-decoration="underline" textLength="193" x="441.5" y="979.1064">void lambda$0(problem.ProcessRunner)</text><line style="stroke: #000000; stroke-width: 1.0;" x1="441.5" x2="634.5" y1="981.1064" y2="981.1064"/><rect fill="#F24D5C" height="6" style="stroke: #C82930; stroke-width: 1.0;" width="6" x="429.5" y="986.9414"/><text fill="#000000" font-family="sans-serif" font-size="11" lengthAdjust="spacingAndGlyphs" text-decoration="underline" textLength="163" x="441.5" y="992.9424">void lambda$1(java.lang.Process)</text><line style="stroke: #000000; stroke-width: 1.0;" x1="441.5" x2="604.5" y1="994.9424" y2="994.9424"/><!--class problem.IDirectoryListener--><rect fill="#FEFECE" filter="url(#f1nzuou9y3kyta)" height="75.6719" id="problem.IDirectoryListener" style="stroke: #A80036; stroke-width: 1.5;" width="262" x="204" y="642.5"/><ellipse cx="282.25" cy="658.5" fill="#B4A7E5" rx="11" ry="11" style="stroke: #A80036; stroke-width: 1.0;"/><path d="M283.2031,655.1406 L283.2031,661.7969 L284.9219,661.7969 Q285.5313,661.7969 285.7969,662.0313 Q286.0625,662.2656 286.0625,662.6563 Q286.0625,663.0313 285.7969,663.2656 Q285.5313,663.5 284.9219,663.5 L279.7813,663.5 Q279.1719,663.5 278.9063,663.2656 Q278.6406,663.0313 278.6406,662.6406 Q278.6406,662.2656 278.9063,662.0313 Q279.1719,661.7969 279.7813,661.7969 L281.5,661.7969 L281.5,655.1406 L279.7813,655.1406 Q279.1719,655.1406 278.9063,654.9063 Q278.6406,654.6719 278.6406,654.2813 Q278.6406,653.9063 278.9063,653.6719 Q279.1719,653.4375 279.7813,653.4375 L284.9219,653.4375 Q285.5313,653.4375 285.7969,653.6719 Q286.0625,653.9063 286.0625,654.2813 Q286.0625,654.6719 285.7969,654.9063 Q285.5313,655.1406 284.9219,655.1406 L283.2031,655.1406 Z "/><text fill="#000000" font-family="sans-serif" font-size="12" font-style="italic" lengthAdjust="spacingAndGlyphs" textLength="97" x="302.75" y="663.4102">IDirectoryListener</text><line style="stroke: #A80036; stroke-width: 1.5;" x1="205" x2="465" y1="674.5" y2="674.5"/><line style="stroke: #A80036; stroke-width: 1.5;" x1="205" x2="465" y1="682.5" y2="682.5"/><ellipse cx="215" cy="694.918" fill="#84BE84" rx="3" ry="3" style="stroke: #038048; stroke-width: 1.0;"/><text fill="#000000" font-family="sans-serif" font-size="11" font-style="italic" lengthAdjust="spacingAndGlyphs" textLength="236" x="224" y="697.9189">void DirectoryChanged(problem.DirectoryEvent)</text><ellipse cx="215" cy="708.7539" fill="#84BE84" rx="3" ry="3" style="stroke: #038048; stroke-width: 1.0;"/><text fill="#000000" font-family="sans-serif" font-size="11" font-style="italic" lengthAdjust="spacingAndGlyphs" textLength="101" x="224" y="711.7549">boolean isRunning()</text><!--class problem.DataFileRunner--><rect fill="#FEFECE" filter="url(#f1nzuou9y3kyta)" height="75.6719" id="problem.DataFileRunner" style="stroke: #A80036; stroke-width: 1.5;" width="174" x="337" y="1250"/><ellipse cx="376.75" cy="1266" fill="#ADD1B2" rx="11" ry="11" style="stroke: #A80036; stroke-width: 1.0;"/><path d="M379.5156,1261.875 Q379.6719,1261.6563 379.8594,1261.5469 Q380.0469,1261.4375 380.2656,1261.4375 Q380.6406,1261.4375 380.875,1261.6953 Q381.1094,1261.9531 381.1094,1262.5625 L381.1094,1264.0156 Q381.1094,1264.625 380.875,1264.8906 Q380.6406,1265.1563 380.2656,1265.1563 Q379.9219,1265.1563 379.7188,1264.9531 Q379.5156,1264.7656 379.4063,1264.25 Q379.3594,1263.8906 379.1719,1263.7031 Q378.8438,1263.3281 378.2344,1263.1094 Q377.625,1262.8906 377,1262.8906 Q376.2344,1262.8906 375.6016,1263.2188 Q374.9688,1263.5469 374.4766,1264.2969 Q373.9844,1265.0469 373.9844,1266.0781 L373.9844,1267.1719 Q373.9844,1268.4063 374.875,1269.2266 Q375.7656,1270.0469 377.3594,1270.0469 Q378.2969,1270.0469 378.9531,1269.7969 Q379.3438,1269.6406 379.7656,1269.2031 Q380.0313,1268.9375 380.1797,1268.8594 Q380.3281,1268.7813 380.5313,1268.7813 Q380.8594,1268.7813 381.1172,1269.0391 Q381.375,1269.2969 381.375,1269.6406 Q381.375,1269.9844 381.0313,1270.3906 Q380.5313,1270.9688 379.7344,1271.2969 Q378.6563,1271.75 377.3594,1271.75 Q375.8438,1271.75 374.6406,1271.125 Q373.6563,1270.625 372.9688,1269.5547 Q372.2813,1268.4844 372.2813,1267.2031 L372.2813,1266.0469 Q372.2813,1264.7188 372.8984,1263.5703 Q373.5156,1262.4219 374.6094,1261.8047 Q375.7031,1261.1875 376.9375,1261.1875 Q377.6719,1261.1875 378.3203,1261.3516 Q378.9688,1261.5156 379.5156,1261.875 Z "/><text fill="#000000" font-family="sans-serif" font-size="12" lengthAdjust="spacingAndGlyphs" textLength="87" x="396.25" y="1270.9102">DataFileRunner</text><line style="stroke: #A80036; stroke-width: 1.5;" x1="338" x2="510" y1="1282" y2="1282"/><line style="stroke: #A80036; stroke-width: 1.5;" x1="338" x2="510" y1="1290" y2="1290"/><ellipse cx="348" cy="1302.418" fill="#84BE84" rx="3" ry="3" style="stroke: #038048; stroke-width: 1.0;"/><text fill="#000000" font-family="sans-serif" font-size="11" lengthAdjust="spacingAndGlyphs" textLength="56" x="357" y="1305.4189">void &lt;init&gt;()</text><ellipse cx="348" cy="1316.2539" fill="#84BE84" rx="3" ry="3" style="stroke: #038048; stroke-width: 1.0;"/><text fill="#000000" font-family="sans-serif" font-size="11" lengthAdjust="spacingAndGlyphs" textLength="148" x="357" y="1319.2549">void execute(java.nio.file.Path)</text><!--class problem.ProcessRunner--><rect fill="#FEFECE" filter="url(#f1nzuou9y3kyta)" height="131.0156" id="problem.ProcessRunner" style="stroke: #A80036; stroke-width: 1.5;" width="177" x="454.5" y="1059"/><ellipse cx="496.5" cy="1075" fill="#A9DCDF" rx="11" ry="11" style="stroke: #A80036; stroke-width: 1.0;"/><path d="M498.6875,1076.7656 L494.5469,1076.7656 L494.125,1077.7969 L494.5469,1077.7969 Q495.1563,1077.7969 495.4219,1078.0313 Q495.6875,1078.2656 495.6875,1078.6563 Q495.6875,1079.0313 495.4219,1079.2656 Q495.1563,1079.5 494.5469,1079.5 L492.25,1079.5 Q491.6406,1079.5 491.3828,1079.2656 Q491.125,1079.0313 491.125,1078.6406 Q491.125,1078.2656 491.3984,1078.0234 Q491.6719,1077.7813 492.2969,1077.7969 L494.9688,1071.1406 L493.8594,1071.1406 Q493.25,1071.1406 492.9844,1070.9063 Q492.7188,1070.6719 492.7188,1070.2813 Q492.7188,1069.9063 492.9844,1069.6719 Q493.25,1069.4375 493.8594,1069.4375 L497.5313,1069.4375 L500.9219,1077.7969 Q501.5156,1077.7969 501.7031,1077.9375 Q502.0938,1078.2031 502.0938,1078.6563 Q502.0938,1079.0313 501.8359,1079.2656 Q501.5781,1079.5 500.9688,1079.5 L498.6719,1079.5 Q498.0625,1079.5 497.7969,1079.2656 Q497.5313,1079.0313 497.5313,1078.6406 Q497.5313,1078.2656 497.7969,1078.0313 Q498.0625,1077.7969 498.6719,1077.7969 L499.0938,1077.7969 L498.6875,1076.7656 Z M497.9688,1075.0625 L496.6094,1071.6875 L495.2344,1075.0625 L497.9688,1075.0625 Z "/><text fill="#000000" font-family="sans-serif" font-size="12" font-style="italic" lengthAdjust="spacingAndGlyphs" textLength="85" x="516.5" y="1079.9102">ProcessRunner</text><line style="stroke: #A80036; stroke-width: 1.5;" x1="455.5" x2="630.5" y1="1091" y2="1091"/><rect fill="none" height="6" style="stroke: #C82930; stroke-width: 1.0;" width="6" x="462.5" y="1100.418"/><text fill="#000000" font-family="sans-serif" font-size="11" lengthAdjust="spacingAndGlyphs" textLength="111" x="474.5" y="1106.4189">java.util.List processes</text><rect fill="none" height="6" style="stroke: #C82930; stroke-width: 1.0;" width="6" x="462.5" y="1114.2539"/><text fill="#000000" font-family="sans-serif" font-size="11" lengthAdjust="spacingAndGlyphs" textLength="123" x="474.5" y="1120.2549">java.lang.String command</text><line style="stroke: #A80036; stroke-width: 1.5;" x1="455.5" x2="630.5" y1="1126.6719" y2="1126.6719"/><ellipse cx="465.5" cy="1139.0898" fill="#84BE84" rx="3" ry="3" style="stroke: #038048; stroke-width: 1.0;"/><text fill="#000000" font-family="sans-serif" font-size="11" lengthAdjust="spacingAndGlyphs" textLength="56" x="474.5" y="1142.0908">void &lt;init&gt;()</text><ellipse cx="465.5" cy="1152.9258" fill="#84BE84" rx="3" ry="3" style="stroke: #038048; stroke-width: 1.0;"/><text fill="#000000" font-family="sans-serif" font-size="11" lengthAdjust="spacingAndGlyphs" textLength="134" x="474.5" y="1155.9268">java.util.List getProcesses()</text><ellipse cx="465.5" cy="1166.7617" fill="#84BE84" rx="3" ry="3" style="stroke: #038048; stroke-width: 1.0;"/><text fill="#000000" font-family="sans-serif" font-size="11" lengthAdjust="spacingAndGlyphs" textLength="147" x="474.5" y="1169.7627">java.lang.String getCommand()</text><ellipse cx="465.5" cy="1180.5977" fill="#84BE84" rx="3" ry="3" style="stroke: #038048; stroke-width: 1.0;"/><text fill="#000000" font-family="sans-serif" font-size="11" font-style="italic" lengthAdjust="spacingAndGlyphs" textLength="151" x="474.5" y="1183.5986">void execute(java.nio.file.Path)</text><!--class problem.DirectoryChangeLogger--><rect fill="#FEFECE" filter="url(#f1nzuou9y3kyta)" height="117.1797" id="problem.DirectoryChangeLogger" style="stroke: #A80036; stroke-width: 1.5;" width="256" x="130" y="847.5"/><ellipse cx="188.25" cy="863.5" fill="#ADD1B2" rx="11" ry="11" style="stroke: #A80036; stroke-width: 1.0;"/><path d="M191.0156,859.375 Q191.1719,859.1563 191.3594,859.0469 Q191.5469,858.9375 191.7656,858.9375 Q192.1406,858.9375 192.375,859.1953 Q192.6094,859.4531 192.6094,860.0625 L192.6094,861.5156 Q192.6094,862.125 192.375,862.3906 Q192.1406,862.6563 191.7656,862.6563 Q191.4219,862.6563 191.2188,862.4531 Q191.0156,862.2656 190.9063,861.75 Q190.8594,861.3906 190.6719,861.2031 Q190.3438,860.8281 189.7344,860.6094 Q189.125,860.3906 188.5,860.3906 Q187.7344,860.3906 187.1016,860.7188 Q186.4688,861.0469 185.9766,861.7969 Q185.4844,862.5469 185.4844,863.5781 L185.4844,864.6719 Q185.4844,865.9063 186.375,866.7266 Q187.2656,867.5469 188.8594,867.5469 Q189.7969,867.5469 190.4531,867.2969 Q190.8438,867.1406 191.2656,866.7031 Q191.5313,866.4375 191.6797,866.3594 Q191.8281,866.2813 192.0313,866.2813 Q192.3594,866.2813 192.6172,866.5391 Q192.875,866.7969 192.875,867.1406 Q192.875,867.4844 192.5313,867.8906 Q192.0313,868.4688 191.2344,868.7969 Q190.1563,869.25 188.8594,869.25 Q187.3438,869.25 186.1406,868.625 Q185.1563,868.125 184.4688,867.0547 Q183.7813,865.9844 183.7813,864.7031 L183.7813,863.5469 Q183.7813,862.2188 184.3984,861.0703 Q185.0156,859.9219 186.1094,859.3047 Q187.2031,858.6875 188.4375,858.6875 Q189.1719,858.6875 189.8203,858.8516 Q190.4688,859.0156 191.0156,859.375 Z "/><text fill="#000000" font-family="sans-serif" font-size="12" lengthAdjust="spacingAndGlyphs" textLength="131" x="208.75" y="868.4102">DirectoryChangeLogger</text><line style="stroke: #A80036; stroke-width: 1.5;" x1="131" x2="385" y1="879.5" y2="879.5"/><rect fill="none" height="6" style="stroke: #C82930; stroke-width: 1.0;" width="6" x="138" y="888.918"/><text fill="#000000" font-family="sans-serif" font-size="11" lengthAdjust="spacingAndGlyphs" textLength="87" x="150" y="894.9189">java.nio.file.Path p</text><rect fill="none" height="6" style="stroke: #C82930; stroke-width: 1.0;" width="6" x="138" y="902.7539"/><text fill="#000000" font-family="sans-serif" font-size="11" lengthAdjust="spacingAndGlyphs" textLength="77" x="150" y="908.7549">boolean running</text><line style="stroke: #A80036; stroke-width: 1.5;" x1="131" x2="385" y1="915.1719" y2="915.1719"/><ellipse cx="141" cy="927.5898" fill="#84BE84" rx="3" ry="3" style="stroke: #038048; stroke-width: 1.0;"/><text fill="#000000" font-family="sans-serif" font-size="11" lengthAdjust="spacingAndGlyphs" textLength="56" x="150" y="930.5908">void &lt;init&gt;()</text><ellipse cx="141" cy="941.4258" fill="#84BE84" rx="3" ry="3" style="stroke: #038048; stroke-width: 1.0;"/><text fill="#000000" font-family="sans-serif" font-size="11" lengthAdjust="spacingAndGlyphs" textLength="230" x="150" y="944.4268">void DirectoryChanged(problem.DirectoryEvent)</text><ellipse cx="141" cy="955.2617" fill="#84BE84" rx="3" ry="3" style="stroke: #038048; stroke-width: 1.0;"/><text fill="#000000" font-family="sans-serif" font-size="11" lengthAdjust="spacingAndGlyphs" textLength="96" x="150" y="958.2627">boolean isRunning()</text><!--class problem.DirectoryEvent--><rect fill="#FEFECE" filter="url(#f1nzuou9y3kyta)" height="144.8516" id="problem.DirectoryEvent" style="stroke: #A80036; stroke-width: 1.5;" width="397" x="501.5" y="608"/><ellipse cx="656.75" cy="624" fill="#ADD1B2" rx="11" ry="11" style="stroke: #A80036; stroke-width: 1.0;"/><path d="M659.5156,619.875 Q659.6719,619.6563 659.8594,619.5469 Q660.0469,619.4375 660.2656,619.4375 Q660.6406,619.4375 660.875,619.6953 Q661.1094,619.9531 661.1094,620.5625 L661.1094,622.0156 Q661.1094,622.625 660.875,622.8906 Q660.6406,623.1563 660.2656,623.1563 Q659.9219,623.1563 659.7188,622.9531 Q659.5156,622.7656 659.4063,622.25 Q659.3594,621.8906 659.1719,621.7031 Q658.8438,621.3281 658.2344,621.1094 Q657.625,620.8906 657,620.8906 Q656.2344,620.8906 655.6016,621.2188 Q654.9688,621.5469 654.4766,622.2969 Q653.9844,623.0469 653.9844,624.0781 L653.9844,625.1719 Q653.9844,626.4063 654.875,627.2266 Q655.7656,628.0469 657.3594,628.0469 Q658.2969,628.0469 658.9531,627.7969 Q659.3438,627.6406 659.7656,627.2031 Q660.0313,626.9375 660.1797,626.8594 Q660.3281,626.7813 660.5313,626.7813 Q660.8594,626.7813 661.1172,627.0391 Q661.375,627.2969 661.375,627.6406 Q661.375,627.9844 661.0313,628.3906 Q660.5313,628.9688 659.7344,629.2969 Q658.6563,629.75 657.3594,629.75 Q655.8438,629.75 654.6406,629.125 Q653.6563,628.625 652.9688,627.5547 Q652.2813,626.4844 652.2813,625.2031 L652.2813,624.0469 Q652.2813,622.7188 652.8984,621.5703 Q653.5156,620.4219 654.6094,619.8047 Q655.7031,619.1875 656.9375,619.1875 Q657.6719,619.1875 658.3203,619.3516 Q658.9688,619.5156 659.5156,619.875 Z "/><text fill="#000000" font-family="sans-serif" font-size="12" lengthAdjust="spacingAndGlyphs" textLength="78" x="677.25" y="628.9102">DirectoryEvent</text><line style="stroke: #A80036; stroke-width: 1.5;" x1="502.5" x2="897.5" y1="640" y2="640"/><rect fill="none" height="6" style="stroke: #C82930; stroke-width: 1.0;" width="6" x="509.5" y="649.418"/><text fill="#000000" font-family="sans-serif" font-size="11" lengthAdjust="spacingAndGlyphs" textLength="128" x="521.5" y="655.4189">java.lang.String eventType</text><rect fill="none" height="6" style="stroke: #C82930; stroke-width: 1.0;" width="6" x="509.5" y="663.2539"/><text fill="#000000" font-family="sans-serif" font-size="11" lengthAdjust="spacingAndGlyphs" textLength="95" x="521.5" y="669.2549">java.nio.file.Path file</text><rect fill="none" height="6" style="stroke: #C82930; stroke-width: 1.0;" width="6" x="509.5" y="677.0898"/><text fill="#000000" font-family="sans-serif" font-size="11" lengthAdjust="spacingAndGlyphs" textLength="194" x="521.5" y="683.0908">problem.DirectoryMonitorService source</text><line style="stroke: #A80036; stroke-width: 1.5;" x1="502.5" x2="897.5" y1="689.5078" y2="689.5078"/><ellipse cx="512.5" cy="701.9258" fill="#84BE84" rx="3" ry="3" style="stroke: #038048; stroke-width: 1.0;"/><text fill="#000000" font-family="sans-serif" font-size="11" lengthAdjust="spacingAndGlyphs" textLength="371" x="521.5" y="704.9268">void &lt;init&gt;(java.lang.String,java.nio.file.Path,problem.DirectoryMonitorService)</text><ellipse cx="512.5" cy="715.7617" fill="#84BE84" rx="3" ry="3" style="stroke: #038048; stroke-width: 1.0;"/><text fill="#000000" font-family="sans-serif" font-size="11" lengthAdjust="spacingAndGlyphs" textLength="151" x="521.5" y="718.7627">java.lang.String getEventType()</text><ellipse cx="512.5" cy="729.5977" fill="#84BE84" rx="3" ry="3" style="stroke: #038048; stroke-width: 1.0;"/><text fill="#000000" font-family="sans-serif" font-size="11" lengthAdjust="spacingAndGlyphs" textLength="120" x="521.5" y="732.5986">java.nio.file.Path getFile()</text><ellipse cx="512.5" cy="743.4336" fill="#84BE84" rx="3" ry="3" style="stroke: #038048; stroke-width: 1.0;"/><text fill="#000000" font-family="sans-serif" font-size="11" lengthAdjust="spacingAndGlyphs" textLength="218" x="521.5" y="746.4346">problem.DirectoryMonitorService getSource()</text><!--class problem.DirectoryMonitorService--><rect fill="#FEFECE" filter="url(#f1nzuou9y3kyta)" height="227.8672" id="problem.DirectoryMonitorService" style="stroke: #A80036; stroke-width: 1.5;" width="344" x="555" y="320"/><ellipse cx="658.75" cy="336" fill="#ADD1B2" rx="11" ry="11" style="stroke: #A80036; stroke-width: 1.0;"/><path d="M661.5156,331.875 Q661.6719,331.6563 661.8594,331.5469 Q662.0469,331.4375 662.2656,331.4375 Q662.6406,331.4375 662.875,331.6953 Q663.1094,331.9531 663.1094,332.5625 L663.1094,334.0156 Q663.1094,334.625 662.875,334.8906 Q662.6406,335.1563 662.2656,335.1563 Q661.9219,335.1563 661.7188,334.9531 Q661.5156,334.7656 661.4063,334.25 Q661.3594,333.8906 661.1719,333.7031 Q660.8438,333.3281 660.2344,333.1094 Q659.625,332.8906 659,332.8906 Q658.2344,332.8906 657.6016,333.2188 Q656.9688,333.5469 656.4766,334.2969 Q655.9844,335.0469 655.9844,336.0781 L655.9844,337.1719 Q655.9844,338.4063 656.875,339.2266 Q657.7656,340.0469 659.3594,340.0469 Q660.2969,340.0469 660.9531,339.7969 Q661.3438,339.6406 661.7656,339.2031 Q662.0313,338.9375 662.1797,338.8594 Q662.3281,338.7813 662.5313,338.7813 Q662.8594,338.7813 663.1172,339.0391 Q663.375,339.2969 663.375,339.6406 Q663.375,339.9844 663.0313,340.3906 Q662.5313,340.9688 661.7344,341.2969 Q660.6563,341.75 659.3594,341.75 Q657.8438,341.75 656.6406,341.125 Q655.6563,340.625 654.9688,339.5547 Q654.2813,338.4844 654.2813,337.2031 L654.2813,336.0469 Q654.2813,334.7188 654.8984,333.5703 Q655.5156,332.4219 656.6094,331.8047 Q657.7031,331.1875 658.9375,331.1875 Q659.6719,331.1875 660.3203,331.3516 Q660.9688,331.5156 661.5156,331.875 Z "/><text fill="#000000" font-family="sans-serif" font-size="12" lengthAdjust="spacingAndGlyphs" textLength="128" x="679.25" y="340.9102">DirectoryMonitorService</text><line style="stroke: #A80036; stroke-width: 1.5;" x1="556" x2="898" y1="352" y2="352"/><rect fill="none" height="6" style="stroke: #C82930; stroke-width: 1.0;" width="6" x="563" y="361.418"/><text fill="#000000" font-family="sans-serif" font-size="11" lengthAdjust="spacingAndGlyphs" textLength="77" x="575" y="367.4189">boolean running</text><rect fill="none" height="6" style="stroke: #C82930; stroke-width: 1.0;" width="6" x="563" y="375.2539"/><text fill="#000000" font-family="sans-serif" font-size="11" lengthAdjust="spacingAndGlyphs" textLength="129" x="575" y="381.2549">java.util.Collection listeners</text><rect fill="none" height="6" style="stroke: #C82930; stroke-width: 1.0;" width="6" x="563" y="389.0898"/><text fill="#000000" font-family="sans-serif" font-size="11" lengthAdjust="spacingAndGlyphs" textLength="93" x="575" y="395.0908">java.nio.file.Path dir</text><rect fill="none" height="6" style="stroke: #C82930; stroke-width: 1.0;" width="6" x="563" y="402.9258"/><text fill="#000000" font-family="sans-serif" font-size="11" lengthAdjust="spacingAndGlyphs" textLength="169" x="575" y="408.9268">java.nio.file.WatchService watcher</text><line style="stroke: #A80036; stroke-width: 1.5;" x1="556" x2="898" y1="415.3438" y2="415.3438"/><ellipse cx="566" cy="427.7617" fill="#84BE84" rx="3" ry="3" style="stroke: #038048; stroke-width: 1.0;"/><text fill="#000000" font-family="sans-serif" font-size="11" lengthAdjust="spacingAndGlyphs" textLength="134" x="575" y="430.7627">void &lt;init&gt;(java.nio.file.Path)</text><ellipse cx="566" cy="441.5977" fill="#84BE84" rx="3" ry="3" style="stroke: #038048; stroke-width: 1.0;"/><text fill="#000000" font-family="sans-serif" font-size="11" lengthAdjust="spacingAndGlyphs" textLength="47" x="575" y="444.5986">void run()</text><ellipse cx="566" cy="455.4336" fill="#84BE84" rx="3" ry="3" style="stroke: #038048; stroke-width: 1.0;"/><text fill="#000000" font-family="sans-serif" font-size="11" lengthAdjust="spacingAndGlyphs" textLength="96" x="575" y="458.4346">boolean isRunning()</text><ellipse cx="566" cy="469.2695" fill="#84BE84" rx="3" ry="3" style="stroke: #038048; stroke-width: 1.0;"/><text fill="#000000" font-family="sans-serif" font-size="11" lengthAdjust="spacingAndGlyphs" textLength="102" x="575" y="472.2705">void stopGracefully()</text><ellipse cx="566" cy="483.1055" fill="#84BE84" rx="3" ry="3" style="stroke: #038048; stroke-width: 1.0;"/><text fill="#000000" font-family="sans-serif" font-size="11" lengthAdjust="spacingAndGlyphs" textLength="118" x="575" y="486.1064">int getApplicationCount()</text><ellipse cx="566" cy="496.9414" fill="#84BE84" rx="3" ry="3" style="stroke: #038048; stroke-width: 1.0;"/><text fill="#000000" font-family="sans-serif" font-size="11" lengthAdjust="spacingAndGlyphs" textLength="214" x="575" y="499.9424">void addListener(problem.IDirectoryListener)</text><ellipse cx="566" cy="510.7773" fill="#84BE84" rx="3" ry="3" style="stroke: #038048; stroke-width: 1.0;"/><text fill="#000000" font-family="sans-serif" font-size="11" lengthAdjust="spacingAndGlyphs" textLength="232" x="575" y="513.7783">void removeListener(problem.IDirectoryListener)</text><rect fill="#F24D5C" height="6" style="stroke: #C82930; stroke-width: 1.0;" width="6" x="563" y="521.6133"/><text fill="#000000" font-family="sans-serif" font-size="11" lengthAdjust="spacingAndGlyphs" textLength="215" x="575" y="527.6143">void notifyListeners(problem.DirectoryEvent)</text><rect fill="#F24D5C" height="6" style="stroke: #C82930; stroke-width: 1.0;" width="6" x="563" y="535.4492"/><text fill="#000000" font-family="sans-serif" font-size="11" lengthAdjust="spacingAndGlyphs" text-decoration="underline" textLength="318" x="575" y="541.4502">void lambda$0(problem.DirectoryEvent,problem.IDirectoryListener)</text><line style="stroke: #000000; stroke-width: 1.0;" x1="575" x2="893" y1="543.4502" y2="543.4502"/><!--class problem.ExecutableFileListener--><rect fill="#FEFECE" filter="url(#f1nzuou9y3kyta)" height="75.6719" id="problem.ExecutableFileListener" style="stroke: #A80036; stroke-width: 1.5;" width="174" x="98" y="1250"/><ellipse cx="120.65" cy="1266" fill="#ADD1B2" rx="11" ry="11" style="stroke: #A80036; stroke-width: 1.0;"/><path d="M123.4156,1261.875 Q123.5719,1261.6563 123.7594,1261.5469 Q123.9469,1261.4375 124.1656,1261.4375 Q124.5406,1261.4375 124.775,1261.6953 Q125.0094,1261.9531 125.0094,1262.5625 L125.0094,1264.0156 Q125.0094,1264.625 124.775,1264.8906 Q124.5406,1265.1563 124.1656,1265.1563 Q123.8219,1265.1563 123.6188,1264.9531 Q123.4156,1264.7656 123.3063,1264.25 Q123.2594,1263.8906 123.0719,1263.7031 Q122.7438,1263.3281 122.1344,1263.1094 Q121.525,1262.8906 120.9,1262.8906 Q120.1344,1262.8906 119.5016,1263.2188 Q118.8688,1263.5469 118.3766,1264.2969 Q117.8844,1265.0469 117.8844,1266.0781 L117.8844,1267.1719 Q117.8844,1268.4063 118.775,1269.2266 Q119.6656,1270.0469 121.2594,1270.0469 Q122.1969,1270.0469 122.8531,1269.7969 Q123.2438,1269.6406 123.6656,1269.2031 Q123.9313,1268.9375 124.0797,1268.8594 Q124.2281,1268.7813 124.4313,1268.7813 Q124.7594,1268.7813 125.0172,1269.0391 Q125.275,1269.2969 125.275,1269.6406 Q125.275,1269.9844 124.9313,1270.3906 Q124.4313,1270.9688 123.6344,1271.2969 Q122.5563,1271.75 121.2594,1271.75 Q119.7438,1271.75 118.5406,1271.125 Q117.5563,1270.625 116.8688,1269.5547 Q116.1813,1268.4844 116.1813,1267.2031 L116.1813,1266.0469 Q116.1813,1264.7188 116.7984,1263.5703 Q117.4156,1262.4219 118.5094,1261.8047 Q119.6031,1261.1875 120.8375,1261.1875 Q121.5719,1261.1875 122.2203,1261.3516 Q122.8688,1261.5156 123.4156,1261.875 Z "/><text fill="#000000" font-family="sans-serif" font-size="12" lengthAdjust="spacingAndGlyphs" textLength="125" x="136.35" y="1270.9102">ExecutableFileListener</text><line style="stroke: #A80036; stroke-width: 1.5;" x1="99" x2="271" y1="1282" y2="1282"/><line style="stroke: #A80036; stroke-width: 1.5;" x1="99" x2="271" y1="1290" y2="1290"/><ellipse cx="109" cy="1302.418" fill="#84BE84" rx="3" ry="3" style="stroke: #038048; stroke-width: 1.0;"/><text fill="#000000" font-family="sans-serif" font-size="11" lengthAdjust="spacingAndGlyphs" textLength="56" x="118" y="1305.4189">void &lt;init&gt;()</text><ellipse cx="109" cy="1316.2539" fill="#84BE84" rx="3" ry="3" style="stroke: #038048; stroke-width: 1.0;"/><text fill="#000000" font-family="sans-serif" font-size="11" lengthAdjust="spacingAndGlyphs" textLength="148" x="118" y="1319.2549">void execute(java.nio.file.Path)</text><!--class NewTestStructure.DataFileRunnerTest--><rect fill="#FEFECE" filter="url(#f1nzuou9y3kyta)" height="200.1953" id="NewTestStructure.DataFileRunnerTest" style="stroke: #A80036; stroke-width: 1.5;" width="228" x="1437" y="60"/><ellipse cx="1491.25" cy="76" fill="#ADD1B2" rx="11" ry="11" style="stroke: #A80036; stroke-width: 1.0;"/><path d="M1494.0156,71.875 Q1494.1719,71.6563 1494.3594,71.5469 Q1494.5469,71.4375 1494.7656,71.4375 Q1495.1406,71.4375 1495.375,71.6953 Q1495.6094,71.9531 1495.6094,72.5625 L1495.6094,74.0156 Q1495.6094,74.625 1495.375,74.8906 Q1495.1406,75.1563 1494.7656,75.1563 Q1494.4219,75.1563 1494.2188,74.9531 Q1494.0156,74.7656 1493.9063,74.25 Q1493.8594,73.8906 1493.6719,73.7031 Q1493.3438,73.3281 1492.7344,73.1094 Q1492.125,72.8906 1491.5,72.8906 Q1490.7344,72.8906 1490.1016,73.2188 Q1489.4688,73.5469 1488.9766,74.2969 Q1488.4844,75.0469 1488.4844,76.0781 L1488.4844,77.1719 Q1488.4844,78.4063 1489.375,79.2266 Q1490.2656,80.0469 1491.8594,80.0469 Q1492.7969,80.0469 1493.4531,79.7969 Q1493.8438,79.6406 1494.2656,79.2031 Q1494.5313,78.9375 1494.6797,78.8594 Q1494.8281,78.7813 1495.0313,78.7813 Q1495.3594,78.7813 1495.6172,79.0391 Q1495.875,79.2969 1495.875,79.6406 Q1495.875,79.9844 1495.5313,80.3906 Q1495.0313,80.9688 1494.2344,81.2969 Q1493.1563,81.75 1491.8594,81.75 Q1490.3438,81.75 1489.1406,81.125 Q1488.1563,80.625 1487.4688,79.5547 Q1486.7813,78.4844 1486.7813,77.2031 L1486.7813,76.0469 Q1486.7813,74.7188 1487.3984,73.5703 Q1488.0156,72.4219 1489.1094,71.8047 Q1490.2031,71.1875 1491.4375,71.1875 Q1492.1719,71.1875 1492.8203,71.3516 Q1493.4688,71.5156 1494.0156,71.875 Z "/><text fill="#000000" font-family="sans-serif" font-size="12" lengthAdjust="spacingAndGlyphs" textLength="111" x="1511.75" y="80.9102">DataFileRunnerTest</text><line style="stroke: #A80036; stroke-width: 1.5;" x1="1438" x2="1664" y1="92" y2="92"/><rect fill="none" height="6" style="stroke: #C82930; stroke-width: 1.0;" width="6" x="1445" y="101.418"/><text fill="#000000" font-family="sans-serif" font-size="11" lengthAdjust="spacingAndGlyphs" textLength="202" x="1457" y="107.4189">problem.DirectoryMonitorService launcher</text><rect fill="none" height="6" style="stroke: #C82930; stroke-width: 1.0;" width="6" x="1445" y="115.2539"/><text fill="#000000" font-family="sans-serif" font-size="11" lengthAdjust="spacingAndGlyphs" textLength="114" x="1457" y="121.2549">java.lang.String baseDir</text><rect fill="none" height="6" style="stroke: #C82930; stroke-width: 1.0;" width="6" x="1445" y="129.0898"/><text fill="#000000" font-family="sans-serif" font-size="11" lengthAdjust="spacingAndGlyphs" textLength="124" x="1457" y="135.0908">java.lang.String srcTxtFile</text><rect fill="none" height="6" style="stroke: #C82930; stroke-width: 1.0;" width="6" x="1445" y="142.9258"/><text fill="#000000" font-family="sans-serif" font-size="11" lengthAdjust="spacingAndGlyphs" textLength="129" x="1457" y="148.9268">java.lang.String destTxtFile</text><rect fill="none" height="6" style="stroke: #C82930; stroke-width: 1.0;" width="6" x="1445" y="156.7617"/><text fill="#000000" font-family="sans-serif" font-size="11" lengthAdjust="spacingAndGlyphs" textLength="129" x="1457" y="162.7627">java.lang.String srcHtmlFile</text><rect fill="none" height="6" style="stroke: #C82930; stroke-width: 1.0;" width="6" x="1445" y="170.5977"/><text fill="#000000" font-family="sans-serif" font-size="11" lengthAdjust="spacingAndGlyphs" textLength="134" x="1457" y="176.5986">java.lang.String destHtmlFile</text><line style="stroke: #A80036; stroke-width: 1.5;" x1="1438" x2="1664" y1="183.0156" y2="183.0156"/><ellipse cx="1448" cy="195.4336" fill="#84BE84" rx="3" ry="3" style="stroke: #038048; stroke-width: 1.0;"/><text fill="#000000" font-family="sans-serif" font-size="11" lengthAdjust="spacingAndGlyphs" textLength="56" x="1457" y="198.4346">void &lt;init&gt;()</text><ellipse cx="1448" cy="209.2695" fill="#84BE84" rx="3" ry="3" style="stroke: #038048; stroke-width: 1.0;"/><text fill="#000000" font-family="sans-serif" font-size="11" lengthAdjust="spacingAndGlyphs" textLength="59" x="1457" y="212.2705">void setUp()</text><ellipse cx="1448" cy="223.1055" fill="#84BE84" rx="3" ry="3" style="stroke: #038048; stroke-width: 1.0;"/><text fill="#000000" font-family="sans-serif" font-size="11" lengthAdjust="spacingAndGlyphs" textLength="79" x="1457" y="226.1064">void tearDown()</text><ellipse cx="1448" cy="236.9414" fill="#84BE84" rx="3" ry="3" style="stroke: #038048; stroke-width: 1.0;"/><text fill="#000000" font-family="sans-serif" font-size="11" lengthAdjust="spacingAndGlyphs" textLength="162" x="1457" y="239.9424">void testLaunchDefaultBrowser()</text><ellipse cx="1448" cy="250.7773" fill="#84BE84" rx="3" ry="3" style="stroke: #038048; stroke-width: 1.0;"/><text fill="#000000" font-family="sans-serif" font-size="11" lengthAdjust="spacingAndGlyphs" textLength="125" x="1457" y="253.7783">void testLaunchNotepad()</text><!--class NewTestStructure.DirectoryChangeLoggerTest--><rect fill="#FEFECE" filter="url(#f1nzuou9y3kyta)" height="186.3594" id="NewTestStructure.DirectoryChangeLoggerTest" style="stroke: #A80036; stroke-width: 1.5;" width="228" x="1174" y="67"/><ellipse cx="1207.45" cy="83" fill="#ADD1B2" rx="11" ry="11" style="stroke: #A80036; stroke-width: 1.0;"/><path d="M1210.2156,78.875 Q1210.3719,78.6563 1210.5594,78.5469 Q1210.7469,78.4375 1210.9656,78.4375 Q1211.3406,78.4375 1211.575,78.6953 Q1211.8094,78.9531 1211.8094,79.5625 L1211.8094,81.0156 Q1211.8094,81.625 1211.575,81.8906 Q1211.3406,82.1563 1210.9656,82.1563 Q1210.6219,82.1563 1210.4188,81.9531 Q1210.2156,81.7656 1210.1063,81.25 Q1210.0594,80.8906 1209.8719,80.7031 Q1209.5438,80.3281 1208.9344,80.1094 Q1208.325,79.8906 1207.7,79.8906 Q1206.9344,79.8906 1206.3016,80.2188 Q1205.6688,80.5469 1205.1766,81.2969 Q1204.6844,82.0469 1204.6844,83.0781 L1204.6844,84.1719 Q1204.6844,85.4063 1205.575,86.2266 Q1206.4656,87.0469 1208.0594,87.0469 Q1208.9969,87.0469 1209.6531,86.7969 Q1210.0438,86.6406 1210.4656,86.2031 Q1210.7313,85.9375 1210.8797,85.8594 Q1211.0281,85.7813 1211.2313,85.7813 Q1211.5594,85.7813 1211.8172,86.0391 Q1212.075,86.2969 1212.075,86.6406 Q1212.075,86.9844 1211.7313,87.3906 Q1211.2313,87.9688 1210.4344,88.2969 Q1209.3563,88.75 1208.0594,88.75 Q1206.5438,88.75 1205.3406,88.125 Q1204.3563,87.625 1203.6688,86.5547 Q1202.9813,85.4844 1202.9813,84.2031 L1202.9813,83.0469 Q1202.9813,81.7188 1203.5984,80.5703 Q1204.2156,79.4219 1205.3094,78.8047 Q1206.4031,78.1875 1207.6375,78.1875 Q1208.3719,78.1875 1209.0203,78.3516 Q1209.6688,78.5156 1210.2156,78.875 Z "/><text fill="#000000" font-family="sans-serif" font-size="12" lengthAdjust="spacingAndGlyphs" textLength="155" x="1225.55" y="87.9102">DirectoryChangeLoggerTest</text><line style="stroke: #A80036; stroke-width: 1.5;" x1="1175" x2="1401" y1="99" y2="99"/><rect fill="none" height="6" style="stroke: #C82930; stroke-width: 1.0;" width="6" x="1182" y="108.418"/><text fill="#000000" font-family="sans-serif" font-size="11" lengthAdjust="spacingAndGlyphs" textLength="202" x="1194" y="114.4189">problem.DirectoryMonitorService launcher</text><rect fill="none" height="6" style="stroke: #C82930; stroke-width: 1.0;" width="6" x="1182" y="122.2539"/><text fill="#000000" font-family="sans-serif" font-size="11" lengthAdjust="spacingAndGlyphs" textLength="114" x="1194" y="128.2549">java.lang.String baseDir</text><rect fill="none" height="6" style="stroke: #C82930; stroke-width: 1.0;" width="6" x="1182" y="136.0898"/><text fill="#000000" font-family="sans-serif" font-size="11" lengthAdjust="spacingAndGlyphs" textLength="124" x="1194" y="142.0908">java.lang.String srcTxtFile</text><rect fill="none" height="6" style="stroke: #C82930; stroke-width: 1.0;" width="6" x="1182" y="149.9258"/><text fill="#000000" font-family="sans-serif" font-size="11" lengthAdjust="spacingAndGlyphs" textLength="129" x="1194" y="155.9268">java.lang.String destTxtFile</text><rect fill="none" height="6" style="stroke: #C82930; stroke-width: 1.0;" width="6" x="1182" y="163.7617"/><text fill="#000000" font-family="sans-serif" font-size="11" lengthAdjust="spacingAndGlyphs" textLength="129" x="1194" y="169.7627">java.lang.String srcHtmlFile</text><rect fill="none" height="6" style="stroke: #C82930; stroke-width: 1.0;" width="6" x="1182" y="177.5977"/><text fill="#000000" font-family="sans-serif" font-size="11" lengthAdjust="spacingAndGlyphs" textLength="134" x="1194" y="183.5986">java.lang.String destHtmlFile</text><line style="stroke: #A80036; stroke-width: 1.5;" x1="1175" x2="1401" y1="190.0156" y2="190.0156"/><ellipse cx="1185" cy="202.4336" fill="#84BE84" rx="3" ry="3" style="stroke: #038048; stroke-width: 1.0;"/><text fill="#000000" font-family="sans-serif" font-size="11" lengthAdjust="spacingAndGlyphs" textLength="56" x="1194" y="205.4346">void &lt;init&gt;()</text><ellipse cx="1185" cy="216.2695" fill="#84BE84" rx="3" ry="3" style="stroke: #038048; stroke-width: 1.0;"/><text fill="#000000" font-family="sans-serif" font-size="11" lengthAdjust="spacingAndGlyphs" textLength="59" x="1194" y="219.2705">void setUp()</text><ellipse cx="1185" cy="230.1055" fill="#84BE84" rx="3" ry="3" style="stroke: #038048; stroke-width: 1.0;"/><text fill="#000000" font-family="sans-serif" font-size="11" lengthAdjust="spacingAndGlyphs" textLength="79" x="1194" y="233.1064">void tearDown()</text><ellipse cx="1185" cy="243.9414" fill="#84BE84" rx="3" ry="3" style="stroke: #038048; stroke-width: 1.0;"/><text fill="#000000" font-family="sans-serif" font-size="11" lengthAdjust="spacingAndGlyphs" textLength="125" x="1194" y="246.9424">void testLaunchNotepad()</text><!--class NewTestStructure.DirectoryEventTest--><rect fill="#FEFECE" filter="url(#f1nzuou9y3kyta)" height="75.6719" id="NewTestStructure.DirectoryEventTest" style="stroke: #A80036; stroke-width: 1.5;" width="134" x="1963" y="122"/><ellipse cx="1978" cy="138" fill="#ADD1B2" rx="11" ry="11" style="stroke: #A80036; stroke-width: 1.0;"/><path d="M1980.7656,133.875 Q1980.9219,133.6563 1981.1094,133.5469 Q1981.2969,133.4375 1981.5156,133.4375 Q1981.8906,133.4375 1982.125,133.6953 Q1982.3594,133.9531 1982.3594,134.5625 L1982.3594,136.0156 Q1982.3594,136.625 1982.125,136.8906 Q1981.8906,137.1563 1981.5156,137.1563 Q1981.1719,137.1563 1980.9688,136.9531 Q1980.7656,136.7656 1980.6563,136.25 Q1980.6094,135.8906 1980.4219,135.7031 Q1980.0938,135.3281 1979.4844,135.1094 Q1978.875,134.8906 1978.25,134.8906 Q1977.4844,134.8906 1976.8516,135.2188 Q1976.2188,135.5469 1975.7266,136.2969 Q1975.2344,137.0469 1975.2344,138.0781 L1975.2344,139.1719 Q1975.2344,140.4063 1976.125,141.2266 Q1977.0156,142.0469 1978.6094,142.0469 Q1979.5469,142.0469 1980.2031,141.7969 Q1980.5938,141.6406 1981.0156,141.2031 Q1981.2813,140.9375 1981.4297,140.8594 Q1981.5781,140.7813 1981.7813,140.7813 Q1982.1094,140.7813 1982.3672,141.0391 Q1982.625,141.2969 1982.625,141.6406 Q1982.625,141.9844 1982.2813,142.3906 Q1981.7813,142.9688 1980.9844,143.2969 Q1979.9063,143.75 1978.6094,143.75 Q1977.0938,143.75 1975.8906,143.125 Q1974.9063,142.625 1974.2188,141.5547 Q1973.5313,140.4844 1973.5313,139.2031 L1973.5313,138.0469 Q1973.5313,136.7188 1974.1484,135.5703 Q1974.7656,134.4219 1975.8594,133.8047 Q1976.9531,133.1875 1978.1875,133.1875 Q1978.9219,133.1875 1979.5703,133.3516 Q1980.2188,133.5156 1980.7656,133.875 Z "/><text fill="#000000" font-family="sans-serif" font-size="12" lengthAdjust="spacingAndGlyphs" textLength="102" x="1992" y="142.9102">DirectoryEventTest</text><line style="stroke: #A80036; stroke-width: 1.5;" x1="1964" x2="2096" y1="154" y2="154"/><line style="stroke: #A80036; stroke-width: 1.5;" x1="1964" x2="2096" y1="162" y2="162"/><ellipse cx="1974" cy="174.418" fill="#84BE84" rx="3" ry="3" style="stroke: #038048; stroke-width: 1.0;"/><text fill="#000000" font-family="sans-serif" font-size="11" lengthAdjust="spacingAndGlyphs" textLength="56" x="1983" y="177.4189">void &lt;init&gt;()</text><ellipse cx="1974" cy="188.2539" fill="#84BE84" rx="3" ry="3" style="stroke: #038048; stroke-width: 1.0;"/><text fill="#000000" font-family="sans-serif" font-size="11" lengthAdjust="spacingAndGlyphs" textLength="49" x="1983" y="191.2549">void test()</text><!--class NewTestStructure.DirectoryMonitorServiceTest--><rect fill="#FEFECE" filter="url(#f1nzuou9y3kyta)" height="75.6719" id="NewTestStructure.DirectoryMonitorServiceTest" style="stroke: #A80036; stroke-width: 1.5;" width="184" x="955" y="122"/><ellipse cx="970" cy="138" fill="#ADD1B2" rx="11" ry="11" style="stroke: #A80036; stroke-width: 1.0;"/><path d="M972.7656,133.875 Q972.9219,133.6563 973.1094,133.5469 Q973.2969,133.4375 973.5156,133.4375 Q973.8906,133.4375 974.125,133.6953 Q974.3594,133.9531 974.3594,134.5625 L974.3594,136.0156 Q974.3594,136.625 974.125,136.8906 Q973.8906,137.1563 973.5156,137.1563 Q973.1719,137.1563 972.9688,136.9531 Q972.7656,136.7656 972.6563,136.25 Q972.6094,135.8906 972.4219,135.7031 Q972.0938,135.3281 971.4844,135.1094 Q970.875,134.8906 970.25,134.8906 Q969.4844,134.8906 968.8516,135.2188 Q968.2188,135.5469 967.7266,136.2969 Q967.2344,137.0469 967.2344,138.0781 L967.2344,139.1719 Q967.2344,140.4063 968.125,141.2266 Q969.0156,142.0469 970.6094,142.0469 Q971.5469,142.0469 972.2031,141.7969 Q972.5938,141.6406 973.0156,141.2031 Q973.2813,140.9375 973.4297,140.8594 Q973.5781,140.7813 973.7813,140.7813 Q974.1094,140.7813 974.3672,141.0391 Q974.625,141.2969 974.625,141.6406 Q974.625,141.9844 974.2813,142.3906 Q973.7813,142.9688 972.9844,143.2969 Q971.9063,143.75 970.6094,143.75 Q969.0938,143.75 967.8906,143.125 Q966.9063,142.625 966.2188,141.5547 Q965.5313,140.4844 965.5313,139.2031 L965.5313,138.0469 Q965.5313,136.7188 966.1484,135.5703 Q966.7656,134.4219 967.8594,133.8047 Q968.9531,133.1875 970.1875,133.1875 Q970.9219,133.1875 971.5703,133.3516 Q972.2188,133.5156 972.7656,133.875 Z "/><text fill="#000000" font-family="sans-serif" font-size="12" lengthAdjust="spacingAndGlyphs" textLength="152" x="984" y="142.9102">DirectoryMonitorServiceTest</text><line style="stroke: #A80036; stroke-width: 1.5;" x1="956" x2="1138" y1="154" y2="154"/><line style="stroke: #A80036; stroke-width: 1.5;" x1="956" x2="1138" y1="162" y2="162"/><ellipse cx="966" cy="174.418" fill="#84BE84" rx="3" ry="3" style="stroke: #038048; stroke-width: 1.0;"/><text fill="#000000" font-family="sans-serif" font-size="11" lengthAdjust="spacingAndGlyphs" textLength="56" x="975" y="177.4189">void &lt;init&gt;()</text><ellipse cx="966" cy="188.2539" fill="#84BE84" rx="3" ry="3" style="stroke: #038048; stroke-width: 1.0;"/><text fill="#000000" font-family="sans-serif" font-size="11" lengthAdjust="spacingAndGlyphs" textLength="72" x="975" y="191.2549">void testStart()</text><!--class NewTestStructure.ExecutableFileListenerTest--><rect fill="#FEFECE" filter="url(#f1nzuou9y3kyta)" height="186.3594" id="NewTestStructure.ExecutableFileListenerTest" style="stroke: #A80036; stroke-width: 1.5;" width="228" x="1700" y="67"/><ellipse cx="1736.15" cy="83" fill="#ADD1B2" rx="11" ry="11" style="stroke: #A80036; stroke-width: 1.0;"/><path d="M1738.9156,78.875 Q1739.0719,78.6563 1739.2594,78.5469 Q1739.4469,78.4375 1739.6656,78.4375 Q1740.0406,78.4375 1740.275,78.6953 Q1740.5094,78.9531 1740.5094,79.5625 L1740.5094,81.0156 Q1740.5094,81.625 1740.275,81.8906 Q1740.0406,82.1563 1739.6656,82.1563 Q1739.3219,82.1563 1739.1188,81.9531 Q1738.9156,81.7656 1738.8063,81.25 Q1738.7594,80.8906 1738.5719,80.7031 Q1738.2438,80.3281 1737.6344,80.1094 Q1737.025,79.8906 1736.4,79.8906 Q1735.6344,79.8906 1735.0016,80.2188 Q1734.3688,80.5469 1733.8766,81.2969 Q1733.3844,82.0469 1733.3844,83.0781 L1733.3844,84.1719 Q1733.3844,85.4063 1734.275,86.2266 Q1735.1656,87.0469 1736.7594,87.0469 Q1737.6969,87.0469 1738.3531,86.7969 Q1738.7438,86.6406 1739.1656,86.2031 Q1739.4313,85.9375 1739.5797,85.8594 Q1739.7281,85.7813 1739.9313,85.7813 Q1740.2594,85.7813 1740.5172,86.0391 Q1740.775,86.2969 1740.775,86.6406 Q1740.775,86.9844 1740.4313,87.3906 Q1739.9313,87.9688 1739.1344,88.2969 Q1738.0563,88.75 1736.7594,88.75 Q1735.2438,88.75 1734.0406,88.125 Q1733.0563,87.625 1732.3688,86.5547 Q1731.6813,85.4844 1731.6813,84.2031 L1731.6813,83.0469 Q1731.6813,81.7188 1732.2984,80.5703 Q1732.9156,79.4219 1734.0094,78.8047 Q1735.1031,78.1875 1736.3375,78.1875 Q1737.0719,78.1875 1737.7203,78.3516 Q1738.3688,78.5156 1738.9156,78.875 Z "/><text fill="#000000" font-family="sans-serif" font-size="12" lengthAdjust="spacingAndGlyphs" textLength="149" x="1754.85" y="87.9102">ExecutableFileListenerTest</text><line style="stroke: #A80036; stroke-width: 1.5;" x1="1701" x2="1927" y1="99" y2="99"/><rect fill="none" height="6" style="stroke: #C82930; stroke-width: 1.0;" width="6" x="1708" y="108.418"/><text fill="#000000" font-family="sans-serif" font-size="11" lengthAdjust="spacingAndGlyphs" textLength="202" x="1720" y="114.4189">problem.DirectoryMonitorService launcher</text><rect fill="none" height="6" style="stroke: #C82930; stroke-width: 1.0;" width="6" x="1708" y="122.2539"/><text fill="#000000" font-family="sans-serif" font-size="11" lengthAdjust="spacingAndGlyphs" textLength="114" x="1720" y="128.2549">java.lang.String baseDir</text><rect fill="none" height="6" style="stroke: #C82930; stroke-width: 1.0;" width="6" x="1708" y="136.0898"/><text fill="#000000" font-family="sans-serif" font-size="11" lengthAdjust="spacingAndGlyphs" textLength="124" x="1720" y="142.0908">java.lang.String srcTxtFile</text><rect fill="none" height="6" style="stroke: #C82930; stroke-width: 1.0;" width="6" x="1708" y="149.9258"/><text fill="#000000" font-family="sans-serif" font-size="11" lengthAdjust="spacingAndGlyphs" textLength="129" x="1720" y="155.9268">java.lang.String destTxtFile</text><rect fill="none" height="6" style="stroke: #C82930; stroke-width: 1.0;" width="6" x="1708" y="163.7617"/><text fill="#000000" font-family="sans-serif" font-size="11" lengthAdjust="spacingAndGlyphs" textLength="129" x="1720" y="169.7627">java.lang.String srcHtmlFile</text><rect fill="none" height="6" style="stroke: #C82930; stroke-width: 1.0;" width="6" x="1708" y="177.5977"/><text fill="#000000" font-family="sans-serif" font-size="11" lengthAdjust="spacingAndGlyphs" textLength="134" x="1720" y="183.5986">java.lang.String destHtmlFile</text><line style="stroke: #A80036; stroke-width: 1.5;" x1="1701" x2="1927" y1="190.0156" y2="190.0156"/><ellipse cx="1711" cy="202.4336" fill="#84BE84" rx="3" ry="3" style="stroke: #038048; stroke-width: 1.0;"/><text fill="#000000" font-family="sans-serif" font-size="11" lengthAdjust="spacingAndGlyphs" textLength="56" x="1720" y="205.4346">void &lt;init&gt;()</text><ellipse cx="1711" cy="216.2695" fill="#84BE84" rx="3" ry="3" style="stroke: #038048; stroke-width: 1.0;"/><text fill="#000000" font-family="sans-serif" font-size="11" lengthAdjust="spacingAndGlyphs" textLength="59" x="1720" y="219.2705">void setUp()</text><ellipse cx="1711" cy="230.1055" fill="#84BE84" rx="3" ry="3" style="stroke: #038048; stroke-width: 1.0;"/><text fill="#000000" font-family="sans-serif" font-size="11" lengthAdjust="spacingAndGlyphs" textLength="79" x="1720" y="233.1064">void tearDown()</text><ellipse cx="1711" cy="243.9414" fill="#84BE84" rx="3" ry="3" style="stroke: #038048; stroke-width: 1.0;"/><text fill="#000000" font-family="sans-serif" font-size="11" lengthAdjust="spacingAndGlyphs" textLength="49" x="1720" y="246.9424">void test()</text><!--link problem.IDirectoryListener to problem.ApplicationLauncher--><path d="M389.205,732.402 C414.618,756.267 445.704,785.459 475.029,812.998 " fill="none" id="problem.IDirectoryListener-problem.ApplicationLauncher" style="stroke: #A80036; stroke-width: 1.0; stroke-dasharray: 7.0,7.0;"/><polygon fill="none" points="384.355,737.451,374.568,718.657,393.939,727.246,384.355,737.451" style="stroke: #A80036; stroke-width: 1.0;"/><!--link problem.ProcessRunner to problem.DataFileRunner--><path d="M483.289,1206.536 C472.172,1221.624 461.064,1236.699 451.518,1249.654 " fill="none" id="problem.ProcessRunner-problem.DataFileRunner" style="stroke: #A80036; stroke-width: 1.0;"/><polygon fill="none" points="477.784,1202.206,495.284,1190.258,489.055,1210.511,477.784,1202.206" style="stroke: #A80036; stroke-width: 1.0;"/><!--link problem.IDirectoryListener to problem.DirectoryChangeLogger--><path d="M315.647,737.673 C304.129,771.106 289.543,813.443 277.925,847.165 " fill="none" id="problem.IDirectoryListener-problem.DirectoryChangeLogger" style="stroke: #A80036; stroke-width: 1.0; stroke-dasharray: 7.0,7.0;"/><polygon fill="none" points="309.066,735.286,322.199,718.657,322.302,739.847,309.066,735.286" style="stroke: #A80036; stroke-width: 1.0;"/><!--link problem.ProcessRunner to problem.ExecutableFileListener--><path d="M435.768,1173.874 C381.685,1198.272 317.126,1227.396 267.057,1249.982 " fill="none" id="problem.ProcessRunner-problem.ExecutableFileListener" style="stroke: #A80036; stroke-width: 1.0;"/><polygon fill="none" points="432.936,1167.472,454.046,1165.629,438.693,1180.234,432.936,1167.472" style="stroke: #A80036; stroke-width: 1.0;"/><!--link problem.DirectoryMonitorService to problem.IDirectoryListener--><path d="M554.722,534.624 C495.095,571.413 432.514,611.035 389.363,639.528 " fill="none" id="problem.DirectoryMonitorService-problem.IDirectoryListener" style="stroke: #A80036; stroke-width: 1.0;"/><polygon fill="#A80036" points="384.987,642.424,394.7001,640.7945,389.1571,639.6654,390.2863,634.1223,384.987,642.424" style="stroke: #A80036; stroke-width: 1.0;"/><text fill="#000000" font-family="sans-serif" font-size="13" lengthAdjust="spacingAndGlyphs" textLength="5" x="388.4456" y="631.7724">*</text><!--link problem.DirectoryMonitorService to problem.IDirectoryListener--><path d="M559.097,548.125 C506.629,581.001 451.434,614.762 408.874,639.827 " fill="none" id="problem.DirectoryMonitorService-problem.IDirectoryListener" style="stroke: #A80036; stroke-width: 1.0; stroke-dasharray: 7.0,7.0;"/><polygon fill="#A80036" points="404.534,642.378,414.3197,641.2643,408.8441,639.8436,410.2647,634.3681,404.534,642.378" style="stroke: #A80036; stroke-width: 1.0;"/><!--link problem.ApplicationLauncher to problem.ProcessRunner--><path d="M547.61,999.129 C544.793,1017.382 542.381,1036.26 540.673,1053.625 " fill="none" id="problem.ApplicationLauncher-problem.ProcessRunner" style="stroke: #A80036; stroke-width: 1.0;"/><polygon fill="#A80036" points="540.166,1058.963,545.0017,1050.383,540.6403,1053.9855,537.0378,1049.6241,540.166,1058.963" style="stroke: #A80036; stroke-width: 1.0;"/><text fill="#000000" font-family="sans-serif" font-size="13" lengthAdjust="spacingAndGlyphs" textLength="5" x="534.5493" y="1047.9748">*</text><!--link problem.ApplicationLauncher to problem.ProcessRunner--><path d="M573.6,999.129 C571.376,1017.382 568.543,1036.26 565.398,1053.625 " fill="none" id="problem.ApplicationLauncher-problem.ProcessRunner" style="stroke: #A80036; stroke-width: 1.0; stroke-dasharray: 7.0,7.0;"/><polygon fill="#A80036" points="564.413,1058.963,569.9817,1050.8396,565.3215,1054.0462,562.1149,1049.386,564.413,1058.963" style="stroke: #A80036; stroke-width: 1.0;"/><!--link NewTestStructure.DataFileRunnerTest to problem.ApplicationLauncher--><path d="M1489.35,260.27 C1403.13,391.244 1234.51,620.605 1035,753 C942.725,814.232 823.738,852.619 729.627,875.497 " fill="none" id="NewTestStructure.DataFileRunnerTest-problem.ApplicationLauncher" style="stroke: #A80036; stroke-width: 1.0; stroke-dasharray: 7.0,7.0;"/><polygon fill="#A80036" points="724.6,876.71,734.2871,878.4877,729.4605,875.5374,732.4109,870.7108,724.6,876.71" style="stroke: #A80036; stroke-width: 1.0;"/><!--link problem.AppLauncher to problem.AppLauncher--><path d="M353.849,393.325 C374.683,400.262 388.5,413.82 388.5,434 C388.5,452.603 376.757,465.579 358.6,472.928 " fill="none" id="problem.AppLauncher-problem.AppLauncher" style="stroke: #A80036; stroke-width: 1.0; stroke-dasharray: 7.0,7.0;"/><polygon fill="#A80036" points="353.849,474.675,363.6765,475.323,358.5418,472.9493,360.9154,467.8146,353.849,474.675" style="stroke: #A80036; stroke-width: 1.0;"/><!--link NewTestStructure.DataFileRunnerTest to problem.DirectoryMonitorService--><path d="M1456.83,260.06 C1445.08,269.1 1432.71,277.34 1420,284 C1396.95,296.09 1101.61,357.29 904.002,397.401 " fill="none" id="NewTestStructure.DataFileRunnerTest-problem.DirectoryMonitorService" style="stroke: #A80036; stroke-width: 1.0; stroke-dasharray: 7.0,7.0;"/><polygon fill="#A80036" points="899.061,398.404,908.6767,400.5343,903.9611,397.4097,907.0858,392.6941,899.061,398.404" style="stroke: #A80036; stroke-width: 1.0;"/><!--link NewTestStructure.DirectoryChangeLoggerTest to problem.DirectoryMonitorService--><path d="M1201.84,253.24 C1187.46,264.96 1172,275.72 1156,284 C1086.25,320.1 1057.78,296.01 983,320 C957.088,328.31 930.26,338.4 904.156,349.08 " fill="none" id="NewTestStructure.DirectoryChangeLoggerTest-problem.DirectoryMonitorService" style="stroke: #A80036; stroke-width: 1.0; stroke-dasharray: 7.0,7.0;"/><polygon fill="#A80036" points="899.291,351.08,909.1359,351.3575,903.9155,349.1788,906.0941,343.9583,899.291,351.08" style="stroke: #A80036; stroke-width: 1.0;"/><!--link NewTestStructure.DirectoryMonitorServiceTest to problem.DirectoryMonitorService--><path d="M1008.76,198.16 C982.796,223.01 947.421,256.12 915,284 C902.551,294.7 889.478,305.64 876.268,316.49 " fill="none" id="NewTestStructure.DirectoryMonitorServiceTest-problem.DirectoryMonitorService" style="stroke: #A80036; stroke-width: 1.0; stroke-dasharray: 7.0,7.0;"/><polygon fill="#A80036" points="872.165,319.86,881.6578,317.2359,876.0278,316.6853,876.5784,311.0553,872.165,319.86" style="stroke: #A80036; stroke-width: 1.0;"/><!--link problem.AppLauncherSupportTest to problem.AppLauncher--><path d="M296.922,260.35 C285.162,280.47 272.725,301.75 260.752,322.23 " fill="none" id="problem.AppLauncherSupportTest-problem.AppLauncher" style="stroke: #A80036; stroke-width: 1.0; stroke-dasharray: 7.0,7.0;"/><polygon fill="#A80036" points="258.204,326.59,266.1899,320.8259,260.7203,322.2693,259.2769,316.7998,258.204,326.59" style="stroke: #A80036; stroke-width: 1.0;"/><!--link problem.AppLauncherApplication to problem.DirectoryMonitorService--><path d="M689.889,198.25 C694.663,228.45 701.665,272.74 708.305,314.74 " fill="none" id="problem.AppLauncherApplication-problem.DirectoryMonitorService" style="stroke: #A80036; stroke-width: 1.0; stroke-dasharray: 7.0,7.0;"/><polygon fill="#A80036" points="709.112,319.85,711.6482,310.3333,708.3264,314.9121,703.7476,311.5903,709.112,319.85" style="stroke: #A80036; stroke-width: 1.0;"/><!--link problem.AppLauncherBaseCaseTest to problem.AppLauncher--><path d="M140.765,198.25 C148.264,230.12 159.457,277.69 169.811,321.7 " fill="none" id="problem.AppLauncherBaseCaseTest-problem.AppLauncher" style="stroke: #A80036; stroke-width: 1.0; stroke-dasharray: 7.0,7.0;"/><polygon fill="#A80036" points="171.004,326.77,172.8407,317.0939,169.861,321.9024,165.0526,318.9227,171.004,326.77" style="stroke: #A80036; stroke-width: 1.0;"/><!--link problem.AppLauncherApplication to problem.DirectoryChangeLogger--><path d="M661.31,198.02 C643.077,225.07 615.247,260.93 583,284 C545.941,310.51 515.578,284.51 487,320 C422.787,399.751 524.549,473.795 454,548 C358.808,648.125 236.756,501.298 149,608 C92.1578,677.114 151.814,778.55 202.709,843.175 " fill="none" id="problem.AppLauncherApplication-problem.DirectoryChangeLogger" style="stroke: #A80036; stroke-width: 1.0; stroke-dasharray: 7.0,7.0;"/><polygon fill="#A80036" points="206.047,847.378,203.5801,837.8431,202.9366,843.4632,197.3165,842.8197,206.047,847.378" style="stroke: #A80036; stroke-width: 1.0;"/><!--link NewTestStructure.DirectoryChangeLoggerTest to problem.DirectoryChangeLogger--><path d="M1235.94,253.24 C1145.57,411.847 964.688,722.257 916,753 C722.275,875.325 620.038,736.708 404,813 C381.978,820.777 359.829,832.349 339.674,844.683 " fill="none" id="NewTestStructure.DirectoryChangeLoggerTest-problem.DirectoryChangeLogger" style="stroke: #A80036; stroke-width: 1.0; stroke-dasharray: 7.0,7.0;"/><polygon fill="#A80036" points="335.404,847.325,345.1619,845.9895,339.6555,844.6935,340.9515,839.1871,335.404,847.325" style="stroke: #A80036; stroke-width: 1.0;"/><!--link problem.DirectoryEvent to problem.DirectoryMonitorService--><path d="M720.34,607.764 C722.996,590.708 725.414,572.06 727.406,553.526 " fill="none" id="problem.DirectoryEvent-problem.DirectoryMonitorService" style="stroke: #A80036; stroke-width: 1.0; stroke-dasharray: 7.0,7.0;"/><polygon fill="#A80036" points="727.956,548.303,723.0342,556.8339,727.4316,553.2754,730.99,557.6729,727.956,548.303" style="stroke: #A80036; stroke-width: 1.0;"/><!--link problem.DirectoryMonitorService to problem.DirectoryEvent--><path d="M701.768,548.303 C699.618,566.642 697.823,585.252 696.566,602.468 " fill="none" id="problem.DirectoryMonitorService-problem.DirectoryEvent" style="stroke: #A80036; stroke-width: 1.0; stroke-dasharray: 7.0,7.0;"/><polygon fill="#A80036" points="696.193,607.764,700.8156,599.0673,696.5444,602.7764,692.8353,598.5052,696.193,607.764" style="stroke: #A80036; stroke-width: 1.0;"/><!--link NewTestStructure.ExecutableFileListenerTest to problem.ApplicationLauncher--><path d="M1736.66,253.16 C1621.31,384.5 1391.12,623.881 1144,753 C1012.98,821.461 848.526,861.011 729.801,882.506 " fill="none" id="NewTestStructure.ExecutableFileListenerTest-problem.ApplicationLauncher" style="stroke: #A80036; stroke-width: 1.0; stroke-dasharray: 7.0,7.0;"/><polygon fill="#A80036" points="724.537,883.453,734.1032,885.7956,729.4579,882.5674,732.6862,877.9221,724.537,883.453" style="stroke: #A80036; stroke-width: 1.0;"/><!--link problem.AppLauncherApplication to problem.DataFileRunner--><path d="M662.479,198.05 C644.581,225.68 616.648,262.25 583,284 C531.57,317.24 490.614,274.17 450,320 C382.095,396.632 487.408,473.661 417,548 C323.797,646.406 205.421,504.423 118,608 C61.951,674.408 77.1471,919.396 112,999 C161.207,1111.388 278.307,1199.372 354.221,1247.18 " fill="none" id="problem.AppLauncherApplication-problem.DataFileRunner" style="stroke: #A80036; stroke-width: 1.0; stroke-dasharray: 7.0,7.0;"/><polygon fill="#A80036" points="358.708,1249.989,353.2032,1241.8222,354.4703,1247.3353,348.9572,1248.6024,358.708,1249.989" style="stroke: #A80036; stroke-width: 1.0;"/><!--link problem.AppLauncherApplication to problem.ExecutableFileListener--><path d="M663.178,198.01 C645.479,225.99 617.476,263.05 583,284 C516.997,324.1 464.704,262.63 413,320 C344.786,395.69 457.985,473.012 389,548 C292.511,652.886 164.859,498.201 74,608 C-84.8263,799.934 88.8232,1129.822 158.623,1245.476 " fill="none" id="problem.AppLauncherApplication-problem.ExecutableFileListener" style="stroke: #A80036; stroke-width: 1.0; stroke-dasharray: 7.0,7.0;"/><polygon fill="#A80036" points="161.264,1249.831,160.0199,1240.061,158.6724,1245.555,153.1784,1244.2075,161.264,1249.831" style="stroke: #A80036; stroke-width: 1.0;"/><!--link problem.AppLauncherApplication to problem.ApplicationLauncher--><path d="M657.001,198.05 C637.692,223.45 610.376,257.26 583,284 C564.429,302.14 550.634,297.91 537,320 C482.71,407.972 564.274,475.08 491,548 C393.074,645.453 273.756,501.298 186,608 C145.064,657.773 146.972,701.717 186,753 C246.598,832.627 310.183,775.615 403,813 C407.553,814.834 412.14,816.758 416.743,818.757 " fill="none" id="problem.AppLauncherApplication-problem.ApplicationLauncher" style="stroke: #A80036; stroke-width: 1.0; stroke-dasharray: 7.0,7.0;"/><polygon fill="#A80036" points="421.35,820.78,414.717,813.4996,416.7717,818.7701,411.5012,820.8249,421.35,820.78" style="stroke: #A80036; stroke-width: 1.0;"/><!--link NewTestStructure.ExecutableFileListenerTest to problem.DirectoryMonitorService--><path d="M1731.62,253.12 C1716.62,265.33 1700.22,276.27 1683,284 C1601.37,320.62 1370.53,307.05 1282,320 C1154.86,338.59 1012.9,367.646 904.388,391.638 " fill="none" id="NewTestStructure.ExecutableFileListenerTest-problem.DirectoryMonitorService" style="stroke: #A80036; stroke-width: 1.0; stroke-dasharray: 7.0,7.0;"/><polygon fill="#A80036" points="899.246,392.777,908.8981,394.7357,904.1276,391.6955,907.1678,386.925,899.246,392.777" style="stroke: #A80036; stroke-width: 1.0;"/><!--link NewTestStructure.DirectoryEventTest to problem.DirectoryEvent--><path d="M2012.99,198.27 C1998.72,225.64 1975.88,261.78 1946,284 C1628.99,519.774 1166.98,617.774 903.747,656.351 " fill="none" id="NewTestStructure.DirectoryEventTest-problem.DirectoryEvent" style="stroke: #A80036; stroke-width: 1.0; stroke-dasharray: 7.0,7.0;"/><polygon fill="#A80036" points="898.726,657.083,908.2089,659.7428,903.6737,656.3617,907.0548,651.8265,898.726,657.083" style="stroke: #A80036; stroke-width: 1.0;"/></g></svg>