<?xml version="1.0" encoding="UTF-8" standalone="no"?><svg xmlns="http://www.w3.org/2000/svg" xmlns:xlink="http://www.w3.org/1999/xlink" contentScriptType="application/ecmascript" contentStyleType="text/css" height="1047px" preserveAspectRatio="none" style="width:1280px;height:1047px;" version="1.1" viewBox="0 0 1280 1047" width="1280px" zoomAndPan="magnify"><defs><filter height="300%" id="f16u9o02nrmyz" width="300%" x="-1" y="-1"><feGaussianBlur result="blurOut" stdDeviation="2.0"/><feColorMatrix in="blurOut" result="blurOut2" type="matrix" values="0 0 0 0 0 0 0 0 0 0 0 0 0 0 0 0 0 0 .4 0"/><feOffset dx="4.0" dy="4.0" in="blurOut2" result="blurOut3"/><feBlend in="SourceGraphic" in2="blurOut3" mode="normal"/></filter></defs><g><!--class StarbuzzCoffee--><rect fill="#FEFECE" filter="url(#f16u9o02nrmyz)" height="75.6719" id="StarbuzzCoffee" style="stroke: #A80036; stroke-width: 1.5;" width="159" x="618" y="8"/><ellipse cx="653.25" cy="24" fill="#ADD1B2" rx="11" ry="11" style="stroke: #A80036; stroke-width: 1.0;"/><path d="M656.0156,19.875 Q656.1719,19.6563 656.3594,19.5469 Q656.5469,19.4375 656.7656,19.4375 Q657.1406,19.4375 657.375,19.6953 Q657.6094,19.9531 657.6094,20.5625 L657.6094,22.0156 Q657.6094,22.625 657.375,22.8906 Q657.1406,23.1563 656.7656,23.1563 Q656.4219,23.1563 656.2188,22.9531 Q656.0156,22.7656 655.9063,22.25 Q655.8594,21.8906 655.6719,21.7031 Q655.3438,21.3281 654.7344,21.1094 Q654.125,20.8906 653.5,20.8906 Q652.7344,20.8906 652.1016,21.2188 Q651.4688,21.5469 650.9766,22.2969 Q650.4844,23.0469 650.4844,24.0781 L650.4844,25.1719 Q650.4844,26.4063 651.375,27.2266 Q652.2656,28.0469 653.8594,28.0469 Q654.7969,28.0469 655.4531,27.7969 Q655.8438,27.6406 656.2656,27.2031 Q656.5313,26.9375 656.6797,26.8594 Q656.8281,26.7813 657.0313,26.7813 Q657.3594,26.7813 657.6172,27.0391 Q657.875,27.2969 657.875,27.6406 Q657.875,27.9844 657.5313,28.3906 Q657.0313,28.9688 656.2344,29.2969 Q655.1563,29.75 653.8594,29.75 Q652.3438,29.75 651.1406,29.125 Q650.1563,28.625 649.4688,27.5547 Q648.7813,26.4844 648.7813,25.2031 L648.7813,24.0469 Q648.7813,22.7188 649.3984,21.5703 Q650.0156,20.4219 651.1094,19.8047 Q652.2031,19.1875 653.4375,19.1875 Q654.1719,19.1875 654.8203,19.3516 Q655.4688,19.5156 656.0156,19.875 Z "/><text fill="#000000" font-family="sans-serif" font-size="12" lengthAdjust="spacingAndGlyphs" textLength="82" x="671.75" y="28.9102">StarbuzzCoffee</text><line style="stroke: #A80036; stroke-width: 1.5;" x1="619" x2="776" y1="40" y2="40"/><line style="stroke: #A80036; stroke-width: 1.5;" x1="619" x2="776" y1="48" y2="48"/><ellipse cx="629" cy="60.418" fill="#84BE84" rx="3" ry="3" style="stroke: #038048; stroke-width: 1.0;"/><text fill="#000000" font-family="sans-serif" font-size="11" lengthAdjust="spacingAndGlyphs" textLength="56" x="638" y="63.4189">void &lt;init&gt;()</text><ellipse cx="629" cy="74.2539" fill="#84BE84" rx="3" ry="3" style="stroke: #038048; stroke-width: 1.0;"/><text fill="#000000" font-family="sans-serif" font-size="11" lengthAdjust="spacingAndGlyphs" text-decoration="underline" textLength="133" x="638" y="77.2549">void main(java.lang.String[])</text><line style="stroke: #000000; stroke-width: 1.0;" x1="638" x2="771" y1="79.2549" y2="79.2549"/><!--class Beverage$Size--><rect fill="#FEFECE" filter="url(#f16u9o02nrmyz)" height="158.6875" id="Beverage$Size" style="stroke: #A80036; stroke-width: 1.5;" width="223" x="54" y="854"/><ellipse cx="120.25" cy="870" fill="#ADD1B2" rx="11" ry="11" style="stroke: #A80036; stroke-width: 1.0;"/><path d="M123.0156,865.875 Q123.1719,865.6563 123.3594,865.5469 Q123.5469,865.4375 123.7656,865.4375 Q124.1406,865.4375 124.375,865.6953 Q124.6094,865.9531 124.6094,866.5625 L124.6094,868.0156 Q124.6094,868.625 124.375,868.8906 Q124.1406,869.1563 123.7656,869.1563 Q123.4219,869.1563 123.2188,868.9531 Q123.0156,868.7656 122.9063,868.25 Q122.8594,867.8906 122.6719,867.7031 Q122.3438,867.3281 121.7344,867.1094 Q121.125,866.8906 120.5,866.8906 Q119.7344,866.8906 119.1016,867.2188 Q118.4688,867.5469 117.9766,868.2969 Q117.4844,869.0469 117.4844,870.0781 L117.4844,871.1719 Q117.4844,872.4063 118.375,873.2266 Q119.2656,874.0469 120.8594,874.0469 Q121.7969,874.0469 122.4531,873.7969 Q122.8438,873.6406 123.2656,873.2031 Q123.5313,872.9375 123.6797,872.8594 Q123.8281,872.7813 124.0313,872.7813 Q124.3594,872.7813 124.6172,873.0391 Q124.875,873.2969 124.875,873.6406 Q124.875,873.9844 124.5313,874.3906 Q124.0313,874.9688 123.2344,875.2969 Q122.1563,875.75 120.8594,875.75 Q119.3438,875.75 118.1406,875.125 Q117.1563,874.625 116.4688,873.5547 Q115.7813,872.4844 115.7813,871.2031 L115.7813,870.0469 Q115.7813,868.7188 116.3984,867.5703 Q117.0156,866.4219 118.1094,865.8047 Q119.2031,865.1875 120.4375,865.1875 Q121.1719,865.1875 121.8203,865.3516 Q122.4688,865.5156 123.0156,865.875 Z "/><text fill="#000000" font-family="sans-serif" font-size="12" lengthAdjust="spacingAndGlyphs" textLength="82" x="140.75" y="874.9102">Beverage$Size</text><line style="stroke: #A80036; stroke-width: 1.5;" x1="55" x2="276" y1="886" y2="886"/><ellipse cx="65" cy="898.418" fill="none" rx="3" ry="3" style="stroke: #038048; stroke-width: 1.0;"/><text fill="#000000" font-family="sans-serif" font-size="11" lengthAdjust="spacingAndGlyphs" text-decoration="underline" textLength="103" x="74" y="901.4189">Beverage$Size TALL</text><line style="stroke: #000000; stroke-width: 1.0;" x1="74" x2="177" y1="903.4189" y2="903.4189"/><ellipse cx="65" cy="912.2539" fill="none" rx="3" ry="3" style="stroke: #038048; stroke-width: 1.0;"/><text fill="#000000" font-family="sans-serif" font-size="11" lengthAdjust="spacingAndGlyphs" text-decoration="underline" textLength="120" x="74" y="915.2549">Beverage$Size GRANDE</text><line style="stroke: #000000; stroke-width: 1.0;" x1="74" x2="194" y1="917.2549" y2="917.2549"/><ellipse cx="65" cy="926.0898" fill="none" rx="3" ry="3" style="stroke: #038048; stroke-width: 1.0;"/><text fill="#000000" font-family="sans-serif" font-size="11" lengthAdjust="spacingAndGlyphs" text-decoration="underline" textLength="106" x="74" y="929.0908">Beverage$Size VENTI</text><line style="stroke: #000000; stroke-width: 1.0;" x1="74" x2="180" y1="931.0908" y2="931.0908"/><rect fill="none" height="6" style="stroke: #C82930; stroke-width: 1.0;" width="6" x="62" y="936.9258"/><text fill="#000000" font-family="sans-serif" font-size="11" lengthAdjust="spacingAndGlyphs" text-decoration="underline" textLength="159" x="74" y="942.9268">Beverage$Size[] ENUM$VALUES</text><line style="stroke: #000000; stroke-width: 1.0;" x1="74" x2="233" y1="944.9268" y2="944.9268"/><line style="stroke: #A80036; stroke-width: 1.5;" x1="55" x2="276" y1="949.3438" y2="949.3438"/><rect fill="#F24D5C" height="6" style="stroke: #C82930; stroke-width: 1.0;" width="6" x="62" y="958.7617"/><text fill="#000000" font-family="sans-serif" font-size="11" lengthAdjust="spacingAndGlyphs" text-decoration="underline" textLength="64" x="74" y="964.7627">void &lt;clinit&gt;()</text><line style="stroke: #000000; stroke-width: 1.0;" x1="74" x2="138" y1="966.7627" y2="966.7627"/><rect fill="#F24D5C" height="6" style="stroke: #C82930; stroke-width: 1.0;" width="6" x="62" y="972.5977"/><text fill="#000000" font-family="sans-serif" font-size="11" lengthAdjust="spacingAndGlyphs" textLength="144" x="74" y="978.5986">void &lt;init&gt;(java.lang.String,int)</text><ellipse cx="65" cy="989.4336" fill="#84BE84" rx="3" ry="3" style="stroke: #038048; stroke-width: 1.0;"/><text fill="#000000" font-family="sans-serif" font-size="11" lengthAdjust="spacingAndGlyphs" text-decoration="underline" textLength="123" x="74" y="992.4346">Beverage$Size[] values()</text><line style="stroke: #000000; stroke-width: 1.0;" x1="74" x2="197" y1="994.4346" y2="994.4346"/><ellipse cx="65" cy="1003.2695" fill="#84BE84" rx="3" ry="3" style="stroke: #038048; stroke-width: 1.0;"/><text fill="#000000" font-family="sans-serif" font-size="11" lengthAdjust="spacingAndGlyphs" text-decoration="underline" textLength="197" x="74" y="1006.2705">Beverage$Size valueOf(java.lang.String)</text><line style="stroke: #000000; stroke-width: 1.0;" x1="74" x2="271" y1="1008.2705" y2="1008.2705"/><!--class Beverage--><rect fill="#008000" filter="url(#f16u9o02nrmyz)" height="194.5469" id="Beverage" style="stroke: #A80036; stroke-width: 1.5;" width="219" x="500" y="598"/><rect fill="#008000" height="40.1875" style="stroke: #A80036; stroke-width: 1.5;" width="219" x="500" y="598"/><ellipse cx="569.25" cy="618.0938" fill="#A9DCDF" rx="11" ry="11" style="stroke: #A80036; stroke-width: 1.0;"/><path d="M571.4375,619.8594 L567.2969,619.8594 L566.875,620.8906 L567.2969,620.8906 Q567.9063,620.8906 568.1719,621.125 Q568.4375,621.3594 568.4375,621.75 Q568.4375,622.125 568.1719,622.3594 Q567.9063,622.5938 567.2969,622.5938 L565,622.5938 Q564.3906,622.5938 564.1328,622.3594 Q563.875,622.125 563.875,621.7344 Q563.875,621.3594 564.1484,621.1172 Q564.4219,620.875 565.0469,620.8906 L567.7188,614.2344 L566.6094,614.2344 Q566,614.2344 565.7344,614 Q565.4688,613.7656 565.4688,613.375 Q565.4688,613 565.7344,612.7656 Q566,612.5313 566.6094,612.5313 L570.2813,612.5313 L573.6719,620.8906 Q574.2656,620.8906 574.4531,621.0313 Q574.8438,621.2969 574.8438,621.75 Q574.8438,622.125 574.5859,622.3594 Q574.3281,622.5938 573.7188,622.5938 L571.4219,622.5938 Q570.8125,622.5938 570.5469,622.3594 Q570.2813,622.125 570.2813,621.7344 Q570.2813,621.3594 570.5469,621.125 Q570.8125,620.8906 571.4219,620.8906 L571.8438,620.8906 L571.4375,619.8594 Z M570.7188,618.1563 L569.3594,614.7813 L567.9844,618.1563 L570.7188,618.1563 Z "/><text fill="#000000" font-family="sans-serif" font-size="12" font-style="italic" lengthAdjust="spacingAndGlyphs" textLength="76" x="587.75" y="615.457">«component»</text><text fill="#000000" font-family="sans-serif" font-size="12" font-style="italic" lengthAdjust="spacingAndGlyphs" textLength="53" x="599.25" y="630.5508">Beverage</text><line style="stroke: #A80036; stroke-width: 1.5;" x1="501" x2="718" y1="638.1875" y2="638.1875"/><rect fill="none" height="6" style="stroke: #C82930; stroke-width: 1.0;" width="6" x="508" y="647.6055"/><text fill="#000000" font-family="sans-serif" font-size="11" lengthAdjust="spacingAndGlyphs" textLength="97" x="520" y="653.6064">Beverage$Size size</text><rect fill="none" height="6" style="stroke: #C82930; stroke-width: 1.0;" width="6" x="508" y="661.4414"/><text fill="#000000" font-family="sans-serif" font-size="11" lengthAdjust="spacingAndGlyphs" textLength="130" x="520" y="667.4424">java.lang.String description</text><rect fill="none" height="6" style="stroke: #C82930; stroke-width: 1.0;" width="6" x="508" y="675.2773"/><text fill="#000000" font-family="sans-serif" font-size="11" lengthAdjust="spacingAndGlyphs" textLength="149" x="520" y="681.2783">java.lang.String customerName</text><line style="stroke: #A80036; stroke-width: 1.5;" x1="501" x2="718" y1="687.6953" y2="687.6953"/><ellipse cx="511" cy="700.1133" fill="#84BE84" rx="3" ry="3" style="stroke: #038048; stroke-width: 1.0;"/><text fill="#000000" font-family="sans-serif" font-size="11" lengthAdjust="spacingAndGlyphs" textLength="56" x="520" y="703.1143">void &lt;init&gt;()</text><ellipse cx="511" cy="713.9492" fill="#84BE84" rx="3" ry="3" style="stroke: #038048; stroke-width: 1.0;"/><text fill="#000000" font-family="sans-serif" font-size="11" lengthAdjust="spacingAndGlyphs" textLength="154" x="520" y="716.9502">java.lang.String getDescription()</text><ellipse cx="511" cy="727.7852" fill="#84BE84" rx="3" ry="3" style="stroke: #038048; stroke-width: 1.0;"/><text fill="#000000" font-family="sans-serif" font-size="11" lengthAdjust="spacingAndGlyphs" textLength="141" x="520" y="730.7861">void setSize(Beverage$Size)</text><ellipse cx="511" cy="741.6211" fill="#84BE84" rx="3" ry="3" style="stroke: #038048; stroke-width: 1.0;"/><text fill="#000000" font-family="sans-serif" font-size="11" lengthAdjust="spacingAndGlyphs" textLength="121" x="520" y="744.6221">Beverage$Size getSize()</text><ellipse cx="511" cy="755.457" fill="#84BE84" rx="3" ry="3" style="stroke: #038048; stroke-width: 1.0;"/><text fill="#000000" font-family="sans-serif" font-size="11" lengthAdjust="spacingAndGlyphs" textLength="193" x="520" y="758.458">void setCustomerName(java.lang.String)</text><ellipse cx="511" cy="769.293" fill="#84BE84" rx="3" ry="3" style="stroke: #038048; stroke-width: 1.0;"/><text fill="#000000" font-family="sans-serif" font-size="11" lengthAdjust="spacingAndGlyphs" textLength="173" x="520" y="772.2939">java.lang.String getCustomerName()</text><ellipse cx="511" cy="783.1289" fill="#84BE84" rx="3" ry="3" style="stroke: #038048; stroke-width: 1.0;"/><text fill="#000000" font-family="sans-serif" font-size="11" font-style="italic" lengthAdjust="spacingAndGlyphs" textLength="66" x="520" y="786.1299">double cost()</text><!--class CondimentDecorator--><rect fill="#FEFECE" filter="url(#f16u9o02nrmyz)" height="103.3438" id="CondimentDecorator" style="stroke: #A80036; stroke-width: 1.5;" width="185" x="344" y="434"/><ellipse cx="376.1" cy="450" fill="#A9DCDF" rx="11" ry="11" style="stroke: #A80036; stroke-width: 1.0;"/><path d="M378.2875,451.7656 L374.1469,451.7656 L373.725,452.7969 L374.1469,452.7969 Q374.7563,452.7969 375.0219,453.0313 Q375.2875,453.2656 375.2875,453.6563 Q375.2875,454.0313 375.0219,454.2656 Q374.7563,454.5 374.1469,454.5 L371.85,454.5 Q371.2406,454.5 370.9828,454.2656 Q370.725,454.0313 370.725,453.6406 Q370.725,453.2656 370.9984,453.0234 Q371.2719,452.7813 371.8969,452.7969 L374.5688,446.1406 L373.4594,446.1406 Q372.85,446.1406 372.5844,445.9063 Q372.3188,445.6719 372.3188,445.2813 Q372.3188,444.9063 372.5844,444.6719 Q372.85,444.4375 373.4594,444.4375 L377.1313,444.4375 L380.5219,452.7969 Q381.1156,452.7969 381.3031,452.9375 Q381.6938,453.2031 381.6938,453.6563 Q381.6938,454.0313 381.4359,454.2656 Q381.1781,454.5 380.5688,454.5 L378.2719,454.5 Q377.6625,454.5 377.3969,454.2656 Q377.1313,454.0313 377.1313,453.6406 Q377.1313,453.2656 377.3969,453.0313 Q377.6625,452.7969 378.2719,452.7969 L378.6938,452.7969 L378.2875,451.7656 Z M377.5688,450.0625 L376.2094,446.6875 L374.8344,450.0625 L377.5688,450.0625 Z "/><text fill="#000000" font-family="sans-serif" font-size="12" font-style="italic" lengthAdjust="spacingAndGlyphs" textLength="115" x="393.9" y="454.9102">CondimentDecorator</text><line style="stroke: #A80036; stroke-width: 1.5;" x1="345" x2="528" y1="466" y2="466"/><ellipse cx="355" cy="478.418" fill="none" rx="3" ry="3" style="stroke: #038048; stroke-width: 1.0;"/><text fill="#000000" font-family="sans-serif" font-size="11" lengthAdjust="spacingAndGlyphs" textLength="96" x="364" y="481.4189">Beverage beverage</text><line style="stroke: #A80036; stroke-width: 1.5;" x1="345" x2="528" y1="487.8359" y2="487.8359"/><ellipse cx="355" cy="500.2539" fill="#84BE84" rx="3" ry="3" style="stroke: #038048; stroke-width: 1.0;"/><text fill="#000000" font-family="sans-serif" font-size="11" lengthAdjust="spacingAndGlyphs" textLength="56" x="364" y="503.2549">void &lt;init&gt;()</text><ellipse cx="355" cy="514.0898" fill="#84BE84" rx="3" ry="3" style="stroke: #038048; stroke-width: 1.0;"/><text fill="#000000" font-family="sans-serif" font-size="11" font-style="italic" lengthAdjust="spacingAndGlyphs" textLength="159" x="364" y="517.0908">java.lang.String getDescription()</text><ellipse cx="355" cy="527.9258" fill="#84BE84" rx="3" ry="3" style="stroke: #038048; stroke-width: 1.0;"/><text fill="#000000" font-family="sans-serif" font-size="11" lengthAdjust="spacingAndGlyphs" textLength="121" x="364" y="530.9268">Beverage$Size getSize()</text><!--class DarkRoast--><rect fill="#FEFECE" filter="url(#f16u9o02nrmyz)" height="75.6719" id="DarkRoast" style="stroke: #A80036; stroke-width: 1.5;" width="91" x="564" y="447.5"/><ellipse cx="579" cy="463.5" fill="#ADD1B2" rx="11" ry="11" style="stroke: #A80036; stroke-width: 1.0;"/><path d="M581.7656,459.375 Q581.9219,459.1563 582.1094,459.0469 Q582.2969,458.9375 582.5156,458.9375 Q582.8906,458.9375 583.125,459.1953 Q583.3594,459.4531 583.3594,460.0625 L583.3594,461.5156 Q583.3594,462.125 583.125,462.3906 Q582.8906,462.6563 582.5156,462.6563 Q582.1719,462.6563 581.9688,462.4531 Q581.7656,462.2656 581.6563,461.75 Q581.6094,461.3906 581.4219,461.2031 Q581.0938,460.8281 580.4844,460.6094 Q579.875,460.3906 579.25,460.3906 Q578.4844,460.3906 577.8516,460.7188 Q577.2188,461.0469 576.7266,461.7969 Q576.2344,462.5469 576.2344,463.5781 L576.2344,464.6719 Q576.2344,465.9063 577.125,466.7266 Q578.0156,467.5469 579.6094,467.5469 Q580.5469,467.5469 581.2031,467.2969 Q581.5938,467.1406 582.0156,466.7031 Q582.2813,466.4375 582.4297,466.3594 Q582.5781,466.2813 582.7813,466.2813 Q583.1094,466.2813 583.3672,466.5391 Q583.625,466.7969 583.625,467.1406 Q583.625,467.4844 583.2813,467.8906 Q582.7813,468.4688 581.9844,468.7969 Q580.9063,469.25 579.6094,469.25 Q578.0938,469.25 576.8906,468.625 Q575.9063,468.125 575.2188,467.0547 Q574.5313,465.9844 574.5313,464.7031 L574.5313,463.5469 Q574.5313,462.2188 575.1484,461.0703 Q575.7656,459.9219 576.8594,459.3047 Q577.9531,458.6875 579.1875,458.6875 Q579.9219,458.6875 580.5703,458.8516 Q581.2188,459.0156 581.7656,459.375 Z "/><text fill="#000000" font-family="sans-serif" font-size="12" lengthAdjust="spacingAndGlyphs" textLength="59" x="593" y="468.4102">DarkRoast</text><line style="stroke: #A80036; stroke-width: 1.5;" x1="565" x2="654" y1="479.5" y2="479.5"/><line style="stroke: #A80036; stroke-width: 1.5;" x1="565" x2="654" y1="487.5" y2="487.5"/><ellipse cx="575" cy="499.918" fill="#84BE84" rx="3" ry="3" style="stroke: #038048; stroke-width: 1.0;"/><text fill="#000000" font-family="sans-serif" font-size="11" lengthAdjust="spacingAndGlyphs" textLength="56" x="584" y="502.9189">void &lt;init&gt;()</text><ellipse cx="575" cy="513.7539" fill="#84BE84" rx="3" ry="3" style="stroke: #038048; stroke-width: 1.0;"/><text fill="#000000" font-family="sans-serif" font-size="11" lengthAdjust="spacingAndGlyphs" textLength="64" x="584" y="516.7549">double cost()</text><!--class Decaf--><rect fill="#FEFECE" filter="url(#f16u9o02nrmyz)" height="75.6719" id="Decaf" style="stroke: #A80036; stroke-width: 1.5;" width="90" x="690.5" y="447.5"/><ellipse cx="717.2" cy="463.5" fill="#ADD1B2" rx="11" ry="11" style="stroke: #A80036; stroke-width: 1.0;"/><path d="M719.9656,459.375 Q720.1219,459.1563 720.3094,459.0469 Q720.4969,458.9375 720.7156,458.9375 Q721.0906,458.9375 721.325,459.1953 Q721.5594,459.4531 721.5594,460.0625 L721.5594,461.5156 Q721.5594,462.125 721.325,462.3906 Q721.0906,462.6563 720.7156,462.6563 Q720.3719,462.6563 720.1688,462.4531 Q719.9656,462.2656 719.8563,461.75 Q719.8094,461.3906 719.6219,461.2031 Q719.2938,460.8281 718.6844,460.6094 Q718.075,460.3906 717.45,460.3906 Q716.6844,460.3906 716.0516,460.7188 Q715.4188,461.0469 714.9266,461.7969 Q714.4344,462.5469 714.4344,463.5781 L714.4344,464.6719 Q714.4344,465.9063 715.325,466.7266 Q716.2156,467.5469 717.8094,467.5469 Q718.7469,467.5469 719.4031,467.2969 Q719.7938,467.1406 720.2156,466.7031 Q720.4813,466.4375 720.6297,466.3594 Q720.7781,466.2813 720.9813,466.2813 Q721.3094,466.2813 721.5672,466.5391 Q721.825,466.7969 721.825,467.1406 Q721.825,467.4844 721.4813,467.8906 Q720.9813,468.4688 720.1844,468.7969 Q719.1063,469.25 717.8094,469.25 Q716.2938,469.25 715.0906,468.625 Q714.1063,468.125 713.4188,467.0547 Q712.7313,465.9844 712.7313,464.7031 L712.7313,463.5469 Q712.7313,462.2188 713.3484,461.0703 Q713.9656,459.9219 715.0594,459.3047 Q716.1531,458.6875 717.3875,458.6875 Q718.1219,458.6875 718.7703,458.8516 Q719.4188,459.0156 719.9656,459.375 Z "/><text fill="#000000" font-family="sans-serif" font-size="12" lengthAdjust="spacingAndGlyphs" textLength="32" x="733.8" y="468.4102">Decaf</text><line style="stroke: #A80036; stroke-width: 1.5;" x1="691.5" x2="779.5" y1="479.5" y2="479.5"/><line style="stroke: #A80036; stroke-width: 1.5;" x1="691.5" x2="779.5" y1="487.5" y2="487.5"/><ellipse cx="701.5" cy="499.918" fill="#84BE84" rx="3" ry="3" style="stroke: #038048; stroke-width: 1.0;"/><text fill="#000000" font-family="sans-serif" font-size="11" lengthAdjust="spacingAndGlyphs" textLength="56" x="710.5" y="502.9189">void &lt;init&gt;()</text><ellipse cx="701.5" cy="513.7539" fill="#84BE84" rx="3" ry="3" style="stroke: #038048; stroke-width: 1.0;"/><text fill="#000000" font-family="sans-serif" font-size="11" lengthAdjust="spacingAndGlyphs" textLength="64" x="710.5" y="516.7549">double cost()</text><!--class Espresso--><rect fill="#FEFECE" filter="url(#f16u9o02nrmyz)" height="75.6719" id="Espresso" style="stroke: #A80036; stroke-width: 1.5;" width="90" x="815.5" y="447.5"/><ellipse cx="832.3" cy="463.5" fill="#ADD1B2" rx="11" ry="11" style="stroke: #A80036; stroke-width: 1.0;"/><path d="M835.0656,459.375 Q835.2219,459.1563 835.4094,459.0469 Q835.5969,458.9375 835.8156,458.9375 Q836.1906,458.9375 836.425,459.1953 Q836.6594,459.4531 836.6594,460.0625 L836.6594,461.5156 Q836.6594,462.125 836.425,462.3906 Q836.1906,462.6563 835.8156,462.6563 Q835.4719,462.6563 835.2688,462.4531 Q835.0656,462.2656 834.9563,461.75 Q834.9094,461.3906 834.7219,461.2031 Q834.3938,460.8281 833.7844,460.6094 Q833.175,460.3906 832.55,460.3906 Q831.7844,460.3906 831.1516,460.7188 Q830.5188,461.0469 830.0266,461.7969 Q829.5344,462.5469 829.5344,463.5781 L829.5344,464.6719 Q829.5344,465.9063 830.425,466.7266 Q831.3156,467.5469 832.9094,467.5469 Q833.8469,467.5469 834.5031,467.2969 Q834.8938,467.1406 835.3156,466.7031 Q835.5813,466.4375 835.7297,466.3594 Q835.8781,466.2813 836.0813,466.2813 Q836.4094,466.2813 836.6672,466.5391 Q836.925,466.7969 836.925,467.1406 Q836.925,467.4844 836.5813,467.8906 Q836.0813,468.4688 835.2844,468.7969 Q834.2063,469.25 832.9094,469.25 Q831.3938,469.25 830.1906,468.625 Q829.2063,468.125 828.5188,467.0547 Q827.8313,465.9844 827.8313,464.7031 L827.8313,463.5469 Q827.8313,462.2188 828.4484,461.0703 Q829.0656,459.9219 830.1594,459.3047 Q831.2531,458.6875 832.4875,458.6875 Q833.2219,458.6875 833.8703,458.8516 Q834.5188,459.0156 835.0656,459.375 Z "/><text fill="#000000" font-family="sans-serif" font-size="12" lengthAdjust="spacingAndGlyphs" textLength="54" x="846.7" y="468.4102">Espresso</text><line style="stroke: #A80036; stroke-width: 1.5;" x1="816.5" x2="904.5" y1="479.5" y2="479.5"/><line style="stroke: #A80036; stroke-width: 1.5;" x1="816.5" x2="904.5" y1="487.5" y2="487.5"/><ellipse cx="826.5" cy="499.918" fill="#84BE84" rx="3" ry="3" style="stroke: #038048; stroke-width: 1.0;"/><text fill="#000000" font-family="sans-serif" font-size="11" lengthAdjust="spacingAndGlyphs" textLength="56" x="835.5" y="502.9189">void &lt;init&gt;()</text><ellipse cx="826.5" cy="513.7539" fill="#84BE84" rx="3" ry="3" style="stroke: #038048; stroke-width: 1.0;"/><text fill="#000000" font-family="sans-serif" font-size="11" lengthAdjust="spacingAndGlyphs" textLength="64" x="835.5" y="516.7549">double cost()</text><!--class HouseBlend--><rect fill="#FEFECE" filter="url(#f16u9o02nrmyz)" height="75.6719" id="HouseBlend" style="stroke: #A80036; stroke-width: 1.5;" width="101" x="1168" y="328"/><ellipse cx="1183" cy="344" fill="#ADD1B2" rx="11" ry="11" style="stroke: #A80036; stroke-width: 1.0;"/><path d="M1185.7656,339.875 Q1185.9219,339.6563 1186.1094,339.5469 Q1186.2969,339.4375 1186.5156,339.4375 Q1186.8906,339.4375 1187.125,339.6953 Q1187.3594,339.9531 1187.3594,340.5625 L1187.3594,342.0156 Q1187.3594,342.625 1187.125,342.8906 Q1186.8906,343.1563 1186.5156,343.1563 Q1186.1719,343.1563 1185.9688,342.9531 Q1185.7656,342.7656 1185.6563,342.25 Q1185.6094,341.8906 1185.4219,341.7031 Q1185.0938,341.3281 1184.4844,341.1094 Q1183.875,340.8906 1183.25,340.8906 Q1182.4844,340.8906 1181.8516,341.2188 Q1181.2188,341.5469 1180.7266,342.2969 Q1180.2344,343.0469 1180.2344,344.0781 L1180.2344,345.1719 Q1180.2344,346.4063 1181.125,347.2266 Q1182.0156,348.0469 1183.6094,348.0469 Q1184.5469,348.0469 1185.2031,347.7969 Q1185.5938,347.6406 1186.0156,347.2031 Q1186.2813,346.9375 1186.4297,346.8594 Q1186.5781,346.7813 1186.7813,346.7813 Q1187.1094,346.7813 1187.3672,347.0391 Q1187.625,347.2969 1187.625,347.6406 Q1187.625,347.9844 1187.2813,348.3906 Q1186.7813,348.9688 1185.9844,349.2969 Q1184.9063,349.75 1183.6094,349.75 Q1182.0938,349.75 1180.8906,349.125 Q1179.9063,348.625 1179.2188,347.5547 Q1178.5313,346.4844 1178.5313,345.2031 L1178.5313,344.0469 Q1178.5313,342.7188 1179.1484,341.5703 Q1179.7656,340.4219 1180.8594,339.8047 Q1181.9531,339.1875 1183.1875,339.1875 Q1183.9219,339.1875 1184.5703,339.3516 Q1185.2188,339.5156 1185.7656,339.875 Z "/><text fill="#000000" font-family="sans-serif" font-size="12" lengthAdjust="spacingAndGlyphs" textLength="69" x="1197" y="348.9102">HouseBlend</text><line style="stroke: #A80036; stroke-width: 1.5;" x1="1169" x2="1268" y1="360" y2="360"/><line style="stroke: #A80036; stroke-width: 1.5;" x1="1169" x2="1268" y1="368" y2="368"/><ellipse cx="1179" cy="380.418" fill="#84BE84" rx="3" ry="3" style="stroke: #038048; stroke-width: 1.0;"/><text fill="#000000" font-family="sans-serif" font-size="11" lengthAdjust="spacingAndGlyphs" textLength="56" x="1188" y="383.4189">void &lt;init&gt;()</text><ellipse cx="1179" cy="394.2539" fill="#84BE84" rx="3" ry="3" style="stroke: #038048; stroke-width: 1.0;"/><text fill="#000000" font-family="sans-serif" font-size="11" lengthAdjust="spacingAndGlyphs" textLength="64" x="1188" y="397.2549">double cost()</text><!--class Milk--><rect fill="#008000" filter="url(#f16u9o02nrmyz)" height="153.0391" id="Milk" style="stroke: #A80036; stroke-width: 1.5;" width="225" x="275" y="145"/><rect fill="#008000" height="40.1875" style="stroke: #A80036; stroke-width: 1.5;" width="225" x="275" y="145"/><ellipse cx="352.25" cy="165.0938" fill="#ADD1B2" rx="11" ry="11" style="stroke: #A80036; stroke-width: 1.0;"/><path d="M355.0156,160.9688 Q355.1719,160.75 355.3594,160.6406 Q355.5469,160.5313 355.7656,160.5313 Q356.1406,160.5313 356.375,160.7891 Q356.6094,161.0469 356.6094,161.6563 L356.6094,163.1094 Q356.6094,163.7188 356.375,163.9844 Q356.1406,164.25 355.7656,164.25 Q355.4219,164.25 355.2188,164.0469 Q355.0156,163.8594 354.9063,163.3438 Q354.8594,162.9844 354.6719,162.7969 Q354.3438,162.4219 353.7344,162.2031 Q353.125,161.9844 352.5,161.9844 Q351.7344,161.9844 351.1016,162.3125 Q350.4688,162.6406 349.9766,163.3906 Q349.4844,164.1406 349.4844,165.1719 L349.4844,166.2656 Q349.4844,167.5 350.375,168.3203 Q351.2656,169.1406 352.8594,169.1406 Q353.7969,169.1406 354.4531,168.8906 Q354.8438,168.7344 355.2656,168.2969 Q355.5313,168.0313 355.6797,167.9531 Q355.8281,167.875 356.0313,167.875 Q356.3594,167.875 356.6172,168.1328 Q356.875,168.3906 356.875,168.7344 Q356.875,169.0781 356.5313,169.4844 Q356.0313,170.0625 355.2344,170.3906 Q354.1563,170.8438 352.8594,170.8438 Q351.3438,170.8438 350.1406,170.2188 Q349.1563,169.7188 348.4688,168.6484 Q347.7813,167.5781 347.7813,166.2969 L347.7813,165.1406 Q347.7813,163.8125 348.3984,162.6641 Q349.0156,161.5156 350.1094,160.8984 Q351.2031,160.2813 352.4375,160.2813 Q353.1719,160.2813 353.8203,160.4453 Q354.4688,160.6094 355.0156,160.9688 Z "/><text fill="#000000" font-family="sans-serif" font-size="12" font-style="italic" lengthAdjust="spacingAndGlyphs" textLength="66" x="370.75" y="162.457">«decorator»</text><text fill="#000000" font-family="sans-serif" font-size="12" lengthAdjust="spacingAndGlyphs" textLength="21" x="393.25" y="177.5508">Milk</text><line style="stroke: #A80036; stroke-width: 1.5;" x1="276" x2="499" y1="185.1875" y2="185.1875"/><line style="stroke: #A80036; stroke-width: 1.5;" x1="276" x2="499" y1="193.1875" y2="193.1875"/><ellipse cx="286" cy="205.6055" fill="#84BE84" rx="3" ry="3" style="stroke: #038048; stroke-width: 1.0;"/><text fill="#000000" font-family="sans-serif" font-size="11" lengthAdjust="spacingAndGlyphs" textLength="103" x="295" y="208.6064">void &lt;init&gt;(Beverage)</text><ellipse cx="286" cy="219.4414" fill="#84BE84" rx="3" ry="3" style="stroke: #038048; stroke-width: 1.0;"/><text fill="#000000" font-family="sans-serif" font-size="11" lengthAdjust="spacingAndGlyphs" textLength="154" x="295" y="222.4424">java.lang.String getDescription()</text><ellipse cx="286" cy="233.2773" fill="#84BE84" rx="3" ry="3" style="stroke: #038048; stroke-width: 1.0;"/><text fill="#000000" font-family="sans-serif" font-size="11" lengthAdjust="spacingAndGlyphs" textLength="64" x="295" y="236.2783">double cost()</text><rect fill="#F24D5C" height="6" style="stroke: #C82930; stroke-width: 1.0;" width="6" x="283" y="244.1133"/><text fill="#FF0000" font-family="sans-serif" font-size="11" lengthAdjust="spacingAndGlyphs" textLength="193" x="298" y="250.1143">void setCustomerName(java.lang.String)</text><rect fill="#F24D5C" height="6" style="stroke: #C82930; stroke-width: 1.0;" width="6" x="283" y="257.9492"/><text fill="#FF0000" font-family="sans-serif" font-size="11" lengthAdjust="spacingAndGlyphs" textLength="173" x="298" y="263.9502">java.lang.String getCustomerName()</text><rect fill="#F24D5C" height="6" style="stroke: #C82930; stroke-width: 1.0;" width="6" x="283" y="271.7852"/><text fill="#FF0000" font-family="sans-serif" font-size="11" lengthAdjust="spacingAndGlyphs" textLength="121" x="298" y="277.7861">Beverage$Size getSize()</text><rect fill="#F24D5C" height="6" style="stroke: #C82930; stroke-width: 1.0;" width="6" x="283" y="285.6211"/><text fill="#FF0000" font-family="sans-serif" font-size="11" lengthAdjust="spacingAndGlyphs" textLength="141" x="298" y="291.6221">void setSize(Beverage$Size)</text><!--class Mocha--><rect fill="#008000" filter="url(#f16u9o02nrmyz)" height="153.0391" id="Mocha" style="stroke: #A80036; stroke-width: 1.5;" width="225" x="904" y="145"/><rect fill="#008000" height="40.1875" style="stroke: #A80036; stroke-width: 1.5;" width="225" x="904" y="145"/><ellipse cx="981.25" cy="165.0938" fill="#ADD1B2" rx="11" ry="11" style="stroke: #A80036; stroke-width: 1.0;"/><path d="M984.0156,160.9688 Q984.1719,160.75 984.3594,160.6406 Q984.5469,160.5313 984.7656,160.5313 Q985.1406,160.5313 985.375,160.7891 Q985.6094,161.0469 985.6094,161.6563 L985.6094,163.1094 Q985.6094,163.7188 985.375,163.9844 Q985.1406,164.25 984.7656,164.25 Q984.4219,164.25 984.2188,164.0469 Q984.0156,163.8594 983.9063,163.3438 Q983.8594,162.9844 983.6719,162.7969 Q983.3438,162.4219 982.7344,162.2031 Q982.125,161.9844 981.5,161.9844 Q980.7344,161.9844 980.1016,162.3125 Q979.4688,162.6406 978.9766,163.3906 Q978.4844,164.1406 978.4844,165.1719 L978.4844,166.2656 Q978.4844,167.5 979.375,168.3203 Q980.2656,169.1406 981.8594,169.1406 Q982.7969,169.1406 983.4531,168.8906 Q983.8438,168.7344 984.2656,168.2969 Q984.5313,168.0313 984.6797,167.9531 Q984.8281,167.875 985.0313,167.875 Q985.3594,167.875 985.6172,168.1328 Q985.875,168.3906 985.875,168.7344 Q985.875,169.0781 985.5313,169.4844 Q985.0313,170.0625 984.2344,170.3906 Q983.1563,170.8438 981.8594,170.8438 Q980.3438,170.8438 979.1406,170.2188 Q978.1563,169.7188 977.4688,168.6484 Q976.7813,167.5781 976.7813,166.2969 L976.7813,165.1406 Q976.7813,163.8125 977.3984,162.6641 Q978.0156,161.5156 979.1094,160.8984 Q980.2031,160.2813 981.4375,160.2813 Q982.1719,160.2813 982.8203,160.4453 Q983.4688,160.6094 984.0156,160.9688 Z "/><text fill="#000000" font-family="sans-serif" font-size="12" font-style="italic" lengthAdjust="spacingAndGlyphs" textLength="66" x="999.75" y="162.457">«decorator»</text><text fill="#000000" font-family="sans-serif" font-size="12" lengthAdjust="spacingAndGlyphs" textLength="36" x="1014.75" y="177.5508">Mocha</text><line style="stroke: #A80036; stroke-width: 1.5;" x1="905" x2="1128" y1="185.1875" y2="185.1875"/><line style="stroke: #A80036; stroke-width: 1.5;" x1="905" x2="1128" y1="193.1875" y2="193.1875"/><ellipse cx="915" cy="205.6055" fill="#84BE84" rx="3" ry="3" style="stroke: #038048; stroke-width: 1.0;"/><text fill="#000000" font-family="sans-serif" font-size="11" lengthAdjust="spacingAndGlyphs" textLength="103" x="924" y="208.6064">void &lt;init&gt;(Beverage)</text><ellipse cx="915" cy="219.4414" fill="#84BE84" rx="3" ry="3" style="stroke: #038048; stroke-width: 1.0;"/><text fill="#000000" font-family="sans-serif" font-size="11" lengthAdjust="spacingAndGlyphs" textLength="154" x="924" y="222.4424">java.lang.String getDescription()</text><ellipse cx="915" cy="233.2773" fill="#84BE84" rx="3" ry="3" style="stroke: #038048; stroke-width: 1.0;"/><text fill="#000000" font-family="sans-serif" font-size="11" lengthAdjust="spacingAndGlyphs" textLength="64" x="924" y="236.2783">double cost()</text><rect fill="#F24D5C" height="6" style="stroke: #C82930; stroke-width: 1.0;" width="6" x="912" y="244.1133"/><text fill="#FF0000" font-family="sans-serif" font-size="11" lengthAdjust="spacingAndGlyphs" textLength="193" x="927" y="250.1143">void setCustomerName(java.lang.String)</text><rect fill="#F24D5C" height="6" style="stroke: #C82930; stroke-width: 1.0;" width="6" x="912" y="257.9492"/><text fill="#FF0000" font-family="sans-serif" font-size="11" lengthAdjust="spacingAndGlyphs" textLength="173" x="927" y="263.9502">java.lang.String getCustomerName()</text><rect fill="#F24D5C" height="6" style="stroke: #C82930; stroke-width: 1.0;" width="6" x="912" y="271.7852"/><text fill="#FF0000" font-family="sans-serif" font-size="11" lengthAdjust="spacingAndGlyphs" textLength="121" x="927" y="277.7861">Beverage$Size getSize()</text><rect fill="#F24D5C" height="6" style="stroke: #C82930; stroke-width: 1.0;" width="6" x="912" y="285.6211"/><text fill="#FF0000" font-family="sans-serif" font-size="11" lengthAdjust="spacingAndGlyphs" textLength="141" x="927" y="291.6221">void setSize(Beverage$Size)</text><!--class Soy--><rect fill="#008000" filter="url(#f16u9o02nrmyz)" height="153.0391" id="Soy" style="stroke: #A80036; stroke-width: 1.5;" width="225" x="6" y="145"/><rect fill="#008000" height="40.1875" style="stroke: #A80036; stroke-width: 1.5;" width="225" x="6" y="145"/><ellipse cx="83.25" cy="165.0938" fill="#ADD1B2" rx="11" ry="11" style="stroke: #A80036; stroke-width: 1.0;"/><path d="M86.0156,160.9688 Q86.1719,160.75 86.3594,160.6406 Q86.5469,160.5313 86.7656,160.5313 Q87.1406,160.5313 87.375,160.7891 Q87.6094,161.0469 87.6094,161.6563 L87.6094,163.1094 Q87.6094,163.7188 87.375,163.9844 Q87.1406,164.25 86.7656,164.25 Q86.4219,164.25 86.2188,164.0469 Q86.0156,163.8594 85.9063,163.3438 Q85.8594,162.9844 85.6719,162.7969 Q85.3438,162.4219 84.7344,162.2031 Q84.125,161.9844 83.5,161.9844 Q82.7344,161.9844 82.1016,162.3125 Q81.4688,162.6406 80.9766,163.3906 Q80.4844,164.1406 80.4844,165.1719 L80.4844,166.2656 Q80.4844,167.5 81.375,168.3203 Q82.2656,169.1406 83.8594,169.1406 Q84.7969,169.1406 85.4531,168.8906 Q85.8438,168.7344 86.2656,168.2969 Q86.5313,168.0313 86.6797,167.9531 Q86.8281,167.875 87.0313,167.875 Q87.3594,167.875 87.6172,168.1328 Q87.875,168.3906 87.875,168.7344 Q87.875,169.0781 87.5313,169.4844 Q87.0313,170.0625 86.2344,170.3906 Q85.1563,170.8438 83.8594,170.8438 Q82.3438,170.8438 81.1406,170.2188 Q80.1563,169.7188 79.4688,168.6484 Q78.7813,167.5781 78.7813,166.2969 L78.7813,165.1406 Q78.7813,163.8125 79.3984,162.6641 Q80.0156,161.5156 81.1094,160.8984 Q82.2031,160.2813 83.4375,160.2813 Q84.1719,160.2813 84.8203,160.4453 Q85.4688,160.6094 86.0156,160.9688 Z "/><text fill="#000000" font-family="sans-serif" font-size="12" font-style="italic" lengthAdjust="spacingAndGlyphs" textLength="66" x="101.75" y="162.457">«decorator»</text><text fill="#000000" font-family="sans-serif" font-size="12" lengthAdjust="spacingAndGlyphs" textLength="20" x="124.75" y="177.5508">Soy</text><line style="stroke: #A80036; stroke-width: 1.5;" x1="7" x2="230" y1="185.1875" y2="185.1875"/><line style="stroke: #A80036; stroke-width: 1.5;" x1="7" x2="230" y1="193.1875" y2="193.1875"/><ellipse cx="17" cy="205.6055" fill="#84BE84" rx="3" ry="3" style="stroke: #038048; stroke-width: 1.0;"/><text fill="#000000" font-family="sans-serif" font-size="11" lengthAdjust="spacingAndGlyphs" textLength="103" x="26" y="208.6064">void &lt;init&gt;(Beverage)</text><ellipse cx="17" cy="219.4414" fill="#84BE84" rx="3" ry="3" style="stroke: #038048; stroke-width: 1.0;"/><text fill="#000000" font-family="sans-serif" font-size="11" lengthAdjust="spacingAndGlyphs" textLength="154" x="26" y="222.4424">java.lang.String getDescription()</text><ellipse cx="17" cy="233.2773" fill="#84BE84" rx="3" ry="3" style="stroke: #038048; stroke-width: 1.0;"/><text fill="#000000" font-family="sans-serif" font-size="11" lengthAdjust="spacingAndGlyphs" textLength="64" x="26" y="236.2783">double cost()</text><rect fill="#F24D5C" height="6" style="stroke: #C82930; stroke-width: 1.0;" width="6" x="14" y="244.1133"/><text fill="#FF0000" font-family="sans-serif" font-size="11" lengthAdjust="spacingAndGlyphs" textLength="193" x="29" y="250.1143">void setCustomerName(java.lang.String)</text><rect fill="#F24D5C" height="6" style="stroke: #C82930; stroke-width: 1.0;" width="6" x="14" y="257.9492"/><text fill="#FF0000" font-family="sans-serif" font-size="11" lengthAdjust="spacingAndGlyphs" textLength="173" x="29" y="263.9502">java.lang.String getCustomerName()</text><rect fill="#F24D5C" height="6" style="stroke: #C82930; stroke-width: 1.0;" width="6" x="14" y="271.7852"/><text fill="#FF0000" font-family="sans-serif" font-size="11" lengthAdjust="spacingAndGlyphs" textLength="121" x="29" y="277.7861">Beverage$Size getSize()</text><rect fill="#F24D5C" height="6" style="stroke: #C82930; stroke-width: 1.0;" width="6" x="14" y="285.6211"/><text fill="#FF0000" font-family="sans-serif" font-size="11" lengthAdjust="spacingAndGlyphs" textLength="141" x="29" y="291.6221">void setSize(Beverage$Size)</text><!--class Whip--><rect fill="#008000" filter="url(#f16u9o02nrmyz)" height="153.0391" id="Whip" style="stroke: #A80036; stroke-width: 1.5;" width="225" x="585" y="145"/><rect fill="#008000" height="40.1875" style="stroke: #A80036; stroke-width: 1.5;" width="225" x="585" y="145"/><ellipse cx="662.25" cy="165.0938" fill="#ADD1B2" rx="11" ry="11" style="stroke: #A80036; stroke-width: 1.0;"/><path d="M665.0156,160.9688 Q665.1719,160.75 665.3594,160.6406 Q665.5469,160.5313 665.7656,160.5313 Q666.1406,160.5313 666.375,160.7891 Q666.6094,161.0469 666.6094,161.6563 L666.6094,163.1094 Q666.6094,163.7188 666.375,163.9844 Q666.1406,164.25 665.7656,164.25 Q665.4219,164.25 665.2188,164.0469 Q665.0156,163.8594 664.9063,163.3438 Q664.8594,162.9844 664.6719,162.7969 Q664.3438,162.4219 663.7344,162.2031 Q663.125,161.9844 662.5,161.9844 Q661.7344,161.9844 661.1016,162.3125 Q660.4688,162.6406 659.9766,163.3906 Q659.4844,164.1406 659.4844,165.1719 L659.4844,166.2656 Q659.4844,167.5 660.375,168.3203 Q661.2656,169.1406 662.8594,169.1406 Q663.7969,169.1406 664.4531,168.8906 Q664.8438,168.7344 665.2656,168.2969 Q665.5313,168.0313 665.6797,167.9531 Q665.8281,167.875 666.0313,167.875 Q666.3594,167.875 666.6172,168.1328 Q666.875,168.3906 666.875,168.7344 Q666.875,169.0781 666.5313,169.4844 Q666.0313,170.0625 665.2344,170.3906 Q664.1563,170.8438 662.8594,170.8438 Q661.3438,170.8438 660.1406,170.2188 Q659.1563,169.7188 658.4688,168.6484 Q657.7813,167.5781 657.7813,166.2969 L657.7813,165.1406 Q657.7813,163.8125 658.3984,162.6641 Q659.0156,161.5156 660.1094,160.8984 Q661.2031,160.2813 662.4375,160.2813 Q663.1719,160.2813 663.8203,160.4453 Q664.4688,160.6094 665.0156,160.9688 Z "/><text fill="#000000" font-family="sans-serif" font-size="12" font-style="italic" lengthAdjust="spacingAndGlyphs" textLength="66" x="680.75" y="162.457">«decorator»</text><text fill="#000000" font-family="sans-serif" font-size="12" lengthAdjust="spacingAndGlyphs" textLength="28" x="699.75" y="177.5508">Whip</text><line style="stroke: #A80036; stroke-width: 1.5;" x1="586" x2="809" y1="185.1875" y2="185.1875"/><line style="stroke: #A80036; stroke-width: 1.5;" x1="586" x2="809" y1="193.1875" y2="193.1875"/><ellipse cx="596" cy="205.6055" fill="#84BE84" rx="3" ry="3" style="stroke: #038048; stroke-width: 1.0;"/><text fill="#000000" font-family="sans-serif" font-size="11" lengthAdjust="spacingAndGlyphs" textLength="103" x="605" y="208.6064">void &lt;init&gt;(Beverage)</text><ellipse cx="596" cy="219.4414" fill="#84BE84" rx="3" ry="3" style="stroke: #038048; stroke-width: 1.0;"/><text fill="#000000" font-family="sans-serif" font-size="11" lengthAdjust="spacingAndGlyphs" textLength="154" x="605" y="222.4424">java.lang.String getDescription()</text><ellipse cx="596" cy="233.2773" fill="#84BE84" rx="3" ry="3" style="stroke: #038048; stroke-width: 1.0;"/><text fill="#000000" font-family="sans-serif" font-size="11" lengthAdjust="spacingAndGlyphs" textLength="64" x="605" y="236.2783">double cost()</text><rect fill="#F24D5C" height="6" style="stroke: #C82930; stroke-width: 1.0;" width="6" x="593" y="244.1133"/><text fill="#FF0000" font-family="sans-serif" font-size="11" lengthAdjust="spacingAndGlyphs" textLength="193" x="608" y="250.1143">void setCustomerName(java.lang.String)</text><rect fill="#F24D5C" height="6" style="stroke: #C82930; stroke-width: 1.0;" width="6" x="593" y="257.9492"/><text fill="#FF0000" font-family="sans-serif" font-size="11" lengthAdjust="spacingAndGlyphs" textLength="173" x="608" y="263.9502">java.lang.String getCustomerName()</text><rect fill="#F24D5C" height="6" style="stroke: #C82930; stroke-width: 1.0;" width="6" x="593" y="271.7852"/><text fill="#FF0000" font-family="sans-serif" font-size="11" lengthAdjust="spacingAndGlyphs" textLength="121" x="608" y="277.7861">Beverage$Size getSize()</text><rect fill="#F24D5C" height="6" style="stroke: #C82930; stroke-width: 1.0;" width="6" x="593" y="285.6211"/><text fill="#FF0000" font-family="sans-serif" font-size="11" lengthAdjust="spacingAndGlyphs" textLength="141" x="608" y="291.6221">void setSize(Beverage$Size)</text><!--link Espresso to Beverage--><path d="M860.5,523.578 C860.5,575.734 860.5,663 860.5,663 C860.5,663 739.227,663 739.227,663 " fill="none" id="Espresso-Beverage" style="stroke: #A80036; stroke-width: 1.0;"/><polygon fill="none" points="739.227,670,719.227,663,739.227,656,739.227,670" style="stroke: #A80036; stroke-width: 1.0;"/><!--link StarbuzzCoffee to Beverage$Size--><path d="M617.775,59 C486.641,59 239.8,59 239.8,59 C239.8,59 239.8,848.964 239.8,848.964 " fill="none" id="StarbuzzCoffee-Beverage$Size" style="stroke: #A80036; stroke-width: 1.0; stroke-dasharray: 7.0,7.0;"/><polygon fill="#A80036" points="239.8,853.964,243.8,844.964,239.8,848.964,235.8,844.964,239.8,853.964" style="stroke: #A80036; stroke-width: 1.0;"/><text fill="#000000" font-family="sans-serif" font-size="13" lengthAdjust="spacingAndGlyphs" textLength="7" x="239.5481" y="843.1475">1</text><!--link StarbuzzCoffee to Soy--><path d="M617.904,34 C459.199,34 118.5,34 118.5,34 C118.5,34 118.5,139.966 118.5,139.966 " fill="none" id="StarbuzzCoffee-Soy" style="stroke: #A80036; stroke-width: 1.0; stroke-dasharray: 7.0,7.0;"/><polygon fill="#A80036" points="118.5,144.966,122.5,135.966,118.5,139.966,114.5,135.966,118.5,144.966" style="stroke: #A80036; stroke-width: 1.0;"/><text fill="#000000" font-family="sans-serif" font-size="13" lengthAdjust="spacingAndGlyphs" textLength="7" x="111.1555" y="134.1552">1</text><!--link Soy to CondimentDecorator--><path d="M186.75,298.116 C186.75,370.804 186.75,469 186.75,469 C186.75,469 323.857,469 323.857,469 " fill="none" id="Soy-CondimentDecorator" style="stroke: #A80036; stroke-width: 1.0;"/><polygon fill="none" points="323.857,462,343.857,469,323.857,476,323.857,462" style="stroke: #A80036; stroke-width: 1.0;"/><!--link Decaf to Beverage--><path d="M704.75,523.529 C704.75,523.529 704.75,577.845 704.75,577.845 " fill="none" id="Decaf-Beverage" style="stroke: #A80036; stroke-width: 1.0;"/><polygon fill="none" points="711.75,577.845,704.75,597.845,697.75,577.845,711.75,577.845" style="stroke: #A80036; stroke-width: 1.0;"/><!--link Milk to CondimentDecorator--><path d="M422,298.214 C422,298.214 422,413.693 422,413.693 " fill="none" id="Milk-CondimentDecorator" style="stroke: #A80036; stroke-width: 1.0;"/><polygon fill="none" points="429,413.693,422,433.693,415,413.693,429,413.693" style="stroke: #A80036; stroke-width: 1.0;"/><!--link CondimentDecorator to Beverage--><path d="M519.333,537.141 C519.333,537.141 519.333,577.687 519.333,577.687 " fill="none" id="CondimentDecorator-Beverage" style="stroke: #A80036; stroke-width: 1.0;"/><polygon fill="none" points="526.333,577.687,519.333,597.687,512.333,577.687,526.333,577.687" style="stroke: #A80036; stroke-width: 1.0;"/><!--link CondimentDecorator to Beverage--><path d="M509.667,537.141 C509.667,537.141 509.667,592.687 509.667,592.687 " fill="none" id="CondimentDecorator-Beverage" style="stroke: #A80036; stroke-width: 1.0;"/><polygon fill="#A80036" points="509.667,597.687,513.667,588.687,509.667,592.687,505.667,588.687,509.667,597.687" style="stroke: #A80036; stroke-width: 1.0;"/><text fill="#000000" font-family="sans-serif" font-size="13" lengthAdjust="spacingAndGlyphs" textLength="7" x="494.7556" y="587.1116">1</text><!--link Soy to Beverage--><path d="M142.5,298.151 C142.5,424.579 142.5,663 142.5,663 C142.5,663 494.714,663 494.714,663 " fill="none" id="Soy-Beverage" style="stroke: #008000; stroke-width: 1.0; stroke-dasharray: 7.0,7.0;"/><polygon fill="#008000" points="499.714,663,490.714,659,494.714,663,490.714,667,499.714,663" style="stroke: #008000; stroke-width: 1.0;"/><text fill="#000000" font-family="sans-serif" font-size="13" lengthAdjust="spacingAndGlyphs" textLength="71" x="93.5" y="490.9951">«decorates»</text><text fill="#000000" font-family="sans-serif" font-size="13" lengthAdjust="spacingAndGlyphs" textLength="7" x="485.1026" y="657.8011">1</text><!--link HouseBlend to Beverage--><path d="M1167.71,366 C1033.33,366 678.667,366 678.667,366 C678.667,366 678.667,577.977 678.667,577.977 " fill="none" id="HouseBlend-Beverage" style="stroke: #A80036; stroke-width: 1.0;"/><polygon fill="none" points="685.667,577.977,678.667,597.977,671.667,577.976,685.667,577.977" style="stroke: #A80036; stroke-width: 1.0;"/><!--link DarkRoast to Beverage--><path d="M609.5,523.529 C609.5,523.529 609.5,577.845 609.5,577.845 " fill="none" id="DarkRoast-Beverage" style="stroke: #A80036; stroke-width: 1.0;"/><polygon fill="none" points="616.5,577.845,609.5,597.845,602.5,577.845,616.5,577.845" style="stroke: #A80036; stroke-width: 1.0;"/><!--link CondimentDecorator to Beverage$Size--><path d="M343.926,503 C296.497,503 248.6,503 248.6,503 C248.6,503 248.6,848.787 248.6,848.787 " fill="none" id="CondimentDecorator-Beverage$Size" style="stroke: #A80036; stroke-width: 1.0; stroke-dasharray: 7.0,7.0;"/><polygon fill="#A80036" points="248.6,853.787,252.6,844.787,248.6,848.787,244.6,844.787,248.6,853.787" style="stroke: #A80036; stroke-width: 1.0;"/><text fill="#000000" font-family="sans-serif" font-size="13" lengthAdjust="spacingAndGlyphs" textLength="7" x="248.9381" y="843.2267">1</text><!--link Mocha to Beverage--><path d="M1054.5,298.151 C1054.5,439.745 1054.5,728 1054.5,728 C1054.5,728 724.214,728 724.214,728 " fill="none" id="Mocha-Beverage" style="stroke: #008000; stroke-width: 1.0; stroke-dasharray: 7.0,7.0;"/><polygon fill="#008000" points="719.214,728,728.214,732,724.214,728,728.214,724,719.214,728" style="stroke: #008000; stroke-width: 1.0;"/><text fill="#000000" font-family="sans-serif" font-size="13" lengthAdjust="spacingAndGlyphs" textLength="71" x="1119.5" y="490.9951">«decorates»</text><text fill="#000000" font-family="sans-serif" font-size="13" lengthAdjust="spacingAndGlyphs" textLength="7" x="727.1744" y="727.2461">1</text><!--link Beverage to Beverage$Size--><path d="M499.542,728 C396.232,728 257.4,728 257.4,728 C257.4,728 257.4,848.754 257.4,848.754 " fill="none" id="Beverage-Beverage$Size" style="stroke: #A80036; stroke-width: 1.0;"/><polygon fill="#A80036" points="257.4,853.754,261.4,844.754,257.4,848.754,253.4,844.754,257.4,853.754" style="stroke: #A80036; stroke-width: 1.0;"/><text fill="#000000" font-family="sans-serif" font-size="13" lengthAdjust="spacingAndGlyphs" textLength="7" x="258.5494" y="843.1906">1</text><!--link StarbuzzCoffee to Mocha--><path d="M777.174,59 C871.66,59 1016.5,59 1016.5,59 C1016.5,59 1016.5,139.533 1016.5,139.533 " fill="none" id="StarbuzzCoffee-Mocha" style="stroke: #A80036; stroke-width: 1.0; stroke-dasharray: 7.0,7.0;"/><polygon fill="#A80036" points="1016.5,144.533,1020.5,135.533,1016.5,139.533,1012.5,135.533,1016.5,144.533" style="stroke: #A80036; stroke-width: 1.0;"/><text fill="#000000" font-family="sans-serif" font-size="13" lengthAdjust="spacingAndGlyphs" textLength="7" x="1009.1773" y="134.2096">1</text><!--link Milk to Beverage--><path d="M500.083,222 C526.188,222 546.5,222 546.5,222 C546.5,222 546.5,592.965 546.5,592.965 " fill="none" id="Milk-Beverage" style="stroke: #008000; stroke-width: 1.0; stroke-dasharray: 7.0,7.0;"/><polygon fill="#008000" points="546.5,597.965,550.5,588.965,546.5,592.965,542.5,588.965,546.5,597.965" style="stroke: #008000; stroke-width: 1.0;"/><text fill="#000000" font-family="sans-serif" font-size="13" lengthAdjust="spacingAndGlyphs" textLength="71" x="236.5" y="490.9951">«decorates»</text><text fill="#000000" font-family="sans-serif" font-size="13" lengthAdjust="spacingAndGlyphs" textLength="7" x="534.2008" y="587.0824">1</text><!--link Beverage$Size to Beverage$Size--><path d="M266.2,853.921 C266.2,836.939 266.2,824 266.2,824 C266.2,824 310.5,824 310.5,824 C310.5,824 310.5,1031 310.5,1031 C310.5,1031 165.5,1031 165.5,1031 C165.5,1031 165.5,1018.117 165.5,1018.117 " fill="none" id="Beverage$Size-Beverage$Size" style="stroke: #A80036; stroke-width: 1.0;"/><polygon fill="#A80036" points="165.5,1013.117,161.5,1022.117,165.5,1018.117,169.5,1022.117,165.5,1013.117" style="stroke: #A80036; stroke-width: 1.0;"/><text fill="#000000" font-family="sans-serif" font-size="13" lengthAdjust="spacingAndGlyphs" textLength="5" x="160.2852" y="1034.1702">*</text><!--link Whip to CondimentDecorator--><path d="M620,298.182 C620,360.802 620,439 620,439 C620,439 549.056,439 549.056,439 " fill="none" id="Whip-CondimentDecorator" style="stroke: #A80036; stroke-width: 1.0;"/><polygon fill="none" points="549.056,446,529.056,439,549.056,432,549.056,446" style="stroke: #A80036; stroke-width: 1.0;"/><!--link StarbuzzCoffee to HouseBlend--><path d="M777.196,34 C923.143,34 1218.5,34 1218.5,34 C1218.5,34 1218.5,322.915 1218.5,322.915 " fill="none" id="StarbuzzCoffee-HouseBlend" style="stroke: #A80036; stroke-width: 1.0; stroke-dasharray: 7.0,7.0;"/><polygon fill="#A80036" points="1218.5,327.915,1222.5,318.915,1218.5,322.915,1214.5,318.915,1218.5,327.915" style="stroke: #A80036; stroke-width: 1.0;"/><text fill="#000000" font-family="sans-serif" font-size="13" lengthAdjust="spacingAndGlyphs" textLength="7" x="1210.8766" y="317.2618">1</text><!--link Whip to Beverage--><path d="M666.833,298.183 C666.833,298.183 666.833,592.981 666.833,592.981 " fill="none" id="Whip-Beverage" style="stroke: #008000; stroke-width: 1.0; stroke-dasharray: 7.0,7.0;"/><polygon fill="#008000" points="666.833,597.981,670.833,588.981,666.833,592.981,662.833,588.981,666.833,597.981" style="stroke: #008000; stroke-width: 1.0;"/><text fill="#000000" font-family="sans-serif" font-size="13" lengthAdjust="spacingAndGlyphs" textLength="71" x="976.5" y="490.9951">«decorates»</text><text fill="#000000" font-family="sans-serif" font-size="13" lengthAdjust="spacingAndGlyphs" textLength="7" x="664.1228" y="587.0996">1</text><!--link Soy to Beverage$Size--><path d="M98.25,298.034 C98.25,298.034 98.25,848.874 98.25,848.874 " fill="none" id="Soy-Beverage$Size" style="stroke: #A80036; stroke-width: 1.0; stroke-dasharray: 7.0,7.0;"/><polygon fill="#A80036" points="98.25,853.874,102.25,844.874,98.25,848.874,94.25,844.874,98.25,853.874" style="stroke: #A80036; stroke-width: 1.0;"/><text fill="#000000" font-family="sans-serif" font-size="13" lengthAdjust="spacingAndGlyphs" textLength="7" x="84.5066" y="843.0489">1</text><!--link Mocha to CondimentDecorator--><path d="M980,298.038 C980,362.062 980,443 980,443 C980,443 549.005,443 549.005,443 " fill="none" id="Mocha-CondimentDecorator" style="stroke: #A80036; stroke-width: 1.0;"/><polygon fill="none" points="549.005,450,529.005,443,549.005,436,549.005,450" style="stroke: #A80036; stroke-width: 1.0;"/><!--link StarbuzzCoffee to Whip--><path d="M697.5,84.081 C697.5,84.081 697.5,139.912 697.5,139.912 " fill="none" id="StarbuzzCoffee-Whip" style="stroke: #A80036; stroke-width: 1.0; stroke-dasharray: 7.0,7.0;"/><polygon fill="#A80036" points="697.5,144.912,701.5,135.912,697.5,139.912,693.5,135.912,697.5,144.912" style="stroke: #A80036; stroke-width: 1.0;"/><text fill="#000000" font-family="sans-serif" font-size="13" lengthAdjust="spacingAndGlyphs" textLength="7" x="690.1555" y="134.0959">1</text></g></svg>