<?xml version="1.0" encoding="UTF-8" standalone="no"?><svg xmlns="http://www.w3.org/2000/svg" xmlns:xlink="http://www.w3.org/1999/xlink" contentScriptType="application/ecmascript" contentStyleType="text/css" height="927px" preserveAspectRatio="none" style="width:3068px;height:927px;" version="1.1" viewBox="0 0 3068 927" width="3068px" zoomAndPan="magnify"><defs><filter height="300%" id="f28vhml1slvs0" width="300%" x="-1" y="-1"><feGaussianBlur result="blurOut" stdDeviation="2.0"/><feColorMatrix in="blurOut" result="blurOut2" type="matrix" values="0 0 0 0 0 0 0 0 0 0 0 0 0 0 0 0 0 0 .4 0"/><feOffset dx="4.0" dy="4.0" in="blurOut2" result="blurOut3"/><feBlend in="SourceGraphic" in2="blurOut3" mode="normal"/></filter></defs><g><!--cluster ourStuff--><polygon fill="#FFFFFF" filter="url(#f28vhml1slvs0)" points="22,24,85,24,92,47.6094,2900,47.6094,2900,915,22,915,22,24" style="stroke: #000000; stroke-width: 1.5;"/><line style="stroke: #000000; stroke-width: 1.5;" x1="22" x2="92" y1="47.6094" y2="47.6094"/><text fill="#000000" font-family="sans-serif" font-size="14" font-weight="bold" lengthAdjust="spacingAndGlyphs" textLength="57" x="26" y="40.5332">ourStuff</text><!--cluster soot--><polygon fill="#FFFFFF" filter="url(#f28vhml1slvs0)" points="2924,624.5,2961,624.5,2968,648.1094,3046,648.1094,3046,724.5,2924,724.5,2924,624.5" style="stroke: #000000; stroke-width: 1.5;"/><line style="stroke: #000000; stroke-width: 1.5;" x1="2924" x2="2968" y1="648.1094" y2="648.1094"/><text fill="#000000" font-family="sans-serif" font-size="14" font-weight="bold" lengthAdjust="spacingAndGlyphs" textLength="31" x="2928" y="641.0332">soot</text><!--class ourStuff.App--><rect fill="#FEFECE" filter="url(#f28vhml1slvs0)" height="75.6719" id="ourStuff.App" style="stroke: #A80036; stroke-width: 1.5;" width="159" x="2288.5" y="80.5"/><ellipse cx="2353.25" cy="96.5" fill="#ADD1B2" rx="11" ry="11" style="stroke: #A80036; stroke-width: 1.0;"/><path d="M2356.0156,92.375 Q2356.1719,92.1563 2356.3594,92.0469 Q2356.5469,91.9375 2356.7656,91.9375 Q2357.1406,91.9375 2357.375,92.1953 Q2357.6094,92.4531 2357.6094,93.0625 L2357.6094,94.5156 Q2357.6094,95.125 2357.375,95.3906 Q2357.1406,95.6563 2356.7656,95.6563 Q2356.4219,95.6563 2356.2188,95.4531 Q2356.0156,95.2656 2355.9063,94.75 Q2355.8594,94.3906 2355.6719,94.2031 Q2355.3438,93.8281 2354.7344,93.6094 Q2354.125,93.3906 2353.5,93.3906 Q2352.7344,93.3906 2352.1016,93.7188 Q2351.4688,94.0469 2350.9766,94.7969 Q2350.4844,95.5469 2350.4844,96.5781 L2350.4844,97.6719 Q2350.4844,98.9063 2351.375,99.7266 Q2352.2656,100.5469 2353.8594,100.5469 Q2354.7969,100.5469 2355.4531,100.2969 Q2355.8438,100.1406 2356.2656,99.7031 Q2356.5313,99.4375 2356.6797,99.3594 Q2356.8281,99.2813 2357.0313,99.2813 Q2357.3594,99.2813 2357.6172,99.5391 Q2357.875,99.7969 2357.875,100.1406 Q2357.875,100.4844 2357.5313,100.8906 Q2357.0313,101.4688 2356.2344,101.7969 Q2355.1563,102.25 2353.8594,102.25 Q2352.3438,102.25 2351.1406,101.625 Q2350.1563,101.125 2349.4688,100.0547 Q2348.7813,98.9844 2348.7813,97.7031 L2348.7813,96.5469 Q2348.7813,95.2188 2349.3984,94.0703 Q2350.0156,92.9219 2351.1094,92.3047 Q2352.2031,91.6875 2353.4375,91.6875 Q2354.1719,91.6875 2354.8203,91.8516 Q2355.4688,92.0156 2356.0156,92.375 Z "/><text fill="#000000" font-family="sans-serif" font-size="12" lengthAdjust="spacingAndGlyphs" textLength="21" x="2373.75" y="101.4102">App</text><line style="stroke: #A80036; stroke-width: 1.5;" x1="2289.5" x2="2446.5" y1="112.5" y2="112.5"/><line style="stroke: #A80036; stroke-width: 1.5;" x1="2289.5" x2="2446.5" y1="120.5" y2="120.5"/><ellipse cx="2299.5" cy="132.918" fill="#84BE84" rx="3" ry="3" style="stroke: #038048; stroke-width: 1.0;"/><text fill="#000000" font-family="sans-serif" font-size="11" lengthAdjust="spacingAndGlyphs" textLength="56" x="2308.5" y="135.9189">void &lt;init&gt;()</text><ellipse cx="2299.5" cy="146.7539" fill="#84BE84" rx="3" ry="3" style="stroke: #038048; stroke-width: 1.0;"/><text fill="#000000" font-family="sans-serif" font-size="11" lengthAdjust="spacingAndGlyphs" text-decoration="underline" textLength="133" x="2308.5" y="149.7549">void main(java.lang.String[])</text><line style="stroke: #000000; stroke-width: 1.0;" x1="2308.5" x2="2441.5" y1="151.7549" y2="151.7549"/><!--class ourStuff.AbstractAnalyzer--><rect fill="#FEFECE" filter="url(#f28vhml1slvs0)" height="89.5078" id="ourStuff.AbstractAnalyzer" style="stroke: #A80036; stroke-width: 1.5;" width="164" x="1479" y="237"/><ellipse cx="1511.1" cy="253" fill="#A9DCDF" rx="11" ry="11" style="stroke: #A80036; stroke-width: 1.0;"/><path d="M1513.2875,254.7656 L1509.1469,254.7656 L1508.725,255.7969 L1509.1469,255.7969 Q1509.7563,255.7969 1510.0219,256.0313 Q1510.2875,256.2656 1510.2875,256.6563 Q1510.2875,257.0313 1510.0219,257.2656 Q1509.7563,257.5 1509.1469,257.5 L1506.85,257.5 Q1506.2406,257.5 1505.9828,257.2656 Q1505.725,257.0313 1505.725,256.6406 Q1505.725,256.2656 1505.9984,256.0234 Q1506.2719,255.7813 1506.8969,255.7969 L1509.5688,249.1406 L1508.4594,249.1406 Q1507.85,249.1406 1507.5844,248.9063 Q1507.3188,248.6719 1507.3188,248.2813 Q1507.3188,247.9063 1507.5844,247.6719 Q1507.85,247.4375 1508.4594,247.4375 L1512.1313,247.4375 L1515.5219,255.7969 Q1516.1156,255.7969 1516.3031,255.9375 Q1516.6938,256.2031 1516.6938,256.6563 Q1516.6938,257.0313 1516.4359,257.2656 Q1516.1781,257.5 1515.5688,257.5 L1513.2719,257.5 Q1512.6625,257.5 1512.3969,257.2656 Q1512.1313,257.0313 1512.1313,256.6406 Q1512.1313,256.2656 1512.3969,256.0313 Q1512.6625,255.7969 1513.2719,255.7969 L1513.6938,255.7969 L1513.2875,254.7656 Z M1512.5688,253.0625 L1511.2094,249.6875 L1509.8344,253.0625 L1512.5688,253.0625 Z "/><text fill="#000000" font-family="sans-serif" font-size="12" font-style="italic" lengthAdjust="spacingAndGlyphs" textLength="94" x="1528.9" y="257.9102">AbstractAnalyzer</text><line style="stroke: #A80036; stroke-width: 1.5;" x1="1480" x2="1642" y1="269" y2="269"/><polygon fill="none" points="1490,276.418,1494,280.418,1490,284.418,1486,280.418" style="stroke: #B38D22; stroke-width: 1.0;"/><text fill="#000000" font-family="sans-serif" font-size="11" lengthAdjust="spacingAndGlyphs" textLength="114" x="1499" y="284.4189">java.util.ArrayList filters</text><line style="stroke: #A80036; stroke-width: 1.5;" x1="1480" x2="1642" y1="290.8359" y2="290.8359"/><ellipse cx="1490" cy="303.2539" fill="#84BE84" rx="3" ry="3" style="stroke: #038048; stroke-width: 1.0;"/><text fill="#000000" font-family="sans-serif" font-size="11" lengthAdjust="spacingAndGlyphs" textLength="56" x="1499" y="306.2549">void &lt;init&gt;()</text><ellipse cx="1490" cy="317.0898" fill="#84BE84" rx="3" ry="3" style="stroke: #038048; stroke-width: 1.0;"/><text fill="#000000" font-family="sans-serif" font-size="11" lengthAdjust="spacingAndGlyphs" textLength="138" x="1499" y="320.0908">void addFilter(ourStuff.Filter)</text><!--class ourStuff.Analyzer--><rect fill="#FEFECE" filter="url(#f28vhml1slvs0)" height="61.8359" id="ourStuff.Analyzer" style="stroke: #A80036; stroke-width: 1.5;" width="203" x="1579.5" y="87.5"/><ellipse cx="1652.25" cy="103.5" fill="#B4A7E5" rx="11" ry="11" style="stroke: #A80036; stroke-width: 1.0;"/><path d="M1653.2031,100.1406 L1653.2031,106.7969 L1654.9219,106.7969 Q1655.5313,106.7969 1655.7969,107.0313 Q1656.0625,107.2656 1656.0625,107.6563 Q1656.0625,108.0313 1655.7969,108.2656 Q1655.5313,108.5 1654.9219,108.5 L1649.7813,108.5 Q1649.1719,108.5 1648.9063,108.2656 Q1648.6406,108.0313 1648.6406,107.6406 Q1648.6406,107.2656 1648.9063,107.0313 Q1649.1719,106.7969 1649.7813,106.7969 L1651.5,106.7969 L1651.5,100.1406 L1649.7813,100.1406 Q1649.1719,100.1406 1648.9063,99.9063 Q1648.6406,99.6719 1648.6406,99.2813 Q1648.6406,98.9063 1648.9063,98.6719 Q1649.1719,98.4375 1649.7813,98.4375 L1654.9219,98.4375 Q1655.5313,98.4375 1655.7969,98.6719 Q1656.0625,98.9063 1656.0625,99.2813 Q1656.0625,99.6719 1655.7969,99.9063 Q1655.5313,100.1406 1654.9219,100.1406 L1653.2031,100.1406 Z "/><text fill="#000000" font-family="sans-serif" font-size="12" font-style="italic" lengthAdjust="spacingAndGlyphs" textLength="49" x="1672.75" y="108.4102">Analyzer</text><line style="stroke: #A80036; stroke-width: 1.5;" x1="1580.5" x2="1781.5" y1="119.5" y2="119.5"/><line style="stroke: #A80036; stroke-width: 1.5;" x1="1580.5" x2="1781.5" y1="127.5" y2="127.5"/><ellipse cx="1590.5" cy="139.918" fill="#84BE84" rx="3" ry="3" style="stroke: #038048; stroke-width: 1.0;"/><text fill="#000000" font-family="sans-serif" font-size="11" font-style="italic" lengthAdjust="spacingAndGlyphs" textLength="177" x="1599.5" y="142.9189">ourStuff.Data analyze(ourStuff.Data)</text><!--class ourStuff.AnalyzerChain--><rect fill="#FEFECE" filter="url(#f28vhml1slvs0)" height="117.1797" id="ourStuff.AnalyzerChain" style="stroke: #A80036; stroke-width: 1.5;" width="204" x="1340" y="60"/><ellipse cx="1398.75" cy="76" fill="#ADD1B2" rx="11" ry="11" style="stroke: #A80036; stroke-width: 1.0;"/><path d="M1401.5156,71.875 Q1401.6719,71.6563 1401.8594,71.5469 Q1402.0469,71.4375 1402.2656,71.4375 Q1402.6406,71.4375 1402.875,71.6953 Q1403.1094,71.9531 1403.1094,72.5625 L1403.1094,74.0156 Q1403.1094,74.625 1402.875,74.8906 Q1402.6406,75.1563 1402.2656,75.1563 Q1401.9219,75.1563 1401.7188,74.9531 Q1401.5156,74.7656 1401.4063,74.25 Q1401.3594,73.8906 1401.1719,73.7031 Q1400.8438,73.3281 1400.2344,73.1094 Q1399.625,72.8906 1399,72.8906 Q1398.2344,72.8906 1397.6016,73.2188 Q1396.9688,73.5469 1396.4766,74.2969 Q1395.9844,75.0469 1395.9844,76.0781 L1395.9844,77.1719 Q1395.9844,78.4063 1396.875,79.2266 Q1397.7656,80.0469 1399.3594,80.0469 Q1400.2969,80.0469 1400.9531,79.7969 Q1401.3438,79.6406 1401.7656,79.2031 Q1402.0313,78.9375 1402.1797,78.8594 Q1402.3281,78.7813 1402.5313,78.7813 Q1402.8594,78.7813 1403.1172,79.0391 Q1403.375,79.2969 1403.375,79.6406 Q1403.375,79.9844 1403.0313,80.3906 Q1402.5313,80.9688 1401.7344,81.2969 Q1400.6563,81.75 1399.3594,81.75 Q1397.8438,81.75 1396.6406,81.125 Q1395.6563,80.625 1394.9688,79.5547 Q1394.2813,78.4844 1394.2813,77.2031 L1394.2813,76.0469 Q1394.2813,74.7188 1394.8984,73.5703 Q1395.5156,72.4219 1396.6094,71.8047 Q1397.7031,71.1875 1398.9375,71.1875 Q1399.6719,71.1875 1400.3203,71.3516 Q1400.9688,71.5156 1401.5156,71.875 Z "/><text fill="#000000" font-family="sans-serif" font-size="12" lengthAdjust="spacingAndGlyphs" textLength="78" x="1419.25" y="80.9102">AnalyzerChain</text><line style="stroke: #A80036; stroke-width: 1.5;" x1="1341" x2="1543" y1="92" y2="92"/><rect fill="none" height="6" style="stroke: #C82930; stroke-width: 1.0;" width="6" x="1348" y="101.418"/><text fill="#000000" font-family="sans-serif" font-size="11" lengthAdjust="spacingAndGlyphs" textLength="147" x="1360" y="107.4189">java.util.List analyzerCollection</text><line style="stroke: #A80036; stroke-width: 1.5;" x1="1341" x2="1543" y1="113.8359" y2="113.8359"/><ellipse cx="1351" cy="126.2539" fill="#84BE84" rx="3" ry="3" style="stroke: #038048; stroke-width: 1.0;"/><text fill="#000000" font-family="sans-serif" font-size="11" lengthAdjust="spacingAndGlyphs" textLength="56" x="1360" y="129.2549">void &lt;init&gt;()</text><ellipse cx="1351" cy="140.0898" fill="#84BE84" rx="3" ry="3" style="stroke: #038048; stroke-width: 1.0;"/><text fill="#000000" font-family="sans-serif" font-size="11" lengthAdjust="spacingAndGlyphs" textLength="178" x="1360" y="143.0908">void add(ourStuff.AbstractAnalyzer)</text><ellipse cx="1351" cy="153.9258" fill="#84BE84" rx="3" ry="3" style="stroke: #038048; stroke-width: 1.0;"/><text fill="#000000" font-family="sans-serif" font-size="11" lengthAdjust="spacingAndGlyphs" textLength="112" x="1360" y="156.9268">void run(ourStuff.Data)</text><ellipse cx="1351" cy="167.7617" fill="#84BE84" rx="3" ry="3" style="stroke: #038048; stroke-width: 1.0;"/><text fill="#000000" font-family="sans-serif" font-size="11" lengthAdjust="spacingAndGlyphs" textLength="42" x="1360" y="170.7627">int size()</text><!--class ourStuff.AssociationAnalyzer--><rect fill="#FEFECE" filter="url(#f28vhml1slvs0)" height="75.6719" id="ourStuff.AssociationAnalyzer" style="stroke: #A80036; stroke-width: 1.5;" width="205" x="2344.5" y="442"/><ellipse cx="2388.3" cy="458" fill="#ADD1B2" rx="11" ry="11" style="stroke: #A80036; stroke-width: 1.0;"/><path d="M2391.0656,453.875 Q2391.2219,453.6563 2391.4094,453.5469 Q2391.5969,453.4375 2391.8156,453.4375 Q2392.1906,453.4375 2392.425,453.6953 Q2392.6594,453.9531 2392.6594,454.5625 L2392.6594,456.0156 Q2392.6594,456.625 2392.425,456.8906 Q2392.1906,457.1563 2391.8156,457.1563 Q2391.4719,457.1563 2391.2688,456.9531 Q2391.0656,456.7656 2390.9563,456.25 Q2390.9094,455.8906 2390.7219,455.7031 Q2390.3938,455.3281 2389.7844,455.1094 Q2389.175,454.8906 2388.55,454.8906 Q2387.7844,454.8906 2387.1516,455.2188 Q2386.5188,455.5469 2386.0266,456.2969 Q2385.5344,457.0469 2385.5344,458.0781 L2385.5344,459.1719 Q2385.5344,460.4063 2386.425,461.2266 Q2387.3156,462.0469 2388.9094,462.0469 Q2389.8469,462.0469 2390.5031,461.7969 Q2390.8938,461.6406 2391.3156,461.2031 Q2391.5813,460.9375 2391.7297,460.8594 Q2391.8781,460.7813 2392.0813,460.7813 Q2392.4094,460.7813 2392.6672,461.0391 Q2392.925,461.2969 2392.925,461.6406 Q2392.925,461.9844 2392.5813,462.3906 Q2392.0813,462.9688 2391.2844,463.2969 Q2390.2063,463.75 2388.9094,463.75 Q2387.3938,463.75 2386.1906,463.125 Q2385.2063,462.625 2384.5188,461.5547 Q2383.8313,460.4844 2383.8313,459.2031 L2383.8313,458.0469 Q2383.8313,456.7188 2384.4484,455.5703 Q2385.0656,454.4219 2386.1594,453.8047 Q2387.2531,453.1875 2388.4875,453.1875 Q2389.2219,453.1875 2389.8703,453.3516 Q2390.5188,453.5156 2391.0656,453.875 Z "/><text fill="#000000" font-family="sans-serif" font-size="12" lengthAdjust="spacingAndGlyphs" textLength="109" x="2408.7" y="462.9102">AssociationAnalyzer</text><line style="stroke: #A80036; stroke-width: 1.5;" x1="2345.5" x2="2548.5" y1="474" y2="474"/><line style="stroke: #A80036; stroke-width: 1.5;" x1="2345.5" x2="2548.5" y1="482" y2="482"/><ellipse cx="2355.5" cy="494.418" fill="#84BE84" rx="3" ry="3" style="stroke: #038048; stroke-width: 1.0;"/><text fill="#000000" font-family="sans-serif" font-size="11" lengthAdjust="spacingAndGlyphs" textLength="56" x="2364.5" y="497.4189">void &lt;init&gt;()</text><ellipse cx="2355.5" cy="508.2539" fill="#84BE84" rx="3" ry="3" style="stroke: #038048; stroke-width: 1.0;"/><text fill="#000000" font-family="sans-serif" font-size="11" lengthAdjust="spacingAndGlyphs" textLength="179" x="2364.5" y="511.2549">ourStuff.Data analyze(ourStuff.Data)</text><!--class ourStuff.ClassCodeGenAnalyzer--><rect fill="#FEFECE" filter="url(#f28vhml1slvs0)" height="186.3594" id="ourStuff.ClassCodeGenAnalyzer" style="stroke: #A80036; stroke-width: 1.5;" width="299" x="2584.5" y="387"/><ellipse cx="2664.25" cy="403" fill="#ADD1B2" rx="11" ry="11" style="stroke: #A80036; stroke-width: 1.0;"/><path d="M2667.0156,398.875 Q2667.1719,398.6563 2667.3594,398.5469 Q2667.5469,398.4375 2667.7656,398.4375 Q2668.1406,398.4375 2668.375,398.6953 Q2668.6094,398.9531 2668.6094,399.5625 L2668.6094,401.0156 Q2668.6094,401.625 2668.375,401.8906 Q2668.1406,402.1563 2667.7656,402.1563 Q2667.4219,402.1563 2667.2188,401.9531 Q2667.0156,401.7656 2666.9063,401.25 Q2666.8594,400.8906 2666.6719,400.7031 Q2666.3438,400.3281 2665.7344,400.1094 Q2665.125,399.8906 2664.5,399.8906 Q2663.7344,399.8906 2663.1016,400.2188 Q2662.4688,400.5469 2661.9766,401.2969 Q2661.4844,402.0469 2661.4844,403.0781 L2661.4844,404.1719 Q2661.4844,405.4063 2662.375,406.2266 Q2663.2656,407.0469 2664.8594,407.0469 Q2665.7969,407.0469 2666.4531,406.7969 Q2666.8438,406.6406 2667.2656,406.2031 Q2667.5313,405.9375 2667.6797,405.8594 Q2667.8281,405.7813 2668.0313,405.7813 Q2668.3594,405.7813 2668.6172,406.0391 Q2668.875,406.2969 2668.875,406.6406 Q2668.875,406.9844 2668.5313,407.3906 Q2668.0313,407.9688 2667.2344,408.2969 Q2666.1563,408.75 2664.8594,408.75 Q2663.3438,408.75 2662.1406,408.125 Q2661.1563,407.625 2660.4688,406.5547 Q2659.7813,405.4844 2659.7813,404.2031 L2659.7813,403.0469 Q2659.7813,401.7188 2660.3984,400.5703 Q2661.0156,399.4219 2662.1094,398.8047 Q2663.2031,398.1875 2664.4375,398.1875 Q2665.1719,398.1875 2665.8203,398.3516 Q2666.4688,398.5156 2667.0156,398.875 Z "/><text fill="#000000" font-family="sans-serif" font-size="12" lengthAdjust="spacingAndGlyphs" textLength="131" x="2684.75" y="407.9102">ClassCodeGenAnalyzer</text><line style="stroke: #A80036; stroke-width: 1.5;" x1="2585.5" x2="2882.5" y1="419" y2="419"/><line style="stroke: #A80036; stroke-width: 1.5;" x1="2585.5" x2="2882.5" y1="427" y2="427"/><ellipse cx="2595.5" cy="439.418" fill="#84BE84" rx="3" ry="3" style="stroke: #038048; stroke-width: 1.0;"/><text fill="#000000" font-family="sans-serif" font-size="11" lengthAdjust="spacingAndGlyphs" textLength="56" x="2604.5" y="442.4189">void &lt;init&gt;()</text><ellipse cx="2595.5" cy="453.2539" fill="#84BE84" rx="3" ry="3" style="stroke: #038048; stroke-width: 1.0;"/><text fill="#000000" font-family="sans-serif" font-size="11" lengthAdjust="spacingAndGlyphs" textLength="179" x="2604.5" y="456.2549">ourStuff.Data analyze(ourStuff.Data)</text><rect fill="#F24D5C" height="6" style="stroke: #C82930; stroke-width: 1.0;" width="6" x="2592.5" y="464.0898"/><text fill="#000000" font-family="sans-serif" font-size="11" lengthAdjust="spacingAndGlyphs" textLength="272" x="2604.5" y="470.0908">java.lang.String genString(soot.SootClass,ourStuff.Data)</text><rect fill="#F24D5C" height="6" style="stroke: #C82930; stroke-width: 1.0;" width="6" x="2592.5" y="477.9258"/><text fill="#000000" font-family="sans-serif" font-size="11" lengthAdjust="spacingAndGlyphs" textLength="273" x="2604.5" y="483.9268">java.lang.String genMethodDeclaration(soot.SootMethod)</text><rect fill="#F24D5C" height="6" style="stroke: #C82930; stroke-width: 1.0;" width="6" x="2592.5" y="491.7617"/><text fill="#000000" font-family="sans-serif" font-size="11" lengthAdjust="spacingAndGlyphs" textLength="170" x="2604.5" y="497.7627">boolean filterClass(soot.SootClass)</text><rect fill="#F24D5C" height="6" style="stroke: #C82930; stroke-width: 1.0;" width="6" x="2592.5" y="505.5977"/><text fill="#000000" font-family="sans-serif" font-size="11" lengthAdjust="spacingAndGlyphs" textLength="267" x="2604.5" y="511.5986">java.lang.String addDependencyArrows(ourStuff.Data)</text><rect fill="#F24D5C" height="6" style="stroke: #C82930; stroke-width: 1.0;" width="6" x="2592.5" y="519.4336"/><text fill="#000000" font-family="sans-serif" font-size="11" lengthAdjust="spacingAndGlyphs" textLength="263" x="2604.5" y="525.4346">java.lang.String addAssociationArrows(ourStuff.Data)</text><rect fill="#F24D5C" height="6" style="stroke: #C82930; stroke-width: 1.0;" width="6" x="2592.5" y="533.2695"/><text fill="#000000" font-family="sans-serif" font-size="11" lengthAdjust="spacingAndGlyphs" text-decoration="underline" textLength="260" x="2604.5" y="539.2705">void lambda$0(java.lang.StringBuilder,soot.SootClass)</text><line style="stroke: #000000; stroke-width: 1.0;" x1="2604.5" x2="2864.5" y1="541.2705" y2="541.2705"/><rect fill="#F24D5C" height="6" style="stroke: #C82930; stroke-width: 1.0;" width="6" x="2592.5" y="547.1055"/><text fill="#000000" font-family="sans-serif" font-size="11" lengthAdjust="spacingAndGlyphs" text-decoration="underline" textLength="234" x="2604.5" y="553.1064">void lambda$1(soot.SootClass,soot.SootMethod)</text><line style="stroke: #000000; stroke-width: 1.0;" x1="2604.5" x2="2838.5" y1="555.1064" y2="555.1064"/><rect fill="#F24D5C" height="6" style="stroke: #C82930; stroke-width: 1.0;" width="6" x="2592.5" y="560.9414"/><text fill="#000000" font-family="sans-serif" font-size="11" lengthAdjust="spacingAndGlyphs" text-decoration="underline" textLength="221" x="2604.5" y="566.9424">void lambda$2(soot.SootClass,soot.SootField)</text><line style="stroke: #000000; stroke-width: 1.0;" x1="2604.5" x2="2825.5" y1="568.9424" y2="568.9424"/><!--class ourStuff.Data--><rect fill="#FEFECE" filter="url(#f28vhml1slvs0)" height="131.0156" id="ourStuff.Data" style="stroke: #A80036; stroke-width: 1.5;" width="175" x="2134.5" y="414.5"/><ellipse cx="2204.75" cy="430.5" fill="#ADD1B2" rx="11" ry="11" style="stroke: #A80036; stroke-width: 1.0;"/><path d="M2207.5156,426.375 Q2207.6719,426.1563 2207.8594,426.0469 Q2208.0469,425.9375 2208.2656,425.9375 Q2208.6406,425.9375 2208.875,426.1953 Q2209.1094,426.4531 2209.1094,427.0625 L2209.1094,428.5156 Q2209.1094,429.125 2208.875,429.3906 Q2208.6406,429.6563 2208.2656,429.6563 Q2207.9219,429.6563 2207.7188,429.4531 Q2207.5156,429.2656 2207.4063,428.75 Q2207.3594,428.3906 2207.1719,428.2031 Q2206.8438,427.8281 2206.2344,427.6094 Q2205.625,427.3906 2205,427.3906 Q2204.2344,427.3906 2203.6016,427.7188 Q2202.9688,428.0469 2202.4766,428.7969 Q2201.9844,429.5469 2201.9844,430.5781 L2201.9844,431.6719 Q2201.9844,432.9063 2202.875,433.7266 Q2203.7656,434.5469 2205.3594,434.5469 Q2206.2969,434.5469 2206.9531,434.2969 Q2207.3438,434.1406 2207.7656,433.7031 Q2208.0313,433.4375 2208.1797,433.3594 Q2208.3281,433.2813 2208.5313,433.2813 Q2208.8594,433.2813 2209.1172,433.5391 Q2209.375,433.7969 2209.375,434.1406 Q2209.375,434.4844 2209.0313,434.8906 Q2208.5313,435.4688 2207.7344,435.7969 Q2206.6563,436.25 2205.3594,436.25 Q2203.8438,436.25 2202.6406,435.625 Q2201.6563,435.125 2200.9688,434.0547 Q2200.2813,432.9844 2200.2813,431.7031 L2200.2813,430.5469 Q2200.2813,429.2188 2200.8984,428.0703 Q2201.5156,426.9219 2202.6094,426.3047 Q2203.7031,425.6875 2204.9375,425.6875 Q2205.6719,425.6875 2206.3203,425.8516 Q2206.9688,426.0156 2207.5156,426.375 Z "/><text fill="#000000" font-family="sans-serif" font-size="12" lengthAdjust="spacingAndGlyphs" textLength="26" x="2225.25" y="435.4102">Data</text><line style="stroke: #A80036; stroke-width: 1.5;" x1="2135.5" x2="2308.5" y1="446.5" y2="446.5"/><ellipse cx="2145.5" cy="458.918" fill="none" rx="3" ry="3" style="stroke: #038048; stroke-width: 1.0;"/><text fill="#000000" font-family="sans-serif" font-size="11" lengthAdjust="spacingAndGlyphs" textLength="126" x="2154.5" y="461.9189">java.util.Collection classes</text><ellipse cx="2145.5" cy="472.7539" fill="none" rx="3" ry="3" style="stroke: #038048; stroke-width: 1.0;"/><text fill="#000000" font-family="sans-serif" font-size="11" lengthAdjust="spacingAndGlyphs" textLength="149" x="2154.5" y="475.7549">java.util.Collection relationships</text><ellipse cx="2145.5" cy="486.5898" fill="none" rx="3" ry="3" style="stroke: #038048; stroke-width: 1.0;"/><text fill="#000000" font-family="sans-serif" font-size="11" lengthAdjust="spacingAndGlyphs" textLength="92" x="2154.5" y="489.5908">java.util.Map config</text><ellipse cx="2145.5" cy="500.4258" fill="none" rx="3" ry="3" style="stroke: #038048; stroke-width: 1.0;"/><text fill="#000000" font-family="sans-serif" font-size="11" lengthAdjust="spacingAndGlyphs" textLength="88" x="2154.5" y="503.4268">soot.Scene scene</text><ellipse cx="2145.5" cy="514.2617" fill="none" rx="3" ry="3" style="stroke: #038048; stroke-width: 1.0;"/><text fill="#000000" font-family="sans-serif" font-size="11" lengthAdjust="spacingAndGlyphs" textLength="102" x="2154.5" y="517.2627">java.nio.file.Path path</text><line style="stroke: #A80036; stroke-width: 1.5;" x1="2135.5" x2="2308.5" y1="523.6797" y2="523.6797"/><ellipse cx="2145.5" cy="536.0977" fill="#84BE84" rx="3" ry="3" style="stroke: #038048; stroke-width: 1.0;"/><text fill="#000000" font-family="sans-serif" font-size="11" lengthAdjust="spacingAndGlyphs" textLength="56" x="2154.5" y="539.0986">void &lt;init&gt;()</text><!--class ourStuff.DependencyAnalyzer--><rect fill="#FEFECE" filter="url(#f28vhml1slvs0)" height="103.3438" id="ourStuff.DependencyAnalyzer" style="stroke: #A80036; stroke-width: 1.5;" width="532" x="316" y="428.5"/><ellipse cx="520.75" cy="444.5" fill="#ADD1B2" rx="11" ry="11" style="stroke: #A80036; stroke-width: 1.0;"/><path d="M523.5156,440.375 Q523.6719,440.1563 523.8594,440.0469 Q524.0469,439.9375 524.2656,439.9375 Q524.6406,439.9375 524.875,440.1953 Q525.1094,440.4531 525.1094,441.0625 L525.1094,442.5156 Q525.1094,443.125 524.875,443.3906 Q524.6406,443.6563 524.2656,443.6563 Q523.9219,443.6563 523.7188,443.4531 Q523.5156,443.2656 523.4063,442.75 Q523.3594,442.3906 523.1719,442.2031 Q522.8438,441.8281 522.2344,441.6094 Q521.625,441.3906 521,441.3906 Q520.2344,441.3906 519.6016,441.7188 Q518.9688,442.0469 518.4766,442.7969 Q517.9844,443.5469 517.9844,444.5781 L517.9844,445.6719 Q517.9844,446.9063 518.875,447.7266 Q519.7656,448.5469 521.3594,448.5469 Q522.2969,448.5469 522.9531,448.2969 Q523.3438,448.1406 523.7656,447.7031 Q524.0313,447.4375 524.1797,447.3594 Q524.3281,447.2813 524.5313,447.2813 Q524.8594,447.2813 525.1172,447.5391 Q525.375,447.7969 525.375,448.1406 Q525.375,448.4844 525.0313,448.8906 Q524.5313,449.4688 523.7344,449.7969 Q522.6563,450.25 521.3594,450.25 Q519.8438,450.25 518.6406,449.625 Q517.6563,449.125 516.9688,448.0547 Q516.2813,446.9844 516.2813,445.7031 L516.2813,444.5469 Q516.2813,443.2188 516.8984,442.0703 Q517.5156,440.9219 518.6094,440.3047 Q519.7031,439.6875 520.9375,439.6875 Q521.6719,439.6875 522.3203,439.8516 Q522.9688,440.0156 523.5156,440.375 Z "/><text fill="#000000" font-family="sans-serif" font-size="12" lengthAdjust="spacingAndGlyphs" textLength="114" x="541.25" y="449.4102">DependencyAnalyzer</text><line style="stroke: #A80036; stroke-width: 1.5;" x1="317" x2="847" y1="460.5" y2="460.5"/><line style="stroke: #A80036; stroke-width: 1.5;" x1="317" x2="847" y1="468.5" y2="468.5"/><ellipse cx="327" cy="480.918" fill="#84BE84" rx="3" ry="3" style="stroke: #038048; stroke-width: 1.0;"/><text fill="#000000" font-family="sans-serif" font-size="11" lengthAdjust="spacingAndGlyphs" textLength="56" x="336" y="483.9189">void &lt;init&gt;()</text><ellipse cx="327" cy="494.7539" fill="#84BE84" rx="3" ry="3" style="stroke: #038048; stroke-width: 1.0;"/><text fill="#000000" font-family="sans-serif" font-size="11" lengthAdjust="spacingAndGlyphs" textLength="179" x="336" y="497.7549">ourStuff.Data analyze(ourStuff.Data)</text><rect fill="#F24D5C" height="6" style="stroke: #C82930; stroke-width: 1.0;" width="6" x="324" y="505.5898"/><text fill="#000000" font-family="sans-serif" font-size="11" lengthAdjust="spacingAndGlyphs" textLength="506" x="336" y="511.5908">void getTypeDependencies(ourStuff.Data,soot.SootClass,edu.rosehulman.jvm.sigevaluator.GenericType)</text><rect fill="#F24D5C" height="6" style="stroke: #C82930; stroke-width: 1.0;" width="6" x="324" y="519.4258"/><text fill="#000000" font-family="sans-serif" font-size="11" lengthAdjust="spacingAndGlyphs" text-decoration="underline" textLength="151" x="336" y="525.4268">void lambda$0(java.lang.String)</text><line style="stroke: #000000; stroke-width: 1.0;" x1="336" x2="487" y1="527.4268" y2="527.4268"/><!--class ourStuff.FileCreator--><rect fill="#FEFECE" filter="url(#f28vhml1slvs0)" height="75.6719" id="ourStuff.FileCreator" style="stroke: #A80036; stroke-width: 1.5;" width="169" x="605.5" y="80.5"/><ellipse cx="655.25" cy="96.5" fill="#ADD1B2" rx="11" ry="11" style="stroke: #A80036; stroke-width: 1.0;"/><path d="M658.0156,92.375 Q658.1719,92.1563 658.3594,92.0469 Q658.5469,91.9375 658.7656,91.9375 Q659.1406,91.9375 659.375,92.1953 Q659.6094,92.4531 659.6094,93.0625 L659.6094,94.5156 Q659.6094,95.125 659.375,95.3906 Q659.1406,95.6563 658.7656,95.6563 Q658.4219,95.6563 658.2188,95.4531 Q658.0156,95.2656 657.9063,94.75 Q657.8594,94.3906 657.6719,94.2031 Q657.3438,93.8281 656.7344,93.6094 Q656.125,93.3906 655.5,93.3906 Q654.7344,93.3906 654.1016,93.7188 Q653.4688,94.0469 652.9766,94.7969 Q652.4844,95.5469 652.4844,96.5781 L652.4844,97.6719 Q652.4844,98.9063 653.375,99.7266 Q654.2656,100.5469 655.8594,100.5469 Q656.7969,100.5469 657.4531,100.2969 Q657.8438,100.1406 658.2656,99.7031 Q658.5313,99.4375 658.6797,99.3594 Q658.8281,99.2813 659.0313,99.2813 Q659.3594,99.2813 659.6172,99.5391 Q659.875,99.7969 659.875,100.1406 Q659.875,100.4844 659.5313,100.8906 Q659.0313,101.4688 658.2344,101.7969 Q657.1563,102.25 655.8594,102.25 Q654.3438,102.25 653.1406,101.625 Q652.1563,101.125 651.4688,100.0547 Q650.7813,98.9844 650.7813,97.7031 L650.7813,96.5469 Q650.7813,95.2188 651.3984,94.0703 Q652.0156,92.9219 653.1094,92.3047 Q654.2031,91.6875 655.4375,91.6875 Q656.1719,91.6875 656.8203,91.8516 Q657.4688,92.0156 658.0156,92.375 Z "/><text fill="#000000" font-family="sans-serif" font-size="12" lengthAdjust="spacingAndGlyphs" textLength="61" x="675.75" y="101.4102">FileCreator</text><line style="stroke: #A80036; stroke-width: 1.5;" x1="606.5" x2="773.5" y1="112.5" y2="112.5"/><line style="stroke: #A80036; stroke-width: 1.5;" x1="606.5" x2="773.5" y1="120.5" y2="120.5"/><ellipse cx="616.5" cy="132.918" fill="#84BE84" rx="3" ry="3" style="stroke: #038048; stroke-width: 1.0;"/><text fill="#000000" font-family="sans-serif" font-size="11" lengthAdjust="spacingAndGlyphs" textLength="56" x="625.5" y="135.9189">void &lt;init&gt;()</text><ellipse cx="616.5" cy="146.7539" fill="#84BE84" rx="3" ry="3" style="stroke: #038048; stroke-width: 1.0;"/><text fill="#000000" font-family="sans-serif" font-size="11" lengthAdjust="spacingAndGlyphs" textLength="143" x="625.5" y="149.7549">void getSVG(java.lang.String)</text><!--class ourStuff.Filter--><rect fill="#FEFECE" filter="url(#f28vhml1slvs0)" height="89.5078" id="ourStuff.Filter" style="stroke: #A80036; stroke-width: 1.5;" width="190" x="257" y="639.5"/><ellipse cx="334.25" cy="655.5" fill="#B4A7E5" rx="11" ry="11" style="stroke: #A80036; stroke-width: 1.0;"/><path d="M335.2031,652.1406 L335.2031,658.7969 L336.9219,658.7969 Q337.5313,658.7969 337.7969,659.0313 Q338.0625,659.2656 338.0625,659.6563 Q338.0625,660.0313 337.7969,660.2656 Q337.5313,660.5 336.9219,660.5 L331.7813,660.5 Q331.1719,660.5 330.9063,660.2656 Q330.6406,660.0313 330.6406,659.6406 Q330.6406,659.2656 330.9063,659.0313 Q331.1719,658.7969 331.7813,658.7969 L333.5,658.7969 L333.5,652.1406 L331.7813,652.1406 Q331.1719,652.1406 330.9063,651.9063 Q330.6406,651.6719 330.6406,651.2813 Q330.6406,650.9063 330.9063,650.6719 Q331.1719,650.4375 331.7813,650.4375 L336.9219,650.4375 Q337.5313,650.4375 337.7969,650.6719 Q338.0625,650.9063 338.0625,651.2813 Q338.0625,651.6719 337.7969,651.9063 Q337.5313,652.1406 336.9219,652.1406 L335.2031,652.1406 Z "/><text fill="#000000" font-family="sans-serif" font-size="12" font-style="italic" lengthAdjust="spacingAndGlyphs" textLength="27" x="354.75" y="660.4102">Filter</text><line style="stroke: #A80036; stroke-width: 1.5;" x1="258" x2="446" y1="671.5" y2="671.5"/><line style="stroke: #A80036; stroke-width: 1.5;" x1="258" x2="446" y1="679.5" y2="679.5"/><ellipse cx="268" cy="691.918" fill="#84BE84" rx="3" ry="3" style="stroke: #038048; stroke-width: 1.0;"/><text fill="#000000" font-family="sans-serif" font-size="11" font-style="italic" lengthAdjust="spacingAndGlyphs" textLength="157" x="277" y="694.9189">boolean ignore(soot.SootClass)</text><ellipse cx="268" cy="705.7539" fill="#84BE84" rx="3" ry="3" style="stroke: #038048; stroke-width: 1.0;"/><text fill="#000000" font-family="sans-serif" font-size="11" font-style="italic" lengthAdjust="spacingAndGlyphs" textLength="164" x="277" y="708.7549">boolean ignore(soot.SootMethod)</text><ellipse cx="268" cy="719.5898" fill="#84BE84" rx="3" ry="3" style="stroke: #038048; stroke-width: 1.0;"/><text fill="#000000" font-family="sans-serif" font-size="11" font-style="italic" lengthAdjust="spacingAndGlyphs" textLength="153" x="277" y="722.5908">boolean ignore(soot.SootField)</text><!--class ourStuff.ImplementationAnalyzer--><rect fill="#FEFECE" filter="url(#f28vhml1slvs0)" height="103.3438" id="ourStuff.ImplementationAnalyzer" style="stroke: #A80036; stroke-width: 1.5;" width="286" x="1573" y="428.5"/><ellipse cx="1646.25" cy="444.5" fill="#ADD1B2" rx="11" ry="11" style="stroke: #A80036; stroke-width: 1.0;"/><path d="M1649.0156,440.375 Q1649.1719,440.1563 1649.3594,440.0469 Q1649.5469,439.9375 1649.7656,439.9375 Q1650.1406,439.9375 1650.375,440.1953 Q1650.6094,440.4531 1650.6094,441.0625 L1650.6094,442.5156 Q1650.6094,443.125 1650.375,443.3906 Q1650.1406,443.6563 1649.7656,443.6563 Q1649.4219,443.6563 1649.2188,443.4531 Q1649.0156,443.2656 1648.9063,442.75 Q1648.8594,442.3906 1648.6719,442.2031 Q1648.3438,441.8281 1647.7344,441.6094 Q1647.125,441.3906 1646.5,441.3906 Q1645.7344,441.3906 1645.1016,441.7188 Q1644.4688,442.0469 1643.9766,442.7969 Q1643.4844,443.5469 1643.4844,444.5781 L1643.4844,445.6719 Q1643.4844,446.9063 1644.375,447.7266 Q1645.2656,448.5469 1646.8594,448.5469 Q1647.7969,448.5469 1648.4531,448.2969 Q1648.8438,448.1406 1649.2656,447.7031 Q1649.5313,447.4375 1649.6797,447.3594 Q1649.8281,447.2813 1650.0313,447.2813 Q1650.3594,447.2813 1650.6172,447.5391 Q1650.875,447.7969 1650.875,448.1406 Q1650.875,448.4844 1650.5313,448.8906 Q1650.0313,449.4688 1649.2344,449.7969 Q1648.1563,450.25 1646.8594,450.25 Q1645.3438,450.25 1644.1406,449.625 Q1643.1563,449.125 1642.4688,448.0547 Q1641.7813,446.9844 1641.7813,445.7031 L1641.7813,444.5469 Q1641.7813,443.2188 1642.3984,442.0703 Q1643.0156,440.9219 1644.1094,440.3047 Q1645.2031,439.6875 1646.4375,439.6875 Q1647.1719,439.6875 1647.8203,439.8516 Q1648.4688,440.0156 1649.0156,440.375 Z "/><text fill="#000000" font-family="sans-serif" font-size="12" lengthAdjust="spacingAndGlyphs" textLength="131" x="1666.75" y="449.4102">ImplementationAnalyzer</text><line style="stroke: #A80036; stroke-width: 1.5;" x1="1574" x2="1858" y1="460.5" y2="460.5"/><line style="stroke: #A80036; stroke-width: 1.5;" x1="1574" x2="1858" y1="468.5" y2="468.5"/><ellipse cx="1584" cy="480.918" fill="#84BE84" rx="3" ry="3" style="stroke: #038048; stroke-width: 1.0;"/><text fill="#000000" font-family="sans-serif" font-size="11" lengthAdjust="spacingAndGlyphs" textLength="56" x="1593" y="483.9189">void &lt;init&gt;()</text><ellipse cx="1584" cy="494.7539" fill="#84BE84" rx="3" ry="3" style="stroke: #038048; stroke-width: 1.0;"/><text fill="#000000" font-family="sans-serif" font-size="11" lengthAdjust="spacingAndGlyphs" textLength="179" x="1593" y="497.7549">ourStuff.Data analyze(ourStuff.Data)</text><rect fill="#F24D5C" height="6" style="stroke: #C82930; stroke-width: 1.0;" width="6" x="1581" y="505.5898"/><text fill="#000000" font-family="sans-serif" font-size="11" lengthAdjust="spacingAndGlyphs" textLength="260" x="1593" y="511.5908">java.util.Collection getImplementations(soot.SootClass)</text><rect fill="#F24D5C" height="6" style="stroke: #C82930; stroke-width: 1.0;" width="6" x="1581" y="519.4258"/><text fill="#000000" font-family="sans-serif" font-size="11" lengthAdjust="spacingAndGlyphs" textLength="218" x="1593" y="525.4268">void lambda$0(ourStuff.Data,soot.SootClass)</text><!--class ourStuff.InheritenceAnalyzer--><rect fill="#FEFECE" filter="url(#f28vhml1slvs0)" height="103.3438" id="ourStuff.InheritenceAnalyzer" style="stroke: #A80036; stroke-width: 1.5;" width="263" x="1274.5" y="428.5"/><ellipse cx="1348.75" cy="444.5" fill="#ADD1B2" rx="11" ry="11" style="stroke: #A80036; stroke-width: 1.0;"/><path d="M1351.5156,440.375 Q1351.6719,440.1563 1351.8594,440.0469 Q1352.0469,439.9375 1352.2656,439.9375 Q1352.6406,439.9375 1352.875,440.1953 Q1353.1094,440.4531 1353.1094,441.0625 L1353.1094,442.5156 Q1353.1094,443.125 1352.875,443.3906 Q1352.6406,443.6563 1352.2656,443.6563 Q1351.9219,443.6563 1351.7188,443.4531 Q1351.5156,443.2656 1351.4063,442.75 Q1351.3594,442.3906 1351.1719,442.2031 Q1350.8438,441.8281 1350.2344,441.6094 Q1349.625,441.3906 1349,441.3906 Q1348.2344,441.3906 1347.6016,441.7188 Q1346.9688,442.0469 1346.4766,442.7969 Q1345.9844,443.5469 1345.9844,444.5781 L1345.9844,445.6719 Q1345.9844,446.9063 1346.875,447.7266 Q1347.7656,448.5469 1349.3594,448.5469 Q1350.2969,448.5469 1350.9531,448.2969 Q1351.3438,448.1406 1351.7656,447.7031 Q1352.0313,447.4375 1352.1797,447.3594 Q1352.3281,447.2813 1352.5313,447.2813 Q1352.8594,447.2813 1353.1172,447.5391 Q1353.375,447.7969 1353.375,448.1406 Q1353.375,448.4844 1353.0313,448.8906 Q1352.5313,449.4688 1351.7344,449.7969 Q1350.6563,450.25 1349.3594,450.25 Q1347.8438,450.25 1346.6406,449.625 Q1345.6563,449.125 1344.9688,448.0547 Q1344.2813,446.9844 1344.2813,445.7031 L1344.2813,444.5469 Q1344.2813,443.2188 1344.8984,442.0703 Q1345.5156,440.9219 1346.6094,440.3047 Q1347.7031,439.6875 1348.9375,439.6875 Q1349.6719,439.6875 1350.3203,439.8516 Q1350.9688,440.0156 1351.5156,440.375 Z "/><text fill="#000000" font-family="sans-serif" font-size="12" lengthAdjust="spacingAndGlyphs" textLength="106" x="1369.25" y="449.4102">InheritenceAnalyzer</text><line style="stroke: #A80036; stroke-width: 1.5;" x1="1275.5" x2="1536.5" y1="460.5" y2="460.5"/><line style="stroke: #A80036; stroke-width: 1.5;" x1="1275.5" x2="1536.5" y1="468.5" y2="468.5"/><ellipse cx="1285.5" cy="480.918" fill="#84BE84" rx="3" ry="3" style="stroke: #038048; stroke-width: 1.0;"/><text fill="#000000" font-family="sans-serif" font-size="11" lengthAdjust="spacingAndGlyphs" textLength="56" x="1294.5" y="483.9189">void &lt;init&gt;()</text><ellipse cx="1285.5" cy="494.7539" fill="#84BE84" rx="3" ry="3" style="stroke: #038048; stroke-width: 1.0;"/><text fill="#000000" font-family="sans-serif" font-size="11" lengthAdjust="spacingAndGlyphs" textLength="179" x="1294.5" y="497.7549">ourStuff.Data analyze(ourStuff.Data)</text><rect fill="#F24D5C" height="6" style="stroke: #C82930; stroke-width: 1.0;" width="6" x="1282.5" y="505.5898"/><text fill="#000000" font-family="sans-serif" font-size="11" lengthAdjust="spacingAndGlyphs" textLength="237" x="1294.5" y="511.5908">java.util.Collection getInheritance(soot.SootClass)</text><rect fill="#F24D5C" height="6" style="stroke: #C82930; stroke-width: 1.0;" width="6" x="1282.5" y="519.4258"/><text fill="#000000" font-family="sans-serif" font-size="11" lengthAdjust="spacingAndGlyphs" textLength="218" x="1294.5" y="525.4268">void lambda$0(ourStuff.Data,soot.SootClass)</text><!--class ourStuff.JDKFilter--><rect fill="#FEFECE" filter="url(#f28vhml1slvs0)" height="103.3438" id="ourStuff.JDKFilter" style="stroke: #A80036; stroke-width: 1.5;" width="186" x="38" y="796"/><ellipse cx="101.75" cy="812" fill="#ADD1B2" rx="11" ry="11" style="stroke: #A80036; stroke-width: 1.0;"/><path d="M104.5156,807.875 Q104.6719,807.6563 104.8594,807.5469 Q105.0469,807.4375 105.2656,807.4375 Q105.6406,807.4375 105.875,807.6953 Q106.1094,807.9531 106.1094,808.5625 L106.1094,810.0156 Q106.1094,810.625 105.875,810.8906 Q105.6406,811.1563 105.2656,811.1563 Q104.9219,811.1563 104.7188,810.9531 Q104.5156,810.7656 104.4063,810.25 Q104.3594,809.8906 104.1719,809.7031 Q103.8438,809.3281 103.2344,809.1094 Q102.625,808.8906 102,808.8906 Q101.2344,808.8906 100.6016,809.2188 Q99.9688,809.5469 99.4766,810.2969 Q98.9844,811.0469 98.9844,812.0781 L98.9844,813.1719 Q98.9844,814.4063 99.875,815.2266 Q100.7656,816.0469 102.3594,816.0469 Q103.2969,816.0469 103.9531,815.7969 Q104.3438,815.6406 104.7656,815.2031 Q105.0313,814.9375 105.1797,814.8594 Q105.3281,814.7813 105.5313,814.7813 Q105.8594,814.7813 106.1172,815.0391 Q106.375,815.2969 106.375,815.6406 Q106.375,815.9844 106.0313,816.3906 Q105.5313,816.9688 104.7344,817.2969 Q103.6563,817.75 102.3594,817.75 Q100.8438,817.75 99.6406,817.125 Q98.6563,816.625 97.9688,815.5547 Q97.2813,814.4844 97.2813,813.2031 L97.2813,812.0469 Q97.2813,810.7188 97.8984,809.5703 Q98.5156,808.4219 99.6094,807.8047 Q100.7031,807.1875 101.9375,807.1875 Q102.6719,807.1875 103.3203,807.3516 Q103.9688,807.5156 104.5156,807.875 Z "/><text fill="#000000" font-family="sans-serif" font-size="12" lengthAdjust="spacingAndGlyphs" textLength="50" x="122.25" y="816.9102">JDKFilter</text><line style="stroke: #A80036; stroke-width: 1.5;" x1="39" x2="223" y1="828" y2="828"/><line style="stroke: #A80036; stroke-width: 1.5;" x1="39" x2="223" y1="836" y2="836"/><ellipse cx="49" cy="848.418" fill="#84BE84" rx="3" ry="3" style="stroke: #038048; stroke-width: 1.0;"/><text fill="#000000" font-family="sans-serif" font-size="11" lengthAdjust="spacingAndGlyphs" textLength="56" x="58" y="851.4189">void &lt;init&gt;()</text><ellipse cx="49" cy="862.2539" fill="#84BE84" rx="3" ry="3" style="stroke: #038048; stroke-width: 1.0;"/><text fill="#000000" font-family="sans-serif" font-size="11" lengthAdjust="spacingAndGlyphs" textLength="152" x="58" y="865.2549">boolean ignore(soot.SootClass)</text><ellipse cx="49" cy="876.0898" fill="#84BE84" rx="3" ry="3" style="stroke: #038048; stroke-width: 1.0;"/><text fill="#000000" font-family="sans-serif" font-size="11" lengthAdjust="spacingAndGlyphs" textLength="160" x="58" y="879.0908">boolean ignore(soot.SootMethod)</text><ellipse cx="49" cy="889.9258" fill="#84BE84" rx="3" ry="3" style="stroke: #038048; stroke-width: 1.0;"/><text fill="#000000" font-family="sans-serif" font-size="11" lengthAdjust="spacingAndGlyphs" textLength="147" x="58" y="892.9268">boolean ignore(soot.SootField)</text><!--class ourStuff.Preprocessor--><rect fill="#FEFECE" filter="url(#f28vhml1slvs0)" height="117.1797" id="ourStuff.Preprocessor" style="stroke: #A80036; stroke-width: 1.5;" width="356" x="883" y="421.5"/><ellipse cx="1019.25" cy="437.5" fill="#ADD1B2" rx="11" ry="11" style="stroke: #A80036; stroke-width: 1.0;"/><path d="M1022.0156,433.375 Q1022.1719,433.1563 1022.3594,433.0469 Q1022.5469,432.9375 1022.7656,432.9375 Q1023.1406,432.9375 1023.375,433.1953 Q1023.6094,433.4531 1023.6094,434.0625 L1023.6094,435.5156 Q1023.6094,436.125 1023.375,436.3906 Q1023.1406,436.6563 1022.7656,436.6563 Q1022.4219,436.6563 1022.2188,436.4531 Q1022.0156,436.2656 1021.9063,435.75 Q1021.8594,435.3906 1021.6719,435.2031 Q1021.3438,434.8281 1020.7344,434.6094 Q1020.125,434.3906 1019.5,434.3906 Q1018.7344,434.3906 1018.1016,434.7188 Q1017.4688,435.0469 1016.9766,435.7969 Q1016.4844,436.5469 1016.4844,437.5781 L1016.4844,438.6719 Q1016.4844,439.9063 1017.375,440.7266 Q1018.2656,441.5469 1019.8594,441.5469 Q1020.7969,441.5469 1021.4531,441.2969 Q1021.8438,441.1406 1022.2656,440.7031 Q1022.5313,440.4375 1022.6797,440.3594 Q1022.8281,440.2813 1023.0313,440.2813 Q1023.3594,440.2813 1023.6172,440.5391 Q1023.875,440.7969 1023.875,441.1406 Q1023.875,441.4844 1023.5313,441.8906 Q1023.0313,442.4688 1022.2344,442.7969 Q1021.1563,443.25 1019.8594,443.25 Q1018.3438,443.25 1017.1406,442.625 Q1016.1563,442.125 1015.4688,441.0547 Q1014.7813,439.9844 1014.7813,438.7031 L1014.7813,437.5469 Q1014.7813,436.2188 1015.3984,435.0703 Q1016.0156,433.9219 1017.1094,433.3047 Q1018.2031,432.6875 1019.4375,432.6875 Q1020.1719,432.6875 1020.8203,432.8516 Q1021.4688,433.0156 1022.0156,433.375 Z "/><text fill="#000000" font-family="sans-serif" font-size="12" lengthAdjust="spacingAndGlyphs" textLength="75" x="1039.75" y="442.4102">Preprocessor</text><line style="stroke: #A80036; stroke-width: 1.5;" x1="884" x2="1238" y1="453.5" y2="453.5"/><rect fill="none" height="6" style="stroke: #C82930; stroke-width: 1.0;" width="6" x="891" y="462.918"/><text fill="#000000" font-family="sans-serif" font-size="11" lengthAdjust="spacingAndGlyphs" textLength="103" x="903" y="468.9189">java.util.Map filterMap</text><line style="stroke: #A80036; stroke-width: 1.5;" x1="884" x2="1238" y1="475.3359" y2="475.3359"/><ellipse cx="894" cy="487.7539" fill="#84BE84" rx="3" ry="3" style="stroke: #038048; stroke-width: 1.0;"/><text fill="#000000" font-family="sans-serif" font-size="11" lengthAdjust="spacingAndGlyphs" textLength="56" x="903" y="490.7549">void &lt;init&gt;()</text><ellipse cx="894" cy="501.5898" fill="#84BE84" rx="3" ry="3" style="stroke: #038048; stroke-width: 1.0;"/><text fill="#000000" font-family="sans-serif" font-size="11" lengthAdjust="spacingAndGlyphs" textLength="330" x="903" y="504.5908">ourStuff.AnalyzerChain makePileline(java.lang.String[],ourStuff.Data)</text><rect fill="#F24D5C" height="6" style="stroke: #C82930; stroke-width: 1.0;" width="6" x="891" y="512.4258"/><text fill="#000000" font-family="sans-serif" font-size="11" lengthAdjust="spacingAndGlyphs" textLength="200" x="903" y="518.4268">java.util.Map configGen(java.lang.String[])</text><ellipse cx="894" cy="529.2617" fill="#84BE84" rx="3" ry="3" style="stroke: #038048; stroke-width: 1.0;"/><text fill="#000000" font-family="sans-serif" font-size="11" lengthAdjust="spacingAndGlyphs" textLength="215" x="903" y="532.2627">void addFilter(java.lang.String,ourStuff.Filter)</text><!--class ourStuff.PrivateFilter--><rect fill="#FEFECE" filter="url(#f28vhml1slvs0)" height="103.3438" id="ourStuff.PrivateFilter" style="stroke: #A80036; stroke-width: 1.5;" width="186" x="259" y="796"/><ellipse cx="315.75" cy="812" fill="#ADD1B2" rx="11" ry="11" style="stroke: #A80036; stroke-width: 1.0;"/><path d="M318.5156,807.875 Q318.6719,807.6563 318.8594,807.5469 Q319.0469,807.4375 319.2656,807.4375 Q319.6406,807.4375 319.875,807.6953 Q320.1094,807.9531 320.1094,808.5625 L320.1094,810.0156 Q320.1094,810.625 319.875,810.8906 Q319.6406,811.1563 319.2656,811.1563 Q318.9219,811.1563 318.7188,810.9531 Q318.5156,810.7656 318.4063,810.25 Q318.3594,809.8906 318.1719,809.7031 Q317.8438,809.3281 317.2344,809.1094 Q316.625,808.8906 316,808.8906 Q315.2344,808.8906 314.6016,809.2188 Q313.9688,809.5469 313.4766,810.2969 Q312.9844,811.0469 312.9844,812.0781 L312.9844,813.1719 Q312.9844,814.4063 313.875,815.2266 Q314.7656,816.0469 316.3594,816.0469 Q317.2969,816.0469 317.9531,815.7969 Q318.3438,815.6406 318.7656,815.2031 Q319.0313,814.9375 319.1797,814.8594 Q319.3281,814.7813 319.5313,814.7813 Q319.8594,814.7813 320.1172,815.0391 Q320.375,815.2969 320.375,815.6406 Q320.375,815.9844 320.0313,816.3906 Q319.5313,816.9688 318.7344,817.2969 Q317.6563,817.75 316.3594,817.75 Q314.8438,817.75 313.6406,817.125 Q312.6563,816.625 311.9688,815.5547 Q311.2813,814.4844 311.2813,813.2031 L311.2813,812.0469 Q311.2813,810.7188 311.8984,809.5703 Q312.5156,808.4219 313.6094,807.8047 Q314.7031,807.1875 315.9375,807.1875 Q316.6719,807.1875 317.3203,807.3516 Q317.9688,807.5156 318.5156,807.875 Z "/><text fill="#000000" font-family="sans-serif" font-size="12" lengthAdjust="spacingAndGlyphs" textLength="64" x="336.25" y="816.9102">PrivateFilter</text><line style="stroke: #A80036; stroke-width: 1.5;" x1="260" x2="444" y1="828" y2="828"/><line style="stroke: #A80036; stroke-width: 1.5;" x1="260" x2="444" y1="836" y2="836"/><ellipse cx="270" cy="848.418" fill="#84BE84" rx="3" ry="3" style="stroke: #038048; stroke-width: 1.0;"/><text fill="#000000" font-family="sans-serif" font-size="11" lengthAdjust="spacingAndGlyphs" textLength="56" x="279" y="851.4189">void &lt;init&gt;()</text><ellipse cx="270" cy="862.2539" fill="#84BE84" rx="3" ry="3" style="stroke: #038048; stroke-width: 1.0;"/><text fill="#000000" font-family="sans-serif" font-size="11" lengthAdjust="spacingAndGlyphs" textLength="152" x="279" y="865.2549">boolean ignore(soot.SootClass)</text><ellipse cx="270" cy="876.0898" fill="#84BE84" rx="3" ry="3" style="stroke: #038048; stroke-width: 1.0;"/><text fill="#000000" font-family="sans-serif" font-size="11" lengthAdjust="spacingAndGlyphs" textLength="160" x="279" y="879.0908">boolean ignore(soot.SootMethod)</text><ellipse cx="270" cy="889.9258" fill="#84BE84" rx="3" ry="3" style="stroke: #038048; stroke-width: 1.0;"/><text fill="#000000" font-family="sans-serif" font-size="11" lengthAdjust="spacingAndGlyphs" textLength="147" x="279" y="892.9268">boolean ignore(soot.SootField)</text><!--class ourStuff.ProtectedFilter--><rect fill="#FEFECE" filter="url(#f28vhml1slvs0)" height="103.3438" id="ourStuff.ProtectedFilter" style="stroke: #A80036; stroke-width: 1.5;" width="186" x="480" y="796"/><ellipse cx="529.25" cy="812" fill="#ADD1B2" rx="11" ry="11" style="stroke: #A80036; stroke-width: 1.0;"/><path d="M532.0156,807.875 Q532.1719,807.6563 532.3594,807.5469 Q532.5469,807.4375 532.7656,807.4375 Q533.1406,807.4375 533.375,807.6953 Q533.6094,807.9531 533.6094,808.5625 L533.6094,810.0156 Q533.6094,810.625 533.375,810.8906 Q533.1406,811.1563 532.7656,811.1563 Q532.4219,811.1563 532.2188,810.9531 Q532.0156,810.7656 531.9063,810.25 Q531.8594,809.8906 531.6719,809.7031 Q531.3438,809.3281 530.7344,809.1094 Q530.125,808.8906 529.5,808.8906 Q528.7344,808.8906 528.1016,809.2188 Q527.4688,809.5469 526.9766,810.2969 Q526.4844,811.0469 526.4844,812.0781 L526.4844,813.1719 Q526.4844,814.4063 527.375,815.2266 Q528.2656,816.0469 529.8594,816.0469 Q530.7969,816.0469 531.4531,815.7969 Q531.8438,815.6406 532.2656,815.2031 Q532.5313,814.9375 532.6797,814.8594 Q532.8281,814.7813 533.0313,814.7813 Q533.3594,814.7813 533.6172,815.0391 Q533.875,815.2969 533.875,815.6406 Q533.875,815.9844 533.5313,816.3906 Q533.0313,816.9688 532.2344,817.2969 Q531.1563,817.75 529.8594,817.75 Q528.3438,817.75 527.1406,817.125 Q526.1563,816.625 525.4688,815.5547 Q524.7813,814.4844 524.7813,813.2031 L524.7813,812.0469 Q524.7813,810.7188 525.3984,809.5703 Q526.0156,808.4219 527.1094,807.8047 Q528.2031,807.1875 529.4375,807.1875 Q530.1719,807.1875 530.8203,807.3516 Q531.4688,807.5156 532.0156,807.875 Z "/><text fill="#000000" font-family="sans-serif" font-size="12" lengthAdjust="spacingAndGlyphs" textLength="79" x="549.75" y="816.9102">ProtectedFilter</text><line style="stroke: #A80036; stroke-width: 1.5;" x1="481" x2="665" y1="828" y2="828"/><line style="stroke: #A80036; stroke-width: 1.5;" x1="481" x2="665" y1="836" y2="836"/><ellipse cx="491" cy="848.418" fill="#84BE84" rx="3" ry="3" style="stroke: #038048; stroke-width: 1.0;"/><text fill="#000000" font-family="sans-serif" font-size="11" lengthAdjust="spacingAndGlyphs" textLength="56" x="500" y="851.4189">void &lt;init&gt;()</text><ellipse cx="491" cy="862.2539" fill="#84BE84" rx="3" ry="3" style="stroke: #038048; stroke-width: 1.0;"/><text fill="#000000" font-family="sans-serif" font-size="11" lengthAdjust="spacingAndGlyphs" textLength="152" x="500" y="865.2549">boolean ignore(soot.SootClass)</text><ellipse cx="491" cy="876.0898" fill="#84BE84" rx="3" ry="3" style="stroke: #038048; stroke-width: 1.0;"/><text fill="#000000" font-family="sans-serif" font-size="11" lengthAdjust="spacingAndGlyphs" textLength="160" x="500" y="879.0908">boolean ignore(soot.SootMethod)</text><ellipse cx="491" cy="889.9258" fill="#84BE84" rx="3" ry="3" style="stroke: #038048; stroke-width: 1.0;"/><text fill="#000000" font-family="sans-serif" font-size="11" lengthAdjust="spacingAndGlyphs" textLength="147" x="500" y="892.9268">boolean ignore(soot.SootField)</text><!--class ourStuff.PublicFilter--><rect fill="#FEFECE" filter="url(#f28vhml1slvs0)" height="103.3438" id="ourStuff.PublicFilter" style="stroke: #A80036; stroke-width: 1.5;" width="186" x="701" y="796"/><ellipse cx="759.25" cy="812" fill="#ADD1B2" rx="11" ry="11" style="stroke: #A80036; stroke-width: 1.0;"/><path d="M762.0156,807.875 Q762.1719,807.6563 762.3594,807.5469 Q762.5469,807.4375 762.7656,807.4375 Q763.1406,807.4375 763.375,807.6953 Q763.6094,807.9531 763.6094,808.5625 L763.6094,810.0156 Q763.6094,810.625 763.375,810.8906 Q763.1406,811.1563 762.7656,811.1563 Q762.4219,811.1563 762.2188,810.9531 Q762.0156,810.7656 761.9063,810.25 Q761.8594,809.8906 761.6719,809.7031 Q761.3438,809.3281 760.7344,809.1094 Q760.125,808.8906 759.5,808.8906 Q758.7344,808.8906 758.1016,809.2188 Q757.4688,809.5469 756.9766,810.2969 Q756.4844,811.0469 756.4844,812.0781 L756.4844,813.1719 Q756.4844,814.4063 757.375,815.2266 Q758.2656,816.0469 759.8594,816.0469 Q760.7969,816.0469 761.4531,815.7969 Q761.8438,815.6406 762.2656,815.2031 Q762.5313,814.9375 762.6797,814.8594 Q762.8281,814.7813 763.0313,814.7813 Q763.3594,814.7813 763.6172,815.0391 Q763.875,815.2969 763.875,815.6406 Q763.875,815.9844 763.5313,816.3906 Q763.0313,816.9688 762.2344,817.2969 Q761.1563,817.75 759.8594,817.75 Q758.3438,817.75 757.1406,817.125 Q756.1563,816.625 755.4688,815.5547 Q754.7813,814.4844 754.7813,813.2031 L754.7813,812.0469 Q754.7813,810.7188 755.3984,809.5703 Q756.0156,808.4219 757.1094,807.8047 Q758.2031,807.1875 759.4375,807.1875 Q760.1719,807.1875 760.8203,807.3516 Q761.4688,807.5156 762.0156,807.875 Z "/><text fill="#000000" font-family="sans-serif" font-size="12" lengthAdjust="spacingAndGlyphs" textLength="61" x="779.75" y="816.9102">PublicFilter</text><line style="stroke: #A80036; stroke-width: 1.5;" x1="702" x2="886" y1="828" y2="828"/><line style="stroke: #A80036; stroke-width: 1.5;" x1="702" x2="886" y1="836" y2="836"/><ellipse cx="712" cy="848.418" fill="#84BE84" rx="3" ry="3" style="stroke: #038048; stroke-width: 1.0;"/><text fill="#000000" font-family="sans-serif" font-size="11" lengthAdjust="spacingAndGlyphs" textLength="56" x="721" y="851.4189">void &lt;init&gt;()</text><ellipse cx="712" cy="862.2539" fill="#84BE84" rx="3" ry="3" style="stroke: #038048; stroke-width: 1.0;"/><text fill="#000000" font-family="sans-serif" font-size="11" lengthAdjust="spacingAndGlyphs" textLength="152" x="721" y="865.2549">boolean ignore(soot.SootClass)</text><ellipse cx="712" cy="876.0898" fill="#84BE84" rx="3" ry="3" style="stroke: #038048; stroke-width: 1.0;"/><text fill="#000000" font-family="sans-serif" font-size="11" lengthAdjust="spacingAndGlyphs" textLength="160" x="721" y="879.0908">boolean ignore(soot.SootMethod)</text><ellipse cx="712" cy="889.9258" fill="#84BE84" rx="3" ry="3" style="stroke: #038048; stroke-width: 1.0;"/><text fill="#000000" font-family="sans-serif" font-size="11" lengthAdjust="spacingAndGlyphs" textLength="147" x="721" y="892.9268">boolean ignore(soot.SootField)</text><!--class ourStuff.RecursiveAnalyzer--><rect fill="#FEFECE" filter="url(#f28vhml1slvs0)" height="75.6719" id="ourStuff.RecursiveAnalyzer" style="stroke: #A80036; stroke-width: 1.5;" width="205" x="1894.5" y="442"/><ellipse cx="1942.75" cy="458" fill="#ADD1B2" rx="11" ry="11" style="stroke: #A80036; stroke-width: 1.0;"/><path d="M1945.5156,453.875 Q1945.6719,453.6563 1945.8594,453.5469 Q1946.0469,453.4375 1946.2656,453.4375 Q1946.6406,453.4375 1946.875,453.6953 Q1947.1094,453.9531 1947.1094,454.5625 L1947.1094,456.0156 Q1947.1094,456.625 1946.875,456.8906 Q1946.6406,457.1563 1946.2656,457.1563 Q1945.9219,457.1563 1945.7188,456.9531 Q1945.5156,456.7656 1945.4063,456.25 Q1945.3594,455.8906 1945.1719,455.7031 Q1944.8438,455.3281 1944.2344,455.1094 Q1943.625,454.8906 1943,454.8906 Q1942.2344,454.8906 1941.6016,455.2188 Q1940.9688,455.5469 1940.4766,456.2969 Q1939.9844,457.0469 1939.9844,458.0781 L1939.9844,459.1719 Q1939.9844,460.4063 1940.875,461.2266 Q1941.7656,462.0469 1943.3594,462.0469 Q1944.2969,462.0469 1944.9531,461.7969 Q1945.3438,461.6406 1945.7656,461.2031 Q1946.0313,460.9375 1946.1797,460.8594 Q1946.3281,460.7813 1946.5313,460.7813 Q1946.8594,460.7813 1947.1172,461.0391 Q1947.375,461.2969 1947.375,461.6406 Q1947.375,461.9844 1947.0313,462.3906 Q1946.5313,462.9688 1945.7344,463.2969 Q1944.6563,463.75 1943.3594,463.75 Q1941.8438,463.75 1940.6406,463.125 Q1939.6563,462.625 1938.9688,461.5547 Q1938.2813,460.4844 1938.2813,459.2031 L1938.2813,458.0469 Q1938.2813,456.7188 1938.8984,455.5703 Q1939.5156,454.4219 1940.6094,453.8047 Q1941.7031,453.1875 1942.9375,453.1875 Q1943.6719,453.1875 1944.3203,453.3516 Q1944.9688,453.5156 1945.5156,453.875 Z "/><text fill="#000000" font-family="sans-serif" font-size="12" lengthAdjust="spacingAndGlyphs" textLength="100" x="1963.25" y="462.9102">RecursiveAnalyzer</text><line style="stroke: #A80036; stroke-width: 1.5;" x1="1895.5" x2="2098.5" y1="474" y2="474"/><line style="stroke: #A80036; stroke-width: 1.5;" x1="1895.5" x2="2098.5" y1="482" y2="482"/><ellipse cx="1905.5" cy="494.418" fill="#84BE84" rx="3" ry="3" style="stroke: #038048; stroke-width: 1.0;"/><text fill="#000000" font-family="sans-serif" font-size="11" lengthAdjust="spacingAndGlyphs" textLength="56" x="1914.5" y="497.4189">void &lt;init&gt;()</text><ellipse cx="1905.5" cy="508.2539" fill="#84BE84" rx="3" ry="3" style="stroke: #038048; stroke-width: 1.0;"/><text fill="#000000" font-family="sans-serif" font-size="11" lengthAdjust="spacingAndGlyphs" textLength="179" x="1914.5" y="511.2549">ourStuff.Data analyze(ourStuff.Data)</text><!--class ourStuff.Relationship--><rect fill="#FEFECE" filter="url(#f28vhml1slvs0)" height="103.3438" id="ourStuff.Relationship" style="stroke: #A80036; stroke-width: 1.5;" width="423" x="1504.5" y="633"/><ellipse cx="1676.75" cy="649" fill="#ADD1B2" rx="11" ry="11" style="stroke: #A80036; stroke-width: 1.0;"/><path d="M1679.5156,644.875 Q1679.6719,644.6563 1679.8594,644.5469 Q1680.0469,644.4375 1680.2656,644.4375 Q1680.6406,644.4375 1680.875,644.6953 Q1681.1094,644.9531 1681.1094,645.5625 L1681.1094,647.0156 Q1681.1094,647.625 1680.875,647.8906 Q1680.6406,648.1563 1680.2656,648.1563 Q1679.9219,648.1563 1679.7188,647.9531 Q1679.5156,647.7656 1679.4063,647.25 Q1679.3594,646.8906 1679.1719,646.7031 Q1678.8438,646.3281 1678.2344,646.1094 Q1677.625,645.8906 1677,645.8906 Q1676.2344,645.8906 1675.6016,646.2188 Q1674.9688,646.5469 1674.4766,647.2969 Q1673.9844,648.0469 1673.9844,649.0781 L1673.9844,650.1719 Q1673.9844,651.4063 1674.875,652.2266 Q1675.7656,653.0469 1677.3594,653.0469 Q1678.2969,653.0469 1678.9531,652.7969 Q1679.3438,652.6406 1679.7656,652.2031 Q1680.0313,651.9375 1680.1797,651.8594 Q1680.3281,651.7813 1680.5313,651.7813 Q1680.8594,651.7813 1681.1172,652.0391 Q1681.375,652.2969 1681.375,652.6406 Q1681.375,652.9844 1681.0313,653.3906 Q1680.5313,653.9688 1679.7344,654.2969 Q1678.6563,654.75 1677.3594,654.75 Q1675.8438,654.75 1674.6406,654.125 Q1673.6563,653.625 1672.9688,652.5547 Q1672.2813,651.4844 1672.2813,650.2031 L1672.2813,649.0469 Q1672.2813,647.7188 1672.8984,646.5703 Q1673.5156,645.4219 1674.6094,644.8047 Q1675.7031,644.1875 1676.9375,644.1875 Q1677.6719,644.1875 1678.3203,644.3516 Q1678.9688,644.5156 1679.5156,644.875 Z "/><text fill="#000000" font-family="sans-serif" font-size="12" lengthAdjust="spacingAndGlyphs" textLength="70" x="1697.25" y="653.9102">Relationship</text><line style="stroke: #A80036; stroke-width: 1.5;" x1="1505.5" x2="1926.5" y1="665" y2="665"/><ellipse cx="1515.5" cy="677.418" fill="none" rx="3" ry="3" style="stroke: #038048; stroke-width: 1.0;"/><text fill="#000000" font-family="sans-serif" font-size="11" lengthAdjust="spacingAndGlyphs" textLength="85" x="1524.5" y="680.4189">soot.SootClass to</text><ellipse cx="1515.5" cy="691.2539" fill="none" rx="3" ry="3" style="stroke: #038048; stroke-width: 1.0;"/><text fill="#000000" font-family="sans-serif" font-size="11" lengthAdjust="spacingAndGlyphs" textLength="98" x="1524.5" y="694.2549">soot.SootClass from</text><ellipse cx="1515.5" cy="705.0898" fill="none" rx="3" ry="3" style="stroke: #038048; stroke-width: 1.0;"/><text fill="#000000" font-family="sans-serif" font-size="11" lengthAdjust="spacingAndGlyphs" textLength="213" x="1524.5" y="708.0908">ourStuff.Relationship$RelationshipType type</text><line style="stroke: #A80036; stroke-width: 1.5;" x1="1505.5" x2="1926.5" y1="714.5078" y2="714.5078"/><ellipse cx="1515.5" cy="726.9258" fill="#84BE84" rx="3" ry="3" style="stroke: #038048; stroke-width: 1.0;"/><text fill="#000000" font-family="sans-serif" font-size="11" lengthAdjust="spacingAndGlyphs" textLength="397" x="1524.5" y="729.9268">void &lt;init&gt;(soot.SootClass,soot.SootClass,ourStuff.Relationship$RelationshipType)</text><!--class ourStuff.SootClassAnalyzer--><rect fill="#FEFECE" filter="url(#f28vhml1slvs0)" height="89.5078" id="ourStuff.SootClassAnalyzer" style="stroke: #A80036; stroke-width: 1.5;" width="205" x="75.5" y="435"/><ellipse cx="122.25" cy="451" fill="#ADD1B2" rx="11" ry="11" style="stroke: #A80036; stroke-width: 1.0;"/><path d="M125.0156,446.875 Q125.1719,446.6563 125.3594,446.5469 Q125.5469,446.4375 125.7656,446.4375 Q126.1406,446.4375 126.375,446.6953 Q126.6094,446.9531 126.6094,447.5625 L126.6094,449.0156 Q126.6094,449.625 126.375,449.8906 Q126.1406,450.1563 125.7656,450.1563 Q125.4219,450.1563 125.2188,449.9531 Q125.0156,449.7656 124.9063,449.25 Q124.8594,448.8906 124.6719,448.7031 Q124.3438,448.3281 123.7344,448.1094 Q123.125,447.8906 122.5,447.8906 Q121.7344,447.8906 121.1016,448.2188 Q120.4688,448.5469 119.9766,449.2969 Q119.4844,450.0469 119.4844,451.0781 L119.4844,452.1719 Q119.4844,453.4063 120.375,454.2266 Q121.2656,455.0469 122.8594,455.0469 Q123.7969,455.0469 124.4531,454.7969 Q124.8438,454.6406 125.2656,454.2031 Q125.5313,453.9375 125.6797,453.8594 Q125.8281,453.7813 126.0313,453.7813 Q126.3594,453.7813 126.6172,454.0391 Q126.875,454.2969 126.875,454.6406 Q126.875,454.9844 126.5313,455.3906 Q126.0313,455.9688 125.2344,456.2969 Q124.1563,456.75 122.8594,456.75 Q121.3438,456.75 120.1406,456.125 Q119.1563,455.625 118.4688,454.5547 Q117.7813,453.4844 117.7813,452.2031 L117.7813,451.0469 Q117.7813,449.7188 118.3984,448.5703 Q119.0156,447.4219 120.1094,446.8047 Q121.2031,446.1875 122.4375,446.1875 Q123.1719,446.1875 123.8203,446.3516 Q124.4688,446.5156 125.0156,446.875 Z "/><text fill="#000000" font-family="sans-serif" font-size="12" lengthAdjust="spacingAndGlyphs" textLength="103" x="142.75" y="455.9102">SootClassAnalyzer</text><line style="stroke: #A80036; stroke-width: 1.5;" x1="76.5" x2="279.5" y1="467" y2="467"/><rect fill="none" height="6" style="stroke: #C82930; stroke-width: 1.0;" width="6" x="83.5" y="476.418"/><text fill="#000000" font-family="sans-serif" font-size="11" lengthAdjust="spacingAndGlyphs" textLength="86" x="95.5" y="482.4189">java.util.List filters</text><line style="stroke: #A80036; stroke-width: 1.5;" x1="76.5" x2="279.5" y1="488.8359" y2="488.8359"/><ellipse cx="86.5" cy="501.2539" fill="#84BE84" rx="3" ry="3" style="stroke: #038048; stroke-width: 1.0;"/><text fill="#000000" font-family="sans-serif" font-size="11" lengthAdjust="spacingAndGlyphs" textLength="56" x="95.5" y="504.2549">void &lt;init&gt;()</text><ellipse cx="86.5" cy="515.0898" fill="#84BE84" rx="3" ry="3" style="stroke: #038048; stroke-width: 1.0;"/><text fill="#000000" font-family="sans-serif" font-size="11" lengthAdjust="spacingAndGlyphs" textLength="179" x="95.5" y="518.0908">ourStuff.Data analyze(ourStuff.Data)</text><!--class soot.SootClass--><rect fill="#FEFECE" filter="url(#f28vhml1slvs0)" height="48" id="soot.SootClass" style="stroke: #A80036; stroke-width: 1.5;" width="90" x="2940" y="660.5"/><ellipse cx="2955" cy="676.5" fill="#ADD1B2" rx="11" ry="11" style="stroke: #A80036; stroke-width: 1.0;"/><path d="M2957.7656,672.375 Q2957.9219,672.1563 2958.1094,672.0469 Q2958.2969,671.9375 2958.5156,671.9375 Q2958.8906,671.9375 2959.125,672.1953 Q2959.3594,672.4531 2959.3594,673.0625 L2959.3594,674.5156 Q2959.3594,675.125 2959.125,675.3906 Q2958.8906,675.6563 2958.5156,675.6563 Q2958.1719,675.6563 2957.9688,675.4531 Q2957.7656,675.2656 2957.6563,674.75 Q2957.6094,674.3906 2957.4219,674.2031 Q2957.0938,673.8281 2956.4844,673.6094 Q2955.875,673.3906 2955.25,673.3906 Q2954.4844,673.3906 2953.8516,673.7188 Q2953.2188,674.0469 2952.7266,674.7969 Q2952.2344,675.5469 2952.2344,676.5781 L2952.2344,677.6719 Q2952.2344,678.9063 2953.125,679.7266 Q2954.0156,680.5469 2955.6094,680.5469 Q2956.5469,680.5469 2957.2031,680.2969 Q2957.5938,680.1406 2958.0156,679.7031 Q2958.2813,679.4375 2958.4297,679.3594 Q2958.5781,679.2813 2958.7813,679.2813 Q2959.1094,679.2813 2959.3672,679.5391 Q2959.625,679.7969 2959.625,680.1406 Q2959.625,680.4844 2959.2813,680.8906 Q2958.7813,681.4688 2957.9844,681.7969 Q2956.9063,682.25 2955.6094,682.25 Q2954.0938,682.25 2952.8906,681.625 Q2951.9063,681.125 2951.2188,680.0547 Q2950.5313,678.9844 2950.5313,677.7031 L2950.5313,676.5469 Q2950.5313,675.2188 2951.1484,674.0703 Q2951.7656,672.9219 2952.8594,672.3047 Q2953.9531,671.6875 2955.1875,671.6875 Q2955.9219,671.6875 2956.5703,671.8516 Q2957.2188,672.0156 2957.7656,672.375 Z "/><text fill="#000000" font-family="sans-serif" font-size="12" lengthAdjust="spacingAndGlyphs" textLength="58" x="2969" y="681.4102">SootClass</text><line style="stroke: #A80036; stroke-width: 1.5;" x1="2941" x2="3029" y1="692.5" y2="692.5"/><line style="stroke: #A80036; stroke-width: 1.5;" x1="2941" x2="3029" y1="700.5" y2="700.5"/><!--link ourStuff.Analyzer to ourStuff.AbstractAnalyzer--><path d="M1646.26,166.254 C1629.76,188.457 1610.15,214.854 1593.89,236.729 " fill="none" id="ourStuff.Analyzer-ourStuff.AbstractAnalyzer" style="stroke: #A80036; stroke-width: 1.0; stroke-dasharray: 7.0,7.0;"/><polygon fill="none" points="1640.88,161.756,1658.43,149.877,1652.12,170.105,1640.88,161.756" style="stroke: #A80036; stroke-width: 1.0;"/><!--link ourStuff.AbstractAnalyzer to ourStuff.AssociationAnalyzer--><path d="M1663.19,290.338 C1843.25,304.342 2209.12,337.921 2327,387 C2357.66,399.764 2387.32,422.378 2409.48,441.99 " fill="none" id="ourStuff.AbstractAnalyzer-ourStuff.AssociationAnalyzer" style="stroke: #A80036; stroke-width: 1.0;"/><polygon fill="none" points="1662.63,297.315,1643.23,288.806,1663.7,283.356,1662.63,297.315" style="stroke: #A80036; stroke-width: 1.0;"/><!--link ourStuff.AbstractAnalyzer to ourStuff.ClassCodeGenAnalyzer--><path d="M1663.42,288.401 C1884.57,300.903 2400.22,334.81 2567,387 C2572.69,388.779 2578.4,390.763 2584.11,392.914 " fill="none" id="ourStuff.AbstractAnalyzer-ourStuff.ClassCodeGenAnalyzer" style="stroke: #A80036; stroke-width: 1.0;"/><polygon fill="none" points="1662.85,295.38,1643.28,287.275,1663.64,281.402,1662.85,295.38" style="stroke: #A80036; stroke-width: 1.0;"/><!--link ourStuff.AbstractAnalyzer to ourStuff.DependencyAnalyzer--><path d="M1458.88,292.891 C1322.32,307.335 1073.27,337.945 865,387 C817.73,398.134 767.018,413.495 721.765,428.478 " fill="none" id="ourStuff.AbstractAnalyzer-ourStuff.DependencyAnalyzer" style="stroke: #A80036; stroke-width: 1.0;"/><polygon fill="none" points="1458.38,285.905,1479,290.794,1459.83,299.83,1458.38,285.905" style="stroke: #A80036; stroke-width: 1.0;"/><!--link ourStuff.AbstractAnalyzer to ourStuff.ImplementationAnalyzer--><path d="M1608.72,343.348 C1630.29,370.625 1655.5,402.491 1676.05,428.481 " fill="none" id="ourStuff.AbstractAnalyzer-ourStuff.ImplementationAnalyzer" style="stroke: #A80036; stroke-width: 1.0;"/><polygon fill="none" points="1603.09,347.505,1596.17,327.475,1614.07,338.821,1603.09,347.505" style="stroke: #A80036; stroke-width: 1.0;"/><!--link ourStuff.AbstractAnalyzer to ourStuff.InheritenceAnalyzer--><path d="M1513.28,343.348 C1491.71,370.625 1466.5,402.491 1445.95,428.481 " fill="none" id="ourStuff.AbstractAnalyzer-ourStuff.InheritenceAnalyzer" style="stroke: #A80036; stroke-width: 1.0;"/><polygon fill="none" points="1507.93,338.821,1525.83,327.475,1518.91,347.505,1507.93,338.821" style="stroke: #A80036; stroke-width: 1.0;"/><!--link ourStuff.Filter to ourStuff.JDKFilter--><path d="M274.997,741.598 C250.779,759.24 224.192,778.609 200.525,795.85 " fill="none" id="ourStuff.Filter-ourStuff.JDKFilter" style="stroke: #A80036; stroke-width: 1.0; stroke-dasharray: 7.0,7.0;"/><polygon fill="none" points="271.031,735.826,291.318,729.707,279.275,747.141,271.031,735.826" style="stroke: #A80036; stroke-width: 1.0;"/><!--link ourStuff.Filter to ourStuff.PrivateFilter--><path d="M352,750.049 C352,765.334 352,781.418 352,795.976 " fill="none" id="ourStuff.Filter-ourStuff.PrivateFilter" style="stroke: #A80036; stroke-width: 1.0; stroke-dasharray: 7.0,7.0;"/><polygon fill="none" points="345,749.92,352,729.92,359,749.92,345,749.92" style="stroke: #A80036; stroke-width: 1.0;"/><!--link ourStuff.Filter to ourStuff.ProtectedFilter--><path d="M429.003,741.598 C453.221,759.24 479.808,778.609 503.475,795.85 " fill="none" id="ourStuff.Filter-ourStuff.ProtectedFilter" style="stroke: #A80036; stroke-width: 1.0; stroke-dasharray: 7.0,7.0;"/><polygon fill="none" points="424.725,747.141,412.682,729.707,432.969,735.826,424.725,747.141" style="stroke: #A80036; stroke-width: 1.0;"/><!--link ourStuff.Filter to ourStuff.PublicFilter--><path d="M466.467,720.453 C530.705,740.879 611.976,768.077 683,796 C688.813,798.285 694.759,800.714 700.732,803.224 " fill="none" id="ourStuff.Filter-ourStuff.PublicFilter" style="stroke: #A80036; stroke-width: 1.0; stroke-dasharray: 7.0,7.0;"/><polygon fill="none" points="464.071,727.037,447.109,714.338,468.288,713.687,464.071,727.037" style="stroke: #A80036; stroke-width: 1.0;"/><!--link ourStuff.AbstractAnalyzer to ourStuff.RecursiveAnalyzer--><path d="M1662.76,307.364 C1726.21,324.766 1808.37,351.404 1876,387 C1904.37,401.934 1933.07,423.415 1955.39,441.866 " fill="none" id="ourStuff.AbstractAnalyzer-ourStuff.RecursiveAnalyzer" style="stroke: #A80036; stroke-width: 1.0;"/><polygon fill="none" points="1660.79,314.083,1643.28,302.149,1664.41,300.56,1660.79,314.083" style="stroke: #A80036; stroke-width: 1.0;"/><!--link ourStuff.AbstractAnalyzer to ourStuff.SootClassAnalyzer--><path d="M1458.26,284.037 C1196.27,287.857 509.103,305.577 298,387 C270.323,397.675 243.699,416.851 222.591,434.944 " fill="none" id="ourStuff.AbstractAnalyzer-ourStuff.SootClassAnalyzer" style="stroke: #A80036; stroke-width: 1.0;"/><polygon fill="none" points="1458.49,277.033,1478.59,283.756,1458.69,291.032,1458.49,277.033" style="stroke: #A80036; stroke-width: 1.0;"/><!--link ourStuff.AbstractAnalyzer to ourStuff.Filter--><path d="M1478.94,282.311 C1179.13,280.638 155.369,282.661 58,387 C1.5995,447.438 10.9388,505.037 58,573 C101.263,635.478 184.557,662.679 251.473,674.496 " fill="none" id="ourStuff.AbstractAnalyzer-ourStuff.Filter" style="stroke: #A80036; stroke-width: 1.0;"/><polygon fill="#A80036" points="256.668,675.389,248.4757,669.9222,251.7403,674.542,247.1205,677.8066,256.668,675.389" style="stroke: #A80036; stroke-width: 1.0;"/><text fill="#000000" font-family="sans-serif" font-size="13" lengthAdjust="spacingAndGlyphs" textLength="5" x="243.872" y="671.5542">*</text><!--link ourStuff.AnalyzerChain to ourStuff.AbstractAnalyzer--><path d="M1484.63,177.349 C1497.97,195.455 1512.54,215.236 1525.35,232.618 " fill="none" id="ourStuff.AnalyzerChain-ourStuff.AbstractAnalyzer" style="stroke: #A80036; stroke-width: 1.0;"/><polygon fill="#A80036" points="1528.57,236.984,1526.4556,227.3648,1525.6058,232.9574,1520.0131,232.1076,1528.57,236.984" style="stroke: #A80036; stroke-width: 1.0;"/><text fill="#000000" font-family="sans-serif" font-size="13" lengthAdjust="spacingAndGlyphs" textLength="5" x="1518.003" y="226.0969">*</text><!--link ourStuff.Data to soot.SootClass--><path d="M2282.97,545.721 C2296.42,556.575 2311.36,566.43 2327,573 C2562.47,671.901 2662.04,523.751 2900,616.5 C2922.43,625.244 2943.71,642.021 2959.36,656.599 " fill="none" id="ourStuff.Data-soot.SootClass" style="stroke: #A80036; stroke-width: 1.0;"/><polygon fill="#A80036" points="2963.21,660.251,2959.4326,651.1553,2959.5822,656.8102,2953.9273,656.9598,2963.21,660.251" style="stroke: #A80036; stroke-width: 1.0;"/><text fill="#000000" font-family="sans-serif" font-size="13" lengthAdjust="spacingAndGlyphs" textLength="5" x="2951.9857" y="649.5274">*</text><!--link ourStuff.Data to ourStuff.Relationship--><path d="M2157.32,545.505 C2144.67,555.771 2130.98,565.47 2117,573 C2060.34,603.526 1994.54,626.189 1932.82,642.766 " fill="none" id="ourStuff.Data-ourStuff.Relationship" style="stroke: #A80036; stroke-width: 1.0;"/><polygon fill="#A80036" points="1927.62,644.149,1937.346,645.7,1932.4518,642.8632,1935.2886,637.969,1927.62,644.149" style="stroke: #A80036; stroke-width: 1.0;"/><text fill="#000000" font-family="sans-serif" font-size="13" lengthAdjust="spacingAndGlyphs" textLength="5" x="1935.3149" y="639.9066">*</text><!--link ourStuff.Preprocessor to ourStuff.Filter--><path d="M949.827,538.505 C922.573,551.107 893.137,563.503 865,573 C725.221,620.178 557.019,651.883 452.278,668.815 " fill="none" id="ourStuff.Preprocessor-ourStuff.Filter" style="stroke: #A80036; stroke-width: 1.0;"/><polygon fill="#A80036" points="447.339,669.61,456.8608,672.127,452.2753,668.8144,455.5879,664.2289,447.339,669.61" style="stroke: #A80036; stroke-width: 1.0;"/><text fill="#000000" font-family="sans-serif" font-size="13" lengthAdjust="spacingAndGlyphs" textLength="5" x="455.1355" y="665.3147">*</text><!--link ourStuff.SootClassAnalyzer to ourStuff.Filter--><path d="M215.97,525.189 C243.932,557.731 281.927,601.949 310.655,635.383 " fill="none" id="ourStuff.SootClassAnalyzer-ourStuff.Filter" style="stroke: #A80036; stroke-width: 1.0;"/><polygon fill="#A80036" points="314.111,639.405,311.2801,629.9718,310.8527,635.6125,305.212,635.1851,314.111,639.405" style="stroke: #A80036; stroke-width: 1.0;"/><text fill="#000000" font-family="sans-serif" font-size="13" lengthAdjust="spacingAndGlyphs" textLength="5" x="302.674" y="628.5053">*</text><!--link ourStuff.ImplementationAnalyzer to ourStuff.Relationship--><path d="M1716,531.577 C1716,560.812 1716,597.642 1716,627.717 " fill="none" id="ourStuff.ImplementationAnalyzer-ourStuff.Relationship" style="stroke: #A80036; stroke-width: 1.0; stroke-dasharray: 7.0,7.0;"/><polygon fill="#A80036" points="1716,632.866,1720,623.866,1716,627.866,1712,623.866,1716,632.866" style="stroke: #A80036; stroke-width: 1.0;"/><text fill="#000000" font-family="sans-serif" font-size="13" lengthAdjust="spacingAndGlyphs" textLength="5" x="1710.6484" y="621.9756">*</text><!--link ourStuff.InheritenceAnalyzer to ourStuff.Relationship--><path d="M1483.43,531.577 C1529.38,561.598 1587.6,599.626 1634.29,630.125 " fill="none" id="ourStuff.InheritenceAnalyzer-ourStuff.Relationship" style="stroke: #A80036; stroke-width: 1.0; stroke-dasharray: 7.0,7.0;"/><polygon fill="#A80036" points="1638.49,632.866,1633.1533,624.5883,1634.3075,630.1262,1628.7696,631.2803,1638.49,632.866" style="stroke: #A80036; stroke-width: 1.0;"/><text fill="#000000" font-family="sans-serif" font-size="13" lengthAdjust="spacingAndGlyphs" textLength="5" x="1622.2386" y="621.9756">*</text></g></svg>